<svg width="120" height="120" viewBox="0 0 120 120" fill="none" xmlns="http://www.w3.org/2000/svg">
<path d="M30.57 102.28C27.1609 102.274 23.893 100.918 21.4824 98.5073C19.0718 96.0967 17.7153 92.8288 17.71 89.4197V30.5697C17.7153 27.1616 19.0722 23.8947 21.483 21.4857C23.8939 19.0767 27.1618 17.7224 30.57 17.7197H89.42C92.8281 17.7224 96.096 19.0767 98.5069 21.4857C100.918 23.8947 102.275 27.1616 102.28 30.5697V89.4197C102.275 92.8288 100.918 96.0967 98.5075 98.5073C96.0969 100.918 92.829 102.274 89.42 102.28H30.57ZM53 82.4697C53 84.3262 53.7375 86.1067 55.0502 87.4195C56.363 88.7322 58.1434 89.4697 60 89.4697C61.8565 89.4697 63.637 88.7322 64.9497 87.4195C66.2625 86.1067 67 84.3262 67 82.4697V66.9997H82.47C84.3265 66.9997 86.107 66.2622 87.4197 64.9495C88.7325 63.6367 89.47 61.8562 89.47 59.9997C89.47 58.1432 88.7325 56.3627 87.4197 55.05C86.107 53.7372 84.3265 52.9997 82.47 52.9997H67V37.5297C67 35.6732 66.2625 33.8927 64.9497 32.58C63.637 31.2672 61.8565 30.5297 60 30.5297C58.1434 30.5297 56.363 31.2672 55.0502 32.58C53.7375 33.8927 53 35.6732 53 37.5297V52.9997H37.53C35.6734 52.9997 33.893 53.7372 32.5802 55.05C31.2675 56.3627 30.53 58.1432 30.53 59.9997C30.53 61.8562 31.2675 63.6367 32.5802 64.9495C33.893 66.2622 35.6734 66.9997 37.53 66.9997H53V82.4697Z" fill="#00B695"/>
<path d="M89.42 21.2197C91.8998 21.2224 94.2775 22.208 96.032 23.9606C97.7865 25.7132 98.7747 28.0898 98.78 30.5697V89.4197C98.7773 91.9013 97.7903 94.2806 96.0356 96.0353C94.2808 97.7901 91.9016 98.7771 89.42 98.7797H30.57C28.0883 98.7771 25.7091 97.7901 23.9544 96.0353C22.1996 94.2806 21.2126 91.9013 21.21 89.4197V30.5697C21.2153 28.0898 22.2034 25.7132 23.9579 23.9606C25.7124 22.208 28.0901 21.2224 30.57 21.2197H89.42ZM49.5 49.4997H37.5C34.7152 49.4997 32.0445 50.606 30.0753 52.5751C28.1062 54.5442 27 57.215 27 59.9997C27 62.7845 28.1062 65.4552 30.0753 67.4244C32.0445 69.3935 34.7152 70.4997 37.5 70.4997H49.5V82.4997C49.5 85.2845 50.6062 87.9552 52.5753 89.9244C54.5445 91.8935 57.2152 92.9997 60 92.9997C62.7847 92.9997 65.4555 91.8935 67.4246 89.9244C69.3937 87.9552 70.5 85.2845 70.5 82.4997V70.4997H82.5C85.2847 70.4997 87.9555 69.3935 89.9246 67.4244C91.8937 65.4552 93 62.7845 93 59.9997C93 57.215 91.8937 54.5442 89.9246 52.5751C87.9555 50.606 85.2847 49.4997 82.5 49.4997H70.5V37.4997C70.5 34.715 69.3937 32.0442 67.4246 30.0751C65.4555 28.106 62.7847 26.9997 60 26.9997C57.2152 26.9997 54.5445 28.106 52.5753 30.0751C50.6062 32.0442 49.5 34.715 49.5 37.4997V49.4997ZM89.42 14.2197H30.57C26.2328 14.2197 22.073 15.942 19.0052 19.0079C15.9374 22.0739 14.2126 26.2325 14.21 30.5697V89.4197C14.21 93.7587 15.9336 97.9199 19.0017 100.988C22.0698 104.056 26.231 105.78 30.57 105.78H89.42C91.5688 105.781 93.6967 105.359 95.6822 104.537C97.6677 103.715 99.4717 102.51 100.991 100.991C102.511 99.4715 103.716 97.6675 104.537 95.682C105.359 93.6965 105.781 91.5685 105.78 89.4197V30.5697C105.78 28.4218 105.357 26.2949 104.534 24.3105C103.712 22.3262 102.507 20.5234 100.988 19.005C99.4683 17.4866 97.6647 16.2825 95.6799 15.4614C93.6951 14.6404 91.5679 14.2184 89.42 14.2197ZM37.53 63.4997C36.6017 63.4997 35.7115 63.131 35.0551 62.4746C34.3987 61.8182 34.03 60.928 34.03 59.9997C34.03 59.0715 34.3987 58.1812 35.0551 57.5249C35.7115 56.8685 36.6017 56.4997 37.53 56.4997H56.53V37.4997C56.53 36.5715 56.8987 35.6812 57.5551 35.0249C58.2115 34.3685 59.1017 33.9997 60.03 33.9997C60.9582 33.9997 61.8485 34.3685 62.5048 35.0249C63.1612 35.6812 63.53 36.5715 63.53 37.4997V56.4997H82.53C83.4582 56.4997 84.3485 56.8685 85.0048 57.5249C85.6612 58.1812 86.03 59.0715 86.03 59.9997C86.03 60.928 85.6612 61.8182 85.0048 62.4746C84.3485 63.131 83.4582 63.4997 82.53 63.4997H63.53V82.4997C63.53 83.428 63.1612 84.3182 62.5048 84.9746C61.8485 85.631 60.9582 85.9997 60.03 85.9997C59.1017 85.9997 58.2115 85.631 57.5551 84.9746C56.8987 84.3182 56.53 83.428 56.53 82.4997V63.4997H37.53Z" fill="#00B695"/>
</svg>
