<svg width="30" height="30" viewBox="0 0 104 104" fill="none" xmlns="http://www.w3.org/2000/svg">
<path d="M52 0.719728C41.8573 0.71775 31.9419 3.72359 23.5076 9.3571C15.0734 14.9906 8.49911 22.9988 4.61631 32.3688C0.733517 41.7388 -0.283425 52.0498 1.6941 61.9978C3.67162 71.9458 8.55477 81.084 15.726 88.2566C22.8973 95.4293 32.0345 100.314 41.9821 102.294C51.9297 104.273 62.2409 103.258 71.6117 99.3772C80.9825 95.4963 88.9919 88.9236 94.6271 80.4904C100.262 72.0572 103.27 62.1424 103.27 51.9997C103.27 38.4012 97.8687 25.3594 88.254 15.7428C78.6393 6.12625 65.5986 0.722379 52 0.719728ZM73.47 68.5197C73.9635 69.0101 74.3002 69.636 74.4373 70.3181C74.5744 71.0001 74.5057 71.7076 74.24 72.3505C73.9742 72.9935 73.5234 73.5429 72.9447 73.9292C72.3661 74.3154 71.6857 74.5209 70.99 74.5197C70.5326 74.5246 70.0788 74.4387 69.6549 74.2671C69.2309 74.0954 68.8452 73.8414 68.52 73.5197L52 56.9997L35.47 73.4697C34.8069 74.1261 33.9103 74.4923 32.9773 74.4876C32.0443 74.4829 31.1514 74.1078 30.495 73.4447C29.8386 72.7817 29.4724 71.885 29.4771 70.952C29.4818 70.0191 29.8569 69.1261 30.52 68.4697L47.05 51.9997L30.52 35.4697C29.8636 34.8133 29.4948 33.923 29.4948 32.9947C29.4948 32.0664 29.8636 31.1761 30.52 30.5197C31.1764 29.8633 32.0667 29.4945 32.995 29.4945C33.9233 29.4945 34.8136 29.8633 35.47 30.5197L52 47.0497L68.52 30.5197C69.1764 29.8567 70.0693 29.4816 71.0023 29.4769C71.9353 29.4722 72.8319 29.8383 73.495 30.4947C74.158 31.1511 74.5331 32.0441 74.5378 32.9771C74.5425 33.91 74.1764 34.8067 73.52 35.4697L57 51.9997L73.47 68.5197Z" fill="currentColor"/>
</svg>
