<svg width="120" height="120" viewBox="0 0 120 120" fill="none" xmlns="http://www.w3.org/2000/svg">
<path d="M33.54 107.78C33.0095 107.78 32.5008 107.569 32.1258 107.194C31.7507 106.819 31.54 106.31 31.54 105.78V30.2597L28.94 29.5697C27.305 29.1393 25.8583 28.1801 24.8255 26.8416C23.7927 25.503 23.2317 23.8604 23.23 22.1697V20.2597C23.23 19.5878 23.4962 18.9433 23.9704 18.4672C24.4446 17.9911 25.0881 17.7224 25.76 17.7197H94.25C94.5831 17.7197 94.9129 17.7855 95.2205 17.9133C95.5281 18.041 95.8074 18.2283 96.0425 18.4643C96.2776 18.7003 96.4637 18.9804 96.5903 19.2885C96.7168 19.5966 96.7813 19.9266 96.78 20.2597V22.1697C96.7806 23.8595 96.2217 25.502 95.1905 26.8407C94.1593 28.1794 92.714 29.139 91.08 29.5697L88.47 30.2597V105.76C88.47 106.29 88.2593 106.799 87.8842 107.174C87.5091 107.549 87.0004 107.76 86.47 107.76L33.54 107.78ZM53 91.3797C53 93.2362 53.7375 95.0167 55.0502 96.3295C56.363 97.6422 58.1435 98.3797 60 98.3797C61.8565 98.3797 63.637 97.6422 64.9497 96.3295C66.2625 95.0167 67 93.2362 67 91.3797V86.9997C67.7018 88.4135 68.8608 89.5486 70.289 90.2208C71.7171 90.893 73.3305 91.0628 74.8672 90.7026C76.404 90.3425 77.774 89.4735 78.7547 88.2368C79.7355 87 80.2694 85.4681 80.27 83.8897V55.3797C80.2717 53.8005 79.7393 52.267 78.7594 51.0286C77.7794 49.7901 76.4095 48.9194 74.8721 48.5579C73.3348 48.1965 71.7204 48.3655 70.2912 49.0375C68.8621 49.7096 67.7022 50.8451 67 52.2597V47.8497C67 45.9932 66.2625 44.2127 64.9497 42.9C63.637 41.5872 61.8565 40.8497 60 40.8497C58.1435 40.8497 56.363 41.5872 55.0502 42.9C53.7375 44.2127 53 45.9932 53 47.8497V52.2797C52.3015 50.8611 51.1433 49.7208 49.714 49.0445C48.2847 48.3682 46.6685 48.1957 45.1287 48.5552C43.5889 48.9146 42.2161 49.7848 41.234 51.024C40.2519 52.2633 39.7182 53.7985 39.72 55.3797V83.8497C39.7205 85.4301 40.2557 86.9638 41.2387 88.2013C42.2216 89.4388 43.5943 90.3073 45.1336 90.6654C46.6728 91.0236 48.288 90.8503 49.7163 90.1739C51.1445 89.4974 52.3019 88.3575 53 86.9397V91.3797Z" fill="#00B695"/>
<path d="M93.2801 21.2197V22.2197C93.2757 23.1332 92.9708 24.0199 92.4123 24.7428C91.8538 25.4658 91.0729 25.9848 90.1901 26.2197L85.0001 27.5597V104.28H35.0001V27.5597L29.7901 26.1897C28.9063 25.9551 28.1241 25.4365 27.564 24.7137C27.0038 23.991 26.6968 23.1041 26.6901 22.1897V21.1897H93.2801M49.8101 45.3397C48.2425 44.8592 46.5842 44.7521 44.9678 45.0271C43.3513 45.302 41.8217 45.9513 40.501 46.9231C39.1804 47.8948 38.1054 49.1621 37.3621 50.6236C36.6188 52.085 36.2277 53.7001 36.2201 55.3397V83.8497C36.2235 85.4908 36.6118 87.1082 37.3539 88.5719C38.096 90.0356 39.1712 91.3047 40.493 92.2773C41.8148 93.25 43.3463 93.8989 44.9645 94.172C46.5827 94.4451 48.2424 94.3347 49.8101 93.8497C50.3719 96.1292 51.6814 98.1547 53.5294 99.6026C55.3775 101.051 57.6574 101.837 60.0051 101.837C62.3528 101.837 64.6328 101.051 66.4809 99.6026C68.3289 98.1547 69.6384 96.1292 70.2001 93.8497C71.1959 94.1506 72.2299 94.3056 73.2701 94.3097C76.0541 94.3071 78.7233 93.2 80.6918 91.2314C82.6604 89.2629 83.7675 86.5937 83.7701 83.8097V55.3797C83.7675 52.5958 82.6604 49.9266 80.6918 47.958C78.7233 45.9895 76.0541 44.8824 73.2701 44.8797C72.2304 44.8805 71.1963 45.0321 70.2001 45.3297C69.6384 43.0502 68.3289 41.0247 66.4809 39.5768C64.6328 38.1289 62.3528 37.3421 60.0051 37.3421C57.6574 37.3421 55.3775 38.1289 53.5294 39.5768C51.6814 41.0247 50.3719 43.0502 49.8101 45.3297M94.2501 14.2197H25.7401C24.1488 14.2197 22.6227 14.8519 21.4975 15.9771C20.3723 17.1023 19.7401 18.6284 19.7401 20.2197V22.1297C19.7195 24.6003 20.5193 27.0079 22.0141 28.9751C23.5089 30.9423 25.6143 32.3578 28.0001 32.9997V105.8C28.0001 107.264 28.5817 108.668 29.6169 109.703C30.6521 110.738 32.0561 111.32 33.5201 111.32H86.4501C87.1809 111.324 87.9053 111.183 88.5811 110.904C89.2569 110.626 89.8707 110.217 90.387 109.7C90.9033 109.182 91.3118 108.568 91.5887 107.891C91.8656 107.215 92.0054 106.491 92.0001 105.76V32.9997C94.382 32.3706 96.4887 30.9711 97.9919 29.0193C99.495 27.0675 100.31 24.6732 100.31 22.2097V20.2597C100.31 18.6684 99.678 17.1423 98.5528 16.0171C97.4276 14.8919 95.9014 14.2597 94.3101 14.2597L94.2501 14.2197ZM60.0001 94.8797C59.0719 94.8797 58.1816 94.511 57.5253 93.8546C56.8689 93.1982 56.5001 92.308 56.5001 91.3797V47.8497C56.5001 46.9215 56.8689 46.0312 57.5253 45.3749C58.1816 44.7185 59.0719 44.3497 60.0001 44.3497C60.9284 44.3497 61.8186 44.7185 62.475 45.3749C63.1314 46.0312 63.5001 46.9215 63.5001 47.8497V91.3797C63.5001 92.308 63.1314 93.1982 62.475 93.8546C61.8186 94.511 60.9284 94.8797 60.0001 94.8797ZM73.2701 87.3497C72.3419 87.3497 71.4516 86.981 70.7953 86.3246C70.1389 85.6682 69.7701 84.778 69.7701 83.8497V55.3797C69.7701 54.4515 70.1389 53.5612 70.7953 52.9049C71.4516 52.2485 72.3419 51.8797 73.2701 51.8797C74.1984 51.8797 75.0886 52.2485 75.745 52.9049C76.4014 53.5612 76.7701 54.4515 76.7701 55.3797V83.8497C76.7701 84.778 76.4014 85.6682 75.745 86.3246C75.0886 86.981 74.1984 87.3497 73.2701 87.3497ZM46.7201 87.3497C45.7919 87.3497 44.9016 86.981 44.2453 86.3246C43.5889 85.6682 43.2201 84.778 43.2201 83.8497V55.3797C43.2201 54.4515 43.5889 53.5612 44.2453 52.9049C44.9016 52.2485 45.7919 51.8797 46.7201 51.8797C47.6484 51.8797 48.5386 52.2485 49.195 52.9049C49.8514 53.5612 50.2201 54.4515 50.2201 55.3797V83.8497C50.2201 84.778 49.8514 85.6682 49.195 86.3246C48.5386 86.981 47.6484 87.3497 46.7201 87.3497Z" fill="#00B695"/>
</svg>
