<svg width="120" height="120" viewBox="0 0 120 120" fill="none" xmlns="http://www.w3.org/2000/svg">
<path d="M33.54 107.78C33.0096 107.78 32.5009 107.569 32.1258 107.194C31.7508 106.819 31.54 106.31 31.54 105.78V33H88.54V105.75C88.54 106.28 88.3293 106.789 87.9543 107.164C87.5792 107.539 87.0705 107.75 86.54 107.75L33.54 107.78ZM53 91.89C53 93.7465 53.7375 95.527 55.0503 96.8397C56.363 98.1525 58.1435 98.89 60 98.89C61.8566 98.89 63.637 98.1525 64.9498 96.8397C66.2625 95.527 67 93.7465 67 91.89V87.42C67.7018 88.8338 68.8609 89.9689 70.289 90.6411C71.7171 91.3133 73.3305 91.4831 74.8673 91.1229C76.4041 90.7628 77.774 89.8938 78.7548 88.6571C79.7355 87.4203 80.2695 85.8884 80.27 84.31V55.67C80.2717 54.0907 79.7394 52.5573 78.7594 51.3188C77.7795 50.0804 76.4095 49.2097 74.8722 48.8482C73.3348 48.4868 71.7204 48.6558 70.2913 49.3278C68.8621 49.9999 67.7022 51.1354 67 52.55V48.09C67 46.2335 66.2625 44.453 64.9498 43.1403C63.637 41.8275 61.8566 41.09 60 41.09C58.1435 41.09 56.363 41.8275 55.0503 43.1403C53.7375 44.453 53 46.2335 53 48.09V52.58C52.3019 51.1622 51.1446 50.0223 49.7163 49.3459C48.288 48.6694 46.6729 48.4962 45.1337 48.8543C43.5944 49.2125 42.2216 50.0809 41.2387 51.3184C40.2558 52.5559 39.7205 54.0896 39.72 55.67V84.31C39.7205 85.8904 40.2558 87.4241 41.2387 88.6616C42.2216 89.8991 43.5944 90.7675 45.1337 91.1257C46.6729 91.4838 48.288 91.3106 49.7163 90.6341C51.1446 89.9577 52.3019 88.8178 53 87.4V91.89Z" fill="#00B695"/>
<path d="M85 36.54V104.28H35V36.54H85ZM49.79 45.62C48.794 45.3217 47.7598 45.1701 46.72 45.17C43.936 45.1727 41.2669 46.2798 39.2983 48.2483C37.3297 50.2169 36.2226 52.8861 36.22 55.67V84.31C36.2226 87.094 37.3297 89.7632 39.2983 91.7317C41.2669 93.7003 43.936 94.8074 46.72 94.81C47.7606 94.8116 48.7955 94.6565 49.79 94.35C50.3405 96.6435 51.6471 98.6848 53.4993 100.145C55.3515 101.605 57.6414 102.399 60 102.399C62.3586 102.399 64.6485 101.605 66.5007 100.145C68.3529 98.6848 69.6595 96.6435 70.21 94.35C71.2012 94.6558 72.2327 94.8109 73.27 94.81C76.054 94.8074 78.7231 93.7003 80.6917 91.7317C82.6603 89.7632 83.7673 87.094 83.77 84.31V55.67C83.7673 52.8861 82.6603 50.2169 80.6917 48.2483C78.7231 46.2798 76.054 45.1727 73.27 45.17C72.2332 45.1659 71.2017 45.3176 70.21 45.62C69.6516 43.3335 68.3419 41.3005 66.4906 39.8469C64.6394 38.3933 62.3537 37.6032 60 37.6032C57.6463 37.6032 55.3606 38.3933 53.5094 39.8469C51.6581 41.3005 50.3484 43.3335 49.79 45.62ZM92 29.54H28V105.79C28.0079 107.249 28.593 108.645 29.6273 109.674C30.6617 110.703 32.0612 111.28 33.52 111.28H86.46C87.9223 111.285 89.3269 110.71 90.3656 109.681C91.4042 108.652 91.9921 107.252 92 105.79V29.54ZM60 95.39C59.0717 95.39 58.1815 95.0213 57.5251 94.3649C56.8687 93.7085 56.5 92.8183 56.5 91.89V48.09C56.5 47.1618 56.8687 46.2715 57.5251 45.6152C58.1815 44.9588 59.0717 44.59 60 44.59C60.9283 44.59 61.8185 44.9588 62.4749 45.6152C63.1312 46.2715 63.5 47.1618 63.5 48.09V91.89C63.5 92.8183 63.1312 93.7085 62.4749 94.3649C61.8185 95.0213 60.9283 95.39 60 95.39ZM73.27 87.81C72.3417 87.81 71.4515 87.4413 70.7951 86.7849C70.1388 86.1285 69.77 85.2383 69.77 84.31V55.67C69.77 54.7418 70.1388 53.8515 70.7951 53.1952C71.4515 52.5388 72.3417 52.17 73.27 52.17C74.1983 52.17 75.0885 52.5388 75.7449 53.1952C76.4012 53.8515 76.77 54.7418 76.77 55.67V84.31C76.77 85.2383 76.4012 86.1285 75.7449 86.7849C75.0885 87.4413 74.1983 87.81 73.27 87.81ZM46.72 87.81C45.7917 87.81 44.9015 87.4413 44.2451 86.7849C43.5887 86.1285 43.22 85.2383 43.22 84.31V55.67C43.22 54.7418 43.5887 53.8515 44.2451 53.1952C44.9015 52.5388 45.7917 52.17 46.72 52.17C47.6483 52.17 48.5385 52.5388 49.1949 53.1952C49.8513 53.8515 50.22 54.7418 50.22 55.67V84.31C50.22 85.2383 49.8513 86.1285 49.1949 86.7849C48.5385 87.4413 47.6483 87.81 46.72 87.81Z" fill="#00B695"/>
<path d="M30.86 33.12C28.8302 33.1173 26.8844 32.3091 25.4501 30.8729C24.0157 29.4367 23.21 27.4898 23.21 25.46V23.55C23.2074 23.2161 23.2709 22.8849 23.3969 22.5757C23.5228 22.2664 23.7088 21.9851 23.944 21.7481C24.1791 21.511 24.4589 21.3229 24.7672 21.1945C25.0755 21.0661 25.4061 21 25.74 21H50.17V13C50.17 12.7348 50.2754 12.4804 50.4629 12.2929C50.6505 12.1054 50.9048 12 51.17 12H68.87C69.1353 12 69.3896 12.1054 69.5772 12.2929C69.7647 12.4804 69.87 12.7348 69.87 13V21H94.25C94.922 21 95.5665 21.2662 96.0426 21.7404C96.5186 22.2146 96.7874 22.8581 96.79 23.53V25.44C96.7874 27.4707 95.9795 29.4176 94.5436 30.8535C93.1076 32.2895 91.1608 33.0974 89.13 33.1L30.86 33.12Z" fill="#00B695"/>
<path d="M66.3298 15.5898V24.5198H93.3298V25.4598C93.3298 26.5631 92.8915 27.6213 92.1114 28.4014C91.3312 29.1816 90.2731 29.6198 89.1698 29.6198H30.8598C29.7582 29.6172 28.7027 29.1777 27.9247 28.3979C27.1467 27.618 26.7098 26.5614 26.7098 25.4598V24.5198H53.7098V15.5898H66.3298ZM68.8698 8.58984H51.1298C49.9469 8.58984 48.8125 9.05974 47.9761 9.89615C47.1397 10.7326 46.6698 11.867 46.6698 13.0498V17.5198H25.7398C24.1485 17.5198 22.6224 18.152 21.4971 19.2772C20.3719 20.4024 19.7398 21.9285 19.7398 23.5198V25.4298C19.7318 28.3879 20.8986 31.2282 22.9837 33.3264C25.0688 35.4247 27.9017 36.6093 30.8598 36.6198H89.1298C92.0896 36.6198 94.9282 35.4441 97.0211 33.3512C99.114 31.2582 100.29 28.4197 100.29 25.4598V23.5498C100.29 21.9585 99.6576 20.4324 98.5324 19.3072C97.4072 18.182 95.8811 17.5498 94.2898 17.5498H73.3298V13.0498C73.3298 11.867 72.8599 10.7326 72.0235 9.89615C71.1871 9.05974 70.0527 8.58984 68.8698 8.58984Z" fill="#00B695"/>
</svg>
