<svg width="120" height="120" viewBox="0 0 120 120" fill="none" xmlns="http://www.w3.org/2000/svg">
<path d="M50.3301 54.1103C50.8049 53.3459 51.3652 52.638 52.0001 52.0003C52.3921 51.6127 52.8097 51.2519 53.2501 50.9203C53.5323 50.7045 53.8261 50.5042 54.1301 50.3203L50.3301 54.1103Z" fill="#00B695"/>
<path d="M60.0001 45.1699H59.2501C59.0001 45.1699 58.7601 45.1699 58.5101 45.2299C58.3457 45.2401 58.182 45.2601 58.0201 45.2899H57.7801H57.6401C57.4452 45.3135 57.2516 45.3469 57.0601 45.3899C56.8201 45.3899 56.5901 45.4899 56.3501 45.5499L55.6801 45.7299H55.6101L54.9801 45.9399L54.3101 46.1999C54.0601 46.2999 53.8101 46.4099 53.5701 46.5299L52.9401 46.8599C52.307 47.1982 51.7018 47.5861 51.1301 48.0199C50.5593 48.4458 50.0211 48.9138 49.5201 49.4199C48.127 50.8049 47.0246 52.4542 46.2776 54.271C45.5306 56.0879 45.1541 58.0356 45.1701 59.9999C45.1701 60.2799 45.1701 60.5499 45.1701 60.8199C45.1598 61.0198 45.1598 61.2201 45.1701 61.4199C45.1653 61.4631 45.1653 61.5067 45.1701 61.5499C45.1701 61.7399 45.1701 61.9299 45.2301 62.1199C45.3092 62.6625 45.4194 63.2 45.5601 63.7299L63.7401 45.6499C63.4437 45.5679 63.1433 45.5012 62.8401 45.4499L61.9101 45.2999C61.6001 45.2999 61.2801 45.2299 60.9601 45.2099C60.6401 45.1899 60.3201 45.2099 59.9601 45.2099L60.0001 45.1699Z" fill="#00B695"/>
<path d="M69.6899 65.8799C69.2128 66.6512 68.6455 67.3629 67.9999 67.9999L67.4999 68.4699L67.3299 68.6199C67.1699 68.7599 66.9999 68.9099 66.8199 69.0399C66.6399 69.1699 66.2099 69.4799 65.8899 69.6699L69.6899 65.8799Z" fill="#00B695"/>
<path d="M74.35 56.2695L56.26 74.3495C56.5133 74.4229 56.7633 74.4829 57.01 74.5295C57.25 74.5295 57.5 74.6295 57.74 74.6595C58.4881 74.7719 59.2435 74.8287 60 74.8295C60.7499 74.8289 61.4986 74.7721 62.24 74.6595L62.95 74.5295C63.4297 74.4321 63.9038 74.3086 64.37 74.1595L65.06 73.9295C65.28 73.8395 65.51 73.7595 65.73 73.6595C66.17 73.4695 66.61 73.2595 67.03 73.0395C67.2367 72.9262 67.4467 72.8062 67.66 72.6795C68.07 72.4295 68.46 72.1595 68.84 71.8795C69.22 71.5995 69.35 71.4795 69.59 71.2695L69.75 71.1395C69.99 70.9195 70.23 70.6995 70.45 70.4795C71.2952 69.6435 72.0342 68.7064 72.65 67.6895C74.0711 65.3759 74.8255 62.7147 74.83 59.9995C74.8302 59.4549 74.8002 58.9108 74.74 58.3695L74.68 57.9095C74.68 57.6895 74.62 57.4795 74.58 57.2695V57.1395C74.52 56.8495 74.46 56.5695 74.39 56.2895L74.35 56.2695Z" fill="#00B695"/>
<path d="M109.42 55.8197L93.3599 39.7497C92.9399 39.3297 92.5199 38.9197 92.0899 38.5297L79.7999 50.8097C81.6876 54.8685 82.282 59.4094 81.5026 63.8173C80.7231 68.2252 78.6074 72.2869 75.4422 75.4521C72.277 78.6173 68.2153 80.7329 63.8075 81.5124C59.3996 82.2919 54.8586 81.6975 50.7999 79.8097L40.6599 89.9997C49.3917 93.9131 59.1062 95.082 68.5171 93.3516C77.9279 91.6212 86.5913 87.0732 93.3599 80.3097L109.42 64.1997C109.972 63.6505 110.41 62.9977 110.709 62.2786C111.008 61.5595 111.162 60.7885 111.162 60.0097C111.162 59.231 111.008 58.46 110.709 57.7409C110.41 57.0218 109.972 56.3689 109.42 55.8197ZM59.9999 25.9297C53.8028 25.9202 47.665 27.1364 41.9397 29.5082C36.2145 31.88 31.0148 35.3606 26.6399 39.7497L10.5699 55.8197C9.45973 56.9316 8.83618 58.4385 8.83618 60.0097C8.83618 61.5809 9.45973 63.0879 10.5699 64.1997L26.6399 80.2597C27.0599 80.6797 27.4899 81.0897 27.9199 81.4797L40.1999 69.1997C38.3122 65.141 37.7178 60.6001 38.4972 56.1922C39.2767 51.7843 41.3924 47.7226 44.5576 44.5574C47.7228 41.3922 51.7845 39.2766 56.1923 38.4971C60.6002 37.7176 65.1412 38.312 69.1999 40.1997L79.3299 30.0697C73.2521 27.3376 66.6636 25.9265 59.9999 25.9297Z" fill="#00B695"/>
<path fill-rule="evenodd" clip-rule="evenodd" d="M99.4549 20.5447C100.822 21.9115 100.822 24.1276 99.4549 25.4944L25.4949 99.4544C24.1281 100.821 21.912 100.821 20.5451 99.4544C19.1783 98.0876 19.1783 95.8715 20.5451 94.5047L94.5051 20.5447C95.872 19.1778 98.0881 19.1778 99.4549 20.5447Z" fill="#00B695"/>
</svg>
