<svg width="120" height="120" viewBox="0 0 120 120" fill="none" xmlns="http://www.w3.org/2000/svg">
<path d="M22.04 23.21H97.96L60 60.04L22.04 23.21Z" fill="#00B695"/>
<path d="M89.33 26.71L60 55.16L30.67 26.71H89.33ZM101.6 19.71H17.68C17.34 19.7268 17.0121 19.8418 16.7362 20.0411C16.4603 20.2405 16.248 20.5156 16.1253 20.8331C16.0025 21.1506 15.9745 21.4969 16.0445 21.83C16.1146 22.1631 16.2797 22.4688 16.52 22.71L58.52 63.44C58.925 63.824 59.4618 64.0381 60.02 64.0381C60.5781 64.0381 61.115 63.824 61.52 63.44L103.52 22.73C103.759 22.5007 103.928 22.2083 104.007 21.8868C104.087 21.5653 104.073 21.2279 103.969 20.9137C103.864 20.5996 103.672 20.3216 103.416 20.112C103.159 19.9025 102.849 19.77 102.52 19.73C102.243 19.715 101.966 19.715 101.69 19.73L101.6 19.71Z" fill="#00B695"/>
<path d="M19.3399 96.7896C17.3622 96.787 15.4662 96.0002 14.0678 94.6017C12.6693 93.2033 11.8825 91.3073 11.8799 89.3296V32.8496L51.1899 70.9996C53.5571 73.2736 56.7124 74.5436 59.9949 74.5436C63.2774 74.5436 66.4326 73.2736 68.7999 70.9996L107.44 33.4996V89.3296C107.437 91.3039 106.653 93.1968 105.259 94.5947C103.865 95.9925 101.974 96.7817 99.9999 96.7896H19.3399Z" fill="#00B695"/>
<path d="M15.3799 41.12L48.7699 73.53C51.7883 76.4357 55.8152 78.0589 60.0049 78.0589C64.1946 78.0589 68.2214 76.4357 71.2399 73.53L103.94 41.81V89.33C103.94 90.3909 103.518 91.4083 102.768 92.1585C102.018 92.9086 101.001 93.33 99.9399 93.33H19.3399C18.279 93.33 17.2616 92.9086 16.5115 92.1585C15.7613 91.4083 15.3399 90.3909 15.3399 89.33V41.12M9.99989 26.81C9.60202 26.8004 9.21518 26.9414 8.9167 27.2046C8.61822 27.4679 8.43008 27.8341 8.38989 28.23C8.38989 28.5 8.38989 28.77 8.38989 29.05V89.33C8.38989 92.2474 9.54882 95.0453 11.6117 97.1082C13.6746 99.1711 16.4725 100.33 19.3899 100.33H99.9999C102.917 100.33 105.715 99.1711 107.778 97.1082C109.841 95.0453 111 92.2474 111 89.33V29C110.99 28.6858 110.889 28.3812 110.709 28.1233C110.53 27.8655 110.279 27.6655 109.987 27.5479C109.695 27.4302 109.376 27.3999 109.068 27.4606C108.759 27.5214 108.475 27.6706 108.25 27.89L66.3699 68.49C64.6555 70.1317 62.3735 71.0482 59.9999 71.0482C57.6262 71.0482 55.3442 70.1317 53.6299 68.49L11.1599 27.27C11.0066 27.1205 10.8251 27.0028 10.626 26.9239C10.4268 26.8449 10.2141 26.8062 9.99989 26.81Z" fill="#00B695"/>
</svg>
