<svg width="120" height="120" viewBox="0 0 120 120" fill="none" xmlns="http://www.w3.org/2000/svg">
<path d="M105.74 90.8897V94.8897C105.74 95.1549 105.635 95.4093 105.447 95.5968C105.26 95.7844 105.005 95.8897 104.74 95.8897H15.2202C14.955 95.8897 14.7006 95.7844 14.5131 95.5968C14.3256 95.4093 14.2202 95.1549 14.2202 94.8897V90.8897L26.5202 80.2397V52.6397C26.5226 45.0922 29.0768 37.7671 33.7678 31.8544C38.4587 25.9416 45.011 21.7886 52.3602 20.0697V16.3597C52.3602 14.3335 53.1651 12.3902 54.5979 10.9574C56.0307 9.52465 57.974 8.71973 60.0002 8.71973C62.0265 8.71973 63.9697 9.52465 65.4025 10.9574C66.8353 12.3902 67.6402 14.3335 67.6402 16.3597V20.0697C74.982 21.7963 81.5252 25.9528 86.2083 31.8648C90.8915 37.7768 93.4399 45.0976 93.4402 52.6397V80.2397L105.74 90.8897Z" fill="#00B695"/>
<path d="M70.8202 100.32C70.8202 103.19 69.6802 105.942 67.6511 107.971C65.6219 110 62.8698 111.14 60.0002 111.14C57.1305 111.14 54.3784 110 52.3493 107.971C50.3201 105.942 49.1802 103.19 49.1802 100.32" fill="#00B695"/>
</svg>
