<svg width="120" height="120" viewBox="0 0 120 120" fill="none" xmlns="http://www.w3.org/2000/svg">
<path d="M60 8.73047C49.8569 8.72849 39.9411 11.7346 31.5066 17.3685C23.0721 23.0025 16.4979 31.0112 12.6154 40.3818C8.73285 49.7524 7.7165 60.064 9.69483 70.0122C11.6732 79.9605 16.5573 89.0987 23.7295 96.2709C30.9018 103.443 40.0399 108.327 49.9882 110.306C59.9365 112.284 70.248 111.268 79.6186 107.385C88.9892 103.503 96.998 96.9284 102.632 88.4939C108.266 80.0594 111.272 70.1435 111.27 60.0005C111.27 46.4028 105.868 33.3621 96.2533 23.7471C86.6384 14.1321 73.5976 8.73047 60 8.73047ZM84.64 48.0005L55.64 77.0005C54.9823 77.6545 54.0925 78.0216 53.165 78.0216C52.2375 78.0216 51.3477 77.6545 50.69 77.0005L35.35 61.6605C34.6936 61.0041 34.3248 60.1138 34.3248 59.1855C34.3248 58.2572 34.6936 57.3669 35.35 56.7105C36.0064 56.0541 36.8967 55.6853 37.825 55.6853C38.7533 55.6853 39.6436 56.0541 40.3 56.7105L53.15 69.5605L79.69 43.0005C80.3464 42.3374 81.2393 41.9623 82.1723 41.9576C83.1053 41.9529 84.0019 42.3191 84.665 42.9755C85.328 43.6319 85.7031 44.5248 85.7078 45.4578C85.7125 46.3908 85.3464 47.2874 84.69 47.9505L84.64 48.0005Z" fill="#00B695"/>
</svg>
