<svg width="120" height="120" viewBox="0 0 120 120" fill="none" xmlns="http://www.w3.org/2000/svg">
<path d="M59.9999 71.3299C57.7591 71.3299 55.5685 70.6654 53.7053 69.4205C51.8421 68.1755 50.3899 66.406 49.5324 64.3357C48.6748 62.2654 48.4505 59.9874 48.8876 57.7896C49.3248 55.5918 50.4039 53.5729 51.9884 51.9884C53.5729 50.4039 55.5918 49.3248 57.7896 48.8876C59.9874 48.4505 62.2654 48.6748 64.3357 49.5324C66.406 50.3899 68.1755 51.8421 69.4205 53.7053C70.6654 55.5685 71.3299 57.7591 71.3299 59.9999C71.3246 63.0032 70.1292 65.882 68.0056 68.0056C65.882 70.1292 63.0032 71.3246 59.9999 71.3299Z" fill="#00B695"/>
<path d="M59.9999 52.1699C61.5486 52.1699 63.0624 52.6291 64.35 53.4895C65.6377 54.3499 66.6413 55.5728 67.2339 57.0035C67.8265 58.4343 67.9816 60.0086 67.6795 61.5275C67.3774 63.0464 66.6316 64.4415 65.5366 65.5366C64.4415 66.6316 63.0464 67.3774 61.5275 67.6795C60.0086 67.9816 58.4343 67.8265 57.0035 67.2339C55.5728 66.6413 54.3499 65.6377 53.4895 64.35C52.6291 63.0624 52.1699 61.5486 52.1699 59.9999C52.1726 57.9241 52.9984 55.934 54.4662 54.4662C55.934 52.9984 57.9241 52.1726 59.9999 52.1699ZM59.9999 45.1699C57.0668 45.1699 54.1996 46.0397 51.7608 47.6692C49.322 49.2988 47.4212 51.6149 46.2988 54.3247C45.1763 57.0346 44.8827 60.0164 45.4549 62.8931C46.0271 65.7698 47.4395 68.4123 49.5135 70.4863C51.5875 72.5603 54.23 73.9727 57.1067 74.545C59.9835 75.1172 62.9653 74.8235 65.6751 73.7011C68.3849 72.5786 70.7011 70.6778 72.3306 68.239C73.9602 65.8002 74.8299 62.933 74.8299 59.9999C74.8246 56.0684 73.2605 52.2994 70.4805 49.5194C67.7005 46.7394 63.9315 45.1752 59.9999 45.1699Z" fill="#00B695"/>
<path d="M60 90.5802C54.2606 90.5952 48.5751 89.4716 43.2728 87.2745C37.9706 85.0774 33.1567 81.8503 29.11 77.7802L13.05 61.7202C12.8214 61.4959 12.6399 61.2282 12.5159 60.9329C12.392 60.6376 12.3281 60.3205 12.3281 60.0002C12.3281 59.68 12.392 59.3629 12.5159 59.0676C12.6399 58.7722 12.8214 58.5046 13.05 58.2802L29.11 42.2202C33.1655 38.1619 37.981 34.9425 43.2813 32.746C48.5815 30.5495 54.2627 29.4189 60 29.4189C65.7374 29.4189 71.4185 30.5495 76.7188 32.746C82.019 34.9425 86.8345 38.1619 90.89 42.2202L107 58.2802C107.226 58.5059 107.406 58.774 107.528 59.0692C107.65 59.3643 107.713 59.6807 107.713 60.0002C107.713 60.3198 107.65 60.6362 107.528 60.9313C107.406 61.2264 107.226 61.4945 107 61.7202L90.89 77.7802C86.8433 81.8503 82.0295 85.0774 76.7272 87.2745C71.4249 89.4716 65.7395 90.5952 60 90.5802ZM60 34.6702C54.9902 34.6702 50.0929 36.1558 45.9274 38.9391C41.7619 41.7224 38.5153 45.6784 36.5982 50.3069C34.681 54.9353 34.1794 60.0283 35.1567 64.9419C36.1341 69.8554 38.5465 74.3688 42.089 77.9113C45.6315 81.4537 50.1448 83.8662 55.0584 84.8435C59.9719 85.8209 65.0649 85.3193 69.6934 83.4021C74.3218 81.4849 78.2779 78.2383 81.0611 74.0728C83.8444 69.9073 85.33 65.01 85.33 60.0002C85.3221 53.2847 82.6508 46.8466 77.9023 42.098C73.1537 37.3494 66.7155 34.6782 60 34.6702Z" fill="#00B695"/>
<path d="M43.21 36.58C39.4819 39.2448 36.4435 42.7608 34.3472 46.8359C32.251 50.9109 31.1574 55.4274 31.1574 60.01C31.1574 64.5926 32.251 69.109 34.3472 73.1841C36.4435 77.2592 39.4819 80.7752 43.21 83.44C38.8739 81.4395 34.9263 78.687 31.55 75.31L16.28 60L31.58 44.7C34.9432 41.3236 38.8815 38.5739 43.21 36.58ZM76.82 36.58C81.134 38.5785 85.0583 41.328 88.41 44.7L95.33 51.62L100.83 57.11L103.72 60L100.83 62.89L95.33 68.39L88.41 75.31C85.0453 78.6846 81.1073 81.434 76.78 83.43C80.5023 80.7633 83.5353 77.2477 85.6277 73.1748C87.72 69.1019 88.8115 64.5889 88.8115 60.01C88.8115 55.431 87.72 50.9181 85.6277 46.8451C83.5353 42.7722 80.5023 39.2567 76.78 36.59M60 25.92C53.8005 25.9105 47.6604 27.1276 41.9333 29.5011C36.2062 31.8747 31.0053 35.3578 26.63 39.75L10.57 55.81C10.0188 56.3607 9.58154 57.0146 9.2832 57.7345C8.98486 58.4543 8.8313 59.2258 8.8313 60.005C8.8313 60.7842 8.98486 61.5557 9.2832 62.2755C9.58154 62.9953 10.0188 63.6493 10.57 64.2L26.63 80.26C35.4796 89.1078 47.4811 94.0782 59.995 94.0782C72.5089 94.0782 84.5105 89.1078 93.36 80.26L100.28 73.34L105.78 67.84L109.42 64.2C109.971 63.6493 110.408 62.9953 110.707 62.2755C111.005 61.5557 111.159 60.7842 111.159 60.005C111.159 59.2258 111.005 58.4543 110.707 57.7345C110.408 57.0146 109.971 56.3607 109.42 55.81L105.78 52.17L100.28 46.67L93.36 39.75C88.986 35.359 83.7866 31.8766 78.0613 29.503C72.336 27.1295 66.1978 25.9118 60 25.92ZM60 81.83C55.6824 81.83 51.4618 80.5497 47.8719 78.151C44.282 75.7522 41.484 72.3429 39.8317 68.354C38.1795 64.365 37.7472 59.9758 38.5895 55.7412C39.4318 51.5065 41.5109 47.6168 44.5639 44.5638C47.6169 41.5109 51.5066 39.4318 55.7412 38.5894C59.9758 37.7471 64.3651 38.1794 68.354 39.8317C72.3429 41.4839 75.7523 44.282 78.151 47.8719C80.5497 51.4618 81.83 55.6824 81.83 60C81.83 65.7897 79.5301 71.3422 75.4362 75.4361C71.3422 79.53 65.7897 81.83 60 81.83Z" fill="#00B695"/>
</svg>
