<svg width="120" height="120" viewBox="0 0 120 120" fill="none" xmlns="http://www.w3.org/2000/svg">
<path d="M83.6699 56.0898L94.4499 69.2398L107.61 58.4498" stroke="currentColor" stroke-width="7" stroke-linecap="round" stroke-linejoin="round"/>
<path d="M36.3496 63.82L25.4296 50.79L12.3896 61.73" stroke="currentColor" stroke-width="7" stroke-linecap="round" stroke-linejoin="round"/>
<path d="M32.9199 36.73C38.1346 30.6853 45.2293 26.5682 53.0648 25.0397C60.9003 23.5112 69.0221 24.6599 76.1264 28.3015C83.2306 31.943 88.9052 37.8661 92.2391 45.1198C95.5729 52.3736 96.3727 60.5372 94.5099 68.3" stroke="currentColor" stroke-width="7" stroke-linecap="round" stroke-linejoin="round"/>
<path d="M86.8298 83.2702C81.6151 89.3149 74.5205 93.4319 66.685 94.9605C58.8495 96.489 50.7277 95.3403 43.6234 91.6987C36.5191 88.0572 30.8445 82.1341 27.5107 74.8804C24.1768 67.6266 23.3771 59.463 25.2398 51.7002" stroke="currentColor" stroke-width="7" stroke-linecap="round" stroke-linejoin="round"/>
</svg>
