<svg width="120" height="120" viewBox="0 0 120 120" fill="none" xmlns="http://www.w3.org/2000/svg">
<path d="M59.9997 15.7202C68.7575 15.7202 77.3186 18.3172 84.6004 23.1827C91.8822 28.0483 97.5577 34.9639 100.909 43.055C104.261 51.1461 105.137 60.0493 103.429 68.6388C101.72 77.2283 97.5031 85.1182 91.3104 91.3109C85.1178 97.5036 77.2278 101.721 68.6384 103.429C60.0489 105.138 51.1456 104.261 43.0545 100.91C34.9634 97.5582 28.0478 91.8827 23.1823 84.6009C18.3167 77.3191 15.7197 68.758 15.7197 60.0002C15.7356 48.2613 20.4059 37.0077 28.7066 28.7071C37.0073 20.4064 48.2608 15.7361 59.9997 15.7202ZM59.9997 8.72021C49.8575 8.72021 39.9431 11.7277 31.5101 17.3625C23.0772 22.9972 16.5045 31.006 12.6232 40.3762C8.74195 49.7464 7.72643 60.0571 9.70508 70.0044C11.6837 79.9518 16.5677 89.089 23.7393 96.2607C30.9109 103.432 40.0482 108.316 49.9955 110.295C59.9429 112.274 70.2536 111.258 79.6238 107.377C88.9939 103.495 97.0028 96.9228 102.638 88.4899C108.272 80.0569 111.28 70.1424 111.28 60.0002C111.28 53.266 109.953 46.5978 107.376 40.3762C104.799 34.1546 101.022 28.5016 96.2602 23.7398C91.4984 18.978 85.8453 15.2007 79.6238 12.6237C73.4022 10.0466 66.7339 8.72021 59.9997 8.72021Z" fill="currentColor"/>
<path d="M44.6804 52.0399C48.3089 52.0399 51.2504 49.0984 51.2504 45.4699C51.2504 41.8414 48.3089 38.8999 44.6804 38.8999C41.0518 38.8999 38.1104 41.8414 38.1104 45.4699C38.1104 49.0984 41.0518 52.0399 44.6804 52.0399Z" fill="currentColor"/>
<path d="M75.32 52.0399C78.9485 52.0399 81.89 49.0984 81.89 45.4699C81.89 41.8414 78.9485 38.8999 75.32 38.8999C71.6915 38.8999 68.75 41.8414 68.75 45.4699C68.75 49.0984 71.6915 52.0399 75.32 52.0399Z" fill="currentColor"/>
<path d="M60 73.48C70 73.48 78.61 77.19 82 82.41" stroke="currentColor" stroke-width="7" stroke-miterlimit="10" stroke-linecap="round"/>
<path d="M59.9996 73.48C58.0111 73.4799 56.0254 73.6303 54.0596 73.93" stroke="currentColor" stroke-width="7" stroke-miterlimit="10" stroke-linecap="round"/>
<path d="M54.2996 78.1198C54.2996 80.6712 53.286 83.1181 51.4819 84.9222C49.6778 86.7263 47.231 87.7398 44.6796 87.7398C42.1282 87.7398 39.6813 86.7263 37.8772 84.9222C36.0731 83.1181 35.0596 80.6712 35.0596 78.1198C35.0596 72.8098 44.6796 58.5698 44.6796 58.5698C44.6796 58.5698 54.2996 72.8098 54.2996 78.1198Z" stroke="currentColor" stroke-width="7" stroke-linejoin="round"/>
</svg>
