<svg width="16" height="20" fill="none" xmlns="http://www.w3.org/2000/svg"><path d="m4.31 12.955 5.615-5.752c.06-.061.542-.554 1.304-.821 1.063-.35 2.146-.062 3.008.821.883.884 1.143 1.972.802 3.061a3.692 3.692 0 0 1-.802 1.377L8.2 17.823c-1.042 1.068-3.65 2.444-6.056 0-2.387-2.445-1.023-5.136 0-6.184l6.478-6.655a.595.595 0 0 1 .862 0 .63.63 0 0 1 0 .883l-6.458 6.656c-.1.082-2.126 2.239 0 4.416 2.066 2.116 4.091.226 4.312 0l6.037-6.203s.34-.35.501-.843c.2-.657.06-1.232-.501-1.807-1.204-1.233-2.367-.206-2.587 0l-5.616 5.731c-.2.205-.34.555 0 .904s.662.185.862 0l3.891-3.985c.24-.226.642-.226.863 0 .24.246.24.657 0 .903l-3.891 3.965c-.542.534-1.645.966-2.587 0-.963-.965-.542-2.116 0-2.65Z" fill="#4B3A5A"/></svg>