<svg width="20" height="20" viewBox="0 0 20 20" fill="none" xmlns="http://www.w3.org/2000/svg">
<path fill-rule="evenodd" clip-rule="evenodd" d="M10.0001 2.50001C9.11603 2.50001 8.26818 2.8512 7.64306 3.47632C7.01794 4.10144 6.66675 4.94929 6.66675 5.83334V8.33334H13.3334V5.83334C13.3334 4.94929 12.9822 4.10144 12.3571 3.47632C11.732 2.8512 10.8841 2.50001 10.0001 2.50001ZM15.0001 8.33334V5.83334C15.0001 4.50726 14.4733 3.23549 13.5356 2.29781C12.5979 1.36013 11.3262 0.833344 10.0001 0.833344C8.674 0.833344 7.40223 1.36013 6.46455 2.29781C5.52687 3.23549 5.00008 4.50726 5.00008 5.83334V8.33334H4.16675C2.78604 8.33334 1.66675 9.45263 1.66675 10.8333V16.6667C1.66675 18.0474 2.78604 19.1667 4.16675 19.1667H15.8334C17.2141 19.1667 18.3334 18.0474 18.3334 16.6667V10.8333C18.3334 9.45263 17.2141 8.33334 15.8334 8.33334H15.0001ZM4.16675 10C3.70651 10 3.33341 10.3731 3.33341 10.8333V16.6667C3.33341 17.1269 3.70651 17.5 4.16675 17.5H15.8334C16.2937 17.5 16.6667 17.1269 16.6667 16.6667V10.8333C16.6667 10.3731 16.2937 10 15.8334 10H4.16675Z" fill="#202020"/>
</svg>
