<svg width="20" height="20" viewBox="0 0 20 20" fill="none" xmlns="http://www.w3.org/2000/svg">
<path fill-rule="evenodd" clip-rule="evenodd" d="M9.99984 2.50004C9.11578 2.50004 8.26794 2.85123 7.64281 3.47635C7.01769 4.10147 6.6665 4.94932 6.6665 5.83337V8.33337H13.3332V5.83337C13.3332 4.94932 12.982 4.10147 12.3569 3.47635C11.7317 2.85123 10.8839 2.50004 9.99984 2.50004ZM14.9998 8.33337V5.83337C14.9998 4.50729 14.4731 3.23552 13.5354 2.29784C12.5977 1.36016 11.3259 0.833374 9.99984 0.833374C8.67376 0.833374 7.40199 1.36016 6.4643 2.29784C5.52662 3.23552 4.99984 4.50729 4.99984 5.83337V8.33337H4.1665C2.78579 8.33337 1.6665 9.45266 1.6665 10.8334V16.6667C1.6665 18.0474 2.78579 19.1667 4.1665 19.1667H15.8332C17.2139 19.1667 18.3332 18.0474 18.3332 16.6667V10.8334C18.3332 9.45266 17.2139 8.33337 15.8332 8.33337H14.9998ZM4.1665 10C3.70627 10 3.33317 10.3731 3.33317 10.8334V16.6667C3.33317 17.1269 3.70627 17.5 4.1665 17.5H15.8332C16.2934 17.5 16.6665 17.1269 16.6665 16.6667V10.8334C16.6665 10.3731 16.2934 10 15.8332 10H4.1665Z" fill="#202020"/>
</svg>
