<svg width="16" height="16" viewBox="0 0 16 16" fill="none" xmlns="http://www.w3.org/2000/svg">
<path fill-rule="evenodd" clip-rule="evenodd" d="M7.01898 1.52212C7.31851 1.35348 7.65644 1.26489 8.00018 1.26489C8.34391 1.26489 8.68185 1.35348 8.98137 1.52212C9.2809 1.69076 9.53191 1.93374 9.71018 2.22764L9.7121 2.2308L15.3588 11.6575L15.3642 11.6667C15.5388 11.9691 15.6312 12.312 15.6322 12.6612C15.6332 13.0104 15.5427 13.3538 15.3697 13.6572C15.1968 13.9606 14.9474 14.2134 14.6465 14.3905C14.3455 14.5676 14.0034 14.6628 13.6542 14.6667L13.6468 14.6668L2.34618 14.6667C1.99698 14.6629 1.65487 14.5676 1.35389 14.3905C1.05291 14.2134 0.803545 13.9606 0.630609 13.6572C0.457674 13.3538 0.367194 13.0104 0.368172 12.6612C0.36915 12.312 0.461551 11.9691 0.636183 11.6667L0.641598 11.6575L6.29017 2.22763C6.46844 1.93374 6.71945 1.69076 7.01898 1.52212ZM8.00018 2.59823C7.8856 2.59823 7.77295 2.62776 7.67311 2.68397C7.57372 2.73993 7.49036 2.82044 7.43098 2.91781L1.78863 12.3373C1.73185 12.4371 1.70182 12.55 1.7015 12.6649C1.70117 12.7813 1.73133 12.8958 1.78898 12.9969C1.84662 13.0981 1.92975 13.1823 2.03007 13.2414C2.12952 13.2999 2.24244 13.3316 2.35777 13.3334H13.6426C13.7579 13.3316 13.8708 13.2999 13.9703 13.2414C14.0706 13.1823 14.1537 13.0981 14.2114 12.9969C14.269 12.8958 14.2992 12.7813 14.2989 12.6649C14.2985 12.55 14.2685 12.4372 14.2117 12.3373L8.57018 2.91914C8.56991 2.9187 8.56964 2.91826 8.56937 2.91781C8.51 2.82044 8.42663 2.73993 8.32724 2.68397C8.2274 2.62776 8.11475 2.59823 8.00018 2.59823ZM8.00018 5.33339C8.36837 5.33339 8.66684 5.63187 8.66684 6.00006V8.66672C8.66684 9.03491 8.36837 9.33339 8.00018 9.33339C7.63199 9.33339 7.33351 9.03491 7.33351 8.66672V6.00006C7.33351 5.63187 7.63199 5.33339 8.00018 5.33339ZM7.33351 11.3334C7.33351 10.9652 7.63199 10.6667 8.00018 10.6667H8.00684C8.37503 10.6667 8.67351 10.9652 8.67351 11.3334C8.67351 11.7016 8.37503 12.0001 8.00684 12.0001H8.00018C7.63199 12.0001 7.33351 11.7016 7.33351 11.3334Z" fill="#6B7280"/>
</svg>
