<svg width="16" height="16" fill="none" xmlns="http://www.w3.org/2000/svg"><path fill-rule="evenodd" clip-rule="evenodd" d="M7.019 1.522a2 2 0 0 1 2.69.706l.003.003 5.646 9.426.006.01a1.998 1.998 0 0 1-1.71 3H2.346a2 2 0 0 1-1.71-3l.005-.01 5.649-9.43a2 2 0 0 1 .729-.705Zm.98 1.076a.667.667 0 0 0-.568.32l-5.643 9.42a.667.667 0 0 0 .57.995h11.284a.667.667 0 0 0 .57-.996L8.57 2.92v-.001a.667.667 0 0 0-.57-.32Zm0 2.735c.37 0 .668.299.668.667v2.667a.667.667 0 0 1-1.334 0V6c0-.368.299-.667.667-.667Zm-.666 6c0-.368.299-.666.667-.666h.007a.667.667 0 1 1 0 1.333H8a.667.667 0 0 1-.667-.667Z" fill="#6B7280"/></svg>