<svg width="16" height="16" fill="none" xmlns="http://www.w3.org/2000/svg"><path fill-rule="evenodd" clip-rule="evenodd" d="M7.019 1.522a2 2 0 0 1 2.691.706l.002.003 5.647 9.426.005.01a2 2 0 0 1-1.71 3H2.347a2 2 0 0 1-1.71-3l.005-.01 5.648-9.43a2 2 0 0 1 .729-.705ZM8 2.598a.667.667 0 0 0-.569.32l-5.642 9.42a.667.667 0 0 0 .569.995h11.285a.667.667 0 0 0 .569-.996L8.57 2.92v-.001a.667.667 0 0 0-.57-.32Zm0 2.735c.368 0 .667.299.667.667v2.667a.667.667 0 1 1-1.333 0V6c0-.368.298-.667.666-.667Zm-.666 6c0-.368.298-.666.666-.666h.007a.667.667 0 1 1 0 1.333H8a.667.667 0 0 1-.666-.667Z" fill="#6B7280"/></svg>