<svg width="20" height="20" viewBox="0 0 20 20" fill="none" xmlns="http://www.w3.org/2000/svg">
<path fill-rule="evenodd" clip-rule="evenodd" d="M10.0001 2.49999C9.11603 2.49999 8.26818 2.85118 7.64306 3.47631C7.01794 4.10143 6.66675 4.94927 6.66675 5.83333V8.33333H13.3334V5.83333C13.3334 4.94927 12.9822 4.10143 12.3571 3.47631C11.732 2.85118 10.8841 2.49999 10.0001 2.49999ZM15.0001 8.33333V5.83333C15.0001 4.50725 14.4733 3.23548 13.5356 2.29779C12.5979 1.36011 11.3262 0.833328 10.0001 0.833328C8.674 0.833328 7.40223 1.36011 6.46455 2.29779C5.52687 3.23548 5.00008 4.50725 5.00008 5.83333V8.33333H4.16675C2.78604 8.33333 1.66675 9.45262 1.66675 10.8333V16.6667C1.66675 18.0474 2.78604 19.1667 4.16675 19.1667H15.8334C17.2141 19.1667 18.3334 18.0474 18.3334 16.6667V10.8333C18.3334 9.45262 17.2141 8.33333 15.8334 8.33333H15.0001ZM4.16675 9.99999C3.70651 9.99999 3.33341 10.3731 3.33341 10.8333V16.6667C3.33341 17.1269 3.70651 17.5 4.16675 17.5H15.8334C16.2937 17.5 16.6667 17.1269 16.6667 16.6667V10.8333C16.6667 10.3731 16.2937 9.99999 15.8334 9.99999H4.16675Z" fill="#202020"/>
</svg>
