<svg width="16" height="16" viewBox="0 0 16 16" fill="none" xmlns="http://www.w3.org/2000/svg">
<g clip-path="url(#clip0_602_7237)">
<g clip-path="url(#clip1_602_7237)">
<path d="M4.3096 8.95521L9.9252 3.20342C9.98536 3.1418 10.4667 2.64879 11.2288 2.38174C12.2918 2.03252 13.3748 2.32011 14.2372 3.20342C15.1196 4.08673 15.3803 5.17546 15.0394 6.26419C14.7987 7.04479 14.2973 7.57889 14.2372 7.64051L8.20041 13.8237C7.15751 14.8919 4.55027 16.2682 2.14358 13.8237C-0.243047 11.3792 1.12074 8.68816 2.14358 7.64051L8.62158 0.984878C8.86224 0.738373 9.2433 0.738373 9.48397 0.984878C9.72464 1.23138 9.72464 1.62168 9.48397 1.86819L3.02603 8.52382C2.92576 8.60599 0.900129 10.7629 3.02603 12.9404C5.09177 15.0562 7.1174 13.1663 7.33801 12.9404L13.3748 6.73666C13.3748 6.73666 13.7157 6.38745 13.8762 5.89444C14.0767 5.23709 13.9363 4.66191 13.3748 4.08673C12.1714 2.85421 11.0082 3.88131 10.7876 4.08673L5.17199 9.81797C4.97144 10.0234 4.83105 10.3726 5.17199 10.7218C5.51294 11.071 5.83383 10.9067 6.03439 10.7218L9.9252 6.73666C10.1659 6.5107 10.567 6.5107 10.7876 6.73666C11.0283 6.98317 11.0283 7.39401 10.7876 7.64051L6.89679 11.6051C6.35528 12.1392 5.25222 12.5706 4.3096 11.6051C3.34692 10.6397 3.76809 9.4893 4.3096 8.95521Z" fill="#4B3A5A"/>
</g>
</g>
<defs>
<clipPath id="clip0_602_7237">
<rect width="16" height="16" fill="white"/>
</clipPath>
<clipPath id="clip1_602_7237">
<rect width="16" height="16" fill="white"/>
</clipPath>
</defs>
</svg>
