<svg width="20" height="20" viewBox="0 0 20 20" fill="none" xmlns="http://www.w3.org/2000/svg">
<path fill-rule="evenodd" clip-rule="evenodd" d="M9.99984 2.49998C9.11578 2.49998 8.26794 2.85117 7.64281 3.47629C7.01769 4.10141 6.6665 4.94926 6.6665 5.83331V8.33331H13.3332V5.83331C13.3332 4.94926 12.982 4.10141 12.3569 3.47629C11.7317 2.85117 10.8839 2.49998 9.99984 2.49998ZM14.9998 8.33331V5.83331C14.9998 4.50723 14.4731 3.23546 13.5354 2.29778C12.5977 1.3601 11.3259 0.833313 9.99984 0.833313C8.67376 0.833313 7.40199 1.3601 6.4643 2.29778C5.52662 3.23546 4.99984 4.50723 4.99984 5.83331V8.33331H4.1665C2.78579 8.33331 1.6665 9.4526 1.6665 10.8333V16.6666C1.6665 18.0474 2.78579 19.1666 4.1665 19.1666H15.8332C17.2139 19.1666 18.3332 18.0474 18.3332 16.6666V10.8333C18.3332 9.4526 17.2139 8.33331 15.8332 8.33331H14.9998ZM4.1665 9.99998C3.70627 9.99998 3.33317 10.3731 3.33317 10.8333V16.6666C3.33317 17.1269 3.70627 17.5 4.1665 17.5H15.8332C16.2934 17.5 16.6665 17.1269 16.6665 16.6666V10.8333C16.6665 10.3731 16.2934 9.99998 15.8332 9.99998H4.1665Z" fill="#202020"/>
</svg>
