<svg width="20" height="21" fill="none" xmlns="http://www.w3.org/2000/svg"><path fill-rule="evenodd" clip-rule="evenodd" d="M10 3a3.333 3.333 0 0 0-3.333 3.333v2.5h6.666v-2.5A3.333 3.333 0 0 0 10 3Zm5 5.833v-2.5a5 5 0 1 0-10 0v2.5h-.833a2.5 2.5 0 0 0-2.5 2.5v5.834a2.5 2.5 0 0 0 2.5 2.5h11.666a2.5 2.5 0 0 0 2.5-2.5v-5.834a2.5 2.5 0 0 0-2.5-2.5H15ZM4.166 10.5a.833.833 0 0 0-.833.833v5.834c0 .46.373.833.833.833h11.667c.46 0 .833-.373.833-.833v-5.834a.833.833 0 0 0-.833-.833H4.167Z" fill="#202020"/></svg>