<svg width="40" height="40" fill="none" xmlns="http://www.w3.org/2000/svg"><circle opacity=".2" cx="20" cy="20" r="20" fill="#C7522D"/><g clip-path="url(#a)"><path fill-rule="evenodd" clip-rule="evenodd" d="M26.02 13.997c-3.328-3.327-8.718-3.332-12.038-.012-3.323 3.323-3.32 8.712.01 12.038 3.326 3.327 8.718 3.332 12.037.011 3.321-3.32 3.318-8.71-.01-12.037Zm-4.29 9.593-1.808-1.808-1.809 1.808c-.738.738-1.293 1.381-2.174.502-.878-.88-.239-1.435.503-2.174l1.808-1.808-1.808-1.808c-.74-.738-1.381-1.293-.503-2.174.881-.879 1.436-.237 2.174.502l1.809 1.807 1.808-1.807c.74-.738 1.291-1.382 2.172-.502.88.88.24 1.436-.5 2.174l-1.809 1.807 1.809 1.808c.738.74 1.38 1.295.5 2.175-.878.88-1.432.236-2.172-.502Z" fill="#C7522D"/></g><defs><clipPath id="a"><path fill="#fff" transform="translate(11.429 11.429)" d="M0 0h17.143v17.143H0z"/></clipPath></defs></svg>