<svg width="187" height="45" viewBox="0 0 187 45" fill="none" xmlns="http://www.w3.org/2000/svg">
<path d="M9 11.2164C8.41222 9.34732 8.33411 8.08067 8.33011 8C7.20761 9.03616 6.38551 10.4149 6 11.977C6.09012 11.9917 7.3478 12.1729 9 11.2164Z" fill="#59C2E7"/>
<path d="M13.9627 6C12.0993 6 10.3858 6.60994 9 7.62651C9.00767 7.72225 9.12927 9.04647 9.82165 11C11.145 10.1308 12.6361 8.62048 14 6.00215C13.9869 6.00215 13.9759 6 13.9627 6Z" fill="#59C2E7"/>
<path d="M10 13.8086C9.70552 13.1747 9.45701 12.5681 9.25075 12C6.99801 13.2243 5.292 12.9477 5.16401 12.9241C5.06461 13.4712 5 14.0306 5 14.6074C5 15.8057 5.2336 16.9469 5.6424 18C5.69955 17.9281 7.32729 15.9198 10 13.8086Z" fill="#59C2E7"/>
<path d="M22 9.21768C20.4032 7.39805 17.9539 6.17449 15.168 6C15.148 6.03468 15.1306 6.06828 15.1094 6.10404C13.4304 8.94132 11.6192 10.5973 10 11.5608C10.1982 12.0138 10.435 12.4971 10.7055 13C13.6161 11.1164 17.565 9.28813 22 9.21768Z" fill="#59C2E7"/>
<path d="M22.7751 17C22.9212 16.3349 23 15.643 23 14.9317C23 13.1164 22.498 11.425 21.6343 10C17.5431 9.99878 13.7847 12.0938 11 14.2472C11.2597 14.787 11.5541 15.3464 11.8846 15.9178C13.7534 14.7858 17.0388 14.6399 22.7751 17Z" fill="#59C2E7"/>
<path d="M9.43142 23C9.37163 22.7079 8.60258 18.6807 11 16.5731C10.6882 16.0362 10.4091 15.5102 10.1618 15C7.63775 17.0409 6.06331 18.9752 6 19.0539C6.74678 20.6913 7.94725 22.062 9.43142 23Z" fill="#59C2E7"/>
<path d="M23 17.9292C17.1913 15.6251 13.8758 15.6531 12 16.6222C13.4286 18.6981 15.4286 20.9172 18.2373 23C20.4609 21.9737 22.1888 20.1507 23 17.9292Z" fill="#59C2E7"/>
<path d="M14.4395 24C15.6952 24 16.895 23.7829 18 23.3872C15.081 21.3185 13.0112 19.0951 11.54 17C9.191 19.0591 10.2142 23.1138 10.2649 23.1365C11.5309 23.6882 12.9437 24 14.4395 24Z" fill="#59C2E7"/>
<path d="M28.9914 14.5292C28.9914 6.50472 22.5036 0 14.5 0C6.49637 0 0.00858893 6.50472 0.00858893 14.5292C0.00858893 14.5292 -0.337961 18.8925 3.37153 25.7352C7.08102 32.5779 14.4988 45 14.4988 45C14.4988 45 21.9178 32.5791 25.6261 25.7352C29.338 18.8925 28.9914 14.5292 28.9914 14.5292ZM22.75 23.2333C20.0047 28.3234 14.5153 37.5616 14.5153 37.5616C14.5106 37.5522 14.5059 37.5439 14.5012 37.5356C14.4965 37.5451 14.4918 37.5534 14.487 37.5616C14.487 37.5616 8.99765 28.3222 6.25237 23.2333C3.50709 18.1444 3.76287 14.898 3.76287 14.898C3.76287 8.9298 8.56388 4.09145 14.4859 4.09145C14.4906 4.09145 14.4953 4.09145 14.5 4.09145C14.5047 4.09145 14.5094 4.09145 14.5141 4.09145C20.4361 4.09145 25.2371 8.9298 25.2371 14.898C25.2383 14.898 25.4953 18.1432 22.75 23.2333Z" fill="#59C2E7"/>
<path d="M50.8981 20.2089C50.8981 23.9526 49.0698 25.8245 45.4133 25.8245H40.5796C40.1789 25.8245 39.8283 25.7577 39.5277 25.624C39.2272 25.4735 38.9767 25.2897 38.7764 25.0724C38.576 24.8384 38.4258 24.5794 38.3256 24.2953C38.2254 23.9944 38.1753 23.6852 38.1753 23.3677C38.1753 23.0669 38.2254 22.7744 38.3256 22.4903C38.4258 22.1894 38.576 21.9304 38.7764 21.7131C38.9934 21.4791 39.2522 21.2953 39.5528 21.1616C39.87 21.0111 40.229 20.9359 40.6297 20.9359H45.6888C46.0227 20.9359 46.2648 20.844 46.4151 20.6602C46.582 20.4596 46.6655 20.2507 46.6655 20.0334C46.6655 19.7994 46.582 19.5822 46.4151 19.3816C46.2648 19.1811 46.0227 19.0808 45.6888 19.0808H43.1843C41.4645 19.0808 40.1705 18.663 39.3023 17.8273C38.4341 16.9916 38 15.663 38 13.8412C38 10.0641 39.845 8.17549 43.5349 8.17549H47.4419C47.8593 8.17549 48.2266 8.2507 48.5439 8.40111C48.8611 8.53482 49.1282 8.71866 49.3453 8.95265C49.5624 9.16992 49.721 9.42897 49.8211 9.72981C49.938 10.0139 49.9965 10.3064 49.9965 10.6072C49.9965 10.9081 49.938 11.2089 49.8211 11.5097C49.721 11.8106 49.5624 12.078 49.3453 12.312C49.1282 12.546 48.8527 12.7382 48.5188 12.8886C48.2016 13.0223 47.8343 13.0891 47.4168 13.0891H43.2093C42.8754 13.0891 42.6333 13.1894 42.483 13.39C42.3328 13.5738 42.2576 13.7827 42.2576 14.0167C42.2576 14.234 42.3328 14.4429 42.483 14.6435C42.6333 14.8273 42.8754 14.9192 43.2093 14.9192H45.7138C47.4836 14.9192 48.786 15.3454 49.6208 16.1978C50.4723 17.0501 50.8981 18.3872 50.8981 20.2089Z" fill="#59C2E7"/>
<path d="M58.4463 23.4178C58.4463 25.0891 57.6365 25.9248 56.0169 25.9248C54.3807 25.9248 53.5625 25.1059 53.5625 23.468V10.6323C53.5625 8.99443 54.3473 8.17549 55.9168 8.17549H60.8756C61.9275 8.17549 62.8375 8.30919 63.6055 8.5766C64.3902 8.84401 65.0331 9.22841 65.534 9.72981C66.0349 10.2145 66.4022 10.8078 66.6359 11.5097C66.8864 12.2117 67.0116 12.9972 67.0116 13.8663C67.0116 14.6685 66.8947 15.4206 66.661 16.1226C66.4439 16.8078 66.1267 17.4011 65.7093 17.9025C65.2919 18.4039 64.7826 18.805 64.1815 19.1059C63.5805 19.39 62.8959 19.532 62.1279 19.532H61.2763C60.4749 19.532 59.9156 19.3482 59.5983 18.9805C59.2811 18.5961 59.1225 18.0864 59.1225 17.4513C59.1225 16.8162 59.2978 16.3482 59.6484 16.0474C59.9991 15.7465 60.4415 15.5961 60.9758 15.5961H61.3765C61.7939 15.5961 62.1195 15.4875 62.3533 15.2702C62.587 15.0529 62.7039 14.7187 62.7039 14.2674C62.7039 13.766 62.562 13.4067 62.2781 13.1894C61.9943 12.9554 61.5936 12.8384 61.076 12.8384H58.4463V23.4178Z" fill="#59C2E7"/>
<path d="M68.8443 17C68.8443 15.7465 69.0781 14.5766 69.5456 13.4903C70.0131 12.4039 70.6559 11.4513 71.474 10.6323C72.2921 9.81337 73.2438 9.16992 74.3291 8.70195C75.4144 8.23398 76.5831 8 77.8354 8C79.0876 8 80.2564 8.23398 81.3417 8.70195C82.4436 9.16992 83.3953 9.81337 84.1968 10.6323C85.0149 11.4513 85.6577 12.4039 86.1252 13.4903C86.6094 14.5766 86.8515 15.7465 86.8515 17C86.8515 18.2535 86.6094 19.4234 86.1252 20.5097C85.6577 21.5961 85.0149 22.5487 84.1968 23.3677C83.3953 24.1866 82.4436 24.8301 81.3417 25.298C80.2564 25.766 79.0876 26 77.8354 26C76.5831 26 75.4144 25.766 74.3291 25.298C73.2438 24.8301 72.2921 24.1866 71.474 23.3677C70.6559 22.5487 70.0131 21.5961 69.5456 20.5097C69.0781 19.4234 68.8443 18.2535 68.8443 17ZM73.7781 17.0752C73.7781 17.6435 73.8867 18.1783 74.1037 18.6797C74.3208 19.1643 74.613 19.5905 74.9803 19.9582C75.3476 20.3259 75.7734 20.6184 76.2576 20.8357C76.7585 21.0362 77.2928 21.1365 77.8604 21.1365C78.4281 21.1365 78.9541 21.0362 79.4383 20.8357C79.9392 20.6184 80.3733 20.3259 80.7406 19.9582C81.1246 19.5905 81.4251 19.1643 81.6422 18.6797C81.8593 18.1783 81.9678 17.6435 81.9678 17.0752C81.9678 16.507 81.8593 15.9721 81.6422 15.4708C81.4251 14.9694 81.1246 14.5348 80.7406 14.1671C80.3733 13.7994 79.9392 13.507 79.4383 13.2897C78.9541 13.0724 78.4281 12.9638 77.8604 12.9638C77.2928 12.9638 76.7585 13.0724 76.2576 13.2897C75.7734 13.507 75.3476 13.7994 74.9803 14.1671C74.613 14.5348 74.3208 14.9694 74.1037 15.4708C73.8867 15.9721 73.7781 16.507 73.7781 17.0752Z" fill="#59C2E7"/>
<path d="M95.2096 19.156C95.1261 19.0223 95.0426 18.8384 94.9591 18.6045C94.8923 18.3705 94.8589 18.1114 94.8589 17.8273C94.8589 17.0919 95.0009 16.5237 95.2847 16.1226C95.5852 15.7214 96.0694 15.5209 96.7373 15.5209H97.0879C97.5053 15.5209 97.8393 15.4039 98.0897 15.1699C98.3402 14.9359 98.4654 14.5682 98.4654 14.0669C98.4654 13.6156 98.3402 13.298 98.0897 13.1142C97.8393 12.9304 97.4553 12.8384 96.9377 12.8384H94.308V23.3175C94.308 24.9889 93.4982 25.8245 91.8786 25.8245C90.2424 25.8245 89.4242 25.0056 89.4242 23.3677V10.6323C89.4242 8.99443 90.209 8.17549 91.7784 8.17549H97.0378C98.073 8.17549 98.9663 8.33426 99.7176 8.65181C100.469 8.95265 101.087 9.35376 101.571 9.85515C102.055 10.3565 102.414 10.9331 102.648 11.585C102.882 12.2201 102.999 12.8719 102.999 13.5404C102.999 14.7437 102.706 15.7632 102.122 16.5989C101.554 17.4345 100.861 18.0195 100.043 18.3538L102.372 22.0139C102.69 22.5822 102.848 23.0836 102.848 23.5181C102.848 23.8691 102.773 24.195 102.623 24.4958C102.473 24.7967 102.272 25.0557 102.022 25.273C101.771 25.4735 101.487 25.6323 101.17 25.7493C100.853 25.8663 100.536 25.9248 100.219 25.9248C99.8345 25.9248 99.4505 25.8245 99.0665 25.624C98.6991 25.4234 98.3986 25.1059 98.1649 24.6713L95.2096 19.156Z" fill="#59C2E7"/>
<path d="M113.91 23.493C113.91 24.2953 113.668 24.9053 113.184 25.3231C112.7 25.7242 112.124 25.9248 111.456 25.9248C110.805 25.9248 110.237 25.7242 109.753 25.3231C109.285 24.9053 109.051 24.2953 109.051 23.493V13.0891H107.348C106.58 13.0891 105.979 12.8468 105.545 12.3621C105.128 11.8774 104.919 11.3008 104.919 10.6323C104.919 9.96379 105.128 9.38719 105.545 8.90251C105.979 8.41783 106.58 8.17549 107.348 8.17549H115.563C116.331 8.17549 116.932 8.41783 117.366 8.90251C117.8 9.38719 118.017 9.96379 118.017 10.6323C118.017 11.3008 117.8 11.8774 117.366 12.3621C116.932 12.8468 116.331 13.0891 115.563 13.0891H113.91V23.493Z" fill="#59C2E7"/>
<path d="M133.068 20.2089C133.068 23.9526 131.24 25.8245 127.583 25.8245H122.75C122.349 25.8245 121.998 25.7577 121.698 25.624C121.397 25.4735 121.147 25.2897 120.946 25.0724C120.746 24.8384 120.596 24.5794 120.496 24.2953C120.396 23.9944 120.345 23.6852 120.345 23.3677C120.345 23.0669 120.396 22.7744 120.496 22.4903C120.596 22.1894 120.746 21.9304 120.946 21.7131C121.164 21.4791 121.422 21.2953 121.723 21.1616C122.04 21.0111 122.399 20.9359 122.8 20.9359H127.859C128.193 20.9359 128.435 20.844 128.585 20.6602C128.752 20.4596 128.836 20.2507 128.836 20.0334C128.836 19.7994 128.752 19.5822 128.585 19.3816C128.435 19.1811 128.193 19.0808 127.859 19.0808H125.354C123.635 19.0808 122.341 18.663 121.472 17.8273C120.604 16.9916 120.17 15.663 120.17 13.8412C120.17 10.0641 122.015 8.17549 125.705 8.17549H129.612C130.029 8.17549 130.397 8.2507 130.714 8.40111C131.031 8.53482 131.298 8.71866 131.515 8.95265C131.732 9.16992 131.891 9.42897 131.991 9.72981C132.108 10.0139 132.167 10.3064 132.167 10.6072C132.167 10.9081 132.108 11.2089 131.991 11.5097C131.891 11.8106 131.732 12.078 131.515 12.312C131.298 12.546 131.023 12.7382 130.689 12.8886C130.372 13.0223 130.004 13.0891 129.587 13.0891H125.379C125.046 13.0891 124.803 13.1894 124.653 13.39C124.503 13.5738 124.428 13.7827 124.428 14.0167C124.428 14.234 124.503 14.4429 124.653 14.6435C124.803 14.8273 125.046 14.9192 125.379 14.9192H127.884C129.654 14.9192 130.956 15.3454 131.791 16.1978C132.642 17.0501 133.068 18.3872 133.068 20.2089Z" fill="#59C2E7"/>
<path d="M144.173 19.3315C143.522 19.3315 142.929 18.9889 142.395 18.3036L140.591 15.9471V23.493C140.591 24.2786 140.349 24.8802 139.865 25.298C139.381 25.7159 138.822 25.9248 138.187 25.9248C137.519 25.9248 136.943 25.7242 136.459 25.3231C135.975 24.9053 135.733 24.2953 135.733 23.493V10.6825C135.733 10.2813 135.799 9.92201 135.933 9.60446C136.083 9.27019 136.275 8.99443 136.509 8.77716C136.743 8.55989 137.01 8.39276 137.31 8.27577C137.628 8.15877 137.953 8.10028 138.287 8.10028C138.721 8.10028 139.155 8.20891 139.59 8.42618C140.024 8.62674 140.399 8.92758 140.717 9.32869L144.173 13.766L147.654 9.32869C147.971 8.92758 148.339 8.62674 148.756 8.42618C149.19 8.20891 149.624 8.10028 150.058 8.10028C150.392 8.10028 150.709 8.15877 151.01 8.27577C151.327 8.39276 151.603 8.55989 151.836 8.77716C152.087 8.99443 152.279 9.27019 152.412 9.60446C152.563 9.92201 152.638 10.2813 152.638 10.6825V23.493C152.638 24.2953 152.396 24.9053 151.912 25.3231C151.427 25.7242 150.851 25.9248 150.184 25.9248C149.532 25.9248 148.965 25.7242 148.48 25.3231C148.013 24.9053 147.779 24.2953 147.779 23.493V15.9471L146.001 18.3036C145.717 18.688 145.425 18.9554 145.124 19.1059C144.824 19.2563 144.507 19.3315 144.173 19.3315Z" fill="#59C2E7"/>
<path d="M162.033 18.5794H164.388L163.311 15.3955L162.033 18.5794ZM165.715 22.415H160.506L159.729 24.3454C159.495 24.8802 159.187 25.2813 158.803 25.5487C158.419 25.7994 158.018 25.9248 157.6 25.9248C157.266 25.9248 156.941 25.8747 156.624 25.7744C156.323 25.6574 156.048 25.4986 155.797 25.298C155.547 25.0975 155.346 24.8552 155.196 24.571C155.046 24.2869 154.971 23.9694 154.971 23.6184C154.971 23.1838 155.029 22.8579 155.146 22.6407L161.107 9.55432C161.307 9.11978 161.566 8.7688 161.883 8.50139C162.2 8.23398 162.693 8.10028 163.361 8.10028C163.995 8.10028 164.471 8.23398 164.788 8.50139C165.122 8.7688 165.381 9.12813 165.565 9.57939L170.999 22.6407C171.116 22.8747 171.175 23.2006 171.175 23.6184C171.175 23.9526 171.1 24.2618 170.949 24.546C170.799 24.8301 170.599 25.0724 170.348 25.273C170.114 25.4735 169.839 25.6323 169.522 25.7493C169.204 25.8663 168.887 25.9248 168.57 25.9248C167.501 25.9248 166.784 25.3983 166.416 24.3454L165.715 22.415Z" fill="#59C2E7"/>
<path d="M178.435 23.4178C178.435 25.0891 177.625 25.9248 176.005 25.9248C174.369 25.9248 173.551 25.1059 173.551 23.468V10.6323C173.551 8.99443 174.336 8.17549 175.905 8.17549H180.864C181.916 8.17549 182.826 8.30919 183.594 8.5766C184.379 8.84401 185.021 9.22841 185.522 9.72981C186.023 10.2145 186.391 10.8078 186.624 11.5097C186.875 12.2117 187 12.9972 187 13.8663C187 14.6685 186.883 15.4206 186.649 16.1226C186.432 16.8078 186.115 17.4011 185.698 17.9025C185.28 18.4039 184.771 18.805 184.17 19.1059C183.569 19.39 182.884 19.532 182.116 19.532H181.265C180.463 19.532 179.904 19.3482 179.587 18.9805C179.27 18.5961 179.111 18.0864 179.111 17.4513C179.111 16.8162 179.286 16.3482 179.637 16.0474C179.987 15.7465 180.43 15.5961 180.964 15.5961H181.365C181.782 15.5961 182.108 15.4875 182.342 15.2702C182.575 15.0529 182.692 14.7187 182.692 14.2674C182.692 13.766 182.55 13.4067 182.267 13.1894C181.983 12.9554 181.582 12.8384 181.064 12.8384H178.435V23.4178Z" fill="#59C2E7"/>
<path d="M39.059 33.1186V39.5336H38V33.1186H39.059ZM43.1235 33.1186L40.1868 36.7945H38.7041L38.5438 35.834H39.7574L41.8355 33.1186H43.1235ZM41.9843 39.5336L39.7059 36.6285L40.3871 35.834L43.3296 39.5336H41.9843Z" fill="#97A8B9"/>
<path d="M48.7409 38.4368V35.1344C48.7409 34.8814 48.6913 34.6621 48.5921 34.4763C48.4967 34.2866 48.3517 34.1403 48.157 34.0375C47.9624 33.9348 47.722 33.8834 47.4357 33.8834C47.1686 33.8834 46.9339 33.9308 46.7316 34.0257C46.5332 34.1206 46.3767 34.2451 46.2622 34.3992C46.1515 34.5534 46.0962 34.7194 46.0962 34.8972H45.0371C45.0371 34.668 45.0944 34.4407 45.2089 34.2154C45.3234 33.9901 45.4875 33.7866 45.7012 33.6047C45.9187 33.419 46.1782 33.2727 46.4797 33.166C46.785 33.0553 47.1247 33 47.4987 33C47.949 33 48.3459 33.0791 48.6894 33.2372C49.0367 33.3953 49.3077 33.6344 49.5023 33.9545C49.7008 34.2708 49.8 34.668 49.8 35.1462V38.1344C49.8 38.3478 49.8172 38.5751 49.8515 38.8162C49.8897 39.0573 49.945 39.2648 50.0175 39.4387V39.5336H48.9127C48.8593 39.4071 48.8173 39.2391 48.7867 39.0296C48.7562 38.8162 48.7409 38.6186 48.7409 38.4368ZM48.9241 35.6443L48.9356 36.415H47.8651C47.5636 36.415 47.2945 36.4407 47.0579 36.4921C46.8213 36.5395 46.6229 36.6126 46.4626 36.7115C46.3023 36.8103 46.1802 36.9348 46.0962 37.085C46.0122 37.2312 45.9702 37.4032 45.9702 37.6008C45.9702 37.8024 46.0141 37.9862 46.1019 38.1522C46.1897 38.3182 46.3214 38.4506 46.4969 38.5494C46.6763 38.6443 46.8957 38.6917 47.1552 38.6917C47.4796 38.6917 47.7659 38.6206 48.0139 38.4783C48.262 38.336 48.4585 38.1621 48.6036 37.9565C48.7524 37.751 48.8325 37.5514 48.844 37.3577L49.2962 37.8854C49.2695 38.0514 49.197 38.2352 49.0787 38.4368C48.9604 38.6383 48.802 38.832 48.6036 39.0178C48.4089 39.1996 48.1761 39.3518 47.9052 39.4743C47.638 39.5929 47.3365 39.6522 47.0007 39.6522C46.5809 39.6522 46.2126 39.5672 45.8958 39.3972C45.5829 39.2273 45.3386 39 45.1631 38.7154C44.9913 38.4269 44.9055 38.1047 44.9055 37.749C44.9055 37.4051 44.9704 37.1028 45.1001 36.8419C45.2299 36.5771 45.4169 36.3577 45.6611 36.1838C45.9054 36.0059 46.1992 35.8715 46.5427 35.7806C46.8862 35.6897 47.2697 35.6443 47.6933 35.6443H48.9241Z" fill="#97A8B9"/>
<path d="M53.3623 34.3518V42H52.2975V33.1186H53.2707L53.3623 34.3518ZM57.5355 36.2727V36.3972C57.5355 36.8636 57.4821 37.2964 57.3752 37.6957C57.2684 38.0909 57.1119 38.4348 56.9058 38.7273C56.7036 39.0198 56.4536 39.247 56.1559 39.4091C55.8582 39.5711 55.5167 39.6522 55.1312 39.6522C54.7381 39.6522 54.3908 39.585 54.0893 39.4506C53.7878 39.3162 53.5321 39.1206 53.3222 38.8636C53.1123 38.6067 52.9444 38.2984 52.8185 37.9387C52.6964 37.5791 52.6124 37.1739 52.5666 36.7233V36.0593C52.6124 35.585 52.6983 35.1601 52.8242 34.7846C52.9501 34.4091 53.1162 34.0889 53.3222 33.8241C53.5321 33.5553 53.7859 33.3518 54.0836 33.2134C54.3813 33.0711 54.7248 33 55.114 33C55.5033 33 55.8487 33.0791 56.1502 33.2372C56.4517 33.3913 56.7055 33.6126 56.9116 33.9012C57.1176 34.1897 57.2722 34.5356 57.3752 34.9387C57.4821 35.3379 57.5355 35.7826 57.5355 36.2727ZM56.4708 36.3972V36.2727C56.4708 35.9526 56.4383 35.6522 56.3734 35.3715C56.3086 35.087 56.2074 34.8379 56.07 34.6245C55.9365 34.4071 55.7647 34.2372 55.5548 34.1146C55.3449 33.9881 55.095 33.9249 54.8049 33.9249C54.5378 33.9249 54.305 33.9723 54.1065 34.0672C53.9119 34.1621 53.7459 34.2905 53.6085 34.4526C53.4711 34.6107 53.3585 34.7925 53.2707 34.998C53.1868 35.1996 53.1238 35.4091 53.0818 35.6265V37.1621C53.1581 37.4387 53.265 37.6996 53.4024 37.9447C53.5398 38.1858 53.723 38.3814 53.9519 38.5316C54.1809 38.6779 54.4691 38.751 54.8164 38.751C55.1026 38.751 55.3487 38.6897 55.5548 38.5672C55.7647 38.4407 55.9365 38.2688 56.07 38.0514C56.2074 37.834 56.3086 37.585 56.3734 37.3043C56.4383 37.0198 56.4708 36.7174 56.4708 36.3972Z" fill="#97A8B9"/>
<path d="M61.7905 33.1186V39.5336H60.7258V33.1186H61.7905ZM63.8686 33.1186V34.0079H58.6878V33.1186H63.8686Z" fill="#97A8B9"/>
<path d="M69.3085 38.4368V35.1344C69.3085 34.8814 69.2589 34.6621 69.1597 34.4763C69.0643 34.2866 68.9193 34.1403 68.7246 34.0375C68.53 33.9348 68.2896 33.8834 68.0033 33.8834C67.7362 33.8834 67.5015 33.9308 67.2992 34.0257C67.1008 34.1206 66.9443 34.2451 66.8298 34.3992C66.7191 34.5534 66.6638 34.7194 66.6638 34.8972H65.6047C65.6047 34.668 65.662 34.4407 65.7765 34.2154C65.891 33.9901 66.0551 33.7866 66.2688 33.6047C66.4863 33.419 66.7458 33.2727 67.0473 33.166C67.3526 33.0553 67.6923 33 68.0663 33C68.5166 33 68.9135 33.0791 69.257 33.2372C69.6043 33.3953 69.8753 33.6344 70.0699 33.9545C70.2684 34.2708 70.3676 34.668 70.3676 35.1462V38.1344C70.3676 38.3478 70.3848 38.5751 70.4191 38.8162C70.4573 39.0573 70.5126 39.2648 70.5851 39.4387V39.5336H69.4803C69.4268 39.4071 69.3849 39.2391 69.3543 39.0296C69.3238 38.8162 69.3085 38.6186 69.3085 38.4368ZM69.4917 35.6443L69.5032 36.415H68.4327C68.1312 36.415 67.8621 36.4407 67.6255 36.4921C67.3889 36.5395 67.1904 36.6126 67.0302 36.7115C66.8699 36.8103 66.7477 36.9348 66.6638 37.085C66.5798 37.2312 66.5378 37.4032 66.5378 37.6008C66.5378 37.8024 66.5817 37.9862 66.6695 38.1522C66.7573 38.3182 66.8889 38.4506 67.0645 38.5494C67.2439 38.6443 67.4633 38.6917 67.7228 38.6917C68.0472 38.6917 68.3335 38.6206 68.5815 38.4783C68.8296 38.336 69.0261 38.1621 69.1711 37.9565C69.32 37.751 69.4001 37.5514 69.4116 37.3577L69.8638 37.8854C69.8371 38.0514 69.7646 38.2352 69.6463 38.4368C69.528 38.6383 69.3696 38.832 69.1711 39.0178C68.9765 39.1996 68.7437 39.3518 68.4727 39.4743C68.2056 39.5929 67.9041 39.6522 67.5683 39.6522C67.1485 39.6522 66.7802 39.5672 66.4634 39.3972C66.1505 39.2273 65.9062 39 65.7307 38.7154C65.5589 38.4269 65.4731 38.1047 65.4731 37.749C65.4731 37.4051 65.5379 37.1028 65.6677 36.8419C65.7975 36.5771 65.9845 36.3577 66.2287 36.1838C66.473 36.0059 66.7668 35.8715 67.1103 35.7806C67.4538 35.6897 67.8373 35.6443 68.2609 35.6443H69.4917Z" fill="#97A8B9"/>
<path d="M79.0951 38.751C79.347 38.751 79.5798 38.6976 79.7935 38.5909C80.0072 38.4842 80.1828 38.3379 80.3202 38.1522C80.4576 37.9625 80.5358 37.747 80.5549 37.5059H81.5624C81.5433 37.8854 81.4193 38.2391 81.1903 38.5672C80.9651 38.8913 80.6694 39.1542 80.303 39.3557C79.9366 39.5534 79.534 39.6522 79.0951 39.6522C78.6295 39.6522 78.2231 39.5672 77.8758 39.3972C77.5323 39.2273 77.2461 38.9941 77.0171 38.6976C76.7919 38.4012 76.6221 38.0613 76.5076 37.6779C76.3969 37.2905 76.3416 36.8814 76.3416 36.4506V36.2016C76.3416 35.7708 76.3969 35.3636 76.5076 34.9802C76.6221 34.5929 76.7919 34.251 77.0171 33.9545C77.2461 33.6581 77.5323 33.4249 77.8758 33.2549C78.2231 33.085 78.6295 33 79.0951 33C79.5798 33 80.0034 33.1028 80.366 33.3083C80.7285 33.5099 81.0128 33.7866 81.2189 34.1383C81.4288 34.4862 81.5433 34.8814 81.5624 35.3241H80.5549C80.5358 35.0593 80.4633 34.8202 80.3373 34.6067C80.2152 34.3933 80.0473 34.2233 79.8336 34.0968C79.6237 33.9664 79.3775 33.9012 79.0951 33.9012C78.7707 33.9012 78.4978 33.9684 78.2765 34.1028C78.059 34.2332 77.8853 34.4111 77.7556 34.6364C77.6296 34.8577 77.538 35.1047 77.4808 35.3775C77.4274 35.6462 77.4006 35.9209 77.4006 36.2016V36.4506C77.4006 36.7312 77.4274 37.0079 77.4808 37.2806C77.5342 37.5534 77.6239 37.8004 77.7498 38.0217C77.8796 38.2431 78.0532 38.4209 78.2708 38.5553C78.4921 38.6858 78.7669 38.751 79.0951 38.751Z" fill="#97A8B9"/>
<path d="M87.718 33.1186V34.0257H84.5866V33.1186H87.718ZM84.7412 33.1186V39.5336H83.6821V33.1186H84.7412ZM88.6568 33.1186V39.5336H87.592V33.1186H88.6568Z" fill="#97A8B9"/>
<path d="M90.9139 36.3972V36.2609C90.9139 35.7984 90.9788 35.3696 91.1086 34.9743C91.2383 34.5751 91.4253 34.2292 91.6696 33.9368C91.9138 33.6403 92.2096 33.4111 92.5569 33.249C92.9042 33.083 93.2934 33 93.7247 33C94.1597 33 94.5509 33.083 94.8982 33.249C95.2493 33.4111 95.547 33.6403 95.7913 33.9368C96.0393 34.2292 96.2282 34.5751 96.358 34.9743C96.4877 35.3696 96.5526 35.7984 96.5526 36.2609V36.3972C96.5526 36.8597 96.4877 37.2885 96.358 37.6838C96.2282 38.0791 96.0393 38.4249 95.7913 38.7213C95.547 39.0138 95.2512 39.2431 94.9039 39.4091C94.5605 39.5711 94.1712 39.6522 93.7361 39.6522C93.3011 39.6522 92.9099 39.5711 92.5626 39.4091C92.2153 39.2431 91.9176 39.0138 91.6696 38.7213C91.4253 38.4249 91.2383 38.0791 91.1086 37.6838C90.9788 37.2885 90.9139 36.8597 90.9139 36.3972ZM91.973 36.2609V36.3972C91.973 36.7174 92.0092 37.0198 92.0817 37.3043C92.1542 37.585 92.263 37.834 92.408 38.0514C92.5569 38.2688 92.742 38.4407 92.9633 38.5672C93.1847 38.6897 93.4423 38.751 93.7361 38.751C94.0262 38.751 94.28 38.6897 94.4975 38.5672C94.7188 38.4407 94.902 38.2688 95.0471 38.0514C95.1921 37.834 95.3008 37.585 95.3734 37.3043C95.4497 37.0198 95.4879 36.7174 95.4879 36.3972V36.2609C95.4879 35.9447 95.4497 35.6462 95.3734 35.3656C95.3008 35.081 95.1902 34.83 95.0413 34.6126C94.8963 34.3913 94.7131 34.2174 94.4918 34.0909C94.2742 33.9644 94.0185 33.9012 93.7247 33.9012C93.4346 33.9012 93.1789 33.9644 92.9576 34.0909C92.7401 34.2174 92.5569 34.3913 92.408 34.6126C92.263 34.83 92.1542 35.081 92.0817 35.3656C92.0092 35.6462 91.973 35.9447 91.973 36.2609Z" fill="#97A8B9"/>
<path d="M99.7772 34.3518V42H98.7124V33.1186H99.6856L99.7772 34.3518ZM103.95 36.2727V36.3972C103.95 36.8636 103.897 37.2964 103.79 37.6957C103.683 38.0909 103.527 38.4348 103.321 38.7273C103.118 39.0198 102.868 39.247 102.571 39.4091C102.273 39.5711 101.932 39.6522 101.546 39.6522C101.153 39.6522 100.806 39.585 100.504 39.4506C100.203 39.3162 99.947 39.1206 99.7371 38.8636C99.5272 38.6067 99.3593 38.2984 99.2334 37.9387C99.1112 37.5791 99.0273 37.1739 98.9815 36.7233V36.0593C99.0273 35.585 99.1131 35.1601 99.2391 34.7846C99.365 34.4091 99.531 34.0889 99.7371 33.8241C99.947 33.5553 100.201 33.3518 100.498 33.2134C100.796 33.0711 101.14 33 101.529 33C101.918 33 102.264 33.0791 102.565 33.2372C102.867 33.3913 103.12 33.6126 103.326 33.9012C103.533 34.1897 103.687 34.5356 103.79 34.9387C103.897 35.3379 103.95 35.7826 103.95 36.2727ZM102.886 36.3972V36.2727C102.886 35.9526 102.853 35.6522 102.788 35.3715C102.723 35.087 102.622 34.8379 102.485 34.6245C102.351 34.4071 102.18 34.2372 101.97 34.1146C101.76 33.9881 101.51 33.9249 101.22 33.9249C100.953 33.9249 100.72 33.9723 100.521 34.0672C100.327 34.1621 100.161 34.2905 100.023 34.4526C99.886 34.6107 99.7734 34.7925 99.6856 34.998C99.6016 35.1996 99.5387 35.4091 99.4967 35.6265V37.1621C99.573 37.4387 99.6799 37.6996 99.8173 37.9447C99.9547 38.1858 100.138 38.3814 100.367 38.5316C100.596 38.6779 100.884 38.751 101.231 38.751C101.517 38.751 101.764 38.6897 101.97 38.5672C102.18 38.4407 102.351 38.2688 102.485 38.0514C102.622 37.834 102.723 37.585 102.788 37.3043C102.853 37.0198 102.886 36.7174 102.886 36.3972Z" fill="#97A8B9"/>
<path d="M108.205 33.1186V39.5336H107.141V33.1186H108.205ZM110.283 33.1186V34.0079H105.103V33.1186H110.283Z" fill="#97A8B9"/>
<path d="M115.723 38.4368V35.1344C115.723 34.8814 115.674 34.6621 115.575 34.4763C115.479 34.2866 115.334 34.1403 115.14 34.0375C114.945 33.9348 114.704 33.8834 114.418 33.8834C114.151 33.8834 113.916 33.9308 113.714 34.0257C113.516 34.1206 113.359 34.2451 113.245 34.3992C113.134 34.5534 113.079 34.7194 113.079 34.8972H112.02C112.02 34.668 112.077 34.4407 112.191 34.2154C112.306 33.9901 112.47 33.7866 112.684 33.6047C112.901 33.419 113.161 33.2727 113.462 33.166C113.768 33.0553 114.107 33 114.481 33C114.932 33 115.328 33.0791 115.672 33.2372C116.019 33.3953 116.29 33.6344 116.485 33.9545C116.683 34.2708 116.782 34.668 116.782 35.1462V38.1344C116.782 38.3478 116.8 38.5751 116.834 38.8162C116.872 39.0573 116.927 39.2648 117 39.4387V39.5336H115.895C115.842 39.4071 115.8 39.2391 115.769 39.0296C115.739 38.8162 115.723 38.6186 115.723 38.4368ZM115.907 35.6443L115.918 36.415H114.848C114.546 36.415 114.277 36.4407 114.04 36.4921C113.804 36.5395 113.605 36.6126 113.445 36.7115C113.285 36.8103 113.163 36.9348 113.079 37.085C112.995 37.2312 112.953 37.4032 112.953 37.6008C112.953 37.8024 112.997 37.9862 113.084 38.1522C113.172 38.3182 113.304 38.4506 113.479 38.5494C113.659 38.6443 113.878 38.6917 114.138 38.6917C114.462 38.6917 114.748 38.6206 114.996 38.4783C115.244 38.336 115.441 38.1621 115.586 37.9565C115.735 37.751 115.815 37.5514 115.826 37.3577L116.279 37.8854C116.252 38.0514 116.179 38.2352 116.061 38.4368C115.943 38.6383 115.784 38.832 115.586 39.0178C115.391 39.1996 115.159 39.3518 114.888 39.4743C114.62 39.5929 114.319 39.6522 113.983 39.6522C113.563 39.6522 113.195 39.5672 112.878 39.3972C112.565 39.2273 112.321 39 112.146 38.7154C111.974 38.4269 111.888 38.1047 111.888 37.749C111.888 37.4051 111.953 37.1028 112.083 36.8419C112.212 36.5771 112.399 36.3577 112.644 36.1838C112.888 36.0059 113.182 35.8715 113.525 35.7806C113.869 35.6897 114.252 35.6443 114.676 35.6443H115.907Z" fill="#97A8B9"/>
</svg>
