<svg width="220" height="110" viewBox="0 0 220 110" fill="none" xmlns="http://www.w3.org/2000/svg">
<path d="M85.4079 19.649C103.085 19.649 115.224 10.4924 123.741 10.4924C132.259 10.4924 150.148 15.3889 150.148 54.5732C150.148 93.7575 126.082 99.5075 116.713 99.5075C72.8422 99.5101 54.1023 19.649 85.4079 19.649Z" fill="#F5F3F7"/>
<path d="M141.944 24.3334C139.831 24.3334 138.111 22.6135 138.111 20.5001C138.111 18.3866 139.831 16.6667 141.944 16.6667C144.058 16.6667 145.778 18.3866 145.778 20.5001C145.778 22.6135 144.058 24.3334 141.944 24.3334ZM141.944 19.2223C141.239 19.2223 140.667 19.7973 140.667 20.5001C140.667 21.2029 141.239 21.7779 141.944 21.7779C142.65 21.7779 143.222 21.2029 143.222 20.5001C143.222 19.7973 142.65 19.2223 141.944 19.2223Z" fill="#ABA7AF"/>
<path d="M131 20.9998C129.346 20.9998 128 19.6538 128 17.9998C128 16.3458 129.346 14.9998 131 14.9998C132.654 14.9998 134 16.3458 134 17.9998C134 19.6538 132.654 20.9998 131 20.9998ZM131 16.9998C130.448 16.9998 130 17.4498 130 17.9998C130 18.5498 130.448 18.9998 131 18.9998C131.552 18.9998 132 18.5498 132 17.9998C132 17.4498 131.552 16.9998 131 16.9998Z" fill="#ABA7AF"/>
<path d="M145 31.9998C143.897 31.9998 143 31.1024 143 29.9998C143 28.8971 143.897 27.9998 145 27.9998C146.103 27.9998 147 28.8971 147 29.9998C147 31.1024 146.103 31.9998 145 31.9998ZM145 29.3331C144.632 29.3331 144.333 29.6331 144.333 29.9998C144.333 30.3664 144.632 30.6664 145 30.6664C145.368 30.6664 145.667 30.3664 145.667 29.9998C145.667 29.6331 145.368 29.3331 145 29.3331Z" fill="#ABA7AF"/>
<path d="M133.639 81.1945H86.3611C83.5372 81.1945 81.25 78.9072 81.25 76.0834V37.75H138.75V76.0834C138.75 78.9072 136.463 81.1945 133.639 81.1945Z" fill="#F5F3F7"/>
<path d="M138.75 37.7498H81.25V33.9164C81.25 31.0925 83.5372 28.8053 86.3611 28.8053H133.639C136.463 28.8053 138.75 31.0925 138.75 33.9164V37.7498Z" fill="#19B2B8"/>
<path d="M92.1111 28.8054H86.3611C83.5372 28.8054 81.25 31.0926 81.25 33.9165V37.7499H87V33.9165C87 31.0926 89.2872 28.8054 92.1111 28.8054Z" fill="#19B2B8"/>
<path d="M110 75.4344C104.6 75.4344 99.2028 73.3797 95.0935 69.2704L93.739 67.9159L96.4505 65.2045L97.8049 66.5589C104.531 73.2826 115.474 73.2826 122.2 66.5589L123.555 65.2045L126.266 67.9159L124.912 69.2704C120.797 73.3797 115.4 75.4344 110 75.4344Z" fill="#1A141F"/>
<path d="M133.639 83.1109H86.361C82.4843 83.1109 79.3333 79.9599 79.3333 76.0831V33.9164C79.3333 30.0397 82.4843 26.8887 86.361 26.8887H133.639C137.516 26.8887 140.667 30.0397 140.667 33.9164V76.0831C140.667 79.9599 137.516 83.1109 133.639 83.1109ZM86.361 30.722C84.6003 30.722 83.1666 32.1557 83.1666 33.9164V76.0831C83.1666 77.8439 84.6003 79.2776 86.361 79.2776H133.639C135.4 79.2776 136.833 77.8439 136.833 76.0831V33.9164C136.833 32.1557 135.4 30.722 133.639 30.722H86.361Z" fill="#1A141F"/>
<path d="M81.25 35.8335H138.75V39.6668H81.25V35.8335Z" fill="#1A141F"/>
<path d="M69.1111 79.2778H150.889V83.1112H69.1111V79.2778Z" fill="#1A141F"/>
<path d="M97.2222 57.5557C94.4034 57.5557 92.1111 55.2634 92.1111 52.4446C92.1111 49.6258 94.4034 47.3335 97.2222 47.3335C100.041 47.3335 102.333 49.6258 102.333 52.4446C102.333 55.2634 100.041 57.5557 97.2222 57.5557ZM97.2222 51.1668C96.5169 51.1668 95.9444 51.7418 95.9444 52.4446C95.9444 53.1474 96.5169 53.7224 97.2222 53.7224C97.9275 53.7224 98.5 53.1474 98.5 52.4446C98.5 51.7418 97.9275 51.1668 97.2222 51.1668Z" fill="#1A141F"/>
<path d="M122.778 57.5557C119.959 57.5557 117.667 55.2634 117.667 52.4446C117.667 49.6258 119.959 47.3335 122.778 47.3335C125.596 47.3335 127.889 49.6258 127.889 52.4446C127.889 55.2634 125.596 57.5557 122.778 57.5557ZM122.778 51.1668C122.072 51.1668 121.5 51.7418 121.5 52.4446C121.5 53.1474 122.072 53.7224 122.778 53.7224C123.483 53.7224 124.055 53.1474 124.055 52.4446C124.055 51.7418 123.483 51.1668 122.778 51.1668Z" fill="#1A141F"/>
<path d="M97 53.9998C98.1046 53.9998 99 53.1043 99 51.9998C99 50.8952 98.1046 49.9998 97 49.9998C95.8954 49.9998 95 50.8952 95 51.9998C95 53.1043 95.8954 53.9998 97 53.9998Z" fill="#19B2B8"/>
<path d="M123 53.9998C124.105 53.9998 125 53.1043 125 51.9998C125 50.8952 124.105 49.9998 123 49.9998C121.895 49.9998 121 50.8952 121 51.9998C121 53.1043 121.895 53.9998 123 53.9998Z" fill="#19B2B8"/>
</svg>
