<svg width="220" height="110" fill="none" xmlns="http://www.w3.org/2000/svg"><path d="M85.408 19.649c17.677 0 29.816-9.157 38.333-9.157 8.518 0 26.407 4.897 26.407 44.081 0 39.185-24.066 44.935-33.435 44.935-43.87.002-62.61-79.859-31.305-79.859Z" fill="#F5F3F7"/><path d="M141.944 24.334a3.838 3.838 0 0 1-3.833-3.834 3.838 3.838 0 0 1 3.833-3.833 3.838 3.838 0 0 1 3.834 3.833 3.838 3.838 0 0 1-3.834 3.834Zm0-5.112a1.28 1.28 0 0 0-1.277 1.278 1.28 1.28 0 0 0 1.277 1.278 1.28 1.28 0 0 0 1.278-1.278 1.28 1.28 0 0 0-1.278-1.278ZM131 21c-1.654 0-3-1.346-3-3s1.346-3 3-3 3 1.346 3 3-1.346 3-3 3Zm0-4c-.552 0-1 .45-1 1s.448 1 1 1 1-.45 1-1-.448-1-1-1ZM145 32c-1.103 0-2-.898-2-2 0-1.103.897-2 2-2s2 .897 2 2c0 1.102-.897 2-2 2Zm0-2.667a.668.668 0 1 0 .667.667.668.668 0 0 0-.667-.667Z" fill="#ABA7AF"/><path d="M133.639 81.195H86.361a5.11 5.11 0 0 1-5.111-5.112V37.75h57.5v38.333a5.11 5.11 0 0 1-5.111 5.112Z" fill="#F5F3F7"/><path d="M138.75 37.75h-57.5v-3.834a5.11 5.11 0 0 1 5.111-5.11h47.278a5.11 5.11 0 0 1 5.111 5.11v3.834Z" fill="#19B2B8"/><path d="M92.111 28.805h-5.75a5.11 5.11 0 0 0-5.111 5.111v3.834H87v-3.834a5.11 5.11 0 0 1 5.111-5.11Z" fill="#19B2B8"/><path d="M110 75.434c-5.4 0-10.797-2.054-14.906-6.164l-1.355-1.354 2.712-2.711 1.354 1.354c6.726 6.724 17.669 6.724 24.395 0l1.355-1.354 2.711 2.711-1.354 1.354A21.035 21.035 0 0 1 110 75.435Z" fill="#1A141F"/><path d="M133.639 83.111H86.361a7.034 7.034 0 0 1-7.028-7.028V33.917a7.034 7.034 0 0 1 7.028-7.028h47.278a7.034 7.034 0 0 1 7.028 7.027v42.167a7.034 7.034 0 0 1-7.028 7.028ZM86.361 30.722a3.199 3.199 0 0 0-3.194 3.194v42.167a3.199 3.199 0 0 0 3.194 3.195h47.278a3.198 3.198 0 0 0 3.194-3.195V33.917a3.198 3.198 0 0 0-3.194-3.195H86.361Z" fill="#1A141F"/><path d="M81.25 35.834h57.5v3.833h-57.5v-3.834ZM69.111 79.278h81.778v3.833H69.111v-3.833ZM97.222 57.556a5.116 5.116 0 0 1-5.11-5.111 5.116 5.116 0 0 1 5.11-5.111 5.116 5.116 0 0 1 5.111 5.11 5.116 5.116 0 0 1-5.11 5.112Zm0-6.39a1.28 1.28 0 0 0-1.278 1.279 1.28 1.28 0 0 0 1.278 1.277 1.28 1.28 0 0 0 1.278-1.277 1.28 1.28 0 0 0-1.278-1.278ZM122.778 57.556a5.116 5.116 0 0 1-5.111-5.111 5.116 5.116 0 0 1 5.111-5.111 5.117 5.117 0 0 1 5.111 5.11 5.117 5.117 0 0 1-5.111 5.112Zm0-6.39a1.28 1.28 0 0 0-1.278 1.279 1.28 1.28 0 0 0 1.278 1.277 1.28 1.28 0 0 0 1.277-1.277 1.28 1.28 0 0 0-1.277-1.278Z" fill="#1A141F"/><path d="M97 54a2 2 0 1 0 0-4 2 2 0 0 0 0 4ZM123 54a2 2 0 1 0 0-4 2 2 0 0 0 0 4Z" fill="#19B2B8"/></svg>