<svg width="220" height="110" fill="none" xmlns="http://www.w3.org/2000/svg"><path d="M153.199 61.018c-9.665-14.799-8.638-29.969-13.296-37.101-4.659-7.133-18.544-19.43-51.35 1.998-32.805 21.429-24.461 44.722-19.335 52.566C93.21 115.209 170.32 87.228 153.2 61.018Z" fill="#F5F3F7"/><path d="M88.917 45.416V78.64c0 2.81 2.3 5.11 5.11 5.11h31.945c2.811 0 5.111-2.3 5.111-5.11V45.416H88.917Z" fill="#F5F3F7"/><path d="M136.195 45.416h-52.39v-6.388a5.11 5.11 0 0 1 5.112-5.112h42.166a5.11 5.11 0 0 1 5.112 5.112v6.388Z" fill="#C7522D"/><path d="M94.667 33.916h-5.75a5.11 5.11 0 0 0-5.111 5.112v6.388h5.75v-6.388a5.11 5.11 0 0 1 5.11-5.112Z" fill="#C7522D"/><path d="m74.315 21.213 1.807-1.807 3.614 3.614-1.807 1.807-3.614-3.614ZM73.864 33.405l3.614-3.614 1.807 1.807-3.614 3.614-1.808-1.807ZM84.253 23.018l3.614-3.614 1.807 1.807-3.614 3.614-1.807-1.807ZM134.917 24.704a3.838 3.838 0 0 1-3.834-3.834 3.838 3.838 0 0 1 3.834-3.833 3.838 3.838 0 0 1 3.833 3.833 3.838 3.838 0 0 1-3.833 3.834Zm0-5.111a1.278 1.278 0 1 0 0 2.556 1.278 1.278 0 0 0 0-2.556Z" fill="#ABA7AF"/><path d="M125.972 85.666H94.028A7.034 7.034 0 0 1 87 78.64V45.417h3.833v33.222a3.199 3.199 0 0 0 3.195 3.194h31.944a3.2 3.2 0 0 0 3.195-3.194V45.417H133v33.222a7.034 7.034 0 0 1-7.028 7.028Z" fill="#1A141F"/><path d="M136.194 47.333h-12.138V43.5h10.222v-4.472a3.2 3.2 0 0 0-3.195-3.195H88.917a3.199 3.199 0 0 0-3.195 3.195V43.5h38.334v3.833h-40.25a1.917 1.917 0 0 1-1.917-1.916v-6.39A7.034 7.034 0 0 1 88.917 32h42.166a7.034 7.034 0 0 1 7.028 7.028v6.389a1.918 1.918 0 0 1-1.917 1.916Z" fill="#1A141F"/><path d="M122.778 33.917h-3.834v-5.112a.639.639 0 0 0-.638-.638h-16.612a.639.639 0 0 0-.638.638v5.112h-3.834v-5.112a4.477 4.477 0 0 1 4.472-4.472h16.612a4.477 4.477 0 0 1 4.472 4.473v5.11ZM108.083 56.916h3.834v16.612h-3.834V56.916ZM97.222 56.916h3.834v16.612h-3.834V56.916ZM118.944 56.916h3.834v16.612h-3.834V56.916ZM69.111 81.833h81.778v3.834H69.111v-3.834Z" fill="#1A141F"/></svg>