<svg width="151" height="150" viewBox="0 0 151 150" fill="none" xmlns="http://www.w3.org/2000/svg">
<path d="M67.3124 19.4375C76.6403 19.4375 85.7587 22.2035 93.5145 27.3858C101.27 32.5681 107.315 39.9339 110.885 48.5517C114.455 57.1695 115.388 66.6523 113.569 75.8009C111.749 84.9496 107.257 93.3531 100.661 99.9489C94.0655 106.545 85.662 111.036 76.5134 112.856C67.3647 114.676 57.8819 113.742 49.2641 110.172C40.6463 106.603 33.2805 100.558 28.0982 92.8021C22.916 85.0462 20.1499 75.9279 20.1499 66.6C20.1665 54.0968 25.1407 42.1104 33.9818 33.2693C42.8229 24.4282 54.8092 19.454 67.3124 19.4375ZM67.3124 10.6875C56.254 10.6875 45.4439 13.9667 36.2491 20.1105C27.0543 26.2542 19.8879 34.9865 15.656 45.2032C11.4241 55.4199 10.3169 66.662 12.4743 77.508C14.6317 88.3539 19.9568 98.3166 27.7763 106.136C35.5958 113.956 45.5585 119.281 56.4044 121.438C67.2504 123.596 78.4925 122.488 88.7092 118.256C98.9259 114.025 107.658 106.858 113.802 97.6633C119.946 88.4685 123.225 77.6584 123.225 66.6C123.225 59.2575 121.779 51.9868 118.969 45.2032C116.159 38.4196 112.04 32.2558 106.849 27.0639C101.657 21.8719 95.4928 17.7535 88.7092 14.9436C81.9256 12.1337 74.655 10.6875 67.3124 10.6875Z" fill="currentColor"/>
<path fill-rule="evenodd" clip-rule="evenodd" d="M101.531 100.819C103.24 99.11 106.01 99.11 107.719 100.819L138.169 131.269C139.877 132.977 139.877 135.747 138.169 137.456C136.46 139.164 133.69 139.164 131.981 137.456L101.531 107.006C99.8229 105.297 99.8229 102.527 101.531 100.819Z" fill="currentColor"/>
<path d="M52.4377 53.1996C56.2623 53.1996 59.3627 50.0992 59.3627 46.2746C59.3627 42.45 56.2623 39.3496 52.4377 39.3496C48.6131 39.3496 45.5127 42.45 45.5127 46.2746C45.5127 50.0992 48.6131 53.1996 52.4377 53.1996Z" fill="currentColor"/>
<path d="M84.6877 53.1996C88.5123 53.1996 91.6127 50.0992 91.6127 46.2746C91.6127 42.45 88.5123 39.3496 84.6877 39.3496C80.8631 39.3496 77.7627 42.45 77.7627 46.2746C77.7627 50.0992 80.8631 53.1996 84.6877 53.1996Z" fill="currentColor"/>
<path fill-rule="evenodd" clip-rule="evenodd" d="M64.1875 80.0625C64.1875 77.6463 66.1463 75.6875 68.5625 75.6875C74.3625 75.6875 79.8328 76.7553 84.4335 78.6545C88.9817 80.532 92.9725 83.3499 95.3907 87.0619C96.7096 89.0864 96.1377 91.7968 94.1131 93.1157C92.0886 94.4346 89.3782 93.8626 88.0593 91.8381C86.9026 90.0626 84.5933 88.1867 81.0947 86.7424C77.6484 85.3197 73.325 84.4375 68.5625 84.4375C66.1463 84.4375 64.1875 82.4787 64.1875 80.0625Z" fill="currentColor"/>
<path fill-rule="evenodd" clip-rule="evenodd" d="M61.665 76.1982C63.9495 75.8563 66.2563 75.6856 68.5663 75.6875C70.9825 75.6895 72.9396 77.6499 72.9376 80.0662C72.9356 82.4824 70.9752 84.4395 68.559 84.4375C66.685 84.4359 64.8135 84.5744 62.9602 84.8518C60.5706 85.2095 58.3434 83.5622 57.9858 81.1726C57.6281 78.783 59.2754 76.5559 61.665 76.1982Z" fill="currentColor"/>
<path fill-rule="evenodd" clip-rule="evenodd" d="M56.058 61.9687L52.4375 64.4248L48.8132 61.9743C49.6262 60.7719 50.9826 60.0509 52.4341 60.0498C53.8856 60.0487 55.2431 60.7675 56.058 61.9687ZM52.442 72.6107C52.0281 73.3032 51.602 74.0308 51.1765 74.7777C49.9487 76.9333 48.7691 79.176 47.9091 81.1614C46.9702 83.3289 46.6875 84.584 46.6875 84.9998C46.6875 86.5248 47.2933 87.9873 48.3716 89.0657C49.45 90.144 50.9125 90.7498 52.4375 90.7498C53.9625 90.7498 55.425 90.144 56.5034 89.0657C57.5817 87.9873 58.1875 86.5248 58.1875 84.9998C58.1875 84.5679 57.9018 83.3033 56.9652 81.1387C56.1059 79.1527 54.9271 76.9128 53.6998 74.7613C53.277 74.0201 52.8534 73.298 52.442 72.6107ZM64.9957 77.664C65.9576 79.887 66.9375 82.6067 66.9375 84.9998C66.9375 88.8454 65.4098 92.5336 62.6905 95.2528C59.9713 97.9721 56.2831 99.4998 52.4375 99.4998C48.5919 99.4998 44.9037 97.9721 42.1844 95.2528C39.4652 92.5336 37.9375 88.8454 37.9375 84.9998C37.9375 82.6157 38.9204 79.8989 39.88 77.6835C40.9184 75.2861 42.2701 72.735 43.5735 70.4469C44.8849 68.1445 46.1903 66.0338 47.1646 64.5031C47.6529 63.7358 48.0609 63.1098 48.3486 62.673C48.4925 62.4545 48.6064 62.2831 48.6855 62.1647L48.7773 62.0275L48.8025 61.9902L48.8132 61.9743C48.8135 61.9739 48.8132 61.9743 52.4375 64.4248C56.058 61.9687 56.0577 61.9683 56.058 61.9687L56.0688 61.9846L56.094 62.0219L56.1859 62.1588C56.2651 62.2769 56.3791 62.4479 56.5231 62.6659C56.8109 63.1016 57.2191 63.7261 57.7076 64.4917C58.6822 66.019 59.9882 68.1257 61.3002 70.4258C62.6042 72.7118 63.9566 75.2625 64.9957 77.664Z" fill="currentColor"/>
</svg>
