<svg width="120" height="120" viewBox="0 0 120 120" fill="none" xmlns="http://www.w3.org/2000/svg">
<path d="M59.9997 15.7202C68.7575 15.7202 77.3186 18.3172 84.6004 23.1827C91.8822 28.0483 97.5577 34.9639 100.909 43.055C104.261 51.1461 105.137 60.0493 103.429 68.6388C101.72 77.2283 97.5031 85.1182 91.3104 91.3109C85.1177 97.5036 77.2278 101.721 68.6383 103.429C60.0489 105.138 51.1456 104.261 43.0545 100.91C34.9634 97.5582 28.0478 91.8827 23.1823 84.6009C18.3167 77.3191 15.7197 68.758 15.7197 60.0002C15.7356 48.2613 20.4059 37.0077 28.7066 28.7071C37.0072 20.4064 48.2608 15.7361 59.9997 15.7202ZM59.9997 8.72021C46.3994 8.72021 33.3562 14.1229 23.7393 23.7398C14.1224 33.3566 8.71973 46.3999 8.71973 60.0002C8.71973 73.6005 14.1224 86.6438 23.7393 96.2607C33.3562 105.878 46.3994 111.28 59.9997 111.28C73.6 111.28 86.6433 105.878 96.2602 96.2607C105.877 86.6438 111.28 73.6005 111.28 60.0002C111.28 46.3999 105.877 33.3566 96.2602 23.7398C86.6433 14.1229 73.6 8.72021 59.9997 8.72021Z" fill="currentColor"/>
<path d="M42.5 51.26L60 68.75L77.5 51.25" stroke="currentColor" stroke-width="7" stroke-linecap="round" stroke-linejoin="round"/>
</svg>
