<svg width="50" height="50" viewBox="0 0 50 50" fill="none" xmlns="http://www.w3.org/2000/svg">
    <circle cx="25" cy="25" r="25" fill="#3D6BD4"/>
    <path fill-rule="evenodd" clip-rule="evenodd" d="M25 11.6667C22.2417 11.6667 19.5965 12.7905 17.6461 14.7909C15.6957 16.7913 14.6 19.5044 14.6 22.3334C14.6 26.4642 17.2205 30.4725 20.0937 33.5832C21.5038 35.1098 22.9183 36.3595 23.9817 37.228C24.3774 37.5512 24.7231 37.8205 25 38.0303C25.2769 37.8205 25.6226 37.5512 26.0183 37.228C27.0817 36.3595 28.4962 35.1098 29.9063 33.5832C32.7795 30.4725 35.4 26.4642 35.4 22.3334C35.4 19.5044 34.3043 16.7913 32.3539 14.7909C30.4035 12.7905 27.7583 11.6667 25 11.6667ZM25 39.6669C24.2789 40.7763 24.2782 40.7758 24.2782 40.7758L24.2745 40.7733L24.2658 40.7673L24.236 40.7466C24.2107 40.729 24.1746 40.7037 24.1284 40.6709C24.0361 40.6053 23.9034 40.5097 23.7361 40.3858C23.4017 40.1381 22.9283 39.7765 22.3621 39.3141C21.2317 38.3909 19.7212 37.0573 18.2063 35.4172C15.2295 32.1945 12 27.5361 12 22.3334C12 18.7972 13.3696 15.4058 15.8076 12.9053C18.2456 10.4048 21.5522 9 25 9C28.4478 9 31.7544 10.4048 34.1924 12.9053C36.6304 15.4058 38 18.7972 38 22.3334C38 27.5361 34.7705 32.1945 31.7937 35.4172C30.2788 37.0573 28.7683 38.3909 27.6379 39.3141C27.0717 39.7765 26.5983 40.1381 26.2639 40.3858C26.0966 40.5097 25.9639 40.6053 25.8716 40.6709C25.8254 40.7037 25.7893 40.729 25.764 40.7466L25.7342 40.7673L25.7255 40.7733L25.7228 40.7752C25.7228 40.7752 25.7211 40.7763 25 39.6669ZM25 39.6669L25.7211 40.7763C25.2844 41.0749 24.7149 41.0744 24.2782 40.7758L25 39.6669ZM25 19.6667C23.5641 19.6667 22.4 20.8607 22.4 22.3334C22.4 23.8062 23.5641 25.0001 25 25.0001C26.4359 25.0001 27.6 23.8062 27.6 22.3334C27.6 20.8607 26.4359 19.6667 25 19.6667ZM19.8 22.3334C19.8 19.3879 22.1281 17.0001 25 17.0001C27.8719 17.0001 30.2 19.3879 30.2 22.3334C30.2 25.279 27.8719 27.6668 25 27.6668C22.1281 27.6668 19.8 25.279 19.8 22.3334Z" fill="white"/>
</svg>