<svg width="18" height="18" viewBox="0 0 18 18" fill="none" xmlns="http://www.w3.org/2000/svg">
<path d="M13.4143 3.18281C13.7862 3.18321 14.1427 3.3311 14.4056 3.59403C14.6685 3.85697 14.8164 4.21347 14.8168 4.58531V13.4143C14.8164 13.7862 14.6685 14.1427 14.4056 14.4056C14.1427 14.6685 13.7862 14.8164 13.4143 14.8168H4.58531C4.21347 14.8164 3.85697 14.6685 3.59403 14.4056C3.3311 14.1427 3.18321 13.7862 3.18281 13.4143V4.58531C3.18321 4.21347 3.3311 3.85697 3.59403 3.59403C3.85697 3.3311 4.21347 3.18321 4.58531 3.18281H13.4143ZM13.4143 2.13281H4.58531C3.93487 2.13281 3.31107 2.3912 2.85113 2.85113C2.3912 3.31107 2.13281 3.93487 2.13281 4.58531V13.4143C2.13281 14.0648 2.3912 14.6886 2.85113 15.1485C3.31107 15.6084 3.93487 15.8668 4.58531 15.8668H13.4143C14.0648 15.8668 14.6886 15.6084 15.1485 15.1485C15.6084 14.6886 15.8668 14.0648 15.8668 13.4143V4.58531C15.8668 3.93487 15.6084 3.31107 15.1485 2.85113C14.6886 2.3912 14.0648 2.13281 13.4143 2.13281Z" fill="white"/>
<path fill-rule="evenodd" clip-rule="evenodd" d="M9.0001 5.10449C9.29005 5.10449 9.5251 5.33954 9.5251 5.62949V12.3705C9.5251 12.6604 9.29005 12.8955 9.0001 12.8955C8.71015 12.8955 8.4751 12.6604 8.4751 12.3705V5.62949C8.4751 5.33954 8.71015 5.10449 9.0001 5.10449Z" fill="white"/>
<path fill-rule="evenodd" clip-rule="evenodd" d="M5.10449 8.99961C5.10449 8.70966 5.33954 8.47461 5.62949 8.47461H12.3705C12.6604 8.47461 12.8955 8.70966 12.8955 8.99961C12.8955 9.28956 12.6604 9.52461 12.3705 9.52461H5.62949C5.33954 9.52461 5.10449 9.28956 5.10449 8.99961Z" fill="white"/>
</svg>
