<svg width="30" height="30" viewBox="0 0 30 30" fill="none" xmlns="http://www.w3.org/2000/svg">
<path fill-rule="evenodd" clip-rule="evenodd" d="M4.88086 9.02734C4.88086 8.54409 5.27261 8.15234 5.75586 8.15234H24.2459C24.7291 8.15234 25.1209 8.54409 25.1209 9.02734C25.1209 9.51059 24.7291 9.90234 24.2459 9.90234H5.75586C5.27261 9.90234 4.88086 9.51059 4.88086 9.02734Z" fill="currentColor"/>
<path fill-rule="evenodd" clip-rule="evenodd" d="M4.88086 15C4.88086 14.5168 5.27261 14.125 5.75586 14.125H24.2459C24.7291 14.125 25.1209 14.5168 25.1209 15C25.1209 15.4832 24.7291 15.875 24.2459 15.875H5.75586C5.27261 15.875 4.88086 15.4832 4.88086 15Z" fill="currentColor"/>
<path fill-rule="evenodd" clip-rule="evenodd" d="M4.88086 20.9727C4.88086 20.4894 5.27261 20.0977 5.75586 20.0977H24.2459C24.7291 20.0977 25.1209 20.4894 25.1209 20.9727C25.1209 21.4559 24.7291 21.8477 24.2459 21.8477H5.75586C5.27261 21.8477 4.88086 21.4559 4.88086 20.9727Z" fill="currentColor"/>
</svg>
