<svg width="20" height="20" viewBox="0 0 20 20" fill="none" xmlns="http://www.w3.org/2000/svg">
<path d="M10 4.96159C10.2637 4.96159 10.5215 5.03979 10.7408 5.1863C10.96 5.3328 11.1309 5.54104 11.2318 5.78468C11.3328 6.02831 11.3592 6.2964 11.3077 6.55504C11.2563 6.81368 11.1293 7.05126 10.9428 7.23773C10.7563 7.4242 10.5188 7.55119 10.2601 7.60264C10.0015 7.65408 9.73339 7.62768 9.48976 7.52676C9.24612 7.42584 9.03788 7.25495 8.89138 7.03568C8.74487 6.81642 8.66667 6.55863 8.66667 6.29492C8.66667 5.9413 8.80714 5.60216 9.05719 5.35211C9.30724 5.10206 9.64638 4.96159 10 4.96159ZM10 3.79492C9.50555 3.79492 9.0222 3.94154 8.61108 4.21625C8.19995 4.49095 7.87952 4.8814 7.6903 5.33821C7.50108 5.79503 7.45157 6.29769 7.54804 6.78265C7.6445 7.2676 7.8826 7.71306 8.23223 8.06269C8.58187 8.41232 9.02732 8.65042 9.51228 8.74688C9.99723 8.84335 10.4999 8.79384 10.9567 8.60462C11.4135 8.4154 11.804 8.09497 12.0787 7.68385C12.3534 7.27272 12.5 6.78938 12.5 6.29492C12.5 5.63188 12.2366 4.996 11.7678 4.52715C11.2989 4.05831 10.663 3.79492 10 3.79492Z" fill="#97A8B9"/>
<path fill-rule="evenodd" clip-rule="evenodd" d="M11.4436 13.3916C11.4859 13.0722 11.7791 12.8476 12.0985 12.8899C13.3365 13.0538 14.4358 13.3638 15.244 13.7896C16.0081 14.1921 16.7119 14.8114 16.7119 15.6682C16.7119 16.2135 16.4194 16.6658 16.0373 17.0098C15.655 17.3539 15.1347 17.6372 14.5414 17.8631C13.3507 18.3165 11.7451 18.5848 10.0002 18.5848C8.25554 18.5848 6.64992 18.317 5.4592 17.8638C4.86586 17.6379 4.34544 17.3547 3.9631 17.0105C3.58083 16.6662 3.28857 16.2137 3.28857 15.6682C3.28857 14.8169 3.98292 14.2006 4.73877 13.7989C5.53729 13.3745 6.62357 13.0643 7.84789 12.8969C8.16709 12.8532 8.46123 13.0766 8.50486 13.3958C8.5485 13.715 8.32512 14.0092 8.00592 14.0528C6.86525 14.2087 5.92403 14.4902 5.2863 14.8291C4.6059 15.1907 4.45524 15.5094 4.45524 15.6682C4.45524 15.7676 4.5059 15.9293 4.74379 16.1435C4.9816 16.3576 5.35858 16.5772 5.8742 16.7734C6.9014 17.1644 8.35994 17.4182 10.0002 17.4182C11.6404 17.4182 13.099 17.164 14.1262 16.7728C14.6418 16.5765 15.0189 16.3569 15.2568 16.1427C15.4948 15.9284 15.5452 15.767 15.5452 15.6682C15.5452 15.5083 15.3915 15.1859 14.7002 14.8218C14.053 14.4808 13.0989 14.1992 11.9453 14.0465C11.626 14.0042 11.4013 13.711 11.4436 13.3916Z" fill="#97A8B9"/>
<path d="M9.99993 2.61979C10.4815 2.62062 10.9577 2.72081 11.3988 2.9141C11.8398 3.10739 12.2363 3.38961 12.5633 3.74312C12.9214 4.1263 13.1979 4.57834 13.3758 5.07173C13.5537 5.56512 13.6294 6.08956 13.5983 6.61313C13.4233 9.64979 11.2066 13.1181 9.99993 14.8048C8.1666 12.2748 6.38493 8.88646 6.38493 6.23479C6.38581 5.27631 6.76696 4.35733 7.44471 3.67958C8.12246 3.00182 9.04144 2.62067 9.99993 2.61979ZM9.99993 1.45312C8.73189 1.45357 7.51591 1.95749 6.61927 2.85413C5.72263 3.75077 5.2187 4.96675 5.21826 6.23479C5.21826 10.1715 8.43326 14.7181 9.58993 16.2115C9.63771 16.2737 9.69916 16.3241 9.76953 16.3588C9.8399 16.3935 9.91731 16.4115 9.99576 16.4115C10.0742 16.4115 10.1516 16.3935 10.222 16.3588C10.2924 16.3241 10.3538 16.2737 10.4016 16.2115C11.5083 14.7748 14.5416 10.5165 14.7683 6.68313C14.9316 3.90146 12.7916 1.45646 9.99993 1.45312Z" fill="#97A8B9"/>
</svg>
