<svg width="16" height="20" viewBox="0 0 16 20" fill="none" xmlns="http://www.w3.org/2000/svg">
<path d="M8.00049 1.80361C8.57676 1.80292 9.14751 1.91921 9.68009 2.14582C10.2127 2.37243 10.6966 2.70491 11.1043 3.12426C11.512 3.5436 11.8353 4.04158 12.0559 4.5897C12.2765 5.13782 12.3899 5.72533 12.3898 6.31864C12.3871 7.49178 11.7011 9.29018 10.4573 11.3824C9.64332 12.7519 8.72731 14.0277 8.01451 14.9587C7.29626 14.0265 6.37247 12.7507 5.55183 11.38C4.30025 9.28898 3.6112 7.49219 3.6112 6.32265C3.61115 5.72918 3.72465 5.14152 3.94521 4.59322C4.16578 4.04492 4.48909 3.54673 4.89668 3.12709C5.30427 2.70744 5.78817 2.37458 6.32072 2.14749C6.85328 1.92041 7.42407 1.80355 8.00049 1.80361ZM8.00049 0C6.37177 0 4.80975 0.666134 3.65807 1.85186C2.50638 3.03759 1.85938 4.64578 1.85938 6.32265C1.85938 9.90621 5.87456 15.1683 7.422 17.0641C7.49525 17.1537 7.58667 17.2257 7.68984 17.275C7.793 17.3243 7.90541 17.3497 8.01914 17.3495C8.13288 17.3492 8.24518 17.3234 8.34816 17.2736C8.45113 17.2239 8.54228 17.1516 8.61519 17.0617C10.1521 15.1651 14.1338 9.90581 14.1432 6.32385C14.1494 2.83086 11.392 0 8.00049 0Z" fill="#97A8B9"/>
<path d="M7.99981 5.31044C8.17305 5.31044 8.3424 5.36333 8.48644 5.46242C8.63048 5.56152 8.74275 5.70236 8.80905 5.86714C8.87534 6.03192 8.89269 6.21325 8.85889 6.38818C8.82509 6.56311 8.74167 6.7238 8.61917 6.84992C8.49667 6.97604 8.3406 7.06193 8.17069 7.09672C8.00078 7.13152 7.82466 7.11366 7.66461 7.04541C7.50456 6.97715 7.36776 6.86156 7.27151 6.71326C7.17527 6.56496 7.1239 6.39061 7.1239 6.21225C7.1241 5.97314 7.21645 5.74389 7.38067 5.57481C7.54489 5.40573 7.76757 5.31066 7.99981 5.31044ZM7.99981 3.50684C7.48009 3.50684 6.97205 3.66551 6.53992 3.96278C6.10779 4.26005 5.77098 4.68258 5.5721 5.17693C5.37321 5.67128 5.32117 6.21525 5.42256 6.74005C5.52395 7.26484 5.77422 7.7469 6.14172 8.12526C6.50921 8.50362 6.97743 8.76129 7.48716 8.86567C7.99689 8.97006 8.52524 8.91649 9.0054 8.71172C9.48556 8.50695 9.89595 8.1602 10.1847 7.71529C10.4734 7.27039 10.6275 6.74733 10.6275 6.21225C10.6275 5.49473 10.3507 4.8066 9.8579 4.29923C9.3651 3.79187 8.69673 3.50684 7.99981 3.50684Z" fill="#97A8B9"/>
<path d="M15.1436 14.6084C14.704 14.2076 14.0983 13.8573 13.3435 13.5663H13.3388C13.2104 13.5176 13.0696 13.5157 12.9401 13.5611C12.8105 13.6065 12.7 13.6963 12.6272 13.8156C12.5265 13.9786 12.4251 14.1404 12.3231 14.301C12.2737 14.3786 12.242 14.4667 12.2304 14.5587C12.2188 14.6506 12.2276 14.7442 12.2561 14.8322C12.2846 14.9202 12.3321 15.0004 12.395 15.0668C12.4579 15.1332 12.5346 15.1841 12.6194 15.2156C12.6564 15.2292 12.6929 15.2433 12.7291 15.2557C13.8351 15.6817 14.2474 16.1543 14.2474 16.3523C14.2474 16.5503 13.8355 17.0228 12.7291 17.4489C11.4795 17.9298 9.79932 18.196 7.99883 18.196C6.19835 18.196 4.51932 17.9306 3.27007 17.4489C2.1637 17.0228 1.75182 16.5503 1.75182 16.3523C1.75182 16.1543 2.1637 15.6817 3.27007 15.2557C3.309 15.2409 3.34793 15.226 3.38686 15.2116C3.4725 15.1808 3.55022 15.1304 3.61411 15.0641C3.678 14.9978 3.72639 14.9174 3.75561 14.829C3.78484 14.7405 3.79413 14.6464 3.78278 14.5538C3.77144 14.4611 3.73975 14.3723 3.69012 14.2942C3.58631 14.1338 3.48406 13.9718 3.38336 13.808C3.31019 13.6893 3.19974 13.6 3.07041 13.5549C2.94107 13.5099 2.80065 13.5118 2.67251 13.5603L2.65616 13.5663C1.90131 13.8573 1.29557 14.2076 0.856058 14.6084C0.148321 15.2525 0 15.9114 0 16.3523C0 16.7932 0.148321 17.4521 0.856448 18.0962C1.29596 18.497 1.9017 18.8473 2.65654 19.1383C4.09693 19.6938 5.99513 19.9996 8 19.9996C10.0049 19.9996 11.9031 19.6938 13.3446 19.1383C14.0995 18.8473 14.7052 18.497 15.1447 18.0962C15.8517 17.4521 16 16.7932 16 16.3523C16 15.9114 15.8517 15.2525 15.1436 14.6084Z" fill="#97A8B9"/>
</svg>
