<svg width="18" height="18" viewBox="0 0 18 18" fill="none" xmlns="http://www.w3.org/2000/svg">
<path d="M13.4162 3.18282C13.7877 3.18322 14.1438 3.33095 14.4064 3.5936C14.6691 3.85625 14.8168 4.21237 14.8172 4.58382V14.8168H3.18623V4.58382C3.18663 4.21237 3.33436 3.85625 3.59701 3.5936C3.85966 3.33095 4.21578 3.18322 4.58723 3.18282H13.4162ZM13.4162 2.13282H4.58723C3.93731 2.13322 3.31412 2.39157 2.85455 2.85114C2.39499 3.31071 2.13663 3.9339 2.13623 4.58382V14.9743C2.13623 15.213 2.23105 15.4419 2.39983 15.6107C2.48341 15.6943 2.58262 15.7606 2.69182 15.8058C2.80101 15.851 2.91804 15.8743 3.03623 15.8743H14.9747C15.2134 15.8743 15.4423 15.7795 15.6111 15.6107C15.7799 15.4419 15.8747 15.213 15.8747 14.9743V4.58382C15.8745 4.26137 15.8108 3.94213 15.687 3.64436C15.5633 3.34659 15.3821 3.07614 15.1538 2.84849C14.9254 2.62083 14.6544 2.44044 14.3563 2.31764C14.0581 2.19483 13.7387 2.13203 13.4162 2.13282Z" fill="white"/>
<path fill-rule="evenodd" clip-rule="evenodd" d="M15.5683 6.61543H2.52734V5.56543H15.5683V6.61543Z" fill="white"/>
<path fill-rule="evenodd" clip-rule="evenodd" d="M15.5683 9.77559H2.52734V8.72559H15.5683V9.77559Z" fill="white"/>
<path fill-rule="evenodd" clip-rule="evenodd" d="M15.5683 12.9357H2.52734V11.8857H15.5683V12.9357Z" fill="white"/>
<path fill-rule="evenodd" clip-rule="evenodd" d="M9.5251 5.56543V15.7804H8.4751V5.56543H9.5251Z" fill="white"/>
</svg>
