<svg width="37" height="37" viewBox="0 0 37 37" fill="none" xmlns="http://www.w3.org/2000/svg">
<path fill-rule="evenodd" clip-rule="evenodd" d="M13.875 11.254C13.875 10.658 14.3172 10.1748 14.8626 10.1748H29.8457C30.3912 10.1748 30.8333 10.658 30.8333 11.254C30.8333 11.85 30.3912 12.3331 29.8457 12.3331H14.8626C14.3172 12.3331 13.875 11.85 13.875 11.254Z" fill="currentColor"/>
<path fill-rule="evenodd" clip-rule="evenodd" d="M6.16699 11.254C6.16699 10.658 6.61339 10.1748 7.16405 10.1748H10.4116C10.9623 10.1748 11.4087 10.658 11.4087 11.254C11.4087 11.85 10.9623 12.3331 10.4116 12.3331H7.16405C6.61339 12.3331 6.16699 11.85 6.16699 11.254Z" fill="currentColor"/>
<path fill-rule="evenodd" clip-rule="evenodd" d="M26.5166 18.5002C26.5166 17.9893 26.9637 17.5752 27.5152 17.5752H29.8347C30.3862 17.5752 30.8333 17.9893 30.8333 18.5002C30.8333 19.0111 30.3862 19.4252 29.8347 19.4252H27.5152C26.9637 19.4252 26.5166 19.0111 26.5166 18.5002Z" fill="currentColor"/>
<path fill-rule="evenodd" clip-rule="evenodd" d="M6.16699 18.5002C6.16699 17.9893 6.607 17.5752 7.14978 17.5752H22.7592C23.302 17.5752 23.742 17.9893 23.742 18.5002C23.742 19.0111 23.302 19.4252 22.7592 19.4252H7.14978C6.607 19.4252 6.16699 19.0111 6.16699 18.5002Z" fill="currentColor"/>
<path fill-rule="evenodd" clip-rule="evenodd" d="M18.1914 25.7462C18.1914 25.1502 18.637 24.667 19.1866 24.667H29.8379C30.3875 24.667 30.8331 25.1502 30.8331 25.7462C30.8331 26.3422 30.3875 26.8253 29.8379 26.8253H19.1866C18.637 26.8253 18.1914 26.3422 18.1914 25.7462Z" fill="currentColor"/>
<path fill-rule="evenodd" clip-rule="evenodd" d="M6.16699 25.7462C6.16699 25.1502 6.61121 24.667 7.15918 24.667H14.4248C14.9728 24.667 15.417 25.1502 15.417 25.7462C15.417 26.3422 14.9728 26.8253 14.4248 26.8253H7.15918C6.61121 26.8253 6.16699 26.3422 6.16699 25.7462Z" fill="currentColor"/>
<path fill-rule="evenodd" clip-rule="evenodd" d="M9.55859 9.03195C9.55859 8.47119 9.99153 8.0166 10.5256 8.0166H14.7583C15.2923 8.0166 15.7253 8.47119 15.7253 9.03195V13.4763C15.7253 14.037 15.2923 14.4916 14.7583 14.4916H10.5256C9.99153 14.4916 9.55859 14.037 9.55859 13.4763V9.03195ZM11.4926 10.0473V12.4609H13.7913V10.0473H11.4926Z" fill="currentColor"/>
<path fill-rule="evenodd" clip-rule="evenodd" d="M21.8916 16.384C21.8916 15.8499 22.3462 15.417 22.9069 15.417H27.3513C27.912 15.417 28.3666 15.8499 28.3666 16.384V20.6167C28.3666 21.1507 27.912 21.5837 27.3513 21.5837H22.9069C22.3462 21.5837 21.8916 21.1507 21.8916 20.6167V16.384ZM23.9223 17.351V19.6497H26.3359V17.351H23.9223Z" fill="currentColor"/>
<path fill-rule="evenodd" clip-rule="evenodd" d="M13.875 23.5241C13.875 22.9634 14.3079 22.5088 14.842 22.5088H19.0747C19.6087 22.5088 20.0417 22.9634 20.0417 23.5241V27.9684C20.0417 28.5292 19.6087 28.9838 19.0747 28.9838H14.842C14.3079 28.9838 13.875 28.5292 13.875 27.9684V23.5241ZM15.809 24.5395V26.9531H18.1077V24.5395H15.809Z" fill="currentColor"/>
</svg>
