<svg width="18" height="18" viewBox="0 0 18 18" fill="none" xmlns="http://www.w3.org/2000/svg">
<path fill-rule="evenodd" clip-rule="evenodd" d="M2.71338 2.64316C2.71338 2.35321 2.94843 2.11816 3.23838 2.11816H14.7614C15.0513 2.11816 15.2864 2.35321 15.2864 2.64316C15.2864 2.93311 15.0513 3.16816 14.7614 3.16816H3.23838C2.94843 3.16816 2.71338 2.93311 2.71338 2.64316Z" fill="white"/>
<path fill-rule="evenodd" clip-rule="evenodd" d="M9.0001 4.31445C9.29005 4.31445 9.5251 4.5495 9.5251 4.83945V15.32C9.5251 15.6099 9.29005 15.845 9.0001 15.845C8.71015 15.845 8.4751 15.6099 8.4751 15.32V4.83945C8.4751 4.5495 8.71015 4.31445 9.0001 4.31445Z" fill="white"/>
<path fill-rule="evenodd" clip-rule="evenodd" d="M9.00004 3.92285C9.16649 3.92285 9.32309 4.00179 9.42209 4.13561L12.6681 8.52311C12.8405 8.7562 12.7914 9.08496 12.5583 9.2574C12.3252 9.42985 11.9964 9.38069 11.824 9.1476L9.00004 5.33057L6.17609 9.1476C6.00364 9.38069 5.67488 9.42985 5.44179 9.2574C5.2087 9.08496 5.15954 8.7562 5.33199 8.52311L8.57799 4.13561C8.67699 4.00179 8.83358 3.92285 9.00004 3.92285Z" fill="white"/>
</svg>
