<svg width="120" height="120" viewBox="0 0 120 120" fill="none" xmlns="http://www.w3.org/2000/svg">
<path fill-rule="evenodd" clip-rule="evenodd" d="M81.4511 53.3832C82.946 52.1577 85.1513 52.3761 86.3768 53.871L94.9377 64.3141L105.391 55.7434C106.886 54.5178 109.091 54.736 110.317 56.2308C111.542 57.7256 111.324 59.9309 109.829 61.1565L96.6692 71.9465C95.9513 72.5351 95.029 72.8144 94.1052 72.7229C93.1814 72.6315 92.3318 72.1768 91.7433 71.4589L80.9633 58.3089C79.7378 56.814 79.9562 54.6087 81.4511 53.3832Z" fill="currentColor"/>
<path fill-rule="evenodd" clip-rule="evenodd" d="M25.736 47.3035C26.661 47.3847 27.5158 47.8302 28.1122 48.5419L39.0322 61.5719C40.2739 63.0534 40.0794 65.261 38.5979 66.5026C37.1163 67.7442 34.9088 67.5497 33.6672 66.0682L24.9965 55.7221L14.6393 64.4114C13.1584 65.6538 10.9508 65.4604 9.70839 63.9796C8.466 62.4987 8.65933 60.2911 10.1402 59.0487L23.1802 48.1087C23.8916 47.5119 24.811 47.2222 25.736 47.3035Z" fill="currentColor"/>
<path fill-rule="evenodd" clip-rule="evenodd" d="M74.5299 31.4161C68.1239 28.1325 60.8003 27.0967 53.735 28.475C46.6696 29.8533 40.2723 33.5657 35.5701 39.0162C34.3074 40.4799 32.0973 40.6428 30.6337 39.3801C29.1701 38.1174 29.0072 35.9074 30.2699 34.4437C35.9971 27.805 43.7891 23.2832 52.3947 21.6045C61.0003 19.9257 69.9204 21.1874 77.723 25.1868C85.5255 29.1862 91.7578 35.6915 95.4193 43.6582C99.0809 51.6249 99.9592 60.5909 97.9134 69.1167C97.4623 70.9963 95.573 72.1544 93.6933 71.7034C91.8137 71.2523 90.6556 69.363 91.1066 67.4833C92.7863 60.4835 92.0651 53.1222 89.0589 46.5815C86.0528 40.0407 80.9359 34.6997 74.5299 31.4161Z" fill="currentColor"/>
<path fill-rule="evenodd" clip-rule="evenodd" d="M26.0565 48.2966C27.9361 48.7477 29.0943 50.6371 28.6432 52.5167C26.9635 59.5165 27.6847 66.8778 30.6909 73.4186C33.6971 79.9593 38.8139 85.3003 45.2199 88.5839C51.6259 91.8675 58.9495 92.9033 66.0149 91.525C73.0802 90.1468 79.4775 86.4343 84.1797 80.9838C85.4424 79.5202 87.6525 79.3572 89.1161 80.6199C90.5797 81.8826 90.7426 84.0926 89.4799 85.5563C83.7527 92.195 75.9608 96.7168 67.3551 98.3955C58.7495 100.074 49.8294 98.8127 42.0269 94.8132C34.2243 90.8138 27.992 84.3085 24.3305 76.3418C20.669 68.3751 19.7906 59.4092 21.8364 50.8833C22.2875 49.0037 24.1769 47.8456 26.0565 48.2966Z" fill="currentColor"/>
</svg>
