<svg width="20" height="20" viewBox="0 0 20 20" fill="none" xmlns="http://www.w3.org/2000/svg">
<path d="M16.9898 4.45182C17.0932 4.45182 17.1924 4.49291 17.2656 4.56605C17.3387 4.63919 17.3798 4.73839 17.3798 4.84182V15.1668C17.3798 15.2703 17.3387 15.3695 17.2656 15.4426C17.1924 15.5157 17.0932 15.5568 16.9898 15.5568H3.00979C2.90636 15.5568 2.80716 15.5157 2.73402 15.4426C2.66088 15.3695 2.61979 15.2703 2.61979 15.1668V4.84182C2.61979 4.79061 2.62988 4.73989 2.64948 4.69258C2.66908 4.64526 2.69781 4.60227 2.73402 4.56605C2.77023 4.52984 2.81323 4.50111 2.86055 4.48151C2.90786 4.46191 2.95858 4.45182 3.00979 4.45182H16.9898ZM16.9898 3.28516H3.00979C2.59694 3.28516 2.20099 3.44916 1.90906 3.74109C1.61713 4.03303 1.45313 4.42897 1.45312 4.84182V15.1668C1.45313 15.5797 1.61713 15.9756 1.90906 16.2676C2.20099 16.5595 2.59694 16.7235 3.00979 16.7235H16.9898C17.4026 16.7235 17.7986 16.5595 18.0905 16.2676C18.3825 15.9756 18.5465 15.5797 18.5465 15.1668V4.84182C18.5465 4.42897 18.3825 4.03303 18.0905 3.74109C17.7986 3.44916 17.4026 3.28516 16.9898 3.28516Z" fill="#59C2E7"/>
<path fill-rule="evenodd" clip-rule="evenodd" d="M8.98623 11.426L1.6748 4.18127L2.49598 3.35254L9.80789 10.5978C9.85908 10.6486 9.92828 10.6771 10.0004 10.6771C10.0725 10.6771 10.1417 10.6486 10.1929 10.5978L17.5048 3.35254L18.326 4.18127L11.0146 11.426C11.0145 11.4261 11.0144 11.4262 11.0143 11.4263C10.7446 11.6937 10.3802 11.8437 10.0004 11.8437C9.62058 11.8437 9.25616 11.6937 8.98647 11.4263C8.98639 11.4262 8.98631 11.4261 8.98623 11.426Z" fill="#59C2E7"/>
</svg>
