<svg width="42" height="42" viewBox="0 0 42 42" fill="none" xmlns="http://www.w3.org/2000/svg">
<g clip-path="url(#clip0_2465_20078)">
<rect x="2" y="2" width="38" height="39" rx="5" fill="#59C2E7"/>
<path d="M32.1266 2.86661C33.9839 2.86986 35.7642 3.60912 37.0775 4.92245C38.3909 6.23579 39.1301 8.01611 39.1334 9.87344V32.1266C39.1301 33.9839 38.3909 35.7642 37.0775 37.0775C35.7642 38.3909 33.9839 39.1301 32.1266 39.1334H9.87344C8.01611 39.1301 6.23579 38.3909 4.92245 37.0775C3.60912 35.7642 2.86986 33.9839 2.86661 32.1266V9.87344C2.86986 8.01611 3.60912 6.23579 4.92245 4.92245C6.23579 3.60912 8.01611 2.86986 9.87344 2.86661H32.1266ZM32.1266 0H9.87344C7.25517 0.00108529 4.74446 1.04167 2.89306 2.89306C1.04167 4.74446 0.00108529 7.25517 0 9.87344V32.1266C0.00108529 34.7448 1.04167 37.2555 2.89306 39.1069C4.74446 40.9583 7.25517 41.9989 9.87344 42H32.1266C34.7448 41.9989 37.2555 40.9583 39.1069 39.1069C40.9583 37.2555 41.9989 34.7448 42 32.1266V9.87344C41.9989 7.25517 40.9583 4.74446 39.1069 2.89306C37.2555 1.04167 34.7448 0.00108529 32.1266 0Z" fill="#59C2E7"/>
<path fill-rule="evenodd" clip-rule="evenodd" d="M17.4882 11.4882C18.139 10.8373 19.1943 10.8373 19.8452 11.4882L28.1785 19.8215C28.8293 20.4722 28.8294 21.5272 28.1788 22.1782L19.8503 30.5115C19.1996 31.1626 18.1443 31.1629 17.4933 30.5122C16.8422 29.8615 16.8419 28.8062 17.4926 28.1552L24.6433 21.0003L17.4882 13.8452C16.8373 13.1943 16.8373 12.139 17.4882 11.4882Z" fill="white"/>
</g>
<defs>
<clipPath id="clip0_2465_20078">
<rect width="42" height="42" fill="white"/>
</clipPath>
</defs>
</svg>
