<svg width="20" height="20" viewBox="0 0 20 20" fill="none" xmlns="http://www.w3.org/2000/svg">
<path fill-rule="evenodd" clip-rule="evenodd" d="M13.5728 2.60445C13.5381 2.59037 13.501 2.58331 13.4635 2.58367L13.4607 2.5837H3.57793C3.50278 2.5837 3.43072 2.61355 3.37758 2.66669C3.32445 2.71982 3.2946 2.79189 3.2946 2.86703V17.0704C3.2946 17.1455 3.32445 17.2176 3.37758 17.2707C3.43072 17.3238 3.50279 17.3537 3.57793 17.3537H13.4663C13.5414 17.3537 13.6135 17.3238 13.6666 17.2707C13.7197 17.2176 13.7496 17.1455 13.7496 17.0704V10.8837H14.9163V17.0704C14.9163 17.4549 14.7635 17.8237 14.4916 18.0957C14.2196 18.3676 13.8508 18.5204 13.4663 18.5204H3.57793C3.19336 18.5204 2.82455 18.3676 2.55262 18.0957C2.2807 17.8237 2.12793 17.4549 2.12793 17.0704V2.86703C2.12793 2.48247 2.2807 2.11366 2.55262 1.84173C2.82455 1.5698 3.19337 1.41703 3.57793 1.41703H13.4555C13.646 1.41562 13.8349 1.45176 14.0115 1.52341C14.189 1.59545 14.3505 1.70196 14.4867 1.83679C14.6228 1.97162 14.7308 2.13209 14.8046 2.30893C14.8783 2.48576 14.9163 2.67545 14.9163 2.86703C14.9163 2.86704 14.9163 2.86702 14.9163 2.86703V7.20037H13.7496V2.86703C13.7496 2.82959 13.7422 2.79249 13.7278 2.75795C13.7134 2.7234 13.6923 2.69204 13.6656 2.66569C13.639 2.63934 13.6075 2.61853 13.5728 2.60445Z" fill="currentColor"/>
<path fill-rule="evenodd" clip-rule="evenodd" d="M16.2359 6.11969C16.1569 6.09943 16.0747 6.09496 15.994 6.10653C15.9133 6.11809 15.8356 6.14547 15.7655 6.18709C15.6953 6.22872 15.6341 6.28376 15.5853 6.34909L12.3261 10.6996L12.1128 12.0234L13.3221 11.4454L16.5809 7.09551C16.5809 7.09548 16.5809 7.09553 16.5809 7.09551C16.6298 7.03015 16.6653 6.95573 16.6855 6.87665C16.7056 6.79754 16.71 6.71523 16.6983 6.63443C16.6867 6.55362 16.6592 6.47591 16.6175 6.40572C16.5758 6.33553 16.5207 6.27424 16.4554 6.22535L16.4543 6.22457C16.3891 6.17559 16.3149 6.13995 16.2359 6.11969ZM15.8285 4.95166C16.0611 4.91832 16.2981 4.93121 16.5257 4.98958C16.7531 5.0479 16.9668 5.15045 17.1545 5.29139C17.3424 5.43198 17.5008 5.60817 17.6206 5.80992C17.7405 6.01184 17.8195 6.2354 17.8531 6.46784C17.8866 6.70028 17.874 6.93705 17.816 7.16463C17.7581 7.39221 17.6558 7.60614 17.5152 7.79422L14.1699 12.2596C14.1134 12.335 14.0396 12.3956 13.9546 12.4362L11.6113 13.5562C11.4155 13.6497 11.184 13.6269 11.0102 13.4969C10.8365 13.3669 10.7493 13.1513 10.7838 12.9371L11.1971 10.3721C11.2122 10.2788 11.2496 10.1907 11.3062 10.1151L14.6508 5.65064C14.6508 5.65058 14.6509 5.65053 14.6509 5.65048C14.7916 5.46231 14.968 5.30373 15.17 5.18383C15.3721 5.06388 15.5959 4.98499 15.8285 4.95166Z" fill="currentColor"/>
<path fill-rule="evenodd" clip-rule="evenodd" d="M4.29004 4.8929C4.29004 4.57074 4.55121 4.30957 4.87337 4.30957H11.4967C11.8189 4.30957 12.08 4.57074 12.08 4.8929C12.08 5.21507 11.8189 5.47624 11.4967 5.47624H4.87337C4.55121 5.47624 4.29004 5.21507 4.29004 4.8929Z" fill="currentColor"/>
<path fill-rule="evenodd" clip-rule="evenodd" d="M4.29004 8.25521C4.29004 7.93304 4.55121 7.67188 4.87337 7.67188H8.13004C8.45221 7.67188 8.71337 7.93304 8.71337 8.25521C8.71337 8.57737 8.45221 8.83854 8.13004 8.83854H4.87337C4.55121 8.83854 4.29004 8.57737 4.29004 8.25521Z" fill="currentColor"/>
<path fill-rule="evenodd" clip-rule="evenodd" d="M4.29004 15.1995C4.29004 14.8774 4.55121 14.6162 4.87337 14.6162H11.4967C11.8189 14.6162 12.08 14.8774 12.08 15.1995C12.08 15.5217 11.8189 15.7829 11.4967 15.7829H4.87337C4.55121 15.7829 4.29004 15.5217 4.29004 15.1995Z" fill="currentColor"/>
<path fill-rule="evenodd" clip-rule="evenodd" d="M4.29004 11.8382C4.29004 11.516 4.55121 11.2549 4.87337 11.2549H8.13004C8.45221 11.2549 8.71337 11.516 8.71337 11.8382C8.71337 12.1604 8.45221 12.4215 8.13004 12.4215H4.87337C4.55121 12.4215 4.29004 12.1604 4.29004 11.8382Z" fill="currentColor"/>
</svg>
