<svg width="42" height="42" viewBox="0 0 42 42" fill="none" xmlns="http://www.w3.org/2000/svg">
<g clip-path="url(#clip0_2465_20072)">
<rect x="40" y="40" width="38" height="39" rx="5" transform="rotate(-180 40 40)" fill="#59C2E7"/>
<path d="M9.87344 39.1334C8.01611 39.1301 6.23579 38.3909 4.92245 37.0775C3.60912 35.7642 2.86986 33.9839 2.86662 32.1266L2.86662 9.87344C2.86987 8.01611 3.60913 6.23578 4.92246 4.92245C6.23579 3.60912 8.01612 2.86986 9.87344 2.86661L32.1266 2.86661C33.9839 2.86986 35.7642 3.60912 37.0775 4.92245C38.3909 6.23579 39.1301 8.01611 39.1334 9.87344L39.1334 32.1266C39.1301 33.9839 38.3909 35.7642 37.0775 37.0775C35.7642 38.3909 33.9839 39.1301 32.1266 39.1334L9.87344 39.1334ZM9.87344 42L32.1266 42C34.7448 41.9989 37.2555 40.9583 39.1069 39.1069C40.9583 37.2555 41.9989 34.7448 42 32.1266L42 9.87344C41.9989 7.25517 40.9583 4.74446 39.1069 2.89306C37.2555 1.04167 34.7448 0.00108427 32.1266 -1.2462e-06L9.87344 -3.19162e-06C7.25518 0.00108187 4.74446 1.04166 2.89307 2.89306C1.04167 4.74445 0.00108795 7.25517 2.42556e-06 9.87344L4.80132e-07 32.1266C0.00108554 34.7448 1.04167 37.2555 2.89306 39.1069C4.74446 40.9583 7.25517 41.9989 9.87344 42Z" fill="#59C2E7"/>
<path fill-rule="evenodd" clip-rule="evenodd" d="M24.5118 30.5118C23.861 31.1627 22.8057 31.1627 22.1548 30.5118L13.8215 22.1785C13.1707 21.5278 13.1706 20.4728 13.8212 19.8218L22.1497 11.4885C22.8004 10.8374 23.8557 10.8371 24.5067 11.4878C25.1578 12.1385 25.1581 13.1938 24.5074 13.8448L17.3567 20.9997L24.5118 28.1548C25.1627 28.8057 25.1627 29.861 24.5118 30.5118Z" fill="white"/>
</g>
<defs>
<clipPath id="clip0_2465_20072">
<rect width="42" height="42" fill="white" transform="translate(42 42) rotate(-180)"/>
</clipPath>
</defs>
</svg>
