<svg width="21" height="21" viewBox="0 0 21 21" fill="none" xmlns="http://www.w3.org/2000/svg">
<path d="M9.44985 5.16992C10.2914 5.16923 11.1143 5.41815 11.8143 5.88519C12.5144 6.35223 13.0602 7.01641 13.3828 7.79371C13.7053 8.57102 13.79 9.42651 13.6263 10.252C13.4625 11.0775 13.0576 11.8358 12.4628 12.4311C11.868 13.0265 11.1099 13.432 10.2846 13.5964C9.45926 13.7609 8.6037 13.6768 7.82613 13.3549C7.04856 13.033 6.38393 12.4878 5.91631 11.7881C5.4487 11.0884 5.1991 10.2657 5.1991 9.42417C5.20003 8.29676 5.64806 7.21575 6.44493 6.41822C7.2418 5.6207 8.32244 5.17178 9.44985 5.16992ZM9.44985 3.41992C8.26225 3.41958 7.10122 3.77142 6.11359 4.43097C5.12597 5.09051 4.35612 6.02813 3.9014 7.12523C3.44668 8.22233 3.32753 9.42964 3.55901 10.5945C3.79048 11.7593 4.3622 12.8293 5.20184 13.6692C6.04148 14.5091 7.11133 15.0811 8.27609 15.3129C9.44084 15.5447 10.6482 15.4259 11.7454 14.9715C12.8427 14.5171 13.7805 13.7476 14.4403 12.7601C15.1002 11.7727 15.4524 10.6118 15.4524 9.42417C15.4524 7.83205 14.82 6.30511 13.6944 5.17914C12.5687 4.05318 11.042 3.42039 9.44985 3.41992Z" fill="#C2CCD6"/>
<path fill-rule="evenodd" clip-rule="evenodd" d="M12.8408 12.811C13.1825 12.4693 13.7365 12.4693 14.0782 12.811L17.3472 16.08C17.6889 16.4217 17.6889 16.9757 17.3472 17.3174C17.0055 17.6591 16.4515 17.6591 16.1098 17.3174L12.8408 14.0484C12.499 13.7067 12.499 13.1527 12.8408 12.811Z" fill="#C2CCD6"/>
</svg>
