<svg width="40" height="40" viewBox="0 0 40 40" fill="none" xmlns="http://www.w3.org/2000/svg">
<path d="M15.4199 5.25033C16.2019 5.25033 16.9664 5.48227 17.6166 5.91682C18.2668 6.35136 18.7735 6.96898 19.0726 7.69155C19.3717 8.41413 19.4498 9.20918 19.297 9.97614C19.1442 10.7431 18.7674 11.4475 18.2141 12.0003C17.6609 12.553 16.9562 12.9293 16.1891 13.0814C15.422 13.2336 14.627 13.1548 13.9047 12.8551C13.1824 12.5554 12.5652 12.0481 12.1312 11.3976C11.6972 10.747 11.4659 9.98236 11.4666 9.20033C11.4683 8.15269 11.8855 7.14851 12.6266 6.40803C13.3677 5.66754 14.3722 5.25121 15.4199 5.25033ZM15.4199 2.91699C14.1762 2.91633 12.9603 3.28456 11.9259 3.9751C10.8916 4.66563 10.0853 5.64744 9.60907 6.79632C9.13283 7.94519 9.00805 9.2095 9.25052 10.4293C9.49299 11.6491 10.0918 12.7696 10.9712 13.649C11.8506 14.5284 12.9711 15.1272 14.1909 15.3697C15.4107 15.6122 16.675 15.4874 17.8239 15.0111C18.9728 14.5349 19.9546 13.7286 20.6451 12.6943C21.3356 11.6599 21.7039 10.444 21.7032 9.20033C21.7032 7.53388 21.0412 5.93569 19.8629 4.75734C18.6845 3.57899 17.0863 2.91699 15.4199 2.91699Z" fill="#59C2E7"/>
<path d="M23.7669 34.5969V34.7502H7.07357V27.3335C7.07357 23.1802 10.4336 19.2635 14.5669 18.8535C15.824 18.7303 17.0926 18.8944 18.2769 19.3335C18.4823 19.4099 18.7049 19.4277 18.9198 19.3847C19.1347 19.3417 19.3334 19.2397 19.4936 19.0902C19.6368 18.9546 19.7435 18.785 19.8036 18.5971C19.8637 18.4092 19.8753 18.2092 19.8374 18.0156C19.7995 17.8221 19.7132 17.6412 19.5867 17.4899C19.4601 17.3386 19.2974 17.2217 19.1136 17.1502C17.4992 16.5568 15.7655 16.3619 14.0597 16.582C12.3539 16.802 10.7264 17.4305 9.31543 18.4141C7.90449 19.3977 6.7518 20.7073 5.95528 22.2317C5.15876 23.7561 4.74194 25.4502 4.74023 27.1702V35.1402C4.74022 35.6527 4.94267 36.1445 5.30352 36.5085C5.66437 36.8724 6.15439 37.0791 6.6669 37.0835H24.1602C24.6751 37.0826 25.1685 36.8775 25.5322 36.5132C25.8959 36.1488 26.1002 35.655 26.1002 35.1402V34.5969C26.1002 34.2874 25.9773 33.9907 25.7585 33.7719C25.5397 33.5531 25.243 33.4302 24.9336 33.4302C24.6241 33.4302 24.3274 33.5531 24.1086 33.7719C23.8898 33.9907 23.7669 34.2874 23.7669 34.5969Z" fill="#59C2E7"/>
<path fill-rule="evenodd" clip-rule="evenodd" d="M20.3604 24.1696C20.3604 23.5253 20.8827 23.0029 21.527 23.0029H34.057C34.7013 23.0029 35.2237 23.5253 35.2237 24.1696C35.2237 24.8139 34.7013 25.3363 34.057 25.3363H21.527C20.8827 25.3363 20.3604 24.8139 20.3604 24.1696Z" fill="#59C2E7"/>
<path fill-rule="evenodd" clip-rule="evenodd" d="M26.1106 17.6379C26.5537 18.1057 26.5336 18.8441 26.0658 19.2872L20.9102 24.1701L26.0658 29.0531C26.5336 29.4961 26.5537 30.2345 26.1106 30.7024C25.6675 31.1702 24.9291 31.1902 24.4613 30.7472L18.4113 25.0172C18.1787 24.7968 18.0469 24.4905 18.0469 24.1701C18.0469 23.8497 18.1787 23.5434 18.4113 23.3231L24.4613 17.5931C24.9291 17.15 25.6675 17.17 26.1106 17.6379Z" fill="#59C2E7"/>
</svg>
