<svg width="120" height="120" viewBox="0 0 120 120" fill="none" xmlns="http://www.w3.org/2000/svg">
<path d="M102.17 75.0596H64.5801" stroke="currentColor" stroke-width="7" stroke-miterlimit="10" stroke-linecap="round"/>
<path d="M75.7901 92.2501L57.6401 75.0601L75.7901 57.8701" stroke="currentColor" stroke-width="7" stroke-linecap="round" stroke-linejoin="round"/>
<path d="M91.19 101.82C91.19 103.366 90.5757 104.849 89.4824 105.942C88.3891 107.036 86.9062 107.65 85.36 107.65H23.56C22.0138 107.65 20.5309 107.036 19.4375 105.942C18.3442 104.849 17.73 103.366 17.73 101.82V88.64C17.73 81.0442 20.7474 73.7595 26.1184 68.3885C31.4895 63.0174 38.7742 60 46.37 60" stroke="currentColor" stroke-width="7" stroke-miterlimit="10" stroke-linecap="round"/>
<path d="M54.4598 15.75C57.3632 15.75 60.2015 16.611 62.6156 18.224C65.0297 19.8371 66.9113 22.1298 68.0223 24.8122C69.1334 27.4946 69.4241 30.4463 68.8577 33.2939C68.2913 36.1416 66.8932 38.7573 64.8401 40.8103C62.7871 42.8634 60.1714 44.2615 57.3237 44.8279C54.4761 45.3944 51.5244 45.1036 48.842 43.9925C46.1596 42.8815 43.8669 40.9999 42.2538 38.5858C40.6408 36.1717 39.7798 33.3334 39.7798 30.43C39.7824 26.5374 41.3299 22.8051 44.0824 20.0526C46.8349 17.3001 50.5672 15.7526 54.4598 15.75ZM54.4598 8.75C50.1719 8.75 45.9803 10.0215 42.415 12.4037C38.8498 14.786 36.071 18.1719 34.4301 22.1334C32.7892 26.0949 32.3598 30.454 33.1964 34.6596C34.0329 38.8651 36.0977 42.7281 39.1297 45.7601C42.1617 48.7921 46.0247 50.8569 50.2302 51.6934C54.4357 52.53 58.7949 52.1006 62.7564 50.4597C66.7179 48.8188 70.1038 46.04 72.4861 42.4748C74.8683 38.9095 76.1398 34.7179 76.1398 30.43C76.1398 24.6801 73.8557 19.1657 69.7899 15.0999C65.7241 11.0341 60.2097 8.75 54.4598 8.75Z" fill="currentColor"/>
</svg>
