<svg width="150" height="150" viewBox="0 0 150 150" fill="none" xmlns="http://www.w3.org/2000/svg">
<path fill-rule="evenodd" clip-rule="evenodd" d="M25.358 35.7825C18.3 35.7825 12.5784 41.5041 12.5784 48.5621V101.432C12.5784 108.49 18.3 114.212 25.358 114.212H124.647C131.705 114.212 137.427 108.49 137.427 101.432V48.5621C137.427 41.5041 131.705 35.7825 124.647 35.7825H25.358ZM0.936523 48.5621C0.936523 35.0745 11.8704 24.1406 25.358 24.1406H124.647C138.135 24.1406 149.069 35.0745 149.069 48.5621V101.432C149.069 114.92 138.135 125.853 124.647 125.853H25.358C11.8704 125.853 0.936523 114.92 0.936523 101.432V48.5621Z" fill="currentColor"/>
<path fill-rule="evenodd" clip-rule="evenodd" d="M75.0001 64.9934C69.4736 64.9934 64.9934 69.4736 64.9934 75.0001C64.9934 80.5267 69.4736 85.0068 75.0001 85.0068C80.5267 85.0068 85.0068 80.5267 85.0068 75.0001C85.0068 69.4736 80.5267 64.9934 75.0001 64.9934ZM53.3516 75.0001C53.3516 63.044 63.044 53.3516 75.0001 53.3516C86.9563 53.3516 96.6487 63.0439 96.6487 75.0001C96.6487 86.9563 86.9563 96.6487 75.0001 96.6487C63.0439 96.6487 53.3516 86.9563 53.3516 75.0001Z" fill="currentColor"/>
<path fill-rule="evenodd" clip-rule="evenodd" d="M80.8264 90.833V120.038H69.1846V90.833H80.8264Z" fill="currentColor"/>
<path fill-rule="evenodd" clip-rule="evenodd" d="M80.8264 29.9619V59.1724H69.1846V29.9619H80.8264Z" fill="currentColor"/>
<path fill-rule="evenodd" clip-rule="evenodd" d="M22.3683 60.5319C18.228 56.3917 12.6126 54.0657 6.75732 54.0657V42.4238C15.7002 42.4238 24.2767 45.9764 30.6003 52.2999C36.9238 58.6235 40.4764 67.2 40.4764 76.1429C40.4764 85.0857 36.9238 93.6623 30.6003 99.9858C24.2767 106.309 15.7002 109.862 6.75732 109.862V98.2201C12.6126 98.2201 18.228 95.8941 22.3683 91.7538C26.5085 87.6135 28.8345 81.9981 28.8345 76.1429C28.8345 70.2876 26.5085 64.6722 22.3683 60.5319Z" fill="currentColor"/>
<path fill-rule="evenodd" clip-rule="evenodd" d="M143.248 54.0657C140.349 54.0657 137.478 54.6367 134.799 55.7462C132.121 56.8557 129.687 58.4819 127.637 60.5319C125.587 62.582 123.961 65.0158 122.851 67.6943C121.742 70.3728 121.171 73.2437 121.171 76.1429C121.171 79.0421 121.742 81.9129 122.851 84.5914C123.961 87.27 125.587 89.7037 127.637 91.7538C129.687 93.8039 132.121 95.43 134.799 96.5395C137.478 97.649 140.349 98.2201 143.248 98.2201V109.862C138.82 109.862 134.435 108.99 130.344 107.295C126.253 105.601 122.536 103.117 119.405 99.9858C116.274 96.8547 113.79 93.1376 112.096 89.0466C110.401 84.9556 109.529 80.5709 109.529 76.1429C109.529 71.7148 110.401 67.3301 112.096 63.2392C113.79 59.1482 116.274 55.431 119.405 52.2999C122.536 49.1688 126.253 46.6851 130.344 44.9905C134.435 43.296 138.82 42.4238 143.248 42.4238V54.0657Z" fill="currentColor"/>
</svg>
