<svg width="150" height="150" viewBox="0 0 150 150" fill="none" xmlns="http://www.w3.org/2000/svg">
<path fill-rule="evenodd" clip-rule="evenodd" d="M142.047 82.5989H6.75244V70.957H142.047V82.5989Z" fill="currentColor"/>
<path fill-rule="evenodd" clip-rule="evenodd" d="M23.1354 37.0215C26.3502 37.0215 28.9563 39.6276 28.9563 42.8424V107.164C28.9563 110.378 26.3502 112.985 23.1354 112.985C19.9206 112.985 17.3145 110.378 17.3145 107.164V42.8424C17.3145 39.6276 19.9206 37.0215 23.1354 37.0215Z" fill="currentColor"/>
<path fill-rule="evenodd" clip-rule="evenodd" d="M6.75208 52.7803C9.96689 52.7803 12.573 55.3864 12.573 58.6012V91.3995C12.573 94.6143 9.96689 97.2204 6.75208 97.2204C3.53727 97.2204 0.931152 94.6143 0.931152 91.3995V58.6012C0.931152 55.3864 3.53727 52.7803 6.75208 52.7803Z" fill="currentColor"/>
<path fill-rule="evenodd" clip-rule="evenodd" d="M126.864 37.0215C130.079 37.0215 132.685 39.6276 132.685 42.8424V107.164C132.685 110.378 130.079 112.985 126.864 112.985C123.65 112.985 121.043 110.378 121.043 107.164V42.8424C121.043 39.6276 123.65 37.0215 126.864 37.0215Z" fill="currentColor"/>
<path fill-rule="evenodd" clip-rule="evenodd" d="M143.248 52.7803C146.462 52.7803 149.069 55.3864 149.069 58.6012V91.3995C149.069 94.6143 146.462 97.2204 143.248 97.2204C140.033 97.2204 137.427 94.6143 137.427 91.3995V58.6012C137.427 55.3864 140.033 52.7803 143.248 52.7803Z" fill="currentColor"/>
</svg>
