<svg width="150" height="150" viewBox="0 0 150 150" fill="none" xmlns="http://www.w3.org/2000/svg">
<path d="M140.104 102.02C138.858 101.203 137.345 100.895 135.879 101.16C134.412 101.425 133.103 102.242 132.221 103.444C131.339 104.645 130.951 106.139 131.138 107.618C131.325 109.097 132.072 110.447 133.225 111.392C134.813 112.556 137.458 115.069 137.458 118.8C137.458 122.108 136.538 125.452 129.833 127.542C124.123 129.32 116.805 129.32 111.465 129.32H91.7536V120.531C97.888 120.376 103.773 118.068 108.377 114.011C112.981 109.954 116.011 104.407 116.936 98.3405C117.862 92.2743 116.624 86.0758 113.439 80.8305C110.254 75.5852 105.326 71.6275 99.5166 69.6504L72.608 59.7971V22.8343C72.6038 19.179 71.1503 15.6747 68.5662 13.0895C65.982 10.5044 62.4782 9.04955 58.823 9.04395H22.9185C19.2678 9.05654 15.7708 10.5145 13.1924 13.0989C10.614 15.6832 9.16408 19.1836 9.15991 22.8343V106.751C9.1641 110.406 10.6176 113.91 13.2018 116.496C15.7859 119.081 19.2897 120.536 22.9449 120.541H33.8671V129.31H6.75745C5.21364 129.31 3.73307 129.923 2.64143 131.015C1.5498 132.106 0.936523 133.587 0.936523 135.131C0.936523 136.674 1.5498 138.155 2.64143 139.247C3.73307 140.338 5.21364 140.951 6.75745 140.951H114.18C114.33 140.959 114.48 140.959 114.63 140.951C120.117 140.899 127.118 140.57 133.246 138.66C143.438 135.485 149.047 128.431 149.047 118.805C149.069 112.334 145.804 106.222 140.104 102.02ZM22.9185 108.899C22.3496 108.898 21.8045 108.671 21.4027 108.268C21.0009 107.865 20.7753 107.32 20.7753 106.751V22.8343C20.7753 22.2654 21.0009 21.7197 21.4027 21.3169C21.8045 20.9142 22.3496 20.6872 22.9185 20.6858H58.823C59.3873 20.6941 59.9256 20.9242 60.3217 21.3262C60.7178 21.7282 60.9398 22.2699 60.9397 22.8343V63.8665C60.9397 64.0006 60.9397 64.1329 60.9397 64.2634C60.9469 64.4266 60.9645 64.5892 60.9926 64.7502C60.9926 64.8825 61.0402 65.0148 61.0667 65.1471V65.2159C61.0974 65.3556 61.1363 65.4934 61.1831 65.6286C61.2725 65.8978 61.3785 66.1612 61.5006 66.4171C61.5641 66.5441 61.6276 66.6711 61.7017 66.7928C61.7758 66.9146 61.8552 67.0468 61.9346 67.1633C62.0139 67.2797 62.1039 67.4014 62.1991 67.5178C62.2944 67.6342 62.3473 67.6977 62.4214 67.7824L62.5114 67.8777C62.6013 67.9729 62.7019 68.0682 62.7971 68.1581L63.0829 68.4015C63.2511 68.5314 63.4279 68.6498 63.612 68.7561C63.6932 68.809 63.7726 68.8566 63.8502 68.899L63.9666 68.9678C64.088 69.0369 64.2135 69.0987 64.3423 69.153C64.4693 69.2112 64.5963 69.2641 64.7339 69.3117L65.0038 69.407L95.5266 80.5831L95.6748 80.6361C98.9349 81.7327 101.699 83.9527 103.473 86.8994C105.248 89.8461 105.917 93.3276 105.361 96.722C104.805 100.116 103.06 103.203 100.439 105.429C97.8172 107.656 94.4894 108.879 91.0498 108.878L22.9185 108.899ZM45.5248 120.541H80.1117V129.31H45.509L45.5248 120.541Z" fill="currentColor"/>
<path d="M61.5587 66.4174C61.4321 66.1634 61.3259 65.8998 61.2412 65.6289C61.3305 65.8981 61.4366 66.1614 61.5587 66.4174Z" fill="currentColor"/>
</svg>
