<svg width="150" height="150" viewBox="0 0 150 150" fill="none" xmlns="http://www.w3.org/2000/svg">
<path fill-rule="evenodd" clip-rule="evenodd" d="M91.3145 97.3522C91.3145 94.1374 93.9206 91.5312 97.1354 91.5312H143.031C146.246 91.5312 148.852 94.1374 148.852 97.3522V143.248C148.852 146.462 146.246 149.068 143.031 149.068H97.1354C93.9206 149.068 91.3145 146.462 91.3145 143.248V97.3522ZM102.956 103.173V137.427H137.21V103.173H102.956Z" fill="currentColor"/>
<path fill-rule="evenodd" clip-rule="evenodd" d="M29.9224 103.173C20.4636 103.173 12.7957 110.841 12.7957 120.3C12.7957 129.759 20.4636 137.427 29.9224 137.427C39.3813 137.427 47.0492 129.759 47.0492 120.3C47.0492 110.841 39.3813 103.173 29.9224 103.173ZM29.9224 91.5312C45.8109 91.5312 58.691 104.411 58.691 120.3C58.691 136.188 45.8109 149.068 29.9224 149.068C14.0339 149.068 1.15381 136.188 1.15381 120.3C1.15381 104.411 14.0339 91.5312 29.9224 91.5312Z" fill="currentColor"/>
<path fill-rule="evenodd" clip-rule="evenodd" d="M75 0.931641C77.0797 0.93155 79.0014 2.04102 80.0413 3.84209L106.484 49.6422C107.524 51.4432 107.524 53.6621 106.484 55.4631C105.444 57.2641 103.523 58.3736 101.443 58.3736H48.5626C46.4831 58.3736 44.5615 57.2642 43.5217 55.4633C42.4818 53.6625 42.4817 51.4436 43.5213 49.6426L69.9589 3.84253C70.9986 2.04137 72.9203 0.931731 75 0.931641ZM75.0007 18.3952L58.6438 46.7317H91.3609L75.0007 18.3952Z" fill="currentColor"/>
<path fill-rule="evenodd" clip-rule="evenodd" d="M46.0705 129.001C47.4478 126.096 50.9192 124.858 53.824 126.236C59.7734 129.056 66.2265 130.66 72.8044 130.953C79.3822 131.246 85.9523 130.221 92.1288 127.94C95.1444 126.826 98.4921 128.368 99.606 131.383C100.72 134.399 99.1782 137.747 96.1626 138.861C88.5314 141.679 80.414 142.945 72.2869 142.583C64.1598 142.222 56.1869 140.24 48.8362 136.755C45.9314 135.377 44.6931 131.906 46.0705 129.001Z" fill="currentColor"/>
<path fill-rule="evenodd" clip-rule="evenodd" d="M83.5533 26.9914C84.3844 23.8859 87.5756 22.0421 90.6811 22.8731C106.173 27.0188 119.409 37.0997 127.522 50.9331C135.636 64.7664 137.974 81.2387 134.03 96.7835C133.24 99.8996 130.073 101.785 126.957 100.994C123.841 100.204 121.956 97.037 122.746 93.9209C125.937 81.3435 124.045 68.0155 117.48 56.8229C110.915 45.6302 100.206 37.4736 87.6716 34.1193C84.5661 33.2882 82.7223 30.097 83.5533 26.9914Z" fill="currentColor"/>
<path fill-rule="evenodd" clip-rule="evenodd" d="M64.9756 27.2444C65.8892 30.3267 64.1312 33.5659 61.0489 34.4795C48.5173 38.194 37.9719 46.7295 31.7278 58.2121C25.4838 69.6947 24.0516 83.1859 27.7455 95.7235C28.6541 98.8072 26.8908 102.044 23.807 102.952C20.7233 103.861 17.4869 102.097 16.5783 99.0137C12.0126 83.5175 13.7829 66.8428 21.5003 52.6506C29.2178 38.4584 42.2517 27.9087 57.7405 23.3177C60.8227 22.4041 64.062 24.1621 64.9756 27.2444Z" fill="currentColor"/>
</svg>
