<svg width="150" height="150" viewBox="0 0 150 150" fill="none" xmlns="http://www.w3.org/2000/svg">
<path d="M98.7438 103.538C97.2 103.538 95.7194 102.924 94.6278 101.833C93.5361 100.741 92.9229 99.2606 92.9229 97.7168V25.8019C92.9229 21.5115 94.6272 17.3969 97.6609 14.3631C100.695 11.3293 104.809 9.625 109.1 9.625C113.39 9.625 117.505 11.3293 120.539 14.3631C123.572 17.3969 125.277 21.5115 125.277 25.8019C125.277 27.3457 124.663 28.8263 123.572 29.9179C122.48 31.0095 121 31.6228 119.456 31.6228C117.912 31.6228 116.431 31.0095 115.34 29.9179C114.248 28.8263 113.635 27.3457 113.635 25.8019C113.635 24.5991 113.157 23.4456 112.306 22.5951C111.456 21.7447 110.302 21.2669 109.1 21.2669C107.897 21.2669 106.743 21.7447 105.893 22.5951C105.042 23.4456 104.565 24.5991 104.565 25.8019V97.7168C104.565 99.2606 103.951 100.741 102.86 101.833C101.768 102.924 100.288 103.538 98.7438 103.538Z" fill="currentColor"/>
<path d="M52.8063 103.538C51.2625 103.538 49.7819 102.924 48.6903 101.833C47.5986 100.741 46.9854 99.2606 46.9854 97.7168V25.8019C46.9854 21.5115 48.6897 17.3969 51.7235 14.3631C54.7572 11.3293 58.8719 9.625 63.1622 9.625C67.4526 9.625 71.5673 11.3293 74.601 14.3631C77.6348 17.3969 79.3391 21.5115 79.3391 25.8019C79.3391 27.3457 78.7259 28.8263 77.6342 29.9179C76.5426 31.0095 75.062 31.6228 73.5182 31.6228C71.9744 31.6228 70.4938 31.0095 69.4022 29.9179C68.3105 28.8263 67.6973 27.3457 67.6973 25.8019C67.6973 24.5991 67.2195 23.4456 66.369 22.5951C65.5185 21.7447 64.365 21.2669 63.1622 21.2669C61.9595 21.2669 60.806 21.7447 59.9555 22.5951C59.105 23.4456 58.6272 24.5991 58.6272 25.8019V97.7168C58.6272 99.2606 58.0139 100.741 56.9223 101.833C55.8307 102.924 54.3501 103.538 52.8063 103.538Z" fill="currentColor"/>
<path d="M143.248 113.561C136.157 113.561 129.743 110.28 123.536 107.105C118.329 104.459 113.408 101.919 109.127 101.919C104.846 101.919 99.9243 104.438 94.7119 107.105C88.51 110.28 82.0911 113.561 75.0001 113.561C67.9092 113.561 61.4956 110.28 55.2884 107.105C50.0813 104.459 45.1652 101.919 40.8789 101.919C36.5926 101.919 31.6766 104.438 26.4589 107.105C20.2517 110.28 13.8328 113.561 6.74183 113.561C5.19802 113.561 3.71744 112.948 2.62581 111.856C1.53417 110.765 0.920898 109.284 0.920898 107.74C0.920898 106.196 1.53417 104.716 2.62581 103.624C3.71744 102.532 5.19802 101.919 6.74183 101.919C11.0281 101.919 15.9495 99.4056 21.1566 96.7386C27.3585 93.5635 33.7774 90.2773 40.8683 90.2773C47.9593 90.2773 54.3729 93.5635 60.5801 96.7386C65.7872 99.3844 70.7085 101.919 74.9896 101.919C79.2706 101.919 84.1919 99.4056 89.399 96.7386C95.6062 93.5635 102.025 90.2773 109.116 90.2773C116.207 90.2773 122.621 93.5635 128.828 96.7386C134.035 99.3844 138.951 101.919 143.237 101.919C144.781 101.919 146.262 102.532 147.353 103.624C148.445 104.716 149.058 106.196 149.058 107.74C149.058 109.284 148.445 110.765 147.353 111.856C146.262 112.948 144.781 113.561 143.237 113.561H143.248Z" fill="currentColor"/>
<path d="M143.248 140.374C136.157 140.374 129.743 137.093 123.536 133.918C118.329 131.272 113.408 128.738 109.127 128.738C104.846 128.738 99.9243 131.235 94.7225 133.918C88.5206 137.093 82.1017 140.374 75.0107 140.374C67.9198 140.374 61.5062 137.093 55.2989 133.918C50.0919 131.272 45.1758 128.738 40.8895 128.738C36.6032 128.738 31.6766 131.235 26.4589 133.918C20.2517 137.093 13.8328 140.374 6.74183 140.374C5.19802 140.374 3.71744 139.761 2.62581 138.669C1.53417 137.578 0.920898 136.097 0.920898 134.553C0.920898 133.009 1.53417 131.529 2.62581 130.437C3.71744 129.346 5.19802 128.732 6.74183 128.732C11.0281 128.732 15.9495 126.219 21.1566 123.552C27.3585 120.377 33.7774 117.096 40.8683 117.096C47.9593 117.096 54.3729 120.377 60.5801 123.552C65.7872 126.198 70.7085 128.732 74.9896 128.732C79.2706 128.732 84.1919 126.219 89.399 123.552C95.6062 120.377 102.025 117.096 109.116 117.096C116.207 117.096 122.621 120.377 128.828 123.552C134.035 126.198 138.951 128.732 143.237 128.732C144.781 128.732 146.262 129.346 147.353 130.437C148.445 131.529 149.058 133.009 149.058 134.553C149.058 136.097 148.445 137.578 147.353 138.669C146.262 139.761 144.781 140.374 143.237 140.374H143.248Z" fill="currentColor"/>
<path d="M98.744 55.4417H52.8063C51.2625 55.4417 49.7819 54.8284 48.6903 53.7367C47.5986 52.6451 46.9854 51.1645 46.9854 49.6207C46.9854 48.0769 47.5986 46.5964 48.6903 45.5047C49.7819 44.4131 51.2625 43.7998 52.8063 43.7998H98.744C100.288 43.7998 101.768 44.4131 102.86 45.5047C103.952 46.5964 104.565 48.0769 104.565 49.6207C104.565 51.1645 103.952 52.6451 102.86 53.7367C101.768 54.8284 100.288 55.4417 98.744 55.4417Z" fill="currentColor"/>
<path d="M98.744 82.0588H52.8063C51.2625 82.0588 49.7819 81.4456 48.6903 80.3539C47.5986 79.2623 46.9854 77.7817 46.9854 76.2379C46.9854 74.6941 47.5986 73.2135 48.6903 72.1219C49.7819 71.0303 51.2625 70.417 52.8063 70.417H98.744C100.288 70.417 101.768 71.0303 102.86 72.1219C103.952 73.2135 104.565 74.6941 104.565 76.2379C104.565 77.7817 103.952 79.2623 102.86 80.3539C101.768 81.4456 100.288 82.0588 98.744 82.0588Z" fill="currentColor"/>
</svg>
