<svg width="150" height="150" viewBox="0 0 150 150" fill="none" xmlns="http://www.w3.org/2000/svg">
<g clip-path="url(#clip0_2079_11849)">
<path fill-rule="evenodd" clip-rule="evenodd" d="M43.0464 9.25499C61.4332 -0.30308 82.8638 -2.16557 102.624 4.07723C122.384 10.32 138.854 24.1568 148.412 42.5435C149.895 45.3959 148.785 48.9103 145.933 50.3931L17.6075 117.101C16.2377 117.813 14.6412 117.952 13.1691 117.487C11.697 117.022 10.47 115.991 9.75792 114.621C0.19985 96.2343 -1.66265 74.8037 4.58016 55.0437C10.823 35.2838 24.6597 18.8131 43.0464 9.25499ZM99.1166 15.1782C82.3008 9.8656 64.0633 11.4506 48.4161 19.5845C32.7689 27.7185 20.9938 41.7351 15.6812 58.5509C10.9562 73.5065 11.6873 89.5866 17.629 103.969L135.172 42.8661C126.814 29.7399 114.072 19.9032 99.1166 15.1782Z" fill="currentColor"/>
<path fill-rule="evenodd" clip-rule="evenodd" d="M73.063 22.2376C83.0027 32.5749 93.7593 48.0104 103.152 66.0697C103.864 67.4395 104.003 69.0362 103.538 70.5085C103.073 71.9808 102.043 73.2081 100.673 73.9203L62.8684 93.5738C61.4985 94.286 59.9019 94.4248 58.4298 93.9597C56.9576 93.4946 55.7305 92.4637 55.0185 91.0938C45.6258 73.0235 39.1708 55.3493 36.4216 41.2749C35.0545 34.2767 34.5353 27.8304 35.2221 22.5365C35.8822 17.4476 37.8896 11.9343 43.048 9.25442C48.2064 6.57458 53.8722 8.10205 58.4159 10.4868C63.1431 12.9677 68.1207 17.0975 73.063 22.2376ZM53.0057 20.7951C49.6509 19.0344 48.477 19.5532 48.4151 19.5853C48.3532 19.6175 47.2543 20.279 46.7672 24.0342C46.3066 27.5845 46.599 32.6518 47.8475 39.043C50.0803 50.474 55.1544 65.0653 62.7252 80.5272L90.0753 66.3085C81.7709 51.237 72.7443 38.7027 64.6712 30.3066C60.1571 25.6119 56.1771 22.4596 53.0057 20.7951Z" fill="currentColor"/>
<path fill-rule="evenodd" clip-rule="evenodd" d="M77.5383 75.6036C80.3907 74.1209 83.9051 75.2312 85.3878 78.0837L116.293 137.539C116.356 137.604 116.462 137.694 116.618 137.767C116.619 137.767 116.621 137.768 116.623 137.769C116.734 137.823 118.122 138.498 121.776 136.597C123.644 135.626 124.429 134.794 124.741 134.361C125.016 133.98 125.026 133.775 125.029 133.709L125.029 133.708C125.035 133.575 125.004 133.41 124.941 133.245C124.925 133.205 124.911 133.175 124.902 133.155C123.235 130.521 123.94 127.019 126.533 125.243C129.186 123.426 132.809 124.104 134.625 126.756L129.823 130.045C134.625 126.756 134.627 126.759 134.63 126.763L134.634 126.769L134.644 126.783L134.664 126.814C134.678 126.835 134.694 126.858 134.71 126.883C134.743 126.934 134.78 126.992 134.821 127.057C134.902 127.188 134.998 127.351 135.103 127.543C135.312 127.925 135.565 128.438 135.805 129.063C136.279 130.293 136.758 132.094 136.658 134.249C136.433 139.082 133.459 143.643 127.148 146.925C121.001 150.122 115.77 150.215 111.701 148.319C109.81 147.438 108.472 146.258 107.597 145.28C107.157 144.789 106.822 144.336 106.58 143.972C106.458 143.789 106.358 143.627 106.277 143.49C106.237 143.421 106.202 143.359 106.171 143.304C106.156 143.276 106.142 143.25 106.129 143.226L106.11 143.191L106.102 143.174L106.097 143.166C106.096 143.163 106.095 143.161 107.489 142.435L106.094 143.16L75.0582 83.4531C73.5754 80.6007 74.6858 77.0863 77.5383 75.6036Z" fill="currentColor"/>
</g>
<defs>
<clipPath id="clip0_2079_11849">
<rect width="150" height="150" fill="white"/>
</clipPath>
</defs>
</svg>
