<svg width="150" height="150" viewBox="0 0 150 150" fill="none" xmlns="http://www.w3.org/2000/svg">
<g clip-path="url(#clip0_2079_11881)">
<path fill-rule="evenodd" clip-rule="evenodd" d="M74.9998 12.5735C40.5224 12.5735 12.573 40.5229 12.573 75.0003C12.573 109.478 40.5224 137.427 74.9998 137.427C109.477 137.427 137.427 109.478 137.427 75.0003C137.427 40.5229 109.477 12.5735 74.9998 12.5735ZM0.931152 75.0003C0.931152 34.0933 34.0928 0.931641 74.9998 0.931641C115.907 0.931641 149.068 34.0933 149.068 75.0003C149.068 115.907 115.907 149.069 74.9998 149.069C34.0928 149.069 0.931152 115.907 0.931152 75.0003Z" fill="currentColor"/>
<path fill-rule="evenodd" clip-rule="evenodd" d="M75.0001 44.9006C58.3766 44.9006 44.9006 58.3766 44.9006 75.0001C44.9006 91.6236 58.3766 105.1 75.0001 105.1C91.6236 105.1 105.1 91.6236 105.1 75.0001C105.1 58.3766 91.6236 44.9006 75.0001 44.9006ZM33.2588 75.0001C33.2588 51.947 51.947 33.2588 75.0001 33.2588C98.0532 33.2588 116.741 51.947 116.741 75.0001C116.741 98.0532 98.0532 116.741 75.0001 116.741C51.947 116.741 33.2588 98.0532 33.2588 75.0001Z" fill="currentColor"/>
<circle cx="75" cy="75" r="11.25" fill="currentColor"/>
</g>
<defs>
<clipPath id="clip0_2079_11881">
<rect width="150" height="150" fill="currentColor"/>
</clipPath>
</defs>
</svg>
