<svg width="51" height="32" fill="none" xmlns="http://www.w3.org/2000/svg"><path fill-rule="evenodd" clip-rule="evenodd" d="M15.857.095C17.597-.008 19.335 0 21.075 0h8.817c1.774 0 3.512-.008 5.251.095 1.581.093 3.121.291 4.654.734a15.258 15.258 0 0 1 8.082 5.633A16.06 16.06 0 0 1 51 16c0 3.448-1.096 6.8-3.121 9.54a15.263 15.263 0 0 1-8.082 5.632c-1.533.443-3.073.64-4.654.734-1.739.103-3.477.094-5.217.094L21.107 32c-1.772-.001-3.51.008-5.25-.095-1.58-.094-3.12-.291-4.653-.734a15.263 15.263 0 0 1-8.082-5.633A16.058 16.058 0 0 1 0 16c0-3.444 1.097-6.798 3.122-9.538A15.258 15.258 0 0 1 11.204.83c1.533-.443 3.073-.641 4.653-.734Z" fill="#3CC"/><mask id="a" style="mask-type:alpha" maskUnits="userSpaceOnUse" x="0" y="0" width="51" height="32"><path fill-rule="evenodd" clip-rule="evenodd" d="M15.857.095C17.597-.008 19.335 0 21.075 0h8.817c1.774 0 3.512-.008 5.251.095 1.581.093 3.121.291 4.654.734a15.258 15.258 0 0 1 8.082 5.633A16.06 16.06 0 0 1 51 16c0 3.448-1.096 6.8-3.121 9.54a15.263 15.263 0 0 1-8.082 5.632c-1.533.443-3.073.64-4.654.734-1.739.103-3.477.094-5.217.094L21.107 32c-1.772-.001-3.51.008-5.25-.095-1.58-.094-3.12-.291-4.653-.734a15.263 15.263 0 0 1-8.082-5.633A16.058 16.058 0 0 1 0 16c0-3.444 1.097-6.798 3.122-9.538A15.258 15.258 0 0 1 11.204.83c1.533-.443 3.073-.641 4.653-.734Z" fill="#fff"/></mask><g filter="url(#b)" mask="url(#a)"><path fill-rule="evenodd" clip-rule="evenodd" d="M35 30c7.732 0 14-6.268 14-14S42.732 2 35 2 21 8.268 21 16s6.268 14 14 14Z" fill="#fff"/><path d="M35 30.25c7.87 0 14.25-6.38 14.25-14.25S42.87 1.75 35 1.75 20.75 8.13 20.75 16 27.13 30.25 35 30.25Z" stroke="#000" stroke-opacity=".04" stroke-width=".5"/></g><defs><filter id="b" x="12.5" y="-3.5" width="45" height="45" filterUnits="userSpaceOnUse" color-interpolation-filters="sRGB"><feFlood flood-opacity="0" result="BackgroundImageFix"/><feColorMatrix in="SourceAlpha" values="0 0 0 0 0 0 0 0 0 0 0 0 0 0 0 0 0 0 127 0" result="hardAlpha"/><feOffset dy="3"/><feGaussianBlur stdDeviation=".5"/><feColorMatrix values="0 0 0 0 0 0 0 0 0 0 0 0 0 0 0 0 0 0 0.06 0"/><feBlend in2="BackgroundImageFix" result="effect1_dropShadow_75_6373"/><feColorMatrix in="SourceAlpha" values="0 0 0 0 0 0 0 0 0 0 0 0 0 0 0 0 0 0 127 0" result="hardAlpha"/><feOffset dy="3"/><feGaussianBlur stdDeviation="4"/><feColorMatrix values="0 0 0 0 0 0 0 0 0 0 0 0 0 0 0 0 0 0 0.15 0"/><feBlend in2="effect1_dropShadow_75_6373" result="effect2_dropShadow_75_6373"/><feBlend in="SourceGraphic" in2="effect2_dropShadow_75_6373" result="shape"/></filter></defs></svg>