<svg width="328" height="321" fill="none" xmlns="http://www.w3.org/2000/svg"><path d="M149.333 144.5h29.334a1.832 1.832 0 0 1 1.833 1.833v29.334a1.832 1.832 0 0 1-1.833 1.833h-29.334a1.832 1.832 0 0 1-1.833-1.833v-29.334a1.832 1.832 0 0 1 1.833-1.833Zm12.834 14.667h-7.334v3.666h7.334v7.334h3.666v-7.334h7.334v-3.666h-7.334v-7.334h-3.666v7.334Z" fill="#19B2B8"/><path d="M4 320.5c-.475 0-.928-.095-1.34-.265l-.383.923A4.475 4.475 0 0 0 4 321.5v-1Zm-3.235-2.16A3.492 3.492 0 0 1 .5 317h-1c0 .609.121 1.191.342 1.723l.923-.383ZM.5 317v-2.524h-1V317h1Zm0-7.573v-5.048h-1v5.048h1Zm0-10.096v-5.049h-1v5.049h1Zm0-10.097v-5.049h-1v5.049h1Zm0-10.097v-5.048h-1v5.048h1Zm0-10.097v-5.048h-1v5.048h1Zm0-10.096v-5.049h-1v5.049h1Zm0-10.097v-5.049h-1v5.049h1Zm0-10.097v-5.048h-1v5.048h1Zm0-10.097v-5.048h-1v5.048h1Zm0-10.097v-5.048h-1v5.048h1Zm0-10.096v-5.049h-1v5.049h1Zm0-10.097v-5.048h-1v5.048h1Zm0-10.097v-5.048h-1v5.048h1Zm0-10.097v-5.048h-1v5.048h1Zm0-10.096v-5.049h-1v5.049h1Zm0-10.097v-5.049h-1v5.049h1Zm0-10.097v-5.048h-1v5.048h1Zm0-10.097v-5.048h-1v5.048h1Zm0-10.096v-5.049h-1v5.049h1Zm0-10.097v-5.049h-1v5.049h1Zm0-10.097v-5.048h-1v5.048h1Zm0-10.097v-5.048h-1v5.048h1Zm0-10.097V82.25h-1v5.048h1Zm0-10.096v-5.049h-1v5.049h1Zm0-10.097v-5.049h-1v5.049h1Zm0-10.097V51.96h-1v5.048h1Zm0-10.097v-5.048h-1v5.048h1Zm0-10.096v-5.049h-1v5.049h1Zm0-10.097v-5.049h-1v5.049h1Zm0-10.097v-5.048h-1v5.048h1Zm0-10.097V4h-1v2.524h1ZM.5 4c0-.475.095-.928.265-1.34l-.923-.383A4.488 4.488 0 0 0-.5 4h1ZM2.66.765C3.072.595 3.525.5 4 .5v-1c-.61 0-1.191.121-1.723.342l.383.923ZM4 .5h2.5v-1H4v1Zm7.5 0h5v-1h-5v1Zm10 0h5v-1h-5v1Zm10 0h5v-1h-5v1Zm10 0h5v-1h-5v1Zm10 0h5v-1h-5v1Zm10 0h5v-1h-5v1Zm10 0h5v-1h-5v1Zm10 0h5v-1h-5v1Zm10 0h5v-1h-5v1Zm10 0h5v-1h-5v1Zm10 0h5v-1h-5v1Zm10 0h5v-1h-5v1Zm10 0h5v-1h-5v1Zm10 0h5v-1h-5v1Zm10 0h5v-1h-5v1Zm10 0h5v-1h-5v1Zm10 0h5v-1h-5v1Zm10 0h5v-1h-5v1Zm10 0h5v-1h-5v1Zm10 0h5v-1h-5v1Zm10 0h5v-1h-5v1Zm10 0h5v-1h-5v1Zm10 0h5v-1h-5v1Zm10 0h5v-1h-5v1Zm10 0h5v-1h-5v1Zm10 0h5v-1h-5v1Zm10 0h5v-1h-5v1Zm10 0h5v-1h-5v1Zm10 0h5v-1h-5v1Zm10 0h5v-1h-5v1Zm10 0h5v-1h-5v1Zm10 0h2.5v-1h-2.5v1Zm2.5 0c.475 0 .928.095 1.34.265l.383-.923A4.493 4.493 0 0 0 324-.5v1Zm3.235 2.16c.17.412.265.865.265 1.34h1c0-.61-.121-1.191-.342-1.723l-.923.383ZM327.5 4v2.524h1V4h-1Zm0 7.573v5.048h1v-5.048h-1Zm0 10.096v5.049h1v-5.049h-1Zm0 10.097v5.049h1v-5.049h-1Zm0 10.097v5.048h1v-5.048h-1Zm0 10.097v5.048h1V51.96h-1Zm0 10.096v5.049h1v-5.049h-1Zm0 10.097v5.049h1v-5.049h-1Zm0 10.097v5.048h1V82.25h-1Zm0 10.097v5.048h1v-5.048h-1Zm0 10.097v5.048h1v-5.048h-1Zm0 10.096v5.049h1v-5.049h-1Zm0 10.097v5.048h1v-5.048h-1Zm0 10.097v5.048h1v-5.048h-1Zm0 10.097v5.048h1v-5.048h-1Zm0 10.096v5.049h1v-5.049h-1Zm0 10.097v5.049h1v-5.049h-1Zm0 10.097v5.048h1v-5.048h-1Zm0 10.097v5.048h1v-5.048h-1Zm0 10.096v5.049h1v-5.049h-1Zm0 10.097v5.049h1v-5.049h-1Zm0 10.097v5.048h1v-5.048h-1Zm0 10.097v5.048h1v-5.048h-1Zm0 10.097v5.048h1v-5.048h-1Zm0 10.096v5.049h1v-5.049h-1Zm0 10.097v5.048h1v-5.048h-1Zm0 10.097v5.048h1v-5.048h-1Zm0 10.097v5.048h1v-5.048h-1Zm0 10.096v5.049h1v-5.049h-1Zm0 10.097v5.049h1v-5.049h-1Zm0 10.097v5.048h1v-5.048h-1Zm0 10.097V317h1v-2.524h-1Zm0 2.524c0 .475-.095.928-.265 1.34l.923.383A4.48 4.48 0 0 0 328.5 317h-1Zm-2.16 3.235c-.412.17-.865.265-1.34.265v1a4.48 4.48 0 0 0 1.723-.342l-.383-.923Zm-1.34.265h-2.5v1h2.5v-1Zm-7.5 0h-5v1h5v-1Zm-10 0h-5v1h5v-1Zm-10 0h-5v1h5v-1Zm-10 0h-5v1h5v-1Zm-10 0h-5v1h5v-1Zm-10 0h-5v1h5v-1Zm-10 0h-5v1h5v-1Zm-10 0h-5v1h5v-1Zm-10 0h-5v1h5v-1Zm-10 0h-5v1h5v-1Zm-10 0h-5v1h5v-1Zm-10 0h-5v1h5v-1Zm-10 0h-5v1h5v-1Zm-10 0h-5v1h5v-1Zm-10 0h-5v1h5v-1Zm-10 0h-5v1h5v-1Zm-10 0h-5v1h5v-1Zm-10 0h-5v1h5v-1Zm-10 0h-5v1h5v-1Zm-10 0h-5v1h5v-1Zm-10 0h-5v1h5v-1Zm-10 0h-5v1h5v-1Zm-10 0h-5v1h5v-1Zm-10 0h-5v1h5v-1Zm-10 0h-5v1h5v-1Zm-10 0h-5v1h5v-1Zm-10 0h-5v1h5v-1Zm-10 0h-5v1h5v-1Zm-10 0h-5v1h5v-1Zm-10 0h-5v1h5v-1Zm-10 0h-5v1h5v-1Zm-10 0H4v1h2.5v-1ZM4 320a2.99 2.99 0 0 1-1.148-.227l-.766 1.847c.59.245 1.238.38 1.914.38v-2Zm-2.773-1.852A2.985 2.985 0 0 1 1 317h-2c0 .676.135 1.323.38 1.914l1.847-.766ZM1 317v-2.524h-2V317h2Zm0-7.573v-5.048h-2v5.048h2Zm0-10.096v-5.049h-2v5.049h2Zm0-10.097v-5.049h-2v5.049h2Zm0-10.097v-5.048h-2v5.048h2Zm0-10.097v-5.048h-2v5.048h2Zm0-10.096v-5.049h-2v5.049h2Zm0-10.097v-5.049h-2v5.049h2Zm0-10.097v-5.048h-2v5.048h2Zm0-10.097v-5.048h-2v5.048h2Zm0-10.097v-5.048h-2v5.048h2Zm0-10.096v-5.049h-2v5.049h2Zm0-10.097v-5.048h-2v5.048h2Zm0-10.097v-5.048h-2v5.048h2Zm0-10.097v-5.048h-2v5.048h2Zm0-10.096v-5.049h-2v5.049h2Zm0-10.097v-5.049h-2v5.049h2Zm0-10.097v-5.048h-2v5.048h2Zm0-10.097v-5.048h-2v5.048h2Zm0-10.096v-5.049h-2v5.049h2Zm0-10.097v-5.049h-2v5.049h2Zm0-10.097v-5.048h-2v5.048h2Zm0-10.097v-5.048h-2v5.048h2Zm0-10.097V82.25h-2v5.048h2Zm0-10.096v-5.049h-2v5.049h2Zm0-10.097v-5.049h-2v5.049h2Zm0-10.097V51.96h-2v5.048h2Zm0-10.097v-5.048h-2v5.048h2Zm0-10.096v-5.049h-2v5.049h2Zm0-10.097v-5.049h-2v5.049h2ZM1 16.62v-5.048h-2v5.048h2ZM1 6.524V4h-2v2.524h2ZM1 4c0-.409.081-.796.227-1.148L-.62 2.086A4.988 4.988 0 0 0-1 4h2Zm1.852-2.773C3.204 1.081 3.592 1 4 1v-2c-.676 0-1.323.135-1.914.38l.766 1.847ZM4 1h2.5v-2H4v2Zm7.5 0h5v-2h-5v2Zm10 0h5v-2h-5v2Zm10 0h5v-2h-5v2Zm10 0h5v-2h-5v2Zm10 0h5v-2h-5v2Zm10 0h5v-2h-5v2Zm10 0h5v-2h-5v2Zm10 0h5v-2h-5v2Zm10 0h5v-2h-5v2Zm10 0h5v-2h-5v2Zm10 0h5v-2h-5v2Zm10 0h5v-2h-5v2Zm10 0h5v-2h-5v2Zm10 0h5v-2h-5v2Zm10 0h5v-2h-5v2Zm10 0h5v-2h-5v2Zm10 0h5v-2h-5v2Zm10 0h5v-2h-5v2Zm10 0h5v-2h-5v2Zm10 0h5v-2h-5v2Zm10 0h5v-2h-5v2Zm10 0h5v-2h-5v2Zm10 0h5v-2h-5v2Zm10 0h5v-2h-5v2Zm10 0h5v-2h-5v2Zm10 0h5v-2h-5v2Zm10 0h5v-2h-5v2Zm10 0h5v-2h-5v2Zm10 0h5v-2h-5v2Zm10 0h5v-2h-5v2Zm10 0h5v-2h-5v2Zm10 0h2.5v-2h-2.5v2Zm2.5 0c.409 0 .796.081 1.148.227l.766-1.847A4.988 4.988 0 0 0 324-1v2Zm2.773 1.852c.146.352.227.74.227 1.148h2c0-.676-.135-1.323-.38-1.914l-1.847.766ZM327 4v2.524h2V4h-2Zm0 7.573v5.048h2v-5.048h-2Zm0 10.096v5.049h2v-5.049h-2Zm0 10.097v5.049h2v-5.049h-2Zm0 10.097v5.048h2v-5.048h-2Zm0 10.097v5.048h2V51.96h-2Zm0 10.096v5.049h2v-5.049h-2Zm0 10.097v5.049h2v-5.049h-2Zm0 10.097v5.048h2V82.25h-2Zm0 10.097v5.048h2v-5.048h-2Zm0 10.097v5.048h2v-5.048h-2Zm0 10.096v5.049h2v-5.049h-2Zm0 10.097v5.048h2v-5.048h-2Zm0 10.097v5.048h2v-5.048h-2Zm0 10.097v5.048h2v-5.048h-2Zm0 10.096v5.049h2v-5.049h-2Zm0 10.097v5.049h2v-5.049h-2Zm0 10.097v5.048h2v-5.048h-2Zm0 10.097v5.048h2v-5.048h-2Zm0 10.096v5.049h2v-5.049h-2Zm0 10.097v5.049h2v-5.049h-2Zm0 10.097v5.048h2v-5.048h-2Zm0 10.097v5.048h2v-5.048h-2Zm0 10.097v5.048h2v-5.048h-2Zm0 10.096v5.049h2v-5.049h-2Zm0 10.097v5.048h2v-5.048h-2Zm0 10.097v5.048h2v-5.048h-2Zm0 10.097v5.048h2v-5.048h-2Zm0 10.096v5.049h2v-5.049h-2Zm0 10.097v5.049h2v-5.049h-2Zm0 10.097v5.048h2v-5.048h-2Zm0 10.097V317h2v-2.524h-2Zm0 2.524c0 .409-.081.796-.227 1.148l1.847.766c.245-.591.38-1.238.38-1.914h-2Zm-1.852 2.773A2.987 2.987 0 0 1 324 320v2c.676 0 1.323-.135 1.914-.38l-.766-1.847ZM324 320h-2.5v2h2.5v-2Zm-7.5 0h-5v2h5v-2Zm-10 0h-5v2h5v-2Zm-10 0h-5v2h5v-2Zm-10 0h-5v2h5v-2Zm-10 0h-5v2h5v-2Zm-10 0h-5v2h5v-2Zm-10 0h-5v2h5v-2Zm-10 0h-5v2h5v-2Zm-10 0h-5v2h5v-2Zm-10 0h-5v2h5v-2Zm-10 0h-5v2h5v-2Zm-10 0h-5v2h5v-2Zm-10 0h-5v2h5v-2Zm-10 0h-5v2h5v-2Zm-10 0h-5v2h5v-2Zm-10 0h-5v2h5v-2Zm-10 0h-5v2h5v-2Zm-10 0h-5v2h5v-2Zm-10 0h-5v2h5v-2Zm-10 0h-5v2h5v-2Zm-10 0h-5v2h5v-2Zm-10 0h-5v2h5v-2Zm-10 0h-5v2h5v-2Zm-10 0h-5v2h5v-2Zm-10 0h-5v2h5v-2Zm-10 0h-5v2h5v-2Zm-10 0h-5v2h5v-2Zm-10 0h-5v2h5v-2Zm-10 0h-5v2h5v-2Zm-10 0h-5v2h5v-2Zm-10 0h-5v2h5v-2Zm-10 0H4v2h2.5v-2Z" fill="#ABA7AF"/></svg>