<svg width="20" height="20" viewBox="0 0 20 20" fill="none" xmlns="http://www.w3.org/2000/svg">
<path fill-rule="evenodd" clip-rule="evenodd" d="M9.99996 2.49992C9.1159 2.49992 8.26806 2.85111 7.64294 3.47623C7.01782 4.10135 6.66663 4.9492 6.66663 5.83325V8.33325H13.3333V5.83325C13.3333 4.9492 12.9821 4.10135 12.357 3.47623C11.7319 2.85111 10.884 2.49992 9.99996 2.49992ZM15 8.33325V5.83325C15 4.50717 14.4732 3.2354 13.5355 2.29772C12.5978 1.36004 11.326 0.833252 9.99996 0.833252C8.67388 0.833252 7.40211 1.36004 6.46443 2.29772C5.52674 3.2354 4.99996 4.50717 4.99996 5.83325V8.33325H4.16663C2.78591 8.33325 1.66663 9.45254 1.66663 10.8333V16.6666C1.66663 18.0473 2.78591 19.1666 4.16663 19.1666H15.8333C17.214 19.1666 18.3333 18.0473 18.3333 16.6666V10.8333C18.3333 9.45254 17.214 8.33325 15.8333 8.33325H15ZM4.16663 9.99992C3.70639 9.99992 3.33329 10.373 3.33329 10.8333V16.6666C3.33329 17.1268 3.70639 17.4999 4.16663 17.4999H15.8333C16.2935 17.4999 16.6666 17.1268 16.6666 16.6666V10.8333C16.6666 10.373 16.2935 9.99992 15.8333 9.99992H4.16663Z" fill="#202020"/>
</svg>
