<svg width="26" height="21" viewBox="0 0 26 21" fill="none" xmlns="http://www.w3.org/2000/svg">
<path d="M9.70403 19.0298C8.9664 19.0298 9.09174 18.7634 8.83734 18.0916L6.66821 11.2633L23.3652 1.78873" fill="#0088CC"/>
<path d="M9.70403 19.0298C8.9664 19.0298 9.09174 18.7634 8.83734 18.0916L6.66821 11.2633L23.3652 1.78873" fill="black" fill-opacity="0.09"/>
<path d="M9.70398 19.0298C10.2732 19.0298 10.5247 18.7808 10.8424 18.4853L13.8782 15.6618L10.0914 13.4776" fill="#4AABDB"/>
<path d="M10.091 13.4782L19.2668 19.9624C20.3138 20.515 21.0695 20.2289 21.3304 19.0326L25.0654 2.19753C25.4478 0.731094 24.4809 0.0659882 23.4793 0.500971L1.5474 8.58993C0.0503472 9.16427 0.0590747 9.96315 1.27452 10.3191L6.90273 11.9994L19.9326 4.13653C20.5477 3.77975 21.1123 3.97156 20.6489 4.36491" fill="#0088CC"/>
</svg>
