<svg width="20" height="20" viewBox="0 0 20 20" fill="none" xmlns="http://www.w3.org/2000/svg">
<path fill-rule="evenodd" clip-rule="evenodd" d="M10.8513 3.50456C10.4813 3.50456 10.1813 3.80453 10.1813 4.17456C10.1813 4.54459 10.4813 4.84456 10.8513 4.84456C11.2213 4.84456 11.5213 4.54459 11.5213 4.17456C11.5213 3.80453 11.2213 3.50456 10.8513 3.50456ZM9.01465 4.17456C9.01465 3.16019 9.83695 2.33789 10.8513 2.33789C11.8657 2.33789 12.688 3.16019 12.688 4.17456C12.688 5.18892 11.8657 6.01122 10.8513 6.01122C9.83695 6.01122 9.01465 5.18892 9.01465 4.17456Z" fill="#59C2E7"/>
<path fill-rule="evenodd" clip-rule="evenodd" d="M6.65501 7.97717C6.75418 8.28369 6.58609 8.61257 6.27957 8.71174C5.61049 8.92821 5.01078 9.31823 4.54159 9.84204C4.07239 10.3659 3.75048 11.0047 3.60869 11.6935C3.4669 12.3823 3.5103 13.0963 3.73445 13.7629C3.9586 14.4294 4.3555 15.0246 4.88467 15.4877C5.41385 15.9509 6.05637 16.2654 6.74674 16.3993C7.4371 16.5331 8.15062 16.4815 8.81454 16.2497C9.47846 16.0179 10.069 15.6142 10.5261 15.0797C10.9831 14.5453 11.2902 13.8992 11.4161 13.2073C11.4738 12.8903 11.7775 12.6801 12.0944 12.7378C12.4114 12.7955 12.6216 13.0992 12.5639 13.4162C12.4011 14.311 12.0038 15.1467 11.4128 15.8379C10.8216 16.5292 10.0578 17.0514 9.19911 17.3512C8.34042 17.651 7.41757 17.7177 6.52467 17.5446C5.63176 17.3715 4.80073 16.9647 4.11631 16.3657C3.43189 15.7666 2.91855 14.9969 2.62864 14.1348C2.33872 13.2727 2.2826 12.3491 2.46599 11.4583C2.64938 10.5674 3.06572 9.74112 3.67257 9.06363C4.27942 8.38615 5.05507 7.8817 5.92044 7.60172C6.22696 7.50255 6.55584 7.67065 6.65501 7.97717Z" fill="#59C2E7"/>
<path fill-rule="evenodd" clip-rule="evenodd" d="M10.6165 5.37305C10.9387 5.37305 11.1999 5.63421 11.1999 5.95638V10.683C11.1999 10.7913 11.2385 10.8768 11.2843 10.9292C11.3293 10.9805 11.3706 10.9914 11.3965 10.9914H12.9565C13.2787 10.9914 13.5399 11.2525 13.5399 11.5747C13.5399 11.8969 13.2787 12.158 12.9565 12.158H11.3965C10.5735 12.158 10.0332 11.4212 10.0332 10.683V5.95638C10.0332 5.63421 10.2944 5.37305 10.6165 5.37305Z" fill="#59C2E7"/>
<path fill-rule="evenodd" clip-rule="evenodd" d="M14.2527 12.1579H11.7168V10.9912H14.2945L14.3122 10.9923C14.664 11.0137 14.993 11.1737 15.227 11.4372C15.4568 11.6959 15.5767 12.0337 15.5618 12.3789V15.7445H14.3951V12.3478L14.3961 12.331C14.3986 12.2874 14.3837 12.2446 14.3547 12.2119C14.3283 12.1821 14.292 12.163 14.2527 12.1579Z" fill="#59C2E7"/>
<path fill-rule="evenodd" clip-rule="evenodd" d="M14.9779 13.5869C15.3 13.5869 15.5612 13.8481 15.5612 14.1702V16.1319H16.7145C17.0367 16.1319 17.2979 16.3931 17.2979 16.7152C17.2979 17.0374 17.0367 17.2986 16.7145 17.2986H14.9779C14.6557 17.2986 14.3945 17.0374 14.3945 16.7152V14.1702C14.3945 13.8481 14.6557 13.5869 14.9779 13.5869Z" fill="#59C2E7"/>
<path fill-rule="evenodd" clip-rule="evenodd" d="M10.771 5.71219C11.0008 5.938 11.004 6.30733 10.7782 6.53712L8.67546 8.6769V12.2333C8.67546 12.5554 8.41429 12.8166 8.09212 12.8166C7.76996 12.8166 7.50879 12.5554 7.50879 12.2333V8.43826C7.50879 8.28531 7.56886 8.13848 7.67606 8.02939L9.94606 5.71939C10.1719 5.48961 10.5412 5.48638 10.771 5.71219Z" fill="#59C2E7"/>
</svg>
