<svg width="20" height="20" viewBox="0 0 20 20" fill="none" xmlns="http://www.w3.org/2000/svg">
<path d="M14.1665 5.59147V17.3798H5.83317V5.59147H14.1665ZM15.3332 4.4248H4.6665V17.6248C4.6665 17.869 4.76338 18.1031 4.93586 18.2759C5.10835 18.4487 5.34235 18.546 5.5865 18.5465H14.4098C14.531 18.5467 14.651 18.523 14.7631 18.4768C14.8751 18.4306 14.9769 18.3627 15.0626 18.2771C15.1484 18.1915 15.2164 18.0898 15.2629 17.9779C15.3093 17.866 15.3332 17.746 15.3332 17.6248V4.4248Z" fill="#EB5353"/>
<path d="M15.5482 3.53678V3.69345C15.5477 3.8772 15.4745 4.0533 15.3446 4.18323C15.2147 4.31316 15.0386 4.38634 14.8548 4.38678H5.14484C4.9611 4.38634 4.785 4.31316 4.65507 4.18323C4.52514 4.0533 4.45195 3.8772 4.45151 3.69345V3.53678H15.5482ZM15.7148 2.37012H4.29151C4.02629 2.37012 3.77194 2.47547 3.5844 2.66301C3.39687 2.85055 3.29151 3.1049 3.29151 3.37012V3.68845C3.29018 4.18147 3.48464 4.65484 3.83217 5.00455C4.17969 5.35426 4.65183 5.55169 5.14484 5.55345H14.8548C15.3481 5.55345 15.8212 5.35749 16.1701 5.00867C16.5189 4.65985 16.7148 4.18675 16.7148 3.69345V3.37512C16.7148 3.1099 16.6095 2.85555 16.422 2.66801C16.2344 2.48047 15.9801 2.37512 15.7148 2.37512V2.37012Z" fill="#EB5353"/>
<path fill-rule="evenodd" clip-rule="evenodd" d="M9.99984 7.38965C10.322 7.38965 10.5832 7.65082 10.5832 7.97298V15.2296C10.5832 15.5518 10.322 15.813 9.99984 15.813C9.67767 15.813 9.4165 15.5518 9.4165 15.2296V7.97298C9.4165 7.65082 9.67767 7.38965 9.99984 7.38965Z" fill="#EB5353"/>
<path fill-rule="evenodd" clip-rule="evenodd" d="M12.2132 8.64648C12.5354 8.64648 12.7965 8.90765 12.7965 9.22982V13.9732C12.7965 14.2953 12.5354 14.5565 12.2132 14.5565C11.891 14.5565 11.6299 14.2953 11.6299 13.9732V9.22982C11.6299 8.90765 11.891 8.64648 12.2132 8.64648Z" fill="#EB5353"/>
<path fill-rule="evenodd" clip-rule="evenodd" d="M7.78646 8.64648C8.10862 8.64648 8.36979 8.90765 8.36979 9.22982V13.9732C8.36979 14.2953 8.10862 14.5565 7.78646 14.5565C7.46429 14.5565 7.20312 14.2953 7.20312 13.9732V9.22982C7.20312 8.90765 7.46429 8.64648 7.78646 8.64648Z" fill="#EB5353"/>
</svg>
