<svg width="20" height="20" viewBox="0 0 20 20" fill="none" xmlns="http://www.w3.org/2000/svg">
<path fill-rule="evenodd" clip-rule="evenodd" d="M15.024 1.66443C15.2519 1.43663 15.6212 1.43663 15.849 1.66443L18.3345 4.14991C18.5623 4.37772 18.5623 4.74706 18.3345 4.97487L7.17045 16.1389C6.94264 16.3667 6.57329 16.3667 6.34549 16.1389L3.86001 13.6534C3.6322 13.4256 3.6322 13.0563 3.86001 12.8285L15.024 1.66443ZM15.4365 2.90187L5.09744 13.2409L6.75797 14.9015L17.097 4.56239L15.4365 2.90187Z" fill="#798189"/>
<path fill-rule="evenodd" clip-rule="evenodd" d="M4.17106 12.667C4.35833 12.6341 4.54984 12.6946 4.68428 12.8291L7.17095 15.3157C7.30538 15.4502 7.36587 15.6417 7.33304 15.829C7.3002 16.0162 7.17817 16.1757 7.00601 16.2564L2.32601 18.4497C2.10359 18.554 1.83969 18.5077 1.66599 18.334C1.49229 18.1603 1.44602 17.8964 1.55026 17.674L3.7436 12.994C3.82428 12.8218 3.98379 12.6998 4.17106 12.667ZM4.44719 14.2419L3.29091 16.7091L5.75812 15.5528L4.44719 14.2419Z" fill="#798189"/>
<path fill-rule="evenodd" clip-rule="evenodd" d="M13.3144 3.64742C13.5422 3.41961 13.9116 3.41961 14.1394 3.64742L16.4427 5.95075C16.6705 6.17856 16.6705 6.5479 16.4427 6.77571C16.2149 7.00351 15.8455 7.00351 15.6177 6.77571L13.3144 4.47237C13.0866 4.24457 13.0866 3.87522 13.3144 3.64742Z" fill="#798189"/>
<path fill-rule="evenodd" clip-rule="evenodd" d="M2.77131 15.5426C2.99932 15.315 3.36866 15.3153 3.59627 15.5433L4.54794 16.4966C4.77554 16.7246 4.77522 17.094 4.54722 17.3216C4.31921 17.5492 3.94986 17.5489 3.72226 17.3209L2.77059 16.3675C2.54298 16.1395 2.54331 15.7702 2.77131 15.5426Z" fill="#798189"/>
</svg>
