<svg width="20" height="20" viewBox="0 0 20 20" fill="none" xmlns="http://www.w3.org/2000/svg">
<path d="M9.99994 5.48797C10.8796 5.48535 11.751 5.65723 12.5638 5.99367C13.3765 6.3301 14.1145 6.82441 14.7349 7.44797L17.2866 9.99963L14.7349 12.5513C13.4787 13.8062 11.7756 14.5111 9.99994 14.5111C8.22427 14.5111 6.52122 13.8062 5.26494 12.5513L2.71328 9.99963L5.26494 7.44797C5.88538 6.82441 6.62335 6.3301 7.43611 5.99367C8.24888 5.65723 9.1203 5.48535 9.99994 5.48797ZM9.99994 4.3213C8.96721 4.3195 7.94431 4.52193 6.99011 4.91694C6.0359 5.31195 5.16923 5.89175 4.43994 6.62297L1.76161 9.3013C1.57658 9.48661 1.47266 9.73777 1.47266 9.99963C1.47266 10.2615 1.57658 10.5127 1.76161 10.698L4.43994 13.3763C5.91502 14.85 7.91483 15.6778 9.99994 15.6778C12.0851 15.6778 14.0849 14.85 15.5599 13.3763L18.2383 10.698C18.4233 10.5127 18.5272 10.2615 18.5272 9.99963C18.5272 9.73777 18.4233 9.48661 18.2383 9.3013L15.5599 6.62297C14.8307 5.89175 13.964 5.31195 13.0098 4.91694C12.0556 4.52193 11.0327 4.3195 9.99994 4.3213Z" fill="#798189"/>
<path d="M10.0002 7.52799C10.489 7.52799 10.9669 7.67296 11.3733 7.94455C11.7798 8.21614 12.0966 8.60216 12.2837 9.0538C12.4707 9.50543 12.5197 10.0024 12.4243 10.4819C12.329 10.9613 12.0936 11.4017 11.7479 11.7474C11.4022 12.0931 10.9618 12.3285 10.4823 12.4238C10.0029 12.5192 9.50592 12.4703 9.05429 12.2832C8.60265 12.0961 8.21663 11.7793 7.94504 11.3728C7.67344 10.9664 7.52848 10.4885 7.52848 9.99966C7.52893 9.34427 7.78947 8.71585 8.25291 8.25242C8.71634 7.78899 9.34476 7.52844 10.0002 7.52799ZM10.0002 6.36133C9.28056 6.36133 8.57712 6.57471 7.9788 6.9745C7.38048 7.37428 6.91415 7.94251 6.63877 8.60733C6.36339 9.27215 6.29134 10.0037 6.43173 10.7095C6.57211 11.4152 6.91863 12.0635 7.42746 12.5724C7.93629 13.0812 8.58458 13.4277 9.29035 13.5681C9.99611 13.7085 10.7277 13.6364 11.3925 13.361C12.0573 13.0857 12.6255 12.6193 13.0253 12.021C13.4251 11.4227 13.6385 10.7193 13.6385 9.99966C13.6385 9.03472 13.2552 8.10929 12.5728 7.42697C11.8905 6.74465 10.9651 6.36133 10.0002 6.36133Z" fill="#798189"/>
</svg>
