<svg width="20" height="20" viewBox="0 0 20 20" fill="none" xmlns="http://www.w3.org/2000/svg">
<path fill-rule="evenodd" clip-rule="evenodd" d="M10.6529 3.57602C11.4186 2.81135 12.4564 2.38184 13.5385 2.38184C14.6206 2.38184 15.6584 2.81135 16.424 3.57602L16.4246 3.57653C17.1892 4.34216 17.6187 5.38 17.6187 6.46209C17.6187 7.54418 17.1892 8.58202 16.4246 9.34764L14.6008 11.1698C14.3729 11.3975 14.0035 11.3973 13.7758 11.1694C13.5481 10.9415 13.5483 10.5721 13.7762 10.3444L15.5991 8.5232C15.5991 8.52314 15.5992 8.52308 15.5993 8.52302C16.1454 7.97616 16.4521 7.23492 16.4521 6.46209C16.4521 5.68932 16.1454 4.94813 15.5994 4.40129C15.0525 3.85522 14.3113 3.5485 13.5385 3.5485C12.7657 3.5485 12.0245 3.8552 11.4776 4.40124C11.4775 4.40133 11.4775 4.40141 11.4774 4.40149L9.65616 6.22438C9.42846 6.45229 9.05911 6.45246 8.8312 6.22476C8.60329 5.99705 8.60312 5.62771 8.83082 5.3998L10.6529 3.57602Z" fill="#59C2E7"/>
<path fill-rule="evenodd" clip-rule="evenodd" d="M6.22476 8.8312C6.45246 9.05911 6.45229 9.42846 6.22438 9.65616L4.40149 11.4774C4.40141 11.4775 4.40133 11.4775 4.40124 11.4776C3.8552 12.0245 3.5485 12.7657 3.5485 13.5385C3.5485 14.3113 3.85522 15.0525 4.40129 15.5994C4.94813 16.1454 5.68932 16.4521 6.46209 16.4521C7.23492 16.4521 7.97616 16.1454 8.52302 15.5993C8.52308 15.5992 8.52314 15.5991 8.5232 15.5991L10.3444 13.7762C10.5721 13.5483 10.9415 13.5481 11.1694 13.7758C11.3973 14.0035 11.3975 14.3729 11.1698 14.6008L9.34764 16.4246C8.58202 17.1892 7.54418 17.6187 6.46209 17.6187C5.38 17.6187 4.34216 17.1892 3.57653 16.4246L3.57602 16.424C2.81135 15.6584 2.38184 14.6206 2.38184 13.5385C2.38184 12.4564 2.81135 11.4186 3.57602 10.6529L5.3998 8.83082C5.62771 8.60312 5.99705 8.60329 6.22476 8.8312Z" fill="#59C2E7"/>
<path fill-rule="evenodd" clip-rule="evenodd" d="M13.5529 6.37794C13.7807 6.60578 13.7806 6.97513 13.5528 7.2029L7.67446 13.0796C7.44663 13.3073 7.07728 13.3073 6.84951 13.0795C6.62173 12.8516 6.62179 12.4823 6.84962 12.2545L12.728 6.37783C12.9558 6.15005 13.3251 6.15011 13.5529 6.37794Z" fill="#59C2E7"/>
</svg>
