<svg width="120" height="120" viewBox="0 0 120 120" fill="none" xmlns="http://www.w3.org/2000/svg">
<path fill-rule="evenodd" clip-rule="evenodd" d="M61.5299 8.83984C62.4582 8.83979 63.3485 9.20854 64.005 9.86497L105.875 51.735C107.242 53.1018 107.242 55.3179 105.875 56.6847C104.508 58.0516 102.292 58.0516 100.925 56.6847L61.5304 17.2899L19.0752 59.7544C17.7086 61.1214 15.4925 61.1217 14.1255 59.755C12.7585 58.3883 12.7583 56.1722 14.1249 54.8052L59.055 9.86525C59.7113 9.20875 60.6016 8.8399 61.5299 8.83984Z" fill="currentColor"/>
<path d="M59.9998 41.8096C61.8246 41.8096 63.6084 42.3511 65.1252 43.3655C66.6421 44.38 67.8238 45.8217 68.5208 47.5082C69.2177 49.1947 69.3985 51.05 69.0403 52.8394C68.6822 54.6287 67.8011 56.2715 66.5086 57.5597C65.2162 58.8479 63.5705 59.7237 61.78 60.0761C59.9896 60.4284 58.1348 60.2415 56.4506 59.5391C54.7664 58.8367 53.3285 57.6502 52.319 56.1301C51.3095 54.6099 50.7738 52.8244 50.7798 50.9996C50.7903 48.5603 51.7661 46.2244 53.4937 44.5023C55.2214 42.7803 57.5605 41.8122 59.9998 41.8096ZM59.9998 34.8096C56.7905 34.8096 53.6533 35.7616 50.9853 37.5452C48.3173 39.3288 46.2384 41.8638 45.0116 44.8294C43.7848 47.795 43.4654 51.0578 44.0937 54.205C44.7219 57.3522 46.2697 60.2422 48.5411 62.5095C50.8126 64.7767 53.7055 66.3191 56.8538 66.9416C60.0022 67.564 63.2644 67.2385 66.2277 66.0063C69.191 64.774 71.7221 62.6904 73.5008 60.0191C75.2795 57.3478 76.2257 54.2089 76.2198 50.9996C76.2118 46.703 74.4994 42.585 71.4584 39.5497C68.4175 36.5143 64.2964 34.8096 59.9998 34.8096Z" fill="currentColor"/>
<path d="M67.7701 77.6797C71.8353 77.6849 75.7331 79.2994 78.6113 82.1702C81.4896 85.041 83.1143 88.9345 83.1301 92.9997V104.43H36.8701V92.9997C36.886 88.9345 38.5106 85.041 41.3889 82.1702C44.2672 79.2994 48.1649 77.6849 52.2301 77.6797H67.7701ZM67.7701 70.6797H52.2301C46.3068 70.6797 40.6255 73.03 36.4333 77.2146C32.2412 81.3993 29.8807 87.0764 29.8701 92.9997V106C29.8701 106.719 30.0119 107.431 30.2875 108.095C30.563 108.76 30.9668 109.363 31.4758 109.871C31.9848 110.379 32.589 110.782 33.2538 111.056C33.9186 111.33 34.6309 111.471 35.3501 111.47H84.6501C85.3693 111.471 86.0817 111.33 86.7465 111.056C87.4113 110.782 88.0155 110.379 88.5245 109.871C89.0335 109.363 89.4373 108.76 89.7128 108.095C89.9883 107.431 90.1301 106.719 90.1301 106V92.9997C90.1195 87.0764 87.7591 81.3993 83.5669 77.2146C79.3747 73.03 73.6934 70.6797 67.7701 70.6797Z" fill="currentColor"/>
</svg>
