<svg width="20" height="20" viewBox="0 0 20 20" fill="none" xmlns="http://www.w3.org/2000/svg">
<path d="M9.99999 6.96842C10.2332 6.9681 10.4612 7.03696 10.6553 7.16631C10.8493 7.29567 11.0006 7.47968 11.09 7.69506C11.1794 7.91044 11.2028 8.1475 11.1574 8.37623C11.112 8.60496 10.9998 8.81507 10.8349 8.97996C10.67 9.14486 10.4599 9.25712 10.2311 9.30253C10.0024 9.34794 9.76533 9.32447 9.54995 9.23508C9.33457 9.14568 9.15056 8.9944 9.02121 8.80036C8.89186 8.60633 8.82299 8.37829 8.82332 8.14509C8.82376 7.83316 8.94787 7.53412 9.16845 7.31355C9.38902 7.09298 9.68805 6.96887 9.99999 6.96842ZM9.99999 5.80176C9.53605 5.80143 9.08244 5.93872 8.69655 6.19627C8.31066 6.45381 8.00984 6.82003 7.83214 7.2486C7.65445 7.67716 7.60787 8.1488 7.6983 8.60384C7.78873 9.05888 8.0121 9.47687 8.34016 9.80492C8.66821 10.133 9.0862 10.3564 9.54124 10.4468C9.99628 10.5372 10.4679 10.4906 10.8965 10.3129C11.325 10.1352 11.6913 9.83442 11.9488 9.44853C12.2064 9.06264 12.3436 8.60903 12.3433 8.14509C12.3433 7.5236 12.0964 6.92756 11.657 6.4881C11.2175 6.04864 10.6215 5.80176 9.99999 5.80176Z" fill="currentColor"/>
<path d="M10.7383 12.0319C11.2893 12.0323 11.8177 12.2515 12.2074 12.6411C12.5971 13.0308 12.8162 13.5592 12.8166 14.1102V17.3802H7.18327V14.1102C7.18371 13.5592 7.40282 13.0308 7.79249 12.6411C8.18216 12.2515 8.71053 12.0323 9.2616 12.0319H10.7383ZM10.7383 10.8652H9.2616C8.40098 10.8652 7.5756 11.2071 6.96704 11.8157C6.35849 12.4242 6.0166 13.2496 6.0166 14.1102V17.9552C6.01638 18.0329 6.03148 18.1098 6.06104 18.1815C6.09059 18.2533 6.13401 18.3185 6.18882 18.3735C6.24363 18.4285 6.30874 18.4721 6.38044 18.5018C6.45213 18.5316 6.52898 18.5469 6.6066 18.5469H13.3933C13.4709 18.5469 13.5477 18.5316 13.6194 18.5018C13.6911 18.4721 13.7562 18.4285 13.8111 18.3735C13.8659 18.3185 13.9093 18.2533 13.9388 18.1815C13.9684 18.1098 13.9835 18.0329 13.9833 17.9552V14.1102C13.9833 13.2496 13.6414 12.4242 13.0328 11.8157C12.4243 11.2071 11.5989 10.8652 10.7383 10.8652Z" fill="currentColor"/>
<path fill-rule="evenodd" clip-rule="evenodd" d="M10.2552 1.47363C10.4099 1.47362 10.5583 1.53508 10.6677 1.64449L17.6461 8.62282C17.8739 8.85063 17.8739 9.21997 17.6461 9.44778C17.4183 9.67558 17.0489 9.67558 16.8211 9.44778L10.2553 2.88197L3.17945 9.9594C2.95167 10.1872 2.58233 10.1873 2.35449 9.95949C2.12666 9.73171 2.12662 9.36236 2.3544 9.13453L9.84274 1.64453C9.95213 1.53512 10.1005 1.47364 10.2552 1.47363Z" fill="currentColor"/>
</svg>
