<svg width="120" height="120" viewBox="0 0 120 120" fill="none" xmlns="http://www.w3.org/2000/svg">
<path d="M109.42 55.81L93.3597 39.74C92.9397 39.32 92.5197 38.91 92.0897 38.52L87.0897 43.47C87.5197 43.86 87.9497 44.27 88.3697 44.69L103.72 60L88.4097 75.3C82.967 80.7386 76.0795 84.5032 68.5631 86.1479C61.0467 87.7927 53.2163 87.2485 45.9997 84.58L40.6297 89.94C49.3615 93.8534 59.0759 95.0222 68.4868 93.2919C77.8977 91.5615 86.561 87.0134 93.3297 80.25L109.39 64.19C109.944 63.6428 110.384 62.9914 110.686 62.2734C110.987 61.5555 111.144 60.785 111.147 60.0062C111.149 59.2275 110.998 58.4559 110.702 57.7357C110.406 57.0156 109.97 56.3611 109.42 55.81ZM59.9997 25.92C53.8026 25.9105 47.6648 27.1266 41.9395 29.4984C36.2142 31.8702 31.0145 35.3508 26.6397 39.74L10.5697 55.81C9.45948 56.9218 8.83594 58.4288 8.83594 60C8.83594 61.5712 9.45948 63.0781 10.5697 64.19L26.6397 80.25C27.0597 80.67 27.4897 81.08 27.9197 81.47L32.8697 76.47C32.4397 76.08 32.0097 75.67 31.5897 75.25L16.2797 60L31.5897 44.69C37.0307 39.2488 43.9188 35.4832 51.4362 33.84C58.9536 32.1969 66.7846 32.7452 73.9997 35.42L79.3597 30.06C73.2726 27.3237 66.6734 25.9125 59.9997 25.92Z" fill="black"/>
<path d="M79.8001 50.8L74.3501 56.26C75.002 58.7623 74.9884 61.3915 74.3105 63.8869C73.6326 66.3823 72.314 68.657 70.4856 70.4855C68.6571 72.3139 66.3824 73.6325 63.887 74.3104C61.3916 74.9883 58.7623 75.002 56.2601 74.35L50.8001 79.8C54.8588 81.6815 59.3974 82.2713 63.8022 81.4895C68.2071 80.7078 72.2655 78.5922 75.4289 75.4288C78.5922 72.2655 80.7078 68.207 81.4896 63.8022C82.2714 59.3974 81.6816 54.8587 79.8001 50.8ZM60.0001 38.17C56.3356 38.1718 52.7305 39.096 49.5172 40.8575C46.3038 42.619 43.5856 45.161 41.6131 48.2493C39.6406 51.3376 38.4772 54.8727 38.2303 58.5289C37.9833 62.185 38.6608 65.8445 40.2001 69.17L45.6501 63.72C45.0024 61.219 45.0194 58.5923 45.6992 56.0999C46.379 53.6075 47.6981 51.3359 49.5259 49.5101C51.3537 47.6844 53.6267 46.3678 56.1199 45.6907C58.6131 45.0136 61.2398 44.9996 63.7401 45.65L69.1901 40.2C66.3134 38.8554 63.1754 38.1623 60.0001 38.17Z" fill="black"/>
<path fill-rule="evenodd" clip-rule="evenodd" d="M99.4544 20.5447C100.821 21.9115 100.821 24.1276 99.4544 25.4944L25.4944 99.4544C24.1276 100.821 21.9115 100.821 20.5447 99.4544C19.1778 98.0876 19.1778 95.8715 20.5447 94.5047L94.5047 20.5447C95.8715 19.1778 98.0876 19.1778 99.4544 20.5447Z" fill="black"/>
</svg>
