<svg width="20" height="20" viewBox="0 0 20 20" fill="none" xmlns="http://www.w3.org/2000/svg">
<path d="M9.9998 2.61979C11.4594 2.61979 12.8863 3.05262 14.0999 3.86355C15.3135 4.67447 16.2595 5.82707 16.818 7.17559C17.3766 8.52411 17.5227 10.008 17.238 11.4396C16.9532 12.8711 16.2504 14.1861 15.2182 15.2182C14.1861 16.2504 12.8711 16.9532 11.4396 17.238C10.008 17.5227 8.52411 17.3766 7.17559 16.818C5.82707 16.2594 4.67447 15.3135 3.86355 14.0999C3.05262 12.8863 2.6198 11.4594 2.6198 9.99979C2.62244 8.04331 3.40082 6.16771 4.78427 4.78427C6.16772 3.40082 8.04331 2.62244 9.9998 2.61979ZM9.9998 1.45312C8.30942 1.45312 6.65701 1.95438 5.25152 2.8935C3.84603 3.83262 2.75058 5.16742 2.10371 6.72912C1.45683 8.29082 1.28758 10.0093 1.61735 11.6672C1.94713 13.3251 2.76112 14.8479 3.95639 16.0432C5.15166 17.2385 6.67453 18.0525 8.33242 18.3822C9.99031 18.712 11.7088 18.5428 13.2705 17.8959C14.8322 17.249 16.167 16.1536 17.1061 14.7481C18.0452 13.3426 18.5465 11.6902 18.5465 9.99979C18.5465 8.87743 18.3254 7.76605 17.8959 6.72912C17.4664 5.69219 16.8368 4.75002 16.0432 3.95639C15.2496 3.16275 14.3074 2.53321 13.2705 2.1037C12.2335 1.67419 11.1222 1.45312 9.9998 1.45312Z" fill="#59C2E7"/>
<path fill-rule="evenodd" clip-rule="evenodd" d="M10.0003 2.9502C10.3225 2.9502 10.5837 3.21136 10.5837 3.53353V3.8702C10.5837 4.19236 10.3225 4.45353 10.0003 4.45353C9.67816 4.45353 9.41699 4.19236 9.41699 3.8702V3.53353C9.41699 3.21136 9.67816 2.9502 10.0003 2.9502Z" fill="#59C2E7"/>
<path fill-rule="evenodd" clip-rule="evenodd" d="M15.5498 10.0179C15.5498 9.69574 15.811 9.43457 16.1331 9.43457H16.4848C16.807 9.43457 17.0681 9.69574 17.0681 10.0179C17.0681 10.3401 16.807 10.6012 16.4848 10.6012H16.1331C15.811 10.6012 15.5498 10.3401 15.5498 10.0179Z" fill="#59C2E7"/>
<path fill-rule="evenodd" clip-rule="evenodd" d="M2.93164 10.0179C2.93164 9.69574 3.19281 9.43457 3.51497 9.43457H3.86664C4.18881 9.43457 4.44997 9.69574 4.44997 10.0179C4.44997 10.3401 4.18881 10.6012 3.86664 10.6012H3.51497C3.19281 10.6012 2.93164 10.3401 2.93164 10.0179Z" fill="#59C2E7"/>
<path fill-rule="evenodd" clip-rule="evenodd" d="M10.0003 15.5537C10.3225 15.5537 10.5837 15.8149 10.5837 16.137V16.5037C10.5837 16.8259 10.3225 17.087 10.0003 17.087C9.67816 17.087 9.41699 16.8259 9.41699 16.5037V16.137C9.41699 15.8149 9.67816 15.5537 10.0003 15.5537Z" fill="#59C2E7"/>
<path fill-rule="evenodd" clip-rule="evenodd" d="M5.60078 5.78115C5.82376 5.54862 6.19303 5.54088 6.42556 5.76387L10.4039 9.57887C10.6364 9.80185 10.6442 10.1711 10.4212 10.4036C10.1982 10.6362 9.82893 10.6439 9.5964 10.4209L5.61807 6.60593C5.38554 6.38295 5.3778 6.01368 5.60078 5.78115Z" fill="#59C2E7"/>
<path fill-rule="evenodd" clip-rule="evenodd" d="M10.0003 9.41699C10.3225 9.41699 10.5837 9.67816 10.5837 10.0003V12.912C10.5837 13.2342 10.3225 13.4953 10.0003 13.4953C9.67816 13.4953 9.41699 13.2342 9.41699 12.912V10.0003C9.41699 9.67816 9.67816 9.41699 10.0003 9.41699Z" fill="#59C2E7"/>
</svg>
