<svg width="120" height="120" viewBox="0 0 120 120" fill="none" xmlns="http://www.w3.org/2000/svg">
<path d="M60.0002 15.7197C68.758 15.7197 77.3191 18.3167 84.6009 23.1823C91.8827 28.0478 97.5582 34.9634 100.91 43.0545C104.261 51.1456 105.138 60.0489 103.429 68.6383C101.721 77.2278 97.5036 85.1177 91.3109 91.3104C85.1183 97.5031 77.2283 101.72 68.6388 103.429C60.0494 105.137 51.1461 104.261 43.055 100.909C34.9639 97.5577 28.0483 91.8822 23.1828 84.6004C18.3172 77.3186 15.7202 68.7575 15.7202 59.9997C15.7361 48.2608 20.4064 37.0072 28.7071 28.7066C37.0078 20.4059 48.2613 15.7356 60.0002 15.7197ZM60.0002 8.71973C49.858 8.71973 39.9436 11.7272 31.5106 17.362C23.0776 22.9967 16.505 31.0055 12.6237 40.3757C8.74243 49.7459 7.72692 60.0566 9.70557 70.004C11.6842 79.9513 16.5682 89.0885 23.7398 96.2602C30.9114 103.432 40.0487 108.316 49.996 110.294C59.9434 112.273 70.2541 111.258 79.6242 107.376C88.9944 103.495 97.0033 96.9223 102.638 88.4894C108.273 80.0564 111.28 70.142 111.28 59.9997C111.28 53.2655 109.954 46.5973 107.377 40.3757C104.8 34.1541 101.022 28.5011 96.2607 23.7393C91.4989 18.9775 85.8458 15.2002 79.6242 12.6232C73.4027 10.0461 66.7344 8.71973 60.0002 8.71973Z" fill="currentColor"/>
<path d="M38.73 39.6104L60 60.0004" stroke="currentColor" stroke-width="7" stroke-miterlimit="87" stroke-linecap="round"/>
<path d="M60 60V83.32" stroke="currentColor" stroke-width="7" stroke-miterlimit="87" stroke-linecap="round"/>
</svg>
