<svg width="120" height="120" viewBox="0 0 120 120" fill="none" xmlns="http://www.w3.org/2000/svg">
<path d="M69.66 84.0603V97.4203C69.6869 98.7749 69.1757 100.085 68.2385 101.063C67.3013 102.042 66.0145 102.609 64.66 102.64H22.75C21.3955 102.609 20.1087 102.042 19.1716 101.063C18.2344 100.085 17.7232 98.7749 17.75 97.4203V22.5804C17.7232 21.2258 18.2344 19.9158 19.1716 18.9373C20.1087 17.9589 21.3955 17.3918 22.75 17.3604H64.66C66.0145 17.3918 67.3013 17.9589 68.2385 18.9373C69.1757 19.9158 69.6869 21.2258 69.66 22.5804V35.8804" stroke="currentColor" stroke-width="7" stroke-linecap="round" stroke-linejoin="round"/>
<path d="M57.71 60H95.3" stroke="currentColor" stroke-width="7" stroke-miterlimit="10" stroke-linecap="round"/>
<path d="M84.0898 42.8096L102.24 59.9996L84.0898 77.1896" stroke="currentColor" stroke-width="7" stroke-linecap="round" stroke-linejoin="round"/>
</svg>
