<svg width="40" height="40" viewBox="0 0 40 40" fill="none" xmlns="http://www.w3.org/2000/svg">
<path fill-rule="evenodd" clip-rule="evenodd" d="M16.2529 21.32C16.2529 20.6757 16.7753 20.1533 17.4196 20.1533H29.9496C30.5939 20.1533 31.1163 20.6757 31.1163 21.32C31.1163 21.9643 30.5939 22.4867 29.9496 22.4867H17.4196C16.7753 22.4867 16.2529 21.9643 16.2529 21.32Z" fill="#59C2E7"/>
<path fill-rule="evenodd" clip-rule="evenodd" d="M25.3624 14.7875C25.8053 14.3196 26.5437 14.2993 27.0117 14.7422L33.065 20.4722C33.2978 20.6926 33.4296 20.999 33.4296 21.3195C33.4296 21.64 33.2978 21.9465 33.065 22.1668L27.0117 27.8968C26.5437 28.3397 25.8053 28.3195 25.3624 27.8515C24.9194 27.3836 24.9397 26.6452 25.4076 26.2022L30.5659 21.3195L25.4076 16.4368C24.9397 15.9939 24.9194 15.2554 25.3624 14.7875Z" fill="#59C2E7"/>
<path fill-rule="evenodd" clip-rule="evenodd" d="M9.56805 2.90338L9.58007 2.90332H25.6134L25.6254 2.90338C26.4467 2.91185 27.231 3.24586 27.8062 3.83209C28.3801 4.41695 28.699 5.20516 28.6934 6.02436V10.3767C28.6934 11.021 28.1711 11.5433 27.5267 11.5433C26.8824 11.5433 26.3601 11.021 26.3601 10.3767V6.01999L26.3601 6.00987C26.3619 5.80676 26.283 5.61125 26.1407 5.46627C25.9995 5.3224 25.8074 5.23995 25.606 5.23665H9.58745C9.38604 5.23995 9.19393 5.3224 9.05276 5.46627C8.91051 5.61125 8.8316 5.80676 8.83336 6.00987L8.83341 6.01999V33.98L8.83336 33.9901C8.83249 34.0909 8.8515 34.1908 8.88931 34.2843C8.92712 34.3777 8.98298 34.4628 9.0537 34.5346C9.12442 34.6064 9.20861 34.6636 9.30144 34.7028C9.39332 34.7417 9.49188 34.7622 9.5916 34.7633H25.6126C25.8141 34.76 26.0062 34.6776 26.1474 34.5337C26.2896 34.3887 26.3685 34.1932 26.3668 33.9901L26.3667 33.98V32.26C26.3667 31.6157 26.8891 31.0933 27.5334 31.0933C28.1777 31.0933 28.7001 31.6157 28.7001 32.26V33.9756C28.7057 34.7948 28.3867 35.583 27.8129 36.1679C27.2377 36.7541 26.4533 37.0881 25.6321 37.0966L25.6201 37.0967H9.58674L9.57874 37.0966C9.17119 37.0938 8.76818 37.0107 8.39279 36.852C8.0174 36.6933 7.67699 36.4621 7.39104 36.1717C7.10509 35.8813 6.87922 35.5373 6.72634 35.1595C6.57417 34.7834 6.4973 34.3812 6.50007 33.9755V6.02444C6.49446 5.20521 6.81338 4.41697 7.38726 3.83209C7.96247 3.24586 8.7468 2.91185 9.56805 2.90338Z" fill="#59C2E7"/>
</svg>
