<svg width="25" height="24" viewBox="0 0 25 24" fill="none" xmlns="http://www.w3.org/2000/svg">
<path d="M20.8879 5.34238C21.012 5.34238 21.1311 5.39169 21.2188 5.47946C21.3066 5.56722 21.3559 5.68626 21.3559 5.81038V18.2004C21.3559 18.3245 21.3066 18.4435 21.2188 18.5313C21.1311 18.6191 21.012 18.6684 20.8879 18.6684H4.1119C3.98778 18.6684 3.86874 18.6191 3.78097 18.5313C3.6932 18.4435 3.6439 18.3245 3.6439 18.2004V5.81038C3.6439 5.74892 3.656 5.68807 3.67952 5.63129C3.70304 5.57451 3.73751 5.52291 3.78097 5.47946C3.82443 5.436 3.87602 5.40153 3.9328 5.37801C3.98958 5.35449 4.05044 5.34238 4.1119 5.34238H20.8879ZM20.8879 3.94238H4.1119C3.61647 3.94238 3.14134 4.13919 2.79102 4.48951C2.4407 4.83983 2.2439 5.31496 2.2439 5.81038V18.2004C2.2439 18.6958 2.4407 19.1709 2.79102 19.5213C3.14134 19.8716 3.61647 20.0684 4.1119 20.0684H20.8879C21.3833 20.0684 21.8585 19.8716 22.2088 19.5213C22.5591 19.1709 22.7559 18.6958 22.7559 18.2004V5.81038C22.7559 5.31496 22.5591 4.83983 22.2088 4.48951C21.8585 4.13919 21.3833 3.94238 20.8879 3.94238Z" fill="#459DB9"/>
<path fill-rule="evenodd" clip-rule="evenodd" d="M11.283 13.7106L2.50928 5.01693L3.49468 4.02246L12.269 12.7168C12.3304 12.7777 12.4134 12.8119 12.5 12.8119C12.5865 12.8119 12.6696 12.7777 12.731 12.7168L21.5053 4.02246L22.4907 5.01693L13.717 13.7106C13.7169 13.7107 13.7168 13.7108 13.7167 13.7109C13.3931 14.0318 12.9557 14.2119 12.5 14.2119C12.0442 14.2119 11.6069 14.0318 11.2833 13.7109C11.2832 13.7108 11.2831 13.7107 11.283 13.7106Z" fill="#459DB9"/>
</svg>
