<svg width="25" height="24" viewBox="0 0 25 24" fill="none" xmlns="http://www.w3.org/2000/svg">
<path d="M19.2719 10.8004C19.5016 10.8004 19.7219 10.8916 19.8843 11.054C20.0467 11.2164 20.1379 11.4367 20.1379 11.6664V20.0004C20.1374 20.2299 20.046 20.4499 19.8837 20.6122C19.7214 20.7745 19.5014 20.8659 19.2719 20.8664H5.72793C5.49841 20.8659 5.27845 20.7745 5.11616 20.6122C4.95386 20.4499 4.86246 20.2299 4.86193 20.0004V11.6744C4.86087 11.56 4.88249 11.4465 4.92554 11.3405C4.96859 11.2345 5.03221 11.1381 5.11273 11.0569C5.19325 10.9756 5.28907 10.9111 5.39467 10.8671C5.50026 10.823 5.61353 10.8004 5.72793 10.8004H19.2719ZM19.2719 9.40039H5.72793C5.42968 9.40039 5.13436 9.45926 4.85892 9.57364C4.58347 9.68802 4.33331 9.85565 4.12279 10.0669C3.91227 10.2782 3.74552 10.5289 3.63212 10.8048C3.51871 11.0806 3.46088 11.3761 3.46193 11.6744V20.0004C3.46193 20.6014 3.70067 21.1777 4.12562 21.6027C4.55058 22.0277 5.12695 22.2664 5.72793 22.2664H19.2719C19.8729 22.2664 20.4493 22.0277 20.8742 21.6027C21.2992 21.1777 21.5379 20.6014 21.5379 20.0004V11.6744C21.539 11.3761 21.4811 11.0806 21.3677 10.8048C21.2543 10.5289 21.0876 10.2782 20.8771 10.0669C20.6665 9.85565 20.4164 9.68802 20.1409 9.57364C19.8655 9.45926 19.5702 9.40039 19.2719 9.40039Z" fill="#459DB9"/>
<path d="M13.3581 5.77012C13.5573 5.77012 13.7546 5.8094 13.9387 5.88571C14.1227 5.96202 14.29 6.07386 14.4308 6.21485C14.5716 6.35584 14.6832 6.52319 14.7593 6.70736C14.8353 6.89152 14.8743 7.08886 14.8741 7.28812V9.40012H10.1261V7.28812C10.1258 7.08886 10.1648 6.89152 10.2409 6.70736C10.317 6.52319 10.4286 6.35584 10.5694 6.21485C10.7102 6.07386 10.8774 5.96202 11.0615 5.88571C11.2455 5.8094 11.4428 5.77012 11.6421 5.77012H13.3581ZM13.3581 4.37012H11.6421C10.8687 4.37118 10.1273 4.67901 9.58061 5.22607C9.03393 5.77313 8.7266 6.51472 8.72607 7.28812V10.8001H16.2741V7.28812C16.2735 6.51472 15.9662 5.77313 15.4195 5.22607C14.8728 4.67901 14.1315 4.37118 13.3581 4.37012Z" fill="#459DB9"/>
<path d="M13.592 3.11973C14.1291 3.11946 14.6611 3.22507 15.1575 3.43052C15.6538 3.63597 16.1048 3.93723 16.4846 4.31707C16.8645 4.69692 17.1657 5.1479 17.3712 5.64424C17.5766 6.14058 17.6822 6.67255 17.682 7.20973V9.35773C17.682 9.37099 17.6767 9.3837 17.6673 9.39308C17.6579 9.40246 17.6452 9.40773 17.632 9.40773H7.36797C7.35471 9.40773 7.34199 9.40246 7.33261 9.39308C7.32324 9.3837 7.31797 9.37099 7.31797 9.35773V7.20973C7.31771 6.67255 7.42332 6.14058 7.62877 5.64424C7.83421 5.1479 8.13547 4.69692 8.51532 4.31707C8.89516 3.93723 9.34614 3.63597 9.84248 3.43052C10.3388 3.22507 10.8708 3.11946 11.408 3.11973H13.592ZM13.592 1.71973H11.408C9.95242 1.72131 8.55694 2.30023 7.52771 3.32946C6.49848 4.35869 5.91956 5.75418 5.91797 7.20973V9.35773C5.92061 9.74074 6.07447 10.1072 6.34606 10.3773C6.61764 10.6474 6.98495 10.7992 7.36797 10.7997H17.632C18.0164 10.7992 18.3849 10.6463 18.6567 10.3744C18.9285 10.1026 19.0814 9.73413 19.082 9.34973V7.20973C19.0804 5.75418 18.5015 4.35869 17.4722 3.32946C16.443 2.30023 15.0475 1.72131 13.592 1.71973Z" fill="#459DB9"/>
<path fill-rule="evenodd" clip-rule="evenodd" d="M11.5233 12.4816C11.8333 12.3535 12.1654 12.2877 12.5008 12.2881L12.4993 13.6881C12.3479 13.6879 12.198 13.7176 12.0581 13.7754C11.9181 13.8332 11.791 13.9181 11.6839 14.0251C11.5768 14.132 11.4918 14.2591 11.4339 14.3989C11.3759 14.5387 11.3461 14.6884 11.346 14.8397C11.3464 15.0525 11.4054 15.2612 11.5166 15.4428C11.6279 15.6244 11.7871 15.7719 11.9768 15.8689L12.358 16.0638V18.4097C12.3595 18.4429 12.3735 18.4743 12.3975 18.4975C12.4222 18.5215 12.4554 18.5347 12.4898 18.5342L12.5103 19.934C12.1051 19.9399 11.7141 19.7849 11.4232 19.5029C11.1322 19.2209 10.9649 18.835 10.9581 18.4298L10.958 18.424V16.8758C10.7055 16.6843 10.4897 16.4466 10.3228 16.1741C10.077 15.7728 9.94661 15.3115 9.94605 14.8409L9.94604 14.8401C9.94604 14.5047 10.0121 14.1726 10.1406 13.8628C10.269 13.553 10.4572 13.2716 10.6945 13.0346C10.9318 12.7976 11.2134 12.6096 11.5233 12.4816Z" fill="#459DB9"/>
<path fill-rule="evenodd" clip-rule="evenodd" d="M12.942 13.7754C12.802 13.7176 12.6521 13.6879 12.5007 13.6881L12.4992 12.2881C12.8346 12.2877 13.1667 12.3535 13.4767 12.4816C13.7866 12.6096 14.0683 12.7976 14.3055 13.0346C14.5428 13.2716 14.731 13.553 14.8594 13.8628C14.9879 14.1726 15.054 14.5047 15.054 14.8401L15.054 14.8409C15.0534 15.3115 14.923 15.7728 14.6772 16.1741C14.5103 16.4466 14.2945 16.6842 14.042 16.8758V18.424L14.0419 18.4298C14.0351 18.835 13.8678 19.2209 13.5769 19.5029C13.2859 19.7849 12.8949 19.9399 12.4897 19.934L12.5102 18.5342C12.5446 18.5347 12.5778 18.5215 12.6026 18.4975C12.6265 18.4743 12.6406 18.4429 12.642 18.4097V16.0638L13.0232 15.8689C13.2129 15.7719 13.3721 15.6244 13.4834 15.4428C13.5946 15.2612 13.6536 15.0525 13.654 14.8397C13.6539 14.6884 13.6241 14.5387 13.5662 14.3989C13.5082 14.2591 13.4232 14.132 13.3161 14.0251C13.209 13.9181 13.0819 13.8332 12.942 13.7754Z" fill="#459DB9"/>
</svg>
