<svg width="25" height="24" viewBox="0 0 25 24" fill="none" xmlns="http://www.w3.org/2000/svg">
<path d="M12.5 3.14414C12.9692 3.14375 13.428 3.28252 13.8184 3.54292C14.2087 3.80332 14.513 4.17364 14.6929 4.60703C14.8727 5.04042 14.92 5.51741 14.8287 5.97767C14.7374 6.43792 14.5116 6.86076 14.18 7.19269C13.8483 7.52462 13.4257 7.75073 12.9655 7.84242C12.5053 7.9341 12.0283 7.88725 11.5948 7.70777C11.1612 7.5283 10.7906 7.22428 10.5299 6.83416C10.2692 6.44404 10.13 5.98536 10.13 5.51614C10.13 4.88739 10.3796 4.28437 10.8241 3.83959C11.2685 3.39481 11.8713 3.14467 12.5 3.14414ZM12.5 1.74414C11.7539 1.74375 11.0244 1.96463 10.4039 2.37887C9.78329 2.7931 9.29952 3.38207 9.01372 4.07127C8.72792 4.76048 8.65293 5.51897 8.79825 6.25079C8.94357 6.98262 9.30266 7.65492 9.8301 8.18264C10.3575 8.71036 11.0296 9.06981 11.7614 9.21552C12.4931 9.36122 13.2517 9.28664 13.941 9.00121C14.6304 8.71577 15.2196 8.2323 15.6342 7.61196C16.0487 6.99161 16.27 6.26226 16.27 5.51614C16.27 4.51609 15.8729 3.55697 15.1659 2.84964C14.459 2.14231 13.5001 1.74467 12.5 1.74414Z" fill="#2C96B8"/>
<path d="M12.5 11.2904C13.8251 11.2936 15.095 11.8214 16.032 12.7584C16.969 13.6954 17.4968 14.9653 17.5 16.2904V20.8384H7.49998V16.2984C7.50314 14.9733 8.03095 13.7034 8.96794 12.7664C9.90494 11.8294 11.1749 11.3016 12.5 11.2984M12.5 9.89844C10.8026 9.89844 9.17472 10.5727 7.97449 11.773C6.77426 12.9732 6.09998 14.6011 6.09998 16.2984V21.0804C6.09998 21.3893 6.22255 21.6856 6.44078 21.9042C6.65902 22.1228 6.95508 22.2459 7.26398 22.2464H17.744C18.0515 22.2438 18.3455 22.1198 18.562 21.9014C18.7785 21.683 18.9 21.388 18.9 21.0804V16.2984C18.9 14.6011 18.2257 12.9732 17.0255 11.773C15.8252 10.5727 14.1974 9.89844 12.5 9.89844Z" fill="#2C96B8"/>
</svg>
