<svg width="120" height="120" viewBox="0 0 120 120" fill="none" xmlns="http://www.w3.org/2000/svg">
<path d="M59.7801 15.7197C62.6863 15.7178 65.5279 16.5779 67.9452 18.1913C70.3625 19.8047 72.2469 22.0988 73.36 24.7835C74.473 27.4681 74.7648 30.4226 74.1983 33.2732C73.6318 36.1237 72.2325 38.7421 70.1775 40.7971C68.1225 42.8522 65.504 44.2514 62.6535 44.8179C59.803 45.3844 56.8485 45.0927 54.1638 43.9796C51.4792 42.8665 49.185 40.9821 47.5716 38.5648C45.9582 36.1475 45.0981 33.306 45.1001 30.3997C45.1054 26.508 46.6537 22.7771 49.4056 20.0252C52.1575 17.2734 55.8883 15.725 59.7801 15.7197ZM59.7801 8.71973C55.4894 8.71775 51.2944 9.98842 47.726 12.371C44.1576 14.7536 41.376 18.141 39.7331 22.1047C38.0902 26.0684 37.6598 30.4304 38.4964 34.6388C39.333 38.8472 41.3989 42.7129 44.4329 45.7469C47.4669 48.7809 51.3327 50.8469 55.541 51.6834C59.7494 52.52 64.1114 52.0897 68.0751 50.4468C72.0389 48.8039 75.4263 46.0222 77.8088 42.4538C80.1914 38.8854 81.4621 34.6905 81.4601 30.3997C81.4601 24.6498 79.176 19.1354 75.1102 15.0697C71.0444 11.0039 65.53 8.71973 59.7801 8.71973Z" fill="currentColor"/>
<path fill-rule="evenodd" clip-rule="evenodd" d="M51.6898 63.6299C45.0223 63.6299 38.6278 66.2786 33.9131 70.9932C29.1985 75.7079 26.5498 82.1023 26.5498 88.7699V102C26.5498 102.618 26.7953 103.21 27.2322 103.647C27.6692 104.084 28.2619 104.33 28.8798 104.33H90.6798C91.2977 104.33 91.8904 104.084 92.3274 103.647C92.7643 103.21 93.0098 102.618 93.0098 102V88.7699C93.0098 82.1023 90.3611 75.7079 85.6465 70.9932C80.9318 66.2786 74.5373 63.6299 67.8698 63.6299H51.6898ZM28.9634 66.0435C34.9908 60.0161 43.1657 56.6299 51.6898 56.6299H67.8698C76.3939 56.6299 84.5688 60.0161 90.5962 66.0435C96.6236 72.0709 100.01 80.2458 100.01 88.7699V102C100.01 104.474 99.0268 106.847 97.2771 108.597C95.5274 110.347 93.1543 111.33 90.6798 111.33H28.8798C26.4053 111.33 24.0322 110.347 22.2825 108.597C20.5328 106.847 19.5498 104.474 19.5498 102V88.7699C19.5498 80.2458 22.936 72.0709 28.9634 66.0435Z" fill="currentColor"/>
</svg>
