<svg width="52" height="52" viewBox="0 0 52 52" fill="none" xmlns="http://www.w3.org/2000/svg">
<path fill-rule="evenodd" clip-rule="evenodd" d="M15.641 30.322C16.3435 29.8658 17.2828 30.0655 17.739 30.7679C18.2539 31.5607 19.2604 32.3637 20.7377 32.9727C22.1962 33.574 24.0137 33.9427 26.0004 33.9427C26.838 33.9427 27.517 34.6217 27.517 35.4593C27.517 36.297 26.838 36.976 26.0004 36.976C23.6537 36.976 21.4391 36.5429 19.5815 35.7771C17.7427 35.019 16.1492 33.8893 15.1951 32.42C14.7389 31.7176 14.9385 30.7782 15.641 30.322Z" fill="white"/>
<path fill-rule="evenodd" clip-rule="evenodd" d="M36.3595 30.322C37.0619 30.7782 37.2616 31.7176 36.8054 32.42C35.8512 33.8893 34.2577 35.019 32.4189 35.7771C30.5613 36.5429 28.3468 36.976 26.0001 36.976C25.1624 36.976 24.4834 36.297 24.4834 35.4593C24.4834 34.6217 25.1624 33.9427 26.0001 33.9427C27.9867 33.9427 29.8043 33.574 31.2628 32.9727C32.7401 32.3637 33.7466 31.5607 34.2614 30.7679C34.7176 30.0655 35.657 29.8658 36.3595 30.322Z" fill="white"/>
<path fill-rule="evenodd" clip-rule="evenodd" d="M35.3679 9.41682C31.7221 7.34026 27.4901 6.53268 23.3358 7.12079C19.1816 7.7089 15.34 9.65941 12.4139 12.6663C9.48772 15.6733 7.64253 19.5665 7.16775 23.7353C6.69296 27.904 7.61546 32.1124 9.79052 35.7004L7.1966 37.2728C4.67329 33.1105 3.6031 28.2282 4.1539 23.392C4.7047 18.5558 6.84533 14.0392 10.24 10.5509C13.6346 7.06249 18.0912 4.79968 22.9107 4.11741C27.7301 3.43514 32.6397 4.37201 36.8692 6.78105L35.3679 9.41682Z" fill="white"/>
<path fill-rule="evenodd" clip-rule="evenodd" d="M44.8078 28.0527C45.305 23.7387 44.305 19.3848 41.9754 15.7201L44.5353 14.0928C47.2379 18.3443 48.398 23.3953 47.8212 28.4C47.2444 33.4047 44.9658 38.0594 41.3669 41.5846C37.768 45.1099 33.0672 47.2919 28.0517 47.7651C23.0361 48.2384 18.0102 46.9742 13.8154 44.1843L15.4953 41.6586C19.1111 44.0634 23.4434 45.1531 27.7667 44.7452C32.0901 44.3373 36.1421 42.4565 39.2443 39.4177C42.3465 36.379 44.3106 32.3667 44.8078 28.0527Z" fill="white"/>
<path fill-rule="evenodd" clip-rule="evenodd" d="M34.0898 21.4591C33.8494 21.4591 33.6116 21.508 33.3906 21.6029C33.1697 21.6977 32.9704 21.8365 32.8049 22.0108C32.6393 22.1851 32.5109 22.3913 32.4275 22.6167C32.3441 22.8422 32.3075 23.0823 32.3198 23.3224C32.3628 24.1589 31.7195 24.8719 30.883 24.9149C30.0465 24.9579 29.3335 24.3146 29.2905 23.4781C29.2571 22.8271 29.3564 22.1761 29.5825 21.5647C29.8086 20.9533 30.1567 20.3943 30.6056 19.9217C31.0546 19.4491 31.595 19.0727 32.194 18.8156C32.793 18.5584 33.438 18.4258 34.0898 18.4258C34.7417 18.4258 35.3867 18.5584 35.9857 18.8156C36.5847 19.0727 37.1251 19.4491 37.5741 19.9217C38.023 20.3943 38.3711 20.9533 38.5972 21.5647C38.8233 22.1761 38.9226 22.8271 38.8892 23.4781C38.8462 24.3146 38.1332 24.9579 37.2967 24.9149C36.4602 24.8719 35.8169 24.1589 35.8598 23.3224C35.8722 23.0823 35.8355 22.8422 35.7522 22.6167C35.6688 22.3913 35.5404 22.1851 35.3748 22.0108C35.2093 21.8365 35.01 21.6977 34.789 21.6029C34.5681 21.508 34.3302 21.4591 34.0898 21.4591Z" fill="white"/>
<path fill-rule="evenodd" clip-rule="evenodd" d="M17.8754 18.416L17.9177 18.4172C19.2143 18.4533 20.4436 19.0025 21.3357 19.9441C22.2279 20.8856 22.71 22.1427 22.6762 23.4394C22.6544 24.2768 21.958 24.9379 21.1206 24.9161C20.2833 24.8943 19.6221 24.1978 19.6439 23.3605C19.6568 22.867 19.4733 22.3887 19.1338 22.0304C18.804 21.6823 18.3532 21.4752 17.8754 21.451C17.3984 21.4752 16.9482 21.6822 16.6192 22.0299C16.2804 22.3879 16.0977 22.8658 16.1112 23.3585C16.1341 24.1958 15.4739 24.8931 14.6366 24.916C13.7992 24.9389 13.1019 24.2787 13.079 23.4414C13.0435 22.1448 13.5244 20.8872 14.4159 19.945C15.3074 19.0029 16.5366 18.4533 17.8331 18.4172L17.8754 18.416Z" fill="white"/>
<path fill-rule="evenodd" clip-rule="evenodd" d="M38.0716 11.3524C38.0716 11.3525 38.0715 11.3524 38.0716 11.3524L41.2884 14.5693L44.5052 11.3524C45.0445 10.8124 45.1787 10.3273 45.1763 9.97791C45.1738 9.60644 45.0166 9.24597 44.7416 8.97097C44.4666 8.69597 44.1061 8.53872 43.7346 8.53624C43.3852 8.5339 42.9001 8.66807 42.3601 9.20733C41.768 9.79865 40.8088 9.79865 40.2167 9.20732C39.6706 8.66194 39.1803 8.52511 38.8283 8.52651C38.455 8.52799 38.0954 8.68477 37.8222 8.95797C37.549 9.23117 37.3922 9.59079 37.3908 9.96403C37.3894 10.316 37.5263 10.8064 38.0716 11.3524ZM41.2896 6.20987C40.5068 5.72899 39.6631 5.48983 38.8162 5.4932C37.5874 5.49808 36.4761 6.01432 35.6773 6.81308C34.8786 7.61184 34.3623 8.72312 34.3575 9.95198C34.3525 11.2021 34.8759 12.4452 35.9252 13.4959L40.216 17.7866C40.8083 18.3789 41.7686 18.3789 42.3609 17.7866L46.6516 13.4959C47.6983 12.4477 48.2179 11.206 48.2096 9.95761C48.2014 8.7313 47.6834 7.62304 46.8865 6.82608C46.0895 6.02912 44.9813 5.51118 43.755 5.50297C42.9109 5.49732 42.0699 5.73304 41.2896 6.20987Z" fill="white"/>
<path fill-rule="evenodd" clip-rule="evenodd" d="M6.82338 39.8356C6.82199 40.1871 6.95863 40.6765 7.50347 41.2213L10.721 44.4389L13.9393 41.2206C14.479 40.6817 14.613 40.1975 14.6108 39.8491C14.6084 39.4784 14.4513 39.1181 14.1761 38.843C13.9009 38.568 13.5401 38.4107 13.1684 38.4083C12.8188 38.4061 12.3335 38.5405 11.7935 39.0806C11.2012 39.6729 10.2409 39.6729 9.64858 39.0806C9.10224 38.5342 8.61201 38.3973 8.2604 38.3986C7.88752 38.3999 7.52806 38.5566 7.25485 38.8298C6.98159 39.103 6.82487 39.4627 6.82338 39.8356ZM10.7223 36.083C9.93973 35.6017 9.09625 35.3622 8.24937 35.3653C7.02014 35.3697 5.9087 35.8861 5.10996 36.6849C4.31125 37.4836 3.79496 38.5948 3.79007 39.8235C3.78511 41.0736 4.30876 42.3164 5.35858 43.3662L9.64858 47.6562C9.93301 47.9407 10.3188 48.1004 10.721 48.1004C11.1233 48.1004 11.509 47.9407 11.7935 47.6562L16.0827 43.367C16.0828 43.3668 16.083 43.3667 16.0831 43.3666C16.0832 43.3665 16.0833 43.3664 16.0835 43.3662C17.1315 42.3193 17.6521 41.078 17.644 39.8295C17.6361 38.6029 17.1177 37.4945 16.3204 36.6976C15.5232 35.9007 14.4144 35.3828 13.1877 35.375C12.3435 35.3697 11.5024 35.6057 10.7223 36.083Z" fill="white"/>
</svg>
