<svg width="226" height="80" viewBox="0 0 226 80" fill="none" xmlns="http://www.w3.org/2000/svg">
<g clip-path="url(#clip0_2030_9331)">
<mask id="mask0_2030_9331" style="mask-type:luminance" maskUnits="userSpaceOnUse" x="-66" y="-151" width="601" height="425">
<path d="M534.165 -150.222H-65.6318V273.877H534.165V-150.222Z" fill="white"/>
</mask>
<g mask="url(#mask0_2030_9331)">
<path d="M15.7895 42.7466L15.8322 41.4322L19.2359 41.678V40.4597L15.8215 40.1765C15.8215 40.1765 15.8215 35.5706 15.8215 34.6676C16.9752 34.8298 18.1161 35.0726 19.2359 35.3942V34.0584C19.2359 34.0584 10.3019 32.2898 9.21186 32.1241C9.97595 32.06 19.2359 33.0111 19.2359 33.0111C19.2359 33.0111 19.2038 32.2577 19.2359 31.7555C16.981 31.5257 3.28613 30.457 3.28613 30.457V46.2892C7.6249 46.0969 19.2359 46.7808 19.2359 46.7808L19.2733 43.1901L15.7895 42.7466ZM12.7545 34.021C12.7545 34.021 13.588 34.1386 14.4162 34.347C14.0155 34.6676 12.7545 35.7202 12.7545 35.7202V34.021ZM6.3425 39.3109L7.17606 38.6056V39.391C7.17606 39.391 6.53486 39.3536 6.3425 39.3109ZM6.75928 40.6841L6.68448 40.9406L5.1082 40.6093L6.75928 40.6841ZM4.95324 32.5944L6.13946 32.8188L4.95324 33.7913V32.5944ZM4.95324 34.6034L6.9463 32.9363L7.11728 32.9684V37.8735L5.47155 39.2201H4.93721L4.95324 34.6034ZM3.40369 32.3005L3.64413 32.3592L3.38231 32.5944L3.40369 32.3005ZM3.40369 33.3104L4.10366 32.6905V34.6408L3.40369 35.1752V33.3104ZM3.40369 35.9339L4.10366 35.3515V39.1506H3.38231L3.40369 35.9339ZM3.40369 42.4634V41.7154L7.4646 42.4154L3.40369 42.4634ZM11.7125 41.9291L8.22869 41.2452V40.823L11.7125 41.0582V41.9291ZM11.7125 39.7544C11.7125 39.7544 9.80497 39.5941 9.19049 39.5407L11.6912 37.4033L11.7125 39.7544ZM11.7125 36.6125L8.22869 39.4498V37.7026L11.7125 34.8011V36.6125ZM8.22869 36.9492V33.1875L11.969 33.8607L8.22869 36.9492ZM14.9613 42.5543L12.7545 42.1428V41.1436L14.9613 41.3681V42.5543ZM14.9613 40.075L12.7545 39.8933V36.5484L14.9613 34.6034V40.075Z" fill="#901915"/>
<path d="M51.7764 43.2221L51.8298 46.8128C51.8298 46.8128 63.4461 46.1289 67.7849 46.3212V30.457C67.7849 30.457 66.0377 30.1364 51.8298 31.7768C51.8672 32.279 51.8298 33.0324 51.8298 33.0324C51.8298 33.0324 61.0897 32.0974 61.8592 32.1508C59.77 32.2897 51.8298 34.0904 51.8298 34.0904V35.4262C52.9525 35.1091 54.0949 34.8663 55.2495 34.6995C55.2495 35.6026 55.2495 40.2085 55.2495 40.2085L51.8298 40.4917V41.7313L55.2388 41.4642L55.2816 42.7786L51.7764 43.2221ZM58.2899 35.7415C58.2899 35.7415 57.0342 34.6728 56.6334 34.3683C57.4616 34.1599 58.2899 34.0423 58.2899 34.0423V35.7415ZM63.7347 39.3108V38.6162L64.5308 39.3001C64.2659 39.3209 63.9997 39.3209 63.7347 39.3001M65.5087 40.6413L64.2156 40.9138L64.1141 40.6787L65.5087 40.6413ZM65.8774 33.8019L64.6537 32.8721L65.8613 32.621L65.8774 33.8019ZM65.8774 39.2307H65.5568L63.7614 37.7773V32.9683L65.8987 34.6194L65.8774 39.2307ZM67.0849 34.8812L66.6468 34.5713V32.7172L67.0849 33.337V34.8812ZM67.0849 39.1559H66.6468V35.2659L67.0743 35.6133L67.0849 39.1559ZM63.5851 42.442L67.0849 41.8222V42.458L63.5851 42.442ZM59.3104 41.0901L62.6714 40.8604V41.1649L59.2997 41.8275L59.3104 41.0901ZM59.3104 37.446L61.8164 39.5833L59.3104 39.8238V37.446ZM59.3104 34.8331L62.7088 37.6491V39.407L59.3104 36.6552V34.8331ZM59.0433 33.8927L62.7515 33.1286V36.901L59.0433 33.8927ZM56.1044 41.4161L58.3059 41.1917V42.1748L56.1044 42.5863V41.4161ZM56.1044 34.6354L58.3059 36.5804V39.92L56.1044 40.1016V34.6354Z" fill="#901915"/>
</g>
<path d="M21.1543 20.3051L22.7573 18.793L24.5794 20.3051H21.1543Z" fill="#901915"/>
<path d="M20.6943 20.4912H24.8995V21.2874H20.6943V20.4912Z" fill="#901915"/>
<path d="M21.373 24.1516H24.2584V21.373H21.373V24.1516ZM23.7562 23.6172H21.8593V21.9074H23.7562V23.6172Z" fill="#901915"/>
<path d="M20.6949 24.2695H24.8359L25.7176 25.2634H19.5781L20.6949 24.2695Z" fill="#901915"/>
<path d="M26.209 35.6826L30.1737 40H26.209V35.6826Z" fill="#901915"/>
<path d="M41.2451 40L45.0709 35.6826V40H41.2451Z" fill="#901915"/>
<path d="M46.7803 20.3046L48.3833 18.7764L50.2267 20.3046H46.7803Z" fill="#901915"/>
<path d="M46.4863 20.5186H50.5526V21.272H46.4863V20.5186Z" fill="#901915"/>
<path d="M47.0215 24.1733H49.9603V21.4482H47.0215V24.1733ZM49.4473 23.639H47.5131V21.9078H49.4313L49.4473 23.639Z" fill="#901915"/>
<path d="M45.6689 25.2208L46.4865 24.3018H50.5527L51.4771 25.2208H45.6689Z" fill="#901915"/>
<path d="M19.5781 32.5941H20.1926V31.3545H19.5781V32.5941Z" fill="#901915"/>
<path d="M19.5781 34.6084H20.1926V33.3848H19.5781V34.6084Z" fill="#901915"/>
<path d="M19.5781 36.6494H20.1926V35.4258H19.5781V36.6494Z" fill="#901915"/>
<path d="M19.5781 38.7285H20.1926V37.5049H19.5781V38.7285Z" fill="#901915"/>
<path d="M19.5781 40.7265H20.1926V39.5029H19.5781V40.7265Z" fill="#901915"/>
<path d="M19.5781 42.7036H20.1926V41.4854H19.5781V42.7036Z" fill="#901915"/>
<path d="M19.5781 44.7236H20.1926V43.5H19.5781V44.7236Z" fill="#901915"/>
<path d="M25.1133 32.5941H25.7278V31.3545H25.1133V32.5941Z" fill="#901915"/>
<path d="M25.1133 34.6084H25.7278V33.3848H25.1133V34.6084Z" fill="#901915"/>
<path d="M25.1133 36.6494H25.7278V35.4258H25.1133V36.6494Z" fill="#901915"/>
<path d="M25.1133 38.7285H25.7278V37.5049H25.1133V38.7285Z" fill="#901915"/>
<path d="M25.1133 40.7265H25.7278V39.5029H25.1133V40.7265Z" fill="#901915"/>
<path d="M25.1133 44.7236H25.7278V43.5H25.1133V44.7236Z" fill="#901915"/>
<path d="M45.5361 32.5941H46.1506V31.3545H45.5361V32.5941Z" fill="#901915"/>
<path d="M45.5361 34.6084H46.1506V33.3848H45.5361V34.6084Z" fill="#901915"/>
<path d="M45.5361 36.6494H46.1506V35.4258H45.5361V36.6494Z" fill="#901915"/>
<path d="M45.5361 38.7285H46.1506V37.5049H45.5361V38.7285Z" fill="#901915"/>
<path d="M45.5361 40.7265H46.1506V39.5029H45.5361V40.7265Z" fill="#901915"/>
<path d="M50.9541 42.7036H51.5686V41.4854H50.9541V42.7036Z" fill="#901915"/>
<path d="M45.5361 44.7236H46.1506V43.5H45.5361V44.7236Z" fill="#901915"/>
<path d="M50.9541 32.5941H51.5686V31.3545H50.9541V32.5941Z" fill="#901915"/>
<path d="M50.9541 34.6084H51.5686V33.3848H50.9541V34.6084Z" fill="#901915"/>
<path d="M50.9541 36.6494H51.5686V35.4258H50.9541V36.6494Z" fill="#901915"/>
<path d="M50.9541 38.7285H51.5686V37.5049H50.9541V38.7285Z" fill="#901915"/>
<path d="M50.9541 40.7265H51.5686V39.5029H50.9541V40.7265Z" fill="#901915"/>
<path d="M50.9541 44.7236H51.5686V43.5H50.9541V44.7236Z" fill="#901915"/>
<path d="M19.5781 50.5366H21.6674V49.4092H19.5781V50.5366Z" fill="#901915"/>
<path d="M19.5781 56.5532H21.6674V55.4258H19.5781V56.5532Z" fill="#901915"/>
<path d="M19.5781 54.5824H21.6674V53.4336H19.5781V54.5824Z" fill="#901915"/>
<path d="M19.5781 52.5405H21.6674V51.4131H19.5781V52.5405Z" fill="#901915"/>
<path d="M19.5781 48.4956H21.6674V47.3682H19.5781V48.4956Z" fill="#901915"/>
<path d="M49.7943 33.8496H47.6943V35.9014H49.7943V33.8496Z" fill="#901915"/>
<path d="M49.6016 50.5366H51.5786V49.4092H49.6016V50.5366Z" fill="#901915"/>
<path d="M49.6016 48.4956H51.5786V47.3682H49.6016V48.4956Z" fill="#901915"/>
<path d="M49.6016 56.5532H51.5786V55.4258H49.6016V56.5532Z" fill="#901915"/>
<path d="M49.6016 52.5405H51.5786V51.4131H49.6016V52.5405Z" fill="#901915"/>
<path d="M19.5781 46.4873H21.6674V45.3652H19.5781V46.4873Z" fill="#901915"/>
<path d="M23.5799 33.8496H21.4746V35.9014H23.5799V33.8496Z" fill="#901915"/>
<path d="M49.6016 46.4873H51.5786V45.3652H49.6016V46.4873Z" fill="#901915"/>
<path d="M23.6445 46.4873H25.7819V45.3652H23.6445V46.4873Z" fill="#901915"/>
<path d="M45.5518 46.4873H47.625V45.3652H45.5518V46.4873Z" fill="#901915"/>
<path d="M45.5518 50.5366H47.625V49.4092H45.5518V50.5366Z" fill="#901915"/>
<path d="M45.5518 48.4956H47.625V47.3682H45.5518V48.4956Z" fill="#901915"/>
<path d="M49.6016 54.5824H51.5786V53.4336H49.6016V54.5824Z" fill="#901915"/>
<path d="M45.5518 52.5405H47.625V51.4131H45.5518V52.5405Z" fill="#901915"/>
<path d="M45.5518 56.5532H47.625V55.4258H45.5518V56.5532Z" fill="#901915"/>
<path d="M23.6445 48.4956H25.7819V47.3682H23.6445V48.4956Z" fill="#901915"/>
<path d="M45.5518 54.5824H47.625V53.4336H45.5518V54.5824Z" fill="#901915"/>
<path d="M23.6445 50.5366H25.7819V49.4092H23.6445V50.5366Z" fill="#901915"/>
<path d="M23.6445 54.5824H25.7819V53.4336H23.6445V54.5824Z" fill="#901915"/>
<path d="M23.6445 52.5405H25.7819V51.4131H23.6445V52.5405Z" fill="#901915"/>
<mask id="mask1_2030_9331" style="mask-type:luminance" maskUnits="userSpaceOnUse" x="-66" y="-151" width="601" height="425">
<path d="M534.165 -150.222H-65.6318V273.877H534.165V-150.222Z" fill="white"/>
</mask>
<g mask="url(#mask1_2030_9331)">
<path d="M52.7331 31.205V30.5424H51.5629V25.3701H45.5143V30.5638H44.2105V31.1783H46.4868V32.7813H45.5143V33.1553H46.4868V34.8117H45.525V35.1484H46.4868V36.8689H45.5143V37.291H46.4868V38.9475H45.557V39.2948H46.4868V40.9726H45.541V43.2435H46.4868V44.9587H45.557V45.103H47.9348V46.7914H45.557V47.1067H47.9348V48.7845H45.557V49.1585H47.9348V50.847H45.557V51.1623H47.9348V52.8508H45.557V53.2034H47.9348V54.8919H45.557V55.1697H47.9348V56.8636H45.557V57.3979L45.0227 57.5903V45.119H43.6067V45.493H43.2808V44.6488H45.0441V40.1551H41.1061V44.6595H42.9014V45.493H42.6342V45.0923H41.1702V58.0338H40.8496V44.7556H40.0214V45.0442L30.6011 44.5098V57.9269H30.2805V45.103H28.779V45.5037H28.5493V44.6595H30.2805V40.1444H26.1822V44.6595H28.1325V45.4823H27.8386V45.0816H26.1608V57.5956L25.7494 57.259V56.8315H23.3342V55.1377H25.7654V54.8598H23.3342V53.182H25.7601V52.8294H23.3342V51.1409H25.7601V50.8256H23.3342V49.1585H25.7601V48.7845H23.3342V47.096H25.7601V46.7808H23.3342V45.0923H25.7547V44.9266H24.7555V43.2488H25.744V40.9298H24.7555V39.2948H25.7708V38.9207H24.7555V37.2803H25.7815V36.8315H24.7128V35.2018H25.7547V34.769H24.7823V33.166H25.744V32.792H24.7449V31.189H27.1921V30.5424H25.7173V25.3701H19.5779L19.5405 30.5638H18.4023V31.205H20.4649V32.8347H19.5779V33.1981H20.4916V34.8011H19.5779V35.127H20.4916V36.7941H19.5779V37.275H20.4916V38.9421H19.5779V39.2681H20.5023V40.9619H19.5779V41.2237H20.4916V42.9175H19.5779V43.2809H20.5023V44.9213H19.5779V45.103H21.9717V46.7914H19.5779V47.1067H21.9717V48.7845H19.5779V49.1585H21.9717V50.847H19.5779V51.1623H21.9717V52.8508H19.5779V53.2034H21.9717V54.8919H19.5779V55.1697H21.9717V56.8636H19.5779V57.5903L22.5007 57.2643L25.0013 57.6277L27.844 58.4986L31.4721 57.8307L31.4186 48.1486C31.4186 48.1486 37.0024 48.3784 39.9305 49.041V57.975L42.7839 58.2689L48.4264 56.8422L51.5522 57.617V56.8636H49.2973V55.1697H51.5789V54.8919H49.2973V53.182H51.5789V52.8294H49.2973V51.1409H51.5789V50.8256H49.2973V49.1585H51.5789V48.7845H49.2973V47.096H51.5789V46.7808H49.2973V45.0923H51.5789V44.8839H50.6278V43.2221H51.5629V42.9069H50.6439V41.2504H51.5629V40.9298H50.6278V39.2841H51.5789V38.9368H50.6171V37.291H51.5629V36.8315H50.6278V35.1804H51.5522V34.8171H50.6011V33.1286H51.5522V32.8027H50.5904V31.1997L52.7331 31.205ZM24.1357 27.0746C24.2262 27.0718 24.3164 27.0868 24.4012 27.1188C24.4859 27.1509 24.5635 27.1993 24.6295 27.2613C24.6955 27.3233 24.7486 27.3978 24.7858 27.4803C24.823 27.5629 24.8436 27.652 24.8464 27.7425H24.6807C24.6807 27.6008 24.6244 27.4649 24.5242 27.3647C24.424 27.2645 24.2881 27.2082 24.1464 27.2082C24.0047 27.2082 23.8688 27.2645 23.7686 27.3647C23.6684 27.4649 23.6121 27.6008 23.6121 27.7425H23.4464C23.4492 27.652 23.4698 27.5629 23.507 27.4803C23.5442 27.3978 23.5973 27.3233 23.6633 27.2613C23.7293 27.1993 23.8069 27.1509 23.8916 27.1188C23.9764 27.0868 24.0666 27.0718 24.1571 27.0746M22.2816 29.7463V29.9226H21.3732V28.3196H22.2602V28.6242H21.8167V29.7997L22.2816 29.7463ZM23.9113 36.3346H21.0152V33.6629H23.9113V36.3346ZM22.6503 28.5868V28.3196H23.58V29.9226H22.6503V29.8104H23.3022V28.5814L22.6503 28.5868ZM22.3938 27.096C22.4843 27.0932 22.5745 27.1082 22.6593 27.1402C22.744 27.1722 22.8215 27.2207 22.8875 27.2827C22.9535 27.3447 23.0067 27.4191 23.0439 27.5017C23.0811 27.5843 23.1017 27.6734 23.1045 27.7639H22.9388C22.9388 27.6222 22.8825 27.4863 22.7823 27.3861C22.6821 27.2859 22.5462 27.2296 22.4045 27.2296C22.2628 27.2296 22.1269 27.2859 22.0267 27.3861C21.9264 27.4863 21.8702 27.6222 21.8702 27.7639H21.7045C21.7073 27.6734 21.7279 27.5843 21.7651 27.5017C21.8023 27.4191 21.8554 27.3447 21.9214 27.2827C21.9874 27.2207 22.065 27.1722 22.1497 27.1402C22.2344 27.1082 22.3246 27.0932 22.4152 27.096M20.2404 27.7639H20.0748C20.0748 27.5754 20.1497 27.3947 20.2829 27.2614C20.4162 27.1281 20.597 27.0533 20.7855 27.0533C20.9739 27.0533 21.1547 27.1281 21.288 27.2614C21.4212 27.3947 21.4961 27.5754 21.4961 27.7639H21.3305C21.3305 27.6222 21.2742 27.4863 21.174 27.3861C21.0738 27.2859 20.9379 27.2296 20.7961 27.2296C20.6544 27.2296 20.5185 27.2859 20.4183 27.3861C20.3181 27.4863 20.2618 27.6222 20.2618 27.7639M21.3732 41.9771H20.7587C20.745 41.7163 20.7845 41.4555 20.8748 41.2105C20.9651 40.9654 21.1044 40.7414 21.2841 40.5519C21.4638 40.3624 21.6803 40.2116 21.9202 40.1085C22.1601 40.0054 22.4185 39.9522 22.6797 39.9522C22.9408 39.9522 23.1992 40.0054 23.4391 40.1085C23.6791 40.2116 23.8955 40.3624 24.0752 40.5519C24.2549 40.7414 24.3942 40.9654 24.4845 41.2105C24.5749 41.4555 24.6143 41.7163 24.6006 41.9771H23.9861C23.9861 41.6299 23.8482 41.2969 23.6027 41.0514C23.3572 40.8059 23.0242 40.668 22.677 40.668C22.3298 40.668 21.9968 40.8059 21.7513 41.0514C21.5058 41.2969 21.3679 41.6299 21.3679 41.9771M27.0745 44.1144H26.5402C26.5271 43.8794 26.5621 43.6441 26.6431 43.423C26.7241 43.2019 26.8493 42.9997 27.0111 42.8286C27.1729 42.6576 27.3678 42.5213 27.5841 42.4282C27.8003 42.3351 28.0333 42.2871 28.2688 42.2871C28.5042 42.2871 28.7372 42.3351 28.9534 42.4282C29.1697 42.5213 29.3647 42.6576 29.5265 42.8286C29.6883 42.9997 29.8135 43.2019 29.8944 43.423C29.9754 43.6441 30.0104 43.8794 29.9973 44.1144H29.463C29.4739 43.953 29.4515 43.7911 29.3972 43.6388C29.3429 43.4864 29.2579 43.3468 29.1474 43.2286C29.0369 43.1104 28.9034 43.0162 28.755 42.9518C28.6066 42.8874 28.4466 42.8542 28.2848 42.8542C28.123 42.8542 27.963 42.8874 27.8146 42.9518C27.6662 43.0162 27.5326 43.1104 27.4222 43.2286C27.3117 43.3468 27.2267 43.4864 27.1724 43.6388C27.1181 43.7911 27.0957 43.953 27.1066 44.1144M39.9893 46.6098C39.9893 46.6098 33.7537 45.9525 31.4454 46.0006V45.8296L39.9572 45.9365L39.9893 46.6098ZM42.0091 44.1144H41.4747C41.4617 43.8794 41.4967 43.6441 41.5776 43.423C41.6586 43.2019 41.7838 42.9997 41.9456 42.8286C42.1074 42.6576 42.3024 42.5213 42.5186 42.4282C42.7349 42.3351 42.9679 42.2871 43.2033 42.2871C43.4388 42.2871 43.6717 42.3351 43.888 42.4282C44.1042 42.5213 44.2992 42.6576 44.461 42.8286C44.6228 42.9997 44.748 43.2019 44.829 43.423C44.9099 43.6441 44.9449 43.8794 44.9319 44.1144H44.3494C44.3494 43.8013 44.225 43.5009 44.0036 43.2794C43.7821 43.058 43.4818 42.9336 43.1686 42.9336C42.8554 42.9336 42.555 43.058 42.3336 43.2794C42.1121 43.5009 41.9877 43.8013 41.9877 44.1144M48.6241 29.7944V29.9226H47.673V28.3196H48.6241V28.5921H47.9455V29.8211L48.6241 29.7944ZM50.2538 36.3346H47.3577V33.6629H50.2538V36.3346ZM49.8798 29.9226H48.9874V29.789H49.4309V28.6135H48.9874V28.3196H49.8798V29.9226ZM48.8432 27.0907C49.0265 27.0849 49.2047 27.1519 49.3389 27.277C49.473 27.4021 49.5522 27.5753 49.5592 27.7586H49.3882C49.3882 27.6169 49.3319 27.481 49.2317 27.3807C49.1315 27.2805 48.9956 27.2242 48.8539 27.2242C48.7121 27.2242 48.5762 27.2805 48.476 27.3807C48.3758 27.481 48.3195 27.6169 48.3195 27.7586H48.1485C48.1513 27.668 48.1719 27.5789 48.2091 27.4964C48.2463 27.4138 48.2994 27.3394 48.3654 27.2773C48.4314 27.2153 48.509 27.1669 48.5937 27.1349C48.6785 27.1028 48.7687 27.0878 48.8592 27.0907M46.4868 27.7425C46.4868 27.5541 46.5616 27.3733 46.6949 27.24C46.8282 27.1068 47.0089 27.0319 47.1974 27.0319C47.3859 27.0319 47.5667 27.1068 47.6999 27.24C47.8332 27.3733 47.9081 27.5541 47.9081 27.7425H47.7424C47.7424 27.6008 47.6861 27.4649 47.5859 27.3647C47.4857 27.2645 47.3498 27.2082 47.2081 27.2082C47.0664 27.2082 46.9305 27.2645 46.8303 27.3647C46.7301 27.4649 46.6738 27.6008 46.6738 27.7425H46.4868ZM49.8905 41.9771C49.8905 41.6299 49.7525 41.2969 49.507 41.0514C49.2615 40.8059 48.9285 40.668 48.5813 40.668C48.2341 40.668 47.9012 40.8059 47.6557 41.0514C47.4102 41.2969 47.2722 41.6299 47.2722 41.9771H46.6845C46.6845 41.4684 46.8866 40.9805 47.2463 40.6207C47.6061 40.261 48.094 40.0589 48.6027 40.0589C49.1115 40.0589 49.5994 40.261 49.9591 40.6207C50.3189 40.9805 50.521 41.4684 50.521 41.9771H49.8905ZM50.5904 27.251C50.4487 27.251 50.3128 27.3073 50.2126 27.4075C50.1124 27.5077 50.0561 27.6436 50.0561 27.7853H49.8905C49.8905 27.5968 49.9653 27.4161 50.0986 27.2828C50.2319 27.1495 50.4126 27.0746 50.6011 27.0746C50.7896 27.0746 50.9704 27.1495 51.1036 27.2828C51.2369 27.4161 51.3118 27.5968 51.3118 27.7853H51.1354C51.1354 27.6436 51.0791 27.5077 50.9789 27.4075C50.8787 27.3073 50.7428 27.251 50.6011 27.251" fill="#901915"/>
</g>
<path d="M23.6445 56.5532H25.7819V55.4258H23.6445V56.5532Z" fill="#901915"/>
<mask id="mask2_2030_9331" style="mask-type:luminance" maskUnits="userSpaceOnUse" x="-66" y="-151" width="601" height="425">
<path d="M534.165 -150.222H-65.6318V273.877H534.165V-150.222Z" fill="white"/>
</mask>
<g mask="url(#mask2_2030_9331)">
<path d="M3.28613 57.9749C3.28613 57.9749 7.68902 58.4558 9.81031 55.7842C10.879 57.0078 14.7636 59.8718 22.6342 56.5536C25.028 57.9749 31.7179 59.423 35.175 55.7842C35.175 55.7842 39.7221 60.5932 48.2607 56.2651C52.3965 57.8681 55.0628 60.0642 60.7694 55.9872C63.2327 57.3925 64.8357 58.1245 67.0852 58.007V59.2734C64.8357 59.4123 63.2327 58.6589 60.7694 57.2536C55.0628 61.3305 52.3965 59.1451 48.2607 57.5314C39.7115 61.8809 35.175 57.0505 35.175 57.0505C31.7232 60.6893 25.0227 59.2413 22.6342 57.82C14.7422 61.1382 10.879 58.2742 9.81031 57.0505C7.67299 59.7222 3.28613 59.2413 3.28613 59.2413V57.9749Z" fill="#901915"/>
<path d="M67.1063 62.463C64.8567 62.6072 63.2484 61.8538 60.7905 60.4485C55.0838 64.5255 52.4175 62.3347 48.2818 60.7264C39.7325 65.0758 35.196 60.2402 35.196 60.2402C31.7442 63.8789 25.0437 62.4309 22.6553 61.0096C14.7632 64.3331 10.9 61.4638 9.83134 60.2402C7.69401 62.9118 3.3125 62.4309 3.3125 62.4309V60.9134C3.3125 60.9134 7.71539 61.3943 9.83134 58.7227C10.9 59.9463 14.7899 62.8103 22.6553 59.4921C25.0491 60.9134 31.7389 62.3614 35.196 58.7227C35.196 58.7227 39.7432 63.5316 48.2818 59.2036C52.4175 60.8065 55.0838 63.0026 60.7905 58.9257C63.2484 60.331 64.8567 61.063 67.1063 60.9455V62.463Z" fill="#901915"/>
<path d="M57.4085 0H13.3957C13.3957 12.1079 0 12.498 0 12.498V67.7638C13.2567 68.1485 13.3957 80 13.3957 80H57.2696C59.1825 67.8921 70.3927 67.7638 70.3927 67.7638V12.3698C57.8199 11.4667 57.4085 0 57.4085 0ZM67.1066 65.1883C67.1066 65.1883 57.307 66.1822 54.6407 76.2811H16.0299C16.0299 76.2811 14.3521 67.4112 3.28613 64.8143V15.0628C3.28613 15.0628 13.2567 13.3957 15.9925 3.74031H54.6888C54.6888 3.74031 56.3826 12.9842 67.1066 14.9613V65.1883Z" fill="#901915"/>
<path d="M85.0757 29.4949L85.8504 27.6781H89.174L89.9488 29.4949H91.6693L88.303 21.5921H86.7535L83.3818 29.4949H85.0757ZM87.5122 23.6172L88.661 26.3477H86.3581L87.5122 23.6172ZM93.5662 31.0979V29.4949H98.9469V31.0979H100.454V28.0468H99.385V21.6349H93.8601V22.8798C93.8824 23.9329 93.7983 24.9856 93.6089 26.0217C93.4773 26.7386 93.2107 27.424 92.8235 28.0415H92.0487V31.0979H93.5662ZM94.6081 28.0415C95.2974 26.6415 95.4631 25.092 95.4631 23.0829H97.782V28.0415H94.6081ZM103.254 29.4895V24.1195L105.097 26.6469H105.995L107.801 24.1195V29.4949H109.404V21.6402H107.801L105.525 24.8943L103.243 21.6402H101.64V29.4949L103.254 29.4895ZM112.498 29.4895L116.345 24.3386V29.4949H117.948V21.6402H116.553L112.743 26.7591V21.6402H111.14V29.4949L112.498 29.4895ZM121.309 29.4895V26.0484H124.857V29.4949H126.46V21.6402H124.857V24.579H121.293V21.6402H119.69V29.4949L121.309 29.4895ZM129.564 29.4895L133.411 24.3386V29.4949H135.014V21.6402H133.62L129.842 26.7591V21.6402H128.239V29.4949L129.564 29.4895ZM140.748 29.6498C141.53 29.6674 142.303 29.4696 142.981 29.0781V27.4751C142.367 27.9393 141.613 28.1805 140.844 28.159C140.491 28.1688 140.14 28.1087 139.811 27.9822C139.482 27.8556 139.181 27.6651 138.926 27.4217C138.449 26.9243 138.183 26.2619 138.183 25.5729C138.183 24.8839 138.449 24.2215 138.926 23.7241C139.414 23.243 140.073 22.9742 140.758 22.976C141.491 22.9651 142.21 23.1755 142.821 23.5798V21.9768C141.999 21.5611 141.071 21.4006 140.157 21.5158C139.243 21.631 138.384 22.0167 137.691 22.6234C136.921 23.4077 136.49 24.463 136.49 25.5622C136.49 26.6614 136.921 27.7167 137.691 28.501C138.516 29.2687 139.611 29.6796 140.737 29.6445M143.82 23.0775H146.305V29.4895H147.908V23.0775H150.403V21.6402H143.831L143.82 23.0775ZM153.23 29.4895V26.3851H155.052C155.777 26.4233 156.491 26.1867 157.05 25.7225C157.292 25.5086 157.483 25.2439 157.611 24.9474C157.738 24.6509 157.798 24.3298 157.787 24.0073C157.798 23.6863 157.738 23.3669 157.61 23.0721C157.483 22.7774 157.291 22.5146 157.05 22.3028C156.491 21.8386 155.777 21.602 155.052 21.6402H151.616V29.4949L153.23 29.4895ZM153.23 23.0455H154.955C155.73 23.0455 156.19 23.3981 156.19 24.0233C156.19 24.6485 155.73 25.0011 154.955 25.0011H153.246L153.23 23.0455ZM159.161 29.4949L159.935 27.6781H163.259L164.039 29.4949H165.754L162.388 21.5921H160.833L157.461 29.4949H159.161ZM161.597 23.6172L162.741 26.3477H160.438L161.597 23.6172ZM174.421 31.0979V28.0468H173.352V21.6349H171.749V28.0468H168.458V21.6349H166.855V29.4949H172.936V31.0979H174.421ZM176.959 29.4949L180.812 24.3439V29.4949H182.415V21.6402H181.025L177.216 26.7591V21.6402H175.613V29.4949H176.959ZM185.348 29.4949L187.662 26.3209H189.03V29.4949H190.633V21.6402H187.015C186.298 21.5993 185.592 21.8301 185.038 22.2867C184.8 22.4942 184.611 22.7517 184.485 23.0409C184.358 23.33 184.297 23.6437 184.306 23.9592C184.295 24.4541 184.45 24.9384 184.748 25.334C185.046 25.7295 185.468 26.0132 185.947 26.1393L183.489 29.4949H185.348ZM187.095 24.9637C186.369 24.9637 185.931 24.6218 185.931 24.0073C185.931 23.3928 186.369 23.0508 187.095 23.0508H189.03V24.9637H187.095Z" fill="#901915"/>
<path d="M85.0757 29.4949L85.8504 27.6781H89.174L89.9488 29.4949H91.6693L88.303 21.5921H86.7535L83.3818 29.4949H85.0757ZM87.5122 23.6172L88.661 26.3477H86.3581L87.5122 23.6172ZM93.5662 31.0979V29.4949H98.9469V31.0979H100.454V28.0468H99.385V21.6349H93.8601V22.8798C93.8824 23.9329 93.7983 24.9856 93.6089 26.0217C93.4773 26.7386 93.2107 27.424 92.8235 28.0415H92.0487V31.0979H93.5662ZM94.6081 28.0415C95.2974 26.6415 95.4631 25.092 95.4631 23.0829H97.782V28.0415H94.6081ZM103.254 29.4895V24.1195L105.097 26.6469H105.995L107.801 24.1195V29.4949H109.404V21.6402H107.801L105.525 24.8943L103.243 21.6402H101.64V29.4949L103.254 29.4895ZM112.498 29.4895L116.345 24.3386V29.4949H117.948V21.6402H116.553L112.743 26.7591V21.6402H111.14V29.4949L112.498 29.4895ZM121.309 29.4895V26.0484H124.857V29.4949H126.46V21.6402H124.857V24.579H121.293V21.6402H119.69V29.4949L121.309 29.4895ZM129.564 29.4895L133.411 24.3386V29.4949H135.014V21.6402H133.62L129.842 26.7591V21.6402H128.239V29.4949L129.564 29.4895ZM140.748 29.6498C141.53 29.6674 142.303 29.4696 142.981 29.0781V27.4751C142.367 27.9393 141.613 28.1805 140.844 28.159C140.491 28.1688 140.14 28.1087 139.811 27.9822C139.482 27.8556 139.181 27.6651 138.926 27.4217C138.449 26.9243 138.183 26.2619 138.183 25.5729C138.183 24.8839 138.449 24.2215 138.926 23.7241C139.414 23.243 140.073 22.9742 140.758 22.976C141.491 22.9651 142.21 23.1755 142.821 23.5798V21.9768C141.999 21.5611 141.071 21.4006 140.157 21.5158C139.243 21.631 138.384 22.0167 137.691 22.6234C136.921 23.4077 136.49 24.463 136.49 25.5622C136.49 26.6614 136.921 27.7167 137.691 28.501C138.517 29.2752 139.616 29.6903 140.748 29.6552V29.6498ZM143.831 23.0829H146.315V29.4949H147.918V23.0829H150.414V21.6402H143.831V23.0829ZM153.24 29.4949V26.3851H155.062C155.788 26.4233 156.502 26.1867 157.061 25.7225C157.302 25.5086 157.494 25.2439 157.621 24.9474C157.749 24.6509 157.809 24.3298 157.798 24.0073C157.809 23.6863 157.749 23.3669 157.621 23.0721C157.493 22.7774 157.302 22.5146 157.061 22.3028C156.502 21.8386 155.788 21.602 155.062 21.6402H151.627V29.4949H153.24ZM153.24 23.0508H154.955C155.73 23.0508 156.19 23.4035 156.19 24.0287C156.19 24.6538 155.73 25.0065 154.955 25.0065H153.246L153.24 23.0508ZM159.161 29.4949L159.935 27.6781H163.259L164.039 29.4949H165.754L162.388 21.5921H160.833L157.461 29.4949H159.161ZM161.597 23.6172L162.741 26.3477H160.438L161.597 23.6172ZM174.421 31.0979V28.0468H173.352V21.6349H171.749V28.0468H168.458V21.6349H166.855V29.4949H172.936V31.0979H174.421ZM176.959 29.4949L180.812 24.3439V29.4949H182.415V21.6402H181.025L177.216 26.7591V21.6402H175.613V29.4949H176.959ZM185.348 29.4949L187.662 26.3209H189.03V29.4949H190.633V21.6402H187.015C186.298 21.5993 185.592 21.8301 185.038 22.2867C184.8 22.4942 184.611 22.7517 184.485 23.0409C184.358 23.33 184.297 23.6437 184.306 23.9592C184.295 24.4541 184.45 24.9384 184.748 25.334C185.046 25.7295 185.468 26.0132 185.947 26.1393L183.489 29.4949H185.348ZM187.095 24.9637C186.369 24.9637 185.931 24.6218 185.931 24.0073C185.931 23.3928 186.369 23.0508 187.095 23.0508H189.03V24.9637H187.095Z" stroke="#901915" stroke-width="0.25" stroke-miterlimit="3.97"/>
<path d="M85.6854 59.6745V56.5647H87.5021C88.2282 56.605 88.9424 56.3682 89.5005 55.9021C89.735 55.6827 89.9218 55.4175 90.0496 55.1229C90.1773 54.8283 90.2433 54.5106 90.2433 54.1896C90.2433 53.8685 90.1773 53.5508 90.0496 53.2562C89.9218 52.9617 89.735 52.6965 89.5005 52.477C88.9401 52.0167 88.2261 51.7857 87.5021 51.8305H84.0664V59.6905L85.6854 59.6745ZM85.6854 53.2304H87.3899C88.1647 53.2304 88.6242 53.5778 88.6242 54.2083C88.6242 54.8388 88.1647 55.1861 87.3899 55.1861H85.6854V53.2304ZM91.6005 59.6745L92.3753 57.8577H95.6988L96.4736 59.6745H98.1941L94.8225 51.7717H93.2729L89.9066 59.6745H91.6005ZM94.037 53.7968L95.1858 56.5273H92.8829L94.037 53.7968ZM100.593 59.6745L104.446 54.5235V59.6745H106.049V51.8305H104.654L100.85 56.9547V51.8305H99.2467V59.6905L100.593 59.6745ZM109.859 57.5852C109.418 57.0732 109.175 56.4201 109.175 55.7445C109.175 55.0689 109.418 54.4157 109.859 53.9037C110.082 53.6669 110.352 53.4799 110.652 53.3547C110.952 53.2294 111.275 53.1689 111.6 53.177C111.923 53.1695 112.244 53.2304 112.541 53.3556C112.839 53.4808 113.106 53.6676 113.326 53.9037C113.778 54.4106 114.027 55.0657 114.027 55.7445C114.027 56.4232 113.778 57.0783 113.326 57.5852C113.107 57.8231 112.84 58.0114 112.542 58.1377C112.245 58.2639 111.924 58.3251 111.6 58.3173C111.275 58.3257 110.951 58.2648 110.651 58.1386C110.35 58.0124 110.08 57.8238 109.859 57.5852ZM107.524 55.7471C107.512 56.2826 107.608 56.8148 107.807 57.3123C108.005 57.8098 108.301 58.2624 108.678 58.6432C109.456 59.4065 110.502 59.8341 111.592 59.8341C112.683 59.8341 113.729 59.4065 114.507 58.6432C114.886 58.2631 115.184 57.8109 115.384 57.3134C115.584 56.8159 115.682 56.2833 115.672 55.7471C115.684 55.2107 115.587 54.6773 115.387 54.1795C115.187 53.6816 114.888 53.2297 114.507 52.8511C113.729 52.0878 112.683 51.6602 111.592 51.6602C110.502 51.6602 109.456 52.0878 108.678 52.8511C108.299 53.2304 108.002 53.6827 107.803 54.1806C107.605 54.6784 107.51 55.2114 107.524 55.7471ZM118.744 59.6745V56.228H122.292V59.6745H123.895V51.8305H122.292V54.7747H118.744V51.8305H117.141V59.6905L118.744 59.6745ZM126.653 59.6745L127.422 57.8577H130.746L131.52 59.6745H133.241L129.875 51.7717H128.325L124.953 59.6745H126.653ZM129.084 53.7968L130.233 56.5273H127.93L129.084 53.7968Z" fill="#901915"/>
<path d="M85.6854 59.6745V56.5647H87.5021C88.2282 56.605 88.9424 56.3682 89.5005 55.9021C89.735 55.6827 89.9218 55.4175 90.0496 55.1229C90.1773 54.8283 90.2433 54.5106 90.2433 54.1896C90.2433 53.8685 90.1773 53.5508 90.0496 53.2562C89.9218 52.9617 89.735 52.6965 89.5005 52.477C88.9401 52.0167 88.2261 51.7857 87.5021 51.8305H84.0664V59.6905L85.6854 59.6745ZM85.6854 53.2304H87.3899C88.1647 53.2304 88.6242 53.5778 88.6242 54.2083C88.6242 54.8388 88.1647 55.1861 87.3899 55.1861H85.6854V53.2304ZM91.6005 59.6745L92.3753 57.8577H95.6988L96.4736 59.6745H98.1941L94.8225 51.7717H93.2729L89.9066 59.6745H91.6005ZM94.037 53.7968L95.1858 56.5273H92.8829L94.037 53.7968ZM100.593 59.6745L104.446 54.5235V59.6745H106.049V51.8305H104.654L100.85 56.9547V51.8305H99.2467V59.6905L100.593 59.6745ZM109.859 57.5852C109.418 57.0732 109.175 56.4201 109.175 55.7445C109.175 55.0689 109.418 54.4157 109.859 53.9037C110.082 53.6669 110.352 53.4799 110.652 53.3547C110.952 53.2294 111.275 53.1689 111.6 53.177C111.923 53.1695 112.244 53.2304 112.541 53.3556C112.839 53.4808 113.106 53.6676 113.326 53.9037C113.778 54.4106 114.027 55.0657 114.027 55.7445C114.027 56.4232 113.778 57.0783 113.326 57.5852C113.107 57.8231 112.84 58.0114 112.542 58.1377C112.245 58.2639 111.924 58.3251 111.6 58.3173C111.275 58.3257 110.951 58.2648 110.651 58.1386C110.35 58.0124 110.08 57.8238 109.859 57.5852ZM107.524 55.7471C107.512 56.2826 107.608 56.8148 107.807 57.3123C108.005 57.8098 108.301 58.2624 108.678 58.6432C109.456 59.4065 110.502 59.8341 111.592 59.8341C112.683 59.8341 113.729 59.4065 114.507 58.6432C114.886 58.2631 115.184 57.8109 115.384 57.3134C115.584 56.8159 115.682 56.2833 115.672 55.7471C115.684 55.2107 115.587 54.6773 115.387 54.1795C115.187 53.6816 114.888 53.2297 114.507 52.8511C113.729 52.0878 112.683 51.6602 111.592 51.6602C110.502 51.6602 109.456 52.0878 108.678 52.8511C108.299 53.2304 108.002 53.6827 107.803 54.1806C107.605 54.6784 107.51 55.2114 107.524 55.7471ZM118.744 59.6745V56.228H122.292V59.6745H123.895V51.8305H122.292V54.7747H118.744V51.8305H117.141V59.6905L118.744 59.6745ZM126.653 59.6745L127.422 57.8577H130.746L131.52 59.6745H133.241L129.875 51.7717H128.325L124.953 59.6745H126.653ZM129.084 53.7968L130.233 56.5273H127.93L129.084 53.7968Z" stroke="#901915" stroke-width="0.25" stroke-miterlimit="3.97"/>
<path d="M85.685 44.5844V40.9617L89.062 44.5844H91.1299L87.2239 40.3098L90.5581 36.7031H88.5811L85.685 39.8022V36.7031H84.082V44.5844H85.685ZM93.6091 44.5844V41.4746H95.4312C96.1571 41.5139 96.871 41.2772 97.4296 40.8121C97.664 40.5926 97.8509 40.3274 97.9787 40.0329C98.1064 39.7383 98.1723 39.4206 98.1723 39.0995C98.1723 38.7785 98.1064 38.4608 97.9787 38.1662C97.8509 37.8716 97.664 37.6064 97.4296 37.387C96.871 36.9219 96.1571 36.6852 95.4312 36.7244H91.9955V44.5844H93.6091ZM93.6091 38.1404H95.319C96.0938 38.1404 96.5533 38.4877 96.5533 39.1182C96.5533 39.7487 96.0938 40.0747 95.319 40.0747H93.6091V38.1404ZM99.5295 44.5844L100.304 42.7677H103.628L104.403 44.5844H106.118L102.752 36.6817H101.202L97.8357 44.5844H99.5295ZM101.966 38.7068L103.126 41.4319H100.823L101.966 38.7068ZM110.606 44.7447C111.389 44.7623 112.162 44.5645 112.84 44.173V42.57C112.226 43.035 111.472 43.2763 110.702 43.254C110.351 43.2666 110.001 43.2099 109.672 43.087C109.343 42.9641 109.041 42.7776 108.784 42.538C108.307 42.0406 108.041 41.3782 108.041 40.6892C108.041 40.0002 108.307 39.3378 108.784 38.8404C109.269 38.36 109.924 38.0894 110.606 38.087C111.339 38.076 112.058 38.2864 112.669 38.6908V37.0878C112.028 36.7564 111.316 36.5876 110.596 36.5962C109.466 36.5582 108.367 36.9693 107.539 37.7397C106.766 38.5226 106.333 39.5784 106.333 40.6785C106.333 41.7785 106.766 42.8343 107.539 43.6173C108.363 44.3869 109.458 44.7998 110.585 44.7661M115.816 44.6058V41.1433H119.364V44.5898H120.967V36.7244H119.364V39.6686H115.816V36.7244H114.213V44.5844L115.816 44.6058ZM124.777 42.5219C124.332 42.0106 124.088 41.3559 124.088 40.6785C124.088 40.001 124.332 39.3464 124.777 38.835C125.003 38.6048 125.273 38.422 125.57 38.2972C125.868 38.1723 126.188 38.108 126.511 38.108C126.833 38.108 127.153 38.1723 127.451 38.2972C127.748 38.422 128.018 38.6048 128.244 38.835C128.692 39.3449 128.939 40.0001 128.939 40.6785C128.939 41.3569 128.692 42.0121 128.244 42.5219C128.018 42.7521 127.748 42.935 127.451 43.0598C127.153 43.1846 126.833 43.2489 126.511 43.2489C126.188 43.2489 125.868 43.1846 125.57 43.0598C125.273 42.935 125.003 42.7521 124.777 42.5219ZM122.442 40.6785C122.43 41.2139 122.526 41.7462 122.725 42.2437C122.923 42.7412 123.219 43.1938 123.596 43.5746C123.973 43.9649 124.427 44.2725 124.929 44.4776C125.431 44.6828 125.971 44.781 126.513 44.7661C127.054 44.7818 127.592 44.6839 128.093 44.4787C128.594 44.2734 129.046 43.9654 129.42 43.5746C130.171 42.7975 130.591 41.7591 130.591 40.6785C130.591 39.5979 130.171 38.5595 129.42 37.7824C129.046 37.3915 128.594 37.0835 128.093 36.8783C127.592 36.673 127.054 36.5751 126.513 36.5909C125.971 36.5759 125.431 36.6742 124.929 36.8793C124.427 37.0845 123.973 37.3921 123.596 37.7824C123.217 38.1619 122.92 38.6143 122.722 39.1121C122.523 39.6099 122.428 40.1428 122.442 40.6785ZM133.663 44.6058V38.1938H137.713V36.7244H132.054V44.5844L133.663 44.6058ZM142.923 44.6058C143.637 44.6449 144.342 44.4269 144.91 43.9913C145.148 43.7981 145.338 43.5534 145.467 43.2756C145.595 42.9978 145.659 42.6944 145.653 42.3883C145.674 41.8797 145.507 41.381 145.183 40.9884C144.9 40.6335 144.504 40.3864 144.061 40.2884C144.363 40.1581 144.619 39.9392 144.794 39.6607C144.97 39.3822 145.057 39.0571 145.044 38.7282C145.044 37.4725 144.103 36.7618 142.666 36.7618H138.974V44.5844L142.923 44.6058ZM140.598 41.1433H142.634C143.43 41.1433 143.911 41.5174 143.911 42.18C143.911 42.8425 143.43 43.2005 142.634 43.2005H140.598V41.1433ZM140.598 38.0816H142.42C143.094 38.0816 143.489 38.4022 143.489 38.9579C143.489 39.5136 143.088 39.8075 142.42 39.8075H140.598V38.0816ZM148.009 44.5844L148.784 42.7677H152.108L152.882 44.5844H154.603L151.231 36.6817H149.682L146.316 44.5844H148.009ZM150.446 38.7068L151.595 41.4372H149.292L150.446 38.7068ZM157.264 44.5844V41.4746H159.081C159.807 41.515 160.521 41.2782 161.079 40.8121C161.313 40.5926 161.5 40.3274 161.628 40.0329C161.756 39.7383 161.822 39.4206 161.822 39.0995C161.822 38.7785 161.756 38.4608 161.628 38.1662C161.5 37.8716 161.313 37.6064 161.079 37.387C160.521 36.9209 159.807 36.6841 159.081 36.7244H155.645V44.5844H157.264ZM157.264 38.1404H158.968C159.743 38.1404 160.203 38.4877 160.203 39.1182C160.203 39.7487 159.765 40.0747 158.99 40.0747H157.285L157.264 38.1404ZM163.313 46.1928V44.5898H168.693V46.1928H170.205V43.1364H169.137V36.7244H163.628V37.9748C163.649 39.0276 163.567 40.0799 163.382 41.1166C163.246 41.8321 162.979 42.5167 162.597 43.1364H161.822V46.1928H163.313ZM164.381 43.1364C165.065 41.7365 165.231 40.1869 165.231 38.1725H167.534V43.1364H164.381ZM177.301 44.5844V43.1364H173.027V41.1433H176.372V39.69H173.027V38.1725H177.178V36.7244H171.408V44.5844H177.301ZM179.973 44.5844L183.81 39.4335V44.5844H185.413V36.7244H184.023L180.219 41.8487V36.7244H178.616V44.5844H179.973ZM191.157 44.7447C191.939 44.7623 192.712 44.5645 193.39 44.173V42.57C192.777 43.0361 192.022 43.2776 191.253 43.254C190.901 43.2673 190.55 43.2109 190.219 43.0881C189.889 42.9652 189.587 42.7782 189.329 42.538C188.852 42.0406 188.586 41.3782 188.586 40.6892C188.586 40.0002 188.852 39.3378 189.329 38.8404C189.578 38.6011 189.872 38.4137 190.194 38.2889C190.516 38.1642 190.859 38.1046 191.205 38.1137C191.939 38.1033 192.659 38.3136 193.273 38.7175V37.1145C192.63 36.7837 191.917 36.615 191.194 36.6229C190.629 36.5898 190.064 36.6691 189.53 36.8562C188.996 37.0433 188.505 37.3345 188.084 37.7129C187.311 38.4959 186.878 39.5517 186.878 40.6518C186.878 41.7518 187.311 42.8076 188.084 43.5906C188.491 43.9725 188.968 44.2705 189.49 44.4677C190.012 44.6648 190.567 44.7571 191.125 44.7394M196.356 44.5791V40.9617L199.738 44.5844H201.8L197.894 40.3098L201.229 36.7031H199.252L196.356 39.8022V36.7031H194.753V44.5844L196.356 44.5791ZM203.938 42.4952C203.493 41.9838 203.249 41.3292 203.249 40.6518C203.249 39.9743 203.493 39.3197 203.938 38.8083C204.164 38.5781 204.434 38.3953 204.732 38.2704C205.029 38.1456 205.349 38.0813 205.672 38.0813C205.994 38.0813 206.314 38.1456 206.612 38.2704C206.909 38.3953 207.179 38.5781 207.406 38.8083C207.853 39.3182 208.1 39.9734 208.1 40.6518C208.1 41.3301 207.853 41.9854 207.406 42.4952C207.179 42.7254 206.909 42.9083 206.612 43.0331C206.314 43.1579 205.994 43.2222 205.672 43.2222C205.349 43.2222 205.029 43.1579 204.732 43.0331C204.434 42.9083 204.164 42.7254 203.938 42.4952ZM201.603 40.6518C201.591 41.1872 201.688 41.7195 201.886 42.217C202.084 42.7145 202.38 43.1671 202.757 43.5478C203.535 44.3112 204.582 44.7387 205.672 44.7387C206.762 44.7387 207.808 44.3112 208.586 43.5478C209.334 42.7688 209.751 41.7312 209.751 40.6518C209.751 39.5724 209.334 38.5347 208.586 37.7557C207.808 36.9924 206.762 36.5648 205.672 36.5648C204.582 36.5648 203.535 36.9924 202.757 37.7557C202.379 38.1352 202.081 38.5875 201.883 39.0854C201.684 39.5832 201.589 40.1161 201.603 40.6518ZM212.824 44.5791V38.1671H216.874V36.7244H211.221V44.5844L212.824 44.5791ZM219.674 42.4952C219.229 41.9838 218.985 41.3292 218.985 40.6518C218.985 39.9743 219.229 39.3197 219.674 38.8083C219.9 38.5781 220.17 38.3953 220.468 38.2704C220.765 38.1456 221.085 38.0813 221.408 38.0813C221.73 38.0813 222.05 38.1456 222.348 38.2704C222.645 38.3953 222.915 38.5781 223.142 38.8083C223.589 39.3182 223.836 39.9734 223.836 40.6518C223.836 41.3301 223.589 41.9854 223.142 42.4952C222.915 42.7254 222.645 42.9083 222.348 43.0331C222.05 43.1579 221.73 43.2222 221.408 43.2222C221.085 43.2222 220.765 43.1579 220.468 43.0331C220.17 42.9083 219.9 42.7254 219.674 42.4952ZM217.339 40.6518C217.327 41.1872 217.424 41.7195 217.622 42.217C217.82 42.7145 218.116 43.1671 218.493 43.5478C218.87 43.9382 219.324 44.2457 219.826 44.4509C220.328 44.6561 220.868 44.7543 221.41 44.7394C221.951 44.7551 222.489 44.6572 222.99 44.452C223.491 44.2467 223.943 43.9387 224.317 43.5478C225.068 42.7707 225.488 41.7324 225.488 40.6518C225.488 39.5712 225.068 38.5328 224.317 37.7557C223.943 37.3648 223.491 37.0568 222.99 36.8516C222.489 36.6463 221.951 36.5484 221.41 36.5641C220.868 36.5492 220.328 36.6475 219.826 36.8526C219.324 37.0578 218.87 37.3653 218.493 37.7557C218.115 38.1352 217.817 38.5875 217.619 39.0854C217.42 39.5832 217.325 40.1161 217.339 40.6518Z" fill="#901915"/>
<path d="M85.685 44.585V40.9622L89.062 44.585H91.1299L87.2239 40.3103L90.5581 36.7036H88.5811L85.685 39.8027V36.7036H84.082V44.585H85.685ZM93.6091 44.585V41.4752H95.4312C96.1571 41.5144 96.871 41.2777 97.4296 40.8126C97.664 40.5932 97.8509 40.3279 97.9786 40.0334C98.1064 39.7388 98.1723 39.4211 98.1723 39.1001C98.1723 38.779 98.1064 38.4613 97.9786 38.1667C97.8509 37.8722 97.664 37.6069 97.4296 37.3875C96.871 36.9224 96.1571 36.6857 95.4312 36.725H91.9955V44.585H93.6091ZM93.6091 38.1409H95.319C96.0938 38.1409 96.5533 38.4882 96.5533 39.1188C96.5533 39.7493 96.0938 40.0752 95.319 40.0752H93.6091V38.1409ZM99.5295 44.585L100.304 42.7682H103.628L104.403 44.585H106.118L102.752 36.6822H101.202L97.8357 44.585H99.5295ZM101.966 38.7073L103.126 41.4324H100.823L101.966 38.7073ZM110.606 44.7453C111.389 44.7628 112.162 44.5651 112.84 44.1735V42.5705C112.226 43.0355 111.472 43.2768 110.702 43.2545C110.351 43.2671 110.001 43.2104 109.672 43.0875C109.343 42.9647 109.041 42.7781 108.784 42.5385C108.307 42.0411 108.041 41.3787 108.041 40.6897C108.041 40.0007 108.307 39.3383 108.784 38.8409C109.269 38.3605 109.924 38.0899 110.606 38.0875C111.339 38.0765 112.058 38.287 112.669 38.6913V37.0883C112.028 36.757 111.316 36.5881 110.596 36.5967C109.466 36.5587 108.367 36.9698 107.539 37.7402C106.766 38.5231 106.333 39.5789 106.333 40.679C106.333 41.779 106.766 42.8348 107.539 43.6178C108.372 44.385 109.475 44.7905 110.606 44.7453ZM115.837 44.585V41.1439H119.385V44.5903H120.988V36.725H119.385V39.6691H115.837V36.725H114.234V44.585H115.837ZM124.798 42.5011C124.354 41.9897 124.109 41.3351 124.109 40.6576C124.109 39.9802 124.354 39.3255 124.798 38.8142C125.024 38.584 125.294 38.4011 125.592 38.2763C125.89 38.1515 126.209 38.0872 126.532 38.0872C126.855 38.0872 127.174 38.1515 127.472 38.2763C127.77 38.4011 128.04 38.584 128.266 38.8142C128.713 39.324 128.96 39.9792 128.96 40.6576C128.96 41.336 128.713 41.9912 128.266 42.5011C128.04 42.7313 127.77 42.9141 127.472 43.039C127.174 43.1638 126.855 43.2281 126.532 43.2281C126.209 43.2281 125.89 43.1638 125.592 43.039C125.294 42.9141 125.024 42.7313 124.798 42.5011ZM122.463 40.6576C122.452 41.1931 122.548 41.7253 122.746 42.2228C122.944 42.7203 123.241 43.1729 123.617 43.5537C123.994 43.9441 124.448 44.2516 124.95 44.4568C125.453 44.6619 125.992 44.7602 126.535 44.7453C127.076 44.761 127.614 44.6631 128.114 44.4578C128.615 44.2526 129.067 43.9446 129.441 43.5537C130.192 42.7766 130.612 41.7382 130.612 40.6576C130.612 39.577 130.192 38.5387 129.441 37.7615C129.067 37.3707 128.615 37.0627 128.114 36.8574C127.614 36.6522 127.076 36.5543 126.535 36.57C125.992 36.5551 125.453 36.6533 124.95 36.8585C124.448 37.0636 123.994 37.3712 123.617 37.7615C123.236 38.1397 122.936 38.5914 122.734 39.0893C122.533 39.5872 122.435 40.1208 122.447 40.6576H122.463ZM133.684 44.585V38.173H137.734V36.725H132.054V44.585H133.684ZM142.944 44.585C143.659 44.624 144.364 44.406 144.932 43.9705C145.169 43.7773 145.359 43.5325 145.488 43.2547C145.617 42.977 145.68 42.6735 145.674 42.3675C145.696 41.8588 145.528 41.3602 145.204 40.9675C144.921 40.6126 144.525 40.3656 144.082 40.2676C144.384 40.1372 144.64 39.9184 144.816 39.6399C144.991 39.3614 145.078 39.0363 145.065 38.7073C145.065 37.4516 144.125 36.741 142.687 36.741H138.995V44.585H142.944ZM140.598 41.1439H142.634C143.43 41.1439 143.911 41.5179 143.911 42.1805C143.911 42.843 143.43 43.201 142.634 43.201H140.598V41.1439ZM140.598 38.0821H142.42C143.094 38.0821 143.489 38.4027 143.489 38.9585C143.489 39.5142 143.088 39.808 142.42 39.808H140.598V38.0821ZM148.009 44.585L148.784 42.7682H152.108L152.882 44.585H154.603L151.231 36.6822H149.682L146.316 44.585H148.009ZM150.446 38.7073L151.595 41.4377H149.292L150.446 38.7073ZM157.264 44.585V41.4752H159.081C159.807 41.5155 160.521 41.2787 161.079 40.8126C161.313 40.5932 161.5 40.3279 161.628 40.0334C161.756 39.7388 161.822 39.4211 161.822 39.1001C161.822 38.779 161.756 38.4613 161.628 38.1667C161.5 37.8722 161.313 37.6069 161.079 37.3875C160.521 36.9214 159.807 36.6846 159.081 36.725H155.645V44.585H157.264ZM157.264 38.1409H158.968C159.743 38.1409 160.203 38.4882 160.203 39.1188C160.203 39.7493 159.765 40.0752 158.99 40.0752H157.285L157.264 38.1409ZM163.313 46.1933V44.5903H168.693V46.1933H170.205V43.1369H169.137V36.725H163.628V37.9753C163.649 39.0281 163.567 40.0804 163.382 41.1171C163.246 41.8327 162.979 42.5172 162.597 43.1369H161.822V46.1933H163.313ZM164.381 43.1369C165.065 41.737 165.231 40.1874 165.231 38.173H167.534V43.1369H164.381ZM177.301 44.585V43.1369H173.027V41.1439H176.372V39.6905H173.027V38.173H177.178V36.725H171.408V44.585H177.301ZM179.973 44.585L183.81 39.434V44.585H185.413V36.725H184.023L180.219 41.8492V36.725H178.616V44.585H179.973ZM191.157 44.7453C191.939 44.7628 192.712 44.5651 193.39 44.1735V42.5705C192.777 43.0366 192.022 43.2781 191.253 43.2545C190.901 43.2678 190.55 43.2114 190.219 43.0886C189.889 42.9657 189.587 42.7787 189.329 42.5385C188.852 42.0411 188.586 41.3787 188.586 40.6897C188.586 40.0007 188.852 39.3383 189.329 38.8409C189.578 38.6016 189.872 38.4142 190.194 38.2894C190.516 38.1647 190.859 38.1051 191.205 38.1142C191.939 38.1038 192.659 38.3142 193.273 38.718V37.115C192.63 36.7843 191.917 36.6155 191.194 36.6234C190.629 36.5903 190.064 36.6696 189.53 36.8567C188.996 37.0438 188.505 37.335 188.084 37.7135C187.311 38.4964 186.878 39.5522 186.878 40.6523C186.878 41.7523 187.311 42.8081 188.084 43.5911C188.491 43.973 188.968 44.2711 189.49 44.4682C190.012 44.6653 190.567 44.7576 191.125 44.7399L191.157 44.7453ZM196.388 44.585V40.9622L199.77 44.585H201.832L197.927 40.3103L201.261 36.7036H199.284L196.388 39.8027V36.7036H194.785V44.585H196.388ZM203.97 42.5011C203.525 41.9897 203.281 41.3351 203.281 40.6576C203.281 39.9802 203.525 39.3255 203.97 38.8142C204.196 38.584 204.466 38.4011 204.764 38.2763C205.061 38.1515 205.381 38.0872 205.704 38.0872C206.027 38.0872 206.346 38.1515 206.644 38.2763C206.941 38.4011 207.211 38.584 207.438 38.8142C207.885 39.324 208.132 39.9792 208.132 40.6576C208.132 41.336 207.885 41.9912 207.438 42.5011C207.211 42.7313 206.941 42.9141 206.644 43.039C206.346 43.1638 206.027 43.2281 205.704 43.2281C205.381 43.2281 205.061 43.1638 204.764 43.039C204.466 42.9141 204.196 42.7313 203.97 42.5011ZM201.635 40.6576C201.623 41.1931 201.72 41.7253 201.918 42.2228C202.116 42.7203 202.412 43.1729 202.789 43.5537C203.567 44.317 204.614 44.7446 205.704 44.7446C206.794 44.7446 207.84 44.317 208.618 43.5537C209.366 42.7747 209.783 41.737 209.783 40.6576C209.783 39.5782 209.366 38.5406 208.618 37.7615C207.84 36.9982 206.794 36.5706 205.704 36.5706C204.614 36.5706 203.567 36.9982 202.789 37.7615C202.407 38.1392 202.105 38.5908 201.903 39.0887C201.701 39.5866 201.603 40.1204 201.613 40.6576H201.635ZM212.856 44.585V38.173H216.906V36.725H211.221V44.585H212.856ZM219.706 42.5011C219.262 41.9897 219.017 41.3351 219.017 40.6576C219.017 39.9802 219.262 39.3255 219.706 38.8142C219.932 38.584 220.202 38.4011 220.5 38.2763C220.797 38.1515 221.117 38.0872 221.44 38.0872C221.763 38.0872 222.082 38.1515 222.38 38.2763C222.678 38.4011 222.947 38.584 223.174 38.8142C223.621 39.324 223.868 39.9792 223.868 40.6576C223.868 41.336 223.621 41.9912 223.174 42.5011C222.947 42.7313 222.678 42.9141 222.38 43.039C222.082 43.1638 221.763 43.2281 221.44 43.2281C221.117 43.2281 220.797 43.1638 220.5 43.039C220.202 42.9141 219.932 42.7313 219.706 42.5011ZM217.371 40.6576C217.359 41.1931 217.456 41.7253 217.654 42.2228C217.852 42.7203 218.148 43.1729 218.525 43.5537C218.902 43.9441 219.356 44.2516 219.858 44.4568C220.361 44.6619 220.9 44.7602 221.442 44.7453C221.983 44.761 222.522 44.6631 223.022 44.4578C223.523 44.2526 223.975 43.9446 224.349 43.5537C225.1 42.7766 225.52 41.7382 225.52 40.6576C225.52 39.577 225.1 38.5387 224.349 37.7615C223.975 37.3707 223.523 37.0627 223.022 36.8574C222.522 36.6522 221.983 36.5543 221.442 36.57C220.9 36.5551 220.361 36.6533 219.858 36.8585C219.356 37.0636 218.902 37.3712 218.525 37.7615C218.144 38.1397 217.843 38.5914 217.642 39.0893C217.441 39.5872 217.343 40.1208 217.355 40.6576H217.371Z" stroke="#901915" stroke-width="0.25" stroke-miterlimit="3.97"/>
</g>
<path d="M102.527 49.5272L103.062 51.0287L106.7 49.6929L106.166 48.1914L102.527 49.5272Z" fill="#901915"/>
<path d="M102.527 49.5272L103.062 51.0287L106.7 49.6929L106.166 48.1914L102.527 49.5272Z" stroke="#901915" stroke-width="0.25" stroke-miterlimit="3.97"/>
<path d="M181.801 34.438L182.335 35.9395L185.963 34.6197L185.413 33.1289L181.801 34.438Z" fill="#901915"/>
<path d="M181.801 34.438L182.335 35.9395L185.963 34.6197L185.413 33.1289L181.801 34.438Z" stroke="#901915" stroke-width="0.25" stroke-miterlimit="3.97"/>
</g>
<defs>
<clipPath id="clip0_2030_9331">
<rect width="225.6" height="80" fill="white"/>
</clipPath>
</defs>
</svg>
