<svg width="44" height="50" viewBox="0 0 44 50" fill="none" xmlns="http://www.w3.org/2000/svg">
<g clip-path="url(#clip0_2310_11567)">
<path d="M9.86927 26.7162L9.89599 25.8946L12.0233 26.0482V25.2868L9.88931 25.1098C9.88931 25.1098 9.88931 22.2311 9.88931 21.6667C10.6104 21.7681 11.3234 21.9199 12.0233 22.1209V21.286C12.0233 21.286 6.43954 20.1806 5.75827 20.0771C6.23583 20.037 12.0233 20.6315 12.0233 20.6315C12.0233 20.6315 12.0033 20.1606 12.0233 19.8467C10.614 19.7031 2.05469 19.0352 2.05469 19.0352V28.9303C4.76642 28.8101 12.0233 29.2375 12.0233 29.2375L12.0467 26.9933L9.86927 26.7162ZM7.9724 21.2626C7.9724 21.2626 8.49337 21.3361 9.01101 21.4664C8.76054 21.6667 7.9724 22.3246 7.9724 22.3246V21.2626ZM3.96492 24.5688L4.48589 24.128V24.6189C4.48589 24.6189 4.08514 24.5955 3.96492 24.5688ZM4.22541 25.4271L4.17865 25.5874L3.19348 25.3803L4.22541 25.4271ZM3.09663 20.371L3.83802 20.5112L3.09663 21.119V20.371ZM3.09663 21.6267L4.34229 20.5847L4.44916 20.6048V23.6705L3.42057 24.512H3.08661L3.09663 21.6267ZM2.12816 20.1873L2.27844 20.224L2.1148 20.371L2.12816 20.1873ZM2.12816 20.8185L2.56564 20.4311V21.65L2.12816 21.984V20.8185ZM2.12816 22.4582L2.56564 22.0942V24.4686H2.1148L2.12816 22.4582ZM2.12816 26.5392V26.0716L4.66623 26.5091L2.12816 26.5392ZM7.32119 26.2052L5.14379 25.7777V25.5139L7.32119 25.6609V26.2052ZM7.32119 24.846C7.32119 24.846 6.12896 24.7458 5.74491 24.7124L7.30783 23.3766L7.32119 24.846ZM7.32119 22.8823L5.14379 24.6556V23.5636L7.32119 21.7502V22.8823ZM5.14379 23.0927V20.7417L7.48148 21.1625L5.14379 23.0927ZM9.35164 26.5959L7.9724 26.3388V25.7143L9.35164 25.8546V26.5959ZM9.35164 25.0464L7.9724 24.9328V22.8423L9.35164 21.6267V25.0464Z" fill="#901915"/>
<path d="M32.3613 27.0136L32.3947 29.2578C32.3947 29.2578 39.6549 28.8303 42.3667 28.9505V19.0354C42.3667 19.0354 41.2746 18.835 32.3947 19.8602C32.4181 20.1741 32.3947 20.645 32.3947 20.645C32.3947 20.645 38.1822 20.0606 38.6631 20.094C37.3573 20.1808 32.3947 21.3063 32.3947 21.3063V22.1412C33.0964 21.9429 33.8104 21.7912 34.532 21.687C34.532 22.2514 34.532 25.1301 34.532 25.1301L32.3947 25.3071V26.0818L34.5254 25.9149L34.5521 26.7364L32.3613 27.0136ZM36.4323 22.3382C36.4323 22.3382 35.6475 21.6703 35.397 21.4799C35.9146 21.3497 36.4323 21.2762 36.4323 21.2762V22.3382ZM39.8353 24.569V24.1349L40.3329 24.5623C40.1673 24.5753 40.0009 24.5753 39.8353 24.5623M40.944 25.4006L40.1358 25.5709L40.0724 25.4239L40.944 25.4006ZM41.1744 21.1259L40.4097 20.5448L41.1644 20.3879L41.1744 21.1259ZM41.1744 24.5189H40.9741L39.852 23.6106V20.605L41.1878 21.6369L41.1744 24.5189ZM41.9292 21.8005L41.6553 21.6068V20.448L41.9292 20.8354V21.8005ZM41.9292 24.4722H41.6553V22.041L41.9225 22.258L41.9292 24.4722ZM39.7418 26.526L41.9292 26.1386V26.536L39.7418 26.526ZM37.0701 25.6811L39.1707 25.5375V25.7278L37.0634 26.142L37.0701 25.6811ZM37.0701 23.4035L38.6364 24.7393L37.0701 24.8896V23.4035ZM37.0701 21.7705L39.1941 23.5304V24.6291L37.0701 22.9093V21.7705ZM36.9031 21.1827L39.2208 20.7051V23.0629L36.9031 21.1827ZM35.0664 25.8848L36.4423 25.7445V26.359L35.0664 26.6162V25.8848ZM35.0664 21.6469L36.4423 22.8625V24.9497L35.0664 25.0633V21.6469Z" fill="#901915"/>
<path d="M13.2227 12.6912L14.2245 11.7461L15.3633 12.6912H13.2227Z" fill="#901915"/>
<path d="M12.9336 12.8066H15.5618V13.3042H12.9336V12.8066Z" fill="#901915"/>
<path d="M13.3594 15.094H15.1627V13.3574H13.3594V15.094ZM14.8488 14.76H13.6633V13.6914H14.8488V14.76Z" fill="#901915"/>
<path d="M12.9343 15.168H15.5225L16.0735 15.7891H12.2363L12.9343 15.168Z" fill="#901915"/>
<path d="M16.3809 22.3008L18.8588 24.9992H16.3809V22.3008Z" fill="#901915"/>
<path d="M25.7793 24.9992L28.1704 22.3008V24.9992H25.7793Z" fill="#901915"/>
<path d="M29.2383 12.6895L30.2402 11.7344L31.3923 12.6895H29.2383Z" fill="#901915"/>
<path d="M29.0547 12.8242H31.5961V13.2951H29.0547V12.8242Z" fill="#901915"/>
<path d="M29.3887 15.1075H31.2254V13.4043H29.3887V15.1075ZM30.9048 14.7735H29.6959V13.6915H30.8948L30.9048 14.7735Z" fill="#901915"/>
<path d="M28.543 15.7619L29.0539 15.1875H31.5953L32.1731 15.7619H28.543Z" fill="#901915"/>
<path d="M12.2363 20.3705H12.6204V19.5957H12.2363V20.3705Z" fill="#901915"/>
<path d="M12.2363 21.63H12.6204V20.8652H12.2363V21.63Z" fill="#901915"/>
<path d="M12.2363 22.9054H12.6204V22.1406H12.2363V22.9054Z" fill="#901915"/>
<path d="M12.2363 24.2042H12.6204V23.4395H12.2363V24.2042Z" fill="#901915"/>
<path d="M12.2363 25.4542H12.6204V24.6895H12.2363V25.4542Z" fill="#901915"/>
<path d="M12.2363 26.6892H12.6204V25.9277H12.2363V26.6892Z" fill="#901915"/>
<path d="M12.2363 27.9523H12.6204V27.1875H12.2363V27.9523Z" fill="#901915"/>
<path d="M15.6953 20.3705H16.0794V19.5957H15.6953V20.3705Z" fill="#901915"/>
<path d="M15.6953 21.63H16.0794V20.8652H15.6953V21.63Z" fill="#901915"/>
<path d="M15.6953 22.9054H16.0794V22.1406H15.6953V22.9054Z" fill="#901915"/>
<path d="M15.6953 24.2062H16.0794V23.4414H15.6953V24.2062Z" fill="#901915"/>
<path d="M15.6953 25.4542H16.0794V24.6895H15.6953V25.4542Z" fill="#901915"/>
<path d="M15.6953 27.9523H16.0794V27.1875H15.6953V27.9523Z" fill="#901915"/>
<path d="M28.4609 20.3705H28.845V19.5957H28.4609V20.3705Z" fill="#901915"/>
<path d="M28.4609 21.63H28.845V20.8652H28.4609V21.63Z" fill="#901915"/>
<path d="M28.4609 22.9054H28.845V22.1406H28.4609V22.9054Z" fill="#901915"/>
<path d="M28.4609 24.2062H28.845V23.4414H28.4609V24.2062Z" fill="#901915"/>
<path d="M28.4609 25.4542H28.845V24.6895H28.4609V25.4542Z" fill="#901915"/>
<path d="M31.8477 26.6892H32.2317V25.9277H31.8477V26.6892Z" fill="#901915"/>
<path d="M28.4609 27.9523H28.845V27.1875H28.4609V27.9523Z" fill="#901915"/>
<path d="M31.8477 20.3705H32.2317V19.5957H31.8477V20.3705Z" fill="#901915"/>
<path d="M31.8477 21.63H32.2317V20.8652H31.8477V21.63Z" fill="#901915"/>
<path d="M31.8477 22.9054H32.2317V22.1406H31.8477V22.9054Z" fill="#901915"/>
<path d="M31.8477 24.2062H32.2317V23.4414H31.8477V24.2062Z" fill="#901915"/>
<path d="M31.8477 25.4542H32.2317V24.6895H31.8477V25.4542Z" fill="#901915"/>
<path d="M31.8477 27.9523H32.2317V27.1875H31.8477V27.9523Z" fill="#901915"/>
<path d="M12.2363 31.5855H13.5421V30.8809H12.2363V31.5855Z" fill="#901915"/>
<path d="M12.2363 35.3453H13.5421V34.6406H12.2363V35.3453Z" fill="#901915"/>
<path d="M12.2363 34.1145H13.5421V33.3965H12.2363V34.1145Z" fill="#901915"/>
<path d="M12.2363 32.8375H13.5421V32.1328H12.2363V32.8375Z" fill="#901915"/>
<path d="M12.2363 30.3101H13.5421V29.6055H12.2363V30.3101Z" fill="#901915"/>
<path d="M31.121 21.1562H29.8086V22.4386H31.121V21.1562Z" fill="#901915"/>
<path d="M31.002 31.5855H32.2376V30.8809H31.002V31.5855Z" fill="#901915"/>
<path d="M31.002 30.3101H32.2376V29.6055H31.002V30.3101Z" fill="#901915"/>
<path d="M31.002 35.3453H32.2376V34.6406H31.002V35.3453Z" fill="#901915"/>
<path d="M31.002 32.8375H32.2376V32.1328H31.002V32.8375Z" fill="#901915"/>
<path d="M12.2363 29.0548H13.5421V28.3535H12.2363V29.0548Z" fill="#901915"/>
<path d="M14.7377 21.1562H13.4219V22.4386H14.7377V21.1562Z" fill="#901915"/>
<path d="M31.002 29.0548H32.2376V28.3535H31.002V29.0548Z" fill="#901915"/>
<path d="M14.7773 29.0548H16.1132V28.3535H14.7773V29.0548Z" fill="#901915"/>
<path d="M28.4707 29.0548H29.7665V28.3535H28.4707V29.0548Z" fill="#901915"/>
<path d="M28.4707 31.5855H29.7665V30.8809H28.4707V31.5855Z" fill="#901915"/>
<path d="M28.4707 30.3101H29.7665V29.6055H28.4707V30.3101Z" fill="#901915"/>
<path d="M31.002 34.1145H32.2376V33.3965H31.002V34.1145Z" fill="#901915"/>
<path d="M28.4707 32.8375H29.7665V32.1328H28.4707V32.8375Z" fill="#901915"/>
<path d="M28.4707 35.3453H29.7665V34.6406H28.4707V35.3453Z" fill="#901915"/>
<path d="M14.7773 30.3101H16.1132V29.6055H14.7773V30.3101Z" fill="#901915"/>
<path d="M28.4707 34.1145H29.7665V33.3965H28.4707V34.1145Z" fill="#901915"/>
<path d="M14.7773 31.5855H16.1132V30.8809H14.7773V31.5855Z" fill="#901915"/>
<path d="M14.7773 34.1145H16.1132V33.3965H14.7773V34.1145Z" fill="#901915"/>
<path d="M14.7773 32.8375H16.1132V32.1328H14.7773V32.8375Z" fill="#901915"/>
<mask id="mask0_2310_11567" style="mask-type:luminance" maskUnits="userSpaceOnUse" x="-42" y="-94" width="376" height="266">
<path d="M333.854 -93.8887H-41.0195V171.173H333.854V-93.8887Z" fill="white"/>
</mask>
<g mask="url(#mask0_2310_11567)">
<path d="M32.9587 19.5023V19.0882H32.2273V15.8555H28.4469V19.1015H27.6321V19.4856H29.0547V20.4874H28.4469V20.7212H29.0547V21.7565H28.4536V21.9669H29.0547V23.0422H28.4469V23.306H29.0547V24.3413H28.4736V24.5584H29.0547V25.607H28.4636V27.0263H29.0547V28.0983H28.4736V28.1885H29.9597V29.2438H28.4736V29.4408H29.9597V30.4895H28.4736V30.7232H29.9597V31.7785H28.4736V31.9756H29.9597V33.0309H28.4736V33.2513H29.9597V34.3066H28.4736V34.4802H29.9597V35.5389H28.4736V35.8728L28.1397 35.9931V28.1985H27.2547V28.4323H27.051V27.9046H28.153V25.0961H25.6918V27.9113H26.8139V28.4323H26.6469V28.1818H25.7319V36.2702H25.5315V27.9714H25.0138V28.1518L19.1262 27.8178V36.2035H18.9258V28.1885H17.9874V28.439H17.8438V27.9113H18.9258V25.0894H16.3644V27.9113H17.5833V28.4256H17.3996V28.1751H16.351V35.9964L16.0939 35.786V35.5188H14.5844V34.4602H16.1039V34.2865H14.5844V33.2379H16.1005V33.0175H14.5844V31.9622H16.1005V31.7652H14.5844V30.7232H16.1005V30.4895H14.5844V29.4341H16.1005V29.2371H14.5844V28.1818H16.0972V28.0783H15.4727V27.0297H16.0905V25.5803H15.4727V24.5584H16.1072V24.3246H15.4727V23.2994H16.1139V23.0188H15.446V22.0003H16.0972V21.7298H15.4894V20.7279H16.0905V20.4941H15.466V19.4923H16.9955V19.0882H16.0738V15.8555H12.2367L12.2133 19.1015H11.502V19.5023H12.791V20.5208H12.2367V20.7479H12.8077V21.7498H12.2367V21.9535H12.8077V22.9955H12.2367V23.296H12.8077V24.338H12.2367V24.5417H12.8144V25.6003H12.2367V25.764H12.8077V26.8226H12.2367V27.0497H12.8144V28.0749H12.2367V28.1885H13.7328V29.2438H12.2367V29.4408H13.7328V30.4895H12.2367V30.7232H13.7328V31.7785H12.2367V31.9756H13.7328V33.0309H12.2367V33.2513H13.7328V34.3066H12.2367V34.4802H13.7328V35.5389H12.2367V35.9931L14.0634 35.7893L15.6263 36.0164L17.403 36.5608L19.6705 36.1433L19.6371 30.092C19.6371 30.092 23.127 30.2356 24.9571 30.6498V36.2335L26.7404 36.4172L30.267 35.5255L32.2206 36.0098V35.5389H30.8113V34.4802H32.2373V34.3066H30.8113V33.2379H32.2373V33.0175H30.8113V31.9622H32.2373V31.7652H30.8113V30.7232H32.2373V30.4895H30.8113V29.4341H32.2373V29.2371H30.8113V28.1818H32.2373V28.0516H31.6429V27.013H32.2273V26.8159H31.6529V25.7807H32.2273V25.5803H31.6429V24.5517H32.2373V24.3346H31.6362V23.306H32.2273V23.0188H31.6429V21.9869H32.2206V21.7598H31.6262V20.7045H32.2206V20.5008H31.6195V19.4989L32.9587 19.5023ZM15.0853 16.9208C15.1419 16.919 15.1983 16.9284 15.2512 16.9484C15.3042 16.9684 15.3527 16.9987 15.3939 17.0375C15.4352 17.0762 15.4684 17.1227 15.4916 17.1744C15.5149 17.226 15.5277 17.2817 15.5295 17.3382H15.4259C15.4259 17.2497 15.3908 17.1647 15.3281 17.1021C15.2655 17.0395 15.1806 17.0043 15.092 17.0043C15.0034 17.0043 14.9185 17.0395 14.8558 17.1021C14.7932 17.1647 14.758 17.2497 14.758 17.3382H14.6545C14.6562 17.2817 14.6691 17.226 14.6924 17.1744C14.7156 17.1227 14.7488 17.0762 14.7901 17.0375C14.8313 16.9987 14.8798 16.9684 14.9328 16.9484C14.9857 16.9284 15.0421 16.919 15.0987 16.9208M13.9265 18.5906V18.7008H13.3588V17.6989H13.9131V17.8893H13.6359V18.624L13.9265 18.5906ZM14.945 22.7083H13.135V21.0385H14.945V22.7083ZM14.1569 17.8659V17.6989H14.738V18.7008H14.1569V18.6306H14.5643V17.8625L14.1569 17.8659ZM13.9966 16.9341C14.0532 16.9324 14.1096 16.9418 14.1625 16.9618C14.2155 16.9818 14.264 17.0121 14.3052 17.0508C14.3465 17.0896 14.3797 17.1361 14.4029 17.1877C14.4262 17.2393 14.439 17.295 14.4408 17.3516H14.3372C14.3372 17.263 14.3021 17.1781 14.2394 17.1155C14.1768 17.0528 14.0919 17.0176 14.0033 17.0176C13.9147 17.0176 13.8298 17.0528 13.7671 17.1155C13.7045 17.1781 13.6693 17.263 13.6693 17.3516H13.5658C13.5675 17.295 13.5804 17.2393 13.6037 17.1877C13.6269 17.1361 13.6601 17.0896 13.7014 17.0508C13.7426 17.0121 13.7911 16.9818 13.8441 16.9618C13.897 16.9418 13.9534 16.9324 14.01 16.9341M12.6508 17.3516H12.5472C12.5472 17.2338 12.594 17.1208 12.6773 17.0375C12.7606 16.9542 12.8736 16.9074 12.9914 16.9074C13.1092 16.9074 13.2222 16.9542 13.3055 17.0375C13.3888 17.1208 13.4356 17.2338 13.4356 17.3516H13.332C13.332 17.263 13.2969 17.1781 13.2342 17.1155C13.1716 17.0528 13.0866 17.0176 12.9981 17.0176C12.9095 17.0176 12.8246 17.0528 12.7619 17.1155C12.6993 17.1781 12.6641 17.263 12.6641 17.3516M13.3588 26.2348H12.9747C12.9661 26.0719 12.9908 25.9088 13.0472 25.7557C13.1037 25.6025 13.1907 25.4625 13.3031 25.3441C13.4154 25.2257 13.5506 25.1314 13.7006 25.0669C13.8506 25.0025 14.0121 24.9693 14.1753 24.9693C14.3385 24.9693 14.5 25.0025 14.65 25.0669C14.7999 25.1314 14.9352 25.2257 15.0475 25.3441C15.1598 25.4625 15.2469 25.6025 15.3033 25.7557C15.3598 25.9088 15.3845 26.0719 15.3759 26.2348H14.9918C14.9918 26.0178 14.9056 25.8097 14.7522 25.6563C14.5987 25.5029 14.3906 25.4166 14.1736 25.4166C13.9566 25.4166 13.7485 25.5029 13.5951 25.6563C13.4416 25.8097 13.3554 26.0178 13.3554 26.2348M16.9221 27.5707H16.5881C16.5799 27.4237 16.6018 27.2767 16.6524 27.1385C16.703 27.0003 16.7813 26.8739 16.8824 26.767C16.9835 26.6601 17.1054 26.575 17.2405 26.5168C17.3757 26.4586 17.5213 26.4286 17.6685 26.4286C17.8156 26.4286 17.9612 26.4586 18.0964 26.5168C18.2315 26.575 18.3534 26.6601 18.4545 26.767C18.5556 26.8739 18.6339 27.0003 18.6845 27.1385C18.7351 27.2767 18.757 27.4237 18.7488 27.5707H18.4149C18.4217 27.4698 18.4077 27.3686 18.3737 27.2734C18.3398 27.1781 18.2867 27.0909 18.2176 27.017C18.1486 26.9432 18.0651 26.8843 17.9723 26.844C17.8796 26.8038 17.7796 26.783 17.6785 26.783C17.5774 26.783 17.4774 26.8038 17.3846 26.844C17.2919 26.8843 17.2084 26.9432 17.1393 27.017C17.0703 27.0909 17.0172 27.1781 16.9832 27.2734C16.9493 27.3686 16.9353 27.4698 16.9421 27.5707M24.9938 29.1302C24.9938 29.1302 21.0965 28.7195 19.6538 28.7495V28.6427L24.9738 28.7095L24.9938 29.1302ZM26.2562 27.5707H25.9222C25.914 27.4237 25.9359 27.2767 25.9865 27.1385C26.0371 27.0003 26.1154 26.8739 26.2165 26.767C26.3176 26.6601 26.4395 26.575 26.5746 26.5168C26.7098 26.4586 26.8554 26.4286 27.0026 26.4286C27.1497 26.4286 27.2953 26.4586 27.4305 26.5168C27.5656 26.575 27.6875 26.6601 27.7886 26.767C27.8897 26.8739 27.968 27.0003 28.0186 27.1385C28.0692 27.2767 28.0911 27.4237 28.0829 27.5707H27.7189C27.7189 27.3749 27.6411 27.1872 27.5027 27.0488C27.3643 26.9104 27.1766 26.8326 26.9808 26.8326C26.7851 26.8326 26.5974 26.9104 26.459 27.0488C26.3206 27.1872 26.2428 27.3749 26.2428 27.5707M30.3905 18.6206V18.7008H29.7961V17.6989H30.3905V17.8692H29.9664V18.6373L30.3905 18.6206ZM31.4091 22.7083H29.5991V21.0385H31.4091V22.7083ZM31.1753 18.7008H30.6176V18.6173H30.8948V17.8826H30.6176V17.6989H31.1753V18.7008ZM30.5275 16.9308C30.6421 16.9272 30.7534 16.9691 30.8373 17.0473C30.9211 17.1255 30.9706 17.2337 30.975 17.3483H30.8681C30.8681 17.2597 30.8329 17.1747 30.7703 17.1121C30.7077 17.0495 30.6227 17.0143 30.5341 17.0143C30.4456 17.0143 30.3606 17.0495 30.298 17.1121C30.2354 17.1747 30.2002 17.2597 30.2002 17.3483H30.0933C30.0951 17.2917 30.1079 17.236 30.1312 17.1844C30.1544 17.1328 30.1876 17.0863 30.2289 17.0475C30.2701 17.0087 30.3186 16.9785 30.3716 16.9584C30.4245 16.9384 30.4809 16.929 30.5375 16.9308M29.0547 17.3382C29.0547 17.2204 29.1015 17.1075 29.1848 17.0242C29.2681 16.9409 29.3811 16.8941 29.4989 16.8941C29.6167 16.8941 29.7297 16.9409 29.813 17.0242C29.8962 17.1075 29.943 17.2204 29.943 17.3382H29.8395C29.8395 17.2497 29.8043 17.1647 29.7417 17.1021C29.6791 17.0395 29.5941 17.0043 29.5056 17.0043C29.417 17.0043 29.332 17.0395 29.2694 17.1021C29.2068 17.1647 29.1716 17.2497 29.1716 17.3382H29.0547ZM31.182 26.2348C31.182 26.0178 31.0958 25.8097 30.9424 25.6563C30.7889 25.5029 30.5808 25.4166 30.3638 25.4166C30.1468 25.4166 29.9387 25.5029 29.7853 25.6563C29.6318 25.8097 29.5456 26.0178 29.5456 26.2348H29.1783C29.1783 25.9169 29.3046 25.6119 29.5294 25.3871C29.7543 25.1623 30.0592 25.0359 30.3772 25.0359C30.6952 25.0359 31.0001 25.1623 31.2249 25.3871C31.4498 25.6119 31.5761 25.9169 31.5761 26.2348H31.182ZM31.6195 17.031C31.5309 17.031 31.446 17.0662 31.3834 17.1288C31.3207 17.1914 31.2855 17.2764 31.2855 17.365H31.182C31.182 17.2472 31.2288 17.1342 31.3121 17.0509C31.3954 16.9676 31.5084 16.9208 31.6262 16.9208C31.744 16.9208 31.857 16.9676 31.9403 17.0509C32.0236 17.1342 32.0703 17.2472 32.0703 17.365H31.9601C31.9601 17.2764 31.925 17.1914 31.8623 17.1288C31.7997 17.0662 31.7148 17.031 31.6262 17.031" fill="#901915"/>
</g>
<path d="M14.7773 35.3453H16.1132V34.6406H14.7773V35.3453Z" fill="#901915"/>
<path d="M2.05469 36.2345C2.05469 36.2345 4.80649 36.535 6.1323 34.8652C6.80021 35.63 9.22808 37.42 14.1473 35.3461C15.6434 36.2345 19.8245 37.1395 21.9852 34.8652C21.9852 34.8652 24.8272 37.8708 30.1638 35.1658C32.7486 36.1677 34.4151 37.5402 37.9818 34.9921C39.5213 35.8704 40.5232 36.328 41.9291 36.2545V37.046C40.5232 37.1328 39.5213 36.6619 37.9818 35.7836C34.4151 38.3317 32.7486 36.9658 30.1638 35.9573C24.8205 38.6757 21.9852 35.6567 21.9852 35.6567C19.8279 37.931 15.64 37.0259 14.1473 36.1376C9.21472 38.2115 6.80021 36.4215 6.1323 35.6567C4.79647 37.3265 2.05469 37.0259 2.05469 37.0259V36.2345Z" fill="#901915"/>
<path d="M41.9414 39.0389C40.5354 39.129 39.5302 38.6582 37.994 37.7799C34.4274 40.3279 32.7609 38.9587 30.1761 37.9535C24.8328 40.6719 21.9975 37.6496 21.9975 37.6496C19.8402 39.9239 15.6523 39.0188 14.1595 38.1305C9.22701 40.2077 6.8125 38.4144 6.14458 37.6496C4.80876 39.3194 2.07031 39.0188 2.07031 39.0188V38.0704C2.07031 38.0704 4.82212 38.371 6.14458 36.7012C6.8125 37.4659 9.2437 39.2559 14.1595 37.1821C15.6557 38.0704 19.8368 38.9754 21.9975 36.7012C21.9975 36.7012 24.8395 39.7068 30.1761 37.0017C32.7609 38.0036 34.4274 39.3762 37.994 36.8281C39.5302 37.7064 40.5354 38.1639 41.9414 38.0904V39.0389Z" fill="#901915"/>
<path d="M35.8803 0H8.37229C8.37229 7.56746 0 7.81125 0 7.81125V42.3524C8.28547 42.5928 8.37229 50 8.37229 50H35.7935C36.989 42.4325 43.9955 42.3524 43.9955 42.3524V7.7311C36.1375 7.16671 35.8803 0 35.8803 0ZM41.9416 40.7427C41.9416 40.7427 35.8169 41.3639 34.1504 47.6757H10.0187C10.0187 47.6757 8.97008 42.132 2.05383 40.509V9.41424C2.05383 9.41424 8.28547 8.37229 9.99532 2.3377H34.1805C34.1805 2.3377 35.2391 8.11515 41.9416 9.35079V40.7427Z" fill="#901915"/>
</g>
<defs>
<clipPath id="clip0_2310_11567">
<rect width="43.75" height="50" fill="white"/>
</clipPath>
</defs>
</svg>
