<svg width="44" height="50" viewBox="0 0 44 50" fill="none" xmlns="http://www.w3.org/2000/svg">
<path fill-rule="evenodd" clip-rule="evenodd" d="M43.9443 0.00568053C43.9443 0.00568053 43.9356 43.0763 43.9356 44.1176C43.9356 47.7405 39.2129 47.6389 39.2129 47.6389C39.2129 47.6389 30.1359 47.6389 26.6961 47.6389C24.1212 47.6389 22.5513 50 22.5513 50C22.5513 50 21.161 47.6389 18.1218 47.6389C13.7009 47.6389 6.39351 47.6389 6.39351 47.6389C6.39351 47.6389 0.875 47.8578 0.875 44.5508C0.875 42.6761 0.875 0 0.875 0L43.9443 0.00568053Z" fill="#D12E18"/>
<path fill-rule="evenodd" clip-rule="evenodd" d="M23.908 24.4315L33.2865 14.6319C33.2865 14.6319 34.6888 13.3996 35.6982 13.4742C36.7076 13.5487 37.1624 13.8602 37.1624 13.8602C37.1624 13.8602 37.1664 14.8432 36.1719 15.747C35.9651 15.3448 35.9135 15.2753 35.9135 15.2753C35.9135 15.2753 33.9815 17.8176 33.3725 18.234C34.6035 17.87 36.0758 17.4134 37.3779 16.4759C36.8901 16.284 36.8179 16.2615 36.8179 16.2615C36.8179 16.2615 37.6518 15.4261 37.9378 15.0179C38.1036 15.5436 38.1377 16.7999 37.1624 17.7726C37.0084 17.5681 36.8179 17.2904 36.8179 17.2904C36.8179 17.2904 35.3097 19.4881 34.2771 20.4634C35.3845 20.2143 36.8756 19.6609 38.4978 18.4481C37.8343 18.3441 37.7656 18.3196 37.7656 18.3196C37.7656 18.3196 39.2729 16.8648 39.2729 14.8036C39.2729 13.65 38.0671 12.7883 38.0671 12.7883C38.0671 12.7883 37.4934 11.8926 36.1719 11.8878C35.1099 11.8878 34.7938 12.2308 34.7938 12.2308C34.7938 12.2308 35.3302 10.3396 34.9231 9.65815C34.3646 8.7237 33.5446 8.67192 33.5446 8.67192C33.5446 8.67192 32.8452 7.72852 31.176 7.72852C29.5065 7.72852 28.1611 9.22927 28.1611 9.22927L27.9458 8.92907C27.9458 8.92907 27.2302 9.61292 26.5247 12.6594C27.3267 11.8143 28.1714 10.8836 29.3241 10.1296C28.8154 9.90197 28.8073 9.9153 28.8073 9.9153C28.8073 9.9153 29.6905 8.80148 30.9213 8.80148C31.1644 8.80148 31.6544 8.92623 31.6544 8.92623C31.6544 8.92623 31.0754 9.25854 30.444 10.1725C30.157 9.76083 30.1425 9.74379 30.1425 9.74379C30.1425 9.74379 29.1125 11.0029 28.635 13.6457C29.3825 12.9561 30.8205 11.7302 31.7791 11.1159C31.0397 10.8591 31.0038 10.8585 31.0038 10.8585C31.0038 10.8585 31.796 9.80606 32.5973 9.82944C32.8807 9.83774 33.2694 9.99876 33.3604 10.415C33.4514 10.8314 33.5315 12.0433 32.7697 12.9168C32.1696 13.6044 26.3046 19.5901 23.7754 22.0933" fill="white"/>
<path d="M23.9865 24.5054L23.8283 24.3544L33.2068 14.5549C33.2722 14.4967 34.6697 13.2905 35.7056 13.3637C36.7328 13.4395 37.2042 13.7552 37.2237 13.7685L37.2709 13.8009L37.2712 13.8581C37.2714 13.9003 37.2635 14.9003 36.2447 15.826L36.139 15.9221L36.0738 15.7952C35.9951 15.642 35.9395 15.5385 35.901 15.4688C35.5671 15.9035 34.4858 17.2959 33.808 17.9868C34.9703 17.6302 36.0983 17.2179 37.1475 16.5015C36.8459 16.384 36.7868 16.3648 36.784 16.3639L36.614 16.309L36.7395 16.1825C36.7479 16.1742 37.57 15.349 37.8472 14.9536L37.9745 14.772L38.0412 14.9833C38.2125 15.5264 38.2653 16.8242 37.239 17.848L37.15 17.9367L37.0743 17.8365C36.9865 17.72 36.8872 17.5802 36.8172 17.4803C36.509 17.9217 35.4851 19.361 34.6299 20.2618C35.857 19.9321 37.0624 19.3453 38.2213 18.5129C37.8229 18.4478 37.7433 18.4261 37.7277 18.4207L37.5628 18.3612L37.6888 18.2393C37.7035 18.2251 39.1627 16.7906 39.1627 14.8017C39.1627 13.717 38.0141 12.8835 38.0025 12.8754L37.9743 12.8457C37.9518 12.8112 37.4127 11.9997 36.1705 11.9953C35.185 11.9953 34.8754 12.301 34.8723 12.3043L34.5711 12.6132L34.6877 12.1994C34.6929 12.1811 35.2066 10.3458 34.8284 9.71243C34.3055 8.83763 33.5446 8.77973 33.5369 8.77929L33.4866 8.77601L33.4562 8.73538C33.4494 8.72642 32.7638 7.83611 31.1753 7.83611C29.5732 7.83611 28.2549 9.28573 28.2418 9.30037L28.1508 9.40175L27.9392 9.10701C27.7472 9.37094 27.2418 10.2108 26.7257 12.2853C27.4223 11.5494 28.1493 10.7968 29.0976 10.1472C28.8434 10.0362 28.7933 10.0218 28.7876 10.0203L28.8117 9.92545L28.7126 9.85684C28.7246 9.83718 28.7347 9.82145 28.7483 9.81184C28.9123 9.61804 29.759 8.69037 30.9202 8.69037C31.1742 8.69037 31.6597 8.81337 31.6802 8.81862L31.9401 8.88482L31.708 9.01918C31.7023 9.02246 31.1401 9.35368 30.5328 10.2326L30.4431 10.3624L30.3529 10.2331C30.2514 10.0876 30.1843 9.99187 30.1399 9.92872C29.8979 10.2776 29.2037 11.4037 28.8036 13.3416C29.5312 12.6879 30.6737 11.7262 31.5328 11.145C31.0644 10.9842 30.9905 10.9659 30.9828 10.9641L30.7677 10.9608L30.9152 10.7911C30.9487 10.7467 31.7327 9.71789 32.5698 9.71789C32.5796 9.71789 32.5895 9.71811 32.5995 9.71833C32.9603 9.72903 33.3681 9.94074 33.4663 10.3897C33.4798 10.4516 33.7861 11.9145 32.8511 12.9866C32.2405 13.6862 26.3527 19.6933 23.8513 22.1687L23.6973 22.0136C26.1967 19.54 32.0775 13.5404 32.6861 12.8428C33.377 12.0508 33.3587 10.9222 33.2525 10.436C33.169 10.0546 32.7986 9.94249 32.5929 9.93659C32.5851 9.93637 32.5772 9.93615 32.5693 9.93615C31.9996 9.93615 31.4195 10.5348 31.1911 10.7992C31.3064 10.8363 31.4967 10.9005 31.8137 11.0106L32.0261 11.0843L31.8369 11.2058C30.8771 11.8208 29.4398 13.0486 28.7078 13.7238L28.468 13.9451L28.526 13.6241C29.0031 10.984 30.0136 9.72466 30.0565 9.67244L30.1405 9.56976L30.2254 9.67157C30.2366 9.68512 30.337 9.828 30.4435 9.98029C30.824 9.45702 31.1757 9.14088 31.3891 8.97549C31.2355 8.94315 31.0421 8.90841 30.9204 8.90841C29.9922 8.90841 29.258 9.58615 28.9959 9.86405C29.0836 9.90054 29.2031 9.95385 29.368 10.0277L29.5505 10.1094L29.3831 10.2189C28.3271 10.9095 27.5424 11.7393 26.7837 12.542L26.3267 13.024L26.4173 12.6327C27.1221 9.5892 27.8393 8.87695 27.8695 8.8479L27.9607 8.76094L28.1725 9.05611C28.5102 8.71462 29.7098 7.61719 31.1755 7.61719C32.7069 7.61719 33.4453 8.38165 33.6013 8.56627C33.7966 8.59358 34.5085 8.7498 35.0165 9.59991C35.3514 10.1603 35.1014 11.4314 34.9677 11.9897C35.186 11.8878 35.5636 11.7764 36.1712 11.7764C37.4486 11.781 38.0533 12.5748 38.1465 12.7093C38.3003 12.8234 39.3816 13.6663 39.3816 14.8015C39.3816 16.533 38.3611 17.8273 37.9802 18.25C38.087 18.2693 38.2543 18.2977 38.5142 18.3383L38.7704 18.3785L38.5628 18.5336C37.1968 19.5546 35.7629 20.2393 34.3005 20.5681L33.9119 20.6555L34.2011 20.3822C35.2136 19.4261 36.712 17.2485 36.7269 17.2267L36.8172 17.0951L36.9076 17.2267C36.9078 17.2271 37.0401 17.4198 37.1727 17.6014C37.8787 16.8321 37.9905 15.8651 37.8846 15.2643C37.6223 15.5865 37.2149 16.0102 37.0141 16.2155C37.0992 16.2479 37.2267 16.2972 37.4173 16.3722L37.6037 16.4454L37.4411 16.5625C36.1784 17.4716 34.8104 17.9204 33.4028 18.3368L32.7369 18.5336L33.3101 18.1419C33.8977 17.7403 35.8065 15.2326 35.8257 15.2072L35.9141 15.091L36.0008 15.2083C36.0091 15.2197 36.0546 15.2857 36.2014 15.566C36.9143 14.8625 37.0301 14.1299 37.0489 13.9186C36.9069 13.8415 36.467 13.6388 35.6897 13.5813C34.7378 13.5118 33.3718 14.7004 33.358 14.7122L23.9865 24.5054Z" fill="#D12E18"/>
<path fill-rule="evenodd" clip-rule="evenodd" d="M21.3088 22.0406L10.288 11.2423C10.288 11.2423 9.94251 10.5489 10.5896 10.1274C11.2365 9.70618 11.7896 9.40686 12.8723 9.61289C13.955 9.81891 14.4658 10.2561 14.4658 10.2561L13.9491 10.8137C13.9491 10.8137 15.7041 11.4088 17.3945 12.6572C16.9546 11.4868 16.1162 9.87506 15.2412 8.88381C15.0716 9.56263 14.9826 9.65571 14.9826 9.65571C14.9826 9.65571 13.8929 8.65637 12.3553 8.5408C11.5304 8.5408 10.3919 8.7123 9.16828 8.7123C7.94469 8.7123 6.45508 8.41211 6.45508 8.41211C6.45508 8.41211 6.75633 9.67799 6.75633 10.6419C6.75633 11.6057 6.46164 13.6559 6.62725 14.4579C6.8574 15.7717 7.57475 16.6449 7.57475 16.6449C7.57475 16.6449 7.26016 16.8392 6.97182 16.9021C7.09608 17.0459 8.39842 18.249 10.6325 19.1747C10.1943 18.5267 9.16041 16.9547 8.60823 15.6157C8.23938 16.1848 8.13459 16.2158 8.13459 16.2158C8.13459 16.2158 7.64498 15.4072 7.61785 14.4577C7.5905 13.5084 7.9797 12.733 8.26366 12.3996C8.54763 12.066 8.76443 11.9358 9.03899 11.971C9.30458 12.0048 9.34417 12.1888 9.94339 12.7857C10.5045 13.3441 19.9318 23.2429 21.1419 24.5136" fill="white"/>
<path fill-rule="evenodd" clip-rule="evenodd" d="M12.9007 35.7717C13.322 36.3883 13.5684 37.1335 13.5684 37.9362C13.5684 40.0596 11.8449 41.7808 9.71886 41.7808C7.59262 41.7808 5.86914 40.0596 5.86914 37.9362C5.86914 35.813 7.59262 34.0918 9.71886 34.0918C10.3281 34.0918 10.9046 34.2332 11.4165 34.4848" fill="white"/>
<path fill-rule="evenodd" clip-rule="evenodd" d="M32.2436 35.9454C31.8929 36.5249 31.6914 37.2041 31.6914 37.9303C31.6914 40.0538 33.4149 41.775 35.5411 41.775C37.6671 41.775 39.3908 40.0538 39.3908 37.9303C39.3908 35.8071 37.6671 34.0859 35.5411 34.0859C34.9316 34.0859 34.234 34.2786 33.722 34.5303" fill="white"/>
<path d="M35.545 41.8839C33.3619 41.8839 31.5859 40.1102 31.5859 37.93C31.5859 37.2086 31.7824 36.5027 32.1541 35.8885L32.3411 36.0017C31.9902 36.5817 31.8047 37.2488 31.8047 37.9302C31.8047 39.9898 33.4825 41.6656 35.545 41.6656C37.6076 41.6656 39.2854 39.9901 39.2854 37.9302C39.2854 35.8706 37.6076 34.195 35.545 34.195C34.9964 34.195 34.3177 34.3611 33.7741 34.6281L33.6776 34.4321C34.2495 34.1511 34.9649 33.9766 35.545 33.9766C37.7282 33.9766 39.5042 35.7502 39.5042 37.9302C39.5039 40.1102 37.7279 41.8839 35.545 41.8839Z" fill="#D12E18"/>
<path fill-rule="evenodd" clip-rule="evenodd" d="M34.819 35.6781C35.073 35.5854 35.255 35.5664 35.5412 35.5664C36.8508 35.5664 37.9124 36.6267 37.9124 37.9343C37.9124 39.2424 36.8508 40.3024 35.5412 40.3024C34.2316 40.3024 33.1699 39.2421 33.1699 37.9343C33.1699 37.6103 33.2351 37.3014 33.353 37.02" fill="#D12E18"/>
<path fill-rule="evenodd" clip-rule="evenodd" d="M11.8322 36.8554C11.9985 37.179 12.0921 37.5459 12.0921 37.9343C12.0921 39.2424 11.0304 40.3024 9.72109 40.3024C8.41153 40.3024 7.34961 39.2421 7.34961 37.9343C7.34961 36.6265 8.41153 35.5664 9.72109 35.5664C9.94796 35.5664 10.1676 35.5983 10.3754 35.6577" fill="#D12E18"/>
<path d="M31.6582 8.92053C31.6582 8.92053 32.4959 8.47159 33.5488 8.66602Z" fill="white"/>
<path d="M31.7089 9.01691L31.6055 8.82445C31.6411 8.80544 32.49 8.35999 33.5676 8.55879L33.5278 8.77354C32.5243 8.58807 31.717 9.01254 31.7089 9.01691Z" fill="#D12E18"/>
<path d="M37.1641 13.8594C37.1641 13.8594 37.6753 14.0464 37.9394 15.017Z" fill="white"/>
<path d="M37.8334 15.0465C37.5901 14.1526 37.1296 13.9643 37.125 13.9625L37.2014 13.7578C37.2243 13.7663 37.7688 13.9761 38.0445 14.9893L37.8334 15.0465Z" fill="#D12E18"/>
<path fill-rule="evenodd" clip-rule="evenodd" d="M28.1632 9.22656C28.1632 9.22656 27.5478 9.92046 26.5742 12.5903C27.9418 10.6709 28.8092 9.91281 28.8092 9.91281" fill="white"/>
<path d="M26.1953 13.3087L26.4716 12.551C27.441 9.89234 28.0557 9.18118 28.0813 9.15234L28.2454 9.29698C28.2399 9.3031 27.7475 9.87923 26.9612 11.8755C28.042 10.4427 28.7057 9.85629 28.7372 9.82876L28.8814 9.99306C28.8726 10.0007 28.0056 10.7682 26.6635 12.6518L26.1953 13.3087Z" fill="#D12E18"/>
<path fill-rule="evenodd" clip-rule="evenodd" d="M30.4496 10.1699C30.4496 10.1699 29.6028 11.1201 28.6406 13.6431C29.9045 11.9095 31.0095 10.856 31.0095 10.856" fill="white"/>
<path d="M28.2461 14.3692L28.5377 13.6047C29.4959 11.0917 30.3321 10.1372 30.3671 10.0977L30.5307 10.2429C30.5233 10.2515 29.8584 11.0131 29.049 12.9198C30.0873 11.5886 30.9239 10.7865 30.9335 10.7774L31.0844 10.9355C31.0735 10.946 29.9713 12.0033 28.7285 13.7078L28.2461 14.3692Z" fill="#D12E18"/>
<path fill-rule="evenodd" clip-rule="evenodd" d="M38.0682 12.7863C38.0682 12.7863 36.5151 11.6804 34.7949 12.2288Z" fill="white"/>
<path d="M38.0048 12.8729C37.9897 12.8624 36.4743 11.8057 34.8282 12.3306L34.7617 12.1224C36.5145 11.5636 38.0663 12.6487 38.1317 12.695L38.0048 12.8729Z" fill="#D12E18"/>
<path fill-rule="evenodd" clip-rule="evenodd" d="M36.1724 15.748C36.1724 15.748 34.9497 17.1746 33.373 18.2348C36.0589 16.9983 36.8185 16.2625 36.8185 16.2625" fill="white"/>
<path d="M33.4156 18.3308L33.3086 18.141C34.854 17.1019 36.0739 15.6878 36.0859 15.6738L36.2522 15.8158C36.2423 15.8272 35.458 16.7369 34.3475 17.64C36.1603 16.7262 36.7326 16.187 36.7389 16.1809L36.8912 16.3377C36.8599 16.3683 36.0876 17.1006 33.4156 18.3308Z" fill="#D12E18"/>
<path fill-rule="evenodd" clip-rule="evenodd" d="M37.7659 18.3207C37.7659 18.3207 36.9308 19.3044 34.2773 20.4643C36.3544 18.8315 37.1627 17.7734 37.1627 17.7734" fill="white"/>
<path d="M33.5391 20.9052L34.2116 20.3765C36.254 18.7706 37.0696 17.7156 37.0777 17.7051L37.2516 17.8375C37.2223 17.8759 36.5922 18.6909 35.0317 19.9937C37.0042 19.0262 37.6771 18.2561 37.6846 18.2476L37.8513 18.3889C37.8165 18.43 36.9694 19.4053 34.3231 20.5622L33.5391 20.9052Z" fill="#D12E18"/>
<path fill-rule="evenodd" clip-rule="evenodd" d="M20.9273 24.9727L10.4057 35.4864C10.4057 35.4864 10.1902 36.1406 10.689 36.6387C11.1878 37.1371 11.8347 36.848 11.8347 36.848L21.756 26.7513" fill="white"/>
<path fill-rule="evenodd" clip-rule="evenodd" d="M23.3242 26.8113L29.8909 33.5019C29.8909 33.5019 30.1112 33.8735 30.063 34.1879C30.0149 34.5023 29.0066 37.0085 28.5988 38.0042C28.191 39 28.0387 39.7623 28.0387 39.7623L29.0293 40.1053C29.0293 40.1053 29.5421 38.1047 31.8718 35.56C32.042 35.7693 33.3177 37.0057 33.3177 37.0057C33.3177 37.0057 33.9187 37.354 34.4883 36.8088C35.0795 36.243 34.8736 35.6697 34.7266 35.5211L33.3711 34.1895C33.3711 34.1895 34.5273 32.7239 37.7294 31.4438C37.3591 30.6435 37.3418 30.6291 37.3418 30.6291C37.3418 30.6291 35.4687 30.9135 33.0348 31.9155C32.7594 32.0204 31.5535 32.3704 31.2258 32.044C30.9469 31.7661 25.7027 26.5765 24.1569 25.0469" fill="white"/>
<path fill-rule="evenodd" clip-rule="evenodd" d="M24.0796 7.51761C24.0951 7.44354 24.047 7.28798 23.9567 7.18967C23.8663 7.09113 23.7514 7.06666 23.6392 7.05836C23.527 7.05006 23.201 6.82874 23.1476 6.68104C23.0945 6.53335 23.1765 6.54165 23.3572 6.59081C23.5377 6.63997 23.6937 6.69743 23.7595 6.79574C23.8254 6.89406 24.0962 6.94344 24.0962 6.94344C24.1785 7.0092 24.3592 6.91897 24.4824 6.93514C24.6055 6.95152 24.5069 6.68912 24.6241 6.77936C24.7414 6.86959 24.8856 6.79378 24.8856 6.79378C25.0741 6.76581 24.9602 6.48987 24.9602 6.48987C24.9602 6.48987 25.2463 6.47938 25.3476 6.40401C25.4493 6.32885 25.3811 6.16499 25.3907 6.06099C25.4001 5.95699 25.2358 5.96071 25.2614 5.88948C25.2868 5.81848 25.1752 5.71797 25.1752 5.71797C25.1752 5.71797 25.371 5.57159 25.3474 5.50364C25.3238 5.43569 25.2181 5.37496 25.2181 5.37496C25.2181 5.37496 25.3609 5.19252 25.3474 5.1178C25.3338 5.04286 25.2181 5.03194 25.2181 5.03194C25.2181 5.03194 25.3008 4.89823 25.3043 4.77457C25.3078 4.65113 25.152 4.72585 25.1321 4.68892C25.1789 4.5976 25.1658 4.41298 25.0159 4.50933C25.1061 4.32472 25.0159 4.04375 24.9599 4.04571C24.9037 4.04746 24.714 4.41713 24.1846 4.90325C24.0284 5.0468 23.7228 5.34066 23.7108 5.37496C23.6989 5.40926 23.69 5.52833 23.7539 5.58929C23.818 5.65046 23.9718 5.77587 23.8401 5.88948C23.7083 6.00309 23.3815 6.00353 23.3233 5.88948C23.2651 5.77565 23.4642 5.74747 23.4526 5.67515C23.4408 5.60262 23.2618 5.51959 23.2373 5.41778C23.2126 5.31597 23.1054 5.1792 23.1511 5.07476C23.1966 4.97033 23.205 4.82395 23.3664 4.81761C23.5276 4.81127 23.6044 5.00223 23.6679 4.90347C23.7311 4.8045 23.7541 4.73175 23.7541 4.73175C23.7541 4.73175 23.8519 4.81324 23.9265 4.77457C24.0008 4.73612 24.0179 4.61639 23.9693 4.56024C23.9208 4.50409 23.8654 4.36797 23.9265 4.30309C23.9871 4.2382 24.1126 4.11585 24.2279 4.1744C24.343 4.23317 24.2892 4.43964 24.4001 4.43177C24.466 4.42696 24.5725 4.32078 24.5723 4.21744C24.5723 4.11388 24.4819 4.09859 24.4867 4.0455C24.4913 3.9924 24.5972 4.03566 24.6545 3.97012C24.7123 3.90479 24.5775 3.89321 24.5775 3.89321C24.5775 3.89321 24.5469 3.79315 24.4699 3.76868C24.3822 3.74093 24.3165 3.84886 24.285 3.8008C24.0787 3.48706 23.8722 3.76256 23.9545 3.87639C24.0028 3.94303 23.9352 4.09946 23.8228 4.11934C23.7103 4.13922 23.8037 4.00704 23.7983 3.92708C23.783 3.71013 23.5672 3.6673 23.5384 3.61705C23.5097 3.56702 23.5327 3.43375 23.4239 3.4427C23.3152 3.45166 23.3248 3.62514 23.3231 3.65988C23.3213 3.69461 23.2579 3.69876 23.1938 3.7027C23.0665 3.71078 23.1555 3.90851 23.0527 3.91681C22.9501 3.92511 22.8761 3.73634 22.9297 3.6011C22.9829 3.46564 22.9352 3.3599 22.9352 3.3599C22.9352 3.3599 22.8925 3.24826 22.6572 3.21133C22.697 3.02803 22.5447 3.04747 22.5447 3.04747C22.5447 3.04747 22.4005 3.02803 22.4401 3.21133C22.205 3.24804 22.1356 3.37126 22.1356 3.37126C22.1356 3.37126 22.0864 3.47133 22.14 3.60678C22.1934 3.74202 22.1185 3.92795 22.0162 3.91987C21.9133 3.91157 22.0022 3.71253 21.8748 3.70423C21.8109 3.70008 21.7473 3.69527 21.7455 3.66053C21.7436 3.62579 21.7532 3.45188 21.6445 3.44292C21.5357 3.43375 21.5585 3.5668 21.53 3.61705C21.5012 3.66709 21.2857 3.71013 21.2701 3.92708C21.2645 4.00726 21.3579 4.13922 21.2454 4.11934C21.133 4.09924 21.0656 3.94303 21.1139 3.87639C21.1962 3.76256 20.9899 3.48727 20.7834 3.8008C20.7517 3.84886 20.6865 3.74093 20.5985 3.76868C20.5213 3.79293 20.4909 3.89321 20.4909 3.89321C20.4909 3.89321 20.3563 3.90479 20.4137 3.97012C20.471 4.03566 20.5766 3.99262 20.5817 4.0455C20.5863 4.09859 20.4961 4.11388 20.4961 4.21744C20.4959 4.32078 20.6022 4.42696 20.6683 4.43177C20.7792 4.43964 20.7254 4.23317 20.8405 4.1744C20.9555 4.11563 21.0813 4.2382 21.1419 4.30309C21.2025 4.36797 21.1474 4.50409 21.0991 4.56024C21.0503 4.61639 21.0676 4.73612 21.1419 4.77457C21.2163 4.81324 21.3143 4.73175 21.3143 4.73175C21.3143 4.73175 21.3371 4.8045 21.4003 4.90347C21.4638 5.00245 21.5405 4.81127 21.702 4.81761C21.8634 4.82395 21.8718 4.97055 21.9173 5.07476C21.9628 5.1792 21.8558 5.31597 21.8311 5.41778C21.8063 5.51959 21.6272 5.60262 21.6158 5.67515C21.6042 5.74747 21.8031 5.77543 21.7451 5.88948C21.6867 6.00353 21.3598 6.00309 21.2281 5.88948C21.0964 5.77587 21.2505 5.65046 21.3146 5.58929C21.3784 5.52833 21.3695 5.40926 21.3574 5.37496C21.3456 5.34066 21.04 5.0468 20.8838 4.90325C20.3544 4.41691 20.1645 4.04746 20.1085 4.04571C20.0525 4.04375 19.9621 4.32472 20.0525 4.50933C19.9024 4.41298 19.8893 4.5976 19.9363 4.68892C19.9164 4.72585 19.7604 4.65113 19.7639 4.77457C19.7674 4.89823 19.8501 5.03194 19.8501 5.03194C19.8501 5.03194 19.7346 5.04286 19.721 5.1178C19.7075 5.19252 19.8501 5.37496 19.8501 5.37496C19.8501 5.37496 19.7446 5.43569 19.721 5.50364C19.6974 5.57159 19.8932 5.71797 19.8932 5.71797C19.8932 5.71797 19.7814 5.81826 19.807 5.88948C19.8324 5.96049 19.6683 5.95699 19.6777 6.06099C19.6871 6.16521 19.6191 6.32885 19.7208 6.40401C19.8223 6.47938 20.1082 6.48987 20.1082 6.48987C20.1082 6.48987 19.9943 6.76581 20.1826 6.79378C20.1826 6.79378 20.3268 6.86959 20.4441 6.77936C20.5613 6.68912 20.4629 6.95174 20.586 6.93514C20.709 6.91875 20.8899 7.00898 20.972 6.94344C20.972 6.94344 21.243 6.89428 21.3089 6.79574C21.3745 6.69721 21.5305 6.63997 21.7112 6.59081C21.8919 6.54143 21.9739 6.53335 21.9205 6.68104C21.8674 6.82874 21.5412 7.05006 21.429 7.05836C21.317 7.06666 21.2021 7.09113 21.1118 7.18967C21.0214 7.28798 20.972 7.44398 20.9886 7.51761C21.0052 7.59124 20.9146 7.42738 20.7094 7.41907L19.8757 6.77521L19.7525 6.73828L19.7772 6.85299L20.4961 7.5187C20.4961 7.5187 20.3959 7.6345 20.6252 7.69021C20.5489 7.84074 20.5353 8.0223 20.5821 8.07627C20.6291 8.13023 20.8407 8.24777 20.8407 8.24777C20.8407 8.24777 20.905 8.43501 20.97 8.4621C21.035 8.4892 21.0761 8.45795 21.0993 8.37624C21.1223 8.29453 21.073 8.03301 21.073 8.03301L21.4767 7.95304C21.4767 7.95304 21.7902 7.88269 21.9009 7.71031C22.0116 7.53793 22.054 7.26657 22.254 7.34064C22.6644 7.4927 22.0369 8.137 21.8306 8.16191C21.6243 8.18682 21.3892 8.45599 21.4003 8.63361C21.4117 8.81124 21.7099 8.7765 21.7451 8.89077C21.9199 9.46013 21.3852 9.94581 21.5421 10.22C21.7 10.4944 21.8573 10.5632 21.8573 10.5632V10.7776C21.8573 10.7776 21.8013 10.9729 21.8013 11.2921C21.8013 11.6113 22.2809 11.7948 22.2809 11.7948C22.2809 11.7948 22.0472 11.9185 22.1365 12.2783C22.2255 12.6379 22.3141 13.5252 22.2426 14.5938C22.171 15.6622 21.9177 18.6506 21.9079 19.7412C21.8982 20.8319 22.0715 21.3508 22.0715 21.3508H21.2739C21.2739 21.3508 21.4797 21.2959 21.4445 21.6711C21.4088 22.0462 21.1443 22.5483 21.1428 22.8491C21.1415 23.15 21.4738 23.3907 21.8667 23.4281C21.6644 23.4749 21.4692 23.5651 21.474 23.7425C21.4791 23.9199 21.746 23.9551 21.746 23.9551C21.746 23.9551 20.8844 24.4253 20.8844 25.3634C20.8844 26.3014 21.8748 26.5605 21.8748 26.5605C21.8748 26.5605 21.7486 26.69 21.7458 26.8591C21.7427 27.0283 21.9359 27.1445 22.0041 27.2443C22.0724 27.344 22.1682 27.6511 22.1334 28.3584C22.0986 29.0656 21.667 31.9347 21.5734 33.2438C21.4797 34.553 21.5263 35.1151 21.7888 35.7706C21.3887 35.7706 21.1798 35.7706 21.1798 35.7706C21.1798 35.7706 21.6035 35.8785 21.5305 36.1164C21.4651 36.3301 21.3288 36.9869 21.4445 37.2971C21.56 37.6071 21.8722 37.998 22.1901 38.0279C21.8453 38.1037 21.7615 38.2414 21.7615 38.3939C21.7615 38.5464 21.9122 38.7096 22.0903 38.6995C21.9372 38.8829 21.8319 39.6373 21.8319 40.2822C21.8319 40.927 22.0652 41.4889 22.0652 41.4889C22.0652 41.4889 21.7775 41.5186 21.7458 41.7371C21.714 41.9554 21.9179 42.0369 21.9179 42.0369C21.9179 42.0369 21.5303 42.1907 21.5303 42.7627C21.5303 43.3349 21.8438 43.6552 22.0903 43.6659C21.8912 43.6991 21.8405 43.9927 22.0472 44.0945C21.9486 44.1655 21.7873 44.3637 21.7873 44.6272C21.7873 44.8865 21.9096 45.3237 22.5274 45.3237C23.1457 45.3237 23.2811 44.8865 23.2811 44.6272C23.2811 44.3637 23.1301 44.1754 23.0313 44.1041C23.238 44.0023 23.1824 43.7039 22.9836 43.6704C23.2301 43.66 23.5412 43.3368 23.5412 42.7646C23.5412 42.1924 23.1525 42.0375 23.1525 42.0375C23.1525 42.0375 23.3559 41.9549 23.3242 41.7367C23.2925 41.5184 23.0043 41.4872 23.0043 41.4872C23.0043 41.4872 23.2376 40.923 23.2376 40.2783C23.2376 39.6336 23.1323 38.8752 22.979 38.6917C23.1568 38.7017 23.3078 38.5307 23.3078 38.3779C23.3078 38.2252 23.2203 38.0686 22.8753 37.993C23.1929 37.9628 23.509 37.5438 23.6248 37.2338C23.7405 36.9235 23.6042 36.3297 23.5386 36.116C23.4657 35.8783 23.8893 35.7701 23.8893 35.7701C23.8893 35.7701 23.6806 35.7701 23.2802 35.7701C23.5427 35.1147 23.5893 34.5523 23.4955 33.243C23.4021 31.9338 22.9707 29.1279 22.9354 28.4204C22.9006 27.7134 22.9965 27.3739 23.0647 27.2743C23.133 27.1744 23.3259 27.0416 23.3233 26.8725C23.3207 26.7034 23.194 26.5644 23.194 26.5644C23.194 26.5644 24.1846 26.2979 24.1846 25.3599C24.1846 24.422 23.3231 23.9431 23.3231 23.9431C23.3231 23.9431 23.59 23.8933 23.5948 23.7158C23.5998 23.5384 23.4047 23.4207 23.2021 23.3739C23.595 23.3368 23.9262 23.0506 23.9262 22.7408C23.9262 22.431 23.66 22.0458 23.6246 21.6706C23.5893 21.2955 23.795 21.3503 23.795 21.3503H22.9973C22.9973 21.3503 23.1605 20.8315 23.1507 19.741C23.1406 18.6503 22.8777 15.7703 22.8061 14.7017C22.7346 13.6331 22.8029 12.6917 22.8923 12.3321C22.9816 11.9725 22.7079 11.8215 22.7079 11.8215C22.7079 11.8215 23.0275 11.6246 23.0275 11.3052C23.0275 10.986 22.732 10.7771 22.732 10.7771V10.5628C22.732 10.5628 23.1286 10.494 23.2859 10.2198C23.443 9.9456 23.108 9.45991 23.2826 8.89055C23.3181 8.77628 23.6359 8.81102 23.6473 8.63339C23.6587 8.45577 23.4336 8.18682 23.2273 8.16169C23.021 8.13657 22.3988 7.49248 22.809 7.34042C23.0089 7.26635 23.0538 7.53771 23.1647 7.71009C23.2756 7.88247 23.5904 7.95282 23.5904 7.95282L23.9945 8.03279C23.9945 8.03279 23.9453 8.29431 23.9685 8.37602C23.9914 8.45795 24.0328 8.48898 24.0978 8.46189C24.163 8.43458 24.2273 8.24756 24.2273 8.24756C24.2273 8.24756 24.4388 8.12979 24.4856 8.07605C24.4856 8.07605 24.9066 7.99302 24.9066 7.70594C24.9066 7.41885 24.5697 7.41055 24.5697 7.41055L24.571 7.27007L24.6935 7.15952L24.5672 7.06098L24.4362 7.16563L24.571 7.27029L24.5697 7.41055C24.5697 7.41055 24.2699 7.49489 24.2699 7.66399C24.2699 7.8331 24.1743 7.83637 24.1743 7.83637C24.1743 7.83637 24.0275 7.76449 24.0796 7.51761Z" fill="#EDB400"/>
<path d="M22.528 45.4337C21.9017 45.4337 21.6785 45.0175 21.6785 44.628C21.6785 44.3968 21.7842 44.2135 21.8824 44.1014C21.8227 44.0289 21.7951 43.9341 21.8096 43.8351C21.8168 43.7864 21.8332 43.7418 21.8573 43.7031C21.621 43.5622 21.4215 43.2255 21.4215 42.7635C21.4215 42.3615 21.5949 42.1406 21.7282 42.0305C21.6656 41.9594 21.6186 41.857 21.638 41.722C21.663 41.55 21.7962 41.4561 21.9205 41.4115C21.8507 41.2081 21.7231 40.77 21.7231 40.2813C21.7231 39.7451 21.7936 39.0965 21.9255 38.7727C21.7581 38.7036 21.6525 38.5389 21.6525 38.3879C21.6525 38.223 21.7277 38.0982 21.8811 38.0108C21.6304 37.8465 21.428 37.5391 21.3423 37.3086C21.2134 36.9634 21.3587 36.2512 21.4261 36.0307C21.4589 35.9234 21.2285 35.7978 21.1408 35.7642L20.5908 35.5529H21.6308C21.4103 34.942 21.3775 34.4067 21.4652 33.1819C21.5155 32.4765 21.6641 31.334 21.7949 30.3262C21.9049 29.478 22.0091 28.6768 22.025 28.3535C22.0646 27.5497 21.9303 27.329 21.9148 27.3065C21.8973 27.281 21.8697 27.255 21.8408 27.2261C21.7538 27.14 21.6345 27.0221 21.6374 26.8575C21.6389 26.7623 21.6698 26.6788 21.7041 26.6152C21.4118 26.4953 20.7759 26.1446 20.7759 25.3625C20.7759 24.641 21.2421 24.1831 21.5105 23.9793C21.4317 23.9279 21.3685 23.8506 21.3652 23.7396C21.363 23.6614 21.3873 23.5419 21.5247 23.4416C21.2324 23.3188 21.0331 23.082 21.0342 22.8222C21.0351 22.6505 21.1071 22.43 21.1834 22.1962C21.2508 21.9904 21.3202 21.7774 21.3366 21.607C21.3547 21.4139 21.3005 21.3553 21.2692 21.3516L21.2744 21.1331H21.9281C21.8765 20.9168 21.796 20.4534 21.8028 19.6865C21.81 18.8978 21.9469 17.1318 22.0469 15.8423C22.0865 15.3322 22.1211 14.8865 22.1412 14.5874C22.2145 13.4941 22.1237 12.6237 22.045 12.3053C21.9903 12.0847 22.0447 11.9239 22.1207 11.821C21.9666 11.7279 21.7476 11.5503 21.7476 11.2929C21.7476 11.0154 21.8253 10.8219 21.8583 10.7524V10.6335C21.7702 10.5859 21.6216 10.481 21.5035 10.275C21.4079 10.1079 21.4786 9.90794 21.5532 9.69624C21.635 9.46443 21.7275 9.20181 21.6422 8.92347C21.6363 8.92652 21.5923 8.91079 21.5626 8.90074C21.4659 8.86884 21.304 8.8151 21.2928 8.64119C21.2777 8.39845 21.558 8.08581 21.8192 8.05413C21.9106 8.0432 22.2574 7.73776 22.2814 7.53436C22.2863 7.49285 22.2775 7.46619 22.2176 7.44369C22.2049 7.4391 22.1968 7.43801 22.1922 7.43801C22.1587 7.43801 22.113 7.53611 22.0795 7.60755C22.0535 7.66326 22.0264 7.72029 21.9944 7.76988C21.8632 7.97394 21.5387 8.05194 21.5022 8.06003L21.1998 8.11989C21.2138 8.21711 21.225 8.33946 21.2062 8.40632C21.1633 8.5586 21.067 8.58132 21.0137 8.58132C20.9863 8.58132 20.9581 8.57542 20.9297 8.56341C20.8494 8.52976 20.7912 8.42161 20.7533 8.3233C20.6744 8.27807 20.5472 8.20073 20.5013 8.14829C20.4298 8.06571 20.4359 7.90119 20.4836 7.75306C20.4276 7.72225 20.3913 7.68161 20.3753 7.63136C20.3661 7.60274 20.365 7.57456 20.3689 7.54856L19.6794 6.90994L19.6083 6.58068L19.9443 6.68905L19.9714 6.70981C19.9642 6.66873 19.9658 6.62635 19.9712 6.58811C19.8677 6.57522 19.7336 6.54835 19.6573 6.49198C19.5361 6.40218 19.5531 6.25449 19.5647 6.15683C19.5685 6.12493 19.5724 6.09172 19.5704 6.07097C19.5597 5.95255 19.6492 5.89509 19.6951 5.86865C19.6947 5.81862 19.7148 5.77143 19.74 5.7321C19.633 5.63313 19.5925 5.54464 19.6192 5.46796C19.635 5.42251 19.6671 5.38297 19.7004 5.35194C19.6453 5.26695 19.6015 5.17213 19.6151 5.0985C19.6253 5.04148 19.6584 5.00019 19.7004 4.97178C19.6783 4.91629 19.6582 4.84725 19.6562 4.77777C19.6544 4.70939 19.6811 4.667 19.7041 4.64341C19.7354 4.61151 19.7737 4.59862 19.8045 4.59337C19.8032 4.544 19.8126 4.49462 19.8371 4.45442C19.8553 4.42471 19.8802 4.4022 19.9097 4.38844C19.8951 4.2438 19.9325 4.09611 19.9806 4.01877C20.0231 3.95082 20.0743 3.93662 20.1095 3.93662C20.1863 3.93902 20.2239 3.9884 20.3248 4.12036C20.3438 4.14527 20.365 4.17301 20.3886 4.20338C20.3908 4.16122 20.4022 4.12735 20.4166 4.10026C20.3869 4.08868 20.3578 4.07077 20.3329 4.04193C20.2755 3.97682 20.2917 3.91455 20.3011 3.89074C20.3226 3.83743 20.3703 3.81055 20.416 3.79701C20.4427 3.74916 20.4901 3.68908 20.5669 3.66483C20.628 3.64538 20.6945 3.66089 20.7371 3.68165C20.8288 3.57175 20.9198 3.54663 20.9837 3.54663C21.0786 3.54663 21.1664 3.603 21.2128 3.69345C21.2184 3.70459 21.2233 3.71595 21.2274 3.72709C21.2834 3.64516 21.3628 3.59884 21.4142 3.56848C21.4226 3.56367 21.4302 3.5593 21.437 3.55515C21.4381 3.54947 21.439 3.54335 21.4401 3.53723C21.449 3.48698 21.4766 3.33339 21.6354 3.33339C21.7363 3.34104 21.836 3.39282 21.8533 3.59295C21.8645 3.59382 21.8754 3.59469 21.8831 3.59513C21.9865 3.6019 22.0299 3.66723 22.0493 3.72687C22.0515 3.70109 22.0498 3.67269 22.0397 3.64691C21.9706 3.47169 22.0318 3.33776 22.0391 3.32312C22.05 3.30324 22.1226 3.18395 22.3267 3.12496C22.3311 3.08061 22.346 3.04281 22.3714 3.01113C22.409 2.96437 22.4685 2.9375 22.5346 2.9375L22.5457 2.93772C22.5494 2.93772 22.5536 2.9375 22.5584 2.9375C22.6275 2.9375 22.6895 2.96503 22.7284 3.01331C22.7533 3.04434 22.7684 3.08148 22.773 3.12452C22.9754 3.18242 23.0292 3.29581 23.0388 3.32072C23.0432 3.32989 23.101 3.46776 23.0329 3.64079C23.0229 3.66636 23.0209 3.69432 23.0235 3.7201C23.0436 3.66177 23.0874 3.59994 23.1883 3.59338C23.197 3.59295 23.2077 3.64298 23.2184 3.6421C23.2375 3.44132 23.3344 3.43498 23.4164 3.43498C23.4169 3.43498 23.4173 3.43498 23.4177 3.43498C23.5947 3.43498 23.6219 3.53723 23.6308 3.58748C23.6319 3.5936 23.6328 3.57416 23.6339 3.58006C23.6405 3.58421 23.6483 3.57569 23.6566 3.58049C23.7083 3.61064 23.7875 3.65084 23.8435 3.73277C23.8476 3.72141 23.8524 3.70699 23.8581 3.69607C23.9045 3.60562 23.9922 3.54772 24.0872 3.54772C24.1511 3.54772 24.2423 3.57197 24.334 3.68209C24.3834 3.65871 24.4449 3.64582 24.5039 3.66461C24.581 3.68886 24.6282 3.74872 24.6549 3.79657C24.7004 3.81012 24.7483 3.83721 24.7698 3.8903C24.7792 3.91411 24.7954 3.97682 24.7376 4.04193C24.7122 4.07098 24.6827 4.08868 24.6542 4.10004C24.6693 4.12801 24.6803 4.16144 24.6825 4.20273C24.7059 4.17258 24.7271 4.14505 24.7461 4.12014C24.8472 3.98796 24.885 3.93858 24.9577 3.93618C24.9971 3.93618 25.0483 3.9506 25.0905 4.01833C25.1388 4.09567 25.1762 4.24337 25.1616 4.388C25.1909 4.40155 25.216 4.42405 25.2342 4.45376C25.2587 4.49396 25.2683 4.54356 25.2668 4.59294C25.2977 4.59796 25.3359 4.61085 25.367 4.64297C25.3898 4.66635 25.4167 4.70873 25.4149 4.77734C25.4129 4.84681 25.3926 4.91585 25.3707 4.97135C25.4127 4.99953 25.446 5.04082 25.4563 5.09807C25.4698 5.17191 25.4261 5.26652 25.3707 5.35151C25.404 5.38275 25.4361 5.42208 25.4521 5.46752C25.4788 5.54443 25.4381 5.63291 25.3311 5.73166C25.3563 5.77077 25.3764 5.81796 25.376 5.868C25.4219 5.89465 25.5116 5.95189 25.5009 6.07053C25.4989 6.0915 25.5029 6.12471 25.5066 6.15683C25.518 6.25449 25.5352 6.40197 25.4138 6.49176C25.3377 6.54813 25.2038 6.575 25.1001 6.58789C25.1093 6.65235 25.1073 6.72794 25.0714 6.79108C25.0487 6.83106 25.0043 6.88088 24.9201 6.89858C24.8759 6.91736 24.7505 6.94861 24.6514 6.9154C24.6455 6.93594 24.6378 6.95385 24.6289 6.96958L24.8649 7.15354L24.6847 7.31653C24.8365 7.35258 25.0176 7.46007 25.0176 7.70608C25.0176 7.98749 24.7313 8.13016 24.5403 8.17648C24.4825 8.22585 24.3836 8.2855 24.318 8.32308C24.2801 8.42118 24.222 8.52954 24.1417 8.56319C24.113 8.5752 24.0846 8.5811 24.0574 8.5811C24.0041 8.5811 23.9078 8.55838 23.8649 8.4061C23.8461 8.33946 23.8573 8.21711 23.8713 8.11989L23.5718 8.06046C23.5324 8.05172 23.2073 7.97394 23.076 7.76966C23.0441 7.72029 23.0172 7.66348 22.9911 7.60799C22.9575 7.53611 22.9113 7.43757 22.8774 7.43757C22.8728 7.43757 22.8645 7.43844 22.8518 7.44325C22.7916 7.46575 22.7829 7.49263 22.7877 7.53436C22.8118 7.73776 23.1574 8.04276 23.2486 8.05369C23.5085 8.08515 23.787 8.3978 23.7715 8.64075C23.7603 8.8151 23.5958 8.86863 23.4976 8.90052C23.4668 8.91057 23.4202 8.92565 23.4086 8.93636C23.33 9.20334 23.3878 9.46552 23.4387 9.69689C23.4878 9.91952 23.53 10.1118 23.437 10.2743C23.3081 10.4992 23.078 10.6036 22.9522 10.6458V10.7316C23.029 10.8116 23.1931 11.0163 23.1931 11.3023C23.1931 11.5492 23.0189 11.7283 22.8912 11.8262C22.9835 11.9337 23.0587 12.1078 22.9999 12.3451C22.9087 12.7122 22.8487 13.6508 22.9168 14.6676C22.9382 14.9887 22.9771 15.4714 23.0211 16.0189C23.125 17.3112 23.2545 18.9194 23.2615 19.6859C23.2685 20.4534 23.1909 20.9166 23.1414 21.1324H23.8271V21.3509C23.8271 21.3546 23.7317 21.413 23.7498 21.6063C23.7658 21.7748 23.8273 21.9655 23.8942 22.1499C23.9715 22.3623 24.0404 22.5628 24.0404 22.7411C24.0404 23.0158 23.8306 23.2718 23.5348 23.4007C23.6483 23.4851 23.7096 23.5958 23.7061 23.7193C23.7028 23.8322 23.6359 23.9124 23.5547 23.9664C23.8218 24.1696 24.295 24.6321 24.295 25.359C24.295 26.1425 23.6564 26.4962 23.365 26.6166C23.4 26.6819 23.432 26.7675 23.4335 26.8645C23.4361 27.0295 23.316 27.1525 23.2283 27.2423C23.1999 27.2716 23.1729 27.298 23.1557 27.3229C23.0992 27.4053 23.0126 27.7225 23.0454 28.3884C23.0614 28.7107 23.16 29.4643 23.2745 30.3366C23.4059 31.3382 23.5547 32.4734 23.605 33.1811C23.6927 34.4059 23.6601 34.9414 23.4394 35.5522H24.474L23.9292 35.7633C23.8264 35.8033 23.6118 35.9256 23.6437 36.0298C23.696 36.1998 23.8632 36.9092 23.7277 37.2724C23.6398 37.5083 23.4339 37.8236 23.1808 37.9901C23.3703 38.1004 23.4175 38.2533 23.4175 38.3783C23.4175 38.5334 23.3084 38.703 23.146 38.7709C23.2773 39.096 23.3473 39.7432 23.3473 40.2784C23.3473 40.7676 23.2195 41.2066 23.1498 41.41C23.2742 41.4548 23.4079 41.5489 23.4326 41.7209C23.4521 41.8559 23.4051 41.9588 23.3425 42.03C23.4762 42.1403 23.6507 42.3617 23.6507 42.7646C23.6507 43.228 23.4521 43.5655 23.2167 43.7066C23.2425 43.7471 23.2602 43.7936 23.2677 43.8441C23.2821 43.9428 23.2552 44.0374 23.1963 44.1097C23.2922 44.2199 23.3904 44.3975 23.3904 44.6269C23.3911 44.9996 23.1651 45.4337 22.528 45.4337ZM22.5236 43.7047L22.1093 43.7742C22.0568 43.7829 22.0318 43.8279 22.0261 43.867C22.0231 43.888 22.0189 43.9592 22.0964 43.9974L22.2596 44.0778L22.1119 44.184C22.0524 44.2269 21.8975 44.3903 21.8975 44.628C21.8975 44.8045 21.959 45.2153 22.5282 45.2153C23.1261 45.2153 23.1725 44.7656 23.1725 44.628C23.1725 44.4008 23.0388 44.2445 22.9682 44.1936L22.8207 44.0875L22.9839 44.0071C23.0596 43.9697 23.0552 43.898 23.0522 43.8768C23.0465 43.8373 23.0205 43.7881 22.9664 43.779L22.5236 43.7047ZM22.5809 38.0412L22.2143 38.1218C21.8717 38.1972 21.8717 38.3427 21.8717 38.3997C21.8717 38.49 21.966 38.6119 22.0758 38.6119H22.3095L22.1751 38.779C22.0651 38.911 21.9424 39.5594 21.9424 40.2874C21.9424 40.9013 22.1651 41.4449 22.1673 41.4504L22.223 41.5839L22.0776 41.5983C22.076 41.5985 21.8739 41.6228 21.8548 41.7534C21.8358 41.8852 21.9546 41.9343 21.9596 41.9363L22.2141 42.0379L21.9592 42.1388C21.9472 42.1438 21.6404 42.278 21.6404 42.763C21.6404 43.2684 21.9047 43.5489 22.0957 43.557L22.5936 43.5784L22.9795 43.5618C23.1694 43.5537 23.4324 43.2723 23.4324 42.7652C23.4324 42.28 23.1246 42.1447 23.1115 42.139L22.868 42.0366L23.1117 41.9367C23.1314 41.9282 23.2344 41.8769 23.2165 41.7528C23.1974 41.6221 22.9951 41.5965 22.9931 41.5963L22.8483 41.5806L22.9036 41.446C22.9058 41.4406 23.1287 40.8928 23.1287 40.2789C23.1287 39.5496 23.0058 38.8944 22.8958 38.7624L22.7343 38.5832L22.9859 38.6114C23.1027 38.6114 23.199 38.483 23.199 38.3929C23.199 38.3377 23.199 38.1836 22.8524 38.1076L22.5809 38.0412ZM21.5451 35.7714C21.6264 35.8601 21.6739 35.9695 21.6356 36.0945C21.57 36.3093 21.4473 36.9632 21.5477 37.2324C21.6619 37.5389 21.9518 37.8828 22.2012 37.9064L22.4239 37.9274L22.8658 37.8854C23.1106 37.8623 23.4086 37.5037 23.523 37.1968C23.6188 36.9398 23.5109 36.3425 23.4348 36.0945C23.3965 35.9695 23.444 35.8601 23.5254 35.7714H23.1193L23.1793 35.6215C23.4363 34.9798 23.4792 34.4813 23.3871 33.1972C23.337 32.4961 23.1887 31.3642 23.0576 30.3657C22.9428 29.4885 22.8435 28.731 22.8268 28.3998C22.7851 27.549 22.9297 27.2665 22.975 27.2001C22.9981 27.1665 23.0329 27.1296 23.0714 27.0902C23.139 27.021 23.2158 26.9425 23.2145 26.8685C23.2125 26.7448 23.1156 26.6375 23.1145 26.6367L22.9909 26.5043L23.1662 26.4566C23.2034 26.4466 24.076 26.2004 24.076 25.3594C24.076 24.4958 23.2788 24.0433 23.271 24.0389L23.0082 23.8932L23.3038 23.8362C23.3602 23.8252 23.4847 23.7794 23.4864 23.7138C23.4897 23.6033 23.3342 23.5174 23.1784 23.4816L22.5225 23.3299L23.1926 23.2664C23.5315 23.2342 23.8177 22.9941 23.8177 22.742C23.8177 22.6022 23.7512 22.4191 23.6809 22.2253C23.6092 22.028 23.535 21.8239 23.5166 21.6275C23.5063 21.5192 23.5136 21.427 23.5376 21.3516H22.8448L22.8949 21.2063C22.8964 21.2017 23.0517 20.7403 23.0421 19.6885C23.0351 18.9299 22.906 17.3261 22.8023 16.0372C22.7582 15.4886 22.7192 15.0049 22.6976 14.6829C22.6273 13.6328 22.689 12.6859 22.7866 12.2933C22.852 12.0294 22.6765 11.9232 22.6564 11.9121L22.4972 11.8236L22.3574 11.8935C22.3416 11.902 22.1915 11.992 22.2565 12.2531C22.355 12.6505 22.4289 13.5551 22.3589 14.602C22.3388 14.9018 22.3042 15.3481 22.2644 15.8594C22.1646 17.1456 22.0279 18.9072 22.0209 19.6885C22.0115 20.7394 22.1727 21.2006 22.1745 21.205L22.227 21.3511L21.533 21.3516C21.5571 21.4267 21.5643 21.5192 21.554 21.6275C21.5357 21.8222 21.4624 22.0468 21.3913 22.264C21.3237 22.4713 21.2537 22.6856 21.253 22.8231C21.2521 23.0568 21.5322 23.2736 21.8778 23.3063L22.5475 23.3697L21.892 23.5215C21.7982 23.5432 21.5805 23.6074 21.584 23.7333C21.586 23.8038 21.7334 23.8399 21.7623 23.8442L22.0841 23.8908L21.7995 24.0481C21.7914 24.0527 20.9946 24.5025 20.9946 25.3625C20.9946 26.203 21.8667 26.4451 21.9036 26.4549L22.0839 26.5029L21.9542 26.6367C21.9537 26.6373 21.8581 26.7393 21.8559 26.8615C21.8546 26.9329 21.9288 27.0063 21.9944 27.071C22.0347 27.1108 22.0712 27.1483 22.0951 27.1833C22.1528 27.2674 22.2832 27.5517 22.2432 28.3642C22.2268 28.6965 22.127 29.4647 22.0115 30.3543C21.8809 31.3594 21.733 32.4983 21.6831 33.1977C21.5914 34.4817 21.6341 34.98 21.8909 35.6217L21.9511 35.7714H21.5451ZM22.1918 7.21996C22.2243 7.21996 22.2587 7.22652 22.2933 7.23919C22.4412 7.29403 22.516 7.41092 22.4985 7.56014C22.4628 7.86164 22.0461 8.24705 21.8452 8.2713C21.6925 8.28965 21.5037 8.51141 21.5109 8.62764C21.5125 8.65036 21.551 8.66719 21.6313 8.69362C21.715 8.72137 21.8192 8.75611 21.8511 8.85945C21.9577 9.20662 21.8476 9.51839 21.7595 9.76877C21.6993 9.93919 21.6474 10.0864 21.6934 10.1666C21.8253 10.3967 21.9953 10.4579 22.0025 10.4603L22.076 10.4858L22.0769 10.8072L22.0627 10.8321C22.062 10.8334 21.9662 11.0097 21.9662 11.2929C21.9662 11.5319 22.3464 11.6929 22.3501 11.6943L22.551 11.7757L22.6584 11.7187C22.6617 11.717 22.9739 11.5507 22.9739 11.3027C22.9739 11.0368 22.7735 10.8629 22.7715 10.8612L22.7332 10.8288V10.4751L22.8207 10.457C22.8236 10.4563 23.1172 10.3932 23.2469 10.1666C23.2981 10.0773 23.2642 9.92302 23.2248 9.74452C23.171 9.4996 23.1038 9.19482 23.2066 8.85967C23.2388 8.75567 23.3447 8.72115 23.4298 8.69362C23.4987 8.67112 23.5514 8.65211 23.5529 8.62764C23.5604 8.51119 23.3736 8.28965 23.2222 8.27152C23.0218 8.24726 22.6059 7.8623 22.5702 7.56079C22.5525 7.41135 22.6273 7.29425 22.7754 7.23941C22.81 7.22652 22.8441 7.22018 22.8769 7.22018C23.05 7.22018 23.127 7.38426 23.1887 7.51644C23.2106 7.56298 23.2327 7.61104 23.2594 7.65256C23.3296 7.7618 23.5462 7.83171 23.6164 7.84788L24.1233 7.94838L24.1032 8.05456C24.0824 8.16446 24.0697 8.28572 24.073 8.33422C24.0883 8.30385 24.1102 8.25622 24.1246 8.21362L24.1382 8.17407L24.1747 8.15353C24.2764 8.09695 24.3836 8.02769 24.4038 8.00584L24.4278 7.9794L24.4648 7.97045C24.4681 7.96979 24.7978 7.89769 24.7978 7.70739C24.7978 7.55337 24.6383 7.52671 24.5836 7.52212C24.4934 7.5514 24.3799 7.61541 24.3799 7.66523C24.3799 7.88284 24.2482 7.94445 24.1786 7.94663L24.1515 7.94751L24.1272 7.93549C24.118 7.93112 23.9039 7.82254 23.9728 7.4959C23.9793 7.46444 23.9496 7.34428 23.8761 7.2641C23.8214 7.20467 23.7505 7.1767 23.631 7.16796C23.4834 7.15726 23.1141 6.91081 23.0447 6.71876C23.0248 6.66349 23.0036 6.58243 23.0504 6.51623C23.0852 6.46686 23.1762 6.42928 23.386 6.48608C23.5748 6.53764 23.7619 6.60341 23.8505 6.73602C23.8719 6.76705 24.0008 6.81599 24.1156 6.83675L24.143 6.84177L24.1646 6.85903C24.2141 6.85925 24.2539 6.8516 24.2922 6.84439C24.3447 6.83456 24.3978 6.82538 24.446 6.82495C24.4462 6.8232 24.4462 6.82145 24.4464 6.81992C24.4578 6.7085 24.5044 6.65213 24.5847 6.65213C24.6311 6.65213 24.6674 6.67594 24.6906 6.69386C24.7393 6.73144 24.8347 6.69801 24.8354 6.69757L24.8691 6.68665C24.891 6.66808 24.8833 6.59292 24.8586 6.53218L24.7999 6.38776L24.9557 6.38165C25.0778 6.37706 25.2379 6.34997 25.2821 6.31741C25.3018 6.30299 25.2937 6.23374 25.2878 6.18327C25.2832 6.14525 25.2788 6.10614 25.2804 6.06769C25.274 6.06354 25.2655 6.05873 25.2589 6.05502C25.1633 6.00083 25.1294 5.93289 25.1583 5.85336C25.1528 5.85751 25.1259 5.8219 25.1016 5.79983L25.0045 5.71091L25.1095 5.6316C25.1561 5.59664 25.2053 5.55054 25.229 5.52105C25.2119 5.50379 25.1845 5.48281 25.1635 5.47058L25.0544 5.40787L25.1318 5.30868C25.1747 5.25384 25.2167 5.1859 25.2325 5.14766C25.2233 5.1446 25.213 5.1422 25.2075 5.14176L25.0334 5.12516L25.1248 4.97572C25.1406 4.94994 25.1778 4.87784 25.1905 4.81011L25.169 4.81076C25.0894 4.81076 25.0524 4.77318 25.0356 4.74172L25.0084 4.69125L25.0345 4.64035C25.0371 4.63554 25.0391 4.63008 25.0408 4.62418L24.7459 4.8136L24.9174 4.4625C24.9511 4.39324 24.9491 4.30148 24.9358 4.23157C24.9299 4.23921 24.9242 4.24664 24.9185 4.25429C24.7989 4.41072 24.5987 4.67268 24.2585 4.98489C24.0964 5.1339 23.8647 5.35915 23.8126 5.42098C23.8093 5.44873 23.8135 5.49636 23.8295 5.51165C23.9034 5.58069 24.0036 5.67442 24.001 5.79743C24.0001 5.84331 23.9837 5.91126 23.9113 5.97352C23.8299 6.04344 23.6962 6.08539 23.5536 6.08539C23.3924 6.08539 23.2727 6.03251 23.2257 5.94053C23.155 5.80201 23.2626 5.71113 23.3151 5.67311C23.306 5.66546 23.2959 5.65694 23.2876 5.64973C23.2241 5.59511 23.1519 5.53306 23.1307 5.4448C23.1242 5.41771 23.1095 5.38799 23.0953 5.35653C23.0528 5.26346 23.0001 5.14744 23.0506 5.0323C23.0587 5.01395 23.0651 5.01286 23.0721 4.99254C23.1042 4.89685 23.1581 4.7474 23.362 4.7474C23.3622 4.7474 23.3624 4.7474 23.3626 4.7474C23.477 4.7474 23.5527 4.7793 23.6041 4.81666C23.6363 4.75833 23.6494 4.70961 23.6496 4.70917L23.6995 4.55077L23.8238 4.65127C23.8413 4.66525 23.8695 4.67793 23.8815 4.67793C23.8848 4.67377 23.8907 4.64275 23.8848 4.63139C23.8054 4.53963 23.7367 4.34649 23.8463 4.22982C23.8472 4.22895 23.8481 4.22763 23.8492 4.22676C23.8468 4.2272 23.8446 4.22764 23.8422 4.22807L23.8026 4.23179C23.7369 4.23179 23.7013 4.19748 23.686 4.17717C23.64 4.11643 23.6601 4.0463 23.6766 3.99015C23.6814 3.97332 23.6895 3.94536 23.6892 3.93552C23.6829 3.84551 23.6254 3.80531 23.5449 3.75812C23.5046 3.73452 23.4665 3.71224 23.4438 3.67269C23.4394 3.66526 23.4359 3.65783 23.4328 3.65019C23.4258 3.78499 23.3055 3.80531 23.2246 3.81165C23.2235 3.81886 23.2226 3.8265 23.2217 3.83284C23.2156 3.88287 23.1992 4.01614 23.0618 4.02729C22.9706 4.02685 22.9133 3.9908 22.8673 3.92351C22.7995 3.8241 22.7835 3.67575 22.8282 3.56258C22.8625 3.47518 22.8365 3.40789 22.8349 3.40418C22.8347 3.40418 22.7964 3.34497 22.6405 3.3205L22.549 3.30608L22.4576 3.3205C22.2913 3.3465 22.2359 3.41991 22.2303 3.42843C22.2313 3.42843 22.2103 3.48764 22.2423 3.56826C22.2871 3.68209 22.2716 3.82585 22.2033 3.92591C22.1574 3.99364 22.0933 4.03078 22.0231 4.03078C21.8704 4.01898 21.8538 3.88549 21.8476 3.83524C21.8468 3.82869 21.8459 3.8206 21.8446 3.81296C21.7667 3.80684 21.6426 3.78718 21.6365 3.66723C21.6365 3.66111 21.6363 3.65543 21.6361 3.64997C21.633 3.65762 21.6295 3.66526 21.6254 3.67269C21.6024 3.71245 21.5643 3.73474 21.5243 3.75834C21.4436 3.80553 21.3862 3.84573 21.3797 3.93618C21.3797 3.94579 21.3875 3.97376 21.3926 3.99058C21.4088 4.04673 21.4289 4.11665 21.383 4.17738C21.3676 4.1977 21.332 4.232 21.2661 4.232L21.2268 4.22829C21.2243 4.22807 21.2222 4.22742 21.2198 4.22698C21.2206 4.22785 21.2215 4.22895 21.2226 4.23004C21.3318 4.34693 21.2633 4.53963 21.1823 4.63314C21.178 4.64231 21.1839 4.67334 21.1928 4.67902C21.2003 4.67705 21.2316 4.66023 21.2449 4.64909L21.3703 4.54465L21.4193 4.70021C21.4193 4.70021 21.4324 4.73954 21.4646 4.79787C21.516 4.76051 21.5912 4.70961 21.6947 4.70961C21.9108 4.71769 21.9647 4.87806 21.9968 4.97375C22.0036 4.99385 22.0102 5.01395 22.0183 5.03252C22.0684 5.14744 22.0159 5.26324 21.9736 5.35609C21.9594 5.38756 21.9448 5.41749 21.9382 5.4448C21.9168 5.53306 21.8448 5.59511 21.7813 5.64973C21.773 5.65672 21.7634 5.66503 21.754 5.67333C21.8063 5.71135 21.9135 5.80223 21.843 5.94053C21.796 6.03273 21.6763 6.0856 21.5149 6.0856C21.3722 6.0856 21.2383 6.04387 21.157 5.97374C21.0845 5.91126 21.0684 5.84353 21.0673 5.79765C21.0649 5.67442 21.1651 5.58091 21.225 5.52498C21.2532 5.49811 21.2589 5.44873 21.2558 5.42098C21.2038 5.35893 20.9739 5.13543 20.81 4.98489C20.4696 4.67225 20.2694 4.4105 20.1495 4.25385C20.1441 4.24642 20.1381 4.239 20.1325 4.23157C20.1191 4.30148 20.1171 4.39324 20.1508 4.4625L20.323 4.81404L20.0274 4.62418C20.0292 4.62986 20.0314 4.63532 20.0338 4.64013L20.06 4.69125L20.0327 4.74172C20.0156 4.77318 19.9787 4.81076 19.8992 4.81076L19.8778 4.81011C19.8907 4.87849 19.9277 4.95015 19.9432 4.97572L20.0344 5.12494L19.8603 5.14176C19.8529 5.14264 19.8435 5.14504 19.8356 5.14766C19.8516 5.18611 19.894 5.25516 19.936 5.3089L20.013 5.40744L19.9047 5.4708C19.8815 5.48434 19.8553 5.50488 19.8391 5.52148C19.8629 5.5512 19.9119 5.59708 19.9585 5.63204L20.064 5.71113L19.9664 5.80027C19.9421 5.82233 19.9152 5.85795 19.9119 5.87215C19.9382 5.93354 19.9043 6.00127 19.8089 6.05524C19.8026 6.05895 19.794 6.06376 19.7875 6.06791C19.7892 6.10614 19.7846 6.14525 19.7802 6.18305C19.7743 6.23352 19.7662 6.30299 19.7857 6.31741C19.8343 6.35346 20.0064 6.37793 20.1121 6.38187L20.2681 6.38755L20.2092 6.5324C20.1845 6.59336 20.1769 6.66851 20.188 6.6849L20.2333 6.69823C20.2333 6.69823 20.3287 6.73122 20.377 6.69386C20.4002 6.67594 20.4365 6.65213 20.4829 6.65213C20.5632 6.65213 20.6098 6.7085 20.6214 6.81992C20.6216 6.82145 20.6216 6.8232 20.6218 6.82495C20.67 6.82538 20.7234 6.83456 20.7759 6.84439C20.8144 6.8516 20.8522 6.85947 20.8852 6.85947L20.9067 6.84221L20.952 6.83696C21.0673 6.81577 21.1963 6.76683 21.2176 6.73602C21.3057 6.60362 21.493 6.53764 21.6822 6.4863C21.892 6.42928 21.983 6.46729 22.0178 6.51645C22.0644 6.58287 22.0432 6.66371 22.0233 6.71898C21.9542 6.91081 21.5847 7.15726 21.4368 7.16818C21.3178 7.17714 21.2467 7.20489 21.1922 7.26431C21.1187 7.34428 21.0885 7.46379 21.0951 7.49481L21.1053 7.54506L21.0415 7.64556L20.9865 7.64666C20.9448 7.64666 20.9178 7.62612 20.8916 7.60624C20.8555 7.57871 20.7951 7.53283 20.7045 7.52911L20.6695 7.5278L20.6422 7.50683L20.6472 7.51164L20.598 7.56844C20.6094 7.57347 20.6262 7.57936 20.6503 7.58526L20.7842 7.61782L20.722 7.7406C20.6579 7.86732 20.6582 7.98836 20.6689 8.01305C20.6859 8.02987 20.8023 8.10307 20.8929 8.15332L20.9294 8.17363L20.943 8.21318C20.9572 8.25426 20.9774 8.29883 20.9949 8.33029C20.9973 8.28004 20.9846 8.16184 20.9642 8.05434L20.9441 7.94794L21.4541 7.847C21.5214 7.83149 21.7374 7.76136 21.8076 7.65234C21.8343 7.61083 21.8564 7.56254 21.8783 7.51579C21.9424 7.38382 22.0189 7.21996 22.1918 7.21996ZM23.2723 6.68206C23.3488 6.78737 23.5788 6.94271 23.6481 6.95014C23.7665 6.95888 23.9179 6.98575 24.038 7.11662C24.1452 7.23329 24.2121 7.42359 24.1874 7.54091C24.1859 7.54834 24.195 7.55555 24.1937 7.56232C24.2465 7.44303 24.2644 7.37028 24.4832 7.33401V7.3244L24.271 7.16796L24.4178 7.04649C24.3887 7.04933 24.3607 7.05435 24.3355 7.05916C24.2241 7.0797 24.1233 7.08625 24.0557 7.04758C23.9627 7.02879 23.7472 6.97373 23.6693 6.85728C23.6203 6.78409 23.4615 6.73318 23.3289 6.69714C23.316 6.6932 23.2946 6.68752 23.2723 6.68206ZM20.752 7.31347C20.8091 7.32003 20.8583 7.33598 20.8997 7.35455C20.9255 7.26934 20.9728 7.18173 21.0327 7.11662C21.1528 6.98575 21.304 6.95888 21.4226 6.95014C21.4919 6.94271 21.7216 6.78781 21.7982 6.68228C21.7759 6.68752 21.7551 6.69342 21.7417 6.69692C21.6089 6.73297 21.4503 6.78387 21.4018 6.85706C21.3239 6.97351 21.1088 7.02857 21.0159 7.04736C20.948 7.08603 20.8487 7.0797 20.7376 7.05894C20.6975 7.05151 20.6571 7.04321 20.6205 7.04321L20.577 7.04605C20.4976 7.04605 20.4449 7.00235 20.4195 6.91605C20.3661 6.93419 20.3051 6.93681 20.2539 6.92916L20.752 7.31347ZM23.4431 5.85052C23.465 5.85817 23.5026 5.86647 23.5545 5.86647C23.6422 5.86647 23.7286 5.84287 23.7693 5.80748C23.7831 5.77514 23.7536 5.73866 23.6949 5.68403C23.5755 5.57021 23.5869 5.40197 23.6081 5.34036C23.6324 5.27089 23.9338 4.98686 24.1115 4.82365C24.2204 4.72359 24.3147 4.62855 24.3959 4.54116C24.2556 4.53438 24.2244 4.41072 24.209 4.35042C24.2027 4.3253 24.1909 4.27832 24.1791 4.27242C24.1473 4.26893 24.0992 4.27985 24.0073 4.37817C24.0043 4.39281 24.0255 4.4577 24.0531 4.48959C24.0986 4.54247 24.1169 4.62025 24.1018 4.69803C24.0867 4.77581 24.0415 4.83938 23.9776 4.87237C23.9262 4.89903 23.8608 4.89947 23.8076 4.88308C23.7949 4.90711 23.7796 4.93399 23.761 4.96283C23.717 5.03143 23.6582 5.0417 23.6273 5.0417C23.5689 5.0417 23.5241 5.00893 23.4847 4.97987C23.4479 4.95278 23.4132 4.92743 23.3753 4.92743C23.3281 4.92918 23.3154 4.93923 23.2806 5.04257C23.2718 5.06901 23.2629 5.09501 23.2524 5.11904C23.241 5.14504 23.2738 5.21758 23.2957 5.26542C23.316 5.31021 23.3351 5.35369 23.3445 5.39258C23.3499 5.41334 23.4031 5.459 23.4315 5.48347C23.4897 5.5335 23.5497 5.58506 23.5615 5.65825C23.577 5.75613 23.4974 5.81228 23.4545 5.84222C23.451 5.84484 23.4473 5.84746 23.4431 5.85052ZM20.6754 4.52848C20.7566 4.52848 20.8505 4.71703 20.9592 4.81688C21.1368 4.9803 21.4385 5.26761 21.4624 5.33687C21.4836 5.39782 21.4956 5.5678 21.3915 5.66721L21.3755 5.68316C21.3169 5.73778 21.2874 5.7747 21.2874 5.79218C21.342 5.84222 21.4285 5.86603 21.516 5.86603C21.5672 5.86603 21.6044 5.85795 21.6271 5.84986C21.6232 5.84702 21.6194 5.84462 21.6164 5.84222C21.5735 5.81207 21.4937 5.75613 21.5094 5.65869C21.521 5.58528 21.5812 5.5335 21.6394 5.48347C21.6678 5.459 21.721 5.41334 21.7264 5.3928C21.7358 5.35391 21.7546 5.31043 21.7752 5.26521C21.7969 5.21736 21.8299 5.14504 21.8185 5.11926C21.808 5.09523 21.7991 5.06923 21.7903 5.04279C21.7555 4.93945 21.7428 4.92918 21.6991 4.92765C21.6577 4.92765 21.6227 4.95321 21.586 4.98009C21.5464 5.00914 21.5017 5.04192 21.4433 5.04192C21.4123 5.04192 21.3536 5.03165 21.3097 4.96304C21.2913 4.93421 21.2758 4.90733 21.2631 4.88308C21.2099 4.89968 21.1445 4.89925 21.0931 4.87237C21.0292 4.83938 20.9839 4.77559 20.9688 4.69759C20.9539 4.62003 20.9723 4.54225 21.0178 4.48959C21.0452 4.4577 21.0664 4.39303 21.0598 4.37314C20.9712 4.27963 20.9229 4.26893 20.9063 4.26893C20.8798 4.27832 20.868 4.31852 20.8616 4.34365C20.8459 4.40592 20.8131 4.52848 20.6759 4.52848C20.6757 4.52848 20.6757 4.52848 20.6754 4.52848ZM24.1644 4.05045C24.2044 4.05045 24.2427 4.05962 24.2784 4.07776C24.3784 4.12866 24.4042 4.2296 24.421 4.29646C24.4213 4.29755 24.4217 4.29886 24.4219 4.30017C24.4418 4.27832 24.4637 4.24533 24.4635 4.21824C24.4635 4.20491 24.4622 4.20185 24.4405 4.17957C24.4164 4.15488 24.3718 4.10878 24.3784 4.03603C24.3834 3.97944 24.4147 3.94033 24.4711 3.91958C24.4628 3.89926 24.4466 3.87653 24.4374 3.87369C24.4346 3.87479 24.4171 3.88462 24.4066 3.89052C24.3517 3.92132 24.2427 3.9364 24.1937 3.86124C24.1207 3.75025 24.0727 3.76533 24.0598 3.7815C24.0478 3.79613 24.045 3.81252 24.0461 3.81776C24.0865 3.87238 24.0918 3.95759 24.0581 4.04105C24.0528 4.05416 24.0467 4.06661 24.0399 4.07863C24.0789 4.06137 24.1202 4.05045 24.1644 4.05045ZM20.5991 3.91958C20.6555 3.94033 20.6866 3.97922 20.6921 4.03603C20.6984 4.10878 20.654 4.15466 20.6299 4.17935C20.6083 4.20164 20.607 4.20469 20.607 4.2178C20.607 4.24446 20.6278 4.27657 20.649 4.29864C20.649 4.29799 20.6492 4.29711 20.6494 4.29646C20.6665 4.2296 20.6921 4.12844 20.7921 4.07776C20.8669 4.03952 20.9566 4.04564 21.0296 4.07841C21.0229 4.0664 21.0167 4.05372 21.0115 4.04061C20.9778 3.95694 20.9833 3.87173 21.0264 3.81274C21.0248 3.81252 21.0218 3.79613 21.0099 3.78128C20.9968 3.76533 20.9493 3.74982 20.8758 3.86124C20.8266 3.9364 20.7181 3.92089 20.663 3.89008C20.6527 3.88418 20.6354 3.87457 20.6286 3.87369C20.6223 3.87697 20.6063 3.9021 20.5991 3.91958Z" fill="#D12E18"/>
<path fill-rule="evenodd" clip-rule="evenodd" d="M22.5349 5.16838C22.5349 5.16838 22.467 5.14064 22.4456 5.04233C22.424 4.9438 22.387 4.82714 22.2607 4.6764C22.1345 4.52566 22.2238 4.31047 22.338 4.25498C22.452 4.19971 22.532 4.02734 22.532 4.02734C22.532 4.02734 22.6206 4.19949 22.7346 4.25498C22.8486 4.31047 22.9381 4.52107 22.8116 4.67181C22.6854 4.82234 22.6484 4.94162 22.6268 5.04015C22.6049 5.13846 22.5349 5.16838 22.5349 5.16838Z" fill="#EDB400"/>
<path d="M22.5399 5.28496L22.4975 5.26748C22.4853 5.26245 22.3759 5.21374 22.3428 5.06365C22.3247 4.98107 22.2958 4.88145 22.1809 4.74447C22.105 4.65381 22.0775 4.53824 22.1031 4.41874C22.1282 4.30077 22.2015 4.19984 22.294 4.15484C22.3529 4.12622 22.4157 4.0242 22.4367 3.97919L22.531 3.7793L22.6331 3.97526C22.657 4.02114 22.7257 4.12535 22.7863 4.15462C22.8793 4.19984 22.9526 4.30034 22.9775 4.41721C23.0026 4.53518 22.9749 4.64944 22.8992 4.73989C22.7852 4.87599 22.7559 4.97714 22.7373 5.06125C22.7047 5.21024 22.5944 5.26136 22.582 5.2666L22.5399 5.28496ZM22.5389 4.22497C22.4995 4.2739 22.4492 4.32262 22.3899 4.35146C22.3636 4.36413 22.3293 4.40826 22.317 4.46462C22.3091 4.50154 22.3081 4.55594 22.3487 4.60444C22.4618 4.73923 22.5119 4.85349 22.5399 4.95027C22.5677 4.8513 22.618 4.7353 22.7316 4.59985C22.7721 4.55179 22.7712 4.49892 22.7635 4.46309C22.7517 4.40782 22.7172 4.36435 22.6907 4.35146C22.6314 4.32262 22.5798 4.27368 22.5389 4.22497Z" fill="#D12E18"/>
<path d="M22.0449 44.0859C22.0449 44.0859 22.6643 44.1001 23.029 44.0956Z" fill="#EDB400"/>
<path d="M22.8603 44.2055C22.5015 44.2055 22.0445 44.195 22.0391 44.195L22.0441 43.9766C22.0502 43.9768 22.6663 43.991 23.0242 43.9862L23.027 44.2046C22.9758 44.2053 22.9194 44.2055 22.8603 44.2055Z" fill="#D12E18"/>
<path d="M22.9513 43.8555H22.0762V44.0739H22.9513V43.8555Z" fill="#D12E18"/>
<path d="M21.918 42.0313C21.918 42.0313 22.457 42.0215 23.1523 42.0327Z" fill="#EDB400"/>
<path d="M23.1525 42.1458C22.4675 42.1344 21.9274 42.1442 21.9221 42.1444L21.918 41.926C21.923 41.926 22.4669 41.9159 23.156 41.9273L23.1525 42.1458Z" fill="#D12E18"/>
<path d="M22.9513 41.375H22.0762V41.5935H22.9513V41.375Z" fill="#D12E18"/>
<path d="M22.0898 38.6872C22.0898 38.6872 22.455 38.5867 22.9785 38.6872Z" fill="#EDB400"/>
<path d="M22.9558 38.7964C22.4666 38.7022 22.1201 38.7933 22.1166 38.7944L22.0586 38.5838C22.0746 38.5794 22.4546 38.4778 22.9971 38.5818L22.9558 38.7964Z" fill="#D12E18"/>
<path d="M22.9493 37.8789H22.293V38.0974H22.9493V37.8789Z" fill="#D12E18"/>
<path d="M23.2806 35.6208L23.2793 35.4023L21.744 35.4114L21.7452 35.6299L23.2806 35.6208Z" fill="#D12E18"/>
<path d="M21.8789 26.553C21.8789 26.553 22.4547 26.6532 23.1981 26.5527Z" fill="#EDB400"/>
<path d="M22.5216 26.7077C22.1324 26.7077 21.8753 26.664 21.8594 26.6614L21.897 26.4462C21.9023 26.4473 22.4667 26.5421 23.1827 26.4453L23.2123 26.6618C22.957 26.6961 22.7218 26.7077 22.5216 26.7077Z" fill="#D12E18"/>
<path d="M21.7441 23.934C21.7441 23.934 22.2712 23.9255 23.3217 23.9324Z" fill="#EDB400"/>
<path d="M21.7476 24.043L21.7441 23.8245C21.7494 23.8245 22.2843 23.8162 23.3241 23.823L23.3226 24.0414C22.2858 24.0344 21.7529 24.0427 21.7476 24.043Z" fill="#D12E18"/>
<path d="M23.1991 23.2617H21.8633V23.4802H23.1991V23.2617Z" fill="#D12E18"/>
<path d="M22.9513 21.125H22.0762V21.3435H22.9513V21.125Z" fill="#D12E18"/>
<path d="M22.7135 11.6902L22.3691 11.6875L22.3674 11.906L22.7118 11.9086L22.7135 11.6902Z" fill="#D12E18"/>
<path d="M22.8739 10.6659L22.1758 10.6641L22.1752 10.8825L22.8733 10.8843L22.8739 10.6659Z" fill="#D12E18"/>
<path d="M22.9532 10.4492H22.2969V10.6677H22.9532V10.4492Z" fill="#D12E18"/>
<path d="M21.7031 8.83474C21.7031 8.83474 22.4588 9.08095 23.4115 8.81836Z" fill="#EDB400"/>
<path d="M22.5091 9.04715C22.0167 9.04715 21.6888 8.94316 21.668 8.93639L21.7358 8.72863C21.743 8.73104 22.4741 8.96086 23.3812 8.71094L23.4394 8.92154C23.0957 9.01613 22.7778 9.04715 22.5091 9.04715Z" fill="#D12E18"/>
<path d="M22.7325 6.70784C22.7325 6.70784 22.8985 6.70784 22.7843 6.70784C22.6704 6.70784 22.5273 6.86776 22.5273 6.86776C22.5273 6.86776 22.3932 6.70784 22.2672 6.70784C22.1407 6.70784 22.0762 6.70784 22.0762 6.70784V5.83398H22.7325V6.70784Z" fill="#EDB400"/>
<path d="M22.5249 6.92427L22.4437 6.82859C22.4006 6.7779 22.3155 6.70756 22.2672 6.70756H22.0762V5.61523H22.9513V6.70756H22.7843C22.7476 6.70756 22.6614 6.77288 22.6087 6.83121L22.5249 6.92427ZM22.2949 6.49062C22.3864 6.50023 22.47 6.55529 22.5288 6.60554C22.5826 6.56053 22.6557 6.51138 22.7325 6.49477V5.8337H22.2949V6.49062Z" fill="#D12E18"/>
</svg>
