<svg width="243" height="80" viewBox="0 0 243 80" fill="none" xmlns="http://www.w3.org/2000/svg">
<path fill-rule="evenodd" clip-rule="evenodd" d="M69.321 0.00908884C69.321 0.00908884 69.307 68.9221 69.307 70.5882C69.307 76.3847 61.7509 76.2222 61.7509 76.2222C61.7509 76.2222 47.2276 76.2222 41.724 76.2222C37.6041 76.2222 35.0922 80 35.0922 80C35.0922 80 32.8678 76.2222 28.0051 76.2222C20.9316 76.2222 9.23977 76.2222 9.23977 76.2222C9.23977 76.2222 0.410156 76.5725 0.410156 71.2814C0.410156 68.2817 0.410156 0 0.410156 0L69.321 0.00908884Z" fill="#D12E18"/>
<path fill-rule="evenodd" clip-rule="evenodd" d="M37.2649 39.087L52.2705 23.4077C52.2705 23.4077 54.5142 21.4361 56.1292 21.5553C57.7443 21.6745 58.472 22.173 58.472 22.173C58.472 22.173 58.4783 23.7457 56.8871 25.1919C56.5563 24.5483 56.4737 24.4372 56.4737 24.4372C56.4737 24.4372 53.3825 28.5048 52.408 29.1711C54.3777 28.5887 56.7334 27.8581 58.8168 26.3581C58.0362 26.0512 57.9207 26.0151 57.9207 26.0151C57.9207 26.0151 59.2551 24.6784 59.7125 24.0254C59.9779 24.8665 60.0325 26.8765 58.472 28.4328C58.2256 28.1056 57.9207 27.6613 57.9207 27.6613C57.9207 27.6613 55.5076 31.1776 53.8554 32.7381C55.6273 32.3396 58.0131 31.4541 60.6086 29.5137C59.547 29.3473 59.4371 29.3081 59.4371 29.3081C59.4371 29.3081 61.8488 26.9803 61.8488 23.6825C61.8488 21.8367 59.9194 20.458 59.9194 20.458C59.9194 20.458 59.0016 19.0248 56.8871 19.0171C55.188 19.0171 54.6822 19.5659 54.6822 19.5659C54.6822 19.5659 55.5405 16.54 54.8891 15.4497C53.9954 13.9546 52.6835 13.8718 52.6835 13.8718C52.6835 13.8718 51.5645 12.3623 48.8937 12.3623C46.2226 12.3623 44.0699 14.7635 44.0699 14.7635L43.7254 14.2832C43.7254 14.2832 42.5805 15.3774 41.4516 20.2518C42.7348 18.8996 44.0863 17.4105 45.9307 16.2041C45.1168 15.8398 45.1039 15.8612 45.1039 15.8612C45.1039 15.8612 46.517 14.079 48.4863 14.079C48.8751 14.079 49.6592 14.2787 49.6592 14.2787C49.6592 14.2787 48.7327 14.8103 47.7225 16.2726C47.2632 15.614 47.2401 15.5867 47.2401 15.5867C47.2401 15.5867 45.5922 17.6013 44.828 21.8297C46.0241 20.7265 48.3249 18.765 49.8587 17.7821C48.6756 17.3713 48.6182 17.3703 48.6182 17.3703C48.6182 17.3703 49.8857 15.6864 51.1679 15.7238C51.6212 15.7371 52.2432 15.9947 52.3888 16.6606C52.5344 17.3269 52.6625 19.266 51.4437 20.6636C50.4835 21.7637 41.0995 31.3409 37.0527 35.3459" fill="white"/>
<path d="M37.3915 39.2077L37.1384 38.9661L52.144 23.2868C52.2487 23.1938 54.4847 21.2638 56.1421 21.3809C57.7855 21.5022 58.5398 22.0074 58.571 22.0287L58.6466 22.0804L58.6469 22.172C58.6473 22.2395 58.6347 23.8395 57.0046 25.3206L56.8355 25.4744L56.7312 25.2713C56.6052 25.0263 56.5163 24.8606 56.4547 24.7491C55.9205 25.4447 54.1903 27.6725 53.1059 28.7779C54.9656 28.2074 56.7704 27.5477 58.4492 26.4015C57.9665 26.2134 57.872 26.1826 57.8674 26.1812L57.5954 26.0935L57.7964 25.8911C57.8097 25.8778 59.1251 24.5575 59.5686 23.9248L59.7723 23.6343L59.8791 23.9723C60.1531 24.8413 60.2375 26.9178 58.5955 28.5559L58.453 28.6978L58.3319 28.5373C58.1915 28.351 58.0326 28.1273 57.9206 27.9676C57.4274 28.6737 55.7893 30.9767 54.421 32.4179C56.3843 31.8904 58.313 30.9515 60.1671 29.6196C59.5297 29.5154 59.4023 29.4808 59.3775 29.4721L59.1135 29.377L59.3152 29.182C59.3386 29.1592 61.6733 26.864 61.6733 23.6818C61.6733 21.9462 59.8357 20.6126 59.8171 20.5996L59.7719 20.5521C59.7359 20.4969 58.8734 19.1986 56.8859 19.1916C55.309 19.1916 54.8137 19.6806 54.8088 19.6859L54.3268 20.1802L54.5134 19.5181C54.5218 19.4887 55.3437 16.5523 54.7385 15.5389C53.9019 14.1392 52.6845 14.0466 52.6722 14.0459L52.5917 14.0406L52.543 13.9756C52.5322 13.9613 51.4352 12.5368 48.8936 12.5368C46.3303 12.5368 44.221 14.8562 44.2 14.8796L44.0544 15.0418L43.7159 14.5702C43.4085 14.9925 42.6 16.3363 41.7742 19.6555C42.8887 18.4781 44.0519 17.2738 45.5693 16.2346C45.1626 16.057 45.0824 16.0339 45.0733 16.0315L45.1118 15.8797L44.9532 15.77C44.9725 15.7385 44.9886 15.7133 45.0103 15.698C45.2728 15.3879 46.6275 13.9036 48.4854 13.9036C48.8918 13.9036 49.6686 14.1004 49.7015 14.1088L50.1173 14.2147L49.7459 14.4297C49.7368 14.435 48.8372 14.9649 47.8655 16.3712L47.722 16.5789L47.5778 16.3719C47.4154 16.1391 47.3079 15.986 47.2369 15.885C46.8497 16.4432 45.7391 18.2449 45.0989 21.3456C46.2631 20.2997 48.091 18.7609 49.4655 17.831C48.7161 17.5738 48.5978 17.5444 48.5856 17.5416L48.2415 17.5364L48.4774 17.2647C48.5309 17.1938 49.7855 15.5476 51.1247 15.5476C51.1405 15.5476 51.1562 15.548 51.1723 15.5483C51.7495 15.5655 52.402 15.9042 52.5591 16.6226C52.5808 16.7215 53.0709 19.0622 51.5748 20.7776C50.5979 21.8969 41.1774 31.5084 37.1751 35.469L36.9287 35.2208C40.9279 31.263 50.3371 21.6637 51.3109 20.5476C52.4163 19.2804 52.3869 17.4745 52.2172 16.6967C52.0834 16.0863 51.4908 15.907 51.1618 15.8976C51.1492 15.8972 51.1366 15.8969 51.124 15.8969C50.2125 15.8969 49.2842 16.8547 48.9188 17.2777C49.1033 17.3371 49.4078 17.4399 49.915 17.6161L50.2549 17.7339L49.9521 17.9282C48.4165 18.9123 46.1168 20.8769 44.9455 21.957L44.5619 22.3111L44.6547 21.7976C45.4181 17.5734 47.0349 15.5585 47.1035 15.4749L47.2379 15.3106L47.3737 15.4735C47.3916 15.4952 47.5522 15.7238 47.7227 15.9675C48.3314 15.1303 48.8943 14.6244 49.2356 14.3598C48.9898 14.3081 48.6804 14.2525 48.4858 14.2525C47.0006 14.2525 45.8259 15.3369 45.4065 15.7815C45.5469 15.8399 45.738 15.9252 46.0019 16.0433L46.2939 16.1741L46.0261 16.3492C44.3365 17.4542 43.0809 18.7819 41.867 20.0662L41.1358 20.8374L41.2807 20.2113C42.4085 15.3417 43.5559 14.2021 43.6042 14.1557L43.7502 14.0165L44.089 14.4888C44.6295 13.9424 46.5487 12.1865 48.8939 12.1865C51.3442 12.1865 52.5255 13.4097 52.7751 13.7051C53.0877 13.7488 54.2267 13.9987 55.0395 15.3589C55.5754 16.2555 55.1753 18.2893 54.9614 19.1825C55.3108 19.0196 55.9149 18.8413 56.887 18.8413C58.9308 18.8486 59.8983 20.1186 60.0474 20.334C60.2935 20.5164 62.0237 21.8651 62.0237 23.6815C62.0237 26.4518 60.3908 28.5227 59.7814 29.1991C59.9522 29.2298 60.22 29.2753 60.6358 29.3403L61.0457 29.4046L60.7135 29.6528C58.5279 31.2864 56.2338 32.3819 53.8938 32.908L53.2722 33.0479L53.7349 32.6105C55.3549 31.0808 57.7523 27.5967 57.7761 27.5617L57.9206 27.3513L58.0652 27.5617C58.0655 27.5624 58.2773 27.8707 58.4894 28.1612C59.619 26.9304 59.7978 25.3832 59.6284 24.4219C59.2087 24.9375 58.557 25.6153 58.2357 25.9439C58.3718 25.9956 58.5759 26.0746 58.8808 26.1945L59.179 26.3116L58.9189 26.499C56.8985 27.9536 54.7098 28.6716 52.4576 29.3379L51.3921 29.6528L52.3092 29.0261C53.2494 28.3835 56.3035 24.3712 56.3343 24.3306L56.4757 24.1446L56.6143 24.3324C56.6276 24.3505 56.7004 24.4561 56.9353 24.9046C58.076 23.779 58.2612 22.6069 58.2913 22.2688C58.0641 22.1454 57.3602 21.821 56.1165 21.7291C54.5935 21.6179 52.4079 23.5196 52.3859 23.5385L37.3915 39.2077Z" fill="#D12E18"/>
<path fill-rule="evenodd" clip-rule="evenodd" d="M33.1058 35.2645L15.4724 17.9873C15.4724 17.9873 14.9197 16.8778 15.9551 16.2035C16.9902 15.5295 17.8751 15.0506 19.6074 15.3802C21.3397 15.7099 22.157 16.4094 22.157 16.4094L21.3303 17.3015C21.3303 17.3015 24.1382 18.2537 26.843 20.2511C26.139 18.3785 24.7977 15.7997 23.3976 14.2137C23.1263 15.2998 22.9838 15.4487 22.9838 15.4487C22.9838 15.4487 21.2403 13.8498 18.7803 13.6649C17.4603 13.6649 15.6387 13.9393 13.681 13.9393C11.7232 13.9393 9.33984 13.459 9.33984 13.459C9.33984 13.459 9.82184 15.4844 9.82184 17.0267C9.82184 18.5687 9.35034 21.849 9.61532 23.1323C9.98356 25.2343 11.1313 26.6315 11.1313 26.6315C11.1313 26.6315 10.628 26.9423 10.1666 27.043C10.3654 27.273 12.4492 29.1981 16.0237 30.6792C15.3226 29.6424 13.6684 27.1272 12.7849 24.9847C12.1947 25.8953 12.0271 25.945 12.0271 25.945C12.0271 25.945 11.2437 24.6512 11.2003 23.132C11.1565 21.6131 11.7792 20.3724 12.2336 19.839C12.6879 19.3052 13.0348 19.0969 13.4741 19.1531C13.899 19.2073 13.9624 19.5017 14.9211 20.4567C15.819 21.3502 30.9027 37.1882 32.8387 39.2213" fill="white"/>
<path fill-rule="evenodd" clip-rule="evenodd" d="M19.6547 57.2328C20.3289 58.2193 20.7231 59.4117 20.7231 60.696C20.7231 64.0935 17.9655 66.8474 14.5639 66.8474C11.1619 66.8474 8.4043 64.0935 8.4043 60.696C8.4043 57.2988 11.1619 54.5449 14.5639 54.5449C15.5387 54.5449 16.461 54.7711 17.2801 55.1738" fill="white"/>
<path fill-rule="evenodd" clip-rule="evenodd" d="M50.6022 57.5201C50.0411 58.4472 49.7188 59.534 49.7188 60.696C49.7188 64.0934 52.4763 66.8474 55.8783 66.8474C59.2799 66.8474 62.0379 64.0934 62.0379 60.696C62.0379 57.2988 59.2799 54.5449 55.8783 54.5449C54.9031 54.5449 53.7868 54.8532 52.9678 55.2559" fill="white"/>
<path d="M55.8785 67.0228C52.3855 67.0228 49.5439 64.1849 49.5439 60.6966C49.5439 59.5423 49.8583 58.4128 50.453 57.4302L50.7523 57.6113C50.1908 58.5394 49.894 59.6066 49.894 60.6969C49.894 63.9923 52.5784 66.6735 55.8785 66.6735C59.1786 66.6735 61.8631 63.9927 61.8631 60.6969C61.8631 57.4015 59.1786 54.7207 55.8785 54.7207C55.0006 54.7207 53.9148 54.9863 53.045 55.4135L52.8906 55.1C53.8056 54.6504 54.9502 54.3711 55.8785 54.3711C59.3715 54.3711 62.2131 57.2089 62.2131 60.6969C62.2127 64.1849 59.3712 67.0228 55.8785 67.0228Z" fill="#D12E18"/>
<path fill-rule="evenodd" clip-rule="evenodd" d="M54.7235 57.0868C55.1299 56.9386 55.4211 56.9082 55.879 56.9082C57.9743 56.9082 59.673 58.6047 59.673 60.6969C59.673 62.7897 57.9743 64.4859 55.879 64.4859C53.7837 64.4859 52.085 62.7894 52.085 60.6969C52.085 60.1784 52.1893 59.6841 52.3779 59.2339" fill="#D12E18"/>
<path fill-rule="evenodd" clip-rule="evenodd" d="M17.9408 58.9707C18.2068 59.4884 18.3566 60.0753 18.3566 60.6969C18.3566 62.7897 16.6579 64.4859 14.5629 64.4859C12.4676 64.4859 10.7686 62.7894 10.7686 60.6969C10.7686 58.6043 12.4676 56.9082 14.5629 56.9082C14.9259 56.9082 15.2773 56.9592 15.6099 57.0543" fill="#D12E18"/>
<path d="M49.6592 14.2793C49.6592 14.2793 50.9995 13.561 52.6842 13.8721L49.6592 14.2793Z" fill="white"/>
<path d="M49.7417 14.4337L49.5762 14.1258C49.6332 14.0953 50.9914 13.3826 52.7156 13.7007L52.6519 14.0443C51.0463 13.7475 49.7547 14.4267 49.7417 14.4337Z" fill="#D12E18"/>
<path d="M58.4736 22.1738C58.4736 22.1738 59.2917 22.473 59.7142 24.0261L58.4736 22.1738Z" fill="white"/>
<path d="M59.5445 24.0717C59.1553 22.6414 58.4185 22.3401 58.4111 22.3373L58.5333 22.0098C58.57 22.0234 59.4413 22.359 59.8823 23.9801L59.5445 24.0717Z" fill="#D12E18"/>
<path fill-rule="evenodd" clip-rule="evenodd" d="M44.0696 14.7627C44.0696 14.7627 43.085 15.8729 41.5273 20.1447C43.7154 17.0737 45.1033 15.8607 45.1033 15.8607" fill="white"/>
<path d="M40.9219 21.2977L41.364 20.0854C42.915 15.8315 43.8986 14.6936 43.9395 14.6475L44.202 14.8789C44.1933 14.8887 43.4054 15.8105 42.1473 19.0045C43.8765 16.712 44.9385 15.7738 44.9889 15.7297L45.2196 15.9926C45.2056 16.0048 43.8184 17.2329 41.6709 20.2465L40.9219 21.2977Z" fill="#D12E18"/>
<path fill-rule="evenodd" clip-rule="evenodd" d="M47.7235 16.2734C47.7235 16.2734 46.3686 17.7937 44.8291 21.8306C46.8512 19.0567 48.6193 17.3711 48.6193 17.3711" fill="white"/>
<path d="M44.1982 22.9917L44.6648 21.7685C46.198 17.7478 47.5358 16.2205 47.5918 16.1572L47.8536 16.3897C47.8417 16.4033 46.778 17.6219 45.4829 20.6726C47.1441 18.5427 48.4827 17.2594 48.4981 17.2447L48.7396 17.4978C48.7221 17.5146 46.9586 19.2062 44.9701 21.9335L44.1982 22.9917Z" fill="#D12E18"/>
<path fill-rule="evenodd" clip-rule="evenodd" d="M59.9218 20.4584C59.9218 20.4584 57.4369 18.6891 54.6846 19.5664L59.9218 20.4584Z" fill="white"/>
<path d="M59.8198 20.5995C59.7956 20.5827 57.3709 18.892 54.7373 19.7319L54.6309 19.3988C57.4353 18.5047 59.9181 20.2409 60.0228 20.315L59.8198 20.5995Z" fill="#D12E18"/>
<path fill-rule="evenodd" clip-rule="evenodd" d="M56.8882 25.1924C56.8882 25.1924 54.9319 27.4749 52.4092 29.1712C56.7066 27.1928 57.9219 26.0156 57.9219 26.0156" fill="white"/>
<path d="M52.4827 29.3293L52.3115 29.0255C54.7842 27.3631 56.736 25.1005 56.7552 25.0781L57.0212 25.3053C57.0055 25.3235 55.7506 26.779 53.9738 28.224C56.8742 26.7619 57.7899 25.8992 57.8001 25.8894L58.0437 26.1404C57.9936 26.1893 56.758 27.361 52.4827 29.3293Z" fill="#D12E18"/>
<path fill-rule="evenodd" clip-rule="evenodd" d="M59.4371 29.3082C59.4371 29.3082 58.101 30.8822 53.8555 32.7379C57.1787 30.1255 58.4721 28.4326 58.4721 28.4326" fill="white"/>
<path d="M52.6719 33.4463L53.7479 32.6004C57.0158 30.031 58.3207 28.343 58.3337 28.3262L58.612 28.538C58.5651 28.5995 57.557 29.9034 55.0602 31.9879C58.2161 30.44 59.2928 29.2078 59.3047 29.1942L59.5714 29.4203C59.5157 29.486 58.1604 31.0465 53.9264 32.8975L52.6719 33.4463Z" fill="#D12E18"/>
<path fill-rule="evenodd" clip-rule="evenodd" d="M32.5014 39.9648L15.6669 56.7869C15.6669 56.7869 15.3221 57.8335 16.1201 58.6305C16.9182 59.4279 17.9533 58.9654 17.9533 58.9654L33.8273 42.8107" fill="white"/>
<path fill-rule="evenodd" clip-rule="evenodd" d="M36.3213 42.8895L46.8279 53.5944C46.8279 53.5944 47.1804 54.1891 47.1034 54.6921C47.0264 55.1951 45.4131 59.2051 44.7606 60.7981C44.1082 62.3914 43.8645 63.6111 43.8645 63.6111L45.4495 64.1599C45.4495 64.1599 46.27 60.9589 49.9975 56.8874C50.2698 57.2223 52.3109 59.2005 52.3109 59.2005C52.3109 59.2005 53.2724 59.7577 54.1839 58.8856C55.1297 57.9802 54.8003 57.0629 54.5651 56.8252L52.3963 54.6946C52.3963 54.6946 54.2462 52.3496 59.3696 50.3015C58.777 49.021 58.7494 48.9979 58.7494 48.9979C58.7494 48.9979 55.7524 49.4531 51.8583 51.0562C51.4176 51.224 49.4882 51.784 48.9638 51.2618C48.5175 50.8171 40.1269 42.5138 37.6535 40.0664" fill="white"/>
<path fill-rule="evenodd" clip-rule="evenodd" d="M37.5375 12.0213C37.5624 11.9028 37.4854 11.6539 37.3408 11.4966C37.1962 11.339 37.0125 11.2998 36.8329 11.2865C36.6533 11.2733 36.1318 10.9191 36.0464 10.6828C35.9613 10.4465 36.0926 10.4598 36.3817 10.5385C36.6705 10.6171 36.9201 10.709 37.0254 10.8664C37.1308 11.0237 37.5641 11.1027 37.5641 11.1027C37.6957 11.2079 37.9849 11.0635 38.1819 11.0894C38.379 11.1156 38.2211 10.6958 38.4088 10.8401C38.5964 10.9845 38.8271 10.8632 38.8271 10.8632C39.1288 10.8185 38.9464 10.377 38.9464 10.377C38.9464 10.377 39.4043 10.3602 39.5663 10.2396C39.7291 10.1193 39.6199 9.85714 39.6353 9.69075C39.6503 9.52435 39.3875 9.5303 39.4284 9.41634C39.469 9.30272 39.2905 9.14192 39.2905 9.14192C39.2905 9.14192 39.6038 8.90771 39.566 8.79899C39.5282 8.69028 39.3591 8.5931 39.3591 8.5931C39.3591 8.5931 39.5877 8.3012 39.566 8.18165C39.5443 8.06175 39.3591 8.04427 39.3591 8.04427C39.3591 8.04427 39.4914 7.83033 39.497 7.63247C39.5026 7.43497 39.2534 7.55452 39.2215 7.49544C39.2964 7.34932 39.2754 7.05394 39.0357 7.2081C39.1799 6.91271 39.0357 6.46316 38.9461 6.46631C38.8561 6.4691 38.5526 7.06058 37.7055 7.83837C37.4556 8.06804 36.9666 8.53821 36.9474 8.5931C36.9285 8.64798 36.9141 8.83849 37.0163 8.93602C37.1189 9.0339 37.365 9.23456 37.1542 9.41634C36.9435 9.59811 36.4206 9.59881 36.3275 9.41634C36.2343 9.23421 36.5529 9.18911 36.5343 9.07341C36.5154 8.95735 36.2291 8.82451 36.1899 8.66161C36.1503 8.49871 35.9788 8.27988 36.052 8.11279C36.1248 7.94569 36.1381 7.71148 36.3964 7.70134C36.6544 7.6912 36.7772 7.99673 36.8788 7.83872C36.9799 7.68037 37.0167 7.56396 37.0167 7.56396C37.0167 7.56396 37.1731 7.69435 37.2925 7.63247C37.4115 7.57095 37.4388 7.37939 37.3611 7.28955C37.2834 7.19971 37.1948 6.98192 37.2925 6.8781C37.3895 6.77428 37.5904 6.57852 37.7748 6.6722C37.959 6.76624 37.8729 7.09658 38.0503 7.084C38.1557 7.07631 38.3262 6.90642 38.3258 6.74107C38.3258 6.57537 38.1812 6.5509 38.1889 6.46596C38.1963 6.38101 38.3657 6.45023 38.4574 6.34535C38.5498 6.24083 38.3342 6.22231 38.3342 6.22231C38.3342 6.22231 38.2852 6.0622 38.162 6.02305C38.0216 5.97865 37.9166 6.15134 37.8662 6.07444C37.5361 5.57245 37.2057 6.01326 37.3373 6.19539C37.4147 6.30201 37.3065 6.5523 37.1266 6.58411C36.9467 6.61592 37.0961 6.40443 37.0874 6.27649C37.0629 5.92937 36.7177 5.86085 36.6715 5.78045C36.6257 5.7004 36.6624 5.48716 36.4885 5.50149C36.3145 5.51582 36.3299 5.79338 36.3271 5.84896C36.3243 5.90455 36.2228 5.91119 36.1202 5.91748C35.9165 5.93041 36.059 6.24678 35.8945 6.26006C35.7303 6.27334 35.612 5.97131 35.6977 5.75493C35.7828 5.5382 35.7065 5.369 35.7065 5.369C35.7065 5.369 35.6382 5.19037 35.2616 5.1313C35.3253 4.83801 35.0817 4.86912 35.0817 4.86912C35.0817 4.86912 34.851 4.83801 34.9144 5.1313C34.5381 5.19002 34.4271 5.38718 34.4271 5.38718C34.4271 5.38718 34.3484 5.54728 34.4341 5.76402C34.5195 5.9804 34.3998 6.27789 34.236 6.26495C34.0715 6.25167 34.2136 5.93321 34.0099 5.91993C33.9077 5.91329 33.8058 5.90559 33.803 5.85001C33.7999 5.79443 33.8153 5.51617 33.6413 5.50184C33.4673 5.48716 33.5037 5.70005 33.4582 5.78045C33.412 5.8605 33.0672 5.92937 33.0424 6.27649C33.0333 6.40478 33.1827 6.61592 33.0028 6.58411C32.8229 6.55195 32.7151 6.30201 32.7925 6.19539C32.9241 6.01326 32.594 5.5728 32.2636 6.07444C32.2128 6.15134 32.1085 5.97865 31.9678 6.02305C31.8442 6.06185 31.7956 6.22231 31.7956 6.22231C31.7956 6.22231 31.5803 6.24083 31.672 6.34535C31.7637 6.45023 31.9328 6.38136 31.9408 6.46596C31.9482 6.5509 31.804 6.57537 31.804 6.74107C31.8036 6.90642 31.9737 7.07631 32.0794 7.084C32.2569 7.09658 32.1708 6.76624 32.3549 6.6722C32.539 6.57817 32.7403 6.77428 32.8373 6.8781C32.9342 6.98192 32.846 7.19971 32.7687 7.28955C32.6906 7.37939 32.7183 7.57095 32.8373 7.63247C32.9563 7.69435 33.1131 7.56396 33.1131 7.56396C33.1131 7.56396 33.1495 7.68037 33.2507 7.83872C33.3522 7.99708 33.475 7.6912 33.7334 7.70134C33.9917 7.71148 34.005 7.94604 34.0778 8.11279C34.1506 8.27988 33.9794 8.49871 33.9399 8.66161C33.9003 8.82451 33.6136 8.95735 33.5954 9.07341C33.5769 9.18911 33.8951 9.23386 33.8023 9.41634C33.7088 9.59881 33.1859 9.59811 32.9752 9.41634C32.7645 9.23456 33.0109 9.0339 33.1134 8.93602C33.2156 8.83849 33.2013 8.64798 33.182 8.5931C33.1631 8.53821 32.6741 8.06804 32.4242 7.83837C31.5771 7.06023 31.2733 6.4691 31.1837 6.46631C31.0941 6.46316 30.9495 6.91271 31.0941 7.2081C30.854 7.05394 30.833 7.34932 30.9082 7.49544C30.8764 7.55452 30.6268 7.43497 30.6324 7.63247C30.638 7.83033 30.7703 8.04427 30.7703 8.04427C30.7703 8.04427 30.5855 8.06175 30.5638 8.18165C30.5421 8.3012 30.7703 8.5931 30.7703 8.5931C30.7703 8.5931 30.6016 8.69028 30.5638 8.79899C30.526 8.90771 30.8393 9.14192 30.8393 9.14192C30.8393 9.14192 30.6604 9.30238 30.7014 9.41634C30.742 9.52995 30.4794 9.52435 30.4945 9.69075C30.5095 9.85749 30.4007 10.1193 30.5634 10.2396C30.7259 10.3602 31.1833 10.377 31.1833 10.377C31.1833 10.377 31.001 10.8185 31.3024 10.8632C31.3024 10.8632 31.533 10.9845 31.7207 10.8401C31.9083 10.6958 31.7508 11.1159 31.9478 11.0894C32.1445 11.0632 32.434 11.2075 32.5653 11.1027C32.5653 11.1027 32.999 11.024 33.1043 10.8664C33.2093 10.7087 33.4589 10.6171 33.7481 10.5385C34.0372 10.4595 34.1684 10.4465 34.083 10.6828C33.998 10.9191 33.4761 11.2733 33.2965 11.2865C33.1173 11.2998 32.9335 11.339 32.789 11.4966C32.6444 11.6539 32.5653 11.9035 32.5919 12.0213C32.6185 12.1391 32.4736 11.877 32.1452 11.8637L30.8113 10.8335L30.6142 10.7744L30.6537 10.9579L31.804 12.0231C31.804 12.0231 31.6436 12.2084 32.0105 12.2975C31.8883 12.5384 31.8666 12.8288 31.9415 12.9152C32.0168 13.0015 32.3553 13.1896 32.3553 13.1896C32.3553 13.1896 32.4582 13.4892 32.5621 13.5325C32.6661 13.5759 32.7319 13.5259 32.769 13.3952C32.8058 13.2644 32.727 12.846 32.727 12.846L33.3728 12.718C33.3728 12.718 33.8744 12.6055 34.0515 12.3297C34.2286 12.0538 34.2966 11.6197 34.6165 11.7382C35.2732 11.9815 34.2693 13.0124 33.9392 13.0522C33.6091 13.0921 33.2328 13.5227 33.2507 13.8069C33.2689 14.0911 33.746 14.0356 33.8023 14.2184C34.082 15.1294 33.2265 15.9065 33.4775 16.3452C33.7302 16.7842 33.9819 16.8944 33.9819 16.8944V17.2373C33.9819 17.2373 33.8923 17.5498 33.8923 18.0605C33.8923 18.5712 34.6595 18.8649 34.6595 18.8649C34.6595 18.8649 34.2857 19.0627 34.4285 19.6385C34.571 20.2139 34.7127 21.6335 34.5983 23.3432C34.4838 25.0526 34.0785 29.8341 34.0627 31.5791C34.0473 33.3242 34.3246 34.1544 34.3246 34.1544H33.0483C33.0483 34.1544 33.3777 34.0667 33.3214 34.6669C33.2643 35.2671 32.8411 36.0704 32.8387 36.5518C32.8366 37.0331 33.3683 37.4184 33.9969 37.4781C33.6731 37.5529 33.3609 37.6973 33.3686 37.9812C33.3767 38.265 33.8037 38.3213 33.8037 38.3213C33.8037 38.3213 32.4253 39.0736 32.4253 40.5746C32.4253 42.0753 34.0099 42.4899 34.0099 42.4899C34.0099 42.4899 33.8079 42.6972 33.8034 42.9678C33.7985 43.2384 34.1075 43.4243 34.2167 43.5841C34.326 43.7435 34.4793 44.235 34.4236 45.3666C34.368 46.4981 33.6773 51.0887 33.5275 53.1833C33.3777 55.2779 33.4523 56.1774 33.8723 57.2261C33.2321 57.2261 32.8978 57.2261 32.8978 57.2261C32.8978 57.2261 33.5758 57.3988 33.4589 57.7795C33.3543 58.1213 33.1362 59.1722 33.3214 59.6685C33.5062 60.1646 34.0057 60.79 34.5143 60.8379C33.9626 60.9592 33.8286 61.1794 33.8286 61.4234C33.8286 61.6674 34.0697 61.9285 34.3547 61.9124C34.1096 62.2057 33.9413 63.4128 33.9413 64.4447C33.9413 65.4763 34.3144 66.3754 34.3144 66.3754C34.3144 66.3754 33.8541 66.423 33.8034 66.7725C33.7526 67.1218 34.0788 67.2521 34.0788 67.2521C34.0788 67.2521 33.4586 67.4982 33.4586 68.4134C33.4586 69.3289 33.9602 69.8414 34.3547 69.8585C34.0361 69.9117 33.9549 70.3815 34.2857 70.5444C34.1278 70.658 33.8699 70.9751 33.8699 71.3967C33.8699 71.8116 34.0655 72.5111 35.054 72.5111C36.0432 72.5111 36.2599 71.8116 36.2599 71.3967C36.2599 70.9751 36.0184 70.6737 35.8602 70.5598C36.1909 70.3969 36.102 69.9194 35.7839 69.8659C36.1783 69.8491 36.6761 69.3321 36.6761 68.4166C36.6761 67.501 36.0541 67.2532 36.0541 67.2532C36.0541 67.2532 36.3796 67.1211 36.3289 66.7718C36.2781 66.4226 35.8171 66.3726 35.8171 66.3726C35.8171 66.3726 36.1902 65.47 36.1902 64.4384C36.1902 63.4069 36.0219 62.1935 35.7765 61.8999C36.0611 61.9159 36.3026 61.6422 36.3026 61.3979C36.3026 61.1535 36.1626 60.9029 35.6106 60.7819C36.1188 60.7337 36.6246 60.0632 36.8098 59.5672C36.995 59.0708 36.7769 58.1206 36.6719 57.7788C36.5553 57.3984 37.233 57.2254 37.233 57.2254C37.233 57.2254 36.8991 57.2254 36.2585 57.2254C36.6785 56.1767 36.7531 55.2769 36.6029 53.1819C36.4535 51.0873 35.7632 46.5977 35.7068 45.4658C35.6512 44.3346 35.8045 43.7914 35.9137 43.632C36.0229 43.4722 36.3317 43.2597 36.3275 42.9891C36.3233 42.7186 36.1206 42.4962 36.1206 42.4962C36.1206 42.4962 37.7055 42.0698 37.7055 40.569C37.7055 39.0683 36.3271 38.3021 36.3271 38.3021C36.3271 38.3021 36.7541 38.2224 36.7618 37.9385C36.7699 37.6547 36.4577 37.4663 36.1335 37.3914C36.7622 37.332 37.2921 36.8741 37.2921 36.3784C37.2921 35.8827 36.8662 35.2664 36.8095 34.6662C36.7531 34.066 37.0821 34.1537 37.0821 34.1537H35.8059C35.8059 34.1537 36.067 33.3235 36.0513 31.5788C36.0352 29.8337 35.6144 25.2257 35.5 23.5159C35.3855 21.8062 35.4947 20.2999 35.6379 19.7245C35.7807 19.1491 35.3428 18.9075 35.3428 18.9075C35.3428 18.9075 35.8542 18.5926 35.8542 18.0815C35.8542 17.5708 35.3813 17.2366 35.3813 17.2366V16.8937C35.3813 16.8937 36.0159 16.7835 36.2676 16.3448C36.5189 15.9061 35.983 15.129 36.2623 14.218C36.3191 14.0352 36.8277 14.0908 36.8459 13.8066C36.8641 13.5224 36.5039 13.0921 36.1738 13.0519C35.8437 13.0117 34.8482 11.9811 35.5045 11.7378C35.8245 11.6193 35.8962 12.0535 36.0737 12.3293C36.2511 12.6051 36.7548 12.7177 36.7548 12.7177L37.4014 12.8456C37.4014 12.8456 37.3226 13.2641 37.3597 13.3948C37.3965 13.5259 37.4626 13.5755 37.5666 13.5322C37.6709 13.4885 37.7738 13.1893 37.7738 13.1893C37.7738 13.1893 38.1123 13.0008 38.1872 12.9148C38.1872 12.9148 38.8607 12.782 38.8607 12.3227C38.8607 11.8633 38.3216 11.85 38.3216 11.85L38.3237 11.6253L38.5197 11.4484L38.3177 11.2907L38.1081 11.4582L38.3237 11.6256L38.3216 11.85C38.3216 11.85 37.8421 11.985 37.8421 12.2555C37.8421 12.5261 37.6891 12.5314 37.6891 12.5314C37.6891 12.5314 37.4542 12.4164 37.5375 12.0213Z" fill="#EDB400"/>
<path d="M35.054 72.6864C34.0518 72.6864 33.6948 72.0204 33.6948 71.3972C33.6948 71.0273 33.8639 70.734 34.021 70.5547C33.9255 70.4386 33.8814 70.2869 33.9045 70.1286C33.916 70.0506 33.9423 69.9793 33.9808 69.9174C33.6027 69.6919 33.2835 69.1533 33.2835 68.4139C33.2835 67.7707 33.5611 67.4173 33.7743 67.2411C33.6741 67.1275 33.5989 66.9635 33.63 66.7475C33.67 66.4724 33.8831 66.3221 34.0819 66.2508C33.9703 65.9253 33.7662 65.2244 33.7662 64.4424C33.7662 63.5846 33.8789 62.5467 34.09 62.0287C33.8222 61.9182 33.6531 61.6546 33.6531 61.4131C33.6531 61.1491 33.7736 60.9495 34.0189 60.8097C33.6178 60.5468 33.294 60.055 33.1568 59.6862C32.9506 59.1339 33.1831 57.9943 33.2909 57.6415C33.3434 57.4699 32.9748 57.2689 32.8344 57.2151L31.9544 56.877H33.6185C33.2657 55.8996 33.2132 55.0432 33.3535 53.0835C33.434 51.9547 33.6717 50.1268 33.881 48.5142C34.0571 47.1572 34.2237 45.8753 34.2493 45.358C34.3126 44.0719 34.0977 43.7188 34.0728 43.6828C34.0448 43.6419 34.0007 43.6003 33.9545 43.5542C33.8152 43.4165 33.6244 43.2277 33.629 42.9645C33.6314 42.812 33.6808 42.6785 33.7358 42.5768C33.2681 42.3849 32.2506 41.8238 32.2506 40.5723C32.2506 39.4181 32.9965 38.6854 33.426 38.3592C33.3 38.2771 33.1988 38.1533 33.1936 37.9757C33.1901 37.8506 33.2289 37.6594 33.4487 37.4989C32.9811 37.3025 32.6622 36.9235 32.664 36.5079C32.6654 36.2331 32.7805 35.8804 32.9027 35.5064C33.0105 35.1771 33.1214 34.8362 33.1477 34.5636C33.1768 34.2545 33.0899 34.1609 33.0399 34.1549L33.0483 33.8053H34.0942C34.0116 33.4593 33.8828 32.7178 33.8936 31.4908C33.9052 30.2289 34.1243 27.4033 34.2843 25.3401C34.3476 24.5239 34.4029 23.8108 34.4351 23.3322C34.5524 21.583 34.4071 20.1903 34.2811 19.6809C34.1936 19.3279 34.2808 19.0706 34.4022 18.9059C34.1558 18.757 33.8054 18.4728 33.8054 18.061C33.8054 17.6171 33.9297 17.3073 33.9825 17.1962V17.006C33.8415 16.9298 33.6038 16.762 33.4148 16.4324C33.2618 16.165 33.3749 15.8451 33.4942 15.5064C33.6251 15.1355 33.7732 14.7153 33.6367 14.2699C33.6272 14.2748 33.5569 14.2497 33.5093 14.2336C33.3546 14.1825 33.0955 14.0965 33.0777 13.8183C33.0535 13.4299 33.5019 12.9297 33.9199 12.879C34.0662 12.8615 34.621 12.3728 34.6595 12.0474C34.6672 11.9809 34.6532 11.9383 34.5573 11.9023C34.537 11.8949 34.524 11.8932 34.5167 11.8932C34.4631 11.8932 34.39 12.0502 34.3364 12.1645C34.2948 12.2536 34.2514 12.3448 34.2003 12.4242C33.9902 12.7507 33.4711 12.8755 33.4127 12.8884L32.9289 12.9842C32.9513 13.1398 32.9692 13.3355 32.9391 13.4425C32.8705 13.6861 32.7165 13.7225 32.631 13.7225C32.5873 13.7225 32.5421 13.7131 32.4966 13.6938C32.3682 13.64 32.2751 13.467 32.2145 13.3097C32.0881 13.2373 31.8848 13.1135 31.8113 13.0296C31.6968 12.8975 31.7066 12.6343 31.7829 12.3973C31.6933 12.348 31.6352 12.283 31.6096 12.2026C31.5949 12.1568 31.5932 12.1117 31.5995 12.0701L30.4962 11.0483L30.3824 10.5215L30.9201 10.6949L30.9635 10.7281C30.9519 10.6624 30.9544 10.5945 30.9631 10.5334C30.7976 10.5127 30.583 10.4697 30.4608 10.3796C30.2669 10.2359 30.2942 9.99957 30.3128 9.84331C30.3187 9.79227 30.325 9.73914 30.3219 9.70593C30.3047 9.51646 30.4479 9.42452 30.5214 9.38223C30.5207 9.30217 30.5529 9.22667 30.5931 9.16374C30.422 9.00539 30.3572 8.86381 30.3999 8.74111C30.4251 8.6684 30.4766 8.60513 30.5298 8.55549C30.4416 8.41951 30.3716 8.26779 30.3933 8.14999C30.4097 8.05875 30.4626 7.99268 30.5298 7.94724C30.4944 7.85845 30.4622 7.74798 30.4591 7.63682C30.4563 7.5274 30.499 7.45959 30.5357 7.42183C30.5858 7.37079 30.6471 7.35017 30.6964 7.34178C30.6943 7.26278 30.7094 7.18377 30.7486 7.11945C30.7776 7.07191 30.8175 7.03591 30.8648 7.01388C30.8413 6.78247 30.9012 6.54616 30.9782 6.42241C31.0461 6.31369 31.128 6.29097 31.1844 6.29097C31.3072 6.29482 31.3674 6.37382 31.5288 6.58496C31.5592 6.62481 31.5932 6.66921 31.631 6.7178C31.6345 6.65033 31.6527 6.59615 31.6758 6.5528C31.6282 6.53427 31.5816 6.50561 31.5417 6.45946C31.45 6.35529 31.4759 6.25566 31.491 6.21756C31.5253 6.13227 31.6016 6.08927 31.6748 6.06759C31.7175 5.99104 31.7934 5.89491 31.9163 5.8561C32.0139 5.82499 32.1203 5.84981 32.1886 5.88302C32.3353 5.70719 32.4809 5.66699 32.5831 5.66699C32.735 5.66699 32.8754 5.75718 32.9496 5.9019C32.9587 5.91973 32.9664 5.9379 32.973 5.95573C33.0626 5.82464 33.1897 5.75053 33.272 5.70194C33.2853 5.69425 33.2975 5.68726 33.3084 5.68062C33.3101 5.67153 33.3115 5.66174 33.3133 5.65195C33.3276 5.57155 33.3717 5.32581 33.6258 5.32581C33.7872 5.33804 33.9468 5.42089 33.9745 5.7411C33.9923 5.74249 34.0098 5.74389 34.0221 5.74459C34.1877 5.75543 34.257 5.85995 34.2881 5.95538C34.2916 5.91413 34.2888 5.86869 34.2727 5.82744C34.1621 5.54708 34.2601 5.3328 34.2717 5.30938C34.2892 5.27756 34.4054 5.0867 34.732 4.99231C34.739 4.92135 34.7628 4.86088 34.8034 4.81019C34.8636 4.73538 34.9588 4.69238 35.0645 4.69238L35.0823 4.69273C35.0883 4.69273 35.0949 4.69238 35.1026 4.69238C35.2133 4.69238 35.3123 4.73643 35.3746 4.81368C35.4145 4.86332 35.4387 4.92275 35.446 4.99162C35.7698 5.08425 35.8559 5.26568 35.8713 5.30553C35.8783 5.32021 35.9707 5.54079 35.8619 5.81765C35.8458 5.85855 35.8426 5.9033 35.8468 5.94455C35.879 5.85121 35.949 5.75228 36.1104 5.74179C36.1244 5.7411 36.1415 5.82115 36.1587 5.81975C36.1891 5.49849 36.3442 5.48836 36.4755 5.48836C36.4762 5.48836 36.4769 5.48836 36.4776 5.48836C36.7608 5.48836 36.8042 5.65196 36.8185 5.73236C36.8203 5.74214 36.8217 5.71103 36.8234 5.72047C36.8339 5.72711 36.8465 5.71348 36.8598 5.72117C36.9424 5.76941 37.0691 5.83373 37.1587 5.96482C37.1654 5.94664 37.1731 5.92357 37.1822 5.90609C37.2564 5.76137 37.3968 5.66873 37.5487 5.66873C37.6509 5.66873 37.7969 5.70754 37.9435 5.88372C38.0226 5.84632 38.121 5.82569 38.2155 5.85575C38.3387 5.89456 38.4143 5.99034 38.457 6.0669C38.5298 6.08857 38.6065 6.13192 38.6408 6.21686C38.6558 6.25496 38.6817 6.35529 38.5893 6.45946C38.5487 6.50596 38.5015 6.53427 38.456 6.55245C38.4801 6.59719 38.4976 6.65068 38.5011 6.71675C38.5386 6.66851 38.5725 6.62446 38.603 6.58461C38.7647 6.37312 38.8253 6.29412 38.9415 6.29027C39.0045 6.29027 39.0864 6.31334 39.1539 6.42171C39.2313 6.54546 39.2912 6.78177 39.2677 7.01318C39.3146 7.03486 39.3549 7.07086 39.3839 7.11841C39.4231 7.18273 39.4385 7.26208 39.4361 7.34108C39.4854 7.34912 39.5467 7.36975 39.5964 7.42113C39.6328 7.45854 39.6758 7.52635 39.673 7.63612C39.6699 7.74728 39.6373 7.85775 39.6023 7.94654C39.6695 7.99163 39.7227 8.0577 39.7392 8.14929C39.7609 8.26744 39.6909 8.41881 39.6023 8.55479C39.6555 8.60478 39.707 8.6677 39.7325 8.74041C39.7752 8.86346 39.7101 9.00504 39.539 9.16305C39.5792 9.22562 39.6114 9.30113 39.6107 9.38118C39.6842 9.42383 39.8278 9.51541 39.8106 9.70523C39.8075 9.73879 39.8138 9.79192 39.8197 9.84331C39.8379 9.99957 39.8656 10.2355 39.6713 10.3792C39.5495 10.4694 39.3353 10.5124 39.1693 10.533C39.184 10.6361 39.1809 10.7571 39.1235 10.8581C39.0871 10.9221 39.016 11.0018 38.8813 11.0301C38.8106 11.0602 38.61 11.1102 38.4514 11.057C38.442 11.0899 38.4297 11.1185 38.4154 11.1437L38.7931 11.4381L38.5046 11.6988C38.7475 11.7565 39.0374 11.9285 39.0374 12.3221C39.0374 12.7724 38.5792 13.0006 38.2736 13.0747C38.1812 13.1537 38.023 13.2492 37.918 13.3093C37.8574 13.4663 37.7643 13.6397 37.6358 13.6935C37.59 13.7127 37.5445 13.7221 37.5011 13.7221C37.4157 13.7221 37.2617 13.6858 37.193 13.4421C37.1629 13.3355 37.1808 13.1398 37.2032 12.9842L36.724 12.8891C36.661 12.8751 36.1408 12.7507 35.9308 12.4238C35.8797 12.3448 35.8367 12.254 35.795 12.1652C35.7411 12.0502 35.6672 11.8925 35.613 11.8925C35.6056 11.8925 35.5923 11.8939 35.572 11.9016C35.4758 11.9376 35.4618 11.9806 35.4695 12.0474C35.508 12.3728 36.061 12.8608 36.207 12.8783C36.6228 12.9286 37.0684 13.4289 37.0436 13.8176C37.0257 14.0965 36.7625 14.1822 36.6053 14.2332C36.556 14.2493 36.4814 14.2734 36.4629 14.2906C36.3372 14.7177 36.4296 15.1372 36.5112 15.5074C36.5896 15.8636 36.6571 16.1712 36.5084 16.4313C36.3022 16.791 35.934 16.9581 35.7327 17.0256V17.163C35.8556 17.2909 36.1181 17.6185 36.1181 18.0761C36.1181 18.4711 35.8395 18.7577 35.635 18.9143C35.7828 19.0863 35.9032 19.3649 35.809 19.7446C35.663 20.3318 35.5671 21.8336 35.676 23.4605C35.7103 23.9744 35.7726 24.7466 35.843 25.6226C36.0092 27.6903 36.2164 30.2635 36.2277 31.4898C36.2389 32.7178 36.1146 33.4589 36.0355 33.8043H37.1325V34.1539C37.1325 34.1598 36.9799 34.2531 37.0089 34.5625C37.0345 34.832 37.1328 35.1372 37.2399 35.4323C37.3635 35.772 37.4738 36.0929 37.4738 36.3782C37.4738 36.8176 37.1381 37.2273 36.6648 37.4335C36.8465 37.5685 36.9445 37.7457 36.9389 37.9432C36.9337 38.1239 36.8266 38.2522 36.6967 38.3386C37.1241 38.6637 37.8812 39.4037 37.8812 40.5667C37.8812 41.8203 36.8595 42.3863 36.3932 42.5789C36.4492 42.6834 36.5003 42.8204 36.5028 42.9756C36.507 43.2396 36.3148 43.4364 36.1744 43.5801C36.1289 43.6269 36.0859 43.6692 36.0582 43.709C35.9679 43.8408 35.8293 44.3484 35.8818 45.4139C35.9074 45.9295 36.0652 47.1352 36.2483 48.531C36.4587 50.1335 36.6967 51.9498 36.7772 53.0821C36.9176 55.0418 36.8654 55.8986 36.5122 56.876H38.1675L37.296 57.2137C37.1314 57.2776 36.7881 57.4734 36.8392 57.6401C36.9228 57.9121 37.1902 59.0472 36.9736 59.6282C36.8329 60.0057 36.5035 60.5101 36.0985 60.7765C36.4016 60.953 36.4772 61.1977 36.4772 61.3977C36.4772 61.6459 36.3026 61.9171 36.0428 62.0259C36.2529 62.546 36.3649 63.5815 36.3649 64.4379C36.3649 65.2206 36.1604 65.9229 36.0488 66.2483C36.248 66.32 36.4618 66.4707 36.5014 66.7458C36.5325 66.9618 36.4573 67.1264 36.3572 67.2404C36.571 67.4169 36.8504 67.7711 36.8504 68.4157C36.8504 69.1571 36.5325 69.6972 36.1559 69.923C36.1972 69.9877 36.2256 70.0621 36.2375 70.1429C36.2606 70.3009 36.2175 70.4523 36.1233 70.568C36.2767 70.7442 36.4338 71.0284 36.4338 71.3954C36.4349 71.9918 36.0733 72.6864 35.054 72.6864ZM35.047 69.9199L34.384 70.031C34.3 70.045 34.2601 70.117 34.251 70.1796C34.2461 70.2132 34.2395 70.3271 34.3634 70.3883L34.6245 70.5169L34.3882 70.6868C34.293 70.7553 34.0452 71.0168 34.0452 71.3972C34.0452 71.6796 34.1435 72.3368 35.0543 72.3368C36.011 72.3368 36.0852 71.6174 36.0852 71.3972C36.0852 71.0336 35.8713 70.7837 35.7583 70.7022L35.5223 70.5323L35.7835 70.4037C35.9046 70.3439 35.8976 70.2292 35.8927 70.1953C35.8836 70.1321 35.8419 70.0534 35.7555 70.0387L35.047 69.9199ZM35.1387 60.8583L34.552 60.9873C34.0039 61.1079 34.0039 61.3407 34.0039 61.4319C34.0039 61.5763 34.1547 61.7714 34.3305 61.7714H34.7043L34.4894 62.0388C34.3133 62.2499 34.1169 63.2875 34.1169 64.4522C34.1169 65.4345 34.4733 66.3043 34.4768 66.313L34.566 66.5266L34.3333 66.5497C34.3308 66.55 34.0074 66.5888 33.9769 66.7979C33.9465 67.0086 34.1365 67.0873 34.1446 67.0904L34.5517 67.253L34.1439 67.4145C34.1246 67.4225 33.6339 67.6372 33.6339 68.4132C33.6339 69.2218 34.0567 69.6706 34.3623 69.6836L35.159 69.7178L35.7765 69.6913C36.0803 69.6783 36.501 69.2281 36.501 68.4167C36.501 67.6403 36.0085 67.4239 35.9875 67.4148L35.5979 67.2509L35.9879 67.0911C36.0194 67.0775 36.1842 66.9954 36.1555 66.7968C36.1251 66.5878 35.8013 66.5469 35.7982 66.5465L35.5664 66.5213L35.655 66.306C35.6585 66.2973 36.0152 65.4209 36.0152 64.4386C36.0152 63.2717 35.8185 62.2234 35.6424 62.0122L35.3841 61.7256L35.7866 61.7707C35.9735 61.7707 36.1275 61.5651 36.1275 61.4211C36.1275 61.3327 36.1275 61.0862 35.5731 60.9646L35.1387 60.8583ZM33.4813 57.2266C33.6115 57.3685 33.6875 57.5437 33.6262 57.7436C33.5212 58.0872 33.3248 59.1335 33.4855 59.5642C33.6682 60.0546 34.132 60.6049 34.531 60.6426L34.8874 60.6762L35.5944 60.609C35.9861 60.572 36.4629 59.9983 36.6459 59.5072C36.7993 59.0961 36.6267 58.1404 36.5049 57.7436C36.4436 57.5437 36.5196 57.3685 36.6498 57.2266H36.0001L36.096 56.9868C36.5073 55.9601 36.5759 55.1624 36.4286 53.108C36.3484 51.9862 36.1111 50.1751 35.9014 48.5775C35.7177 47.174 35.5587 45.962 35.5321 45.4321C35.4653 44.0708 35.6966 43.6189 35.7691 43.5126C35.8062 43.4587 35.8619 43.3997 35.9235 43.3368C36.0316 43.2259 36.1545 43.1004 36.1524 42.9819C36.1492 42.7841 35.9942 42.6124 35.9924 42.611L35.7947 42.3992L36.075 42.323C36.1345 42.3069 37.5308 41.9129 37.5308 40.5674C37.5308 39.1856 36.2553 38.4616 36.2427 38.4546L35.8223 38.2215L36.2952 38.1302C36.3855 38.1128 36.5847 38.0393 36.5875 37.9345C36.5927 37.7576 36.3439 37.6202 36.0946 37.5629L35.0452 37.3203L36.1174 37.2186C36.6596 37.1672 37.1174 36.783 37.1174 36.3796C37.1174 36.1559 37.011 35.8629 36.8987 35.5529C36.7839 35.2372 36.6652 34.9107 36.6358 34.5964C36.6193 34.423 36.6309 34.2755 36.6694 34.1549H35.5608L35.641 33.9225C35.6434 33.9151 35.892 33.1768 35.8766 31.494C35.8654 30.2803 35.6588 27.7141 35.4929 25.652C35.4222 24.7742 35.3599 24.0002 35.3253 23.485C35.2129 21.8049 35.3116 20.2899 35.4677 19.6617C35.5724 19.2394 35.2917 19.0695 35.2595 19.0517L35.0046 18.9101L34.781 19.022C34.7558 19.0356 34.5156 19.1797 34.6196 19.5974C34.7771 20.2333 34.8954 21.6805 34.7834 23.3556C34.7512 23.8352 34.6959 24.5494 34.6322 25.3674C34.4726 27.4253 34.2538 30.2439 34.2426 31.494C34.2276 33.1754 34.4855 33.9134 34.4883 33.9204L34.5723 34.1542L33.462 34.1549C33.5005 34.2752 33.5121 34.423 33.4956 34.5964C33.4662 34.9079 33.349 35.2673 33.2352 35.6147C33.127 35.9465 33.015 36.2894 33.014 36.5093C33.0126 36.8833 33.4606 37.2301 34.0137 37.2825L35.0851 37.3839L34.0364 37.6269C33.8863 37.6615 33.538 37.7642 33.5436 37.9656C33.5467 38.0785 33.7827 38.1362 33.8289 38.1432L34.3438 38.2176L33.8884 38.4693C33.8754 38.4767 32.6006 39.1964 32.6006 40.5723C32.6006 41.9171 33.9958 42.3045 34.055 42.3202L34.3434 42.3971L34.1358 42.611C34.1351 42.6121 33.9822 42.7753 33.9787 42.9707C33.9766 43.0851 34.0952 43.2025 34.2003 43.306C34.2647 43.3696 34.3231 43.4297 34.3613 43.4857C34.4537 43.6203 34.6623 44.075 34.5982 45.3751C34.572 45.9068 34.4124 47.1359 34.2276 48.5593C34.0186 50.1674 33.782 51.9897 33.7022 53.1087C33.5555 55.1631 33.6237 55.9605 34.0347 56.9871L34.1309 57.2266H33.4813ZM34.516 11.5443C34.5681 11.5443 34.6231 11.5548 34.6784 11.5751C34.915 11.6628 35.0347 11.8498 35.0067 12.0886C34.9497 12.571 34.2829 13.1877 33.9615 13.2265C33.7172 13.2558 33.4151 13.6106 33.4267 13.7966C33.4291 13.833 33.4907 13.8599 33.6192 13.9022C33.7533 13.9466 33.9199 14.0022 33.971 14.1675C34.1414 14.723 33.9654 15.2218 33.8243 15.6224C33.7281 15.8951 33.6451 16.1307 33.7186 16.259C33.9297 16.6271 34.2017 16.725 34.2132 16.7288L34.3308 16.7697L34.3322 17.2839L34.3095 17.3238C34.3084 17.3259 34.1551 17.608 34.1551 18.061C34.1551 18.4435 34.7635 18.7011 34.7694 18.7032L35.0907 18.8336L35.2626 18.7423C35.2679 18.7395 35.7674 18.4735 35.7674 18.0768C35.7674 17.6513 35.4467 17.3731 35.4436 17.3703L35.3823 17.3185V16.7526L35.5223 16.7236C35.5269 16.7225 35.9966 16.6215 36.2042 16.259C36.2861 16.116 36.2319 15.8692 36.1688 15.5836C36.0827 15.1917 35.9753 14.7041 36.1398 14.1679C36.1912 14.0015 36.3607 13.9462 36.4968 13.9022C36.6071 13.8662 36.6914 13.8358 36.6939 13.7966C36.7058 13.6103 36.4069 13.2558 36.1646 13.2268C35.844 13.188 35.1786 12.5721 35.1215 12.0897C35.0932 11.8505 35.2129 11.6632 35.4499 11.5754C35.5052 11.5548 35.5598 11.5447 35.6123 11.5447C35.8892 11.5447 36.0124 11.8072 36.1111 12.0187C36.1461 12.0931 36.1814 12.1701 36.2241 12.2365C36.3365 12.4113 36.683 12.5231 36.7954 12.549L37.6064 12.7098L37.5742 12.8797C37.541 13.0555 37.5207 13.2495 37.5259 13.3271C37.5504 13.2785 37.5854 13.2023 37.6085 13.1342L37.6302 13.0709L37.6887 13.038C37.8515 12.9475 38.023 12.8367 38.0552 12.8017L38.0937 12.7594L38.1528 12.7451C38.1581 12.7441 38.6856 12.6287 38.6856 12.3242C38.6856 12.0778 38.4304 12.0351 38.3429 12.0278C38.1987 12.0746 38.017 12.177 38.017 12.2567C38.017 12.6049 37.8063 12.7035 37.695 12.707L37.6516 12.7084L37.6127 12.6892C37.598 12.6822 37.2554 12.5084 37.3656 11.9858C37.3761 11.9355 37.3285 11.7432 37.2109 11.6149C37.1234 11.5199 37.01 11.4751 36.8189 11.4611C36.5826 11.444 35.9917 11.0497 35.8808 10.7424C35.8489 10.654 35.815 10.5243 35.8899 10.4184C35.9455 10.3394 36.0911 10.2792 36.4268 10.3701C36.7289 10.4526 37.0282 10.5578 37.1699 10.77C37.2042 10.8197 37.4104 10.898 37.5942 10.9312L37.6379 10.9392L37.6726 10.9668C37.7517 10.9672 37.8154 10.9549 37.8767 10.9434C37.9607 10.9277 38.0457 10.913 38.1227 10.9123C38.1231 10.9095 38.1231 10.9067 38.1234 10.9043C38.1416 10.726 38.2162 10.6358 38.3447 10.6358C38.4189 10.6358 38.477 10.6739 38.5141 10.7026C38.5921 10.7627 38.7447 10.7092 38.7458 10.7085L38.7997 10.691C38.8347 10.6613 38.8225 10.5411 38.7829 10.4439L38.6891 10.2128L38.9383 10.203C39.1336 10.1957 39.3899 10.1523 39.4606 10.1002C39.4921 10.0772 39.4791 9.96636 39.4697 9.88561C39.4623 9.82478 39.4553 9.76221 39.4578 9.70069C39.4476 9.69404 39.434 9.68635 39.4235 9.68041C39.2705 9.59372 39.2162 9.485 39.2624 9.35776C39.2537 9.3644 39.2106 9.30742 39.1718 9.27211L39.0164 9.12984L39.1844 9.00294C39.2589 8.94701 39.3377 8.87325 39.3755 8.82606C39.3482 8.79844 39.3045 8.76488 39.2708 8.74531L39.0962 8.64498L39.2201 8.48628C39.2887 8.39853 39.3559 8.28982 39.3811 8.22864C39.3664 8.22375 39.35 8.2199 39.3412 8.2192L39.0626 8.19264L39.2089 7.95353C39.2341 7.91228 39.2936 7.79692 39.3139 7.68856L39.2796 7.6896C39.1522 7.6896 39.093 7.62948 39.0661 7.57914L39.0227 7.49839L39.0643 7.41694C39.0685 7.40925 39.0717 7.40051 39.0745 7.39107L38.6026 7.69415L38.8771 7.13239C38.931 7.02157 38.9278 6.87475 38.9065 6.76289C38.897 6.77513 38.8879 6.78701 38.8788 6.79925C38.6873 7.04954 38.3671 7.46868 37.8228 7.96821C37.5634 8.20662 37.1927 8.56703 37.1094 8.66596C37.1041 8.71035 37.1108 8.78656 37.1363 8.81103C37.2547 8.92149 37.415 9.07146 37.4108 9.26827C37.4094 9.34168 37.3831 9.45039 37.2673 9.55002C37.137 9.66188 36.9232 9.729 36.6949 9.729C36.437 9.729 36.2455 9.6444 36.1702 9.49723C36.0572 9.27561 36.2294 9.13019 36.3134 9.06936C36.2987 9.05713 36.2826 9.04349 36.2693 9.03196C36.1678 8.94456 36.0523 8.84529 36.0183 8.70406C36.0078 8.66071 35.9844 8.61317 35.9616 8.56283C35.8937 8.41392 35.8094 8.22829 35.8902 8.04407C35.9032 8.0147 35.9133 8.01296 35.9245 7.98045C35.976 7.82733 36.0621 7.58823 36.3883 7.58823C36.3887 7.58823 36.389 7.58823 36.3894 7.58823C36.5724 7.58823 36.6935 7.63927 36.7758 7.69904C36.8273 7.60571 36.8483 7.52775 36.8486 7.52705L36.9284 7.27361L37.1272 7.43442C37.1552 7.45679 37.2004 7.47706 37.2196 7.47706C37.2249 7.47042 37.2343 7.42078 37.2249 7.40261C37.0978 7.25579 36.9879 6.94677 37.1633 6.76009C37.1647 6.7587 37.1661 6.7566 37.1678 6.7552C37.164 6.7559 37.1605 6.7566 37.1566 6.7573L37.0933 6.76324C36.9883 6.76324 36.9312 6.70836 36.9067 6.67585C36.8332 6.57867 36.8654 6.46645 36.8917 6.37662C36.8994 6.3497 36.9123 6.30495 36.912 6.28922C36.9018 6.1452 36.8098 6.08088 36.6809 6.00537C36.6165 5.96762 36.5556 5.93196 36.5192 5.86869C36.5122 5.8568 36.5066 5.84492 36.5017 5.83268C36.4905 6.04837 36.298 6.08088 36.1685 6.09102C36.1667 6.10255 36.1653 6.11479 36.1639 6.12492C36.1541 6.20498 36.1279 6.41821 35.9081 6.43604C35.7621 6.43534 35.6704 6.37766 35.5969 6.27C35.4884 6.11094 35.4628 5.87358 35.5342 5.69251C35.5892 5.55268 35.5475 5.44501 35.5451 5.43907C35.5447 5.43907 35.4835 5.34433 35.2339 5.30518L35.0876 5.28211L34.9413 5.30518C34.6752 5.34678 34.5867 5.46424 34.5776 5.47787C34.5793 5.47787 34.5457 5.5726 34.5968 5.70159C34.6686 5.88372 34.6437 6.11374 34.5345 6.27384C34.461 6.38221 34.3585 6.44164 34.2461 6.44164C34.0018 6.42276 33.9752 6.20917 33.9654 6.12877C33.964 6.11828 33.9626 6.10535 33.9605 6.09311C33.8359 6.08333 33.6374 6.05186 33.6276 5.85995C33.6276 5.85016 33.6272 5.84107 33.6269 5.83233C33.622 5.84457 33.6164 5.8568 33.6097 5.86869C33.573 5.93231 33.5121 5.96797 33.448 6.00572C33.3189 6.08123 33.2272 6.14555 33.2167 6.29027C33.2167 6.30565 33.2293 6.3504 33.2373 6.37731C33.2632 6.46715 33.2954 6.57902 33.2219 6.6762C33.1974 6.70871 33.1403 6.76359 33.035 6.76359L32.972 6.75765C32.9681 6.7573 32.9646 6.75625 32.9608 6.75555C32.9622 6.75695 32.9636 6.7587 32.9653 6.76044C33.14 6.94746 33.0304 7.25579 32.9009 7.4054C32.8939 7.42008 32.9034 7.46972 32.9177 7.47881C32.9296 7.47567 32.9797 7.44875 33.001 7.43092L33.2016 7.26383L33.28 7.51272C33.28 7.51272 33.301 7.57564 33.3525 7.66898C33.4347 7.6092 33.5551 7.52775 33.7207 7.52775C34.0665 7.54069 34.1526 7.79727 34.2041 7.95038C34.215 7.98254 34.2255 8.0147 34.2384 8.04442C34.3186 8.22829 34.2346 8.41357 34.167 8.56213C34.1442 8.61247 34.1208 8.66036 34.1103 8.70406C34.076 8.84529 33.9608 8.94456 33.8593 9.03196C33.846 9.04314 33.8306 9.05643 33.8156 9.06971C33.8992 9.13054 34.0707 9.27596 33.958 9.49723C33.8828 9.64475 33.6913 9.72935 33.433 9.72935C33.2048 9.72935 32.9905 9.66258 32.8603 9.55037C32.7445 9.45039 32.7186 9.34203 32.7168 9.26862C32.713 9.07146 32.8733 8.92184 32.9692 8.83235C33.0143 8.78935 33.0234 8.71035 33.0185 8.66596C32.9352 8.56668 32.5673 8.20907 32.3052 7.96821C31.7605 7.46798 31.4402 7.04919 31.2484 6.79855C31.2397 6.78666 31.2302 6.77478 31.2211 6.76289C31.1998 6.87475 31.1966 7.02157 31.2505 7.13239L31.526 7.69485L31.0531 7.39107C31.0559 7.40016 31.0594 7.4089 31.0632 7.41659L31.1052 7.49839L31.0615 7.57914C31.0342 7.62948 30.975 7.6896 30.848 7.6896L30.8137 7.68856C30.8343 7.79797 30.8935 7.91263 30.9183 7.95353L31.0643 8.19229L30.7857 8.2192C30.7738 8.2206 30.7587 8.22445 30.7461 8.22864C30.7717 8.29017 30.8396 8.40063 30.9068 8.48663L31.03 8.64428L30.8567 8.74566C30.8196 8.76733 30.7776 8.80019 30.7517 8.82676C30.7899 8.8743 30.8683 8.94771 30.9428 9.00364L31.1116 9.13019L30.9554 9.27281C30.9166 9.30812 30.8735 9.3651 30.8683 9.38782C30.9103 9.48605 30.856 9.59442 30.7034 9.68076C30.6933 9.6867 30.6796 9.69439 30.6691 9.70104C30.6719 9.76221 30.6646 9.82478 30.6576 9.88526C30.6481 9.96601 30.6352 10.0772 30.6663 10.1002C30.744 10.1579 31.0195 10.1971 31.1886 10.2034L31.4381 10.2125L31.344 10.4442C31.3044 10.5418 31.2922 10.662 31.31 10.6882L31.3825 10.7095C31.3825 10.7095 31.5351 10.7623 31.6124 10.7026C31.6496 10.6739 31.7077 10.6358 31.7819 10.6358C31.9103 10.6358 31.9849 10.726 32.0034 10.9043C32.0038 10.9067 32.0038 10.9095 32.0041 10.9123C32.0811 10.913 32.1666 10.9277 32.2506 10.9434C32.3122 10.9549 32.3727 10.9675 32.4256 10.9675L32.4599 10.9399L32.5323 10.9315C32.7168 10.8976 32.9233 10.8193 32.9573 10.77C33.0983 10.5582 33.398 10.4526 33.7008 10.3705C34.0364 10.2792 34.1821 10.3401 34.2377 10.4187C34.3123 10.525 34.2783 10.6543 34.2465 10.7428C34.1358 11.0497 33.5446 11.444 33.308 11.4615C33.1176 11.4758 33.0038 11.5202 32.9167 11.6153C32.7991 11.7432 32.7508 11.9344 32.7613 11.9841L32.7777 12.0645L32.6755 12.2253L32.5876 12.227C32.5208 12.227 32.4777 12.1942 32.4357 12.1624C32.378 12.1183 32.2814 12.0449 32.1364 12.039L32.0804 12.0369L32.0367 12.0033L32.0447 12.011L31.966 12.1019C31.9842 12.1099 32.0111 12.1194 32.0496 12.1288L32.2639 12.1809L32.1645 12.3773C32.0619 12.5801 32.0622 12.7738 32.0794 12.8133C32.1067 12.8402 32.2929 12.9573 32.4378 13.0377L32.4963 13.0702L32.518 13.1335C32.5407 13.1992 32.5729 13.2705 32.6009 13.3208C32.6048 13.2404 32.5845 13.0513 32.5519 12.8793L32.5197 12.7091L33.3357 12.5476C33.4435 12.5228 33.789 12.4106 33.9013 12.2361C33.944 12.1697 33.9794 12.0924 34.0144 12.0176C34.1169 11.8065 34.2395 11.5443 34.516 11.5443ZM36.2448 10.6837C36.3673 10.8522 36.7352 11.1007 36.8462 11.1126C37.0355 11.1266 37.2778 11.1696 37.4699 11.379C37.6414 11.5656 37.7486 11.8701 37.709 12.0578C37.7065 12.0697 37.7212 12.0813 37.7191 12.0921C37.8035 11.9012 37.8322 11.7848 38.1822 11.7268V11.7114L37.8427 11.4611L38.0776 11.2668C38.031 11.2713 37.9862 11.2793 37.946 11.287C37.7678 11.3199 37.6064 11.3304 37.4983 11.2685C37.3495 11.2384 37.0047 11.1504 36.8801 10.964C36.8017 10.8469 36.5476 10.7655 36.3355 10.7078C36.3148 10.7015 36.2805 10.6924 36.2448 10.6837ZM32.2124 11.6939C32.3038 11.7044 32.3825 11.7299 32.4487 11.7597C32.49 11.6233 32.5656 11.4831 32.6615 11.379C32.8537 11.1696 33.0955 11.1266 33.2853 11.1126C33.3962 11.1007 33.7638 10.8529 33.8863 10.684C33.8506 10.6924 33.8173 10.7019 33.796 10.7074C33.5835 10.7651 33.3297 10.8466 33.252 10.9637C33.1274 11.15 32.7833 11.2381 32.6345 11.2682C32.526 11.33 32.3671 11.3199 32.1893 11.2867C32.1252 11.2748 32.0605 11.2615 32.002 11.2615L31.9324 11.2661C31.8053 11.2661 31.721 11.1961 31.6804 11.0581C31.5949 11.0871 31.4973 11.0913 31.4154 11.079L32.2124 11.6939ZM36.5182 9.35321C36.5532 9.36545 36.6134 9.37873 36.6963 9.37873C36.8367 9.37873 36.975 9.34098 37.0401 9.28435C37.0621 9.23261 37.0149 9.17423 36.9211 9.08684C36.73 8.90471 36.7482 8.63554 36.7821 8.53696C36.821 8.4258 37.3033 7.97136 37.5875 7.71023C37.7619 7.55012 37.9127 7.39806 38.0426 7.25823C37.8182 7.2474 37.7682 7.04954 37.7436 6.95306C37.7335 6.91286 37.7146 6.8377 37.6957 6.82826C37.6449 6.82267 37.5679 6.84015 37.4209 6.99745C37.416 7.02087 37.45 7.1247 37.4941 7.17573C37.5669 7.26033 37.5963 7.38478 37.5721 7.50922C37.548 7.63367 37.4755 7.7354 37.3733 7.78818C37.2911 7.83083 37.1864 7.83153 37.1013 7.80531C37.081 7.84376 37.0565 7.88676 37.0268 7.93291C36.9564 8.04267 36.8623 8.0591 36.8129 8.0591C36.7194 8.0591 36.6477 8.00666 36.5847 7.96017C36.5259 7.91682 36.4702 7.87627 36.4097 7.87627C36.3341 7.87907 36.3138 7.89515 36.2581 8.0605C36.2441 8.1028 36.2298 8.1444 36.2129 8.18285C36.1947 8.22445 36.2473 8.3405 36.2823 8.41706C36.3148 8.48872 36.3453 8.55829 36.3603 8.62051C36.3691 8.65372 36.4541 8.72678 36.4996 8.76593C36.5927 8.84598 36.6886 8.92848 36.7075 9.04559C36.7324 9.2022 36.605 9.29204 36.5364 9.33993C36.5308 9.34412 36.5248 9.34832 36.5182 9.35321ZM32.0899 7.23796C32.2198 7.23796 32.3699 7.53964 32.5439 7.69939C32.8281 7.96087 33.3108 8.42056 33.349 8.53137C33.3829 8.6289 33.4022 8.90087 33.2356 9.05992L33.21 9.08544C33.1162 9.17283 33.0689 9.23191 33.0689 9.25988C33.1564 9.33993 33.2947 9.37803 33.4347 9.37803C33.5166 9.37803 33.5761 9.3651 33.6125 9.35216C33.6062 9.34762 33.6003 9.34377 33.5954 9.33993C33.5268 9.29169 33.399 9.2022 33.4242 9.04629C33.4428 8.92883 33.539 8.84598 33.6321 8.76593C33.6777 8.72678 33.7627 8.65372 33.7715 8.62086C33.7865 8.55864 33.8166 8.48907 33.8495 8.41671C33.8842 8.34016 33.937 8.22445 33.9188 8.1832C33.902 8.14475 33.8877 8.10315 33.8737 8.06085C33.818 7.8955 33.7977 7.87907 33.7277 7.87662C33.6616 7.87662 33.6055 7.91752 33.5467 7.96052C33.4834 8.00701 33.412 8.05945 33.3185 8.05945C33.2688 8.05945 33.175 8.04302 33.1046 7.93325C33.0752 7.88711 33.0504 7.84411 33.0301 7.80531C32.945 7.83188 32.8404 7.83118 32.7581 7.78818C32.6559 7.7354 32.5834 7.63332 32.5593 7.50853C32.5355 7.38443 32.5649 7.25998 32.6377 7.17573C32.6815 7.1247 32.7154 7.02122 32.7049 6.98941C32.5631 6.8398 32.4858 6.82267 32.4592 6.82267C32.4168 6.8377 32.3979 6.90202 32.3878 6.94222C32.3626 7.04185 32.3101 7.23796 32.0906 7.23796C32.0902 7.23796 32.0902 7.23796 32.0899 7.23796ZM37.6722 6.4731C37.7363 6.4731 37.7976 6.48778 37.8546 6.51679C38.0146 6.59824 38.0559 6.75975 38.0828 6.86671C38.0832 6.86846 38.0839 6.87056 38.0842 6.87266C38.1161 6.8377 38.1511 6.78491 38.1507 6.74157C38.1507 6.72024 38.1486 6.71535 38.114 6.67969C38.0755 6.64019 38.0041 6.56643 38.0146 6.45003C38.0226 6.35949 38.0727 6.29691 38.163 6.2637C38.1497 6.23119 38.1238 6.19484 38.1091 6.19029C38.1045 6.19204 38.0765 6.20777 38.0597 6.21721C37.9719 6.2665 37.7976 6.29062 37.7191 6.17037C37.6022 5.99279 37.5256 6.01691 37.5049 6.04277C37.4857 6.0662 37.4811 6.09241 37.4829 6.1008C37.5476 6.1882 37.556 6.32453 37.5021 6.45807C37.4937 6.47904 37.4839 6.49897 37.4731 6.51819C37.5354 6.49058 37.6015 6.4731 37.6722 6.4731ZM31.9677 6.2637C32.058 6.29691 32.1077 6.35914 32.1165 6.45003C32.1266 6.56643 32.0556 6.63984 32.0171 6.67934C31.9824 6.715 31.9803 6.71989 31.9803 6.74087C31.9803 6.78352 32.0136 6.8349 32.0475 6.87021C32.0475 6.86916 32.0479 6.86776 32.0482 6.86671C32.0755 6.75975 32.1165 6.59789 32.2765 6.51679C32.3962 6.45562 32.5397 6.46541 32.6566 6.51784C32.6457 6.49862 32.6359 6.47834 32.6275 6.45737C32.5736 6.32348 32.5824 6.18715 32.6513 6.09276C32.6489 6.09241 32.644 6.0662 32.6251 6.04243C32.6041 6.01691 32.5281 5.99209 32.4105 6.17037C32.3318 6.29062 32.1582 6.2658 32.0699 6.21651C32.0535 6.20707 32.0258 6.19169 32.015 6.19029C32.0048 6.19554 31.9793 6.23574 31.9677 6.2637Z" fill="#D12E18"/>
<path fill-rule="evenodd" clip-rule="evenodd" d="M35.0634 8.27C35.0634 8.27 34.9549 8.22561 34.9206 8.06832C34.8859 7.91067 34.8268 7.72401 34.6248 7.48283C34.4228 7.24164 34.5657 6.89734 34.7484 6.80856C34.9307 6.72013 35.0589 6.44434 35.0589 6.44434C35.0589 6.44434 35.2006 6.71978 35.383 6.80856C35.5654 6.89734 35.7085 7.2343 35.5062 7.47549C35.3042 7.71633 35.2451 7.90718 35.2104 8.06482C35.1754 8.22211 35.0634 8.27 35.0634 8.27Z" fill="#EDB400"/>
<path d="M35.0655 8.45886L34.9976 8.4309C34.978 8.42286 34.803 8.34491 34.7501 8.10477C34.721 7.97264 34.6748 7.81325 34.4911 7.59409C34.3696 7.44903 34.3255 7.26412 34.3665 7.07292C34.4067 6.88417 34.524 6.72268 34.672 6.65067C34.7662 6.60488 34.8667 6.44164 34.9003 6.36964L35.0511 6.0498L35.2146 6.36335C35.2527 6.43675 35.3627 6.60348 35.4596 6.65032C35.6084 6.72268 35.7256 6.88347 35.7655 7.07047C35.8058 7.25923 35.7613 7.44204 35.6402 7.58675C35.4579 7.80451 35.411 7.96635 35.3812 8.10093C35.3291 8.33931 35.1526 8.42111 35.1327 8.4295L35.0655 8.45886ZM35.0637 6.76287C35.0007 6.84117 34.9202 6.91912 34.8254 6.96526C34.7834 6.98553 34.7284 7.05614 34.7088 7.14632C34.6962 7.2054 34.6944 7.29243 34.7595 7.37003C34.9405 7.5857 35.0207 7.76851 35.0655 7.92336C35.1099 7.76501 35.1904 7.57941 35.3721 7.36269C35.4369 7.28579 35.4355 7.2012 35.4232 7.14388C35.4043 7.05544 35.349 6.98588 35.3067 6.96526C35.2118 6.91912 35.1292 6.84082 35.0637 6.76287Z" fill="#D12E18"/>
<path d="M34.2852 70.5459C34.2852 70.5459 35.2761 70.5686 35.8596 70.5613L34.2852 70.5459Z" fill="#EDB400"/>
<path d="M35.5943 70.7374C35.0202 70.7374 34.289 70.7206 34.2803 70.7206L34.2883 70.3711C34.2981 70.3714 35.2838 70.3942 35.8565 70.3865L35.861 70.736C35.7791 70.7371 35.6888 70.7374 35.5943 70.7374Z" fill="#D12E18"/>
<path d="M35.7312 70.1611H34.3311V70.5107H35.7312V70.1611Z" fill="#D12E18"/>
<path d="M34.0791 67.2525C34.0791 67.2525 34.9416 67.2368 36.054 67.2546L34.0791 67.2525Z" fill="#EDB400"/>
<path d="M36.0514 67.4295C34.9555 67.4113 34.0912 67.427 34.0828 67.4274L34.0762 67.0779C34.0842 67.0779 34.9544 67.0618 36.057 67.0799L36.0514 67.4295Z" fill="#D12E18"/>
<path d="M35.7312 66.1992H34.3311V66.5488H35.7312V66.1992Z" fill="#D12E18"/>
<path d="M34.3545 61.9015C34.3545 61.9015 34.9387 61.7408 35.7763 61.9015H34.3545Z" fill="#EDB400"/>
<path d="M35.7431 62.0732C34.9604 61.9226 34.406 62.0683 34.4004 62.0701L34.3076 61.7331C34.3332 61.7261 34.9412 61.5636 35.8093 61.73L35.7431 62.0732Z" fill="#D12E18"/>
<path d="M35.7308 60.6055H34.6807V60.955H35.7308V60.6055Z" fill="#D12E18"/>
<path d="M36.2599 57.0019L36.2578 56.6523L33.8013 56.6668L33.8033 57.0164L36.2599 57.0019Z" fill="#D12E18"/>
<path d="M34.0088 42.4857C34.0088 42.4857 34.9301 42.6461 36.1195 42.4854L34.0088 42.4857Z" fill="#EDB400"/>
<path d="M35.0381 42.7313C34.4154 42.7313 34.0041 42.6614 33.9785 42.6572L34.0387 42.3129C34.0471 42.3147 34.9502 42.4664 36.0959 42.3115L36.1431 42.6579C35.7346 42.7128 35.3584 42.7313 35.0381 42.7313Z" fill="#D12E18"/>
<path d="M33.8037 38.3028C33.8037 38.3028 34.6469 38.2891 36.3278 38.3003L33.8037 38.3028Z" fill="#EDB400"/>
<path d="M33.8064 38.4773L33.8008 38.1278C33.8092 38.1278 34.665 38.1145 36.3287 38.1253L36.3263 38.4749C34.6675 38.4637 33.8148 38.477 33.8064 38.4773Z" fill="#D12E18"/>
<path d="M36.1334 37.2217H33.9961V37.5712H36.1334V37.2217Z" fill="#D12E18"/>
<path d="M35.7312 33.8066H34.3311V34.1562H35.7312V33.8066Z" fill="#D12E18"/>
<path d="M35.3449 18.6977L34.7939 18.6934L34.7912 19.0429L35.3422 19.0472L35.3449 18.6977Z" fill="#D12E18"/>
<path d="M35.617 17.0635L34.5 17.0605L34.4991 17.4101L35.6161 17.413L35.617 17.0635Z" fill="#D12E18"/>
<path d="M35.7317 16.7197H34.6816V17.0693H35.7317V16.7197Z" fill="#D12E18"/>
<path d="M33.7363 14.1346C33.7363 14.1346 34.9453 14.5285 36.4697 14.1084L33.7363 14.1346Z" fill="#EDB400"/>
<path d="M35.0285 14.4784C34.2406 14.4784 33.7159 14.312 33.6826 14.3012L33.7911 13.9687C33.8027 13.9726 34.9725 14.3403 36.4237 13.9404L36.5168 14.2774C35.9669 14.4287 35.4583 14.4784 35.0285 14.4784Z" fill="#D12E18"/>
<path d="M35.3812 10.7331C35.3812 10.7331 35.6468 10.7331 35.4641 10.7331C35.2817 10.7331 35.0528 10.989 35.0528 10.989C35.0528 10.989 34.8383 10.7331 34.6366 10.7331C34.4343 10.7331 34.3311 10.7331 34.3311 10.7331V9.33496H35.3812V10.7331Z" fill="#EDB400"/>
<path d="M35.049 11.0798L34.9191 10.9267C34.8502 10.8456 34.714 10.7331 34.6366 10.7331H34.3311V8.98535H35.7312V10.7331H35.4641C35.4053 10.7331 35.2674 10.8376 35.183 10.9309L35.049 11.0798ZM34.6811 10.386C34.8274 10.4014 34.9611 10.4894 35.0553 10.5698C35.1414 10.4978 35.2583 10.4192 35.3812 10.3926V9.3349H34.6811V10.386Z" fill="#D12E18"/>
<path d="M89.2544 35.6808L88.0033 32.4183H83.8803L82.6435 35.6808H81.3213L85.3802 25.108H86.5602L90.6121 35.6808H89.2544ZM87.6123 31.2443L86.4465 28.0537L85.9489 26.4764C85.8067 27.0526 85.6575 27.5784 85.5011 28.0537L84.3211 31.2443H87.6123Z" fill="black"/>
<path d="M101.828 38.4537H100.577V35.6808H93.4256V38.4537H92.1745V34.4997H92.9778C93.6791 33.2897 94.2857 31.8229 94.7975 30.0992C95.3094 28.3754 95.6103 26.7261 95.7003 25.1512H100.506V34.4997H101.828V38.4537ZM99.2048 34.4997V26.3468H96.8519C96.7619 27.5424 96.4728 28.9372 95.9847 30.5313C95.5013 32.1254 94.9587 33.4482 94.3568 34.4997H99.2048Z" fill="black"/>
<path d="M109.61 35.6808L106.184 26.4476H106.127C106.198 27.2159 106.234 28.1642 106.234 29.2925V35.6808H105.025V25.1512H106.959L110.165 33.7795H110.222L113.484 25.1512H115.404V35.6808H114.11V29.2061C114.11 28.4859 114.143 27.5712 114.209 26.462H114.153L110.684 35.6808H109.61Z" fill="black"/>
<path d="M119.703 25.1512H120.925V30.9346C120.925 31.3427 120.914 31.8829 120.89 32.5551C120.866 33.2273 120.843 33.6642 120.819 33.8659H120.883L126.598 25.1512H128.055V35.6808H126.833V29.9551C126.833 29.4558 126.849 28.8748 126.882 28.2122C126.916 27.5448 126.939 27.1126 126.953 26.9158H126.889L121.16 35.6808H119.703V25.1512Z" fill="black"/>
<path d="M140.28 35.6808H138.972V30.769H133.641V35.6808H132.333V25.1512H133.641V29.6022H138.972V25.1512H140.28V35.6808Z" fill="black"/>
<path d="M144.594 25.1512H145.817V30.9346C145.817 31.3427 145.805 31.8829 145.781 32.5551C145.757 33.2273 145.734 33.6642 145.71 33.8659H145.774L151.489 25.1512H152.946V35.6808H151.724V29.9551C151.724 29.4558 151.74 28.8748 151.773 28.2122C151.807 27.5448 151.83 27.1126 151.845 26.9158H151.781L146.051 35.6808H144.594V25.1512Z" fill="black"/>
<path d="M161.674 26.1668C160.556 26.1668 159.677 26.5461 159.037 27.3047C158.397 28.0633 158.077 29.1004 158.077 30.416C158.077 31.7749 158.388 32.824 159.008 33.5634C159.629 34.298 160.513 34.6653 161.66 34.6653C162.399 34.6653 163.231 34.5261 164.155 34.2476V35.4C163.714 35.5632 163.29 35.6736 162.883 35.7313C162.475 35.7937 162.006 35.8249 161.475 35.8249C159.944 35.8249 158.764 35.3543 157.935 34.4133C157.11 33.4674 156.698 32.1302 156.698 30.4016C156.698 29.3165 156.895 28.3658 157.288 27.5496C157.686 26.7333 158.262 26.1043 159.016 25.6626C159.774 25.2209 160.665 25 161.688 25C162.788 25 163.745 25.2065 164.56 25.6194L164.034 26.7429C163.205 26.3588 162.418 26.1668 161.674 26.1668Z" fill="black"/>
<path d="M171.17 35.6808H169.855V26.318H166.606V25.1512H174.397V26.318H171.17V35.6808Z" fill="black"/>
<path d="M184.091 28.2482C184.091 29.3237 183.729 30.1496 183.004 30.7257C182.279 31.2971 181.258 31.5828 179.94 31.5828H178.746V35.6808H177.438V25.1512H180.189C182.791 25.1512 184.091 26.1836 184.091 28.2482ZM178.746 30.4449H179.791C180.824 30.4449 181.573 30.2768 182.037 29.9407C182.502 29.5998 182.734 29.0548 182.734 28.3058C182.734 27.6288 182.518 27.1222 182.087 26.7861C181.656 26.45 180.983 26.282 180.068 26.282H178.746V30.4449Z" fill="black"/>
<path d="M193.871 35.6808L192.62 32.4183H188.497L187.26 35.6808H185.938L189.997 25.108H191.177L195.229 35.6808H193.871ZM192.229 31.2443L191.063 28.0537L190.566 26.4764C190.424 27.0526 190.274 27.5784 190.118 28.0537L188.938 31.2443H192.229Z" fill="black"/>
<path d="M205.919 34.5141H207.191V38.4537H205.933V35.6808H198.121V25.1512H199.429V34.4997H204.625V25.1512H205.919V34.5141Z" fill="black"/>
<path d="M210.381 25.1512H211.604V30.9346C211.604 31.3427 211.592 31.8829 211.569 32.5551C211.545 33.2273 211.521 33.6642 211.497 33.8659H211.561L217.277 25.1512H218.734V35.6808H217.511V29.9551C217.511 29.4558 217.528 28.8748 217.561 28.2122C217.594 27.5448 217.618 27.1126 217.632 26.9158H217.568L211.839 35.6808H210.381V25.1512Z" fill="black"/>
<path d="M226.14 31.3163L223.445 35.6808H221.917L224.832 31.0786C224.097 30.8386 223.557 30.4713 223.211 29.9767C222.865 29.4822 222.692 28.8556 222.692 28.0969C222.692 27.1463 223.014 26.4188 223.659 25.9147C224.308 25.4057 225.279 25.1512 226.573 25.1512H229.488V35.6808H228.18V31.3163H226.14ZM228.18 26.282H226.609C225.741 26.282 225.097 26.4356 224.675 26.7429C224.253 27.0502 224.043 27.5232 224.043 28.1618C224.043 29.5158 224.917 30.1928 226.666 30.1928H228.18V26.282Z" fill="black"/>
<path d="M87.1858 45.3419C86.0674 45.3419 85.1883 45.7212 84.5485 46.4798C83.9088 47.2384 83.5889 48.2756 83.5889 49.5912C83.5889 50.95 83.8993 51.9991 84.5201 52.7385C85.1409 53.4731 86.0247 53.8404 87.1716 53.8404C87.9109 53.8404 88.7425 53.7012 89.6666 53.4227V54.5751C89.2259 54.7383 88.8018 54.8488 88.3942 54.9064C87.9867 54.9688 87.5175 55 86.9867 55C85.4561 55 84.276 54.5295 83.4467 53.5884C82.6221 52.6425 82.2098 51.3053 82.2098 49.5768C82.2098 48.4916 82.4065 47.5409 82.7999 46.7247C83.1979 45.9084 83.7737 45.2794 84.5272 44.8377C85.2855 44.396 86.1764 44.1751 87.2 44.1751C88.2994 44.1751 89.2567 44.3816 90.0718 44.7945L89.5458 45.918C88.7165 45.5339 87.9298 45.3419 87.1858 45.3419Z" fill="black"/>
<path d="M99.9085 54.856L98.6575 51.5934H94.5345L93.2977 54.856H91.9755L96.0344 44.2831H97.2144L101.266 54.856H99.9085ZM98.2665 50.4194L97.1007 47.2288L96.6031 45.6516C96.4609 46.2277 96.3117 46.7535 96.1553 47.2288L94.9753 50.4194H98.2665Z" fill="black"/>
<path d="M112.105 54.856H110.797V49.9441H105.466V54.856H104.158V44.3264H105.466V48.7773H110.797V44.3264H112.105V54.856Z" fill="black"/>
<path d="M123.989 54.856H122.411L117.712 49.5191V54.856H116.404V44.3264H117.712V49.4255L122.297 44.3264H123.783L119.269 49.4399L123.989 54.856Z" fill="black"/>
<path d="M130.151 54.856H128.836V45.4931H125.587V44.3264H133.378V45.4931H130.151V54.856Z" fill="black"/>
<path d="M136.388 50.8587C136.223 50.8587 136.082 50.8046 135.965 50.6964C135.859 50.5784 135.805 50.4309 135.805 50.2539C135.805 50.0868 135.859 49.9491 135.965 49.8409C136.082 49.7328 136.223 49.6787 136.388 49.6787H139.328C139.493 49.6787 139.629 49.7377 139.736 49.8557C139.852 49.9737 139.911 50.1163 139.911 50.2834C139.911 50.4506 139.852 50.5883 139.736 50.6964C139.629 50.8046 139.493 50.8587 139.328 50.8587H136.388Z" fill="black"/>
<path d="M151.374 54.856H150.08V45.4931H144.884V54.856H143.576V44.3264H151.374V54.856Z" fill="black"/>
<path d="M161.488 54.856H155.68V44.3264H161.488V45.4931H156.988V48.7773H161.225V49.9297H156.988V53.6892H161.488V54.856Z" fill="black"/>
<path d="M168.531 54.856H167.216V45.4931H163.967V44.3264H171.758V45.4931H168.531V54.856Z" fill="black"/>
<path d="M180.607 54.856H174.799V44.3264H180.607V45.4931H176.107V48.7773H180.344V49.9297H176.107V53.6892H180.607V54.856Z" fill="black"/>
<path d="M191.012 47.4233C191.012 48.4988 190.65 49.3247 189.925 49.9008C189.2 50.4722 188.178 50.7579 186.861 50.7579H185.667V54.856H184.359V44.3264H187.11C189.711 44.3264 191.012 45.3587 191.012 47.4233ZM185.667 49.62H186.712C187.745 49.62 188.493 49.4519 188.958 49.1158C189.422 48.7749 189.655 48.2299 189.655 47.4809C189.655 46.8039 189.439 46.2974 189.008 45.9613C188.576 45.6251 187.903 45.4571 186.989 45.4571H185.667V49.62Z" fill="black"/>
<path d="M201.425 51.7734C201.425 52.8105 201.117 53.5836 200.501 54.0925C199.885 54.6015 198.942 54.856 197.671 54.856H194.629V44.3264H200.799V45.4931H195.937V48.7773H197.48C198.806 48.7773 199.795 49.015 200.444 49.4903C201.098 49.9657 201.425 50.7267 201.425 51.7734ZM195.937 53.718H197.536C198.427 53.718 199.072 53.5668 199.47 53.2643C199.873 52.957 200.074 52.46 200.074 51.7734C200.074 51.1012 199.866 50.6259 199.449 50.3474C199.032 50.0689 198.323 49.9297 197.323 49.9297H195.937V53.718Z" fill="black"/>
<path d="M205.71 55C205.174 55 204.703 54.928 204.295 54.7839V53.5308C204.726 53.7276 205.184 53.826 205.667 53.826C206.174 53.826 206.582 53.706 206.89 53.4659C207.203 53.2259 207.503 52.7889 207.793 52.1551L203.79 44.3264H205.226L208.198 50.1817C208.316 50.4074 208.418 50.6571 208.503 50.9308H208.56L208.617 50.7579L208.837 50.1673L211.325 44.3264H212.712L209.392 51.8598C208.999 52.7529 208.641 53.4035 208.319 53.8116C207.996 54.2198 207.627 54.5199 207.21 54.7119C206.797 54.904 206.297 55 205.71 55Z" fill="black"/>
<path d="M222.236 47.4233C222.236 48.4988 221.873 49.3247 221.148 49.9008C220.423 50.4722 219.402 50.7579 218.084 50.7579H216.89V54.856H215.582V44.3264H218.333C220.935 44.3264 222.236 45.3587 222.236 47.4233ZM216.89 49.62H217.935C218.968 49.62 219.717 49.4519 220.181 49.1158C220.646 48.7749 220.878 48.2299 220.878 47.4809C220.878 46.8039 220.662 46.2974 220.231 45.9613C219.8 45.6251 219.127 45.4571 218.212 45.4571H216.89V49.62Z" fill="black"/>
<path d="M231.717 44.3264V45.5075H227.16V54.856H225.852V44.3264H231.717Z" fill="black"/>
<path d="M240.964 54.856L239.712 51.5934H235.59L234.353 54.856H233.031L237.089 44.2831H238.269L242.321 54.856H240.964ZM239.322 50.4194L238.156 47.2288L237.658 45.6516C237.516 46.2277 237.367 46.7535 237.21 47.2288L236.03 50.4194H239.322Z" fill="black"/>
</svg>
