<svg width="296" height="80" viewBox="0 0 296 80" fill="none" xmlns="http://www.w3.org/2000/svg">
<g clip-path="url(#clip0_2187_8852)">
<path d="M98.7239 10.1067C98.0332 10.0761 97.3444 10.2014 96.7086 10.4733C96.0729 10.7452 95.5065 11.1567 95.0515 11.6773C94.1006 12.8785 93.6229 14.3865 93.7086 15.9161C93.7086 17.7611 94.1407 19.1915 95.0048 20.1958C95.4682 20.7101 96.0418 21.1132 96.6827 21.375C97.3237 21.6368 98.0154 21.7506 98.7064 21.7079C99.8464 21.6846 100.978 21.5059 102.069 21.1766V22.6129C100.907 23.0094 99.6831 23.1953 98.4554 23.1617C96.3768 23.1617 94.7732 22.5312 93.6444 21.2701C92.5156 20.0089 91.9512 18.2184 91.9512 15.8986C91.9226 14.5795 92.2025 13.2719 92.7686 12.0802C93.2735 11.0207 94.0878 10.1392 95.104 9.55206C96.2095 8.93754 97.4596 8.63105 98.7239 8.6646C100.063 8.63336 101.392 8.91106 102.607 9.47616L101.912 10.8832C100.92 10.3916 99.8309 10.1264 98.7239 10.1067Z" fill="white"/>
<path d="M111.411 22.9455L111.09 21.445H111.014C110.602 22.011 110.062 22.4712 109.438 22.7879C108.815 23.0396 108.147 23.1589 107.476 23.1382C106.581 23.1929 105.699 22.9025 105.012 22.3266C104.704 22.0317 104.465 21.6729 104.31 21.2755C104.156 20.8781 104.091 20.4516 104.119 20.0262C104.119 17.8893 105.825 16.7703 109.239 16.6691L111.032 16.6107V15.9509C111.086 15.2935 110.897 14.639 110.5 14.1118C110.272 13.8995 110.002 13.7378 109.707 13.6372C109.412 13.5366 109.1 13.4994 108.79 13.5279C107.743 13.5698 106.719 13.8472 105.794 14.3395L105.304 13.1134C105.844 12.8198 106.418 12.5962 107.015 12.4478C107.624 12.286 108.252 12.2036 108.883 12.2026C109.89 12.1211 110.89 12.4212 111.685 13.0433C112.293 13.6038 112.596 14.501 112.596 15.7349V22.9455H111.411ZM107.791 21.8187C108.648 21.863 109.487 21.5671 110.127 20.9954C110.426 20.6928 110.658 20.3305 110.808 19.9321C110.958 19.5337 111.022 19.1082 110.996 18.6834V17.7492L109.397 17.8134C108.444 17.7802 107.498 17.9807 106.641 18.3973C106.364 18.5668 106.139 18.8087 105.99 19.0968C105.841 19.3849 105.773 19.7083 105.794 20.0321C105.777 20.2773 105.816 20.5233 105.907 20.7516C105.998 20.98 106.139 21.1851 106.32 21.3516C106.737 21.6817 107.26 21.8479 107.791 21.8187Z" fill="white"/>
<path d="M117.495 12.3721V16.8035H123.421V12.3721H125.027V22.9457H123.421V18.1814H117.495V22.9457H115.896V12.3721H117.495Z" fill="white"/>
<path d="M134.585 12.3721H136.336L131.77 17.475L136.71 22.9457H134.871L130.042 17.5917V22.9457H128.448V12.3721H130.048V17.5158L134.585 12.3721Z" fill="white"/>
<path d="M145.807 13.7441H142.374V22.9457H140.768V13.7441H137.376V12.3721H145.807V13.7441Z" fill="white"/>
<path d="M147.009 18.3854V16.9316H151.75V18.3971L147.009 18.3854Z" fill="white"/>
<path d="M165.027 22.9458H163.386V10.2995H156.141V22.9458H154.5V8.83984H165.009L165.027 22.9458Z" fill="white"/>
<path d="M173.131 23.1382C172.448 23.1745 171.766 23.0664 171.128 22.8209C170.49 22.5754 169.911 22.1981 169.429 21.7136C168.474 20.6213 167.988 19.1973 168.074 17.7492C167.991 16.2807 168.437 14.831 169.33 13.6622C169.74 13.1685 170.258 12.7758 170.844 12.5146C171.43 12.2534 172.069 12.1306 172.71 12.1559C173.299 12.1278 173.886 12.2306 174.43 12.4567C174.975 12.6828 175.462 13.0268 175.857 13.4637C176.666 14.4266 177.082 15.6583 177.025 16.9143V17.9244H169.732C169.687 18.95 170.021 19.9564 170.672 20.7503C170.998 21.083 171.391 21.3418 171.825 21.5091C172.259 21.6763 172.724 21.7481 173.189 21.7195C174.35 21.719 175.498 21.4805 176.564 21.0188V22.4493C176.047 22.6779 175.509 22.8539 174.958 22.9747C174.356 23.0904 173.744 23.1452 173.131 23.1382ZM172.693 13.5221C172.314 13.5053 171.937 13.5707 171.586 13.7138C171.235 13.8569 170.919 14.0744 170.661 14.3512C170.121 14.9976 169.809 15.8041 169.773 16.6457H175.297C175.359 15.8121 175.12 14.9837 174.625 14.3103C174.384 14.0405 174.085 13.8293 173.75 13.6927C173.415 13.5561 173.053 13.4978 172.693 13.5221Z" fill="white"/>
<path d="M186.875 13.7441H183.442V22.9457H181.842V13.7441H178.444V12.3721H186.875V13.7441Z" fill="white"/>
<path d="M193.437 23.1379C192.758 23.1717 192.079 23.0624 191.444 22.817C190.809 22.5716 190.233 22.1956 189.753 21.7133C188.801 20.6194 188.315 19.1966 188.399 17.7489C188.315 16.2794 188.762 14.8287 189.66 13.6619C190.07 13.1682 190.588 12.7755 191.174 12.5143C191.76 12.2531 192.399 12.1303 193.04 12.1556C193.629 12.1326 194.215 12.24 194.757 12.4701C195.299 12.7003 195.783 13.0475 196.176 13.4868C196.983 14.4482 197.399 15.6775 197.343 16.9315V17.9416H190.045C189.999 18.9672 190.334 19.9737 190.985 20.7675C191.309 21.1004 191.701 21.3594 192.134 21.5267C192.568 21.6939 193.032 21.7656 193.496 21.7367C194.658 21.7318 195.807 21.4873 196.87 21.0185V22.449C196.355 22.6784 195.817 22.8545 195.265 22.9744C194.663 23.0904 194.05 23.1452 193.437 23.1379ZM193.005 13.5218C192.627 13.5038 192.249 13.5687 191.898 13.7119C191.547 13.8551 191.231 14.0731 190.973 14.3509C190.429 14.9952 190.115 15.8026 190.08 16.6454H195.592C195.652 15.8111 195.412 14.9827 194.914 14.31C194.676 14.0431 194.381 13.8335 194.05 13.697C193.72 13.5605 193.362 13.5006 193.005 13.5218Z" fill="white"/>
<path d="M204.975 23.1378C204.328 23.1482 203.687 23.0187 203.095 22.7583C202.52 22.5048 202.024 22.1015 201.658 21.5906H201.542C201.616 22.1715 201.655 22.7564 201.658 23.3421V27.6919H200.059V12.3715H201.361L201.582 13.8194H201.658C202.02 13.2836 202.515 12.851 203.095 12.5641C203.685 12.2983 204.327 12.1666 204.975 12.1788C205.591 12.1448 206.206 12.2572 206.77 12.5069C207.335 12.7565 207.832 13.1363 208.221 13.6151C209.058 14.7878 209.47 16.211 209.389 17.6495C209.389 19.3894 208.999 20.7381 208.221 21.6956C207.832 22.1751 207.335 22.5558 206.771 22.8064C206.207 23.0571 205.591 23.1706 204.975 23.1378ZM204.747 13.5392C204.315 13.5005 203.88 13.5615 203.475 13.7174C203.07 13.8733 202.706 14.1199 202.412 14.4383C201.859 15.2835 201.599 16.2863 201.67 17.2934V17.6495C201.67 19.1364 201.917 20.199 202.412 20.8374C202.704 21.1752 203.072 21.4387 203.487 21.6061C203.901 21.7736 204.349 21.8403 204.794 21.8007C205.217 21.8139 205.636 21.7189 206.012 21.5248C206.388 21.3306 206.708 21.0438 206.942 20.6914C207.509 19.7753 207.78 18.7073 207.719 17.632C207.788 16.5633 207.516 15.5004 206.942 14.596C206.694 14.2503 206.363 13.9725 205.979 13.7879C205.596 13.6033 205.172 13.5177 204.747 13.5392Z" fill="white"/>
<path d="M211.613 16.6112C211.613 14.2758 211.958 12.4892 212.635 11.193C212.953 10.5652 213.411 10.0191 213.974 9.59684C214.537 9.17463 215.19 8.88771 215.881 8.75833C217.72 8.36714 219.338 8.04602 220.739 7.80664L221.043 9.21373C218.806 9.5874 217.212 9.87933 216.255 10.1012C215.818 10.1877 215.405 10.3669 215.043 10.6268C214.682 10.8867 214.38 11.2211 214.159 11.6075C213.64 12.6038 213.375 13.713 213.388 14.8363H213.505C213.909 14.2946 214.438 13.858 215.046 13.5635C215.662 13.2587 216.339 13.1008 217.026 13.1022C217.595 13.0713 218.164 13.1686 218.69 13.3869C219.216 13.6051 219.687 13.9388 220.068 14.3633C220.843 15.3604 221.231 16.6051 221.159 17.8665C221.241 19.2722 220.788 20.6568 219.892 21.7433C219.443 22.214 218.898 22.5819 218.293 22.8218C217.688 23.0616 217.039 23.1678 216.389 23.1329C215.71 23.1627 215.033 23.0224 214.421 22.7247C213.81 22.427 213.282 21.9813 212.886 21.428C212.034 20.2953 211.613 18.6839 211.613 16.6112ZM216.518 21.8017C218.479 21.8017 219.437 20.5464 219.437 18.0475C219.437 15.6576 218.548 14.4645 216.769 14.4684C216.281 14.4666 215.799 14.5702 215.356 14.772C214.901 14.9727 214.481 15.2447 214.112 15.5778C213.765 15.8717 213.469 16.2208 213.236 16.6112C213.159 17.9456 213.434 19.2769 214.036 20.4705C214.286 20.9008 214.65 21.2532 215.088 21.4883C215.526 21.7234 216.021 21.8319 216.518 21.8017Z" fill="white"/>
<path d="M222.263 12.3721H223.985L226.321 18.4033C226.703 19.3752 227.019 20.372 227.266 21.3868H227.348C227.43 21.054 227.605 20.4935 227.874 19.6995C228.142 18.9054 229.012 16.4649 230.489 12.3721H232.206L227.663 24.4112C227.36 25.3754 226.818 26.2472 226.087 26.9451C225.462 27.4533 224.674 27.7187 223.868 27.6925C223.383 27.6936 222.899 27.6387 222.426 27.529V26.2737C222.81 26.3561 223.202 26.3953 223.594 26.3905C224.692 26.3905 225.48 25.8066 225.929 24.5396L226.513 23.0333L222.263 12.3721Z" fill="white"/>
<path d="M238.797 23.1378C238.148 23.1481 237.505 23.0186 236.911 22.7583C236.34 22.502 235.846 22.0992 235.481 21.5906H235.364C235.438 22.1715 235.477 22.7564 235.481 23.3421V27.6919H233.875V12.3715H235.183L235.399 13.8194H235.481C235.841 13.2823 236.336 12.8494 236.917 12.5641C237.507 12.2983 238.149 12.1666 238.797 12.1788C239.413 12.1448 240.028 12.2572 240.593 12.5069C241.157 12.7565 241.654 13.1363 242.043 13.6151C242.88 14.7878 243.292 16.211 243.211 17.6495C243.211 19.3894 242.822 20.7381 242.043 21.6956C241.654 22.1751 241.157 22.5558 240.593 22.8064C240.029 23.0571 239.413 23.1706 238.797 23.1378ZM238.569 13.5392C238.137 13.4997 237.702 13.5602 237.297 13.7161C236.892 13.8721 236.528 14.1192 236.234 14.4383C235.747 15.0338 235.5 15.9855 235.492 17.2934V17.6495C235.492 19.1364 235.739 20.199 236.234 20.8374C236.526 21.1752 236.895 21.4387 237.309 21.6061C237.723 21.7736 238.171 21.8403 238.616 21.8007C239.039 21.8133 239.458 21.7181 239.834 21.524C240.21 21.3299 240.53 21.0434 240.764 20.6914C241.328 19.774 241.598 18.707 241.541 17.632C241.607 16.5636 241.335 15.5015 240.764 14.596C240.518 14.2545 240.19 13.9793 239.811 13.795C239.432 13.6106 239.014 13.5227 238.593 13.5392H238.569Z" fill="white"/>
<path d="M252.378 13.7441H247.608V22.9457H246.008V12.3721H252.378V13.7441Z" fill="white"/>
<path d="M258.695 23.1384C258.036 23.1772 257.376 23.0708 256.763 22.8267C256.149 22.5825 255.597 22.2066 255.145 21.7255C254.304 20.7855 253.89 19.4543 253.89 17.7261C253.89 15.9978 254.316 14.5907 255.162 13.6391C255.626 13.1449 256.193 12.759 256.823 12.5087C257.452 12.2585 258.129 12.15 258.806 12.1911C259.318 12.1906 259.829 12.2454 260.33 12.3546C260.743 12.4336 261.145 12.563 261.526 12.7399L261.036 14.1003C260.656 13.9536 260.266 13.8365 259.868 13.75C259.505 13.6634 259.133 13.6164 258.759 13.6099C256.61 13.6099 255.536 14.9722 255.536 17.6969C255.465 18.7548 255.737 19.8075 256.313 20.6979C256.588 21.0487 256.944 21.3272 257.351 21.5093C257.758 21.6914 258.203 21.7716 258.648 21.743C259.581 21.727 260.501 21.5287 261.357 21.1591V22.5779C260.527 22.9743 259.614 23.1665 258.695 23.1384Z" fill="white"/>
<path d="M270.045 12.3721H271.797L267.231 17.475L272.177 22.9457H270.326L265.503 17.5917V22.9457H263.903V12.3721H265.509V17.5158L270.045 12.3721Z" fill="white"/>
<path d="M275.638 12.3721V19.0806L275.568 20.8321L275.539 21.416L281.261 12.4013H283.258V22.9457H281.763V16.4824L281.792 15.2096L281.839 13.9543L276.129 22.9457H274.132V12.3721H275.638Z" fill="white"/>
<path d="M288.163 12.3721V19.0807L288.093 20.8322L288.063 21.4161L293.785 12.4013H295.782V22.9458H294.264V16.4825V15.2097L294.311 13.9544L288.601 22.9458H286.674V12.3721H288.163ZM291.181 10.9767C290.259 11.0539 289.338 10.8083 288.577 10.2819C288.276 9.98714 288.039 9.63315 287.881 9.24227C287.723 8.85139 287.648 8.43208 287.661 8.01074H289.167C289.157 8.52767 289.345 9.02878 289.692 9.412C290.137 9.72089 290.677 9.86161 291.216 9.80902C291.742 9.85035 292.265 9.69885 292.688 9.3828C293.043 9.01217 293.251 8.52408 293.271 8.01074H294.784C294.783 8.43119 294.696 8.84697 294.528 9.23254C294.36 9.6181 294.115 9.96529 293.809 10.2528C293.044 10.7938 292.115 11.0499 291.181 10.9767Z" fill="white"/>
<path d="M98.8123 37.4541H94.048V46.6557H92.4424V36.082H98.8123V37.4541Z" fill="white"/>
<path d="M110.034 41.3605C110.122 42.8229 109.657 44.265 108.732 45.4007C108.273 45.8894 107.713 46.2722 107.09 46.5222C106.468 46.7723 105.799 46.8837 105.129 46.8487C104.245 46.8653 103.374 46.6348 102.613 46.1831C101.869 45.7301 101.278 45.0653 100.914 44.2739C100.502 43.3572 100.302 42.3593 100.33 41.3546C100.242 39.8977 100.702 38.4604 101.62 37.326C102.077 36.8377 102.635 36.4555 103.256 36.2063C103.876 35.9571 104.544 35.8471 105.211 35.8839C105.868 35.8576 106.522 35.9764 107.127 36.2317C107.733 36.487 108.275 36.8726 108.714 37.361C109.636 38.4836 110.107 39.9096 110.034 41.3605ZM101.977 41.3605C101.903 42.451 102.188 43.5356 102.788 44.4491C103.067 44.811 103.429 45.0996 103.844 45.2898C104.259 45.4801 104.714 45.5663 105.17 45.5409C105.624 45.5683 106.077 45.4867 106.493 45.3028C106.908 45.119 107.274 44.8382 107.558 44.4841C108.161 43.5696 108.448 42.4827 108.376 41.3897C108.448 40.3058 108.161 39.2283 107.558 38.3244C107.268 37.9713 106.898 37.6923 106.479 37.5106C106.06 37.3289 105.603 37.2496 105.147 37.2793C104.698 37.2437 104.246 37.3163 103.831 37.491C103.415 37.6657 103.048 37.9375 102.759 38.2835C102.17 39.1967 101.896 40.277 101.977 41.3605Z" fill="white"/>
<path d="M117.063 46.8482C116.403 46.888 115.742 46.782 115.128 46.5378C114.513 46.2936 113.96 45.9172 113.507 45.4353C112.612 44.3081 112.165 42.8901 112.252 41.4534C112.252 39.6824 112.678 38.3201 113.53 37.3664C113.993 36.8727 114.559 36.4871 115.188 36.2368C115.816 35.9865 116.492 35.8779 117.168 35.9185C117.682 35.9182 118.195 35.973 118.698 36.0819C119.101 36.1627 119.493 36.2921 119.865 36.4673L119.375 37.8277C118.996 37.6793 118.605 37.5622 118.207 37.4774C117.844 37.3907 117.472 37.3438 117.098 37.3372C114.949 37.3372 113.875 38.6996 113.875 41.4242C113.807 42.4797 114.084 43.5287 114.663 44.4136C114.937 44.7655 115.293 45.0449 115.701 45.2271C116.108 45.4093 116.553 45.4888 116.999 45.4587C117.931 45.4431 118.852 45.2448 119.708 44.8748V46.2994C118.882 46.6891 117.975 46.8772 117.063 46.8482Z" fill="white"/>
<path d="M120.566 36.082H122.283L124.618 42.1133C124.989 43.086 125.293 44.0828 125.529 45.0968H125.605C125.687 44.764 125.862 44.2035 126.131 43.4094C126.399 42.6154 127.269 40.1749 128.752 36.082H130.469L125.926 48.1211C125.619 49.0833 125.077 49.954 124.35 50.6551C123.724 51.1623 122.936 51.4276 122.131 51.4024C121.644 51.4035 121.158 51.3487 120.683 51.2389V49.9545C121.067 50.0361 121.459 50.0753 121.851 50.0712C122.949 50.0712 123.731 49.4582 124.186 48.2204L124.77 46.7141L120.566 36.082Z" fill="white"/>
<path d="M141.386 50.3164H139.833V46.6557H132.442V50.3164H130.9V45.2778H131.729C132.632 44.0274 133.317 42.6338 133.755 41.1557C134.255 39.5105 134.512 37.8014 134.52 36.082H139.874V45.2778H141.386V50.3164ZM138.327 45.2778V37.3665H135.957C135.863 38.8392 135.587 40.2945 135.133 41.6987C134.751 42.9857 134.159 44.2008 133.382 45.2953L138.327 45.2778Z" fill="white"/>
<path d="M150.004 46.6555L149.683 45.1491H149.607C149.196 45.717 148.656 46.1792 148.031 46.4978C147.408 46.7496 146.74 46.8689 146.069 46.8482C145.184 46.8933 144.313 46.6059 143.629 46.0424C143.319 45.7414 143.08 45.3764 142.926 44.9729C142.773 44.5695 142.71 44.1374 142.741 43.707C142.741 41.5701 144.448 40.451 147.862 40.3498L149.654 40.2915V39.6609C149.709 39.0024 149.518 38.3469 149.117 37.8217C148.89 37.6086 148.619 37.4462 148.324 37.3456C148.029 37.2449 147.716 37.2082 147.406 37.2379C146.361 37.2798 145.339 37.5572 144.417 38.0494L143.926 36.8233C145.029 36.2359 146.256 35.9234 147.505 35.9125C148.512 35.8311 149.512 36.1312 150.308 36.7533C150.915 37.3099 151.219 38.2051 151.219 39.439V46.6555H150.004ZM146.384 45.5403C147.241 45.5846 148.08 45.2887 148.72 44.7171C149.014 44.4149 149.241 44.0548 149.388 43.6597C149.535 43.2646 149.598 42.8432 149.572 42.4225V41.4533L147.967 41.5234C147.016 41.4911 146.072 41.6916 145.217 42.1072C144.94 42.2768 144.715 42.5186 144.566 42.8068C144.417 43.0949 144.349 43.4183 144.37 43.742C144.353 43.9873 144.392 44.2332 144.483 44.4616C144.574 44.69 144.715 44.895 144.896 45.0616C145.315 45.4 145.846 45.5706 146.384 45.5403Z" fill="white"/>
<path d="M159.393 46.8486C158.744 46.8589 158.101 46.7294 157.507 46.469C156.934 46.2147 156.44 45.8115 156.076 45.3013H155.96C156.034 45.8823 156.073 46.4672 156.076 47.0529V51.3793H154.488V36.0822H155.79L156.012 37.5302H156.094C156.454 36.9931 156.95 36.5602 157.53 36.2749C158.12 36.0085 158.763 35.8768 159.41 35.8896C160.026 35.856 160.641 35.9687 161.206 36.2183C161.77 36.4679 162.267 36.8474 162.656 37.3259C163.494 38.4981 163.906 39.9217 163.824 41.3603C163.91 42.8029 163.497 44.2312 162.656 45.4064C162.266 45.8884 161.766 46.2705 161.199 46.5213C160.631 46.772 160.012 46.8842 159.393 46.8486ZM159.159 37.25C158.727 37.21 158.291 37.2703 157.886 37.4263C157.481 37.5822 157.118 37.8296 156.824 38.1491C156.266 38.992 156.005 39.9965 156.082 41.0042V41.3603C156.082 42.8433 156.327 43.9118 156.824 44.5482C157.114 44.8929 157.483 45.163 157.9 45.3357C158.316 45.5084 158.768 45.5787 159.218 45.5407C159.64 45.5533 160.059 45.4581 160.435 45.264C160.811 45.0699 161.132 44.7834 161.366 44.4314C161.929 43.5139 162.2 42.4469 162.143 41.372C162.209 40.3036 161.937 39.2415 161.366 38.3359C161.121 37.9866 160.792 37.7041 160.41 37.5145C160.027 37.3248 159.603 37.2338 159.177 37.25H159.159Z" fill="white"/>
<path d="M170.825 46.8484C170.165 46.8889 169.504 46.7833 168.889 46.539C168.274 46.2948 167.721 45.918 167.269 45.4354C166.428 44.4954 166.008 43.1584 166.008 41.436C166.008 39.7136 166.434 38.3007 167.286 37.349C167.75 36.8549 168.317 36.469 168.947 36.2187C169.576 35.9684 170.253 35.86 170.93 35.9011C171.442 35.9005 171.953 35.9554 172.454 36.0645C172.867 36.1446 173.268 36.274 173.651 36.4499L173.16 37.8103C172.781 37.6631 172.39 37.5459 171.992 37.46C171.629 37.373 171.257 37.326 170.883 37.3198C168.734 37.3198 167.66 38.6822 167.66 41.4068C167.592 42.4623 167.869 43.5113 168.448 44.3962C168.723 44.7474 169.079 45.0261 169.486 45.2083C169.893 45.3904 170.339 45.4704 170.784 45.4413C171.716 45.4263 172.637 45.228 173.493 44.8574V46.2995C172.66 46.694 171.745 46.8822 170.825 46.8484Z" fill="white"/>
<path d="M183.132 37.4541H179.699V46.6557H178.076V37.4541H174.678V36.082H183.109L183.132 37.4541Z" fill="white"/>
<path d="M193.805 38.7386C193.827 39.0261 193.786 39.3148 193.685 39.5849C193.584 39.855 193.426 40.1001 193.222 40.3033C192.746 40.6958 192.169 40.9449 191.558 41.0215V41.109C192.283 41.1569 192.974 41.4351 193.531 41.9031C193.745 42.1242 193.911 42.3872 194.019 42.6756C194.126 42.9639 194.173 43.2715 194.156 43.5787C194.178 44.0186 194.09 44.4569 193.9 44.8544C193.711 45.2519 193.425 45.596 193.07 45.8558C192.125 46.4528 191.014 46.733 189.899 46.6557H185.229V36.082H189.87C192.494 36.082 193.805 36.9675 193.805 38.7386ZM192.241 38.8904C192.257 38.671 192.21 38.4516 192.107 38.2574C192.004 38.0632 191.848 37.9021 191.657 37.7927C191.089 37.5441 190.471 37.4341 189.853 37.4716H186.834V40.4551H189.543C190.262 40.5092 190.982 40.3827 191.639 40.0873C191.839 39.9615 192.001 39.7835 192.107 39.5725C192.213 39.3616 192.259 39.1257 192.241 38.8904ZM192.538 43.4737C192.555 43.226 192.504 42.9785 192.389 42.7581C192.275 42.5378 192.102 42.3531 191.89 42.2242C191.215 41.9137 190.472 41.7791 189.73 41.833H186.811V45.3362H189.73C191.602 45.3206 192.538 44.6998 192.538 43.4737Z" fill="white"/>
<path d="M200.934 46.8488C200.252 46.8851 199.569 46.777 198.932 46.5315C198.294 46.286 197.715 45.9087 197.233 45.4242C196.28 44.3285 195.794 42.9035 195.878 41.4539C195.794 39.9843 196.242 38.5335 197.139 37.367C197.549 36.8732 198.068 36.4805 198.654 36.2193C199.24 35.9581 199.879 35.8353 200.52 35.8606C201.108 35.8338 201.695 35.9371 202.239 36.1631C202.783 36.3892 203.271 36.7324 203.667 37.1684C204.475 38.1313 204.892 39.3631 204.835 40.619V41.6291H197.536C197.497 42.6556 197.831 43.6615 198.476 44.4608C198.803 44.7913 199.197 45.0482 199.631 45.2143C200.065 45.3804 200.529 45.452 200.993 45.4242C202.147 45.4261 203.29 45.1917 204.35 44.7352V46.1657C203.834 46.3951 203.296 46.5712 202.744 46.6911C202.148 46.804 201.542 46.8568 200.934 46.8488ZM200.502 37.2327C200.124 37.2147 199.746 37.2795 199.395 37.4227C199.044 37.5659 198.729 37.784 198.471 38.0617C197.926 38.7061 197.612 39.5134 197.577 40.3563H203.106C203.167 39.5219 202.926 38.6935 202.429 38.0209C202.189 37.7515 201.891 37.5405 201.557 37.404C201.223 37.2674 200.862 37.2088 200.502 37.2327Z" fill="white"/>
<path d="M209.154 36.082V40.5135H215.075V36.082H216.68V46.6557H215.075V41.8914H209.154V46.6557H207.555V36.082H209.154Z" fill="white"/>
<path d="M221.679 36.082V40.5135H227.599V36.082H229.205V46.6557H227.599V41.8914H221.679V46.6557H220.073V36.082H221.679Z" fill="white"/>
<path d="M234.202 40.4551H237.087C238.136 40.3766 239.182 40.6387 240.07 41.2025C240.399 41.4689 240.659 41.8108 240.828 42.199C240.996 42.5873 241.069 43.0105 241.039 43.4328C241.071 43.8873 240.994 44.3428 240.815 44.7619C240.637 45.1811 240.361 45.5519 240.012 45.8441C239.123 46.446 238.058 46.7318 236.987 46.6557H232.597V36.082H234.202V40.4551ZM234.202 41.833V45.3362H236.911C238.61 45.3362 239.457 44.7523 239.457 43.5846C239.477 43.3369 239.433 43.0882 239.331 42.8616C239.229 42.6351 239.072 42.4379 238.873 42.2884C238.255 41.9676 237.559 41.8279 236.865 41.8856L234.202 41.833ZM244.414 46.6557H242.814V36.082H244.414V46.6557Z" fill="white"/>
<path d="M249.307 36.0821V42.7906L249.243 44.5422L249.208 45.0968L254.93 36.0821H256.932V46.6557H255.432V40.1925L255.461 38.9197L255.514 37.6644L249.798 46.6557H247.801V36.0821H249.307ZM252.326 34.6867C251.404 34.7624 250.484 34.5169 249.722 33.9919C249.42 33.6971 249.183 33.3431 249.026 32.9522C248.868 32.5614 248.793 32.142 248.805 31.7207H250.311C250.307 32.2367 250.494 32.736 250.837 33.122C251.284 33.4308 251.826 33.5714 252.367 33.519C252.892 33.5587 253.415 33.4074 253.838 33.0928C254.195 32.7231 254.403 32.2344 254.422 31.7207H255.934C255.933 32.1411 255.846 32.5569 255.678 32.9425C255.51 33.3281 255.266 33.6752 254.959 33.9627C254.196 34.5024 253.269 34.7585 252.337 34.6867H252.326Z" fill="white"/>
<path d="M90.7666 59.793H92.4831L94.8186 65.8242C95.1999 66.796 95.514 67.7928 95.7586 68.8077H95.8403C95.922 68.4807 96.0972 67.9144 96.3658 67.1204C96.6344 66.3263 97.5043 63.8858 98.9815 59.793H100.698L96.1381 71.8146C95.8337 72.7765 95.2915 73.646 94.5617 74.3427C93.9381 74.85 93.1524 75.1153 92.3488 75.09C91.8615 75.0914 91.3756 75.0366 90.9009 74.9265V73.642C91.2845 73.7244 91.6762 73.7636 92.0686 73.7588C93.1721 73.7588 93.9545 73.1458 94.404 71.908L94.9879 70.4016L90.7666 59.793Z" fill="white"/>
<path d="M104.002 59.793V64.2244H109.922V59.793H111.516V70.3666H109.911V65.6023H104.002V70.3666H102.402V59.793H104.002Z" fill="white"/>
<path d="M116.427 59.793V66.5015L116.363 68.253L116.334 68.8077L122.056 59.793H124.052V70.3666H122.558V63.9033V62.6305L122.61 61.3752L116.9 70.3666H114.897V59.793H116.427Z" fill="white"/>
<path d="M136.039 62.4729C136.059 62.7603 136.018 63.0488 135.917 63.3188C135.816 63.5888 135.659 63.8339 135.455 64.0376C134.979 64.429 134.402 64.6779 133.791 64.7557V64.8083C134.516 64.8574 135.207 65.1354 135.764 65.6023C135.977 65.8239 136.142 66.0871 136.249 66.3755C136.355 66.6639 136.401 66.9711 136.383 67.278C136.405 67.7178 136.317 68.1562 136.128 68.5537C135.938 68.9511 135.653 69.2952 135.297 69.555C134.354 70.1508 133.246 70.431 132.133 70.3549H127.462V59.793H132.104C134.713 59.793 136.039 60.6804 136.039 62.4729ZM134.48 62.6247C134.495 62.4063 134.448 62.1881 134.345 61.995C134.241 61.802 134.086 61.6418 133.896 61.5329C133.331 61.2817 132.715 61.1696 132.098 61.2059H129.032V64.1894H131.742C132.46 64.2435 133.181 64.117 133.838 63.8216C134.045 63.6969 134.214 63.5165 134.325 63.3008C134.435 63.0851 134.483 62.8428 134.462 62.6013L134.48 62.6247ZM134.778 67.2079C134.795 66.9595 134.743 66.7111 134.628 66.4905C134.512 66.2698 134.338 66.0856 134.124 65.9585C133.451 65.647 132.709 65.5124 131.969 65.5673H129.05V69.0704H131.969C133.838 69.0296 134.76 68.4107 134.76 67.1846L134.778 67.2079Z" fill="white"/>
<path d="M143.15 70.5648C142.468 70.5996 141.786 70.4901 141.15 70.2436C140.513 69.9972 139.935 69.6192 139.454 69.1344C138.5 68.0421 138.013 66.6181 138.1 65.17C138.017 63.7015 138.462 62.2518 139.355 61.083C139.765 60.5893 140.283 60.1966 140.869 59.9354C141.456 59.6741 142.094 59.5514 142.736 59.5767C143.324 59.549 143.911 59.6519 144.456 59.878C145 60.1042 145.487 60.4479 145.883 60.8845C146.69 61.8477 147.107 63.0792 147.05 64.3351V65.3919H139.758C139.714 66.4172 140.049 67.4228 140.698 68.2177C141.023 68.5481 141.416 68.8049 141.849 68.9711C142.282 69.1372 142.745 69.2088 143.208 69.1811C144.373 69.1757 145.523 68.9313 146.589 68.463V69.8934C146.073 70.122 145.535 70.2981 144.983 70.4189C144.379 70.5292 143.765 70.5781 143.15 70.5648ZM142.718 60.9429C142.343 60.9295 141.97 60.9965 141.624 61.1395C141.277 61.2826 140.966 61.4982 140.71 61.772C140.17 62.4192 139.856 63.2248 139.816 64.0665H145.345C145.407 63.2329 145.169 62.4045 144.674 61.7311C144.43 61.4591 144.126 61.2466 143.787 61.11C143.448 60.9734 143.083 60.9162 142.718 60.9429Z" fill="white"/>
<path d="M154.722 70.5644C154.073 70.5729 153.429 70.4415 152.836 70.1791C152.261 69.9256 151.765 69.5223 151.4 69.0114H151.289C151.361 69.5924 151.398 70.1774 151.4 70.7629V75.1127H149.8V59.7923H151.102L151.324 61.2402H151.4C151.765 60.7056 152.262 60.2734 152.842 59.9849C153.432 59.7185 154.074 59.5869 154.722 59.5996C155.338 59.5658 155.954 59.6789 156.519 59.9296C157.083 60.1804 157.58 60.5615 157.968 61.0417C158.803 62.213 159.215 63.6338 159.136 65.0703C159.222 66.5131 158.81 67.9416 157.968 69.1165C157.579 69.5963 157.082 69.9775 156.518 70.2291C155.954 70.4807 155.339 70.5956 154.722 70.5644ZM154.488 60.96C154.056 60.9213 153.621 60.9823 153.216 61.1382C152.811 61.2941 152.447 61.5407 152.153 61.8591C151.596 62.7024 151.333 63.7061 151.405 64.7142V65.0703C151.405 66.5611 151.655 67.6237 152.153 68.2582C152.445 68.5963 152.813 68.8601 153.227 69.0276C153.642 69.1951 154.09 69.2616 154.535 69.2215C154.957 69.2342 155.375 69.139 155.75 68.9449C156.125 68.7507 156.444 68.4642 156.678 68.1122C157.244 67.1961 157.515 66.1281 157.454 65.0528C157.523 63.9841 157.251 62.9212 156.678 62.0168C156.426 61.6685 156.091 61.3891 155.704 61.2044C155.316 61.0197 154.888 60.9356 154.459 60.96H154.488Z" fill="white"/>
<path d="M166.107 70.5651C165.446 70.6045 164.785 70.4978 164.171 70.2526C163.556 70.0074 163.003 69.6297 162.551 69.1464C161.71 68.2044 161.29 66.8713 161.29 65.147C161.29 63.4226 161.716 62.0603 162.569 61.06C163.032 60.5658 163.599 60.1799 164.229 59.9296C164.858 59.6794 165.536 59.5709 166.212 59.612C166.724 59.6144 167.235 59.6692 167.736 59.7755C168.139 59.8578 168.531 59.9871 168.904 60.1608L168.413 61.527C168.035 61.3752 167.644 61.256 167.245 61.1709C166.882 61.084 166.51 61.037 166.136 61.0308C163.987 61.0308 162.913 62.3931 162.913 65.1178C162.845 66.1733 163.121 67.2226 163.701 68.1071C163.976 68.4583 164.333 68.7371 164.74 68.9192C165.147 69.1013 165.592 69.1813 166.037 69.1522C166.971 69.1368 167.894 68.9385 168.752 68.5684V69.9871C167.928 70.3865 167.022 70.5846 166.107 70.5651Z" fill="white"/>
<path d="M172.822 59.793V66.5015L172.752 68.253L172.722 68.8077L178.444 59.793H180.412V70.3666H178.917V63.9033L178.946 62.6305L178.993 61.3752L173.283 70.3666H171.286V59.793H172.822Z" fill="white"/>
<path d="M190.921 61.165H187.488V70.3666H185.9V61.165H182.508V59.793H190.921V61.165Z" fill="white"/>
<path d="M197.501 70.5648C196.818 70.6 196.135 70.4908 195.497 70.2443C194.859 69.9978 194.281 69.6196 193.799 69.1344C192.844 68.0421 192.358 66.6181 192.444 65.17C192.361 63.7015 192.807 62.2518 193.7 61.083C194.111 60.5888 194.63 60.1959 195.217 59.9346C195.804 59.6734 196.444 59.5509 197.086 59.5766C197.674 59.5491 198.26 59.652 198.803 59.8782C199.347 60.1043 199.833 60.448 200.227 60.8845C201.038 61.8462 201.455 63.0788 201.395 64.3351V65.3919H194.103C194.059 66.4172 194.393 67.4228 195.043 68.2177C195.369 68.5482 195.763 68.8051 196.197 68.9712C196.631 69.1374 197.095 69.2089 197.559 69.1811C198.721 69.1757 199.87 68.9313 200.934 68.4629V69.8934C200.418 70.122 199.88 70.2981 199.328 70.4189C198.725 70.5289 198.113 70.5778 197.501 70.5648ZM197.063 60.9429C196.68 60.9226 196.298 60.9863 195.943 61.1296C195.588 61.2728 195.269 61.4921 195.008 61.7719C194.467 62.4184 194.156 63.2249 194.12 64.0665H199.678C199.74 63.2329 199.502 62.4045 199.007 61.7311C198.765 61.4597 198.464 61.2475 198.127 61.1108C197.789 60.9741 197.426 60.9167 197.063 60.9429Z" fill="white"/>
<path d="M211.251 61.165H207.812V70.3666H206.213V61.165H202.814V59.793H211.251V61.165Z" fill="white"/>
<path d="M80.2391 77.5067C80.0068 77.5067 79.784 77.4144 79.6198 77.2502C79.4556 77.0859 79.3633 76.8632 79.3633 76.6309V6.28789C79.3633 6.05562 79.4556 5.83286 79.6198 5.66862C79.784 5.50438 80.0068 5.41211 80.2391 5.41211C80.4713 5.41211 80.6941 5.50438 80.8583 5.66862C81.0226 5.83286 81.1149 6.05562 81.1149 6.28789V76.6309C81.1149 76.8632 81.0226 77.0859 80.8583 77.2502C80.6941 77.4144 80.4713 77.5067 80.2391 77.5067Z" fill="white"/>
<path d="M27.0563 9.39402L27.1322 9.5575C27.4643 10.2061 27.8741 10.812 28.3525 11.3616C28.4618 11.2812 28.5769 11.209 28.697 11.1456C28.7729 11.0989 28.8663 11.0522 28.9714 10.9996C29.2878 10.8437 29.6134 10.7072 29.9464 10.5909C30.6678 10.3636 31.4117 10.2148 32.1651 10.1472C31.3816 8.94263 30.9008 7.56652 30.7638 6.1361C30.6743 5.44309 30.6547 4.74283 30.7054 4.0459H30.466C29.6038 4.0455 28.7673 4.34012 28.0956 4.88081L28.0489 4.91584C27.6216 5.27265 27.2782 5.7192 27.0431 6.22376C26.808 6.72832 26.6869 7.27848 26.6885 7.83513C26.7074 8.14834 26.7642 8.45811 26.8578 8.75762C26.887 8.93861 26.9746 9.18383 27.0563 9.39402Z" fill="white"/>
<path d="M33.6714 9.72091C33.7553 9.82763 33.8603 9.91591 33.9798 9.9802C34.0994 10.0445 34.2309 10.0834 34.3662 10.0946H34.4479C34.5842 10.0842 34.7169 10.0457 34.8375 9.98133C34.9581 9.91701 35.064 9.82832 35.1486 9.72091C35.8075 9.02724 36.3076 8.19844 36.6141 7.29207C37.157 5.77404 36.9994 4.48956 36.363 3.88235C36.049 3.59543 35.6568 3.40844 35.2362 3.3452C35.1427 3.3452 34.9793 3.3452 34.8158 3.3452C35.2149 3.24479 35.5636 3.00195 35.7962 2.66238C36.0288 2.3228 36.1293 1.90992 36.0787 1.50145C36.0281 1.09297 35.83 0.717071 35.5216 0.4445C35.2132 0.171929 34.8158 0.0214844 34.4042 0.0214844C33.9926 0.0214844 33.5952 0.171929 33.2867 0.4445C32.9783 0.717071 32.7802 1.09297 32.7296 1.50145C32.679 1.90992 32.7795 2.3228 33.0121 2.66238C33.2447 3.00195 33.5934 3.24479 33.9925 3.3452H33.6014C33.1832 3.41088 32.7935 3.59762 32.4804 3.88235C31.8439 4.4662 31.6863 5.77404 32.2293 7.29207C32.5266 8.19739 33.0189 9.02649 33.6714 9.72091Z" fill="white"/>
<path d="M49.7852 20.896C50.0248 21.3158 50.1515 21.7905 50.153 22.2739C50.5801 22.345 50.982 22.5239 51.3207 22.7935L51.3908 22.7235C52.248 21.8174 52.852 20.702 53.1423 19.4889C53.3517 18.3049 53.2878 17.0888 52.9555 15.9332V15.869C53.1472 15.5661 53.4142 15.3182 53.7305 15.1493C54.0467 14.9805 54.4013 14.8965 54.7596 14.9056C55.1398 14.9107 55.5143 14.9983 55.8573 15.1625C56.1566 15.3137 56.4304 15.5107 56.6688 15.7464C56.6688 15.7464 55.6821 17.498 55.1683 18.3387C54.7872 18.9538 54.4553 19.598 54.1758 20.2654C53.7922 20.9807 53.6258 21.7924 53.697 22.6009C53.7612 23.1847 54.0707 24.3057 54.2049 25.4326C54.3825 26.4919 54.3187 27.5776 54.0181 28.6088C55.8745 27.1944 57.3163 25.3068 58.1927 23.1439C57.9285 23.102 57.6724 23.0193 57.4337 22.8986C57.2282 22.7853 57.0328 22.6544 56.8498 22.5075C55.4194 21.4156 55.7405 20.2479 56.2076 19.6991C56.3419 19.5473 56.4762 19.3955 56.6221 19.2437C56.9783 18.8584 57.3695 18.473 57.7898 17.9942C58.2227 17.5048 58.4921 16.8925 58.5605 16.2427C58.5889 16.0493 58.6045 15.8543 58.6072 15.6588C58.6395 15.0142 58.4929 14.3731 58.1838 13.8065C57.8748 13.2398 57.4151 12.7695 56.8557 12.4476C56.5365 12.2688 56.1889 12.1463 55.8281 12.0856C54.6167 11.9543 53.3992 12.2722 52.4067 12.9789C51.9245 13.2952 51.5243 13.7214 51.239 14.2225C51.0229 15.291 51.3382 15.5654 51.6652 16.6689C51.6652 16.6689 51.6652 16.7098 51.6944 16.7331C52.3483 19.232 52.0038 20.4348 49.7852 20.896Z" fill="white"/>
<path d="M38.7912 18.6836C39.0159 19.1181 39.2923 19.5239 39.6144 19.8921L39.6961 19.9739C40.0142 19.7349 40.3692 19.5495 40.7471 19.4251C41.2101 19.2616 41.6899 19.1499 42.1775 19.0923C41.6536 18.2857 41.3331 17.3641 41.2434 16.4065C41.1821 15.942 41.1684 15.4725 41.2025 15.0053C40.7932 14.9407 40.3739 15.0082 40.0056 15.1979C39.7566 15.3307 39.5235 15.4913 39.3108 15.6767C38.995 15.9401 38.7653 16.2918 38.651 16.6868C38.5004 17.0872 38.46 17.5207 38.5343 17.9421C38.6036 18.1946 38.6894 18.4423 38.7912 18.6836Z" fill="white"/>
<path d="M42.3005 17.0723C42.6391 18.024 43.2055 18.8239 43.6434 18.9874C43.7035 19.0165 43.7692 19.0325 43.836 19.0341C44.2856 18.9815 44.887 18.0707 45.1731 16.9555C45.4592 15.8404 45.2607 15.0405 44.8052 14.6668C44.6979 14.5917 44.5846 14.5253 44.4666 14.4683C44.3425 14.4133 44.2135 14.3703 44.0813 14.3399C44.06 14.3433 44.0383 14.3433 44.017 14.3399C44.2047 14.2346 44.3597 14.0795 44.4648 13.8916C44.5698 13.7038 44.621 13.4906 44.6125 13.2756C44.6041 13.0605 44.5364 12.852 44.4168 12.673C44.2973 12.494 44.1307 12.3516 43.9353 12.2613C43.8015 12.2012 43.6556 12.1732 43.5091 12.1796C43.2228 12.2034 42.9577 12.3397 42.7717 12.5585C42.5857 12.7773 42.4939 13.061 42.5165 13.3473C42.5224 13.5633 42.5905 13.773 42.7127 13.9511C42.835 14.1293 43.0061 14.2684 43.2055 14.3515C42.926 14.4272 42.6681 14.5671 42.4523 14.7602C42.0378 15.1806 41.9327 16.0564 42.3005 17.0723Z" fill="white"/>
<path d="M45.3828 19.0163C46.303 19.0448 47.2123 19.2243 48.0744 19.5476L48.1386 19.5826C48.3656 19.2822 48.5612 18.9594 48.7225 18.6193C48.8493 18.3771 48.9567 18.1253 49.0436 17.8661C49.1242 17.4459 49.0878 17.0117 48.9385 16.6108C48.8289 16.2152 48.6007 15.8627 48.2846 15.6007C48.071 15.4147 47.8381 15.2523 47.5898 15.1161C47.2204 14.9294 46.8022 14.8621 46.3929 14.9234C46.4231 15.3908 46.4094 15.8599 46.352 16.3247C46.2587 17.2824 45.9363 18.2036 45.412 19.0104L45.3828 19.0163Z" fill="white"/>
<path d="M36.6133 10.1412C37.3666 10.2089 38.1105 10.3576 38.8319 10.585C39.165 10.7012 39.4906 10.8377 39.807 10.9937L40.0814 11.1396C40.2003 11.2049 40.3153 11.277 40.4259 11.3557C40.9043 10.806 41.314 10.2002 41.6461 9.55154C41.6461 9.50483 41.6928 9.44644 41.7162 9.38806C41.8038 9.17787 41.8855 8.93265 41.9497 8.73998C42.0289 8.43284 42.0701 8.11714 42.0723 7.79997C42.0744 7.24266 41.953 6.69181 41.7168 6.18704C41.4805 5.68227 41.1354 5.23612 40.7061 4.88069L40.6594 4.84566C39.9978 4.31123 39.1745 4.0169 38.324 4.01074H38.0846C38.1316 4.70775 38.112 5.40765 38.0262 6.10095C37.8903 7.54246 37.4053 8.92919 36.6133 10.1412Z" fill="white"/>
<path d="M37.4487 13.785C37.4487 13.785 37.5946 14.5265 37.6881 14.8593H37.7756C38.3595 14.6375 39.4455 14.3047 39.4455 13.9369V12.7691C39.4455 12.559 39.2294 12.3546 38.8616 12.1853C37.6138 11.7346 36.2938 11.5169 34.9673 11.543H33.9864C32.6073 11.5062 31.2333 11.7259 29.9344 12.1911C29.5491 12.3663 29.3506 12.5706 29.3506 12.775V13.9427C29.3506 14.3105 30.4658 14.6433 31.0321 14.8652H31.1255C31.2131 14.5324 31.3649 13.7909 31.3649 13.7909C31.3649 13.7909 31.2423 13.7442 31.2189 13.6975C31.1547 13.5457 31.2773 13.4639 31.4875 13.3472C31.75 13.2214 32.0372 13.1555 32.3283 13.1545C32.4978 13.9878 32.5528 14.8403 32.4917 15.6884C32.4158 17.44 32.083 19.6353 31.0496 21.13C31.5197 21.5957 31.9458 22.1039 32.3224 22.648C33.3967 20.587 33.566 18.3275 33.6594 16.0037C33.7003 14.982 33.6594 13.785 33.6594 12.9618C33.7587 12.9618 34.0915 12.9209 34.4243 12.9209C34.7571 12.9209 35.0841 12.9618 35.1833 12.9618C35.1833 13.785 35.1424 14.982 35.1833 16.0037C35.2767 18.3683 35.446 20.6746 36.5729 22.7589C36.9191 22.2395 37.3098 21.7511 37.7406 21.2993L37.8165 21.1942C36.748 19.6937 36.4152 17.4633 36.3335 15.6884C36.2743 14.84 36.3313 13.9875 36.5028 13.1545C36.7937 13.1569 37.0806 13.2226 37.3436 13.3472C37.5479 13.4639 37.6764 13.5457 37.6063 13.6975C37.5713 13.7383 37.4487 13.785 37.4487 13.785Z" fill="white"/>
<path d="M51.9635 30.3076H51.8701H51.6891C51.1128 30.3595 50.532 30.2899 49.9842 30.1032C49.7143 30.0025 49.4606 29.8628 49.2311 29.6887C49.1727 29.642 48.548 29.1048 48.437 28.9822C47.8348 28.3939 47.0702 27.9994 46.2417 27.8495C45.4282 27.8207 44.6218 28.0102 43.9063 28.3984C43.8729 28.4134 43.844 28.437 43.8225 28.4667C43.8009 28.4964 43.7876 28.5312 43.7837 28.5677C43.7808 28.6072 43.7906 28.6466 43.8116 28.6801C43.8326 28.7137 43.8637 28.7398 43.9005 28.7545C43.9271 28.7626 43.9556 28.7626 43.9822 28.7545C44.6681 28.8023 45.3471 28.9216 46.0082 29.1107C46.4748 29.2328 46.9185 29.43 47.3219 29.6945C47.8123 30.039 48.2385 30.4827 48.4896 30.6637C48.8225 30.9106 49.1988 31.0928 49.5989 31.2009C50.0422 31.273 50.4958 31.2511 50.9301 31.1366H50.9826C51.0959 31.1048 51.2071 31.0658 51.3154 31.0199C51.4653 30.9648 51.6099 30.8964 51.7475 30.8155C51.8383 30.7707 51.926 30.72 52.0102 30.6637C52.0405 30.6413 52.0635 30.6104 52.0764 30.575C52.0893 30.5396 52.0915 30.5012 52.0828 30.4646C52.0741 30.4279 52.0549 30.3946 52.0274 30.3688C52 30.3429 51.9656 30.3257 51.9285 30.3192L51.9635 30.3076Z" fill="white"/>
<path d="M49.2069 23.7164C49.2809 23.8833 49.4082 24.0209 49.5689 24.1076C50.1061 24.417 50.2929 24.8724 49.493 24.9658C48.9092 25.0359 48.3253 24.6447 46.1592 25.2402C44.9111 25.7061 43.7908 26.4603 42.8896 27.4414C42.7213 27.6271 42.5634 27.822 42.4167 28.0252C42.1693 28.375 42.0398 28.7946 42.0472 29.223C42.0545 29.6514 42.1983 30.0663 42.4575 30.4074C42.6834 30.6944 42.9488 30.948 43.2458 31.1606C43.81 31.557 44.4829 31.7698 45.1725 31.7698C45.8621 31.7698 46.5349 31.557 47.0992 31.1606C47.251 31.0087 47.2627 30.9445 47.2335 30.9037C46.7824 31.1092 46.2929 31.2166 45.7972 31.2189C45.3285 31.2267 44.8633 31.1372 44.431 30.9562C43.8713 30.7038 43.3939 30.2992 43.0531 29.7885C42.9311 29.5818 42.8757 29.3426 42.8945 29.1034C42.9133 28.8641 43.0054 28.6365 43.1582 28.4515C43.4724 28.0768 43.8289 27.7398 44.2208 27.4472C45.0333 26.8308 46.0211 26.4893 47.0408 26.4722H47.1167C47.6449 26.4734 48.1694 26.5602 48.6698 26.7291C48.9143 26.8082 49.1524 26.9058 49.3821 27.021C50.0744 27.3734 50.6744 27.8833 51.1337 28.5098C51.3746 28.0765 51.5572 27.6132 51.6766 27.1319L51.7642 26.7816C52.0036 25.7248 51.9335 23.2785 49.5981 23.2785C49.5555 23.2731 49.5123 23.2731 49.4697 23.2785C49.2186 23.442 49.1602 23.5763 49.2069 23.7164Z" fill="white"/>
<path d="M10.8247 17.9943C11.2334 18.4731 11.6188 18.8584 11.9924 19.2438L12.407 19.6992C12.8741 20.248 13.1952 21.4157 11.7589 22.5075C11.5779 22.6572 11.3823 22.7882 11.175 22.8987C10.9387 23.0202 10.6844 23.103 10.4219 23.1439C11.2861 25.3025 12.7136 27.1898 14.5556 28.6088H14.5964C14.2955 27.5634 14.2376 26.463 14.4271 25.3918C14.5614 24.2649 14.8708 23.1439 14.9351 22.5601C15.0038 21.7511 14.8354 20.9395 14.4505 20.2246C14.1575 19.5639 13.8159 18.9258 13.4287 18.3154C12.9149 17.4805 11.9282 15.7231 11.9282 15.7231C12.1666 15.4874 12.4405 15.2904 12.7398 15.1393C13.0827 14.975 13.4572 14.8874 13.8374 14.8824C14.1955 14.8749 14.5494 14.9596 14.8654 15.1283C15.1813 15.297 15.4485 15.544 15.6415 15.8457C15.6415 15.8457 15.6415 15.8924 15.6415 15.9099C15.3146 17.0665 15.2528 18.2819 15.4605 19.4656C15.7485 20.6796 16.3529 21.7956 17.2121 22.7002L17.2822 22.7703C17.6203 22.4997 18.0225 22.3207 18.4499 22.2506C18.4514 21.7673 18.5781 21.2925 18.8177 20.8727C16.5991 20.3998 16.2546 19.2087 16.926 16.7507C16.9333 16.7283 16.9431 16.7067 16.9552 16.6865C17.2763 15.583 17.5975 15.3086 17.3814 14.2401C17.0961 13.739 16.6959 13.3128 16.2137 12.9965C15.2211 12.2898 14.0037 11.9719 12.7923 12.1032C12.4313 12.1629 12.0835 12.2854 11.7647 12.4652C11.2053 12.7871 10.7456 13.2574 10.4365 13.824C10.1275 14.3907 9.98093 15.0317 10.0132 15.6764C10.0159 15.8718 10.0315 16.0669 10.0599 16.2603C10.1302 16.9032 10.3973 17.5088 10.8247 17.9943Z" fill="white"/>
<path d="M26.4082 19.0978C26.8978 19.1552 27.3795 19.2668 27.8445 19.4306C28.2216 19.5569 28.5763 19.7422 28.8954 19.9794C28.9222 19.9536 28.9475 19.9263 28.9713 19.8977C29.289 19.5277 29.5597 19.1198 29.7771 18.6833C29.8823 18.4381 29.972 18.1866 30.0456 17.9301C30.1217 17.5093 30.0834 17.0758 29.9347 16.6748C29.8251 16.2792 29.5969 15.9267 29.2808 15.6647C29.0747 15.48 28.8496 15.3176 28.6093 15.1801C28.2408 14.9908 27.8217 14.9233 27.4124 14.9875C27.4427 15.4548 27.429 15.9239 27.3716 16.3887C27.2779 17.3572 26.9471 18.2877 26.4082 19.0978Z" fill="white"/>
<path d="M24.7551 19.0338C24.8218 19.0309 24.8872 19.015 24.9478 18.9871C25.3857 18.8178 25.9462 18.0237 26.2907 17.072C26.6351 16.1204 26.5476 15.1687 26.1214 14.7366C25.9065 14.5422 25.6482 14.4021 25.3682 14.3279C25.5713 14.2464 25.7463 14.1074 25.8718 13.928C25.9972 13.7487 26.0677 13.5366 26.0746 13.3178C26.0956 13.0309 26.0025 12.7473 25.8156 12.5287C25.6286 12.31 25.3629 12.174 25.0762 12.1501C24.9317 12.1445 24.7878 12.1724 24.6559 12.2319C24.4634 12.3233 24.2996 12.4656 24.1822 12.6434C24.0648 12.8212 23.9983 13.0277 23.9899 13.2406C23.9815 13.4535 24.0315 13.6646 24.1345 13.8511C24.2374 14.0376 24.3895 14.1924 24.5741 14.2987C24.5528 14.3014 24.5312 14.3014 24.5099 14.2987C24.2484 14.3561 24.0018 14.4674 23.7859 14.6257C23.3305 14.9994 23.1437 15.8693 23.4181 16.9144C23.6925 17.9595 24.3056 18.9813 24.7551 19.0338Z" fill="white"/>
<path d="M19.8508 18.6193C20.01 18.9606 20.2057 19.2836 20.4346 19.5826L20.4989 19.5476C21.3609 19.2243 22.2702 19.0448 23.1904 19.0163C22.6665 18.2097 22.346 17.2882 22.2563 16.3306C22.1988 15.8658 22.1852 15.3966 22.2154 14.9293C21.8061 14.8679 21.3879 14.9353 21.0185 15.122C20.7693 15.2567 20.5362 15.4193 20.3237 15.6066C20.008 15.8699 19.7782 16.2217 19.6639 16.6166C19.5197 17.0187 19.4834 17.4515 19.5589 17.8719C19.6375 18.1279 19.7351 18.3777 19.8508 18.6193Z" fill="white"/>
<path d="M24.6392 28.7955C24.6658 28.8036 24.6943 28.8036 24.7209 28.7955C24.7571 28.7801 24.7877 28.7539 24.8086 28.7204C24.8295 28.687 24.8396 28.648 24.8377 28.6087C24.8338 28.5722 24.8204 28.5374 24.7989 28.5077C24.7774 28.478 24.7485 28.4544 24.7151 28.4394C23.9995 28.0513 23.1931 27.8618 22.3796 27.8905C21.5507 28.039 20.7857 28.4337 20.1843 29.0232C20.0734 29.1283 19.4428 29.683 19.3903 29.7297C19.1608 29.9039 18.907 30.0435 18.6371 30.1442C18.0874 30.3312 17.5047 30.4008 16.9264 30.3486H16.7513H16.6403C16.5984 30.3562 16.5601 30.3776 16.5316 30.4093C16.5031 30.441 16.4859 30.4812 16.4827 30.5237C16.4789 30.5562 16.4839 30.5891 16.4973 30.6189C16.5106 30.6487 16.5318 30.6743 16.5586 30.6931C16.6428 30.7493 16.7305 30.8 16.8213 30.8449C16.9575 30.9246 17.1001 30.993 17.2475 31.0492C17.3585 31.0901 17.4694 31.1368 17.5803 31.166H17.6387C18.073 31.2806 18.5266 31.3025 18.9699 31.2302C19.37 31.1222 19.7463 30.94 20.0792 30.6931C20.3595 30.5121 20.7799 30.0683 21.2469 29.7239C21.653 29.4604 22.0984 29.2633 22.5665 29.14C23.243 28.9512 23.9379 28.8357 24.6392 28.7955Z" fill="white"/>
<path d="M16.8267 26.8569L16.9143 27.2072C17.0318 27.6965 17.2144 28.1678 17.4573 28.6085C17.9176 27.9828 18.5173 27.4731 19.2089 27.1196C19.4406 27.0044 19.6806 26.9068 19.927 26.8277C20.4253 26.6583 20.948 26.5716 21.4742 26.5708H21.556C22.5757 26.5879 23.5635 26.9295 24.376 27.5459C24.7659 27.8386 25.1206 28.1756 25.4328 28.5501C25.5865 28.7345 25.6796 28.9618 25.6994 29.2011C25.7193 29.4403 25.6649 29.6799 25.5437 29.8871C25.2015 30.3965 24.7245 30.8008 24.1658 31.0548C23.7196 31.2368 23.241 31.3259 22.7592 31.3169C22.2773 31.3078 21.8024 31.2008 21.3633 31.0023C21.3633 31.0432 21.3633 31.1074 21.4976 31.2592C22.0619 31.6557 22.7347 31.8684 23.4243 31.8684C24.114 31.8684 24.7868 31.6557 25.3511 31.2592C25.6457 31.0459 25.9091 30.7924 26.1334 30.506C26.3944 30.1659 26.5397 29.7512 26.5481 29.3226C26.5565 28.894 26.4276 28.4739 26.1801 28.1239C26.0332 27.8847 25.8693 27.6565 25.6897 27.4408C24.7909 26.4596 23.6724 25.7053 22.4259 25.2396C20.2773 24.6558 19.6701 25.0353 19.0863 24.9652C18.2922 24.8718 18.5024 24.4164 19.0104 24.1069C19.1727 24.0206 19.302 23.8831 19.3782 23.7158C19.4249 23.5756 19.3782 23.4413 19.1155 23.3771C19.0728 23.3717 19.0297 23.3717 18.987 23.3771C16.6574 23.3538 16.5874 25.8001 16.8267 26.8569Z" fill="white"/>
<path d="M35.6152 39.0773C35.8393 39.3247 35.9943 39.6267 36.0648 39.953C36.0648 39.9998 37.2325 38.7094 37.2325 38.7094V37.4658L35.9831 37.9913L35.6152 39.0773Z" fill="white"/>
<path d="M27.9896 71.6685C28.542 71.5194 29.0859 71.3401 29.6186 71.1313C29.8959 71.0265 30.1669 70.9056 30.4302 70.7693C30.7114 70.632 30.9808 70.4719 31.2359 70.2906C31.4997 70.1029 31.7356 69.8788 31.9365 69.625C32.0396 69.4951 32.1277 69.3541 32.1992 69.2046C32.2343 69.1287 32.2693 69.047 32.2985 68.9711L32.3452 68.7667C32.3629 68.6947 32.3513 68.6187 32.313 68.5552C32.2747 68.4917 32.2128 68.446 32.1409 68.4281C32.0878 68.4107 32.0305 68.4107 31.9774 68.4281C31.9273 68.4417 31.8825 68.4702 31.8489 68.5098C31.6964 68.6918 31.51 68.8425 31.3001 68.9535C31.0984 69.0572 30.8873 69.1413 30.6695 69.2046C30.184 69.3297 29.6905 69.4214 29.1924 69.479C28.6844 69.5432 28.1356 69.5958 27.6335 69.6483C27.1314 69.7009 26.6117 69.7184 26.0921 69.7359L24.4748 69.7885C23.8641 69.8033 23.2562 69.8757 22.659 70.0045C22.3813 70.0639 22.1111 70.154 21.8533 70.2731C21.755 70.3179 21.6594 70.3685 21.5672 70.4249C21.1645 70.669 20.8449 71.0293 20.6506 71.4583C20.4806 71.8434 20.4337 72.2716 20.5163 72.6844C20.5867 73.0428 20.759 73.3732 21.0126 73.6361C21.0621 73.6873 21.1259 73.7224 21.1956 73.737C21.2653 73.7516 21.3378 73.7449 21.4037 73.7178C21.462 73.6844 21.5167 73.6453 21.5672 73.601C21.9787 73.0322 22.562 72.6105 23.2312 72.3983C24.0369 72.2115 25.1871 72.1589 26.2965 71.9954C26.8663 71.9169 27.4315 71.8077 27.9896 71.6685Z" fill="white"/>
<path d="M22.9278 68.5564C22.9246 68.5918 22.9287 68.6275 22.9397 68.6614C22.9507 68.6952 22.9685 68.7265 22.992 68.7532C23.0155 68.78 23.0442 68.8017 23.0763 68.817C23.1084 68.8324 23.1433 68.841 23.1789 68.8424C23.2391 68.8478 23.2992 68.8312 23.3482 68.7957L23.4358 68.7374C23.559 68.653 23.69 68.5807 23.827 68.5213C24.1952 68.3587 24.5922 68.2713 24.9947 68.2644C25.5826 68.2578 26.1697 68.3126 26.7462 68.4279C27.4738 68.5615 28.2156 68.6008 28.9532 68.5447C29.348 68.5132 29.7389 68.4448 30.1209 68.3403C30.3219 68.2769 30.5172 68.1968 30.7048 68.1009C30.9542 67.9985 31.1605 67.8128 31.2886 67.5755C31.3012 67.5491 31.3083 67.5205 31.3095 67.4913C31.3107 67.4622 31.3059 67.4331 31.2956 67.4058C31.2852 67.3785 31.2694 67.3536 31.2492 67.3326C31.2289 67.3116 31.2046 67.2949 31.1777 67.2835H31.131C31.131 67.2835 30.3603 67.1434 30.0684 67.0267L29.105 66.7756C28.4394 66.6121 27.8089 66.472 27.1024 66.3552C26.2707 66.1946 25.4109 66.2632 24.6152 66.5537C24.5094 66.5944 24.4061 66.6412 24.3057 66.6939C23.9355 66.86 23.6144 67.1186 23.373 67.4448C23.1317 67.771 22.9784 68.1538 22.9278 68.5564Z" fill="white"/>
<path d="M24.014 65.882L24.703 65.6426C24.703 65.6426 22.0932 64.6909 23.582 63.0036V62.9393C23.3334 62.9005 23.0789 62.9308 22.8463 63.0269C22.6166 63.1273 22.4158 63.284 22.2625 63.4823C21.5502 64.3639 22.5311 65.3215 22.5544 65.339C22.4084 65.339 22.0581 65.2806 21.9122 65.2631C21.2816 64.831 20.2307 63.7626 21.737 61.503H21.6027C21.3863 61.4918 21.1702 61.5318 20.9722 61.6198C20.8569 61.6605 20.7438 61.7072 20.6335 61.7599C20.2652 61.92 19.9502 62.182 19.7257 62.5151C19.5013 62.8482 19.3767 63.2384 19.3665 63.64C19.3676 63.9627 19.4499 64.2799 19.6059 64.5625C19.7151 64.7687 19.8594 64.9544 20.0321 65.1113C19.9212 65.1113 19.4483 65.0704 19.3257 65.0354C19.0616 64.7718 18.8521 64.4588 18.7091 64.1141C18.5661 63.7695 18.4926 63.4 18.4926 63.0269C18.4926 62.6538 18.5661 62.2843 18.7091 61.9397C18.8521 61.5951 19.0616 61.282 19.3257 61.0184H19.2089C18.9925 61.0072 18.7764 61.0472 18.5783 61.1352C18.4501 61.1854 18.3253 61.2439 18.2047 61.3104C17.8416 61.5266 17.5398 61.8323 17.3283 62.1981C17.1167 62.564 17.0024 62.978 16.9961 63.4006C17.0125 63.8002 17.0933 64.1945 17.2355 64.5683C18.2164 66.9096 22.7704 66.1914 24.014 65.882Z" fill="white"/>
<path d="M47.2226 70.4307C47.1304 70.3744 47.0348 70.3237 46.9365 70.2789C46.677 70.159 46.4048 70.0689 46.1249 70.0104C45.5279 69.8809 44.9199 69.8085 44.3091 69.7943L42.6977 69.7418C42.1722 69.7418 41.6584 69.7009 41.1563 69.6542C40.6542 69.6075 40.1054 69.5491 39.5974 69.4849C39.1015 69.4289 38.6099 69.3392 38.1261 69.2163C37.9084 69.153 37.6972 69.0689 37.4955 68.9653C37.2857 68.8542 37.0993 68.7035 36.9467 68.5215C36.9131 68.4819 36.8684 68.4534 36.8183 68.4398C36.7652 68.4224 36.7079 68.4224 36.6548 68.4398C36.5829 68.4577 36.521 68.5034 36.4827 68.5669C36.4444 68.6304 36.4328 68.7064 36.4504 68.7784L36.4971 68.9828C36.4971 69.0587 36.5614 69.1404 36.5964 69.2163C36.668 69.3659 36.7561 69.5069 36.8591 69.6367C37.0601 69.8905 37.296 70.1146 37.5598 70.3023C37.8148 70.4836 38.0843 70.6437 38.3655 70.7811C38.6273 70.9162 38.8963 71.037 39.1712 71.143C39.7043 71.3509 40.248 71.5302 40.8002 71.6802C41.3603 71.8209 41.9274 71.932 42.4992 72.013C43.6085 72.1765 44.7587 72.229 45.5644 72.4159C46.2294 72.6303 46.8084 73.0517 47.2168 73.6186C47.2672 73.6629 47.322 73.702 47.3802 73.7354C47.4461 73.7624 47.5186 73.7691 47.5884 73.7545C47.6581 73.74 47.7219 73.7048 47.7714 73.6536C48.025 73.3908 48.1973 73.0603 48.2677 72.7019C48.3503 72.2892 48.3034 71.861 48.1334 71.4758C47.9426 71.0433 47.625 70.6789 47.2226 70.4307Z" fill="white"/>
<path d="M38.0736 68.0892C38.2618 68.184 38.457 68.264 38.6575 68.3286C39.0394 68.4331 39.4304 68.5015 39.8252 68.533C40.5628 68.589 41.3046 68.5498 42.0321 68.4162C42.6087 68.3006 43.1957 68.2458 43.7837 68.2527C44.1861 68.2602 44.583 68.3476 44.9514 68.5096C45.0884 68.5689 45.2194 68.6413 45.3426 68.7256L45.4244 68.784C45.4728 68.8205 45.5333 68.8372 45.5937 68.8307C45.6292 68.8293 45.6641 68.8206 45.6963 68.8053C45.7284 68.79 45.7571 68.7683 45.7805 68.7415C45.804 68.7147 45.8218 68.6835 45.8328 68.6497C45.8439 68.6158 45.8479 68.5801 45.8447 68.5446C45.7941 68.1421 45.6408 67.7593 45.3995 67.4331C45.1582 67.1069 44.837 66.8483 44.4668 66.6821C44.3665 66.6295 44.2631 66.5827 44.1574 66.542C43.3616 66.2515 42.5019 66.1829 41.6702 66.3435C40.9637 66.4603 40.3331 66.6004 39.6675 66.7639L38.6983 67.0149C38.3889 67.1025 37.6299 67.2426 37.6299 67.2426H37.5773C37.5509 67.2545 37.5272 67.2716 37.5076 67.2929C37.4879 67.3141 37.4728 67.3391 37.463 67.3663C37.4532 67.3936 37.4489 67.4225 37.4505 67.4514C37.4521 67.4803 37.4595 67.5086 37.4722 67.5346C37.5992 67.7859 37.8128 67.9829 38.0736 68.0892Z" fill="white"/>
<path d="M50.5796 61.3045C50.459 61.238 50.3341 61.1795 50.2059 61.1294C50.0078 61.0414 49.7918 61.0014 49.5753 61.0126H49.4586C49.9905 61.5457 50.2893 62.268 50.2893 63.0211C50.2893 63.7741 49.9905 64.4965 49.4586 65.0295C49.3476 65.0645 48.8747 65.0937 48.7521 65.1054C48.9249 64.9486 49.0691 64.7628 49.1783 64.5566C49.3343 64.2741 49.4167 63.9568 49.4177 63.6341C49.4085 63.2362 49.2869 62.8489 49.0668 62.5173C48.8467 62.1856 48.5372 61.923 48.1741 61.7599C48.0638 61.7072 47.9507 61.6605 47.8354 61.6198C47.6374 61.5318 47.4213 61.4918 47.2049 61.503H47.0881C48.5944 63.7625 47.5435 64.831 46.9129 65.2631C46.767 65.2631 46.4167 65.3331 46.2707 65.339C46.2707 65.339 47.2749 64.3639 46.5626 63.4823C46.4093 63.2839 46.2085 63.1273 45.9788 63.0269C45.7462 62.9308 45.4917 62.9005 45.2431 62.9393V63.0035C46.7319 64.6909 44.1104 65.6426 44.1221 65.6426L44.8111 65.8819C46.043 66.1914 50.6088 66.9095 51.5721 64.5449C51.7143 64.1711 51.7951 63.7768 51.8115 63.3772C51.7998 62.9554 51.6805 62.5435 51.4649 62.1807C51.2493 61.818 50.9445 61.5164 50.5796 61.3045Z" fill="white"/>
<path d="M38.6518 54.3574C38.6205 54.3253 38.5794 54.3048 38.535 54.299C38.4995 54.2844 38.4596 54.2844 38.4241 54.299C38.239 54.4119 38.0751 54.5561 37.9395 54.7253C37.8312 54.8663 37.7428 55.0215 37.6767 55.1865C37.607 55.3358 37.5826 55.5023 37.6067 55.6653C37.6588 55.8805 37.7849 56.0706 37.9628 56.2024C38.0792 56.2755 38.2195 56.3006 38.354 56.2725C38.5675 56.2167 38.754 56.0862 38.8795 55.9046C38.9641 55.7641 39.0047 55.6014 38.9962 55.4376C39.0046 55.0393 38.8769 54.65 38.6343 54.3341L38.6518 54.3574Z" fill="white"/>
<path d="M39.0365 45.05L38.9606 45.0967C38.6144 45.243 38.2917 45.4398 38.0031 45.6805C36.7303 46.7548 35.6677 48.7633 35.1597 51.1746C34.7043 53.5101 34.9203 55.6236 35.6151 57.0482C35.7781 57.4789 36.0435 57.8634 36.3884 58.1685C36.7332 58.4737 37.1471 58.6903 37.5944 58.7998C38.0505 58.8439 38.5106 58.7832 38.9397 58.6223C39.3687 58.4614 39.7553 58.2046 40.0699 57.8715C41.507 56.3983 42.4568 54.5191 42.7907 52.4883C43.2578 50.112 43.0184 47.8992 42.2652 46.4746C42.0914 46.0799 41.8277 45.7312 41.4952 45.4565C41.1627 45.1818 40.7706 44.9886 40.3502 44.8923C39.9062 44.8217 39.4512 44.8763 39.0365 45.05ZM36.3333 51.3031C36.3333 51.1396 36.4617 50.6667 36.4967 50.509C36.5771 50.6776 36.6998 50.8224 36.8529 50.9294C37.0222 51.0578 37.2249 51.1348 37.4368 51.1513C37.3028 50.9464 37.2133 50.7156 37.174 50.474C37.1478 50.1674 37.2149 49.8601 37.3667 49.5924C37.4893 49.7909 38.0732 51.2155 38.3009 51.6884C38.2589 51.8188 38.2239 51.9514 38.1958 52.0854L38.1607 52.319V52.4474C38.1257 52.4474 36.5259 54.4267 36.1406 54.7829C35.9983 53.6207 36.0636 52.4425 36.3333 51.3031ZM37.8922 57.5737C37.4888 57.5189 37.1225 57.3095 36.8704 56.9898C36.5687 56.664 36.3662 56.259 36.2866 55.8221L38.2191 53.4867C38.2436 53.5794 38.2904 53.6646 38.3556 53.7348C38.4208 53.8051 38.5022 53.8582 38.5928 53.8896C38.6992 53.8987 38.8061 53.8786 38.9018 53.8312C38.9976 53.7839 39.0785 53.7111 39.1358 53.621C39.1825 53.7436 40.3035 55.8105 40.3444 55.8455C39.7021 56.9957 38.6161 57.6671 37.8922 57.5737ZM41.6639 52.5467C41.5983 52.9547 41.5007 53.3568 41.3719 53.7494C41.255 54.1154 41.1166 54.4741 40.9574 54.8237C40.4847 54.1257 40.0501 53.4026 39.6554 52.6576C39.6554 52.57 39.7021 52.4883 39.7196 52.4007C39.7528 52.2333 39.7723 52.0634 39.778 51.8928C40.321 51.3615 40.8348 50.7251 41.3778 50.1412C41.4529 50.2305 41.5063 50.3361 41.5337 50.4496C41.561 50.5631 41.5616 50.6814 41.5354 50.7951C41.4652 51.063 41.3042 51.2982 41.08 51.4607C41.3511 51.5052 41.6291 51.477 41.8857 51.379C41.8507 51.6709 41.7223 52.2022 41.6639 52.5467ZM40.9516 46.603C41.0494 46.6927 41.1375 46.7925 41.2143 46.9008C41.2389 46.9453 41.2662 46.9882 41.296 47.0293L41.3895 47.2219C41.5632 47.5937 41.6888 47.9861 41.7631 48.3896C41.6858 48.3643 41.6051 48.3505 41.5237 48.3488C41.3025 48.3304 41.0797 48.3559 40.8683 48.4237C40.6569 48.4916 40.461 48.6005 40.2918 48.7443C40.1225 48.888 39.9833 49.0637 39.8822 49.2614C39.781 49.459 39.7198 49.6747 39.7021 49.896C39.8916 49.7529 40.1024 49.6406 40.3268 49.5632C40.5204 49.534 40.7172 49.534 40.9107 49.5632C40.5137 50.0536 40.0816 50.5207 39.6379 50.982C39.611 50.8925 39.563 50.8109 39.498 50.7438C39.4329 50.6767 39.3528 50.6263 39.2642 50.5966C39.1623 50.5888 39.0602 50.6079 38.9679 50.6519C38.8757 50.696 38.7967 50.7635 38.7387 50.8477C38.5578 50.4448 38.1549 49.4406 38.0673 49.207C38.2661 49.1901 38.4661 49.2201 38.6512 49.2946C38.8763 49.4204 39.0746 49.589 39.235 49.7909C39.2681 49.4771 39.2404 49.16 39.1533 48.8567C39.076 48.6027 38.9225 48.3786 38.7137 48.2147C38.5048 48.0507 38.2507 47.9549 37.9856 47.9401C37.8655 47.9226 37.7436 47.9226 37.6236 47.9401C38.0021 47.2898 38.5486 46.7533 39.2058 46.387C39.0248 47.5489 40.6246 47.7824 40.9516 46.603Z" fill="white"/>
<path d="M68.6261 39.8307C68.564 39.629 68.4252 39.4597 68.2396 39.3593C68.054 39.2589 67.8364 39.2352 67.6336 39.2935H67.5986C66.6936 39.5621 65.7477 39.8774 64.8194 40.0584L63.424 40.3912C62.9627 40.4846 62.5073 40.5663 62.0052 40.6306C61.0302 40.7648 60.0551 40.8699 59.0859 40.9575C58.4612 41.0101 57.819 41.0509 57.1942 41.0801L57.4686 41.0042C57.7372 40.9342 58.0058 40.8524 58.2685 40.7707C58.7998 40.6072 59.3136 40.4262 59.8274 40.2394C60.855 39.8657 61.8476 39.457 62.8401 39.025C63.8647 38.6051 64.8528 38.1012 65.7944 37.5186C66.7297 36.9274 67.6039 36.2449 68.4043 35.481C68.5289 35.3584 68.6097 35.1981 68.634 35.025C68.6582 34.8519 68.6247 34.6756 68.5386 34.5234C68.4571 34.3869 68.3373 34.2772 68.1941 34.2081C68.0796 34.1453 67.9511 34.1123 67.8204 34.1123C67.6898 34.1123 67.5613 34.1453 67.4467 34.2081C66.5885 34.7044 65.6952 35.2124 64.7727 35.6444C63.8794 36.1085 62.9569 36.5142 62.011 36.8589C61.036 37.1975 60.0493 37.5128 59.0918 37.7872C58.6013 37.9273 58.105 38.0558 57.6146 38.1667L57.2877 38.2368C57.5387 38.1317 57.7781 38.0207 58.0175 37.9098C58.5488 37.6471 59.0626 37.3668 59.5647 37.0807C60.5689 36.4969 61.5264 35.8838 62.484 35.2416C63.4648 34.6067 64.387 33.8857 65.2398 33.0871C66.082 32.2803 66.8428 31.3924 67.511 30.4364C67.6073 30.2896 67.6526 30.1151 67.64 29.94C67.6273 29.7648 67.5574 29.5987 67.4409 29.4672C67.3664 29.3884 67.2771 29.3249 67.1782 29.2804C67.0375 29.2142 66.8805 29.1911 66.7267 29.214C66.5729 29.2368 66.4294 29.3046 66.3141 29.4088C65.5492 30.1036 64.7201 30.8276 63.8736 31.464C63.0522 32.1308 62.1839 32.7377 61.2754 33.2798C61.1061 33.3849 60.9309 33.4783 60.7558 33.5776C59.9851 34.0155 59.2085 34.4358 58.4203 34.8095C58.2685 34.8874 58.1167 34.9574 57.9649 35.0197C57.6788 35.154 57.3811 35.2766 57.1067 35.3934L57.2643 35.2883C57.5951 35.0508 57.9163 34.8056 58.2277 34.5526C58.397 34.4125 58.5721 34.2782 58.7356 34.1381C59.6581 33.3557 60.4872 32.5266 61.3338 31.6859H61.3688C62.2035 30.8341 62.9634 29.9121 63.64 28.9301C64.335 27.9138 64.922 26.8278 65.3916 25.6897C65.4609 25.5268 65.472 25.345 65.4231 25.1749C65.3742 25.0048 65.2682 24.8567 65.123 24.7555C65.0387 24.6963 64.9436 24.6542 64.843 24.6319C64.7425 24.6095 64.6385 24.6072 64.5371 24.6251C64.4356 24.643 64.3387 24.6807 64.2519 24.7362C64.1651 24.7916 64.0901 24.8637 64.0312 24.9482C63.4006 25.8415 62.7058 26.764 61.976 27.6106C61.76 27.8675 61.544 28.1185 61.3221 28.3696C60.8171 28.9601 60.2749 29.5179 59.699 30.0394C59.4129 30.2905 59.1151 30.5357 58.829 30.7809C58.2977 31.2305 57.7664 31.6625 57.2234 32.0712L57.4745 31.7443C57.9241 31.1254 58.3386 30.4948 58.7356 29.8643C59.01 29.4264 59.2786 28.9826 59.5355 28.5389C59.9756 27.7861 60.3714 27.0083 60.7207 26.2093C60.8842 25.8473 61.036 25.4795 61.1761 25.1058C61.6253 23.8984 61.9501 22.6483 62.1453 21.375C62.1705 21.1963 62.1331 21.0143 62.0394 20.86C61.9458 20.7058 61.8017 20.5886 61.6315 20.5284C61.4364 20.459 61.2218 20.4699 61.0346 20.5585C60.8475 20.6472 60.7031 20.8064 60.6331 21.0013V21.0422C60.3003 21.9705 59.9033 22.9339 59.4654 23.8564C59.4012 24.0023 59.337 24.1541 59.2669 24.3001C58.7972 25.3044 58.2668 26.2793 57.6788 27.2194C57.6438 27.2778 57.6146 27.3362 57.5796 27.3887C57.13 28.0426 56.6688 28.6732 56.1958 29.2921C54.6677 30.8721 52.893 32.1932 50.9411 33.2039C50.2872 33.5192 49.6275 33.9512 48.9619 34.2782H48.9268C48.4751 34.4903 48.1057 34.8453 47.8759 35.2883C47.8188 35.4014 47.77 35.5184 47.7299 35.6386C47.6553 35.8587 47.6159 36.0893 47.6132 36.3217C47.6095 36.7352 47.7156 37.1423 47.9208 37.5013C48.1259 37.8603 48.4227 38.1585 48.7809 38.3652C49.0164 38.492 49.2783 38.562 49.5457 38.5695L49.6275 38.5345C49.7611 38.5252 49.89 38.4809 50.0011 38.4061C50.0011 38.4061 49.8143 37.9098 50.1004 37.6821C50.147 37.6514 50.1958 37.6241 50.2463 37.6004C50.3824 37.5399 50.5295 37.5081 50.6784 37.5069C50.9478 37.5018 51.2089 37.6009 51.4069 37.7837C51.605 37.9664 51.7249 38.2186 51.7415 38.4876C51.758 38.7566 51.6701 39.0215 51.4959 39.2272C51.3218 39.4329 51.0749 39.5633 50.8068 39.5913C50.491 39.6752 50.1642 39.7106 49.8376 39.6964C49.25 39.6968 48.6635 39.6421 48.0861 39.5329C47.3297 39.3925 46.594 39.1571 45.8966 38.8323C45.0586 38.4032 44.2746 37.876 43.5612 37.2617C41.9688 35.7918 41.0222 33.7517 40.928 31.5866C40.928 31.4874 40.928 31.3823 40.928 31.283C40.9286 30.955 40.9501 30.6274 40.9922 30.3021C41.1787 28.7789 41.7851 27.3376 42.7438 26.1392C42.8022 26.0692 43.0766 25.7714 43.4211 25.4269L43.4853 25.3627C43.8684 24.9728 44.2867 24.6191 44.7347 24.3059C44.6937 24.2754 44.6547 24.2423 44.618 24.2067L44.4895 24.0724C44.2488 24.0848 44.0102 24.0225 43.8064 23.8939C43.6025 23.7653 43.4435 23.5768 43.351 23.3543C43.351 23.3543 43.351 23.3543 43.351 23.3251C43.3487 23.3018 43.3487 23.2783 43.351 23.255C43.326 23.0944 43.326 22.931 43.351 22.7704C43.4055 22.521 43.5265 22.2909 43.7013 22.1048C43.7714 22.0347 43.8356 21.9705 43.9057 21.9121C44.106 21.7605 44.3372 21.6549 44.5829 21.6027C44.6479 21.5849 44.7143 21.5732 44.7814 21.5677C45.1127 21.5146 45.4522 21.5758 45.744 21.7414C46.0359 21.9069 46.2626 22.1669 46.387 22.4785C46.2473 22.5209 46.1049 22.5541 45.9608 22.5777C45.918 22.4528 45.834 22.3461 45.7227 22.275C45.6113 22.204 45.4792 22.1728 45.3478 22.1865C45.2519 22.1952 45.1576 22.2168 45.0675 22.2508C45.0073 22.2733 44.9519 22.307 44.9041 22.35C44.472 22.7179 44.8515 23.6462 45.4529 23.7104C45.5535 23.7213 45.6553 23.7093 45.7506 23.6754C46.7104 23.3986 47.685 23.1763 48.6699 23.0098C48.8626 22.9806 49.0378 22.9572 49.1662 22.9514C49.2974 22.4168 49.2422 21.8534 49.0097 21.3544C48.7772 20.8554 48.3813 20.4507 47.8876 20.2073C46.9152 19.8026 45.8695 19.6038 44.8165 19.6234C44.0309 19.6171 43.2473 19.7014 42.4811 19.8745C39.5034 20.5284 37.6876 22.2508 36.0586 25.9816C35.306 27.5447 34.7397 29.1908 34.3713 30.886H34.2136C33.8559 29.1912 33.2932 27.5463 32.538 25.9874C30.8798 22.2566 29.0348 20.5284 26.0805 19.8745C25.3137 19.7051 24.5304 19.6209 23.7451 19.6234C22.6939 19.6036 21.6501 19.8025 20.6799 20.2073C20.1846 20.4508 19.7873 20.8561 19.5537 21.3562C19.3201 21.8563 19.2643 22.4211 19.3954 22.9572C19.5238 22.9572 19.699 22.9572 19.8917 23.0156C20.8767 23.1811 21.8515 23.4034 22.8109 23.6812C22.9063 23.7152 23.0081 23.7272 23.1087 23.7162C23.7685 23.6462 24.1596 22.5485 23.494 22.2624C23.4055 22.2228 23.3106 22.199 23.2138 22.1924C23.0782 22.1802 22.9423 22.213 22.8273 22.2859C22.7122 22.3587 22.6244 22.4674 22.5774 22.5952C22.4313 22.5693 22.287 22.5342 22.1453 22.4901C22.2717 22.1787 22.4997 21.9192 22.7923 21.7539C23.0849 21.5885 23.4248 21.527 23.7568 21.5793C23.8238 21.5853 23.8903 21.597 23.9553 21.6144C24.3179 21.67 24.65 21.8495 24.8953 22.1223C25.0699 22.3063 25.191 22.5344 25.2456 22.7821C25.2705 22.9446 25.2705 23.11 25.2456 23.2725C25.2456 23.2725 25.2456 23.3192 25.2456 23.3426C25.1531 23.5581 24.9977 23.7408 24.7999 23.8668C24.602 23.9928 24.3708 24.0563 24.1363 24.049C24.0972 24.099 24.0542 24.1459 24.0078 24.1892C23.9711 24.2248 23.9321 24.2579 23.8911 24.2884C24.3683 24.6225 24.8121 25.0018 25.2164 25.4211C25.5667 25.7656 25.8353 26.0633 25.8937 26.1392C26.4962 26.9033 26.9606 27.7668 27.2658 28.6907C27.4359 29.2155 27.5571 29.755 27.6277 30.3021C27.665 30.6278 27.6845 30.9552 27.6861 31.283C27.6861 31.3881 27.6861 31.4932 27.6861 31.5983C27.6861 31.7034 27.6861 31.9661 27.6453 32.1471C27.384 33.4542 26.9169 34.7115 26.2615 35.8721L26.1389 36.0473C25.8545 36.5065 25.5066 36.9232 25.1055 37.2851C24.3915 37.8986 23.6076 38.4258 22.7701 38.8556C22.0726 39.1804 21.337 39.4158 20.5806 39.5563C20.0031 39.6655 19.4167 39.7202 18.829 39.7197C18.5044 39.7339 18.1796 39.6985 17.8657 39.6147C17.5983 39.5865 17.3521 39.4564 17.1782 39.2514C17.0044 39.0464 16.9161 38.7823 16.9319 38.5139C16.9477 38.2456 17.0663 37.9936 17.263 37.8105C17.4597 37.6273 17.7195 37.5269 17.9883 37.5303C18.1372 37.5315 18.2842 37.5633 18.4203 37.6237C18.4709 37.6474 18.5197 37.6747 18.5663 37.7054C18.8524 37.9331 18.6656 38.4294 18.6656 38.4294C18.7767 38.5042 18.9056 38.5485 19.0392 38.5579H19.1618C19.4293 38.5509 19.6914 38.4809 19.9267 38.3535C20.2848 38.1468 20.5816 37.8487 20.7868 37.4896C20.9919 37.1306 21.0981 36.7235 21.0944 36.31C21.0917 36.0776 21.0523 35.847 20.9776 35.6269C20.9395 35.5069 20.8927 35.3898 20.8375 35.2766C20.6009 34.8346 20.2283 34.4804 19.7749 34.2665C19.1093 33.9396 18.4437 33.5075 17.7956 33.1922C15.8419 32.1845 14.0667 30.863 12.5409 29.2804C12.0213 28.6557 11.56 28.0251 11.0929 27.3712L10.9878 27.2019C10.3999 26.2618 9.86952 25.2869 9.39975 24.2826C9.32969 24.1366 9.27131 23.9848 9.20124 23.8389C8.76919 22.9164 8.37217 21.953 8.03353 21.0247V20.9838C7.96358 20.7889 7.81921 20.6297 7.63207 20.541C7.44492 20.4524 7.23026 20.4415 7.03514 20.5109C6.86499 20.5711 6.72088 20.6882 6.62724 20.8425C6.53361 20.9968 6.49619 21.1787 6.52134 21.3575C6.71462 22.6375 7.04142 23.8938 7.49638 25.1058C7.63067 25.4795 7.78247 25.8473 7.94595 26.2093C8.31174 27.0335 8.72704 27.8349 9.18956 28.609C9.44646 29.0527 9.71504 29.4964 9.98945 29.9343C10.3865 30.5649 10.801 31.1954 11.2506 31.8143L11.5016 32.1413C10.9587 31.7326 10.4273 31.3005 9.89603 30.851C9.6041 30.6058 9.31217 30.3605 9.02609 30.1095C8.45157 29.5864 7.90952 29.0288 7.40296 28.4396C7.1811 28.1886 6.96507 27.9375 6.74905 27.6806C6.01923 26.834 5.32444 25.9291 4.69387 25.0182C4.63497 24.9337 4.55996 24.8617 4.47315 24.8062C4.38633 24.7508 4.28943 24.713 4.18798 24.6951C4.08654 24.6772 3.98256 24.6795 3.88201 24.7019C3.78147 24.7243 3.68633 24.7663 3.60206 24.8256C3.46603 24.9186 3.36288 25.0523 3.30731 25.2075C3.25174 25.3627 3.2466 25.5314 3.29262 25.6897C3.76596 26.8186 4.35283 27.8965 5.04419 28.9067C5.75379 29.9113 6.55095 30.8511 7.42632 31.7151C7.43594 31.7171 7.44589 31.7171 7.45551 31.7151C8.27875 32.5558 9.13702 33.3849 10.0537 34.1673L10.5616 34.5818C10.8769 34.8329 11.1922 35.0781 11.525 35.3175L11.6826 35.4226C11.3965 35.3058 11.0988 35.1832 10.8244 35.0489C10.6726 34.9866 10.5208 34.9166 10.369 34.8387C9.58659 34.465 8.81006 34.0447 8.03353 33.6068L7.50806 33.309C6.60868 32.7772 5.74824 32.1821 4.93325 31.5282C4.08666 30.9094 3.26342 30.1854 2.49273 29.4906C2.37741 29.3864 2.23385 29.3186 2.0801 29.2957C1.92635 29.2728 1.76927 29.296 1.62863 29.3621C1.53057 29.4082 1.44158 29.4715 1.36589 29.549C1.24942 29.6806 1.17992 29.8472 1.1683 30.0226C1.15668 30.198 1.20358 30.3723 1.30167 30.5182C1.96634 31.4769 2.72737 32.3651 3.57287 33.1689C4.42239 33.9688 5.34283 34.6899 6.32283 35.3233C7.257 35.9656 8.21452 36.5844 9.24211 37.1625C9.74423 37.4485 10.258 37.7463 10.7952 37.9915C11.0287 38.1025 11.2681 38.2134 11.5192 38.3185L11.1922 38.2484C10.7018 38.1375 10.2055 38.009 9.71504 37.8689C8.72832 37.5945 7.7416 37.2851 6.79575 36.9406C5.84759 36.597 4.9231 36.1913 4.02827 35.7262C3.1233 35.2941 2.21248 34.7862 1.35421 34.2899C1.2397 34.227 1.11118 34.1941 0.980545 34.1941C0.849912 34.1941 0.72139 34.227 0.606877 34.2899C0.465403 34.3593 0.347595 34.469 0.26824 34.6052C0.181758 34.738 0.137683 34.894 0.141853 35.0525C0.146024 35.211 0.198243 35.3645 0.291594 35.4926C1.09985 36.2547 1.97971 36.9371 2.91895 37.5303C3.84932 38.1112 4.82567 38.615 5.83823 39.0366C6.83079 39.4687 7.82918 39.8774 8.85093 40.2511C9.36472 40.4379 9.88435 40.6189 10.4098 40.7824C10.6726 40.8641 10.9411 40.9458 11.2155 41.0159L11.4841 41.0918C10.8594 41.0918 10.2172 41.0217 9.59243 40.9692C8.61739 40.8816 7.63651 40.7765 6.67314 40.6422C6.17103 40.578 5.71562 40.4963 5.25437 40.4029C4.79313 40.3094 4.32604 40.1868 3.86479 40.0701C2.93062 39.8599 1.98478 39.5738 1.0798 39.3052H1.04477C0.849144 39.2506 0.639988 39.2736 0.460912 39.3694C0.367591 39.4184 0.284942 39.4854 0.217781 39.5666C0.150621 39.6478 0.100292 39.7415 0.0697287 39.8424C0.020595 40.0078 0.0271157 40.1848 0.0882897 40.3462C0.149464 40.5075 0.26191 40.6444 0.408365 40.7357C1.30771 41.2766 2.25576 41.732 3.24007 42.096C4.22936 42.4454 5.24448 42.7167 6.27612 42.9076C7.27452 43.1236 8.27291 43.3221 9.28298 43.4915C10.1938 43.6433 11.0754 43.7717 12.0271 43.871L10.2755 44.0636C9.34137 44.1571 8.4072 44.233 7.47303 44.2913C7.23948 44.2913 7.00594 44.2913 6.76656 44.3264H6.10096H4.74058C3.8356 44.3264 2.89559 44.2505 1.99645 44.1979H1.9731C1.81575 44.1915 1.65981 44.2299 1.52353 44.3089C1.40845 44.3751 1.3118 44.4691 1.24245 44.5823C1.17309 44.6955 1.13323 44.8243 1.12651 44.9569C1.11756 45.1275 1.16464 45.2962 1.26057 45.4375C1.3565 45.5787 1.49601 45.6847 1.65782 45.7393C2.60917 46.0529 3.58592 46.2834 4.5771 46.4283C5.0687 46.4993 5.56373 46.5441 6.0601 46.5625C6.31115 46.5625 6.56221 46.5625 6.81911 46.5625H7.53725C8.50061 46.5625 9.46398 46.5625 10.4273 46.5625C11.0988 46.5625 11.2389 46.5625 11.9103 46.5275L11.9979 46.8194C10.8944 47.1698 10.1471 47.4033 9.03192 47.7069C8.16782 47.9463 7.35042 48.1098 6.49215 48.2908C5.63388 48.4718 4.77561 48.6352 3.92318 48.8104C3.86689 48.8217 3.81205 48.8393 3.7597 48.8629C3.6 48.9329 3.46801 49.0539 3.38441 49.2069C3.3008 49.3599 3.27029 49.5364 3.29766 49.7086C3.32503 49.8808 3.40872 50.039 3.53564 50.1586C3.66257 50.2782 3.82555 50.3522 3.99908 50.3693C4.92988 50.4423 5.86496 50.4423 6.79575 50.3693C7.72256 50.2807 8.64295 50.1345 9.55156 49.9314C10.4449 49.7679 11.7585 49.4585 12.646 49.2716L12.7161 49.4935C12.3482 49.7037 11.5483 50.1299 11.1805 50.3343C10.8127 50.5386 10.4449 50.7254 10.077 50.9181L8.97938 51.4494C8.24372 51.8289 7.47887 52.1909 6.74321 52.5879C6.57877 52.6782 6.45192 52.8242 6.38544 52.9996C6.31897 53.175 6.31723 53.3684 6.38054 53.5449C6.44386 53.7215 6.56807 53.8697 6.73086 53.9629C6.89365 54.0561 7.08435 54.0882 7.26868 54.0534C8.1243 53.8766 8.96853 53.6485 9.79678 53.3703C10.6259 53.0959 11.4257 52.7106 12.2139 52.3661L13.4576 51.8289L13.6035 52.4828L13.0197 52.8974L12.0154 53.7148C11.4149 54.2607 10.8512 54.8459 10.3281 55.4664C10.2123 55.6069 10.1484 55.783 10.147 55.965C10.1456 56.1471 10.2068 56.3241 10.3204 56.4664C10.434 56.6088 10.593 56.7077 10.7709 56.7467C10.9487 56.7857 11.1346 56.7625 11.2973 56.6808C12.0165 56.3044 12.709 55.8792 13.37 55.408L14.0648 54.9993C14.0648 54.9993 14.4443 57.2938 14.5435 58.2338C14.853 61.1531 14.7654 64.557 15.0807 64.954C15.396 65.351 15.8747 65.2109 16.3476 65.2226C16.3185 65.1117 16.3009 65.0066 16.2776 64.9015V64.8664C16.0112 63.7792 16.1612 62.6317 16.698 61.6494C16.7138 61.6102 16.7236 61.5689 16.7272 61.5268C16.6049 59.1049 16.3476 56.6918 15.9565 54.2986C15.2792 50.562 14.1465 44.5833 13.8312 42.8901C13.8203 42.8444 13.8215 42.7966 13.8349 42.7515C13.8482 42.7064 13.8731 42.6656 13.9071 42.6332C13.9437 42.6001 13.9878 42.5764 14.0357 42.5642C14.0835 42.552 14.1335 42.5516 14.1815 42.5631C15.5806 42.8517 16.9996 43.0332 18.4262 43.1061C20.2162 43.1968 22.0087 42.9836 23.7276 42.4756C22.7361 44.854 22.2319 47.4072 22.2446 49.9839C22.2446 55.3204 24.3173 60.0379 27.4993 62.8638C27.2534 62.8956 27.0097 62.9424 26.7695 63.0039C26.1398 63.2431 25.5354 63.5443 24.9654 63.9031H24.8953C24.8413 63.9415 24.8017 63.9967 24.7826 64.0602C24.7636 64.1236 24.7663 64.1916 24.7902 64.2534C24.8868 64.6704 25.0589 65.0662 25.2982 65.4211C25.3449 65.4853 25.3916 65.5437 25.4675 65.5495C28.3868 65.6955 30.5879 65.9174 32.322 67.0209L32.4621 67.1143C32.8857 67.4575 33.169 67.9441 33.2583 68.482C33.3476 69.0199 33.2367 69.5718 32.9467 70.0336C32.7131 70.2729 32.4738 70.5007 32.2344 70.7225C31.447 71.4181 30.5715 72.007 29.6304 72.4741C28.7279 72.9113 27.7626 73.2048 26.7695 73.344C25.7886 73.5192 24.8077 73.6535 23.5291 73.9279C23.4895 73.9394 23.4521 73.9571 23.4181 73.9804C23.3651 74.0147 23.3237 74.0644 23.2997 74.1229C23.2757 74.1813 23.2702 74.2457 23.2839 74.3074C23.2947 74.3606 23.3212 74.4094 23.3598 74.4475C23.8355 74.9277 24.4112 75.297 25.046 75.5291C25.6808 75.7612 26.359 75.8504 27.0322 75.7904C28.0469 75.7095 29.0373 75.4381 29.9515 74.9905C30.2531 74.8515 30.5456 74.6935 30.8273 74.5176C31.9357 73.8386 32.8902 72.9358 33.6298 71.8669L33.6707 71.8027V71.8377C33.4114 72.7492 33.0178 73.6169 32.5029 74.4125C32.1072 74.9102 31.6675 75.3713 31.1893 75.7904C30.8453 76.0781 30.4691 76.325 30.0683 76.5261C29.934 76.5903 29.7997 76.6545 29.6537 76.7129C28.9859 76.9698 28.296 77.1652 27.5927 77.2967C27.5558 77.3076 27.5204 77.3233 27.4876 77.3434C27.4353 77.3741 27.3942 77.4207 27.37 77.4763C27.3459 77.5319 27.34 77.5937 27.3533 77.6529C27.3687 77.7241 27.4078 77.7879 27.4643 77.8339C28.205 78.3415 29.0971 78.5805 29.9924 78.5112C30.4642 78.48 30.9278 78.3715 31.3644 78.19C31.8038 78.0156 32.2119 77.7711 32.573 77.4661C32.6876 77.3669 32.7967 77.2617 32.9 77.1508C33.1043 77.5536 33.3203 77.9623 33.4838 78.3652C33.6473 78.7681 33.8517 79.3286 34.1144 79.8132C34.1398 79.8561 34.1755 79.8919 34.2184 79.9174C34.2612 79.9429 34.3098 79.9573 34.3596 79.9591C34.4648 79.9476 34.5613 79.8952 34.6282 79.8132C34.8909 79.3286 35.0778 78.844 35.2879 78.3652C35.4608 77.9503 35.6557 77.5449 35.8718 77.1508C35.9827 77.2559 36.0761 77.3668 36.1988 77.4661C36.545 77.7828 36.9391 78.0429 37.3665 78.2367C37.805 78.4189 38.2705 78.5274 38.7444 78.5579C39.6378 78.6272 40.5281 78.3882 41.2666 77.8806C41.2965 77.8595 41.3217 77.8326 41.3407 77.8015C41.3598 77.7704 41.3723 77.7357 41.3776 77.6996C41.3905 77.6411 41.3851 77.58 41.3622 77.5246C41.3392 77.4693 41.2997 77.4223 41.2491 77.3902L41.1382 77.3434C40.435 77.2111 39.7452 77.0157 39.0772 76.7596L38.6626 76.5728C38.2626 76.3703 37.8866 76.1235 37.5416 75.8371C37.0547 75.4178 36.6054 74.9567 36.1988 74.4592C35.6863 73.6623 35.2929 72.7949 35.031 71.8844V71.8494L35.0719 71.9136C35.8115 72.9825 36.766 73.8853 37.8744 74.5643C38.1561 74.7402 38.4486 74.8982 38.7502 75.0372C39.6647 75.484 40.6549 75.7554 41.6695 75.8371C42.3427 75.8971 43.0209 75.8079 43.6557 75.5758C44.2905 75.3437 44.8663 74.9744 45.342 74.4942C45.3806 74.4561 45.407 74.4073 45.4179 74.3541C45.4315 74.2924 45.426 74.228 45.402 74.1696C45.378 74.1111 45.3367 74.0614 45.2836 74.0271C45.2496 74.0038 45.2122 73.9861 45.1726 73.9746C43.894 73.671 42.9131 73.5367 41.9322 73.3907C40.9391 73.2515 39.9738 72.958 39.0713 72.5208C38.1302 72.0538 37.2547 71.4648 36.4673 70.7692C36.228 70.5474 35.9886 70.3197 35.7609 70.0803C35.4702 69.6192 35.3584 69.0677 35.4466 68.5298C35.5348 67.992 35.8169 67.505 36.2396 67.161L36.3798 67.0676C38.1313 65.9641 40.2858 65.7422 43.2342 65.5963C43.3101 65.5963 43.3568 65.532 43.4035 65.4678C43.6428 65.1129 43.8149 64.7171 43.9115 64.3001C43.9354 64.2383 43.9381 64.1704 43.9191 64.1069C43.9 64.0435 43.8604 63.9882 43.8064 63.9498H43.7363C43.1612 63.5927 42.5532 63.2916 41.9206 63.0506C41.8447 63.0506 41.5761 62.9747 41.2258 62.9164C44.3844 60.0905 46.4805 55.3729 46.4805 50.0307C46.4914 47.4254 45.973 44.8451 44.9566 42.4464C46.6606 42.9483 48.4371 43.1595 50.2113 43.0711C51.6379 42.9982 53.0569 42.8166 54.4559 42.5281C54.5039 42.5166 54.554 42.517 54.6018 42.5292C54.6496 42.5414 54.6938 42.5651 54.7304 42.5982C54.764 42.631 54.7891 42.6716 54.8034 42.7164C54.8176 42.7612 54.8206 42.8088 54.8121 42.8551C54.491 44.5482 53.3583 50.5269 52.6869 54.2636C52.3087 56.6573 52.0669 59.0706 51.9629 61.4917C51.9595 61.5326 51.9595 61.5736 51.9629 61.6144C52.4996 62.5966 52.6496 63.7442 52.3833 64.8314V64.8664C52.3833 64.9715 52.3424 65.0766 52.3132 65.1876C52.7861 65.1876 53.3116 65.2518 53.5802 64.919C53.8487 64.5862 53.8079 61.1414 54.1173 58.1988C54.2166 57.2588 54.5961 54.9818 54.5961 54.9642L55.2909 55.3729C55.9518 55.8441 56.6443 56.2694 57.3636 56.6457C57.5035 56.7196 57.6624 56.7496 57.8197 56.7319C57.9769 56.7142 58.1252 56.6496 58.2452 56.5465C58.4043 56.4199 58.5079 56.2364 58.5341 56.0348C58.5602 55.8332 58.5069 55.6293 58.3853 55.4664C57.8637 54.8445 57.2999 54.2592 56.698 53.7148L55.7579 52.9266L55.1741 52.512L55.3142 51.8581L56.5578 52.3953C57.346 52.7397 58.1518 53.1251 58.975 53.3995C59.8035 53.6769 60.6476 53.905 61.5031 54.0826C61.6874 54.1174 61.8781 54.0853 62.0409 53.9921C62.2037 53.8989 62.3279 53.7507 62.3912 53.5741C62.4545 53.3975 62.4528 53.2042 62.3863 53.0288C62.3199 52.8534 62.193 52.7074 62.0286 52.6171C61.2929 52.2201 60.5281 51.8581 59.7924 51.4786L58.6947 50.9473C58.3269 50.7663 57.9591 50.5795 57.5913 50.3635C57.2234 50.1474 56.4235 49.7329 56.0557 49.5227L56.1316 49.3008C57.0132 49.4877 58.3269 49.7971 59.2202 49.9606C60.1288 50.1637 61.0492 50.3099 61.976 50.3985C62.9068 50.4715 63.8419 50.4715 64.7727 50.3985C64.9494 50.3865 65.1169 50.315 65.2476 50.1955C65.3784 50.076 65.4648 49.9156 65.4926 49.7407C65.5204 49.5657 65.488 49.3865 65.4007 49.2324C65.3134 49.0782 65.1764 48.9583 65.0121 48.8921C64.9597 48.8685 64.9049 48.8509 64.8486 48.8396C64.002 48.6644 63.097 48.5126 62.2796 48.32C61.4622 48.1273 60.604 47.9813 59.7398 47.7361C58.6305 47.4208 57.8773 47.1989 56.7739 46.8486L56.8614 46.5567C57.5329 46.5567 57.6788 46.5567 58.3444 46.5917C59.3078 46.5917 60.2712 46.5917 61.2637 46.5917H61.9877C62.2388 46.5917 62.4898 46.5917 62.7409 46.5917C63.2372 46.5733 63.7323 46.5285 64.2239 46.4575C65.2152 46.3133 66.192 46.0827 67.1431 45.7685C67.3049 45.7139 67.4445 45.6079 67.5404 45.4667C67.6363 45.3254 67.6834 45.1567 67.6745 44.9861C67.6668 44.8545 67.6265 44.7269 67.5572 44.6148C67.4879 44.5027 67.3917 44.4096 67.2774 44.3439C67.143 44.2657 66.9891 44.2273 66.8337 44.233H66.7987C65.8995 44.2855 64.9654 44.3497 64.0545 44.3614H62.7H62.0286C61.7892 44.3614 61.5556 44.3614 61.3221 44.3264C60.3879 44.268 59.4538 44.1921 58.5254 44.0987C57.9416 44.0403 57.3577 43.9761 56.7739 43.906C57.7255 43.8067 58.6072 43.6783 59.518 43.5265C60.5281 43.3572 61.5264 43.1587 62.5248 42.9426C63.5565 42.7517 64.5716 42.4804 65.5609 42.1311C66.5188 41.7475 67.4394 41.2765 68.3109 40.724C68.4531 40.6294 68.5608 40.4911 68.6177 40.33C68.6745 40.1689 68.6775 39.9936 68.6261 39.8307ZM34.3596 63.8739H34.3187C30.8156 63.8739 27.7095 61.4976 25.8353 57.9127C26.7111 56.4356 28.5152 53.2419 28.5152 53.2419C28.6845 53.8958 29.6829 58.2572 29.6829 58.2572C29.6829 58.2572 28.4101 58.841 29.0524 59.203C29.6946 59.565 31.0608 59.3023 31.0608 59.3023C31.2918 59.5094 31.5335 59.7043 31.7848 59.8861C32.2333 60.215 32.7407 60.4548 33.2795 60.5926L33.6298 60.7269C33.5594 61.0301 33.5818 61.3474 33.694 61.6377C33.727 61.7136 33.7832 61.7772 33.8545 61.8191C33.9259 61.8611 34.0087 61.8793 34.091 61.8713C34.1635 61.8697 34.2349 61.8538 34.3012 61.8245C34.5033 61.7427 34.6847 61.617 34.8325 61.4567C35.0642 61.2065 35.2715 60.9348 35.4514 60.6452C35.4514 60.6452 35.4514 60.616 35.4514 60.5926C36.0842 60.4623 36.6507 60.1129 37.0512 59.6059C35.7725 59.1096 34.7158 57.9477 34.2779 56.0269C34.1214 55.2778 34.0393 54.515 34.0327 53.7498C34.0273 52.8669 34.1036 51.9855 34.2604 51.1166V51.0232C34.8442 47.8762 36.8176 45.4707 37.384 45.2664C37.2088 44.8635 37.2847 43.8359 35.9127 43.2696C35.6149 43.147 34.6982 43.0944 34.6107 42.6857C34.8482 42.506 35.0457 42.2786 35.1905 42.0183C35.3352 41.7579 35.4241 41.4702 35.4514 41.1735C35.5257 40.7966 35.4827 40.4059 35.3282 40.0541C35.1737 39.7023 34.9151 39.4063 34.5873 39.206C34.7264 38.9312 34.8927 38.6711 35.0836 38.4294L34.4472 37.6821L34.3071 37.758L33.5597 38.155C33.6757 38.4657 33.7541 38.7891 33.7933 39.1184C33.4757 39.2223 33.1973 39.4204 32.9949 39.6863C32.7926 39.9522 32.676 40.2734 32.6606 40.6072C32.6531 40.8884 32.7043 41.1681 32.8108 41.4285C32.9174 41.6888 33.077 41.9241 33.2795 42.1194C33.5247 42.3705 33.5772 42.5806 33.4196 42.7033C33.081 43.0419 32.3862 42.9602 32.0242 43.4798C31.8263 43.8382 31.6603 44.2133 31.5279 44.6008C31.3586 44.9453 30.3602 47.3274 29.8814 48.1623C29.7588 48.3783 29.2625 49.1549 29.2625 49.1549C29.2625 49.1549 29.0465 49.3067 28.8071 49.4993C28.6072 49.6494 28.4251 49.8218 28.2642 50.0131C28.1157 50.2727 28.0375 50.5665 28.0375 50.8656C28.0375 51.1646 28.1157 51.4584 28.2642 51.718L25.3449 56.9727C25.2339 56.7333 25.1814 56.599 25.1814 56.599C24.3419 54.4833 23.9196 52.2251 23.9378 49.9489C23.9378 42.5515 28.27 36.4852 33.7174 36.0531H34.9785C35.5734 36.1056 36.1608 36.223 36.7301 36.4034C37.0283 36.497 37.3207 36.6082 37.6059 36.7362C41.7688 38.5754 44.7639 43.7892 44.7639 49.9489C44.7639 57.6266 40.0931 63.8739 34.3596 63.8739ZM33.2795 48.7929C33.2795 48.7929 31.2535 49.5577 30.2901 49.9606L32.2636 46.5392C32.2636 46.5392 32.357 47.018 33.1569 47.3566C33.1452 47.4675 33.2795 48.7929 33.2795 48.7929Z" fill="white"/>
<path d="M17.6851 51.6074H17.0137V51.0645H18.3273V53.6685H17.6851V51.6074Z" fill="white"/>
<path d="M19.2378 54.3632L20.639 51.6366H19.0977V51.0645H21.2813V51.514L19.7924 54.5442L19.2378 54.3632Z" fill="white"/>
<path d="M47.292 53.2006C47.6248 52.9496 48.6115 52.3599 48.6115 52.0037C48.6115 51.6476 48.413 51.6417 48.1269 51.6417C47.9262 51.6538 47.7289 51.6991 47.5431 51.776L47.3854 51.3323C47.6336 51.2065 47.9071 51.1386 48.1853 51.1338C49.026 51.1338 49.2362 51.5658 49.2362 51.9862C49.2362 52.5409 48.4889 52.9963 48.0685 53.2123H49.3355V53.7144H47.292V53.2006Z" fill="white"/>
<path d="M51.0292 53.7147H49.6279V53.2126L50.7548 51.21H51.6422V53.2126H52.1268V53.7147H51.6422V54.5905H51.0584L51.0292 53.7147ZM51.0292 53.2126V51.8464L50.2585 53.2067L51.0292 53.2126Z" fill="white"/>
</g>
<defs>
<clipPath id="clip0_2187_8852">
<rect width="295.811" height="80" fill="white"/>
</clipPath>
</defs>
</svg>
