<svg width="297" height="80" viewBox="0 0 297 80" fill="none" xmlns="http://www.w3.org/2000/svg">
<g clip-path="url(#clip0_2030_9457)">
<path d="M99.3235 10.1067C98.6328 10.0761 97.944 10.2014 97.3082 10.4733C96.6725 10.7452 96.1061 11.1567 95.6511 11.6773C94.7002 12.8785 94.2225 14.3865 94.3082 15.9161C94.3082 17.7611 94.7403 19.1915 95.6044 20.1958C96.0678 20.7101 96.6414 21.1132 97.2823 21.375C97.9233 21.6368 98.615 21.7506 99.306 21.7079C100.446 21.6846 101.577 21.5059 102.669 21.1766V22.6129C101.507 23.0094 100.283 23.1953 99.055 23.1617C96.9764 23.1617 95.3728 22.5312 94.244 21.2701C93.1152 20.0089 92.5508 18.2184 92.5508 15.8986C92.5222 14.5795 92.8021 13.2719 93.3682 12.0802C93.8732 11.0207 94.6874 10.1392 95.7036 9.55206C96.8091 8.93754 98.0592 8.63105 99.3235 8.6646C100.663 8.63336 101.991 8.91106 103.206 9.47615L102.511 10.8832C101.519 10.3916 100.431 10.1264 99.3235 10.1067Z" fill="#9E3223"/>
<path d="M112.011 22.9455L111.69 21.445H111.614C111.202 22.011 110.661 22.4712 110.037 22.7879C109.415 23.0396 108.747 23.1589 108.075 23.1382C107.181 23.1929 106.299 22.9025 105.612 22.3266C105.304 22.0317 105.064 21.6729 104.91 21.2755C104.756 20.8781 104.69 20.4516 104.718 20.0262C104.718 17.8893 106.425 16.7703 109.839 16.6691L111.631 16.6107V15.9509C111.685 15.2935 111.496 14.639 111.1 14.1118C110.872 13.8995 110.602 13.7378 110.307 13.6372C110.012 13.5366 109.699 13.4994 109.389 13.5279C108.342 13.5698 107.319 13.8472 106.394 14.3395L105.903 13.1134C106.443 12.8198 107.018 12.5962 107.614 12.4478C108.224 12.286 108.852 12.2036 109.483 12.2026C110.489 12.1211 111.49 12.4212 112.285 13.0433C112.892 13.6038 113.196 14.501 113.196 15.7349V22.9455H112.011ZM108.391 21.8187C109.247 21.863 110.087 21.5671 110.726 20.9954C111.025 20.6928 111.258 20.3305 111.407 19.9321C111.557 19.5337 111.622 19.1082 111.596 18.6834V17.7492L109.996 17.8134C109.044 17.7802 108.098 17.9807 107.241 18.3973C106.964 18.5668 106.739 18.8087 106.59 19.0968C106.44 19.3849 106.373 19.7083 106.394 20.0321C106.377 20.2773 106.416 20.5233 106.506 20.7516C106.597 20.98 106.739 21.1851 106.919 21.3516C107.336 21.6817 107.86 21.8479 108.391 21.8187Z" fill="#9E3223"/>
<path d="M118.095 12.3721V16.8035H124.021V12.3721H125.627V22.9457H124.021V18.1814H118.095V22.9457H116.495V12.3721H118.095Z" fill="#9E3223"/>
<path d="M135.184 12.3721H136.936L132.37 17.475L137.309 22.9457H135.47L130.642 17.5917V22.9457H129.048V12.3721H130.648V17.5158L135.184 12.3721Z" fill="#9E3223"/>
<path d="M146.406 13.7441H142.973V22.9457H141.368V13.7441H137.976V12.3721H146.406V13.7441Z" fill="#9E3223"/>
<path d="M147.608 18.3854V16.9316H152.349V18.3971L147.608 18.3854Z" fill="#9E3223"/>
<path d="M165.627 22.9458H163.986V10.2995H156.74V22.9458H155.1V8.83984H165.609L165.627 22.9458Z" fill="#9E3223"/>
<path d="M173.73 23.1382C173.048 23.1745 172.365 23.0664 171.727 22.8209C171.089 22.5754 170.511 22.1981 170.028 21.7136C169.074 20.6213 168.587 19.1973 168.674 17.7492C168.591 16.2807 169.036 14.831 169.929 13.6622C170.339 13.1685 170.857 12.7758 171.444 12.5146C172.03 12.2534 172.668 12.1306 173.31 12.1559C173.898 12.1278 174.486 12.2306 175.03 12.4567C175.574 12.6828 176.061 13.0268 176.457 13.4637C177.265 14.4266 177.682 15.6583 177.624 16.9143V17.9244H170.332C170.286 18.95 170.621 19.9564 171.272 20.7503C171.597 21.083 171.99 21.3418 172.425 21.5091C172.859 21.6763 173.324 21.7481 173.789 21.7195C174.949 21.719 176.098 21.4805 177.163 21.0188V22.4493C176.647 22.6779 176.109 22.8539 175.558 22.9747C174.955 23.0904 174.343 23.1452 173.73 23.1382ZM173.292 13.5221C172.914 13.5053 172.536 13.5707 172.185 13.7138C171.835 13.8569 171.519 14.0744 171.26 14.3512C170.72 14.9976 170.408 15.8041 170.373 16.6457H175.896C175.958 15.8121 175.72 14.9837 175.225 14.3103C174.984 14.0405 174.685 13.8293 174.35 13.6927C174.015 13.5561 173.653 13.4978 173.292 13.5221Z" fill="#9E3223"/>
<path d="M187.475 13.7441H184.042V22.9457H182.442V13.7441H179.044V12.3721H187.475V13.7441Z" fill="#9E3223"/>
<path d="M194.037 23.1379C193.357 23.1717 192.678 23.0624 192.044 22.817C191.409 22.5716 190.833 22.1956 190.353 21.7133C189.401 20.6194 188.915 19.1966 188.998 17.7489C188.914 16.2794 189.362 14.8287 190.259 13.6619C190.669 13.1682 191.188 12.7755 191.774 12.5143C192.36 12.2531 192.999 12.1303 193.64 12.1556C194.228 12.1326 194.815 12.24 195.357 12.4701C195.899 12.7003 196.383 13.0475 196.775 13.4868C197.582 14.4482 197.999 15.6775 197.943 16.9315V17.9416H190.645C190.599 18.9672 190.934 19.9737 191.585 20.7675C191.909 21.1004 192.301 21.3594 192.734 21.5267C193.167 21.6939 193.632 21.7656 194.095 21.7367C195.258 21.7318 196.406 21.4873 197.47 21.0185V22.449C196.954 22.6784 196.416 22.8545 195.864 22.9744C195.262 23.0904 194.65 23.1452 194.037 23.1379ZM193.605 13.5218C193.226 13.5038 192.848 13.5687 192.497 13.7119C192.146 13.8551 191.831 14.0731 191.573 14.3509C191.029 14.9952 190.714 15.8026 190.68 16.6454H196.191C196.252 15.8111 196.011 14.9827 195.514 14.31C195.276 14.0431 194.98 13.8335 194.65 13.697C194.319 13.5605 193.962 13.5006 193.605 13.5218Z" fill="#9E3223"/>
<path d="M205.574 23.1378C204.928 23.1482 204.286 23.0187 203.694 22.7583C203.119 22.5048 202.623 22.1015 202.258 21.5906H202.141C202.216 22.1715 202.255 22.7564 202.258 23.3421V27.6919H200.658V12.3715H201.96L202.182 13.8194H202.258C202.62 13.2836 203.115 12.851 203.694 12.5641C204.285 12.2983 204.927 12.1666 205.574 12.1788C206.19 12.1448 206.806 12.2572 207.37 12.5069C207.934 12.7565 208.431 13.1363 208.821 13.6151C209.658 14.7878 210.07 16.211 209.988 17.6495C209.988 19.3894 209.599 20.7381 208.821 21.6956C208.432 22.1751 207.935 22.5558 207.371 22.8064C206.806 23.0571 206.191 23.1706 205.574 23.1378ZM205.347 13.5392C204.914 13.5005 204.479 13.5615 204.074 13.7174C203.67 13.8733 203.306 14.1199 203.011 14.4383C202.459 15.2835 202.199 16.2863 202.27 17.2934V17.6495C202.27 19.1364 202.517 20.199 203.011 20.8374C203.304 21.1752 203.672 21.4387 204.086 21.6061C204.5 21.7736 204.948 21.8403 205.393 21.8007C205.816 21.8139 206.235 21.7189 206.611 21.5248C206.987 21.3306 207.308 21.0438 207.542 20.6914C208.108 19.7753 208.379 18.7073 208.318 17.632C208.387 16.5633 208.115 15.5004 207.542 14.596C207.293 14.2503 206.962 13.9725 206.579 13.7879C206.195 13.6033 205.772 13.5177 205.347 13.5392Z" fill="#9E3223"/>
<path d="M212.213 16.6112C212.213 14.2758 212.557 12.4892 213.235 11.193C213.553 10.5652 214.011 10.0191 214.574 9.59684C215.137 9.17463 215.789 8.88771 216.481 8.75833C218.32 8.36714 219.937 8.04602 221.339 7.80664L221.642 9.21373C219.406 9.5874 217.812 9.87933 216.855 10.1012C216.418 10.1877 216.005 10.3669 215.643 10.6268C215.281 10.8867 214.98 11.2211 214.758 11.6075C214.239 12.6038 213.975 13.713 213.988 14.8363H214.105C214.509 14.2946 215.038 13.858 215.646 13.5635C216.261 13.2587 216.939 13.1008 217.625 13.1022C218.194 13.0713 218.763 13.1686 219.29 13.3869C219.816 13.6051 220.287 13.9388 220.667 14.3633C221.443 15.3604 221.831 16.6051 221.759 17.8665C221.84 19.2722 221.388 20.6568 220.492 21.7433C220.043 22.214 219.497 22.5819 218.893 22.8218C218.288 23.0616 217.638 23.1678 216.989 23.1329C216.309 23.1627 215.633 23.0224 215.021 22.7247C214.409 22.427 213.882 21.9813 213.486 21.428C212.633 20.2953 212.213 18.6839 212.213 16.6112ZM217.117 21.8017C219.079 21.8017 220.037 20.5464 220.037 18.0475C220.037 15.6576 219.147 14.4645 217.368 14.4684C216.881 14.4666 216.399 14.5702 215.955 14.772C215.501 14.9727 215.081 15.2447 214.712 15.5778C214.365 15.8717 214.069 16.2208 213.836 16.6112C213.758 17.9456 214.034 19.2769 214.636 20.4705C214.885 20.9008 215.249 21.2532 215.688 21.4883C216.126 21.7234 216.621 21.8319 217.117 21.8017Z" fill="#9E3223"/>
<path d="M222.862 12.3721H224.585L226.92 18.4033C227.303 19.3752 227.619 20.372 227.866 21.3868H227.948C228.029 21.054 228.205 20.4935 228.473 19.6995C228.742 18.9054 229.612 16.4649 231.089 12.3721H232.805L228.263 24.4112C227.96 25.3754 227.418 26.2472 226.687 26.9451C226.061 27.4533 225.273 27.7187 224.468 27.6925C223.983 27.6936 223.499 27.6387 223.026 27.529V26.2737C223.409 26.3561 223.801 26.3953 224.193 26.3905C225.291 26.3905 226.079 25.8066 226.529 24.5396L227.113 23.0333L222.862 12.3721Z" fill="#9E3223"/>
<path d="M239.397 23.1378C238.748 23.1481 238.105 23.0186 237.511 22.7583C236.939 22.502 236.446 22.0992 236.08 21.5906H235.963C236.038 22.1715 236.077 22.7564 236.08 23.3421V27.6919H234.475V12.3715H235.782L235.998 13.8194H236.08C236.441 13.2823 236.936 12.8494 237.516 12.5641C238.107 12.2983 238.749 12.1666 239.397 12.1788C240.013 12.1448 240.628 12.2572 241.192 12.5069C241.756 12.7565 242.254 13.1363 242.643 13.6151C243.48 14.7878 243.892 16.211 243.81 17.6495C243.81 19.3894 243.421 20.7381 242.643 21.6956C242.254 22.1751 241.757 22.5558 241.193 22.8064C240.629 23.0571 240.013 23.1706 239.397 23.1378ZM239.169 13.5392C238.737 13.4997 238.301 13.5602 237.896 13.7161C237.491 13.8721 237.127 14.1192 236.833 14.4383C236.347 15.0338 236.1 15.9855 236.092 17.2934V17.6495C236.092 19.1364 236.339 20.199 236.833 20.8374C237.126 21.1752 237.494 21.4387 237.908 21.6061C238.323 21.7736 238.771 21.8403 239.216 21.8007C239.638 21.8133 240.057 21.7181 240.433 21.524C240.809 21.3299 241.13 21.0434 241.364 20.6914C241.927 19.774 242.198 18.707 242.141 17.632C242.207 16.5636 241.935 15.5015 241.364 14.596C241.117 14.2545 240.79 13.9793 240.411 13.795C240.032 13.6106 239.613 13.5227 239.192 13.5392H239.169Z" fill="#9E3223"/>
<path d="M252.977 13.7441H248.207V22.9457H246.607V12.3721H252.977V13.7441Z" fill="#9E3223"/>
<path d="M259.294 23.1384C258.635 23.1772 257.976 23.0708 257.362 22.8267C256.749 22.5825 256.197 22.2066 255.745 21.7255C254.904 20.7855 254.489 19.4543 254.489 17.7261C254.489 15.9978 254.915 14.5907 255.762 13.6391C256.226 13.1449 256.793 12.759 257.422 12.5087C258.052 12.2585 258.729 12.15 259.405 12.1911C259.918 12.1906 260.429 12.2454 260.929 12.3546C261.342 12.4336 261.744 12.563 262.126 12.7399L261.636 14.1003C261.256 13.9536 260.866 13.8365 260.468 13.75C260.104 13.6634 259.732 13.6164 259.359 13.6099C257.21 13.6099 256.136 14.9722 256.136 17.6969C256.064 18.7548 256.337 19.8075 256.912 20.6979C257.187 21.0487 257.544 21.3272 257.951 21.5093C258.358 21.6914 258.803 21.7716 259.248 21.743C260.18 21.727 261.101 21.5287 261.957 21.1591V22.5779C261.127 22.9743 260.214 23.1665 259.294 23.1384Z" fill="#9E3223"/>
<path d="M270.645 12.3721H272.397L267.831 17.475L272.776 22.9457H270.925L266.103 17.5917V22.9457H264.503V12.3721H266.109V17.5158L270.645 12.3721Z" fill="#9E3223"/>
<path d="M276.238 12.3721V19.0806L276.168 20.8321L276.139 21.416L281.86 12.4013H283.857V22.9457H282.362V16.4824L282.392 15.2096L282.438 13.9543L276.728 22.9457H274.731V12.3721H276.238Z" fill="#9E3223"/>
<path d="M288.762 12.3721V19.0807L288.692 20.8322L288.663 21.4161L294.385 12.4013H296.382V22.9458H294.864V16.4825V15.2097L294.91 13.9544L289.2 22.9458H287.273V12.3721H288.762ZM291.781 10.9767C290.859 11.0539 289.938 10.8083 289.177 10.2819C288.876 9.98714 288.639 9.63315 288.481 9.24227C288.323 8.85139 288.248 8.43208 288.26 8.01074H289.766C289.757 8.52767 289.945 9.02878 290.292 9.412C290.737 9.72089 291.277 9.86161 291.816 9.80902C292.342 9.85035 292.865 9.69885 293.287 9.3828C293.643 9.01217 293.851 8.52408 293.871 8.01074H295.383C295.382 8.43119 295.295 8.84697 295.127 9.23254C294.96 9.6181 294.715 9.96529 294.408 10.2528C293.644 10.7938 292.714 11.0499 291.781 10.9767Z" fill="#9E3223"/>
<path d="M99.4119 37.4541H94.6476V46.6557H93.042V36.082H99.4119V37.4541Z" fill="#9E3223"/>
<path d="M110.633 41.3605C110.722 42.8229 110.257 44.265 109.331 45.4007C108.872 45.8894 108.312 46.2722 107.69 46.5222C107.068 46.7723 106.399 46.8837 105.729 46.8487C104.845 46.8653 103.973 46.6348 103.213 46.1831C102.469 45.7301 101.877 45.0653 101.514 44.2739C101.102 43.3572 100.902 42.3593 100.93 41.3546C100.841 39.8977 101.301 38.4604 102.22 37.326C102.677 36.8377 103.235 36.4555 103.855 36.2063C104.476 35.9571 105.143 35.8471 105.811 35.8839C106.467 35.8576 107.122 35.9764 107.727 36.2317C108.333 36.487 108.874 36.8726 109.314 37.361C110.236 38.4836 110.706 39.9096 110.633 41.3605ZM102.576 41.3605C102.503 42.451 102.788 43.5356 103.388 44.4491C103.666 44.811 104.029 45.0996 104.444 45.2898C104.859 45.4801 105.314 45.5663 105.77 45.5409C106.223 45.5683 106.677 45.4867 107.092 45.3028C107.508 45.119 107.873 44.8382 108.158 44.4841C108.761 43.5696 109.048 42.4827 108.975 41.3897C109.048 40.3058 108.76 39.2283 108.158 38.3244C107.868 37.9713 107.498 37.6923 107.078 37.5106C106.659 37.3289 106.203 37.2496 105.747 37.2793C105.297 37.2437 104.846 37.3163 104.43 37.491C104.015 37.6657 103.647 37.9375 103.359 38.2835C102.77 39.1967 102.495 40.277 102.576 41.3605Z" fill="#9E3223"/>
<path d="M117.662 46.8482C117.002 46.888 116.342 46.782 115.727 46.5378C115.113 46.2936 114.559 45.9172 114.107 45.4353C113.212 44.3081 112.765 42.8901 112.851 41.4534C112.851 39.6824 113.278 38.3201 114.13 37.3664C114.593 36.8727 115.159 36.4871 115.787 36.2368C116.416 35.9865 117.092 35.8779 117.767 35.9185C118.282 35.9182 118.795 35.973 119.297 36.0819C119.701 36.1627 120.093 36.2921 120.465 36.4673L119.974 37.8277C119.595 37.6793 119.205 37.5622 118.807 37.4774C118.443 37.3907 118.071 37.3438 117.697 37.3372C115.549 37.3372 114.475 38.6996 114.475 41.4242C114.407 42.4797 114.683 43.5287 115.263 44.4136C115.537 44.7655 115.893 45.0449 116.3 45.2271C116.707 45.4093 117.153 45.4888 117.598 45.4587C118.531 45.4431 119.451 45.2448 120.307 44.8748V46.2994C119.482 46.6891 118.575 46.8772 117.662 46.8482Z" fill="#9E3223"/>
<path d="M121.166 36.082H122.883L125.218 42.1133C125.589 43.086 125.893 44.0828 126.129 45.0968H126.205C126.286 44.764 126.462 44.2035 126.73 43.4094C126.999 42.6154 127.869 40.1749 129.352 36.082H131.068L126.526 48.1211C126.218 49.0833 125.677 49.954 124.949 50.6551C124.323 51.1623 123.536 51.4276 122.731 51.4024C122.243 51.4035 121.758 51.3487 121.283 51.2389V49.9545C121.667 50.0361 122.058 50.0753 122.45 50.0712C123.548 50.0712 124.331 49.4582 124.786 48.2204L125.37 46.7141L121.166 36.082Z" fill="#9E3223"/>
<path d="M141.986 50.3164H140.433V46.6557H133.041V50.3164H131.5V45.2778H132.329C133.231 44.0274 133.916 42.6338 134.355 41.1557C134.854 39.5105 135.112 37.8014 135.12 36.082H140.474V45.2778H141.986V50.3164ZM138.927 45.2778V37.3665H136.556C136.463 38.8392 136.186 40.2945 135.733 41.6987C135.351 42.9857 134.759 44.2008 133.981 45.2953L138.927 45.2778Z" fill="#9E3223"/>
<path d="M150.604 46.6555L150.283 45.1491H150.207C149.795 45.717 149.255 46.1792 148.631 46.4978C148.008 46.7496 147.34 46.8689 146.669 46.8482C145.783 46.8933 144.913 46.6059 144.228 46.0424C143.919 45.7414 143.679 45.3764 143.526 44.9729C143.373 44.5695 143.31 44.1374 143.341 43.707C143.341 41.5701 145.048 40.451 148.461 40.3498L150.254 40.2915V39.6609C150.309 39.0024 150.118 38.3469 149.716 37.8217C149.489 37.6086 149.219 37.4462 148.924 37.3456C148.629 37.2449 148.316 37.2082 148.006 37.2379C146.961 37.2798 145.939 37.5572 145.016 38.0494L144.526 36.8233C145.628 36.2359 146.856 35.9234 148.105 35.9125C149.112 35.8311 150.112 36.1312 150.908 36.7533C151.515 37.3099 151.818 38.2051 151.818 39.439V46.6555H150.604ZM146.984 45.5403C147.841 45.5846 148.68 45.2887 149.319 44.7171C149.613 44.4149 149.841 44.0548 149.988 43.6597C150.134 43.2646 150.197 42.8432 150.172 42.4225V41.4533L148.566 41.5234C147.616 41.4911 146.672 41.6916 145.816 42.1072C145.54 42.2768 145.315 42.5186 145.165 42.8068C145.016 43.0949 144.949 43.4183 144.97 43.742C144.953 43.9873 144.991 44.2332 145.082 44.4616C145.173 44.69 145.314 44.895 145.495 45.0616C145.915 45.4 146.446 45.5706 146.984 45.5403Z" fill="#9E3223"/>
<path d="M159.992 46.8486C159.344 46.8589 158.701 46.7294 158.106 46.469C157.534 46.2147 157.04 45.8115 156.676 45.3013H156.559C156.634 45.8823 156.673 46.4672 156.676 47.0529V51.3793H155.088V36.0822H156.39L156.612 37.5302H156.693C157.054 36.9931 157.549 36.5602 158.13 36.2749C158.72 36.0085 159.362 35.8768 160.01 35.8896C160.626 35.856 161.241 35.9687 161.805 36.2183C162.369 36.4679 162.867 36.8474 163.256 37.3259C164.094 38.4981 164.506 39.9217 164.424 41.3603C164.509 42.8029 164.097 44.2312 163.256 45.4064C162.865 45.8884 162.366 46.2705 161.798 46.5213C161.231 46.772 160.612 46.8842 159.992 46.8486ZM159.759 37.25C159.327 37.21 158.891 37.2703 158.486 37.4263C158.081 37.5822 157.717 37.8296 157.423 38.1491C156.866 38.992 156.605 39.9965 156.682 41.0042V41.3603C156.682 42.8433 156.927 43.9118 157.423 44.5482C157.714 44.8929 158.083 45.163 158.499 45.3357C158.916 45.5084 159.368 45.5787 159.817 45.5407C160.24 45.5533 160.659 45.4581 161.035 45.264C161.411 45.0699 161.731 44.7834 161.966 44.4314C162.529 43.5139 162.8 42.4469 162.742 41.372C162.808 40.3036 162.537 39.2415 161.966 38.3359C161.72 37.9866 161.392 37.7041 161.009 37.5145C160.627 37.3248 160.203 37.2338 159.776 37.25H159.759Z" fill="#9E3223"/>
<path d="M171.424 46.8484C170.764 46.8889 170.103 46.7833 169.489 46.539C168.874 46.2948 168.321 45.918 167.869 45.4354C167.028 44.4954 166.607 43.1584 166.607 41.436C166.607 39.7136 167.034 38.3007 167.886 37.349C168.35 36.8549 168.917 36.469 169.546 36.2187C170.176 35.9684 170.853 35.86 171.529 35.9011C172.042 35.9005 172.553 35.9554 173.053 36.0645C173.466 36.1446 173.868 36.274 174.25 36.4499L173.76 37.8103C173.38 37.6631 172.99 37.5459 172.592 37.46C172.228 37.373 171.856 37.326 171.483 37.3198C169.334 37.3198 168.26 38.6822 168.26 41.4068C168.192 42.4623 168.469 43.5113 169.048 44.3962C169.323 44.7474 169.679 45.0261 170.086 45.2083C170.493 45.3904 170.938 45.4704 171.383 45.4413C172.316 45.4263 173.237 45.228 174.092 44.8574V46.2995C173.26 46.694 172.345 46.8822 171.424 46.8484Z" fill="#9E3223"/>
<path d="M183.732 37.4541H180.299V46.6557H178.675V37.4541H175.277V36.082H183.708L183.732 37.4541Z" fill="#9E3223"/>
<path d="M194.405 38.7386C194.426 39.0261 194.385 39.3148 194.284 39.5849C194.184 39.855 194.026 40.1001 193.821 40.3033C193.346 40.6958 192.769 40.9449 192.157 41.0215V41.109C192.883 41.1569 193.574 41.4351 194.131 41.9031C194.345 42.1242 194.511 42.3872 194.618 42.6756C194.726 42.9639 194.772 43.2715 194.755 43.5787C194.777 44.0186 194.689 44.4569 194.5 44.8544C194.31 45.2519 194.025 45.596 193.669 45.8558C192.724 46.4528 191.614 46.733 190.499 46.6557H185.828V36.082H190.47C193.093 36.082 194.405 36.9675 194.405 38.7386ZM192.84 38.8904C192.856 38.671 192.81 38.4516 192.707 38.2574C192.603 38.0632 192.447 37.9021 192.256 37.7927C191.689 37.5441 191.071 37.4341 190.452 37.4716H187.434V40.4551H190.143C190.861 40.5092 191.582 40.3827 192.239 40.0873C192.439 39.9615 192.6 39.7835 192.706 39.5725C192.812 39.3616 192.859 39.1257 192.84 38.8904ZM193.138 43.4737C193.155 43.226 193.103 42.9785 192.989 42.7581C192.875 42.5378 192.702 42.3531 192.49 42.2242C191.814 41.9137 191.071 41.7791 190.33 41.833H187.41V45.3362H190.33C192.202 45.3206 193.138 44.6998 193.138 43.4737Z" fill="#9E3223"/>
<path d="M201.534 46.8488C200.852 46.8851 200.169 46.777 199.531 46.5315C198.893 46.286 198.314 45.9087 197.832 45.4242C196.88 44.3285 196.393 42.9035 196.478 41.4539C196.393 39.9843 196.841 38.5335 197.739 37.367C198.149 36.8732 198.667 36.4805 199.253 36.2193C199.84 35.9581 200.478 35.8353 201.12 35.8606C201.708 35.8338 202.295 35.9371 202.839 36.1631C203.383 36.3892 203.87 36.7324 204.267 37.1684C205.075 38.1313 205.492 39.3631 205.434 40.619V41.6291H198.136C198.097 42.6556 198.431 43.6615 199.076 44.4608C199.403 44.7913 199.796 45.0482 200.23 45.2143C200.664 45.3804 201.129 45.452 201.592 45.4242C202.747 45.4261 203.889 45.1917 204.95 44.7352V46.1657C204.434 46.3951 203.896 46.5712 203.344 46.6911C202.747 46.804 202.141 46.8568 201.534 46.8488ZM201.102 37.2327C200.723 37.2147 200.345 37.2795 199.995 37.4227C199.644 37.5659 199.328 37.784 199.07 38.0617C198.526 38.7061 198.211 39.5134 198.177 40.3563H203.706C203.766 39.5219 203.526 38.6935 203.029 38.0209C202.789 37.7515 202.49 37.5405 202.157 37.404C201.823 37.2674 201.462 37.2088 201.102 37.2327Z" fill="#9E3223"/>
<path d="M209.754 36.082V40.5135H215.674V36.082H217.28V46.6557H215.674V41.8914H209.754V46.6557H208.154V36.082H209.754Z" fill="#9E3223"/>
<path d="M222.278 36.082V40.5135H228.199V36.082H229.804V46.6557H228.199V41.8914H222.278V46.6557H220.673V36.082H222.278Z" fill="#9E3223"/>
<path d="M234.802 40.4551H237.686C238.735 40.3766 239.781 40.6387 240.67 41.2025C240.999 41.4689 241.258 41.8108 241.427 42.199C241.596 42.5873 241.668 43.0105 241.639 43.4328C241.67 43.8873 241.593 44.3428 241.415 44.7619C241.236 45.1811 240.961 45.5519 240.611 45.8441C239.723 46.446 238.657 46.7318 237.587 46.6557H233.196V36.082H234.802V40.4551ZM234.802 41.833V45.3362H237.511C239.21 45.3362 240.057 44.7523 240.057 43.5846C240.076 43.3369 240.033 43.0882 239.931 42.8616C239.829 42.6351 239.671 42.4379 239.473 42.2884C238.855 41.9676 238.158 41.8279 237.464 41.8856L234.802 41.833ZM245.014 46.6557H243.414V36.082H245.014V46.6557Z" fill="#9E3223"/>
<path d="M249.907 36.0821V42.7906L249.843 44.5422L249.807 45.0968L255.529 36.0821H257.532V46.6557H256.031V40.1925L256.061 38.9197L256.113 37.6644L250.397 46.6557H248.4V36.0821H249.907ZM252.925 34.6867C252.003 34.7624 251.083 34.5169 250.321 33.9919C250.02 33.6971 249.783 33.3431 249.625 32.9522C249.468 32.5614 249.392 32.142 249.405 31.7207H250.911C250.907 32.2367 251.094 32.736 251.436 33.122C251.883 33.4308 252.425 33.5714 252.966 33.519C253.492 33.5587 254.014 33.4074 254.437 33.0928C254.795 32.7231 255.003 32.2344 255.021 31.7207H256.534C256.532 32.1411 256.445 32.5569 256.278 32.9425C256.11 33.3281 255.865 33.6752 255.558 33.9627C254.796 34.5024 253.868 34.7585 252.937 34.6867H252.925Z" fill="#9E3223"/>
<path d="M91.3662 59.793H93.0827L95.4182 65.8242C95.7995 66.796 96.1136 67.7928 96.3582 68.8077H96.4399C96.5217 68.4807 96.6968 67.9144 96.9654 67.1204C97.234 66.3263 98.1039 63.8858 99.5811 59.793H101.298L96.7377 71.8146C96.4333 72.7765 95.8911 73.646 95.1613 74.3427C94.5377 74.85 93.752 75.1153 92.9485 75.09C92.4611 75.0914 91.9752 75.0366 91.5005 74.9265V73.642C91.8842 73.7244 92.2758 73.7636 92.6682 73.7588C93.7717 73.7588 94.5541 73.1458 95.0036 71.908L95.5875 70.4016L91.3662 59.793Z" fill="#9E3223"/>
<path d="M104.602 59.793V64.2244H110.522V59.793H112.116V70.3666H110.51V65.6023H104.602V70.3666H103.002V59.793H104.602Z" fill="#9E3223"/>
<path d="M117.027 59.793V66.5015L116.963 68.253L116.933 68.8077L122.655 59.793H124.652V70.3666H123.157V63.9033V62.6305L123.21 61.3752L117.5 70.3666H115.497V59.793H117.027Z" fill="#9E3223"/>
<path d="M136.638 62.4729C136.659 62.7603 136.618 63.0488 136.517 63.3188C136.416 63.5888 136.258 63.8339 136.055 64.0376C135.579 64.429 135.002 64.6779 134.391 64.7557V64.8083C135.116 64.8574 135.807 65.1354 136.364 65.6023C136.577 65.8239 136.742 66.0871 136.848 66.3755C136.955 66.6639 137.001 66.9711 136.983 67.278C137.005 67.7178 136.917 68.1562 136.727 68.5537C136.538 68.9511 136.252 69.2952 135.897 69.555C134.954 70.1508 133.845 70.431 132.732 70.3549H128.062V59.793H132.703C135.313 59.793 136.638 60.6804 136.638 62.4729ZM135.079 62.6247C135.094 62.4063 135.047 62.1881 134.944 61.995C134.841 61.802 134.686 61.6418 134.496 61.5329C133.931 61.2817 133.314 61.1696 132.697 61.2059H129.632V64.1894H132.341C133.06 64.2435 133.78 64.117 134.437 63.8216C134.645 63.6969 134.814 63.5165 134.924 63.3008C135.035 63.0851 135.082 62.8428 135.062 62.6013L135.079 62.6247ZM135.377 67.2079C135.395 66.9595 135.343 66.7111 135.228 66.4905C135.112 66.2698 134.937 66.0856 134.723 65.9585C134.05 65.647 133.309 65.5124 132.569 65.5673H129.65V69.0704H132.569C134.437 69.0296 135.36 68.4107 135.36 67.1846L135.377 67.2079Z" fill="#9E3223"/>
<path d="M143.75 70.5648C143.068 70.5996 142.386 70.4901 141.749 70.2436C141.112 69.9972 140.535 69.6192 140.054 69.1344C139.099 68.0421 138.613 66.6181 138.699 65.17C138.616 63.7015 139.062 62.2518 139.955 61.083C140.365 60.5893 140.883 60.1966 141.469 59.9354C142.055 59.6741 142.694 59.5514 143.335 59.5767C143.924 59.549 144.511 59.6519 145.055 59.878C145.599 60.1042 146.087 60.4479 146.482 60.8845C147.29 61.8477 147.707 63.0792 147.65 64.3351V65.3919H140.357C140.314 66.4172 140.648 67.4228 141.297 68.2177C141.623 68.5481 142.016 68.8049 142.449 68.9711C142.882 69.1372 143.345 69.2088 143.808 69.1811C144.972 69.1757 146.123 68.9313 147.189 68.463V69.8934C146.672 70.122 146.134 70.2981 145.583 70.4189C144.978 70.5292 144.364 70.5781 143.75 70.5648ZM143.318 60.9429C142.943 60.9295 142.57 60.9965 142.223 61.1395C141.877 61.2826 141.565 61.4982 141.309 61.772C140.77 62.4192 140.456 63.2248 140.416 64.0665H145.945C146.007 63.2329 145.769 62.4045 145.274 61.7311C145.029 61.4591 144.726 61.2466 144.387 61.11C144.048 60.9734 143.682 60.9162 143.318 60.9429Z" fill="#9E3223"/>
<path d="M155.321 70.5644C154.672 70.5729 154.029 70.4415 153.435 70.1791C152.861 69.9256 152.365 69.5223 151.999 69.0114H151.888C151.961 69.5924 151.998 70.1774 151.999 70.7629V75.1127H150.399V59.7923H151.701L151.923 61.2402H151.999C152.365 60.7056 152.861 60.2734 153.441 59.9849C154.032 59.7185 154.674 59.5869 155.321 59.5996C155.938 59.5658 156.554 59.6789 157.118 59.9296C157.683 60.1804 158.179 60.5615 158.568 61.0417C159.403 62.213 159.815 63.6338 159.735 65.0703C159.822 66.5131 159.409 67.9416 158.568 69.1165C158.179 69.5963 157.682 69.9775 157.118 70.2291C156.554 70.4807 155.938 70.5956 155.321 70.5644ZM155.088 60.96C154.656 60.9213 154.22 60.9823 153.816 61.1382C153.411 61.2941 153.047 61.5407 152.752 61.8591C152.195 62.7024 151.933 63.7061 152.005 64.7142V65.0703C152.005 66.5611 152.254 67.6237 152.752 68.2582C153.044 68.5963 153.413 68.8601 153.827 69.0276C154.241 69.1951 154.689 69.2616 155.134 69.2215C155.557 69.2342 155.975 69.139 156.35 68.9449C156.725 68.7507 157.044 68.4642 157.277 68.1122C157.843 67.1961 158.115 66.1281 158.054 65.0528C158.123 63.9841 157.851 62.9212 157.277 62.0168C157.026 61.6685 156.691 61.3891 156.303 61.2044C155.915 61.0197 155.487 60.9356 155.059 60.96H155.088Z" fill="#9E3223"/>
<path d="M166.706 70.5651C166.046 70.6045 165.385 70.4978 164.77 70.2526C164.156 70.0074 163.603 69.6297 163.151 69.1464C162.31 68.2044 161.89 66.8713 161.89 65.147C161.89 63.4226 162.316 62.0603 163.168 61.06C163.632 60.5658 164.199 60.1799 164.828 59.9296C165.458 59.6794 166.135 59.5709 166.812 59.612C167.324 59.6144 167.834 59.6692 168.335 59.7755C168.738 59.8578 169.13 59.9871 169.503 60.1608L169.013 61.527C168.634 61.3752 168.244 61.256 167.845 61.1709C167.481 61.084 167.109 61.037 166.736 61.0308C164.587 61.0308 163.513 62.3931 163.513 65.1178C163.444 66.1733 163.721 67.2226 164.301 68.1071C164.576 68.4583 164.932 68.7371 165.339 68.9192C165.746 69.1013 166.191 69.1813 166.636 69.1522C167.571 69.1368 168.493 68.9385 169.351 68.5684V69.9871C168.528 70.3865 167.621 70.5846 166.706 70.5651Z" fill="#9E3223"/>
<path d="M173.421 59.793V66.5015L173.351 68.253L173.322 68.8077L179.044 59.793H181.011V70.3666H179.517V63.9033L179.546 62.6305L179.593 61.3752L173.883 70.3666H171.886V59.793H173.421Z" fill="#9E3223"/>
<path d="M191.521 61.165H188.088V70.3666H186.5V61.165H183.107V59.793H191.521V61.165Z" fill="#9E3223"/>
<path d="M198.1 70.5648C197.417 70.6 196.735 70.4908 196.097 70.2443C195.459 69.9978 194.88 69.6196 194.399 69.1344C193.444 68.0421 192.957 66.6181 193.044 65.17C192.961 63.7015 193.406 62.2518 194.299 61.083C194.71 60.5888 195.229 60.1959 195.817 59.9346C196.404 59.6734 197.043 59.5509 197.686 59.5766C198.273 59.5491 198.86 59.652 199.403 59.8782C199.946 60.1043 200.432 60.448 200.827 60.8845C201.637 61.8462 202.054 63.0788 201.995 64.3351V65.3919H194.702C194.659 66.4172 194.993 67.4228 195.642 68.2177C195.969 68.5482 196.362 68.8051 196.796 68.9712C197.23 69.1374 197.695 69.2089 198.159 69.1811C199.321 69.1757 200.47 68.9313 201.533 68.4629V69.8934C201.017 70.122 200.479 70.2981 199.928 70.4189C199.325 70.5289 198.713 70.5778 198.1 70.5648ZM197.662 60.9429C197.28 60.9226 196.898 60.9863 196.543 61.1296C196.188 61.2728 195.868 61.4921 195.607 61.7719C195.067 62.4184 194.755 63.2249 194.72 64.0665H200.278C200.34 63.2329 200.102 62.4045 199.607 61.7311C199.364 61.4597 199.063 61.2475 198.726 61.1108C198.389 60.9741 198.025 60.9167 197.662 60.9429Z" fill="#9E3223"/>
<path d="M211.851 61.165H208.412V70.3666H206.812V61.165H203.414V59.793H211.851V61.165Z" fill="#9E3223"/>
<path d="M80.8387 77.5067C80.6064 77.5067 80.3836 77.4144 80.2194 77.2502C80.0552 77.0859 79.9629 76.8632 79.9629 76.6309V6.28789C79.9629 6.05562 80.0552 5.83286 80.2194 5.66862C80.3836 5.50438 80.6064 5.41211 80.8387 5.41211C81.0709 5.41211 81.2937 5.50438 81.458 5.66862C81.6222 5.83286 81.7145 6.05562 81.7145 6.28789V76.6309C81.7145 76.8632 81.6222 77.0859 81.458 77.2502C81.2937 77.4144 81.0709 77.5067 80.8387 77.5067Z" fill="#9E3223"/>
<path d="M27.6559 9.39402L27.7318 9.5575C28.0639 10.2061 28.4737 10.812 28.9521 11.3616C29.0614 11.2812 29.1766 11.209 29.2966 11.1456C29.3725 11.0989 29.4659 11.0522 29.571 10.9996C29.8874 10.8437 30.213 10.7072 30.546 10.5909C31.2674 10.3636 32.0113 10.2148 32.7647 10.1472C31.9812 8.94263 31.5004 7.56652 31.3634 6.1361C31.2739 5.44309 31.2543 4.74283 31.305 4.0459H31.0657C30.2034 4.0455 29.3669 4.34012 28.6952 4.88081L28.6485 4.91584C28.2212 5.27265 27.8778 5.7192 27.6427 6.22376C27.4076 6.72832 27.2865 7.27848 27.2881 7.83513C27.307 8.14834 27.3639 8.45811 27.4574 8.75762C27.4866 8.93861 27.5742 9.18383 27.6559 9.39402Z" fill="#5B6670"/>
<path d="M34.271 9.72091C34.3549 9.82763 34.4599 9.91591 34.5795 9.9802C34.699 10.0445 34.8305 10.0834 34.9658 10.0946H35.0476C35.1839 10.0842 35.3165 10.0457 35.4371 9.98133C35.5577 9.91701 35.6637 9.82832 35.7482 9.72091C36.4072 9.02724 36.9072 8.19844 37.2137 7.29207C37.7566 5.77404 37.599 4.48956 36.9626 3.88235C36.6486 3.59543 36.2564 3.40844 35.8358 3.3452C35.7423 3.3452 35.5789 3.3452 35.4154 3.3452C35.8145 3.24479 36.1632 3.00195 36.3958 2.66238C36.6284 2.3228 36.7289 1.90992 36.6783 1.50145C36.6277 1.09297 36.4296 0.717071 36.1212 0.4445C35.8128 0.171929 35.4154 0.0214844 35.0038 0.0214844C34.5922 0.0214844 34.1948 0.171929 33.8864 0.4445C33.5779 0.717071 33.3798 1.09297 33.3292 1.50145C33.2786 1.90992 33.3791 2.3228 33.6117 2.66238C33.8443 3.00195 34.193 3.24479 34.5921 3.3452H34.201C33.7828 3.41088 33.3931 3.59762 33.08 3.88235C32.4436 4.4662 32.2859 5.77404 32.8289 7.29207C33.1262 8.19739 33.6185 9.02649 34.271 9.72091Z" fill="#5B6670"/>
<path d="M50.3848 20.896C50.6244 21.3158 50.7511 21.7905 50.7526 22.2739C51.1797 22.345 51.5816 22.5239 51.9203 22.7935L51.9904 22.7235C52.8476 21.8174 53.4516 20.702 53.7419 19.4889C53.9513 18.3049 53.8874 17.0888 53.5551 15.9332V15.869C53.7468 15.5661 54.0139 15.3182 54.3301 15.1493C54.6463 14.9805 55.0009 14.8965 55.3592 14.9056C55.7394 14.9107 56.1139 14.9983 56.4569 15.1625C56.7562 15.3137 57.03 15.5107 57.2684 15.7464C57.2684 15.7464 56.2817 17.498 55.7679 18.3387C55.3868 18.9538 55.0549 19.598 54.7754 20.2654C54.3918 20.9807 54.2255 21.7924 54.2966 22.6009C54.3608 23.1847 54.6703 24.3057 54.8046 25.4326C54.9821 26.4919 54.9183 27.5776 54.6177 28.6088C56.4741 27.1944 57.9159 25.3068 58.7923 23.1439C58.5281 23.102 58.272 23.0193 58.0333 22.8986C57.8278 22.7853 57.6325 22.6544 57.4494 22.5075C56.019 21.4156 56.3401 20.2479 56.8072 19.6991C56.9415 19.5473 57.0758 19.3955 57.2217 19.2437C57.5779 18.8584 57.9691 18.473 58.3894 17.9942C58.8223 17.5048 59.0917 16.8925 59.1601 16.2427C59.1885 16.0493 59.2041 15.8543 59.2068 15.6588C59.2391 15.0142 59.0925 14.3731 58.7835 13.8065C58.4744 13.2398 58.0147 12.7695 57.4553 12.4476C57.1361 12.2688 56.7885 12.1463 56.4277 12.0856C55.2163 11.9543 53.9989 12.2722 53.0063 12.9789C52.5241 13.2952 52.1239 13.7214 51.8386 14.2225C51.6225 15.291 51.9378 15.5654 52.2648 16.6689C52.2648 16.6689 52.2648 16.7098 52.294 16.7331C52.9479 19.232 52.6034 20.4348 50.3848 20.896Z" fill="#5B6670"/>
<path d="M39.3908 18.6836C39.6155 19.1181 39.892 19.5239 40.214 19.8921L40.2957 19.9739C40.6138 19.7349 40.9688 19.5495 41.3467 19.4251C41.8097 19.2616 42.2895 19.1499 42.7771 19.0923C42.2532 18.2857 41.9327 17.3641 41.843 16.4065C41.7817 15.942 41.768 15.4725 41.8021 15.0053C41.3928 14.9407 40.9736 15.0082 40.6052 15.1979C40.3562 15.3307 40.1231 15.4913 39.9104 15.6767C39.5947 15.9401 39.3649 16.2918 39.2506 16.6868C39.1 17.0872 39.0596 17.5207 39.1339 17.9421C39.2032 18.1946 39.289 18.4423 39.3908 18.6836Z" fill="#5B6670"/>
<path d="M42.9001 17.0723C43.2387 18.024 43.8051 18.8239 44.243 18.9874C44.3031 19.0165 44.3688 19.0325 44.4357 19.0341C44.8852 18.9815 45.4866 18.0707 45.7727 16.9555C46.0588 15.8404 45.8603 15.0405 45.4049 14.6668C45.2975 14.5917 45.1842 14.5253 45.0662 14.4683C44.9422 14.4133 44.8131 14.3703 44.6809 14.3399C44.6596 14.3433 44.6379 14.3433 44.6166 14.3399C44.8043 14.2346 44.9593 14.0795 45.0644 13.8916C45.1695 13.7038 45.2206 13.4906 45.2121 13.2756C45.2037 13.0605 45.136 12.852 45.0165 12.673C44.8969 12.494 44.7303 12.3516 44.5349 12.2613C44.4012 12.2012 44.2552 12.1732 44.1087 12.1796C43.8225 12.2034 43.5573 12.3397 43.3713 12.5585C43.1853 12.7773 43.0935 13.061 43.1161 13.3473C43.122 13.5633 43.1901 13.773 43.3123 13.9511C43.4346 14.1293 43.6057 14.2684 43.8051 14.3515C43.5256 14.4272 43.2677 14.5671 43.0519 14.7602C42.6374 15.1806 42.5323 16.0564 42.9001 17.0723Z" fill="#5B6670"/>
<path d="M45.9824 19.0163C46.9027 19.0448 47.8119 19.2243 48.674 19.5476L48.7382 19.5826C48.9652 19.2822 49.1608 18.9594 49.3221 18.6193C49.4489 18.3771 49.5563 18.1253 49.6432 17.8661C49.7238 17.4459 49.6875 17.0117 49.5381 16.6108C49.4285 16.2152 49.2003 15.8627 48.8842 15.6007C48.6706 15.4147 48.4377 15.2523 48.1894 15.1161C47.82 14.9294 47.4018 14.8621 46.9925 14.9234C47.0227 15.3908 47.0091 15.8599 46.9516 16.3247C46.8583 17.2824 46.5359 18.2036 46.0116 19.0104L45.9824 19.0163Z" fill="#5B6670"/>
<path d="M37.2129 10.1412C37.9663 10.2089 38.7101 10.3576 39.4315 10.585C39.7646 10.7013 40.0902 10.8377 40.4066 10.9937L40.681 11.1396C40.7999 11.2049 40.9149 11.277 41.0255 11.3557C41.5039 10.806 41.9136 10.2002 42.2457 9.55154C42.2457 9.50483 42.2924 9.44644 42.3158 9.38806C42.4034 9.17787 42.4851 8.93265 42.5493 8.73998C42.6285 8.43284 42.6697 8.11714 42.6719 7.79997C42.674 7.24266 42.5526 6.69181 42.3164 6.18704C42.0801 5.68227 41.735 5.23612 41.3057 4.88069L41.259 4.84566C40.5974 4.31123 39.7741 4.0169 38.9236 4.01074H38.6842C38.7312 4.70775 38.7116 5.40765 38.6258 6.10095C38.4899 7.54246 38.005 8.92919 37.2129 10.1412Z" fill="#5B6670"/>
<path d="M38.0483 13.785C38.0483 13.785 38.1942 14.5265 38.2877 14.8593H38.3752C38.9591 14.6375 40.0451 14.3047 40.0451 13.9369V12.7691C40.0451 12.559 39.829 12.3546 39.4612 12.1853C38.2134 11.7346 36.8934 11.5169 35.5669 11.543H34.586C33.2069 11.5062 31.8329 11.7259 30.5341 12.1911C30.1487 12.3663 29.9502 12.5706 29.9502 12.775V13.9427C29.9502 14.3105 31.0654 14.6433 31.6317 14.8652H31.7251C31.8127 14.5324 31.9645 13.7909 31.9645 13.7909C31.9645 13.7909 31.8419 13.7442 31.8185 13.6975C31.7543 13.5457 31.8769 13.4639 32.0871 13.3472C32.3496 13.2214 32.6368 13.1555 32.9279 13.1545C33.0974 13.9878 33.1524 14.8403 33.0913 15.6884C33.0154 17.44 32.6826 19.6353 31.6492 21.13C32.1193 21.5957 32.5454 22.1039 32.922 22.648C33.9963 20.587 34.1656 18.3275 34.2591 16.0037C34.2999 14.982 34.2591 13.785 34.2591 12.9618C34.3583 12.9618 34.6911 12.9209 35.0239 12.9209C35.3567 12.9209 35.6837 12.9618 35.7829 12.9618C35.7829 13.785 35.742 14.982 35.7829 16.0037C35.8763 18.3683 36.0457 20.6746 37.1725 22.7589C37.5187 22.2395 37.9094 21.7511 38.3402 21.2993L38.4161 21.1942C37.3477 19.6937 37.0149 17.4633 36.9331 15.6884C36.8739 14.84 36.9309 13.9875 37.1024 13.1545C37.3934 13.1569 37.6803 13.2226 37.9432 13.3472C38.1475 13.4639 38.276 13.5457 38.2059 13.6975C38.1709 13.7383 38.0483 13.785 38.0483 13.785Z" fill="#5B6670"/>
<path d="M52.5631 30.3076H52.4697H52.2887C51.7124 30.3595 51.1316 30.2899 50.5839 30.1032C50.3139 30.0025 50.0602 29.8628 49.8307 29.6887C49.7723 29.642 49.1476 29.1048 49.0366 28.9822C48.4344 28.3939 47.6698 27.9994 46.8413 27.8495C46.0278 27.8207 45.2214 28.0102 44.5059 28.3984C44.4725 28.4134 44.4436 28.437 44.4221 28.4667C44.4006 28.4964 44.3872 28.5312 44.3833 28.5677C44.3804 28.6072 44.3902 28.6466 44.4112 28.6801C44.4322 28.7137 44.4633 28.7398 44.5001 28.7545C44.5267 28.7626 44.5552 28.7626 44.5818 28.7545C45.2677 28.8023 45.9467 28.9216 46.6078 29.1107C47.0744 29.2328 47.5181 29.43 47.9215 29.6945C48.4119 30.039 48.8381 30.4827 49.0892 30.6637C49.4221 30.9106 49.7984 31.0928 50.1985 31.2009C50.6418 31.273 51.0954 31.2511 51.5297 31.1366H51.5822C51.6955 31.1048 51.8067 31.0658 51.915 31.0199C52.0649 30.9648 52.2095 30.8964 52.3471 30.8155C52.4379 30.7707 52.5256 30.72 52.6098 30.6637C52.6401 30.6413 52.6631 30.6104 52.676 30.575C52.6889 30.5396 52.6911 30.5012 52.6824 30.4646C52.6737 30.4279 52.6545 30.3946 52.627 30.3688C52.5996 30.3429 52.5652 30.3257 52.5281 30.3192L52.5631 30.3076Z" fill="#5B6670"/>
<path d="M49.8065 23.7164C49.8805 23.8833 50.0078 24.0209 50.1685 24.1076C50.7057 24.417 50.8925 24.8724 50.0926 24.9658C49.5088 25.0359 48.9249 24.6447 46.7588 25.2402C45.5107 25.7061 44.3904 26.4603 43.4892 27.4414C43.3209 27.6271 43.163 27.822 43.0163 28.0252C42.7689 28.375 42.6394 28.7946 42.6468 29.223C42.6541 29.6514 42.7979 30.0663 43.0572 30.4074C43.283 30.6944 43.5484 30.948 43.8454 31.1606C44.4096 31.557 45.0825 31.7698 45.7721 31.7698C46.4617 31.7698 47.1346 31.557 47.6988 31.1606C47.8506 31.0087 47.8623 30.9445 47.8331 30.9037C47.382 31.1092 46.8925 31.2166 46.3968 31.2189C45.9281 31.2267 45.463 31.1372 45.0306 30.9562C44.4709 30.7038 43.9935 30.2992 43.6527 29.7885C43.5307 29.5818 43.4753 29.3426 43.4941 29.1034C43.513 28.8641 43.605 28.6365 43.7578 28.4515C44.072 28.0768 44.4286 27.7398 44.8204 27.4472C45.6329 26.8308 46.6207 26.4893 47.6404 26.4722H47.7163C48.2445 26.4734 48.769 26.5602 49.2694 26.7291C49.5139 26.8082 49.752 26.9058 49.9817 27.021C50.674 27.3734 51.274 27.8833 51.7333 28.5098C51.9742 28.0765 52.1568 27.6132 52.2763 27.1319L52.3638 26.7816C52.6032 25.7248 52.5331 23.2785 50.1977 23.2785C50.1551 23.2731 50.1119 23.2731 50.0693 23.2785C49.8182 23.442 49.7598 23.5763 49.8065 23.7164Z" fill="#5B6670"/>
<path d="M11.4243 17.9943C11.833 18.4731 12.2184 18.8584 12.592 19.2438L13.0066 19.6992C13.4737 20.248 13.7948 21.4157 12.3585 22.5075C12.1775 22.6572 11.9819 22.7882 11.7746 22.8987C11.5383 23.0202 11.284 23.103 11.0215 23.1439C11.8857 25.3025 13.3132 27.1898 15.1552 28.6088H15.196C14.8951 27.5634 14.8372 26.463 15.0267 25.3918C15.161 24.2649 15.4705 23.1439 15.5347 22.5601C15.6034 21.7511 15.435 20.9395 15.0501 20.2246C14.7571 19.5639 14.4155 18.9258 14.0283 18.3154C13.5145 17.4805 12.5278 15.7231 12.5278 15.7231C12.7663 15.4874 13.0401 15.2904 13.3394 15.1393C13.6823 14.975 14.0568 14.8874 14.437 14.8824C14.7951 14.8749 15.149 14.9596 15.465 15.1283C15.7809 15.297 16.0481 15.544 16.2411 15.8457C16.2411 15.8457 16.2411 15.8924 16.2411 15.9099C15.9143 17.0665 15.8524 18.2819 16.0601 19.4656C16.3481 20.6796 16.9525 21.7956 17.8117 22.7002L17.8818 22.7703C18.2199 22.4997 18.6221 22.3207 19.0495 22.2506C19.051 21.7673 19.1777 21.2925 19.4173 20.8727C17.1987 20.3998 16.8542 19.2087 17.5256 16.7507C17.5329 16.7283 17.5427 16.7067 17.5548 16.6865C17.8759 15.583 18.1971 15.3086 17.981 14.2401C17.6957 13.739 17.2955 13.3128 16.8133 12.9965C15.8208 12.2898 14.6033 11.9719 13.3919 12.1032C13.0309 12.1629 12.6831 12.2854 12.3643 12.4652C11.8049 12.7871 11.3452 13.2574 11.0361 13.824C10.7271 14.3907 10.5805 15.0317 10.6128 15.6764C10.6155 15.8718 10.6311 16.0669 10.6595 16.2603C10.7298 16.9032 10.9969 17.5088 11.4243 17.9943Z" fill="#5B6670"/>
<path d="M27.0078 19.0978C27.4974 19.1552 27.9791 19.2668 28.4441 19.4306C28.8212 19.5569 29.1759 19.7422 29.495 19.9794C29.5218 19.9536 29.5471 19.9263 29.5709 19.8977C29.8886 19.5277 30.1593 19.1198 30.3767 18.6833C30.4819 18.4381 30.5716 18.1866 30.6452 17.9301C30.7213 17.5093 30.683 17.0758 30.5343 16.6748C30.4247 16.2792 30.1965 15.9267 29.8804 15.6647C29.6743 15.48 29.4492 15.3176 29.209 15.1801C28.8405 14.9908 28.4214 14.9233 28.012 14.9875C28.0423 15.4548 28.0286 15.9239 27.9712 16.3887C27.8776 17.3572 27.5467 18.2877 27.0078 19.0978Z" fill="#5B6670"/>
<path d="M25.3547 19.0338C25.4214 19.0309 25.4868 19.015 25.5474 18.9871C25.9853 18.8178 26.5458 18.0237 26.8903 17.072C27.2348 16.1204 27.1472 15.1687 26.721 14.7366C26.5061 14.5422 26.2479 14.4021 25.9678 14.3279C26.1709 14.2464 26.3459 14.1074 26.4714 13.928C26.5968 13.7487 26.6673 13.5366 26.6743 13.3178C26.6952 13.0309 26.6021 12.7473 26.4152 12.5287C26.2282 12.31 25.9625 12.174 25.6759 12.1501C25.5313 12.1445 25.3874 12.1724 25.2555 12.2319C25.063 12.3233 24.8992 12.4656 24.7818 12.6434C24.6644 12.8212 24.5979 13.0277 24.5895 13.2406C24.5811 13.4535 24.6311 13.6646 24.7341 13.8511C24.837 14.0376 24.9891 14.1924 25.1737 14.2987C25.1524 14.3014 25.1308 14.3014 25.1095 14.2987C24.848 14.3561 24.6014 14.4674 24.3855 14.6257C23.9301 14.9994 23.7433 15.8693 24.0177 16.9144C24.2921 17.9595 24.9052 18.9813 25.3547 19.0338Z" fill="#5B6670"/>
<path d="M20.4504 18.6193C20.6096 18.9606 20.8053 19.2836 21.0342 19.5826L21.0985 19.5476C21.9605 19.2243 22.8698 19.0448 23.7901 19.0163C23.2662 18.2097 22.9456 17.2882 22.8559 16.3306C22.7985 15.8658 22.7848 15.3966 22.815 14.9293C22.4057 14.8679 21.9875 14.9353 21.6181 15.122C21.3689 15.2567 21.1358 15.4193 20.9233 15.6066C20.6076 15.8699 20.3778 16.2217 20.2636 16.6166C20.1193 17.0187 20.083 17.4515 20.1585 17.8719C20.2371 18.1279 20.3347 18.3777 20.4504 18.6193Z" fill="#5B6670"/>
<path d="M25.2388 28.7955C25.2654 28.8036 25.2939 28.8036 25.3205 28.7955C25.3567 28.7801 25.3873 28.7539 25.4082 28.7204C25.4291 28.687 25.4392 28.648 25.4373 28.6087C25.4334 28.5722 25.42 28.5374 25.3985 28.5077C25.377 28.478 25.3481 28.4544 25.3147 28.4394C24.5991 28.0513 23.7927 27.8618 22.9792 27.8905C22.1503 28.039 21.3853 28.4337 20.7839 29.0232C20.673 29.1283 20.0424 29.683 19.9899 29.7297C19.7604 29.9039 19.5066 30.0435 19.2367 30.1442C18.687 30.3312 18.1043 30.4008 17.526 30.3486H17.3509H17.2399C17.198 30.3562 17.1597 30.3776 17.1312 30.4093C17.1027 30.441 17.0855 30.4812 17.0823 30.5237C17.0785 30.5562 17.0835 30.5891 17.0969 30.6189C17.1103 30.6487 17.1314 30.6743 17.1582 30.6931C17.2424 30.7493 17.3301 30.8 17.4209 30.8449C17.5571 30.9246 17.6997 30.993 17.8471 31.0492C17.9581 31.0901 18.069 31.1368 18.1799 31.166H18.2383C18.6726 31.2806 19.1262 31.3025 19.5695 31.2302C19.9697 31.1222 20.346 30.94 20.6788 30.6931C20.9591 30.5121 21.3795 30.0683 21.8466 29.7239C22.2526 29.4604 22.698 29.2633 23.1661 29.14C23.8426 28.9512 24.5375 28.8357 25.2388 28.7955Z" fill="#5B6670"/>
<path d="M17.4264 26.8569L17.5139 27.2072C17.6314 27.6965 17.814 28.1678 18.0569 28.6085C18.5172 27.9828 19.1169 27.4731 19.8085 27.1196C20.0402 27.0044 20.2802 26.9068 20.5266 26.8277C21.0249 26.6583 21.5476 26.5716 22.0739 26.5708H22.1556C23.1753 26.5879 24.1631 26.9295 24.9756 27.5459C25.3656 27.8386 25.7202 28.1756 26.0324 28.5501C26.1861 28.7345 26.2792 28.9618 26.299 29.2011C26.3189 29.4403 26.2645 29.6799 26.1433 29.8871C25.8011 30.3965 25.3241 30.8008 24.7654 31.0548C24.3192 31.2368 23.8406 31.3259 23.3588 31.3169C22.877 31.3078 22.402 31.2008 21.9629 31.0023C21.9629 31.0432 21.9629 31.1074 22.0972 31.2592C22.6615 31.6557 23.3343 31.8684 24.0239 31.8684C24.7136 31.8684 25.3864 31.6557 25.9507 31.2592C26.2453 31.0459 26.5087 30.7924 26.733 30.506C26.994 30.1659 27.1394 29.7512 27.1478 29.3226C27.1562 28.894 27.0272 28.4739 26.7797 28.1239C26.6328 27.8847 26.4689 27.6565 26.2893 27.4408C25.3905 26.4596 24.272 25.7053 23.0255 25.2396C20.877 24.6558 20.2697 25.0353 19.6859 24.9652C18.8918 24.8718 19.102 24.4164 19.61 24.1069C19.7723 24.0206 19.9016 23.8831 19.9778 23.7158C20.0245 23.5756 19.9778 23.4413 19.7151 23.3771C19.6724 23.3717 19.6293 23.3717 19.5866 23.3771C17.257 23.3538 17.187 25.8001 17.4264 26.8569Z" fill="#5B6670"/>
<path d="M36.2148 39.0773C36.4389 39.3247 36.5939 39.6267 36.6644 39.953C36.6644 39.9998 37.8321 38.7094 37.8321 38.7094V37.4658L36.5827 37.9913L36.2148 39.0773Z" fill="#5B6670"/>
<path d="M28.5893 71.6685C29.1417 71.5194 29.6855 71.3401 30.2182 71.1313C30.4955 71.0265 30.7665 70.9056 31.0298 70.7693C31.311 70.632 31.5804 70.4719 31.8355 70.2906C32.0993 70.1029 32.3352 69.8788 32.5361 69.625C32.6392 69.4951 32.7273 69.3541 32.7989 69.2046C32.8339 69.1287 32.8689 69.047 32.8981 68.9711L32.9448 68.7667C32.9625 68.6947 32.9509 68.6187 32.9126 68.5552C32.8743 68.4917 32.8124 68.446 32.7405 68.4281C32.6874 68.4107 32.6301 68.4107 32.577 68.4281C32.5269 68.4417 32.4821 68.4702 32.4485 68.5098C32.296 68.6918 32.1096 68.8425 31.8997 68.9535C31.698 69.0572 31.4869 69.1413 31.2692 69.2046C30.7836 69.3297 30.2901 69.4214 29.792 69.479C29.284 69.5432 28.7352 69.5958 28.2331 69.6483C27.731 69.7009 27.2114 69.7184 26.6917 69.7359L25.0744 69.7885C24.4637 69.8033 23.8558 69.8757 23.2586 70.0045C22.981 70.0639 22.7107 70.154 22.4529 70.2731C22.3546 70.3179 22.259 70.3685 22.1668 70.4249C21.7641 70.669 21.4445 71.0293 21.2502 71.4583C21.0802 71.8434 21.0333 72.2716 21.1159 72.6844C21.1863 73.0428 21.3586 73.3732 21.6122 73.6361C21.6617 73.6873 21.7255 73.7224 21.7952 73.737C21.865 73.7516 21.9375 73.7449 22.0034 73.7178C22.0616 73.6844 22.1164 73.6453 22.1668 73.601C22.5783 73.0322 23.1616 72.6105 23.8308 72.3983C24.6365 72.2115 25.7867 72.1589 26.8961 71.9954C27.4659 71.9169 28.0311 71.8077 28.5893 71.6685Z" fill="#5B6670"/>
<path d="M23.5274 68.5564C23.5242 68.5918 23.5283 68.6275 23.5393 68.6614C23.5503 68.6952 23.5681 68.7265 23.5916 68.7532C23.6151 68.78 23.6438 68.8017 23.6759 68.817C23.708 68.8324 23.7429 68.841 23.7785 68.8424C23.8387 68.8478 23.8988 68.8312 23.9478 68.7957L24.0354 68.7373C24.1586 68.653 24.2896 68.5807 24.4266 68.5213C24.7948 68.3587 25.1918 68.2713 25.5943 68.2644C26.1822 68.2578 26.7693 68.3126 27.3458 68.4279C28.0734 68.5615 28.8152 68.6008 29.5528 68.5447C29.9476 68.5132 30.3385 68.4448 30.7205 68.3403C30.9215 68.2769 31.1168 68.1968 31.3044 68.1009C31.5539 67.9985 31.7601 67.8128 31.8882 67.5755C31.9008 67.5491 31.9079 67.5205 31.9091 67.4913C31.9103 67.4622 31.9055 67.4331 31.8952 67.4058C31.8848 67.3785 31.869 67.3536 31.8488 67.3326C31.8285 67.3116 31.8042 67.2949 31.7773 67.2835H31.7306C31.7306 67.2835 30.9599 67.1434 30.668 67.0267L29.7046 66.7756C29.039 66.6121 28.4085 66.472 27.702 66.3552C26.8703 66.1946 26.0105 66.2632 25.2148 66.5537C25.109 66.5944 25.0057 66.6412 24.9053 66.6939C24.5352 66.86 24.214 67.1186 23.9726 67.4448C23.7313 67.771 23.578 68.1538 23.5274 68.5564Z" fill="#5B6670"/>
<path d="M24.6137 65.882L25.3026 65.6426C25.3026 65.6426 22.6928 64.6909 24.1816 63.0036V62.9393C23.933 62.9005 23.6785 62.9308 23.4459 63.0269C23.2162 63.1273 23.0154 63.284 22.8621 63.4823C22.1498 64.3639 23.1307 65.3215 23.154 65.339C23.0081 65.339 22.6577 65.2806 22.5118 65.2631C21.8812 64.831 20.8303 63.7626 22.3366 61.503H22.2023C21.9859 61.4918 21.7698 61.5318 21.5718 61.6198C21.4565 61.6605 21.3434 61.7072 21.2331 61.7599C20.8648 61.92 20.5498 62.182 20.3254 62.5151C20.1009 62.8482 19.9763 63.2384 19.9662 63.64C19.9672 63.9627 20.0495 64.2799 20.2055 64.5625C20.3147 64.7687 20.459 64.9544 20.6318 65.1113C20.5208 65.1113 20.0479 65.0704 19.9253 65.0354C19.6612 64.7718 19.4517 64.4588 19.3087 64.1141C19.1658 63.7695 19.0922 63.4 19.0922 63.0269C19.0922 62.6538 19.1658 62.2843 19.3087 61.9397C19.4517 61.5951 19.6612 61.282 19.9253 61.0184H19.8085C19.5921 61.0072 19.376 61.0472 19.178 61.1352C19.0497 61.1854 18.9249 61.2439 18.8043 61.3104C18.4412 61.5266 18.1395 61.8323 17.9279 62.1981C17.7163 62.564 17.602 62.978 17.5957 63.4006C17.6121 63.8002 17.6929 64.1945 17.8351 64.5683C18.816 66.9096 23.37 66.1914 24.6137 65.882Z" fill="#5B6670"/>
<path d="M47.8222 70.4307C47.73 70.3744 47.6344 70.3237 47.5361 70.2789C47.2766 70.159 47.0044 70.0689 46.7246 70.0104C46.1275 69.8809 45.5195 69.8085 44.9088 69.7943L43.2973 69.7418C42.7718 69.7418 42.258 69.7009 41.7559 69.6542C41.2538 69.6075 40.705 69.5491 40.197 69.4849C39.7011 69.4289 39.2095 69.3392 38.7257 69.2163C38.508 69.153 38.2968 69.0689 38.0952 68.9653C37.8853 68.8542 37.6989 68.7035 37.5463 68.5215C37.5128 68.4819 37.468 68.4534 37.4179 68.4398C37.3648 68.4224 37.3075 68.4224 37.2544 68.4398C37.1825 68.4577 37.1206 68.5034 37.0823 68.5669C37.044 68.6304 37.0324 68.7064 37.0501 68.7784L37.0968 68.9828C37.0968 69.0587 37.161 69.1404 37.196 69.2163C37.2676 69.3659 37.3557 69.5069 37.4588 69.6367C37.6597 69.8905 37.8956 70.1146 38.1594 70.3023C38.4144 70.4836 38.6839 70.6437 38.9651 70.7811C39.227 70.9162 39.4959 71.037 39.7708 71.143C40.3039 71.3509 40.8476 71.5302 41.3998 71.6802C41.9599 71.8209 42.527 71.932 43.0988 72.013C44.2081 72.1765 45.3583 72.229 46.164 72.4159C46.829 72.6303 47.408 73.0517 47.8164 73.6186C47.8668 73.6629 47.9216 73.702 47.9798 73.7354C48.0457 73.7624 48.1182 73.7691 48.188 73.7545C48.2577 73.74 48.3215 73.7048 48.371 73.6536C48.6246 73.3908 48.7969 73.0603 48.8673 72.7019C48.9499 72.2892 48.903 71.861 48.733 71.4758C48.5422 71.0433 48.2246 70.6789 47.8222 70.4307Z" fill="#5B6670"/>
<path d="M38.6732 68.0892C38.8614 68.184 39.0566 68.264 39.2571 68.3286C39.639 68.4331 40.03 68.5015 40.4248 68.533C41.1624 68.589 41.9042 68.5498 42.6318 68.4162C43.2083 68.3006 43.7954 68.2458 44.3833 68.2527C44.7857 68.2602 45.1826 68.3476 45.551 68.5096C45.688 68.5689 45.819 68.6413 45.9422 68.7256L46.024 68.784C46.0724 68.8205 46.133 68.8372 46.1933 68.8307C46.2288 68.8293 46.2637 68.8206 46.2959 68.8053C46.328 68.79 46.3567 68.7683 46.3801 68.7415C46.4036 68.7147 46.4214 68.6835 46.4324 68.6497C46.4435 68.6158 46.4475 68.5801 46.4443 68.5446C46.3938 68.1421 46.2404 67.7593 45.9991 67.4331C45.7578 67.1069 45.4366 66.8483 45.0664 66.6821C44.9661 66.6295 44.8627 66.5827 44.757 66.542C43.9613 66.2515 43.1015 66.1829 42.2698 66.3435C41.5633 66.4603 40.9327 66.6004 40.2671 66.7639L39.2979 67.0149C38.9885 67.1025 38.2295 67.2426 38.2295 67.2426H38.1769C38.1506 67.2545 38.1268 67.2716 38.1072 67.2929C38.0875 67.3141 38.0724 67.3391 38.0626 67.3663C38.0528 67.3936 38.0485 67.4225 38.0501 67.4514C38.0517 67.4803 38.0591 67.5086 38.0718 67.5346C38.1988 67.7859 38.4124 67.9829 38.6732 68.0892Z" fill="#5B6670"/>
<path d="M51.1792 61.3045C51.0586 61.238 50.9337 61.1795 50.8055 61.1294C50.6074 61.0414 50.3914 61.0014 50.1749 61.0126H50.0582C50.5901 61.5457 50.8889 62.268 50.8889 63.0211C50.8889 63.7741 50.5901 64.4965 50.0582 65.0295C49.9472 65.0645 49.4743 65.0937 49.3517 65.1054C49.5245 64.9486 49.6687 64.7628 49.7779 64.5566C49.9339 64.2741 50.0163 63.9568 50.0173 63.6341C50.0081 63.2362 49.8865 62.8489 49.6664 62.5173C49.4463 62.1856 49.1368 61.923 48.7737 61.7599C48.6634 61.7072 48.5503 61.6605 48.435 61.6198C48.237 61.5318 48.0209 61.4918 47.8045 61.503H47.6877C49.1941 63.7625 48.1431 64.831 47.5126 65.2631C47.3666 65.2631 47.0163 65.3331 46.8703 65.339C46.8703 65.339 47.8745 64.3639 47.1622 63.4823C47.0089 63.2839 46.8081 63.1273 46.5784 63.0269C46.3458 62.9308 46.0913 62.9005 45.8427 62.9393V63.0035C47.3316 64.6909 44.71 65.6426 44.7217 65.6426L45.4107 65.8819C46.6426 66.1914 51.2084 66.9095 52.1717 64.5449C52.3139 64.1711 52.3947 63.7768 52.4111 63.3772C52.3995 62.9554 52.2802 62.5435 52.0645 62.1807C51.8489 61.818 51.5442 61.5164 51.1792 61.3045Z" fill="#5B6670"/>
<path d="M39.2514 54.3574C39.2202 54.3253 39.179 54.3048 39.1346 54.299C39.0991 54.2844 39.0592 54.2844 39.0237 54.299C38.8386 54.4119 38.6747 54.5561 38.5391 54.7253C38.4308 54.8663 38.3424 55.0215 38.2763 55.1865C38.2066 55.3358 38.1822 55.5023 38.2063 55.6653C38.2585 55.8805 38.3845 56.0706 38.5624 56.2024C38.6789 56.2755 38.8191 56.3006 38.9536 56.2725C39.1671 56.2167 39.3536 56.0862 39.4791 55.9046C39.5637 55.7641 39.6043 55.6014 39.5959 55.4376C39.6042 55.0393 39.4765 54.65 39.2339 54.3341L39.2514 54.3574Z" fill="#5B6670"/>
<path d="M39.6361 45.05L39.5602 45.0967C39.214 45.243 38.8913 45.4398 38.6027 45.6805C37.3299 46.7548 36.2673 48.7633 35.7593 51.1746C35.3039 53.5101 35.5199 55.6236 36.2147 57.0482C36.3778 57.4789 36.6431 57.8634 36.988 58.1685C37.3328 58.4737 37.7467 58.6903 38.194 58.7998C38.6501 58.8439 39.1102 58.7832 39.5393 58.6223C39.9683 58.4614 40.3549 58.2046 40.6695 57.8715C42.1067 56.3983 43.0564 54.5191 43.3903 52.4883C43.8574 50.112 43.618 47.8992 42.8649 46.4746C42.691 46.0799 42.4273 45.7312 42.0948 45.4565C41.7623 45.1818 41.3702 44.9886 40.9498 44.8923C40.5058 44.8217 40.0508 44.8763 39.6361 45.05ZM36.9329 51.3031C36.9329 51.1396 37.0613 50.6667 37.0963 50.509C37.1767 50.6776 37.2994 50.8224 37.4525 50.9294C37.6219 51.0578 37.8245 51.1348 38.0364 51.1513C37.9024 50.9464 37.8129 50.7156 37.7736 50.474C37.7474 50.1674 37.8145 49.8601 37.9663 49.5924C38.0889 49.7909 38.6728 51.2155 38.9005 51.6884C38.8586 51.8188 38.8235 51.9514 38.7954 52.0854L38.7603 52.319V52.4474C38.7253 52.4474 37.1255 54.4267 36.7402 54.7829C36.5979 53.6207 36.6632 52.4425 36.9329 51.3031ZM38.4918 57.5737C38.0884 57.5189 37.7221 57.3095 37.47 56.9898C37.1683 56.664 36.9658 56.259 36.8862 55.8221L38.8187 53.4867C38.8432 53.5794 38.89 53.6646 38.9552 53.7348C39.0204 53.8051 39.1018 53.8582 39.1924 53.8896C39.2988 53.8987 39.4057 53.8786 39.5014 53.8312C39.5972 53.7839 39.6781 53.7111 39.7354 53.621C39.7821 53.7436 40.9031 55.8105 40.944 55.8455C40.3017 56.9957 39.2157 57.6671 38.4918 57.5737ZM42.2635 52.5467C42.1979 52.9547 42.1003 53.3568 41.9716 53.7494C41.8546 54.1154 41.7162 54.4741 41.557 54.8237C41.0843 54.1257 40.6497 53.4026 40.255 52.6576C40.255 52.57 40.3017 52.4883 40.3192 52.4007C40.3524 52.2333 40.3719 52.0634 40.3776 51.8928C40.9206 51.3615 41.4344 50.7251 41.9774 50.1412C42.0525 50.2305 42.1059 50.3361 42.1333 50.4496C42.1606 50.5631 42.1612 50.6814 42.135 50.7951C42.0648 51.063 41.9039 51.2982 41.6796 51.4607C41.9507 51.5052 42.2287 51.477 42.4853 51.379C42.4503 51.6709 42.3219 52.2022 42.2635 52.5467ZM41.5512 46.603C41.649 46.6927 41.7371 46.7925 41.8139 46.9008C41.8385 46.9453 41.8658 46.9882 41.8957 47.0293L41.9891 47.2219C42.1628 47.5937 42.2884 47.9861 42.3627 48.3896C42.2854 48.3643 42.2047 48.3505 42.1234 48.3488C41.9021 48.3304 41.6794 48.3559 41.468 48.4237C41.2565 48.4916 41.0606 48.6005 40.8914 48.7443C40.7222 48.888 40.583 49.0637 40.4818 49.2614C40.3806 49.459 40.3194 49.6747 40.3017 49.896C40.4912 49.7529 40.702 49.6406 40.9264 49.5632C41.12 49.534 41.3168 49.534 41.5103 49.5632C41.1133 50.0536 40.6812 50.5207 40.2375 50.982C40.2106 50.8925 40.1626 50.8109 40.0976 50.7438C40.0326 50.6767 39.9524 50.6263 39.8638 50.5966C39.7619 50.5888 39.6598 50.6079 39.5676 50.6519C39.4753 50.696 39.3963 50.7635 39.3384 50.8477C39.1574 50.4448 38.7545 49.4406 38.6669 49.207C38.8657 49.1901 39.0657 49.2201 39.2508 49.2946C39.4759 49.4204 39.6742 49.589 39.8346 49.7909C39.8677 49.4771 39.84 49.16 39.7529 48.8567C39.6756 48.6027 39.5221 48.3786 39.3133 48.2147C39.1044 48.0507 38.8503 47.9549 38.5852 47.9401C38.4652 47.9226 38.3432 47.9226 38.2232 47.9401C38.6017 47.2898 39.1482 46.7533 39.8054 46.387C39.6244 47.5489 41.2242 47.7824 41.5512 46.603Z" fill="#5B6670"/>
<path d="M69.2257 39.8307C69.1636 39.629 69.0248 39.4597 68.8392 39.3593C68.6536 39.2589 68.436 39.2352 68.2332 39.2935H68.1982C67.2932 39.5621 66.3473 39.8774 65.419 40.0584L64.0236 40.3912C63.5623 40.4846 63.1069 40.5663 62.6048 40.6306C61.6298 40.7648 60.6547 40.8699 59.6855 40.9575C59.0608 41.0101 58.4186 41.0509 57.7938 41.0801L58.0683 41.0042C58.3368 40.9342 58.6054 40.8524 58.8681 40.7707C59.3994 40.6072 59.9132 40.4262 60.427 40.2394C61.4546 39.8657 62.4472 39.457 63.4397 39.025C64.4643 38.6051 65.4524 38.1012 66.3941 37.5186C67.3293 36.9274 68.2035 36.2449 69.0039 35.481C69.1286 35.3584 69.2093 35.1981 69.2336 35.025C69.2579 34.8519 69.2243 34.6756 69.1382 34.5234C69.0567 34.3869 68.9369 34.2772 68.7937 34.2081C68.6792 34.1453 68.5507 34.1123 68.42 34.1123C68.2894 34.1123 68.1609 34.1453 68.0464 34.2081C67.1881 34.7044 66.2948 35.2124 65.3723 35.6444C64.479 36.1085 63.5565 36.5142 62.6107 36.8589C61.6356 37.1975 60.6489 37.5128 59.6914 37.7872C59.2009 37.9273 58.7047 38.0558 58.2142 38.1667L57.8873 38.2368C58.1383 38.1317 58.3777 38.0207 58.6171 37.9098C59.1484 37.6471 59.6622 37.3668 60.1643 37.0807C61.1685 36.4969 62.1261 35.8838 63.0836 35.2416C64.0644 34.6067 64.9866 33.8857 65.8394 33.0871C66.6816 32.2803 67.4424 31.3924 68.1106 30.4364C68.2069 30.2896 68.2523 30.1151 68.2396 29.94C68.2269 29.7648 68.157 29.5987 68.0405 29.4672C67.966 29.3884 67.8767 29.3249 67.7778 29.2804C67.6371 29.2142 67.4801 29.1911 67.3263 29.214C67.1726 29.2368 67.029 29.3046 66.9137 29.4088C66.1488 30.1036 65.3197 30.8276 64.4732 31.464C63.6518 32.1308 62.7835 32.7377 61.875 33.2798C61.7057 33.3849 61.5305 33.4783 61.3554 33.5776C60.5847 34.0155 59.8081 34.4358 59.0199 34.8095C58.8681 34.8874 58.7163 34.9574 58.5645 35.0197C58.2784 35.154 57.9807 35.2766 57.7063 35.3934L57.8639 35.2883C58.1948 35.0508 58.5159 34.8056 58.8273 34.5526C58.9966 34.4125 59.1717 34.2782 59.3352 34.1381C60.2577 33.3557 61.0868 32.5266 61.9334 31.6859H61.9684C62.8031 30.8341 63.563 29.9121 64.2396 28.9301C64.9346 27.9138 65.5216 26.8278 65.9912 25.6897C66.0605 25.5268 66.0716 25.345 66.0227 25.1749C65.9738 25.0048 65.8679 24.8567 65.7226 24.7555C65.6383 24.6963 65.5432 24.6542 65.4427 24.6319C65.3421 24.6095 65.2381 24.6072 65.1367 24.6251C65.0352 24.643 64.9383 24.6807 64.8515 24.7362C64.7647 24.7916 64.6897 24.8637 64.6308 24.9482C64.0002 25.8415 63.3054 26.764 62.5756 27.6106C62.3596 27.8675 62.1436 28.1185 61.9217 28.3696C61.4167 28.9601 60.8746 29.5179 60.2986 30.0394C60.0125 30.2905 59.7147 30.5357 59.4286 30.7809C58.8973 31.2305 58.366 31.6625 57.823 32.0712L58.0741 31.7443C58.5237 31.1254 58.9382 30.4948 59.3352 29.8643C59.6096 29.4264 59.8782 28.9826 60.1351 28.5389C60.5753 27.7861 60.971 27.0083 61.3203 26.2093C61.4838 25.8473 61.6356 25.4795 61.7757 25.1058C62.2249 23.8984 62.5497 22.6483 62.7449 21.375C62.7701 21.1963 62.7327 21.0143 62.639 20.86C62.5454 20.7058 62.4013 20.5886 62.2311 20.5284C62.036 20.459 61.8214 20.4699 61.6342 20.5585C61.4471 20.6472 61.3027 20.8064 61.2328 21.0013V21.0422C60.9 21.9705 60.5029 22.9339 60.065 23.8564C60.0008 24.0023 59.9366 24.1541 59.8665 24.3001C59.3968 25.3045 58.8664 26.2793 58.2784 27.2194C58.2434 27.2778 58.2142 27.3362 58.1792 27.3887C57.7296 28.0426 57.2684 28.6732 56.7954 29.2921C55.2673 30.8721 53.4926 32.1932 51.5407 33.2039C50.8868 33.5192 50.2271 33.9512 49.5615 34.2782H49.5264C49.0747 34.4903 48.7053 34.8453 48.4755 35.2883C48.4184 35.4014 48.3696 35.5184 48.3295 35.6386C48.2549 35.8587 48.2155 36.0893 48.2128 36.3217C48.2091 36.7352 48.3152 37.1423 48.5204 37.5013C48.7255 37.8603 49.0224 38.1585 49.3805 38.3652C49.616 38.492 49.8779 38.562 50.1453 38.5695L50.2271 38.5345C50.3607 38.5252 50.4896 38.4809 50.6007 38.4061C50.6007 38.4061 50.4139 37.9098 50.7 37.6821C50.7466 37.6514 50.7954 37.6241 50.846 37.6004C50.982 37.5399 51.1291 37.5081 51.278 37.5069C51.5475 37.5018 51.8085 37.6009 52.0066 37.7837C52.2046 37.9664 52.3245 38.2186 52.3411 38.4876C52.3576 38.7566 52.2697 39.0215 52.0955 39.2272C51.9214 39.4329 51.6745 39.5633 51.4065 39.5913C51.0906 39.6752 50.7638 39.7106 50.4373 39.6964C49.8496 39.6968 49.2631 39.6421 48.6857 39.5329C47.9293 39.3925 47.1936 39.1571 46.4962 38.8323C45.6582 38.4032 44.8742 37.876 44.1608 37.2617C42.5684 35.7918 41.6218 33.7517 41.5276 31.5866C41.5276 31.4874 41.5276 31.3823 41.5276 31.283C41.5283 30.955 41.5497 30.6274 41.5918 30.3021C41.7783 28.7789 42.3848 27.3376 43.3434 26.1392C43.4018 26.0692 43.6762 25.7714 44.0207 25.4269L44.0849 25.3627C44.468 24.9728 44.8863 24.6191 45.3344 24.3059C45.2933 24.2754 45.2543 24.2423 45.2176 24.2067L45.0891 24.0724C44.8484 24.0848 44.6098 24.0225 44.406 23.8939C44.2021 23.7653 44.0431 23.5768 43.9506 23.3543C43.9506 23.3543 43.9506 23.3543 43.9506 23.3251C43.9483 23.3018 43.9483 23.2783 43.9506 23.255C43.9256 23.0944 43.9256 22.931 43.9506 22.7704C44.0051 22.521 44.1262 22.2909 44.3009 22.1048C44.371 22.0347 44.4352 21.9705 44.5053 21.9121C44.7056 21.7605 44.9368 21.6549 45.1825 21.6027C45.2475 21.5849 45.3139 21.5732 45.3811 21.5677C45.7123 21.5146 46.0518 21.5758 46.3437 21.7414C46.6355 21.9069 46.8623 22.1669 46.9867 22.4785C46.8469 22.5209 46.7045 22.5541 46.5604 22.5777C46.5176 22.4528 46.4336 22.3461 46.3223 22.275C46.2109 22.204 46.0788 22.1728 45.9474 22.1865C45.8515 22.1952 45.7572 22.2168 45.6671 22.2508C45.6069 22.2733 45.5515 22.307 45.5037 22.35C45.0716 22.7179 45.4511 23.6462 46.0525 23.7104C46.1531 23.7213 46.2549 23.7093 46.3503 23.6754C47.31 23.3986 48.2847 23.1763 49.2695 23.0098C49.4622 22.9806 49.6374 22.9572 49.7658 22.9514C49.897 22.4168 49.8418 21.8534 49.6093 21.3544C49.3768 20.8554 48.9809 20.4507 48.4872 20.2073C47.5148 19.8026 46.4691 19.6038 45.4161 19.6234C44.6306 19.6171 43.8469 19.7014 43.0807 19.8745C40.103 20.5284 38.2872 22.2508 36.6582 25.9816C35.9056 27.5447 35.3393 29.1908 34.9709 30.886H34.8133C34.4555 29.1912 33.8928 27.5463 33.1376 25.9874C31.4794 22.2566 29.6344 20.5284 26.6801 19.8745C25.9133 19.7051 25.1301 19.6209 24.3447 19.6234C23.2936 19.6036 22.2498 19.8025 21.2795 20.2073C20.7842 20.4508 20.3869 20.8561 20.1533 21.3562C19.9197 21.8563 19.8639 22.4211 19.995 22.9572C20.1234 22.9572 20.2986 22.9572 20.4913 23.0156C21.4763 23.1811 22.4511 23.4034 23.4105 23.6812C23.5059 23.7152 23.6077 23.7272 23.7083 23.7162C24.3681 23.6462 24.7593 22.5485 24.0937 22.2624C24.0051 22.2228 23.9102 22.199 23.8134 22.1924C23.6778 22.1802 23.5419 22.213 23.4269 22.2859C23.3118 22.3587 23.224 22.4674 23.177 22.5952C23.0309 22.5693 22.8866 22.5342 22.7449 22.4901C22.8713 22.1787 23.0993 21.9192 23.3919 21.7539C23.6845 21.5885 24.0244 21.527 24.3564 21.5793C24.4234 21.5853 24.4899 21.597 24.5549 21.6144C24.9175 21.67 25.2496 21.8495 25.4949 22.1223C25.6695 22.3063 25.7906 22.5344 25.8452 22.7821C25.8702 22.9446 25.8702 23.11 25.8452 23.2725C25.8452 23.2725 25.8452 23.3192 25.8452 23.3426C25.7527 23.5581 25.5973 23.7408 25.3995 23.8668C25.2016 23.9928 24.9704 24.0563 24.7359 24.049C24.6968 24.099 24.6538 24.1459 24.6074 24.1892C24.5707 24.2248 24.5317 24.2579 24.4907 24.2884C24.9679 24.6225 25.4117 25.0018 25.816 25.4211C26.1663 25.7656 26.4349 26.0633 26.4933 26.1392C27.0958 26.9033 27.5602 27.7668 27.8654 28.6907C28.0355 29.2155 28.1567 29.755 28.2274 30.3021C28.2646 30.6278 28.2841 30.9552 28.2857 31.283C28.2857 31.3881 28.2857 31.4932 28.2857 31.5983C28.2857 31.7034 28.2857 31.9661 28.2449 32.1471C27.9836 33.4542 27.5165 34.7115 26.8611 35.8721L26.7385 36.0473C26.4541 36.5065 26.1062 36.9232 25.7051 37.2851C24.9911 37.8986 24.2072 38.4258 23.3697 38.8556C22.6723 39.1804 21.9366 39.4158 21.1802 39.5563C20.6028 39.6655 20.0163 39.7202 19.4286 39.7197C19.104 39.7339 18.7792 39.6985 18.4653 39.6147C18.1979 39.5865 17.9518 39.4564 17.7779 39.2514C17.604 39.0464 17.5157 38.7823 17.5315 38.5139C17.5473 38.2456 17.6659 37.9936 17.8626 37.8105C18.0593 37.6273 18.3191 37.5269 18.5879 37.5303C18.7368 37.5315 18.8839 37.5633 19.0199 37.6237C19.0705 37.6474 19.1193 37.6747 19.1659 37.7054C19.452 37.9331 19.2652 38.4294 19.2652 38.4294C19.3763 38.5042 19.5052 38.5485 19.6388 38.5579H19.7614C20.0289 38.5509 20.291 38.4809 20.5263 38.3535C20.8844 38.1468 21.1812 37.8487 21.3864 37.4896C21.5916 37.1306 21.6977 36.7235 21.694 36.31C21.6913 36.0776 21.6519 35.847 21.5772 35.6269C21.5391 35.5069 21.4923 35.3898 21.4371 35.2766C21.2005 34.8346 20.8279 34.4804 20.3745 34.2665C19.7089 33.9396 19.0433 33.5075 18.3952 33.1922C16.4415 32.1845 14.6663 30.863 13.1405 29.2804C12.6209 28.6557 12.1596 28.0251 11.6925 27.3712L11.5875 27.2019C10.9995 26.2618 10.4691 25.2869 9.99936 24.2826C9.9293 24.1366 9.87091 23.9848 9.80085 23.8389C9.3688 22.9164 8.97178 21.953 8.63314 21.0247V20.9838C8.56319 20.7889 8.41882 20.6297 8.23168 20.541C8.04453 20.4524 7.82987 20.4415 7.63474 20.5109C7.4646 20.5711 7.32049 20.6882 7.22685 20.8425C7.13322 20.9968 7.0958 21.1787 7.12095 21.3575C7.31423 22.6375 7.64103 23.8938 8.09599 25.1058C8.23028 25.4795 8.38208 25.8473 8.54556 26.2093C8.91135 27.0335 9.32664 27.8349 9.78917 28.609C10.0461 29.0527 10.3146 29.4964 10.5891 29.9343C10.9861 30.5649 11.4006 31.1954 11.8502 31.8143L12.1012 32.1413C11.5583 31.7326 11.0269 31.3005 10.4956 30.851C10.2037 30.6058 9.91178 30.3605 9.62569 30.1095C9.05118 29.5864 8.50913 29.0288 8.00257 28.4396C7.78071 28.1886 7.56468 27.9375 7.34866 27.6806C6.61883 26.834 5.92405 25.9291 5.29348 25.0182C5.23458 24.9337 5.15957 24.8617 5.07276 24.8062C4.98594 24.7508 4.88904 24.713 4.78759 24.6951C4.68615 24.6772 4.58217 24.6795 4.48162 24.7019C4.38108 24.7243 4.28594 24.7663 4.20167 24.8256C4.06564 24.9187 3.96249 25.0523 3.90692 25.2075C3.85135 25.3627 3.84621 25.5314 3.89223 25.6897C4.36557 26.8186 4.95244 27.8965 5.64379 28.9067C6.3534 29.9113 7.15056 30.8511 8.02593 31.7151C8.03555 31.7171 8.0455 31.7171 8.05512 31.7151C8.87836 32.5558 9.73663 33.3849 10.6533 34.1673L11.1612 34.5818C11.4765 34.8329 11.7918 35.0781 12.1246 35.3175L12.2822 35.4226C11.9962 35.3058 11.6984 35.1832 11.424 35.0489C11.2722 34.9866 11.1204 34.9166 10.9686 34.8387C10.1862 34.465 9.40967 34.0447 8.63314 33.6068L8.10767 33.309C7.20829 32.7772 6.34785 32.1821 5.53286 31.5282C4.68627 30.9094 3.86303 30.1854 3.09234 29.4906C2.97702 29.3864 2.83346 29.3186 2.67971 29.2957C2.52596 29.2728 2.36888 29.296 2.22823 29.3621C2.13018 29.4082 2.04119 29.4715 1.9655 29.549C1.84903 29.6806 1.77953 29.8472 1.76791 30.0226C1.75628 30.198 1.80319 30.3723 1.90127 30.5182C2.56595 31.4769 3.32698 32.3651 4.17248 33.1689C5.022 33.9688 5.94244 34.6899 6.92244 35.3233C7.85661 35.9656 8.81413 36.5844 9.84172 37.1625C10.3438 37.4485 10.8576 37.7463 11.3948 37.9915C11.6283 38.1025 11.8677 38.2134 12.1188 38.3185L11.7918 38.2484C11.3014 38.1375 10.8051 38.0091 10.3146 37.8689C9.32793 37.5945 8.34121 37.2851 7.39536 36.9406C6.4472 36.597 5.52271 36.1913 4.62788 35.7262C3.72291 35.2941 2.81209 34.7862 1.95382 34.2899C1.83931 34.227 1.71079 34.1941 1.58015 34.1941C1.44952 34.1941 1.321 34.227 1.20649 34.2899C1.06501 34.3593 0.947204 34.469 0.867849 34.6052C0.781367 34.738 0.737292 34.894 0.741462 35.0525C0.745633 35.211 0.797853 35.3645 0.891204 35.4926C1.69946 36.2547 2.57932 36.9371 3.51856 37.5303C4.44893 38.1112 5.42528 38.615 6.43784 39.0366C7.43039 39.4687 8.42879 39.8774 9.45054 40.2511C9.96433 40.4379 10.484 40.6189 11.0094 40.7824C11.2722 40.8641 11.5407 40.9458 11.8152 41.0159L12.0837 41.0918C11.459 41.0918 10.8168 41.0217 10.192 40.9692C9.217 40.8816 8.23612 40.7765 7.27275 40.6422C6.77064 40.578 6.31523 40.4963 5.85398 40.4029C5.39274 40.3094 4.92565 40.1868 4.4644 40.0701C3.53023 39.8599 2.58439 39.5738 1.67941 39.3052H1.64438C1.44875 39.2506 1.2396 39.2736 1.06052 39.3694C0.967201 39.4184 0.884551 39.4854 0.817391 39.5666C0.75023 39.6478 0.699902 39.7415 0.669338 39.8424C0.620204 40.0078 0.626725 40.1848 0.687899 40.3462C0.749073 40.5075 0.861519 40.6444 1.00797 40.7357C1.90732 41.2766 2.85537 41.732 3.83968 42.096C4.82897 42.4454 5.84409 42.7167 6.87573 42.9076C7.87413 43.1236 8.87252 43.3221 9.88259 43.4915C10.7934 43.6433 11.675 43.7717 12.6267 43.871L10.8751 44.0636C9.94098 44.1571 9.00681 44.233 8.07264 44.2913C7.83909 44.2913 7.60555 44.2913 7.36617 44.3264H6.70057H5.34019C4.43521 44.3264 3.4952 44.2505 2.59606 44.1979H2.57271C2.41536 44.1915 2.25942 44.2299 2.12314 44.3089C2.00806 44.3751 1.91141 44.4691 1.84205 44.5823C1.7727 44.6955 1.73283 44.8243 1.72612 44.9569C1.71717 45.1275 1.76425 45.2962 1.86018 45.4375C1.95611 45.5787 2.09562 45.6847 2.25743 45.7393C3.20878 46.0529 4.18553 46.2834 5.17671 46.4283C5.66831 46.4993 6.16334 46.5441 6.6597 46.5625C6.91076 46.5625 7.16182 46.5625 7.41872 46.5625H8.13686C9.10022 46.5625 10.0636 46.5625 11.0269 46.5625C11.6984 46.5625 11.8385 46.5625 12.5099 46.5275L12.5975 46.8194C11.494 47.1698 10.7467 47.4033 9.63153 47.7069C8.76743 47.9463 7.95003 48.1098 7.09176 48.2908C6.23349 48.4718 5.37522 48.6352 4.52279 48.8104C4.4665 48.8217 4.41166 48.8393 4.35931 48.8629C4.19961 48.9329 4.06762 49.0539 3.98402 49.2069C3.90041 49.3599 3.8699 49.5364 3.89727 49.7086C3.92464 49.8808 4.00833 50.039 4.13525 50.1586C4.26218 50.2782 4.42516 50.3522 4.59869 50.3693C5.52949 50.4423 6.46457 50.4423 7.39536 50.3693C8.32217 50.2807 9.24256 50.1345 10.1512 49.9314C11.0445 49.7679 12.3581 49.4585 13.2456 49.2716L13.3157 49.4935C12.9478 49.7037 12.148 50.1299 11.7801 50.3343C11.4123 50.5386 11.0445 50.7254 10.6766 50.9181L9.57899 51.4494C8.84333 51.8289 8.07848 52.1909 7.34282 52.5879C7.17838 52.6782 7.05152 52.8242 6.98505 52.9996C6.91858 53.175 6.91684 53.3684 6.98015 53.5449C7.04347 53.7215 7.16768 53.8697 7.33047 53.9629C7.49326 54.0561 7.68396 54.0882 7.86829 54.0534C8.72391 53.8766 9.56814 53.6485 10.3964 53.3703C11.2255 53.0959 12.0253 52.7106 12.8135 52.3661L14.0572 51.8289L14.2031 52.4828L13.6193 52.8974L12.615 53.7148C12.0145 54.2607 11.4508 54.8459 10.9277 55.4664C10.8119 55.6069 10.748 55.783 10.7466 55.965C10.7452 56.1471 10.8064 56.3241 10.92 56.4664C11.0336 56.6088 11.1926 56.7077 11.3705 56.7467C11.5483 56.7858 11.7342 56.7625 11.8969 56.6808C12.6161 56.3044 13.3086 55.8792 13.9696 55.408L14.6644 54.9993C14.6644 54.9993 15.0439 57.2938 15.1431 58.2338C15.4526 61.1531 15.365 64.557 15.6803 64.954C15.9956 65.351 16.4743 65.2109 16.9473 65.2226C16.9181 65.1117 16.9005 65.0066 16.8772 64.9015V64.8664C16.6109 63.7792 16.7608 62.6317 17.2976 61.6494C17.3134 61.6102 17.3232 61.5689 17.3268 61.5268C17.2046 59.1049 16.9473 56.6918 16.5561 54.2986C15.8788 50.562 14.7461 44.5833 14.4308 42.8901C14.4199 42.8444 14.4211 42.7966 14.4345 42.7515C14.4478 42.7064 14.4727 42.6656 14.5067 42.6332C14.5433 42.6001 14.5875 42.5764 14.6353 42.5642C14.6831 42.552 14.7332 42.5516 14.7811 42.5631C16.1802 42.8517 17.5992 43.0332 19.0258 43.1061C20.8158 43.1968 22.6083 42.9836 24.3272 42.4755C23.3357 44.854 22.8315 47.4072 22.8442 49.9839C22.8442 55.3204 24.9169 60.0379 28.0989 62.8638C27.853 62.8956 27.6093 62.9424 27.3691 63.0039C26.7394 63.2431 26.135 63.5443 25.565 63.9031H25.4949C25.4409 63.9415 25.4013 63.9967 25.3822 64.0602C25.3632 64.1236 25.3659 64.1916 25.3898 64.2534C25.4864 64.6704 25.6585 65.0662 25.8978 65.4211C25.9445 65.4853 25.9912 65.5437 26.0671 65.5495C28.9864 65.6955 31.1875 65.9174 32.9216 67.0209L33.0617 67.1143C33.4853 67.4575 33.7686 67.9441 33.8579 68.482C33.9472 69.0199 33.8363 69.5718 33.5463 70.0336C33.3127 70.2729 33.0734 70.5007 32.834 70.7225C32.0466 71.4181 31.1711 72.007 30.23 72.4741C29.3275 72.9113 28.3622 73.2048 27.3691 73.344C26.3882 73.5192 25.4073 73.6535 24.1287 73.9279C24.0891 73.9394 24.0517 73.9571 24.0178 73.9804C23.9647 74.0147 23.9233 74.0644 23.8993 74.1229C23.8753 74.1813 23.8698 74.2457 23.8835 74.3074C23.8943 74.3606 23.9208 74.4094 23.9594 74.4475C24.4351 74.9277 25.0108 75.297 25.6456 75.5291C26.2804 75.7612 26.9586 75.8504 27.6318 75.7904C28.6465 75.7095 29.6369 75.4381 30.5511 74.9905C30.8527 74.8515 31.1452 74.6935 31.4269 74.5176C32.5353 73.8386 33.4898 72.9358 34.2294 71.8669L34.2703 71.8027V71.8377C34.011 72.7492 33.6174 73.6169 33.1026 74.4125C32.7068 74.9102 32.2671 75.3713 31.7889 75.7904C31.4449 76.0781 31.0687 76.325 30.6679 76.5261C30.5336 76.5903 30.3993 76.6545 30.2533 76.7129C29.5855 76.9698 28.8957 77.1652 28.1923 77.2967C28.1554 77.3076 28.1201 77.3233 28.0872 77.3434C28.0349 77.3741 27.9938 77.4207 27.9696 77.4763C27.9455 77.5319 27.9396 77.5937 27.9529 77.6529C27.9683 77.7241 28.0075 77.7879 28.0639 77.8339C28.8046 78.3415 29.6967 78.5805 30.592 78.5112C31.0638 78.48 31.5274 78.3715 31.964 78.19C32.4034 78.0156 32.8115 77.7711 33.1726 77.4661C33.2872 77.3669 33.3964 77.2617 33.4996 77.1508C33.7039 77.5536 33.92 77.9623 34.0834 78.3652C34.2469 78.7681 34.4513 79.3286 34.714 79.8132C34.7394 79.8561 34.7751 79.8919 34.818 79.9174C34.8608 79.9429 34.9094 79.9573 34.9592 79.9591C35.0644 79.9476 35.1609 79.8952 35.2278 79.8132C35.4905 79.3286 35.6774 78.844 35.8876 78.3652C36.0605 77.9503 36.2553 77.5449 36.4714 77.1508C36.5823 77.2559 36.6758 77.3668 36.7984 77.4661C37.1446 77.7828 37.5387 78.0429 37.9661 78.2367C38.4046 78.4189 38.8701 78.5274 39.344 78.5579C40.2374 78.6272 41.1277 78.3882 41.8662 77.8806C41.8961 77.8595 41.9213 77.8326 41.9403 77.8015C41.9594 77.7704 41.972 77.7357 41.9772 77.6996C41.9901 77.6411 41.9847 77.58 41.9618 77.5246C41.9388 77.4693 41.8993 77.4223 41.8487 77.3902L41.7378 77.3434C41.0346 77.2111 40.3449 77.0157 39.6768 76.7596L39.2622 76.5728C38.8622 76.3703 38.4862 76.1235 38.1412 75.8371C37.6544 75.4178 37.205 74.9567 36.7984 74.4592C36.2859 73.6623 35.8925 72.7949 35.6307 71.8844V71.8494L35.6715 71.9136C36.4111 72.9825 37.3656 73.8853 38.474 74.5643C38.7557 74.7402 39.0482 74.8982 39.3498 75.0372C40.2643 75.484 41.2546 75.7554 42.2691 75.8371C42.9423 75.8971 43.6205 75.8079 44.2553 75.5758C44.8901 75.3437 45.4659 74.9744 45.9416 74.4942C45.9802 74.4561 46.0066 74.4073 46.0175 74.3541C46.0311 74.2924 46.0256 74.228 46.0016 74.1696C45.9776 74.1111 45.9363 74.0614 45.8832 74.0271C45.8492 74.0038 45.8118 73.9861 45.7722 73.9746C44.4936 73.671 43.5127 73.5367 42.5318 73.3907C41.5387 73.2515 40.5734 72.958 39.6709 72.5208C38.7298 72.0538 37.8543 71.4648 37.0669 70.7692C36.8276 70.5474 36.5882 70.3197 36.3605 70.0803C36.0698 69.6192 35.958 69.0677 36.0462 68.5298C36.1344 67.992 36.4165 67.5051 36.8392 67.161L36.9794 67.0676C38.7309 65.9641 40.8854 65.7422 43.8338 65.5963C43.9097 65.5963 43.9564 65.532 44.0032 65.4678C44.2424 65.1129 44.4146 64.7171 44.5111 64.3001C44.5351 64.2383 44.5377 64.1704 44.5187 64.1069C44.4997 64.0435 44.46 63.9882 44.406 63.9498H44.336C43.7609 63.5927 43.1528 63.2916 42.5202 63.0506C42.4443 63.0506 42.1757 62.9747 41.8254 62.9164C44.984 60.0905 47.0801 55.3729 47.0801 50.0307C47.0911 47.4254 46.5726 44.8451 45.5562 42.4464C47.2603 42.9483 49.0367 43.1595 50.8109 43.0711C52.2375 42.9982 53.6565 42.8166 55.0556 42.5281C55.1035 42.5166 55.1536 42.517 55.2014 42.5292C55.2492 42.5414 55.2934 42.5651 55.33 42.5982C55.3637 42.631 55.3887 42.6716 55.403 42.7164C55.4173 42.7612 55.4202 42.8088 55.4117 42.8551C55.0906 44.5482 53.9579 50.5269 53.2865 54.2636C52.9083 56.6573 52.6666 59.0706 52.5625 61.4917C52.5592 61.5326 52.5592 61.5736 52.5625 61.6144C53.0993 62.5966 53.2492 63.7442 52.9829 64.8314V64.8664C52.9829 64.9715 52.942 65.0766 52.9128 65.1876C53.3857 65.1876 53.9112 65.2518 54.1798 64.919C54.4483 64.5862 54.4075 61.1414 54.7169 58.1988C54.8162 57.2588 55.1957 54.9818 55.1957 54.9642L55.8905 55.3729C56.5514 55.8441 57.244 56.2694 57.9632 56.6457C58.1031 56.7196 58.262 56.7496 58.4193 56.7319C58.5765 56.7142 58.7248 56.6496 58.8448 56.5465C59.0039 56.4199 59.1075 56.2364 59.1337 56.0348C59.1598 55.8332 59.1065 55.6293 58.9849 55.4664C58.4633 54.8445 57.8995 54.2592 57.2976 53.7148L56.3576 52.9266L55.7737 52.512L55.9138 51.8581L57.1574 52.3953C57.9456 52.7397 58.7514 53.1251 59.5746 53.3995C60.4031 53.6769 61.2472 53.905 62.1027 54.0826C62.287 54.1174 62.4777 54.0853 62.6405 53.9921C62.8033 53.8989 62.9275 53.7507 62.9908 53.5741C63.0541 53.3975 63.0524 53.2042 62.9859 53.0288C62.9195 52.8534 62.7926 52.7074 62.6282 52.6171C61.8925 52.2201 61.1277 51.8581 60.392 51.4786L59.2944 50.9473C58.9265 50.7663 58.5587 50.5795 58.1909 50.3635C57.823 50.1474 57.0232 49.7329 56.6553 49.5227L56.7312 49.3008C57.6128 49.4877 58.9265 49.7971 59.8198 49.9606C60.7284 50.1637 61.6488 50.3099 62.5756 50.3985C63.5064 50.4715 64.4415 50.4715 65.3723 50.3985C65.549 50.3865 65.7165 50.315 65.8473 50.1955C65.978 50.076 66.0644 49.9156 66.0922 49.7407C66.12 49.5657 66.0876 49.3865 66.0003 49.2324C65.913 49.0782 65.776 48.9583 65.6117 48.8921C65.5593 48.8685 65.5045 48.8509 65.4482 48.8396C64.6016 48.6644 63.6966 48.5126 62.8792 48.32C62.0618 48.1273 61.2036 47.9813 60.3395 47.7361C59.2301 47.4208 58.477 47.1989 57.3735 46.8486L57.461 46.5567C58.1325 46.5567 58.2784 46.5567 58.944 46.5917C59.9074 46.5917 60.8708 46.5917 61.8633 46.5917H62.5873C62.8384 46.5917 63.0894 46.5917 63.3405 46.5917C63.8368 46.5733 64.3319 46.5285 64.8235 46.4575C65.8148 46.3133 66.7916 46.0827 67.7428 45.7685C67.9046 45.7139 68.0441 45.6079 68.14 45.4667C68.2359 45.3254 68.283 45.1567 68.2741 44.9861C68.2664 44.8545 68.2261 44.7269 68.1568 44.6148C68.0875 44.5027 67.9913 44.4096 67.877 44.3439C67.7426 44.2657 67.5887 44.2273 67.4333 44.233H67.3983C66.4991 44.2855 65.565 44.3497 64.6542 44.3614H63.2996H62.6282C62.3888 44.3614 62.1552 44.3614 61.9217 44.3264C60.9875 44.268 60.0534 44.1921 59.125 44.0987C58.5412 44.0403 57.9573 43.9761 57.3735 43.906C58.3251 43.8067 59.2068 43.6783 60.1176 43.5265C61.1277 43.3572 62.1261 43.1587 63.1244 42.9426C64.1561 42.7517 65.1712 42.4804 66.1605 42.1311C67.1184 41.7475 68.039 41.2765 68.9105 40.724C69.0527 40.6294 69.1604 40.4911 69.2173 40.33C69.2741 40.1689 69.2771 39.9936 69.2257 39.8307ZM34.9592 63.8739H34.9184C31.4152 63.8739 28.3091 61.4976 26.4349 57.9127C27.3107 56.4356 29.1148 53.2419 29.1148 53.2419C29.2841 53.8958 30.2825 58.2572 30.2825 58.2572C30.2825 58.2572 29.0097 58.841 29.652 59.203C30.2942 59.565 31.6604 59.3023 31.6604 59.3023C31.8914 59.5094 32.1331 59.7043 32.3844 59.8861C32.8329 60.215 33.3403 60.4548 33.8791 60.5926L34.2294 60.7269C34.1591 61.0301 34.1814 61.3474 34.2936 61.6377C34.3266 61.7136 34.3828 61.7772 34.4541 61.8191C34.5255 61.8611 34.6083 61.8793 34.6906 61.8713C34.7631 61.8697 34.8345 61.8538 34.9008 61.8245C35.1029 61.7427 35.2844 61.617 35.4321 61.4567C35.6638 61.2065 35.8711 60.9348 36.051 60.6452C36.051 60.6452 36.051 60.616 36.051 60.5926C36.6838 60.4623 37.2503 60.1129 37.6508 59.6059C36.3722 59.1096 35.3154 57.9477 34.8775 56.0269C34.721 55.2778 34.6389 54.515 34.6323 53.7498C34.6269 52.8669 34.7032 51.9855 34.86 51.1166V51.0232C35.4438 47.8762 37.4173 45.4707 37.9836 45.2664C37.8084 44.8635 37.8843 43.8359 36.5123 43.2696C36.2145 43.147 35.2979 43.0944 35.2103 42.6857C35.4478 42.506 35.6453 42.2787 35.7901 42.0183C35.9348 41.7579 36.0237 41.4702 36.051 41.1735C36.1253 40.7966 36.0823 40.4059 35.9278 40.0541C35.7733 39.7023 35.5148 39.4063 35.1869 39.206C35.326 38.9312 35.4923 38.6711 35.6832 38.4294L35.0468 37.6821L34.9067 37.758L34.1593 38.155C34.2753 38.4657 34.3537 38.7891 34.3929 39.1184C34.0753 39.2223 33.7969 39.4204 33.5946 39.6863C33.3922 39.9522 33.2756 40.2734 33.2602 40.6072C33.2527 40.8884 33.3039 41.1681 33.4104 41.4285C33.517 41.6888 33.6766 41.9241 33.8791 42.1194C34.1243 42.3705 34.1769 42.5806 34.0192 42.7033C33.6806 43.0419 32.9858 42.9602 32.6238 43.4798C32.4259 43.8382 32.2599 44.2133 32.1275 44.6008C31.9582 44.9453 30.9598 47.3274 30.481 48.1623C30.3584 48.3783 29.8622 49.1549 29.8622 49.1549C29.8622 49.1549 29.6461 49.3067 29.4067 49.4993C29.2068 49.6494 29.0247 49.8218 28.8638 50.0131C28.7153 50.2727 28.6371 50.5665 28.6371 50.8656C28.6371 51.1646 28.7153 51.4584 28.8638 51.718L25.9445 56.9727C25.8335 56.7333 25.781 56.599 25.781 56.599C24.9415 54.4833 24.5192 52.2251 24.5374 49.9489C24.5374 42.5515 28.8696 36.4852 34.317 36.0531H35.5781C36.173 36.1056 36.7604 36.223 37.3297 36.4034C37.6279 36.497 37.9203 36.6082 38.2055 36.7362C42.3684 38.5754 45.3635 43.7892 45.3635 49.9489C45.3635 57.6266 40.6927 63.8739 34.9592 63.8739ZM33.8791 48.7929C33.8791 48.7929 31.8531 49.5577 30.8897 49.9606L32.8632 46.5392C32.8632 46.5392 32.9566 47.018 33.7565 47.3566C33.7448 47.4675 33.8791 48.7929 33.8791 48.7929Z" fill="#5B6670"/>
<path d="M18.2847 51.6074H17.6133V51.0645H18.927V53.6685H18.2847V51.6074Z" fill="#5B6670"/>
<path d="M19.8374 54.3632L21.2386 51.6366H19.6973V51.0645H21.8809V51.514L20.3921 54.5442L19.8374 54.3632Z" fill="#5B6670"/>
<path d="M47.8916 53.2006C48.2244 52.9496 49.2111 52.3599 49.2111 52.0037C49.2111 51.6476 49.0126 51.6417 48.7265 51.6417C48.5258 51.6538 48.3285 51.6991 48.1427 51.776L47.985 51.3323C48.2332 51.2065 48.5067 51.1386 48.7849 51.1338C49.6257 51.1338 49.8358 51.5658 49.8358 51.9862C49.8358 52.5409 49.0885 52.9963 48.6681 53.2123H49.9351V53.7144H47.8916V53.2006Z" fill="#5B6670"/>
<path d="M51.6288 53.7147H50.2275V53.2126L51.3544 51.21H52.2418V53.2126H52.7264V53.7147H52.2418V54.5905H51.658L51.6288 53.7147ZM51.6288 53.2126V51.8464L50.8581 53.2067L51.6288 53.2126Z" fill="#5B6670"/>
</g>
<defs>
<clipPath id="clip0_2030_9457">
<rect width="295.811" height="80" fill="white" transform="translate(0.599609)"/>
</clipPath>
</defs>
</svg>
