<svg width="44" height="50" viewBox="0 0 44 50" fill="none" xmlns="http://www.w3.org/2000/svg">
<g clip-path="url(#clip0_2310_11665)">
<path d="M17.6596 5.87188L17.707 5.97405C17.9146 6.37944 18.1707 6.75808 18.4697 7.10162C18.538 7.05135 18.61 7.00623 18.685 6.96661C18.7324 6.93741 18.7908 6.90822 18.8565 6.87538C19.0542 6.77792 19.2578 6.69262 19.4659 6.61994C19.9168 6.47787 20.3817 6.38488 20.8526 6.34261C20.3629 5.58975 20.0624 4.72969 19.9768 3.83568C19.9208 3.40254 19.9086 2.96488 19.9403 2.5293H19.7907C19.2517 2.52905 18.7289 2.71318 18.3091 3.05112L18.2799 3.07301C18.0129 3.29602 17.7983 3.57511 17.6513 3.89046C17.5044 4.20581 17.4287 4.54966 17.4297 4.89756C17.4415 5.09333 17.477 5.28693 17.5355 5.47412C17.5538 5.58724 17.6085 5.74051 17.6596 5.87188Z" fill="#5B6670"/>
<path d="M21.795 6.07581C21.8474 6.14252 21.9131 6.19769 21.9878 6.23787C22.0625 6.27805 22.1447 6.30239 22.2292 6.30936H22.2803C22.3655 6.30288 22.4484 6.27878 22.5238 6.23858C22.5992 6.19837 22.6654 6.14295 22.7182 6.07581C23.1301 5.64227 23.4426 5.12427 23.6341 4.55779C23.9735 3.60902 23.875 2.80622 23.4772 2.42671C23.281 2.24739 23.0358 2.13052 22.773 2.09099C22.7146 2.09099 22.6124 2.09099 22.5102 2.09099C22.7597 2.02824 22.9776 1.87646 23.123 1.66423C23.2684 1.452 23.3312 1.19395 23.2996 0.938649C23.2679 0.683351 23.1441 0.448414 22.9513 0.278057C22.7586 0.107699 22.5102 0.0136719 22.253 0.0136719C21.9957 0.0136719 21.7473 0.107699 21.5546 0.278057C21.3618 0.448414 21.238 0.683351 21.2064 0.938649C21.1748 1.19395 21.2375 1.452 21.3829 1.66423C21.5283 1.87646 21.7462 2.02824 21.9957 2.09099H21.7512C21.4899 2.13205 21.2463 2.24876 21.0506 2.42671C20.6528 2.79162 20.5543 3.60902 20.8937 4.55779C21.0795 5.12361 21.3872 5.6418 21.795 6.07581Z" fill="#5B6670"/>
<path d="M31.8652 13.0598C32.015 13.3221 32.0942 13.6188 32.0951 13.921C32.3621 13.9654 32.6133 14.0772 32.825 14.2457L32.8687 14.2019C33.4045 13.6356 33.782 12.9385 33.9635 12.1803C34.0943 11.4403 34.0544 10.6802 33.8467 9.95803V9.91789C33.9665 9.72859 34.1334 9.57361 34.331 9.46808C34.5287 9.36254 34.7503 9.31007 34.9743 9.31579C35.2119 9.31892 35.446 9.37371 35.6603 9.47635C35.8474 9.57081 36.0185 9.69393 36.1675 9.84126C36.1675 9.84126 35.5508 10.936 35.2297 11.4615C34.9915 11.8459 34.7841 12.2485 34.6094 12.6657C34.3697 13.1127 34.2657 13.62 34.3101 14.1253C34.3503 14.4902 34.5437 15.1908 34.6276 15.8951C34.7386 16.5572 34.6987 17.2357 34.5108 17.8802C35.6711 16.9962 36.5722 15.8165 37.1199 14.4647C36.9548 14.4385 36.7948 14.3868 36.6456 14.3114C36.5171 14.2405 36.395 14.1587 36.2807 14.0669C35.3866 13.3845 35.5873 12.6547 35.8792 12.3117C35.9632 12.2168 36.0471 12.1219 36.1383 12.0271C36.3609 11.7862 36.6054 11.5454 36.8682 11.2462C37.1387 10.9402 37.307 10.5576 37.3498 10.1514C37.3676 10.0306 37.3773 9.90867 37.379 9.78652C37.3992 9.3836 37.3076 8.98295 37.1144 8.62879C36.9212 8.27463 36.634 7.98072 36.2843 7.77951C36.0848 7.66774 35.8676 7.5912 35.6421 7.55327C34.8849 7.4712 34.124 7.66987 33.5037 8.11158C33.2023 8.30926 32.9522 8.57565 32.7739 8.88884C32.6388 9.55663 32.8359 9.72813 33.0402 10.4178C33.0402 10.4178 33.0402 10.4434 33.0585 10.458C33.4672 12.0198 33.2519 12.7715 31.8652 13.0598Z" fill="#5B6670"/>
<path d="M24.9937 11.6771C25.1342 11.9487 25.307 12.2023 25.5083 12.4325L25.5594 12.4836C25.7581 12.3342 25.98 12.2183 26.2162 12.1405C26.5056 12.0384 26.8054 11.9686 27.1102 11.9325C26.7828 11.4284 26.5824 10.8525 26.5264 10.254C26.4881 9.96366 26.4795 9.67021 26.5008 9.37817C26.245 9.33781 25.983 9.37999 25.7528 9.49859C25.5971 9.58157 25.4515 9.68195 25.3185 9.79782C25.1212 9.96241 24.9776 10.1823 24.9062 10.4291C24.812 10.6794 24.7868 10.9503 24.8332 11.2137C24.8765 11.3715 24.9302 11.5263 24.9937 11.6771Z" fill="#5B6670"/>
<path d="M27.1877 10.6698C27.3993 11.2646 27.7533 11.7646 28.027 11.8667C28.0646 11.885 28.1056 11.8949 28.1474 11.8959C28.4284 11.8631 28.8042 11.2938 28.9831 10.5968C29.1619 9.89987 29.0378 9.39994 28.7532 9.1664C28.686 9.11944 28.6153 9.07795 28.5415 9.04233C28.464 9.00796 28.3833 8.98108 28.3007 8.96205C28.2874 8.96417 28.2738 8.96417 28.2605 8.96205C28.3778 8.89624 28.4747 8.79929 28.5404 8.68191C28.606 8.56452 28.638 8.43127 28.6327 8.29687C28.6274 8.16246 28.5851 8.03214 28.5104 7.92027C28.4357 7.80841 28.3316 7.71936 28.2094 7.66297C28.1258 7.6254 28.0346 7.6079 27.9431 7.61188C27.7642 7.62677 27.5984 7.71192 27.4822 7.8487C27.3659 7.98548 27.3086 8.16275 27.3227 8.3417C27.3264 8.47669 27.3689 8.60775 27.4453 8.7191C27.5217 8.83045 27.6287 8.91735 27.7533 8.96935C27.5786 9.01662 27.4174 9.1041 27.2826 9.22479C27.0235 9.48752 26.9578 10.0349 27.1877 10.6698Z" fill="#5B6670"/>
<path d="M29.1133 11.8843C29.6884 11.9022 30.2567 12.0143 30.7955 12.2164L30.8357 12.2383C30.9775 12.0505 31.0998 11.8488 31.2006 11.6362C31.2799 11.4848 31.347 11.3274 31.4013 11.1654C31.4516 10.9028 31.4289 10.6315 31.3356 10.3809C31.2671 10.1336 31.1244 9.91331 30.9269 9.74959C30.7934 9.63335 30.6478 9.53181 30.4926 9.44672C30.2618 9.33002 30.0004 9.28794 29.7446 9.3263C29.7635 9.61838 29.7549 9.91159 29.719 10.2021C29.6607 10.8006 29.4592 11.3764 29.1315 11.8807L29.1133 11.8843Z" fill="#5B6670"/>
<path d="M23.6328 6.33742C24.1037 6.37969 24.5686 6.47267 25.0195 6.61475C25.2276 6.68743 25.4311 6.77273 25.6289 6.87019L25.8004 6.96141C25.8747 7.00221 25.9466 7.04729 26.0157 7.09643C26.3147 6.75289 26.5708 6.37425 26.7783 5.96886C26.7783 5.93966 26.8075 5.90317 26.8221 5.86668C26.8769 5.73531 26.928 5.58205 26.9681 5.46163C27.0176 5.26967 27.0433 5.07236 27.0447 4.87413C27.046 4.52581 26.9701 4.18153 26.8225 3.86605C26.6748 3.55056 26.4591 3.27172 26.1908 3.04958L26.1616 3.02768C25.7481 2.69366 25.2336 2.50971 24.702 2.50586H24.5524C24.5817 2.94149 24.5695 3.37893 24.5159 3.81224C24.4309 4.71318 24.1279 5.57989 23.6328 6.33742Z" fill="#5B6670"/>
<path d="M24.1551 8.61468C24.1551 8.61468 24.2463 9.07812 24.3047 9.28611H24.3594C24.7243 9.14745 25.403 8.93945 25.403 8.70956V7.97974C25.403 7.84837 25.268 7.72065 25.0381 7.61483C24.2582 7.33315 23.4332 7.1971 22.6042 7.21342H21.9911C21.1292 7.19038 20.2704 7.32772 19.4587 7.61847C19.2178 7.72795 19.0938 7.85567 19.0938 7.98338V8.7132C19.0938 8.9431 19.7907 9.1511 20.1447 9.28976H20.2031C20.2578 9.08176 20.3527 8.61833 20.3527 8.61833C20.3527 8.61833 20.2761 8.58914 20.2615 8.55994C20.2213 8.46507 20.298 8.41398 20.4293 8.341C20.5934 8.26237 20.7729 8.22124 20.9548 8.22058C21.0608 8.74137 21.0951 9.27419 21.057 9.80429C21.0095 10.899 20.8015 12.2711 20.1556 13.2052C20.4494 13.4963 20.7157 13.8139 20.9511 14.154C21.6226 12.8659 21.7284 11.4537 21.7868 10.0013C21.8123 9.36275 21.7868 8.61468 21.7868 8.10016C21.8488 8.10016 22.0568 8.07461 22.2648 8.07461C22.4728 8.07461 22.6772 8.10016 22.7392 8.10016C22.7392 8.61468 22.7137 9.36275 22.7392 10.0013C22.7976 11.4792 22.9034 12.9206 23.6077 14.2233C23.8241 13.8987 24.0683 13.5934 24.3375 13.3111L24.3849 13.2454C23.7172 12.3076 23.5092 10.9136 23.4581 9.80429C23.4211 9.27403 23.4567 8.7412 23.5639 8.22058C23.7457 8.22207 23.925 8.26316 24.0894 8.341C24.2171 8.41398 24.2974 8.46507 24.2536 8.55994C24.2317 8.58549 24.1551 8.61468 24.1551 8.61468Z" fill="#5B6670"/>
<path d="M33.2279 18.9424H33.1695H33.0564C32.6962 18.9748 32.3332 18.9313 31.9909 18.8146C31.8222 18.7517 31.6636 18.6644 31.5201 18.5555C31.4837 18.5264 31.0932 18.1906 31.0239 18.114C30.6475 17.7463 30.1696 17.4997 29.6518 17.4061C29.1434 17.3881 28.6394 17.5065 28.1922 17.7491C28.1713 17.7585 28.1532 17.7732 28.1398 17.7918C28.1263 17.8104 28.118 17.8321 28.1155 17.8549C28.1138 17.8796 28.1199 17.9042 28.133 17.9252C28.1461 17.9462 28.1656 17.9625 28.1885 17.9717C28.2052 17.9768 28.223 17.9768 28.2396 17.9717C28.6683 18.0015 29.0927 18.0761 29.5058 18.1943C29.7975 18.2706 30.0748 18.3939 30.3269 18.5592C30.6334 18.7745 30.8998 19.0518 31.0567 19.1649C31.2648 19.3193 31.5 19.4331 31.75 19.5007C32.0271 19.5457 32.3106 19.532 32.582 19.4605H32.6149C32.6857 19.4406 32.7552 19.4162 32.8229 19.3875C32.9165 19.3531 33.0069 19.3104 33.0929 19.2598C33.1496 19.2318 33.2045 19.2001 33.2571 19.1649C33.276 19.1509 33.2904 19.1316 33.2985 19.1095C33.3065 19.0874 33.3079 19.0634 33.3025 19.0405C33.297 19.0176 33.285 18.9967 33.2679 18.9806C33.2507 18.9645 33.2292 18.9537 33.206 18.9497L33.2279 18.9424Z" fill="#5B6670"/>
<path d="M31.5043 14.8231C31.5505 14.9274 31.6301 15.0134 31.7306 15.0676C32.0663 15.261 32.1831 15.5456 31.6831 15.604C31.3182 15.6478 30.9533 15.4033 29.5995 15.7755C28.8195 16.0667 28.1193 16.5381 27.556 17.1512C27.4508 17.2673 27.3521 17.3891 27.2604 17.5161C27.1058 17.7348 27.0249 17.997 27.0295 18.2647C27.0341 18.5325 27.1239 18.7918 27.286 19.005C27.4271 19.1844 27.593 19.3429 27.7786 19.4757C28.1313 19.7235 28.5518 19.8565 28.9828 19.8565C29.4138 19.8565 29.8343 19.7235 30.187 19.4757C30.2819 19.3808 30.2892 19.3407 30.2709 19.3152C29.989 19.4436 29.6831 19.5108 29.3733 19.5122C29.0803 19.517 28.7896 19.4611 28.5194 19.348C28.1696 19.1902 27.8712 18.9373 27.6582 18.6182C27.5819 18.489 27.5473 18.3395 27.5591 18.19C27.5708 18.0405 27.6284 17.8982 27.7239 17.7825C27.9202 17.5483 28.1431 17.3377 28.388 17.1549C28.8958 16.7696 29.5132 16.5562 30.1505 16.5455H30.198C30.528 16.5463 30.8558 16.6005 31.1686 16.706C31.3214 16.7555 31.4703 16.8165 31.6138 16.8885C32.0465 17.1087 32.4215 17.4274 32.7085 17.819C32.8591 17.5482 32.9732 17.2586 33.0479 16.9578L33.1026 16.7389C33.2523 16.0784 33.2085 14.5494 31.7488 14.5494C31.7222 14.546 31.6952 14.546 31.6685 14.5494C31.5116 14.6516 31.4751 14.7355 31.5043 14.8231Z" fill="#5B6670"/>
<path d="M7.51582 11.2469C7.77125 11.5462 8.01209 11.787 8.24564 12.0278L8.50472 12.3125C8.79665 12.6555 8.99735 13.3853 8.09967 14.0677C7.98654 14.1612 7.86429 14.2431 7.73476 14.3122C7.58707 14.3881 7.42813 14.4399 7.26403 14.4654C7.80418 15.8146 8.69638 16.9941 9.84759 17.881H9.87314C9.68503 17.2276 9.64884 16.5399 9.76731 15.8703C9.85124 15.1661 10.0446 14.4654 10.0848 14.1005C10.1277 13.5949 10.0225 13.0877 9.78191 12.6409C9.59877 12.2279 9.38533 11.8291 9.14331 11.4476C8.82219 10.9258 8.2055 9.82743 8.2055 9.82743C8.35452 9.68011 8.52566 9.55698 8.71272 9.46252C8.92705 9.35989 9.16114 9.3051 9.39875 9.30196C9.62254 9.29732 9.84376 9.35025 10.0412 9.45568C10.2387 9.56111 10.4057 9.71551 10.5263 9.90406C10.5263 9.90406 10.5263 9.93326 10.5263 9.9442C10.322 10.667 10.2834 11.4267 10.4132 12.1665C10.5932 12.9252 10.9709 13.6227 11.5079 14.1881L11.5517 14.2319C11.7631 14.0628 12.0144 13.9509 12.2815 13.9071C12.2825 13.605 12.3617 13.3083 12.5114 13.0459C11.1248 12.7504 10.9095 12.0059 11.3291 10.4697C11.3337 10.4557 11.3398 10.4422 11.3474 10.4295C11.5481 9.73985 11.7488 9.56835 11.6138 8.90056C11.4354 8.58737 11.1853 8.32098 10.8839 8.1233C10.2636 7.68158 9.50268 7.48292 8.74556 7.56499C8.5199 7.60227 8.30253 7.67885 8.10332 7.79123C7.75366 7.99244 7.46638 8.28635 7.2732 8.64051C7.08002 8.99467 6.98845 9.39532 7.00859 9.79824C7.01028 9.92039 7.02004 10.0423 7.03778 10.1631C7.08174 10.565 7.24869 10.9435 7.51582 11.2469Z" fill="#5B6670"/>
<path d="M17.2559 11.9353C17.5619 11.9712 17.8629 12.0409 18.1535 12.1433C18.3892 12.2222 18.6109 12.338 18.8104 12.4863C18.8271 12.4701 18.8429 12.4531 18.8578 12.4352C19.0564 12.204 19.2255 11.949 19.3614 11.6762C19.4272 11.523 19.4833 11.3657 19.5292 11.2055C19.5768 10.9424 19.5529 10.6715 19.4599 10.4209C19.3914 10.1736 19.2488 9.95333 19.0512 9.78961C18.9224 9.67415 18.7817 9.57263 18.6316 9.48673C18.4013 9.36838 18.1393 9.32621 17.8835 9.36631C17.9024 9.6584 17.8939 9.95161 17.858 10.2421C17.7994 10.8474 17.5926 11.4289 17.2559 11.9353Z" fill="#5B6670"/>
<path d="M16.2223 11.8965C16.264 11.8947 16.3049 11.8848 16.3427 11.8673C16.6164 11.7615 16.9667 11.2652 17.182 10.6704C17.3973 10.0756 17.3426 9.48079 17.0762 9.21075C16.9419 9.08927 16.7805 9.00169 16.6055 8.95531C16.7324 8.90435 16.8418 8.8175 16.9202 8.70539C16.9986 8.59328 17.0427 8.46076 17.047 8.32402C17.0601 8.1447 17.0019 7.96744 16.8851 7.83079C16.7683 7.69413 16.6022 7.6091 16.423 7.5942C16.3327 7.59065 16.2427 7.60814 16.1603 7.64529C16.04 7.7024 15.9376 7.79134 15.8643 7.90246C15.7909 8.01359 15.7493 8.14267 15.7441 8.27573C15.7388 8.40878 15.77 8.54074 15.8344 8.65732C15.8988 8.77389 15.9938 8.87063 16.1092 8.93707C16.0959 8.93871 16.0824 8.93871 16.0691 8.93707C15.9056 8.97291 15.7515 9.04252 15.6166 9.14142C15.3319 9.37496 15.2152 9.91868 15.3867 10.5719C15.5582 11.2251 15.9413 11.8636 16.2223 11.8965Z" fill="#5B6670"/>
<path d="M13.1576 11.6364C13.2571 11.8498 13.3794 12.0516 13.5225 12.2385L13.5626 12.2166C14.1014 12.0146 14.6697 11.9024 15.2449 11.8846C14.9174 11.3805 14.7171 10.8045 14.661 10.206C14.6251 9.9155 14.6166 9.62229 14.6355 9.3302C14.3797 9.29185 14.1183 9.33393 13.8874 9.45062C13.7317 9.53482 13.586 9.63643 13.4532 9.7535C13.2558 9.91809 13.1122 10.1379 13.0408 10.3848C12.9507 10.6361 12.928 10.9066 12.9751 11.1694C13.0243 11.3294 13.0853 11.4855 13.1576 11.6364Z" fill="#5B6670"/>
<path d="M16.1493 17.9971C16.166 18.0022 16.1838 18.0022 16.2004 17.9971C16.2231 17.9874 16.2422 17.971 16.2553 17.9502C16.2683 17.9293 16.2746 17.9049 16.2734 17.8803C16.271 17.8575 16.2626 17.8358 16.2492 17.8172C16.2357 17.7986 16.2177 17.7839 16.1968 17.7745C15.7496 17.5319 15.2456 17.4135 14.7371 17.4315C14.2191 17.5243 13.741 17.771 13.3651 18.1394C13.2957 18.2051 12.9016 18.5517 12.8688 18.5809C12.7254 18.6898 12.5668 18.7771 12.3981 18.84C12.0545 18.9569 11.6903 19.0004 11.3289 18.9677H11.2194H11.1501C11.1239 18.9725 11.1 18.9859 11.0821 19.0057C11.0643 19.0255 11.0535 19.0506 11.0516 19.0772C11.0492 19.0975 11.0523 19.118 11.0607 19.1367C11.069 19.1553 11.0823 19.1713 11.099 19.183C11.1516 19.2182 11.2065 19.2499 11.2632 19.2779C11.3483 19.3278 11.4374 19.3705 11.5296 19.4056C11.5989 19.4312 11.6683 19.4604 11.7376 19.4786H11.7741C12.0455 19.5502 12.329 19.5639 12.6061 19.5188C12.8562 19.4512 13.0913 19.3374 13.2994 19.183C13.4746 19.0699 13.7373 18.7926 14.0292 18.5773C14.283 18.4126 14.5614 18.2894 14.8539 18.2124C15.2768 18.0944 15.7111 18.0222 16.1493 17.9971Z" fill="#5B6670"/>
<path d="M11.2667 16.7848L11.3215 17.0038C11.3949 17.3096 11.509 17.6041 11.6608 17.8796C11.9485 17.4885 12.3233 17.1699 12.7556 16.949C12.9004 16.877 13.0504 16.816 13.2044 16.7666C13.5158 16.6607 13.8425 16.6065 14.1714 16.606H14.2225C14.8598 16.6167 15.4772 16.8302 15.985 17.2154C16.2287 17.3984 16.4504 17.609 16.6455 17.8431C16.7416 17.9583 16.7997 18.1004 16.8121 18.2499C16.8246 18.3995 16.7906 18.5492 16.7148 18.6787C16.501 18.9971 16.2028 19.2498 15.8536 19.4085C15.5747 19.5222 15.2756 19.578 14.9745 19.5723C14.6733 19.5667 14.3765 19.4998 14.1021 19.3757C14.1021 19.4012 14.1021 19.4414 14.186 19.5363C14.5387 19.7841 14.9592 19.917 15.3902 19.917C15.8212 19.917 16.2417 19.7841 16.5944 19.5363C16.7786 19.403 16.9432 19.2445 17.0834 19.0655C17.2465 18.853 17.3373 18.5938 17.3426 18.3259C17.3478 18.058 17.2672 17.7955 17.1126 17.5767C17.0207 17.4272 16.9183 17.2846 16.8061 17.1497C16.2443 16.5365 15.5453 16.0651 14.7662 15.774C13.4233 15.4091 13.0438 15.6463 12.6789 15.6025C12.1826 15.5441 12.314 15.2595 12.6315 15.0661C12.7329 15.0121 12.8138 14.9262 12.8614 14.8216C12.8906 14.734 12.8614 14.6501 12.6972 14.61C12.6705 14.6066 12.6435 14.6066 12.6169 14.61C11.1609 14.5954 11.1171 16.1243 11.2667 16.7848Z" fill="#5B6670"/>
<path d="M23.0098 24.4232C23.1498 24.5778 23.2467 24.7666 23.2907 24.9705C23.2907 24.9997 24.0206 24.1933 24.0206 24.1933V23.416L23.2397 23.7444L23.0098 24.4232Z" fill="#5B6670"/>
<path d="M18.2426 44.7932C18.5878 44.7 18.9277 44.5879 19.2607 44.4575C19.434 44.3919 19.6033 44.3164 19.7679 44.2312C19.9436 44.1454 20.112 44.0453 20.2715 43.932C20.4363 43.8147 20.5838 43.6746 20.7093 43.516C20.7738 43.4348 20.8288 43.3467 20.8736 43.2532C20.8955 43.2058 20.9173 43.1547 20.9356 43.1073L20.9648 42.9796C20.9758 42.9346 20.9686 42.887 20.9446 42.8474C20.9207 42.8077 20.882 42.7791 20.8371 42.7679C20.8039 42.757 20.7681 42.757 20.7349 42.7679C20.7036 42.7764 20.6756 42.7943 20.6546 42.819C20.5592 42.9327 20.4428 43.0269 20.3116 43.0963C20.1855 43.1611 20.0536 43.2136 19.9175 43.2532C19.614 43.3314 19.3056 43.3887 18.9943 43.4248C18.6768 43.4649 18.3338 43.4977 18.02 43.5306C17.7061 43.5634 17.3814 43.5744 17.0566 43.5853L16.0458 43.6182C15.6641 43.6274 15.2841 43.6727 14.9109 43.7532C14.7374 43.7903 14.5685 43.8466 14.4073 43.921C14.3459 43.949 14.2862 43.9807 14.2285 44.0159C13.9768 44.1685 13.7771 44.3937 13.6556 44.6618C13.5494 44.9025 13.5201 45.1701 13.5717 45.4281C13.6157 45.6521 13.7234 45.8586 13.8819 46.0229C13.9128 46.0549 13.9527 46.0769 13.9963 46.086C14.0399 46.0951 14.0852 46.0909 14.1264 46.074C14.1628 46.0531 14.197 46.0287 14.2285 46.001C14.4857 45.6455 14.8503 45.3819 15.2685 45.2493C15.7721 45.1325 16.491 45.0997 17.1843 44.9975C17.5405 44.9484 17.8937 44.8802 18.2426 44.7932Z" fill="#5B6670"/>
<path d="M15.0807 42.8486C15.0787 42.8707 15.0813 42.8931 15.0882 42.9142C15.0951 42.9354 15.1062 42.9549 15.1209 42.9716C15.1355 42.9883 15.1535 43.0019 15.1735 43.0115C15.1936 43.0211 15.2154 43.0265 15.2377 43.0274C15.2753 43.0307 15.3129 43.0203 15.3435 42.9982L15.3982 42.9617C15.4752 42.909 15.5571 42.8638 15.6427 42.8267C15.8728 42.725 16.121 42.6704 16.3725 42.6661C16.74 42.662 17.1069 42.6962 17.4673 42.7683C17.922 42.8518 18.3856 42.8763 18.8466 42.8413C19.0933 42.8216 19.3377 42.7789 19.5764 42.7136C19.702 42.6739 19.8241 42.6239 19.9413 42.5639C20.0973 42.4999 20.2262 42.3839 20.3063 42.2355C20.3141 42.2191 20.3185 42.2012 20.3193 42.1829C20.32 42.1647 20.3171 42.1465 20.3106 42.1295C20.3041 42.1124 20.2942 42.0969 20.2816 42.0837C20.2689 42.0706 20.2537 42.0602 20.2369 42.0531H20.2077C20.2077 42.0531 19.726 41.9655 19.5436 41.8925L18.9415 41.7356C18.5255 41.6334 18.1314 41.5458 17.6898 41.4729C17.17 41.3725 16.6327 41.4154 16.1353 41.5969C16.0692 41.6224 16.0047 41.6516 15.9419 41.6845C15.7106 41.7884 15.5098 41.95 15.359 42.1538C15.2082 42.3577 15.1124 42.597 15.0807 42.8486Z" fill="#5B6670"/>
<path d="M15.7593 41.1756L16.1899 41.026C16.1899 41.026 14.5587 40.4312 15.4892 39.3766V39.3365C15.3339 39.3122 15.1748 39.3311 15.0294 39.3912C14.8859 39.454 14.7604 39.5519 14.6645 39.6758C14.2193 40.2269 14.8324 40.8253 14.847 40.8363C14.7558 40.8363 14.5368 40.7998 14.4456 40.7888C14.0515 40.5188 13.3946 39.851 14.3361 38.4388H14.2522C14.1169 38.4318 13.9819 38.4568 13.8581 38.5118C13.786 38.5372 13.7154 38.5664 13.6464 38.5994C13.4162 38.6994 13.2194 38.8632 13.0791 39.0713C12.9388 39.2795 12.8609 39.5234 12.8546 39.7744C12.8552 39.9761 12.9067 40.1744 13.0042 40.3509C13.0724 40.4798 13.1626 40.5959 13.2706 40.6939C13.2012 40.6939 12.9057 40.6684 12.829 40.6465C12.664 40.4818 12.533 40.2861 12.4437 40.0707C12.3543 39.8553 12.3083 39.6244 12.3083 39.3912C12.3083 39.158 12.3543 38.9271 12.4437 38.7117C12.533 38.4963 12.664 38.3006 12.829 38.1359H12.7561C12.6208 38.1289 12.4858 38.1539 12.362 38.2089C12.2818 38.2403 12.2038 38.2768 12.1284 38.3184C11.9015 38.4535 11.7129 38.6446 11.5807 38.8732C11.4484 39.1019 11.377 39.3606 11.373 39.6248C11.3833 39.8745 11.4338 40.1209 11.5227 40.3546C12.1357 41.8179 14.982 41.369 15.7593 41.1756Z" fill="#5B6670"/>
<path d="M30.265 44.0201C30.2073 43.9849 30.1476 43.9532 30.0862 43.9252C29.924 43.8502 29.7538 43.7939 29.5789 43.7573C29.2058 43.6764 28.8258 43.6312 28.4441 43.6223L27.4369 43.5895C27.1085 43.5895 26.7874 43.5639 26.4736 43.5347C26.1597 43.5055 25.8167 43.4691 25.4992 43.4289C25.1893 43.3939 24.882 43.3378 24.5797 43.2611C24.4436 43.2215 24.3116 43.1689 24.1856 43.1041C24.0544 43.0347 23.9379 42.9405 23.8426 42.8268C23.8216 42.8021 23.7936 42.7843 23.7623 42.7757C23.7291 42.7649 23.6933 42.7649 23.6601 42.7757C23.6151 42.7869 23.5765 42.8155 23.5525 42.8552C23.5286 42.8948 23.5214 42.9424 23.5324 42.9874L23.5616 43.1151C23.5616 43.1625 23.6017 43.2136 23.6236 43.2611C23.6683 43.3545 23.7234 43.4426 23.7878 43.5238C23.9134 43.6824 24.0608 43.8225 24.2257 43.9398C24.3851 44.0531 24.5535 44.1532 24.7293 44.239C24.8929 44.3235 25.061 44.399 25.2329 44.4653C25.566 44.5952 25.9059 44.7072 26.251 44.801C26.601 44.8889 26.9555 44.9583 27.3129 45.009C28.0062 45.1112 28.7251 45.144 29.2286 45.2608C29.6442 45.3948 30.0061 45.6582 30.2613 46.0125C30.2929 46.0401 30.3271 46.0646 30.3635 46.0855C30.4047 46.1024 30.45 46.1065 30.4936 46.0974C30.5372 46.0883 30.577 46.0664 30.608 46.0344C30.7665 45.8701 30.8742 45.6636 30.9182 45.4396C30.9698 45.1816 30.9405 44.914 30.8342 44.6733C30.715 44.4029 30.5165 44.1752 30.265 44.0201Z" fill="#5B6670"/>
<path d="M24.5459 42.5561C24.6635 42.6153 24.7855 42.6654 24.9108 42.7057C25.1495 42.7711 25.3939 42.8138 25.6406 42.8335C26.1016 42.8685 26.5652 42.844 27.02 42.7605C27.3803 42.6882 27.7472 42.654 28.1147 42.6583C28.3662 42.663 28.6143 42.7176 28.8445 42.8189C28.9301 42.856 29.012 42.9012 29.089 42.9539L29.1401 42.9904C29.1704 43.0132 29.2082 43.0236 29.2459 43.0196C29.2681 43.0187 29.29 43.0133 29.31 43.0037C29.3301 42.9941 29.348 42.9805 29.3627 42.9638C29.3774 42.9471 29.3885 42.9276 29.3954 42.9064C29.4023 42.8853 29.4048 42.8629 29.4028 42.8408C29.3712 42.5891 29.2754 42.3499 29.1246 42.146C28.9737 41.9422 28.773 41.7805 28.5416 41.6767C28.4789 41.6438 28.4143 41.6146 28.3482 41.5891C27.8509 41.4076 27.3136 41.3647 26.7937 41.4651C26.3522 41.538 25.9581 41.6256 25.5421 41.7278L24.9363 41.8847C24.7429 41.9394 24.2685 42.027 24.2685 42.027H24.2357C24.2192 42.0345 24.2044 42.0451 24.1921 42.0584C24.1798 42.0717 24.1704 42.0873 24.1642 42.1043C24.1581 42.1214 24.1555 42.1394 24.1565 42.1575C24.1574 42.1756 24.1621 42.1932 24.17 42.2095C24.2494 42.3666 24.3829 42.4897 24.5459 42.5561Z" fill="#5B6670"/>
<path d="M32.3621 38.3145C32.2867 38.2729 32.2087 38.2363 32.1286 38.205C32.0048 38.15 31.8697 38.125 31.7345 38.132H31.6615C31.9939 38.4652 32.1807 38.9166 32.1807 39.3873C32.1807 39.858 31.9939 40.3094 31.6615 40.6426C31.5921 40.6645 31.2966 40.6827 31.2199 40.69C31.3279 40.592 31.4181 40.4759 31.4863 40.347C31.5838 40.1705 31.6353 39.9722 31.6359 39.7705C31.6302 39.5217 31.5542 39.2797 31.4166 39.0724C31.2791 38.8651 31.0856 38.701 30.8587 38.5991C30.7897 38.5662 30.7191 38.5369 30.647 38.5115C30.5232 38.4565 30.3882 38.4315 30.2529 38.4385H30.1799C31.1214 39.8507 30.4646 40.5185 30.0705 40.7886C29.9792 40.7886 29.7603 40.8323 29.6691 40.836C29.6691 40.836 30.2967 40.2266 29.8515 39.6756C29.7557 39.5516 29.6302 39.4537 29.4866 39.391C29.3413 39.3309 29.1822 39.312 29.0268 39.3362V39.3764C29.9573 40.4309 28.3189 41.0258 28.3262 41.0258L28.7568 41.1754C29.5268 41.3688 32.3803 41.8176 32.9825 40.3397C33.0713 40.1061 33.1218 39.8596 33.1321 39.6099C33.1248 39.3462 33.0502 39.0888 32.9155 38.8621C32.7807 38.6354 32.5902 38.4469 32.3621 38.3145Z" fill="#5B6670"/>
<path d="M24.9069 33.973C24.8874 33.953 24.8616 33.9401 24.8339 33.9365C24.8117 33.9274 24.7868 33.9274 24.7646 33.9365C24.6489 34.0071 24.5464 34.0972 24.4617 34.2029C24.394 34.2911 24.3388 34.388 24.2975 34.4912C24.2539 34.5845 24.2386 34.6885 24.2537 34.7904C24.2863 34.9249 24.3651 35.0437 24.4763 35.1261C24.549 35.1718 24.6367 35.1875 24.7208 35.1699C24.8542 35.135 24.9707 35.0535 25.0492 34.94C25.1021 34.8522 25.1275 34.7505 25.1222 34.6481C25.1274 34.3992 25.0476 34.1559 24.8959 33.9584L24.9069 33.973Z" fill="#5B6670"/>
<path d="M25.1471 28.1564L25.0997 28.1856C24.8833 28.277 24.6816 28.4 24.5012 28.5505C23.7057 29.2219 23.0416 30.4772 22.7241 31.9843C22.4395 33.4439 22.5745 34.7649 23.0087 35.6553C23.1106 35.9244 23.2765 36.1647 23.492 36.3555C23.7075 36.5462 23.9662 36.6816 24.2458 36.75C24.5308 36.7776 24.8184 36.7396 25.0866 36.6391C25.3547 36.5385 25.5963 36.378 25.793 36.1698C26.6912 35.249 27.2848 34.0746 27.4935 32.8053C27.7854 31.3201 27.6358 29.9371 27.165 29.0467C27.0564 28.8 26.8916 28.5821 26.6838 28.4104C26.476 28.2387 26.2309 28.118 25.9681 28.0578C25.6906 28.0137 25.4063 28.0478 25.1471 28.1564ZM23.4576 32.0645C23.4576 31.9624 23.5378 31.6668 23.5597 31.5683C23.61 31.6736 23.6867 31.7641 23.7823 31.831C23.8882 31.9112 24.0148 31.9594 24.1472 31.9697C24.0635 31.8416 24.0076 31.6974 23.983 31.5464C23.9666 31.3548 24.0086 31.1627 24.1034 30.9954C24.1801 31.1194 24.545 32.0098 24.6873 32.3054C24.6611 32.3869 24.6392 32.4697 24.6216 32.5535L24.5997 32.6995V32.7798C24.5778 32.7798 23.578 34.0168 23.3371 34.2394C23.2482 33.513 23.289 32.7767 23.4576 32.0645ZM24.4319 35.9837C24.1798 35.9494 23.9508 35.8186 23.7933 35.6188C23.6047 35.4151 23.4781 35.162 23.4284 34.889L24.6362 33.4293C24.6515 33.4872 24.6808 33.5405 24.7215 33.5844C24.7622 33.6283 24.8132 33.6615 24.8698 33.6811C24.9363 33.6868 25.0031 33.6742 25.0629 33.6446C25.1228 33.615 25.1733 33.5696 25.2091 33.5132C25.2383 33.5899 25.9389 34.8817 25.9645 34.9035C25.5631 35.6224 24.8844 36.0421 24.4319 35.9837ZM26.7892 32.8418C26.7482 33.0968 26.6872 33.3481 26.6067 33.5935C26.5337 33.8222 26.4471 34.0464 26.3476 34.265C26.0522 33.8287 25.7806 33.3767 25.5339 32.9111C25.5339 32.8564 25.5631 32.8053 25.574 32.7506C25.5948 32.6459 25.607 32.5397 25.6105 32.4331C25.9499 32.101 26.271 31.7033 26.6104 31.3384C26.6574 31.3942 26.6907 31.4602 26.7078 31.5311C26.7249 31.602 26.7253 31.676 26.7089 31.7471C26.665 31.9145 26.5644 32.0615 26.4243 32.1631C26.5937 32.1909 26.7675 32.1733 26.9279 32.112C26.906 32.2944 26.8257 32.6265 26.7892 32.8418ZM26.344 29.127C26.4052 29.1831 26.4602 29.2454 26.5082 29.3131C26.5236 29.3409 26.5406 29.3677 26.5593 29.3934L26.6177 29.5138C26.7263 29.7462 26.8047 29.9914 26.8512 30.2436C26.8029 30.2278 26.7525 30.2192 26.7016 30.2181C26.5633 30.2066 26.4241 30.2225 26.292 30.265C26.1599 30.3074 26.0374 30.3755 25.9316 30.4653C25.8259 30.5551 25.7389 30.6649 25.6756 30.7885C25.6124 30.912 25.5741 31.0468 25.5631 31.1851C25.6815 31.0957 25.8133 31.0255 25.9535 30.9771C26.0745 30.9589 26.1975 30.9589 26.3185 30.9771C26.0703 31.2836 25.8003 31.5756 25.5229 31.8638C25.5061 31.8079 25.4761 31.7569 25.4355 31.715C25.3949 31.6731 25.3448 31.6415 25.2894 31.623C25.2257 31.6181 25.1619 31.6301 25.1042 31.6576C25.0466 31.6851 24.9972 31.7273 24.961 31.7799C24.8479 31.5281 24.5961 30.9005 24.5413 30.7545C24.6656 30.7439 24.7906 30.7627 24.9062 30.8093C25.0469 30.8879 25.1709 30.9933 25.2712 31.1194C25.2918 30.9233 25.2745 30.7251 25.2201 30.5356C25.1717 30.3768 25.0758 30.2368 24.9453 30.1343C24.8148 30.0318 24.6559 29.9719 24.4903 29.9627C24.4152 29.9517 24.339 29.9517 24.264 29.9627C24.5006 29.5562 24.8421 29.2209 25.2529 28.992C25.1398 29.7182 26.1396 29.8641 26.344 29.127Z" fill="#5B6670"/>
<path d="M43.6416 24.8941C43.6027 24.768 43.516 24.6622 43.4 24.5994C43.284 24.5367 43.148 24.5219 43.0212 24.5583H42.9993C42.4337 24.7262 41.8426 24.9232 41.2624 25.0364L40.3902 25.2444C40.102 25.3028 39.8173 25.3538 39.5035 25.394C38.8941 25.4779 38.2847 25.5436 37.6789 25.5983C37.2885 25.6312 36.8871 25.6567 36.4966 25.675L36.6681 25.6275C36.836 25.5837 37.0039 25.5326 37.1681 25.4816C37.5001 25.3794 37.8213 25.2663 38.1424 25.1495C38.7846 24.9159 39.405 24.6605 40.0253 24.3905C40.6657 24.128 41.2833 23.8132 41.8718 23.449C42.4563 23.0795 43.0027 22.6529 43.5029 22.1755C43.5808 22.0989 43.6313 21.9987 43.6465 21.8905C43.6616 21.7823 43.6407 21.6721 43.5868 21.577C43.5359 21.4917 43.4611 21.4231 43.3715 21.38C43.3 21.3407 43.2197 21.3201 43.138 21.3201C43.0564 21.3201 42.976 21.3407 42.9045 21.38C42.368 21.6901 41.8097 22.0076 41.2332 22.2776C40.6748 22.5677 40.0983 22.8212 39.5071 23.0367C38.8977 23.2483 38.2811 23.4454 37.6826 23.6169C37.3761 23.7044 37.0659 23.7847 36.7594 23.8541L36.555 23.8978C36.7119 23.8322 36.8616 23.7628 37.0112 23.6935C37.3432 23.5293 37.6644 23.3541 37.9782 23.1753C38.6058 22.8104 39.2043 22.4273 39.8027 22.0259C40.4157 21.6291 40.9921 21.1785 41.5251 20.6793C42.0515 20.1751 42.527 19.6201 42.9446 19.0226C43.0048 18.9309 43.0332 18.8218 43.0252 18.7124C43.0173 18.6029 42.9736 18.4991 42.9008 18.4169C42.8542 18.3676 42.7985 18.3279 42.7366 18.3001C42.6487 18.2588 42.5505 18.2443 42.4544 18.2586C42.3583 18.2729 42.2686 18.3153 42.1965 18.3804C41.7185 18.8146 41.2003 19.2671 40.6712 19.6649C40.1579 20.0817 39.6152 20.4609 39.0474 20.7998C38.9415 20.8654 38.8321 20.9238 38.7226 20.9859C38.2409 21.2595 37.7556 21.5223 37.263 21.7558C37.1681 21.8045 37.0732 21.8483 36.9783 21.8872C36.7995 21.9711 36.6134 22.0478 36.4419 22.1207L36.5404 22.0551C36.7472 21.9067 36.9479 21.7534 37.1425 21.5953C37.2484 21.5077 37.3578 21.4238 37.46 21.3362C38.0366 20.8472 38.5547 20.329 39.0839 19.8036H39.1057C39.6274 19.2712 40.1024 18.695 40.5252 18.0812C40.9596 17.446 41.3265 16.7672 41.62 16.0559C41.6633 15.9541 41.6703 15.8405 41.6397 15.7342C41.6091 15.6279 41.5429 15.5353 41.4521 15.4721C41.3995 15.435 41.34 15.4088 41.2771 15.3948C41.2143 15.3808 41.1493 15.3794 41.0859 15.3905C41.0225 15.4017 40.9619 15.4253 40.9077 15.46C40.8534 15.4946 40.8066 15.5397 40.7697 15.5925C40.3756 16.1508 39.9414 16.7274 39.4853 17.2565C39.3502 17.417 39.2152 17.574 39.0766 17.7309C38.7609 18.0999 38.4221 18.4485 38.0621 18.7745C37.8833 18.9314 37.6972 19.0847 37.5184 19.2379C37.1863 19.5189 36.8543 19.789 36.5149 20.0444L36.6718 19.84C36.9528 19.4532 37.2119 19.0591 37.46 18.665C37.6315 18.3914 37.7994 18.114 37.9599 17.8367C38.235 17.3662 38.4824 16.8801 38.7007 16.3807C38.8029 16.1545 38.8977 15.9246 38.9853 15.691C39.2661 14.9364 39.469 14.1551 39.5911 13.3592C39.6068 13.2475 39.5834 13.1338 39.5249 13.0374C39.4664 12.941 39.3763 12.8677 39.27 12.8301C39.148 12.7868 39.0138 12.7936 38.8969 12.849C38.7799 12.9044 38.6897 13.0039 38.646 13.1257V13.1512C38.438 13.7315 38.1898 14.3336 37.9161 14.9101C37.876 15.0013 37.8359 15.0962 37.7921 15.1874C37.4985 15.8152 37.167 16.4245 36.7995 17.012C36.7776 17.0485 36.7594 17.085 36.7375 17.1178C36.4565 17.5265 36.1682 17.9206 35.8726 18.3074C34.9176 19.2949 33.8084 20.1206 32.5885 20.7523C32.1798 20.9494 31.7674 21.2194 31.3514 21.4238H31.3295C31.0472 21.5563 30.8163 21.7782 30.6727 22.0551C30.637 22.1257 30.6065 22.1989 30.5814 22.274C30.5348 22.4116 30.5102 22.5557 30.5085 22.7009C30.5062 22.9594 30.5725 23.2138 30.7007 23.4382C30.8289 23.6626 31.0145 23.8489 31.2383 23.9781C31.3855 24.0574 31.5492 24.1011 31.7163 24.1058L31.7674 24.084C31.8509 24.0781 31.9315 24.0504 32.0009 24.0037C32.0009 24.0037 31.8842 23.6935 32.063 23.5512C32.0921 23.532 32.1226 23.5149 32.1542 23.5001C32.2393 23.4623 32.3312 23.4425 32.4242 23.4417C32.5926 23.4385 32.7558 23.5005 32.8796 23.6147C33.0034 23.7289 33.0783 23.8865 33.0887 24.0546C33.099 24.2227 33.044 24.3883 32.9352 24.5169C32.8263 24.6454 32.672 24.727 32.5045 24.7444C32.3071 24.7969 32.1028 24.819 31.8988 24.8101C31.5315 24.8104 31.1649 24.7762 30.804 24.7079C30.3313 24.6202 29.8715 24.473 29.4356 24.2701C28.9119 24.0019 28.4219 23.6724 27.976 23.2884C26.9807 22.3697 26.3891 21.0947 26.3302 19.7415C26.3302 19.6795 26.3302 19.6138 26.3302 19.5518C26.3307 19.3468 26.3441 19.142 26.3704 18.9387C26.4869 17.9867 26.866 17.0859 27.4651 16.3369C27.5016 16.2931 27.6731 16.107 27.8884 15.8917L27.9285 15.8516C28.168 15.6079 28.4294 15.3868 28.7095 15.1911C28.6838 15.172 28.6594 15.1513 28.6365 15.1291L28.5562 15.0451C28.4058 15.0529 28.2566 15.0139 28.1292 14.9336C28.0018 14.8532 27.9024 14.7354 27.8446 14.5963C27.8446 14.5963 27.8446 14.5963 27.8446 14.578C27.8432 14.5635 27.8432 14.5488 27.8446 14.5343C27.829 14.4339 27.829 14.3317 27.8446 14.2314C27.8787 14.0755 27.9543 13.9317 28.0636 13.8154C28.1074 13.7716 28.1475 13.7314 28.1913 13.695C28.3165 13.6002 28.461 13.5342 28.6146 13.5016C28.6552 13.4904 28.6967 13.4831 28.7386 13.4797C28.9457 13.4465 29.1579 13.4848 29.3403 13.5882C29.5227 13.6917 29.6644 13.8542 29.7422 14.0489C29.6548 14.0754 29.5658 14.0962 29.4758 14.111C29.449 14.0329 29.3965 13.9662 29.3269 13.9218C29.2573 13.8774 29.1747 13.8579 29.0926 13.8665C29.0327 13.8719 28.9738 13.8854 28.9175 13.9066C28.8798 13.9207 28.8452 13.9418 28.8153 13.9686C28.5452 14.1985 28.7824 14.7787 29.1583 14.8189C29.2212 14.8257 29.2848 14.8182 29.3444 14.797C29.9442 14.624 30.5534 14.4851 31.169 14.381C31.2894 14.3627 31.3988 14.3481 31.4791 14.3445C31.5611 14.0104 31.5266 13.6582 31.3813 13.3464C31.236 13.0345 30.9886 12.7816 30.68 12.6294C30.0722 12.3765 29.4187 12.2523 28.7605 12.2645C28.2696 12.2606 27.7798 12.3132 27.3009 12.4214C25.4399 12.8301 24.305 13.9066 23.2869 16.2384C22.8165 17.2153 22.4626 18.2441 22.2323 19.3036H22.1338C21.9102 18.2444 21.5585 17.2163 21.0865 16.242C20.0501 13.9103 18.897 12.8301 17.0506 12.4214C16.5713 12.3156 16.0818 12.263 15.5909 12.2645C14.934 12.2522 14.2816 12.3764 13.6752 12.6294C13.3656 12.7816 13.1173 13.035 12.9713 13.3475C12.8253 13.6601 12.7904 14.0131 12.8724 14.3481C12.9526 14.3481 13.0621 14.3481 13.1825 14.3846C13.7982 14.4881 14.4074 14.627 15.0071 14.8006C15.0667 14.8219 15.1303 14.8294 15.1932 14.8225C15.6055 14.7787 15.85 14.0927 15.434 13.9139C15.3787 13.8891 15.3194 13.8743 15.2589 13.8701C15.1741 13.8625 15.0892 13.883 15.0173 13.9285C14.9454 13.9741 14.8905 14.042 14.8611 14.1219C14.7698 14.1057 14.6796 14.0837 14.5911 14.0562C14.6701 13.8616 14.8126 13.6994 14.9954 13.596C15.1783 13.4927 15.3907 13.4542 15.5982 13.487C15.6401 13.4907 15.6817 13.498 15.7223 13.5089C15.9489 13.5436 16.1565 13.6558 16.3098 13.8263C16.4189 13.9413 16.4946 14.0839 16.5288 14.2387C16.5443 14.3403 16.5443 14.4436 16.5288 14.5452C16.5288 14.5452 16.5288 14.5744 16.5288 14.589C16.4709 14.7237 16.3738 14.8379 16.2502 14.9167C16.1265 14.9954 15.982 15.0351 15.8354 15.0305C15.811 15.0618 15.7841 15.091 15.7551 15.1181C15.7322 15.1404 15.7078 15.1611 15.6822 15.1801C15.9804 15.3889 16.2578 15.626 16.5105 15.8881C16.7295 16.1034 16.8973 16.2895 16.9338 16.3369C17.3104 16.8144 17.6006 17.3541 17.7913 17.9316C17.8977 18.2596 17.9734 18.5967 18.0176 18.9387C18.0409 19.1423 18.053 19.3469 18.0541 19.5518C18.0541 19.6175 18.0541 19.6831 18.0541 19.7488C18.0541 19.8145 18.0541 19.9787 18.0285 20.0918C17.8652 20.9087 17.5733 21.6946 17.1637 22.42L17.0871 22.5294C16.9093 22.8164 16.6918 23.0769 16.4412 23.303C15.9949 23.6865 15.505 24.016 14.9815 24.2847C14.5456 24.4876 14.0859 24.6348 13.6131 24.7225C13.2522 24.7908 12.8857 24.825 12.5184 24.8247C12.3155 24.8336 12.1125 24.8114 11.9163 24.759C11.7492 24.7414 11.5953 24.6601 11.4866 24.532C11.378 24.4039 11.3228 24.2388 11.3327 24.0711C11.3426 23.9034 11.4167 23.7459 11.5396 23.6314C11.6626 23.5169 11.8249 23.4542 11.9929 23.4563C12.086 23.4571 12.1779 23.4769 12.263 23.5147C12.2945 23.5295 12.325 23.5466 12.3542 23.5658C12.533 23.7081 12.4162 24.0183 12.4162 24.0183C12.4857 24.065 12.5662 24.0927 12.6498 24.0985H12.7264C12.8936 24.0942 13.0574 24.0505 13.2044 23.9708C13.4282 23.8416 13.6138 23.6553 13.742 23.4309C13.8702 23.2065 13.9366 22.9521 13.9342 22.6936C13.9325 22.5484 13.9079 22.4043 13.8613 22.2667C13.8374 22.1917 13.8082 22.1185 13.7737 22.0478C13.6258 21.7715 13.3929 21.5501 13.1095 21.4165C12.6935 21.2121 12.2775 20.9421 11.8725 20.745C10.6514 20.1152 9.54195 19.2892 8.58831 18.3001C8.26354 17.9097 7.97526 17.5156 7.68333 17.1069L7.61765 17.001C7.25016 16.4135 6.9187 15.8042 6.62509 15.1765C6.5813 15.0853 6.54481 14.9904 6.50102 14.8992C6.23099 14.3226 5.98285 13.7205 5.7712 13.1403V13.1148C5.72748 12.9929 5.63725 12.8934 5.52029 12.838C5.40332 12.7826 5.26916 12.7758 5.1472 12.8192C5.04086 12.8568 4.9508 12.93 4.89227 13.0265C4.83375 13.1229 4.81036 13.2366 4.82608 13.3483C4.94688 14.1483 5.15113 14.9335 5.43548 15.691C5.51941 15.9246 5.61429 16.1545 5.71646 16.3807C5.94508 16.8958 6.20464 17.3967 6.49372 17.8805C6.65428 18.1578 6.82214 18.4351 6.99365 18.7088C7.24179 19.1029 7.50087 19.497 7.78186 19.8838L7.93877 20.0882C7.5994 19.8327 7.26733 19.5627 6.93526 19.2817C6.75281 19.1285 6.57035 18.9752 6.39155 18.8183C6.03248 18.4914 5.6937 18.1429 5.3771 17.7747C5.23843 17.6177 5.10341 17.4608 4.9684 17.3003C4.51226 16.7712 4.07802 16.2055 3.68391 15.6363C3.6471 15.5835 3.60022 15.5384 3.54596 15.5038C3.4917 15.4691 3.43114 15.4455 3.36773 15.4343C3.30433 15.4232 3.23935 15.4246 3.1765 15.4386C3.11366 15.4526 3.0542 15.4788 3.00153 15.5159C2.91652 15.574 2.85204 15.6576 2.81731 15.7546C2.78258 15.8515 2.77937 15.957 2.80813 16.0559C3.10397 16.7615 3.47077 17.4352 3.90286 18.0666C4.34637 18.6944 4.84459 19.2818 5.39169 19.8218C5.39771 19.8231 5.40392 19.8231 5.40994 19.8218C5.92446 20.3473 6.46088 20.8654 7.03379 21.3544L7.35126 21.6135C7.54831 21.7704 7.74536 21.9237 7.95336 22.0733L8.05189 22.139C7.87308 22.066 7.68698 21.9894 7.51547 21.9054C7.42059 21.8665 7.32572 21.8227 7.23084 21.7741C6.74186 21.5405 6.25653 21.2778 5.7712 21.0041L5.44278 20.818C4.88067 20.4856 4.34289 20.1137 3.83353 19.705C3.30441 19.3182 2.78988 18.8657 2.3082 18.4315C2.23613 18.3663 2.1464 18.324 2.05031 18.3097C1.95421 18.2954 1.85604 18.3099 1.76813 18.3512C1.70685 18.38 1.65123 18.4195 1.60393 18.468C1.53113 18.5503 1.48769 18.6544 1.48043 18.764C1.47317 18.8736 1.50248 18.9826 1.56379 19.0737C1.97921 19.6729 2.45485 20.2281 2.98329 20.7304C3.51424 21.2304 4.08951 21.6811 4.70201 22.0769C5.28587 22.4783 5.88432 22.8652 6.52656 23.2264C6.84039 23.4052 7.16151 23.5913 7.49723 23.7446C7.64319 23.8139 7.7928 23.8833 7.94971 23.9489L7.74536 23.9051C7.43884 23.8358 7.12867 23.7555 6.82214 23.668C6.20544 23.4964 5.58875 23.303 4.99759 23.0877C4.40499 22.873 3.82718 22.6194 3.26792 22.3287C2.70231 22.0587 2.13305 21.7412 1.59663 21.4311C1.52506 21.3918 1.44473 21.3712 1.36308 21.3712C1.28144 21.3712 1.20111 21.3918 1.12954 21.4311C1.04112 21.4745 0.967491 21.543 0.917894 21.6281C0.863843 21.7112 0.836296 21.8087 0.838902 21.9077C0.841509 22.0068 0.874146 22.1027 0.93249 22.1828C1.43765 22.6591 1.98756 23.0856 2.57459 23.4563C3.15607 23.8194 3.76629 24.1343 4.39914 24.3978C5.01949 24.6678 5.64348 24.9232 6.28207 25.1568C6.6032 25.2736 6.92797 25.3867 7.25638 25.4889C7.42059 25.5399 7.58845 25.591 7.75996 25.6348L7.92782 25.6823C7.53737 25.6823 7.13596 25.6385 6.74551 25.6056C6.13611 25.5509 5.52306 25.4852 4.92096 25.4013C4.60714 25.3611 4.32251 25.3101 4.03423 25.2517C3.74595 25.1933 3.45402 25.1166 3.16574 25.0437C2.58188 24.9123 1.99073 24.7335 1.42512 24.5656H1.40322C1.28096 24.5315 1.15024 24.5459 1.03831 24.6058C0.979989 24.6364 0.928333 24.6782 0.886358 24.729C0.844382 24.7797 0.812927 24.8383 0.793825 24.9014C0.763116 25.0047 0.767191 25.1154 0.805425 25.2162C0.843659 25.3171 0.913938 25.4026 1.00547 25.4597C1.56756 25.7977 2.16009 26.0824 2.77529 26.3099C3.3936 26.5282 4.02805 26.6978 4.67282 26.8171C5.29682 26.9521 5.92081 27.0762 6.55211 27.182C7.12137 27.2769 7.67238 27.3572 8.26719 27.4192L7.17246 27.5397C6.5886 27.598 6.00474 27.6455 5.42089 27.682C5.27492 27.682 5.12896 27.682 4.97934 27.7039H4.56335H3.71311C3.1475 27.7039 2.55999 27.6564 1.99803 27.6236H1.98343C1.88509 27.6195 1.78763 27.6436 1.70245 27.6929C1.63052 27.7343 1.57012 27.7931 1.52677 27.8638C1.48342 27.9346 1.45851 28.0151 1.45431 28.098C1.44872 28.2045 1.47814 28.31 1.5381 28.3983C1.59806 28.4866 1.68525 28.5528 1.78638 28.5869C2.38098 28.7829 2.99145 28.927 3.61093 29.0175C3.91818 29.0619 4.22758 29.0899 4.5378 29.1015C4.69471 29.1015 4.85163 29.1015 5.01219 29.1015H5.46103C6.06313 29.1015 6.66523 29.1015 7.26733 29.1015C7.68698 29.1015 7.77456 29.1015 8.1942 29.0796L8.24894 29.262C7.55926 29.481 7.09218 29.6269 6.3952 29.8167C5.85513 29.9663 5.34426 30.0685 4.80784 30.1816C4.27142 30.2947 3.735 30.3969 3.20223 30.5064C3.16705 30.5134 3.13277 30.5245 3.10006 30.5392C3.00024 30.583 2.91775 30.6586 2.8655 30.7542C2.81325 30.8498 2.79418 30.9601 2.81128 31.0677C2.82839 31.1754 2.8807 31.2743 2.96002 31.349C3.03935 31.4237 3.14121 31.47 3.24967 31.4807C3.83142 31.5263 4.41584 31.5263 4.99759 31.4807C5.57685 31.4253 6.15209 31.3339 6.71997 31.207C7.27828 31.1048 8.09933 30.9114 8.65399 30.7947L8.69778 30.9333C8.46789 31.0647 7.96796 31.3311 7.73807 31.4588C7.50817 31.5865 7.27828 31.7033 7.04839 31.8237L6.36235 32.1558C5.90257 32.393 5.42454 32.6192 4.96475 32.8673C4.86198 32.9238 4.78269 33.015 4.74114 33.1246C4.6996 33.2342 4.69851 33.3551 4.73808 33.4655C4.77766 33.5758 4.85529 33.6684 4.95703 33.7267C5.05878 33.785 5.17796 33.805 5.29317 33.7833C5.82793 33.6727 6.35557 33.5302 6.87323 33.3563C7.3914 33.1848 7.89133 32.944 8.38396 32.7287L9.16122 32.393L9.25244 32.8017L8.88753 33.0607L8.25989 33.5716C7.88457 33.9128 7.53226 34.2785 7.2053 34.6663C7.13295 34.7542 7.093 34.8642 7.09213 34.978C7.09125 35.0918 7.12951 35.2025 7.2005 35.2914C7.27148 35.3804 7.37088 35.4422 7.48203 35.4666C7.59319 35.491 7.70935 35.4764 7.81105 35.4254C8.26055 35.1901 8.69338 34.9244 9.10648 34.6299L9.54072 34.3744C9.54072 34.3744 9.77791 35.8085 9.83995 36.396C10.0334 38.2206 9.97861 40.348 10.1757 40.5961C10.3727 40.8443 10.6719 40.7567 10.9675 40.764C10.9493 40.6947 10.9383 40.629 10.9237 40.5633V40.5414C10.7573 39.8619 10.851 39.1447 11.1865 38.5307C11.1964 38.5063 11.2025 38.4804 11.2047 38.4541C11.1283 36.9405 10.9675 35.4323 10.723 33.9365C10.2997 31.6011 9.59181 27.8644 9.39476 26.8062C9.38792 26.7776 9.38871 26.7477 9.39703 26.7196C9.40536 26.6914 9.42093 26.6659 9.4422 26.6456C9.46507 26.6249 9.49265 26.6101 9.52253 26.6025C9.55242 26.5949 9.58371 26.5946 9.6137 26.6018C10.4881 26.7822 11.375 26.8956 12.2666 26.9412C13.3854 26.9979 14.5057 26.8646 15.58 26.5471C14.9603 28.0336 14.6452 29.6294 14.6531 31.2398C14.6531 34.5751 15.9485 37.5236 17.9373 39.2898C17.7836 39.3097 17.6313 39.3389 17.4812 39.3773C17.0876 39.5268 16.7099 39.7151 16.3536 39.9393H16.3098C16.2761 39.9633 16.2513 39.9978 16.2394 40.0375C16.2275 40.0772 16.2292 40.1196 16.2441 40.1582C16.3045 40.4189 16.4121 40.6662 16.5616 40.8881C16.5908 40.9282 16.62 40.9647 16.6674 40.9683C18.492 41.0596 19.8677 41.1982 20.9515 41.8879L21.039 41.9463C21.3038 42.1608 21.4809 42.4649 21.5367 42.8011C21.5925 43.1373 21.5232 43.4823 21.3419 43.7709C21.196 43.9205 21.0463 44.0628 20.8967 44.2015C20.4046 44.6362 19.8574 45.0043 19.2692 45.2962C18.7052 45.5694 18.1019 45.7529 17.4812 45.8399C16.8681 45.9494 16.2551 46.0333 15.4559 46.2048C15.4312 46.212 15.4078 46.2231 15.3866 46.2377C15.3534 46.2591 15.3276 46.2901 15.3126 46.3267C15.2976 46.3632 15.2941 46.4034 15.3027 46.442C15.3095 46.4752 15.326 46.5057 15.3501 46.5296C15.6474 46.8297 16.0073 47.0605 16.404 47.2056C16.8007 47.3506 17.2246 47.4064 17.6454 47.3689C18.2796 47.3183 18.8985 47.1487 19.4699 46.8689C19.6584 46.7821 19.8412 46.6833 20.0173 46.5734C20.7101 46.149 21.3066 45.5848 21.7689 44.9167L21.7944 44.8765V44.8984C21.6324 45.4681 21.3864 46.0105 21.0646 46.5077C20.8172 46.8187 20.5424 47.107 20.2435 47.3689C20.0285 47.5487 19.7934 47.703 19.5429 47.8287C19.459 47.8688 19.3751 47.9089 19.2838 47.9454C18.8664 48.106 18.4353 48.2281 17.9957 48.3103C17.9726 48.3171 17.9505 48.327 17.93 48.3395C17.8973 48.3587 17.8716 48.3878 17.8565 48.4225C17.8414 48.4573 17.8378 48.496 17.8461 48.5329C17.8557 48.5774 17.8801 48.6173 17.9154 48.6461C18.3784 48.9633 18.9359 49.1127 19.4955 49.0694C19.7904 49.0499 20.0801 48.9821 20.353 48.8687C20.6276 48.7596 20.8827 48.6068 21.1084 48.4162C21.18 48.3542 21.2482 48.2884 21.3127 48.2191C21.4404 48.4709 21.5755 48.7263 21.6776 48.9781C21.7798 49.2299 21.9075 49.5802 22.0717 49.8831C22.0876 49.9099 22.11 49.9323 22.1367 49.9483C22.1635 49.9642 22.1939 49.9732 22.225 49.9743C22.2908 49.9672 22.3511 49.9344 22.3929 49.8831C22.5571 49.5802 22.6738 49.2774 22.8052 48.9781C22.9133 48.7188 23.0351 48.4655 23.1701 48.2191C23.2395 48.2848 23.2978 48.3541 23.3745 48.4162C23.5909 48.6141 23.8372 48.7767 24.1043 48.8978C24.3784 49.0117 24.6693 49.0795 24.9655 49.0985C25.5239 49.1419 26.0803 48.9925 26.5419 48.6753C26.5605 48.6621 26.5763 48.6453 26.5882 48.6258C26.6001 48.6064 26.608 48.5847 26.6112 48.5621C26.6193 48.5256 26.616 48.4874 26.6016 48.4528C26.5872 48.4182 26.5626 48.3888 26.5309 48.3687L26.4616 48.3395C26.0221 48.2568 25.591 48.1347 25.1735 47.9746L24.9144 47.8578C24.6644 47.7313 24.4294 47.5771 24.2138 47.3981C23.9095 47.136 23.6286 46.8478 23.3745 46.5369C23.0542 46.0388 22.8083 45.4967 22.6446 44.9276V44.9057L22.6702 44.9459C23.1324 45.6139 23.729 46.1782 24.4218 46.6026C24.5978 46.7125 24.7806 46.8112 24.9691 46.8981C25.5407 47.1774 26.1596 47.347 26.7937 47.3981C27.2144 47.4356 27.6383 47.3798 28.0351 47.2348C28.4318 47.0897 28.7917 46.8589 29.089 46.5588C29.1131 46.5349 29.1296 46.5044 29.1364 46.4712C29.1449 46.4326 29.1415 46.3924 29.1265 46.3559C29.1115 46.3193 29.0857 46.2883 29.0525 46.2668C29.0313 46.2523 29.0079 46.2412 28.9831 46.234C28.184 46.0442 27.5709 45.9603 26.9579 45.8691C26.3372 45.7821 25.7339 45.5986 25.1698 45.3254C24.5816 45.0335 24.0344 44.6654 23.5423 44.2306C23.3927 44.092 23.2431 43.9497 23.1008 43.8C22.9191 43.5119 22.8492 43.1672 22.9044 42.831C22.9595 42.4949 23.1358 42.1905 23.4 41.9755L23.4876 41.9171C24.5823 41.2274 25.9288 41.0888 27.7716 40.9975C27.8191 40.9975 27.8483 40.9574 27.8775 40.9173C28.027 40.6954 28.1346 40.4481 28.1949 40.1874C28.2099 40.1488 28.2116 40.1063 28.1997 40.0667C28.1878 40.027 28.163 39.9925 28.1292 39.9685H28.0855C27.726 39.7453 27.346 39.5571 26.9506 39.4065C26.9032 39.4065 26.7353 39.3591 26.5163 39.3226C28.4905 37.5564 29.8005 34.608 29.8005 31.269C29.8074 29.6408 29.4834 28.0281 28.8481 26.5289C29.9131 26.8426 31.0234 26.9746 32.1323 26.9193C33.0239 26.8737 33.9108 26.7603 34.7852 26.5799C34.8152 26.5727 34.8465 26.573 34.8764 26.5806C34.9063 26.5882 34.9338 26.603 34.9567 26.6237C34.9778 26.6442 34.9934 26.6696 35.0024 26.6976C35.0113 26.7256 35.0131 26.7554 35.0078 26.7843C34.8071 27.8425 34.0992 31.5792 33.6795 33.9146C33.4432 35.4107 33.2921 36.919 33.227 38.4322C33.225 38.4577 33.225 38.4834 33.227 38.5089C33.5625 39.1228 33.6562 39.84 33.4898 40.5195V40.5414C33.4898 40.6071 33.4642 40.6728 33.446 40.7421C33.7416 40.7421 34.07 40.7822 34.2378 40.5742C34.4057 40.3662 34.3802 38.2133 34.5736 36.3741C34.6356 35.7866 34.8728 34.3635 34.8728 34.3525L35.307 34.608C35.7201 34.9025 36.153 35.1683 36.6025 35.4035C36.6899 35.4496 36.7893 35.4684 36.8875 35.4573C36.9858 35.4463 37.0785 35.4059 37.1535 35.3414C37.2529 35.2623 37.3177 35.1476 37.334 35.0216C37.3504 34.8956 37.317 34.7682 37.2411 34.6663C36.9151 34.2777 36.5627 33.9119 36.1865 33.5716L35.599 33.079L35.2341 32.8199L35.3216 32.4112L36.0989 32.7469C36.5915 32.9622 37.0951 33.2031 37.6096 33.3746C38.1274 33.548 38.655 33.6905 39.1897 33.8015C39.3049 33.8233 39.4241 33.8032 39.5258 33.7449C39.6276 33.6867 39.7052 33.5941 39.7448 33.4837C39.7843 33.3733 39.7832 33.2525 39.7417 33.1429C39.7002 33.0332 39.6209 32.942 39.5181 32.8856C39.0583 32.6374 38.5803 32.4112 38.1205 32.174L37.4345 31.8419C37.2046 31.7288 36.9747 31.6121 36.7448 31.477C36.5149 31.342 36.015 31.0829 35.7851 30.9516L35.8325 30.8129C36.3835 30.9297 37.2046 31.1231 37.7629 31.2252C38.3308 31.3522 38.906 31.4436 39.4853 31.4989C40.067 31.5445 40.6514 31.5445 41.2332 31.4989C41.3436 31.4915 41.4483 31.4467 41.53 31.372C41.6118 31.2974 41.6657 31.1971 41.6831 31.0878C41.7005 30.9785 41.6802 30.8665 41.6257 30.7701C41.5711 30.6738 41.4855 30.5988 41.3828 30.5575C41.3501 30.5427 41.3158 30.5317 41.2806 30.5246C40.7515 30.4151 40.1859 30.3203 39.675 30.1998C39.1641 30.0794 38.6277 29.9882 38.0876 29.8349C37.3943 29.6379 36.9236 29.4992 36.2339 29.2803L36.2886 29.0978C36.7083 29.0978 36.7995 29.0978 37.2155 29.1197C37.8176 29.1197 38.4197 29.1197 39.0401 29.1197H39.4926C39.6495 29.1197 39.8064 29.1197 39.9633 29.1197C40.2735 29.1082 40.5829 29.0802 40.8902 29.0358C41.5097 28.9457 42.1202 28.8016 42.7147 28.6052C42.8158 28.5711 42.903 28.5048 42.963 28.4166C43.0229 28.3283 43.0524 28.2228 43.0468 28.1162C43.042 28.034 43.0168 27.9542 42.9735 27.8841C42.9302 27.8141 42.8701 27.7559 42.7986 27.7148C42.7146 27.666 42.6184 27.6419 42.5213 27.6455H42.4994C41.9375 27.6783 41.3536 27.7185 40.7843 27.7258H39.9377H39.5181C39.3685 27.7258 39.2225 27.7258 39.0766 27.7039C38.4927 27.6674 37.9088 27.6199 37.3286 27.5615C36.9637 27.5251 36.5988 27.4849 36.2339 27.4411C36.8287 27.3791 37.3797 27.2988 37.949 27.2039C38.5803 27.0981 39.2043 26.974 39.8283 26.839C40.473 26.7197 41.1075 26.5501 41.7258 26.3318C42.3245 26.0921 42.8998 25.7977 43.4445 25.4524C43.5334 25.3932 43.6007 25.3068 43.6363 25.2061C43.6718 25.1054 43.6737 24.9959 43.6416 24.8941ZM22.225 39.9211H22.1995C20.01 39.9211 18.0687 38.4359 16.8973 36.1953C17.4447 35.2721 18.5722 33.276 18.5722 33.276C18.6781 33.6847 19.3021 36.4106 19.3021 36.4106C19.3021 36.4106 18.5066 36.7755 18.908 37.0018C19.3094 37.228 20.1633 37.0638 20.1633 37.0638C20.3076 37.1933 20.4587 37.3151 20.6157 37.4287C20.896 37.6343 21.2132 37.7842 21.5499 37.8703L21.7689 37.9542C21.7249 38.1437 21.7389 38.342 21.809 38.5234C21.8296 38.5709 21.8647 38.6106 21.9093 38.6368C21.9539 38.6631 22.0057 38.6745 22.0571 38.6694C22.1024 38.6685 22.1471 38.6585 22.1885 38.6402C22.3148 38.589 22.4282 38.5105 22.5206 38.4103C22.6654 38.254 22.7949 38.0841 22.9074 37.9031C22.9074 37.9031 22.9074 37.8849 22.9074 37.8703C23.3029 37.7888 23.6569 37.5704 23.9072 37.2536C23.1081 36.9434 22.4476 36.2172 22.1739 35.0167C22.0761 34.5485 22.0248 34.0718 22.0207 33.5935C22.0173 33.0417 22.065 32.4908 22.163 31.9478V31.8894C22.5279 29.9225 23.7613 28.4191 24.1152 28.2914C24.0058 28.0396 24.0532 27.3973 23.1957 27.0434C23.0096 26.9667 22.4366 26.9339 22.3819 26.6785C22.5304 26.5661 22.6538 26.424 22.7443 26.2613C22.8348 26.0986 22.8903 25.9188 22.9074 25.7333C22.9538 25.4977 22.9269 25.2536 22.8304 25.0337C22.7338 24.8138 22.5722 24.6288 22.3673 24.5036C22.4543 24.3319 22.5582 24.1693 22.6775 24.0183L22.2797 23.5512L22.1922 23.5986L21.7251 23.8468C21.7976 24.0409 21.8466 24.2431 21.871 24.4489C21.6726 24.5138 21.4985 24.6376 21.3721 24.8038C21.2456 24.97 21.1728 25.1708 21.1631 25.3794C21.1584 25.5551 21.1904 25.7299 21.257 25.8927C21.3236 26.0554 21.4234 26.2025 21.5499 26.3245C21.7032 26.4814 21.736 26.6128 21.6375 26.6894C21.4258 26.9011 20.9916 26.85 20.7654 27.1747C20.6417 27.3988 20.5379 27.6332 20.4552 27.8754C20.3494 28.0907 19.7254 29.5795 19.4261 30.1013C19.3495 30.2363 19.0393 30.7217 19.0393 30.7217C19.0393 30.7217 18.9043 30.8165 18.7547 30.937C18.6298 31.0308 18.5159 31.1385 18.4153 31.2581C18.3225 31.4203 18.2737 31.604 18.2737 31.7909C18.2737 31.9778 18.3225 32.1614 18.4153 32.3236L16.5908 35.6078C16.5215 35.4582 16.4886 35.3743 16.4886 35.3743C15.9639 34.0519 15.7 32.6405 15.7114 31.2179C15.7114 26.5945 18.419 22.8031 21.8236 22.5331H22.6118C22.9836 22.5659 23.3507 22.6393 23.7065 22.752C23.8929 22.8105 24.0757 22.88 24.2539 22.96C26.8557 24.1095 28.7277 27.3681 28.7277 31.2179C28.7277 36.0165 25.8084 39.9211 22.225 39.9211ZM21.5499 30.4954C21.5499 30.4954 20.2837 30.9735 19.6816 31.2252L20.915 29.0869C20.915 29.0869 20.9734 29.3861 21.4733 29.5977C21.466 29.6671 21.5499 30.4954 21.5499 30.4954Z" fill="#5B6670"/>
<path d="M11.8025 32.2554H11.3828V31.916H12.2039V33.5435H11.8025V32.2554Z" fill="#5B6670"/>
<path d="M12.7731 33.9778L13.6489 32.2736H12.6855V31.916H14.0503V32.197L13.1198 34.0909L12.7731 33.9778Z" fill="#5B6670"/>
<path d="M30.3066 33.2508C30.5146 33.0939 31.1313 32.7253 31.1313 32.5027C31.1313 32.2801 31.0073 32.2765 30.8285 32.2765C30.703 32.284 30.5797 32.3123 30.4636 32.3604L30.365 32.0831C30.5201 32.0044 30.6911 31.962 30.865 31.959C31.3904 31.959 31.5218 32.229 31.5218 32.4918C31.5218 32.8384 31.0547 33.123 30.792 33.2581H31.5838V33.5719H30.3066V33.2508Z" fill="#5B6670"/>
<path d="M32.6434 33.5713H31.7676V33.2575L32.4719 32.0059H33.0265V33.2575H33.3294V33.5713H33.0265V34.1187H32.6616L32.6434 33.5713ZM32.6434 33.2575V32.4036L32.1617 33.2539L32.6434 33.2575Z" fill="#5B6670"/>
</g>
<defs>
<clipPath id="clip0_2310_11665">
<rect width="43.125" height="50" fill="white" transform="translate(0.75)"/>
</clipPath>
</defs>
</svg>
