<svg width="34" height="34" viewBox="0 0 34 34" fill="none" xmlns="http://www.w3.org/2000/svg">
<g clip-path="url(#clip0_1940_10173)">
<path d="M17.0071 34.0142C26.3998 34.0142 34.0142 26.3998 34.0142 17.0071C34.0142 7.61433 26.3998 0 17.0071 0C7.61433 0 0 7.61433 0 17.0071C0 26.3998 7.61433 34.0142 17.0071 34.0142Z" fill="url(#paint0_linear_1940_10173)"/>
<path fill-rule="evenodd" clip-rule="evenodd" d="M7.68924 16.8226C12.6455 14.6701 15.945 13.2399 17.6018 12.546C22.3173 10.5777 23.3086 10.2378 23.9458 10.2236C24.0874 10.2236 24.3989 10.252 24.6114 10.4219C24.7813 10.5635 24.8238 10.7476 24.8521 10.8892C24.8804 11.0308 24.9087 11.3282 24.8804 11.5547C24.6255 14.2453 23.521 20.7734 22.9545 23.7755C22.7138 25.05 22.2465 25.4748 21.7934 25.5173C20.8021 25.6022 20.0516 24.8659 19.1028 24.2428C17.6018 23.2657 16.7663 22.6568 15.3077 21.6939C13.6226 20.5893 14.713 19.9804 15.6759 18.9891C15.9308 18.7343 20.2782 14.7692 20.3631 14.4152C20.3773 14.3727 20.3773 14.2028 20.2782 14.1178C20.179 14.0329 20.0374 14.0612 19.9241 14.0895C19.7684 14.1178 17.3894 15.7039 12.7588 18.8334C12.0791 19.3007 11.4702 19.5273 10.9179 19.5131C10.309 19.4989 9.1478 19.1732 8.26983 18.89C7.20777 18.5502 6.35813 18.3661 6.42893 17.7713C6.47141 17.4598 6.89624 17.1482 7.68924 16.8226Z" fill="white"/>
</g>
<defs>
<linearGradient id="paint0_linear_1940_10173" x1="16.9929" y1="0" x2="16.9929" y2="33.7451" gradientUnits="userSpaceOnUse">
<stop stop-color="#2AABEE"/>
<stop offset="1" stop-color="#229ED9"/>
</linearGradient>
<clipPath id="clip0_1940_10173">
<rect width="34" height="34" fill="white"/>
</clipPath>
</defs>
</svg>
