<svg width="190" height="56" fill="none" xmlns="http://www.w3.org/2000/svg"><g filter="url(#a)" fill="#3CC"><path d="M11.601 14.672c-.859-2.624-.973-4.402-.979-4.516a11.176 11.176 0 0 0-3.405 5.583c.132.02 1.97.275 4.384-1.067ZM17.952 7.362c-2.49 0-4.778.834-6.629 2.224.01.13.173 1.941 1.098 4.612 1.767-1.188 3.759-3.253 5.58-6.833-.017 0-.032-.003-.05-.003ZM12.69 17.57a26.95 26.95 0 0 1-.882-2.145c-2.653 1.451-4.662 1.123-4.813 1.095a11.196 11.196 0 0 0-.193 1.996c0 1.42.275 2.774.756 4.023.068-.086 1.984-2.467 5.132-4.97Z"/><path d="M26.781 11.77a11.067 11.067 0 0 0-8.02-4.367c-.023.047-.044.093-.069.142-1.97 3.85-4.097 6.097-5.998 7.405.233.614.511 1.27.829 1.953 3.416-2.556 8.052-5.038 13.258-5.133Z"/><path d="M28.792 20.977a11.19 11.19 0 0 0-1.44-8.467c-5.164-.002-9.908 2.533-13.423 5.137.328.653.7 1.33 1.117 2.02 2.358-1.368 6.505-1.545 13.746 1.31ZM12.17 28c-.074-.354-1.034-5.24 1.958-7.798-.389-.652-.737-1.29-1.046-1.91-3.15 2.477-5.116 4.825-5.195 4.92a11.226 11.226 0 0 0 4.283 4.789Z"/><path d="M28.476 21.984c-6.843-2.909-10.748-2.873-12.958-1.65 1.683 2.621 4.039 5.423 7.347 8.052a11.176 11.176 0 0 0 5.61-6.402ZM17.925 29.536c1.415 0 2.767-.266 4.013-.752-3.29-2.537-5.622-5.263-7.28-7.833-2.647 2.526-1.494 7.498-1.437 7.526a10.944 10.944 0 0 0 4.704 1.059Z"/><path d="M35.99 18.08C35.99 8.096 27.935 0 18 0 8.064 0 .01 8.095.01 18.08c0 0-.43 5.43 4.175 13.946C8.79 40.541 18 56 18 56s9.21-15.457 13.813-23.974c4.607-8.515 4.177-13.945 4.177-13.945ZM28.24 28.914c-3.408 6.334-10.222 17.83-10.222 17.83l-.017-.032a.633.633 0 0 1-.018.032s-6.815-11.498-10.222-17.83C4.354 22.58 4.672 18.54 4.672 18.54c0-7.427 5.959-13.448 13.31-13.448h.036c7.351 0 13.31 6.02 13.31 13.448.002 0 .321 4.038-3.087 10.373Z"/></g><g filter="url(#b)"><path d="M76.41 31.52c0-2.9-1.32-4.22-4.14-4.22h-2c-.54 0-.76-.38-.76-.72 0-.38.22-.74.76-.74h3.36c1.36 0 2.06-1 2.06-1.98 0-.96-.7-1.94-2.04-1.94h-3.12c-2.94 0-4.42 1.5-4.42 4.52 0 2.9 1.4 4.18 4.14 4.18h2c.54 0 .78.38.78.76 0 .34-.24.72-.78.72h-4.04c-1.3 0-1.96.98-1.96 1.94 0 1 .64 1.96 1.92 1.96h3.86c2.92 0 4.38-1.5 4.38-4.48Zm6.61-5.88h2.1c.82 0 1.3.34 1.3 1.14 0 .72-.4 1.06-1.06 1.06h-.32c-.86 0-1.48.46-1.48 1.48s.44 1.66 1.72 1.66h.68c2.44 0 3.9-1.96 3.9-4.52 0-2.78-1.52-4.54-4.9-4.54H81c-1.26 0-1.88.66-1.88 1.96v10.24c0 1.3.66 1.96 1.96 1.96 1.3 0 1.94-.66 1.94-2v-8.44Zm8.888 3.32c0 3.98 3.2 7.18 7.18 7.18 3.98 0 7.2-3.2 7.2-7.18 0-3.98-3.22-7.18-7.2-7.18s-7.18 3.2-7.18 7.18Zm3.94.06c0-1.82 1.46-3.28 3.26-3.28 1.8 0 3.28 1.46 3.28 3.28 0 1.82-1.48 3.24-3.28 3.24-1.8 0-3.26-1.42-3.26-3.24Zm20.057 6.06c.38.7 1.02 1 1.64 1 1.04 0 2.1-.78 2.1-1.92 0-.34-.12-.74-.38-1.2l-1.86-2.92c1.3-.54 2.36-1.92 2.36-3.84 0-2.14-1.46-4.28-4.76-4.28h-4.2c-1.26 0-1.88.66-1.88 1.96v10.16c0 1.3.66 1.96 1.96 1.96 1.3 0 1.94-.66 1.94-2v-8.36h2.1c.82 0 1.22.26 1.22.98 0 .8-.44 1.16-1.1 1.16h-.28c-1.06 0-1.5.68-1.5 1.84 0 .46.14.86.28 1.06l2.36 4.4Zm13.158-9.24h1.32c1.22 0 1.96-.9 1.96-1.96s-.74-1.96-1.96-1.96h-6.56c-1.22 0-1.94.9-1.94 1.96s.72 1.96 1.94 1.96h1.36v8.3c0 1.28.88 1.94 1.92 1.94 1.06 0 1.96-.66 1.96-1.94v-8.3Zm15.882 5.68c0-2.9-1.32-4.22-4.14-4.22h-2c-.54 0-.76-.38-.76-.72 0-.38.22-.74.76-.74h3.36c1.36 0 2.06-1 2.06-1.98 0-.96-.7-1.94-2.04-1.94h-3.12c-2.94 0-4.42 1.5-4.42 4.52 0 2.9 1.4 4.18 4.14 4.18h2c.54 0 .78.38.78.76 0 .34-.24.72-.78.72h-4.04c-1.3 0-1.96.98-1.96 1.94 0 1 .64 1.96 1.92 1.96h3.86c2.92 0 4.38-1.5 4.38-4.48Zm9.451-.7c.54 0 1-.2 1.46-.82l1.42-1.88v6.02c0 1.28.88 1.94 1.92 1.94 1.06 0 1.96-.66 1.96-1.94V23.92c0-1.3-1-2.06-2.06-2.06-.7 0-1.42.34-1.92.98l-2.78 3.54-2.76-3.54c-.5-.64-1.24-.98-1.94-.98-1.06 0-2.04.76-2.04 2.06v10.22c0 1.28.9 1.94 1.96 1.94 1.02 0 1.92-.68 1.92-1.94v-6.02l1.44 1.88c.42.54.9.82 1.42.82Zm15.866-3.14.86 2.54h-1.88l1.02-2.54Zm2.48 7.14c.3.84.86 1.26 1.72 1.26 1.04 0 2.08-.78 2.08-1.84 0-.32-.04-.58-.14-.78l-4.34-10.42c-.3-.72-.74-1.18-1.76-1.18-1.06 0-1.48.46-1.8 1.16l-4.76 10.44c-.1.18-.14.44-.14.78 0 1.12 1.06 1.84 2.1 1.84.66 0 1.32-.4 1.7-1.26l.62-1.54h4.16l.56 1.54Zm10.181-9.18h2.1c.82 0 1.3.34 1.3 1.14 0 .72-.4 1.06-1.06 1.06h-.32c-.86 0-1.48.46-1.48 1.48s.44 1.66 1.72 1.66h.68c2.44 0 3.9-1.96 3.9-4.52 0-2.78-1.52-4.54-4.9-4.54h-3.96c-1.26 0-1.88.66-1.88 1.96v10.24c0 1.3.66 1.96 1.96 1.96 1.3 0 1.94-.66 1.94-2v-8.44Z" fill="#3CC"/></g><defs><filter id="a" x="0" y="0" width="36" height="60" filterUnits="userSpaceOnUse" color-interpolation-filters="sRGB"><feFlood flood-opacity="0" result="BackgroundImageFix"/><feBlend in="SourceGraphic" in2="BackgroundImageFix" result="shape"/><feColorMatrix in="SourceAlpha" values="0 0 0 0 0 0 0 0 0 0 0 0 0 0 0 0 0 0 127 0" result="hardAlpha"/><feOffset dy="4"/><feGaussianBlur stdDeviation="2"/><feComposite in2="hardAlpha" operator="arithmetic" k2="-1" k3="1"/><feColorMatrix values="0 0 0 0 0 0 0 0 0 0 0 0 0 0 0 0 0 0 0.25 0"/><feBlend in2="shape" result="effect1_innerShadow_163_6471"/></filter><filter id="b" x="66.11" y="21.78" width="123.653" height="18.36" filterUnits="userSpaceOnUse" color-interpolation-filters="sRGB"><feFlood flood-opacity="0" result="BackgroundImageFix"/><feBlend in="SourceGraphic" in2="BackgroundImageFix" result="shape"/><feColorMatrix in="SourceAlpha" values="0 0 0 0 0 0 0 0 0 0 0 0 0 0 0 0 0 0 127 0" result="hardAlpha"/><feOffset dy="4"/><feGaussianBlur stdDeviation="2"/><feComposite in2="hardAlpha" operator="arithmetic" k2="-1" k3="1"/><feColorMatrix values="0 0 0 0 0 0 0 0 0 0 0 0 0 0 0 0 0 0 0.25 0"/><feBlend in2="shape" result="effect1_innerShadow_163_6471"/></filter></defs></svg>