<svg width="220" height="110" fill="none" xmlns="http://www.w3.org/2000/svg"><path opacity=".5" d="M85.408 90.351c17.677 0 29.816 9.157 38.333 9.157 8.518 0 26.407-4.897 26.407-44.081 0-39.184-24.066-44.937-33.435-44.937-43.87 0-62.61 79.861-31.305 79.861Z" fill="#F5F3F7"/><path d="m130.205 14.417 1.807-1.807 3.614 3.614-1.807 1.808-3.614-3.615ZM74.534 40.403l-2.283-1.15 2.3-4.564 2.283 1.15-2.3 4.564ZM140.594 24.811l1.807-1.807 3.614 3.614-1.807 1.808-3.614-3.615ZM81.15 27.28l-2.282-1.15 2.3-4.564 2.282 1.15-2.3 4.565ZM140.135 16.216l3.614-3.614 1.807 1.807-3.614 3.614-1.807-1.807ZM73.13 30.41l-4.564-2.3 1.15-2.282 4.564 2.3-1.15 2.282Z" fill="#ABA7AF"/><path opacity=".5" d="M133.639 81.195H86.361a5.11 5.11 0 0 1-5.111-5.112V37.75h57.5v38.333a5.11 5.11 0 0 1-5.111 5.112Z" fill="#F5F3F7"/><path d="M138.75 37.75h-57.5v-3.833a5.11 5.11 0 0 1 5.111-5.111h47.278a5.11 5.11 0 0 1 5.111 5.11v3.834Z" fill="#C7522D"/><path d="M92.111 28.806h-5.75a5.11 5.11 0 0 0-5.111 5.11v3.834H87v-3.833a5.11 5.11 0 0 1 5.111-5.111Z" fill="#C7522D"/><path d="M97.222 57.555a5.116 5.116 0 0 1-5.11-5.11 5.116 5.116 0 0 1 5.11-5.112 5.116 5.116 0 0 1 5.111 5.111 5.116 5.116 0 0 1-5.11 5.111Zm0-6.389a1.28 1.28 0 0 0-1.278 1.278 1.28 1.28 0 0 0 1.278 1.278 1.28 1.28 0 0 0 1.278-1.278 1.28 1.28 0 0 0-1.278-1.278Z" fill="#1A141F"/><path d="M97.222 54.222a1.778 1.778 0 1 0 0-3.555 1.778 1.778 0 0 0 0 3.555Z" fill="#C7522D"/><path d="M122.778 57.555a5.116 5.116 0 0 1-5.111-5.11 5.116 5.116 0 0 1 5.111-5.112 5.116 5.116 0 0 1 5.111 5.111 5.116 5.116 0 0 1-5.111 5.111Zm0-6.389a1.28 1.28 0 0 0-1.278 1.278 1.28 1.28 0 0 0 1.278 1.278 1.28 1.28 0 0 0 1.278-1.278 1.28 1.28 0 0 0-1.278-1.278Z" fill="#1A141F"/><path d="M122.778 54.222a1.778 1.778 0 1 0 0-3.555 1.778 1.778 0 0 0 0 3.555Z" fill="#C7522D"/><path d="m123.552 75.6-1.354-1.354c-6.727-6.724-17.669-6.724-24.396 0L96.448 75.6l-2.711-2.711 1.354-1.355c8.221-8.22 21.594-8.22 29.816 0l1.354 1.355-2.709 2.711Z" fill="#1A141F"/><path d="M133.639 83.11H86.361a7.034 7.034 0 0 1-7.028-7.027V33.917a7.034 7.034 0 0 1 7.028-7.028h47.278a7.034 7.034 0 0 1 7.028 7.027v42.167a7.034 7.034 0 0 1-7.028 7.028ZM86.361 30.723a3.199 3.199 0 0 0-3.194 3.194v42.167a3.199 3.199 0 0 0 3.194 3.195h47.278a3.198 3.198 0 0 0 3.194-3.195V33.917a3.198 3.198 0 0 0-3.194-3.195H86.361Z" fill="#1A141F"/><path d="M81.25 35.833h57.5v3.833h-57.5v-3.833ZM69.111 79.278h81.778v3.833H69.111v-3.834Z" fill="#1A141F"/></svg>