<svg width="40" height="40" viewBox="0 0 40 40" fill="none" xmlns="http://www.w3.org/2000/svg">
<path d="M36.6666 28.0167V16.7833C36.6974 16.7029 36.6974 16.6138 36.6666 16.5333L20.3333 3.46668C20.2741 3.41935 20.2007 3.39355 20.1249 3.39355C20.0492 3.39355 19.9757 3.41935 19.9166 3.46668L3.51659 16.5333C3.48122 16.5649 3.45264 16.6034 3.43258 16.6464C3.41253 16.6893 3.40141 16.7359 3.39992 16.7833L3.33325 33.0667C3.33325 33.9507 3.68444 34.7986 4.30956 35.4237C4.93468 36.0488 5.78253 36.4 6.66659 36.4L23.6999 36.5167" stroke="#19B2B8" stroke-width="2.5" stroke-linecap="round" stroke-linejoin="round"/>
<path d="M19.9998 30C24.6022 30 28.3332 26.2691 28.3332 21.6667C28.3332 17.0643 24.6022 13.3334 19.9998 13.3334C15.3975 13.3334 11.6665 17.0643 11.6665 21.6667C11.6665 26.2691 15.3975 30 19.9998 30Z" stroke="#19B2B8" stroke-width="2.5" stroke-linecap="round" stroke-linejoin="bevel"/>
<path d="M25.0996 28.6833L31.6663 35" stroke="#19B2B8" stroke-width="2.5" stroke-linecap="round" stroke-linejoin="bevel"/>
</svg>
