<svg width="40" height="40" fill="none" xmlns="http://www.w3.org/2000/svg"><path d="M36.667 28.017V16.783a.35.35 0 0 0 0-.25L20.333 3.467a.334.334 0 0 0-.416 0l-16.4 13.066a.35.35 0 0 0-.117.25l-.067 16.284A3.333 3.333 0 0 0 6.667 36.4l17.033.117" stroke="#19B2B8" stroke-width="2.5" stroke-linecap="round" stroke-linejoin="round"/><path d="M20 30a8.333 8.333 0 1 0 0-16.667A8.333 8.333 0 0 0 20 30ZM25.1 28.683 31.666 35" stroke="#19B2B8" stroke-width="2.5" stroke-linecap="round" stroke-linejoin="bevel"/></svg>