<svg width="26" height="21" fill="none" xmlns="http://www.w3.org/2000/svg"><path d="M9.704 19.03c-.738 0-.612-.267-.867-.938l-2.169-6.829L23.365 1.79" fill="#08C"/><path d="M9.704 19.03c-.738 0-.612-.267-.867-.938l-2.169-6.829L23.365 1.79" fill="#000" fill-opacity=".09"/><path d="M9.704 19.03c.57 0 .82-.25 1.138-.545l3.036-2.823-3.787-2.184" fill="#4AABDB"/><path d="m10.091 13.478 9.176 6.484c1.047.553 1.803.267 2.063-.93l3.735-16.834C25.448.73 24.481.066 23.48.5L1.547 8.59C.05 9.164.06 9.963 1.275 10.32L6.903 12l13.03-7.863c.615-.357 1.18-.165.716.228" fill="#08C"/></svg>