<svg width="36" height="56" viewBox="0 0 36 56" fill="none" xmlns="http://www.w3.org/2000/svg">
<g filter="url(#filter0_i_163_6472)">
<path d="M11.6012 14.6716C10.7423 12.0478 10.6281 10.2697 10.6223 10.1565C8.98198 11.611 7.78064 13.5465 7.21729 15.7393C7.34898 15.7599 9.18683 16.0143 11.6012 14.6716Z" fill="#33CCCC"/>
<path d="M17.9518 7.3623C15.4628 7.3623 13.1743 8.19619 11.3232 9.58601C11.3335 9.7169 11.4959 11.5273 12.4207 14.1981C14.1883 13.0098 16.1798 10.9449 18.0016 7.36524C17.984 7.36524 17.9694 7.3623 17.9518 7.3623Z" fill="#33CCCC"/>
<path d="M12.6899 17.5691C12.3431 16.8176 12.0505 16.0984 11.8076 15.4248C9.15468 16.8764 7.14562 16.5484 6.99491 16.5205C6.87785 17.1691 6.80176 17.8323 6.80176 18.5162C6.80176 19.9369 7.07685 21.29 7.55826 22.5386C7.62557 22.4533 9.54245 20.0722 12.6899 17.5691Z" fill="#33CCCC"/>
<path d="M26.7812 11.7698C24.9067 9.30053 22.0314 7.6401 18.761 7.40332C18.7376 7.45038 18.7171 7.49597 18.6923 7.54451C16.7212 11.3948 14.5951 13.642 12.6943 14.9495C12.927 15.5643 13.205 16.2202 13.5225 16.9026C16.9393 14.3465 21.5749 11.8654 26.7812 11.7698Z" fill="#33CCCC"/>
<path d="M28.7916 20.9769C28.9759 20.1724 29.0754 19.3355 29.0754 18.4752C29.0754 16.2794 28.4418 14.2337 27.3517 12.51C22.1879 12.5085 17.444 15.0426 13.9292 17.6472C14.257 18.3002 14.6286 18.9767 15.0457 19.6679C17.4044 18.2987 21.5513 18.1222 28.7916 20.9769Z" fill="#33CCCC"/>
<path d="M12.1704 28.0008C12.0958 27.6464 11.1359 22.7592 14.1283 20.2017C13.739 19.5502 13.3908 18.9119 13.082 18.2927C9.93163 20.7694 7.96647 23.1166 7.88745 23.2122C8.81955 25.1991 10.3179 26.8625 12.1704 28.0008Z" fill="#33CCCC"/>
<path d="M28.4755 21.9843C21.6333 19.0753 17.7278 19.1106 15.5183 20.3342C17.2011 22.955 19.5569 25.7567 22.8653 28.3863C25.4846 27.0906 27.52 24.7889 28.4755 21.9843Z" fill="#33CCCC"/>
<path d="M17.9255 29.5359C19.3404 29.5359 20.6925 29.2697 21.9377 28.7844C18.6483 26.2474 16.3159 23.5207 14.658 20.9514C12.011 23.4766 13.164 28.4491 13.2211 28.477C14.6478 29.1535 16.2398 29.5359 17.9255 29.5359Z" fill="#33CCCC"/>
<path d="M35.9893 18.0808C35.9893 8.09476 27.9356 0 18 0C8.06446 0 0.0106621 8.09476 0.0106621 18.0808C0.0106621 18.0808 -0.419537 23.5107 4.18535 32.0261C8.79023 40.5414 17.9985 56 17.9985 56C17.9985 56 27.2083 40.5429 31.8117 32.0261C36.4195 23.5107 35.9893 18.0808 35.9893 18.0808ZM28.2414 28.9126C24.8334 35.2469 18.019 46.7434 18.019 46.7434C18.0132 46.7316 18.0073 46.7213 18.0015 46.711C17.9956 46.7228 17.9898 46.7331 17.9839 46.7434C17.9839 46.7434 11.1695 35.2454 7.76156 28.9126C4.35362 22.5797 4.67115 18.5397 4.67115 18.5397C4.67115 11.1126 10.631 5.09158 17.9824 5.09158C17.9883 5.09158 17.9942 5.09158 18 5.09158C18.0059 5.09158 18.0117 5.09158 18.0176 5.09158C25.369 5.09158 31.3289 11.1126 31.3289 18.5397C31.3303 18.5397 31.6493 22.5783 28.2414 28.9126Z" fill="#33CCCC"/>
</g>
<defs>
<filter id="filter0_i_163_6472" x="0" y="0" width="36" height="60" filterUnits="userSpaceOnUse" color-interpolation-filters="sRGB">
<feFlood flood-opacity="0" result="BackgroundImageFix"/>
<feBlend mode="normal" in="SourceGraphic" in2="BackgroundImageFix" result="shape"/>
<feColorMatrix in="SourceAlpha" type="matrix" values="0 0 0 0 0 0 0 0 0 0 0 0 0 0 0 0 0 0 127 0" result="hardAlpha"/>
<feOffset dy="4"/>
<feGaussianBlur stdDeviation="2"/>
<feComposite in2="hardAlpha" operator="arithmetic" k2="-1" k3="1"/>
<feColorMatrix type="matrix" values="0 0 0 0 0 0 0 0 0 0 0 0 0 0 0 0 0 0 0.25 0"/>
<feBlend mode="normal" in2="shape" result="effect1_innerShadow_163_6472"/>
</filter>
</defs>
</svg>
