<svg width="20" height="20" viewBox="0 0 20 20" fill="none" xmlns="http://www.w3.org/2000/svg">
<path d="M10 4.96159C10.2637 4.96159 10.5215 5.03979 10.7408 5.1863C10.96 5.3328 11.1309 5.54104 11.2318 5.78468C11.3328 6.02831 11.3592 6.2964 11.3077 6.55504C11.2563 6.81368 11.1293 7.05126 10.9428 7.23773C10.7563 7.4242 10.5188 7.55119 10.2601 7.60264C10.0015 7.65408 9.73339 7.62768 9.48976 7.52676C9.24612 7.42584 9.03788 7.25495 8.89138 7.03568C8.74487 6.81642 8.66667 6.55863 8.66667 6.29492C8.66667 5.9413 8.80714 5.60216 9.05719 5.35211C9.30724 5.10206 9.64638 4.96159 10 4.96159ZM10 3.79492C9.50555 3.79492 9.0222 3.94154 8.61108 4.21625C8.19995 4.49095 7.87952 4.8814 7.6903 5.33821C7.50108 5.79503 7.45157 6.29769 7.54804 6.78265C7.6445 7.2676 7.8826 7.71306 8.23223 8.06269C8.58187 8.41232 9.02732 8.65042 9.51228 8.74689C9.99723 8.84335 10.4999 8.79384 10.9567 8.60462C11.4135 8.4154 11.804 8.09497 12.0787 7.68385C12.3534 7.27272 12.5 6.78938 12.5 6.29492C12.5 5.63188 12.2366 4.996 11.7678 4.52715C11.2989 4.05831 10.663 3.79492 10 3.79492Z" fill="currentColor"/>
<path fill-rule="evenodd" clip-rule="evenodd" d="M11.4431 13.3916C11.4854 13.0722 11.7786 12.8476 12.098 12.8899C13.336 13.0538 14.4353 13.3638 15.2435 13.7896C16.0076 14.1921 16.7114 14.8114 16.7114 15.6682C16.7114 16.2135 16.419 16.6658 16.0368 17.0098C15.6545 17.3539 15.1342 17.6372 14.5409 17.8631C13.3502 18.3165 11.7446 18.5848 9.99975 18.5848C8.25506 18.5848 6.64943 18.317 5.45871 17.8638C4.86537 17.6379 4.34495 17.3547 3.96261 17.0105C3.58034 16.6662 3.28809 16.2137 3.28809 15.6682C3.28809 14.8169 3.98243 14.2006 4.73828 13.7989C5.5368 13.3745 6.62308 13.0643 7.8474 12.8969C8.1666 12.8532 8.46074 13.0766 8.50438 13.3958C8.54802 13.715 8.32463 14.0092 8.00544 14.0528C6.86476 14.2087 5.92354 14.4902 5.28581 14.8291C4.60541 15.1907 4.45475 15.5094 4.45475 15.6682C4.45475 15.7676 4.50541 15.9293 4.7433 16.1435C4.98111 16.3576 5.35809 16.5772 5.87371 16.7734C6.90091 17.1644 8.35945 17.4182 9.99975 17.4182C11.6399 17.4182 13.0985 17.164 14.1257 16.7728C14.6413 16.5765 15.0184 16.3569 15.2563 16.1427C15.4943 15.9284 15.5448 15.767 15.5448 15.6682C15.5448 15.5083 15.3911 15.1859 14.6998 14.8218C14.0525 14.4808 13.0985 14.1992 11.9449 14.0465C11.6255 14.0042 11.4008 13.711 11.4431 13.3916Z" fill="currentColor"/>
<path d="M10.0004 2.61979C10.482 2.62062 10.9582 2.72081 11.3993 2.9141C11.8403 3.10739 12.2367 3.38961 12.5638 3.74313C12.9219 4.1263 13.1983 4.57834 13.3763 5.07173C13.5542 5.56512 13.6299 6.08956 13.5988 6.61313C13.4238 9.64979 11.2071 13.1181 10.0004 14.8048C8.16708 12.2748 6.38542 8.88646 6.38542 6.23479C6.3863 5.27631 6.76745 4.35733 7.4452 3.67958C8.12295 3.00182 9.04193 2.62067 10.0004 2.61979ZM10.0004 1.45312C8.73238 1.45357 7.5164 1.95749 6.61976 2.85413C5.72312 3.75077 5.21919 4.96675 5.21875 6.23479C5.21875 10.1715 8.43375 14.7181 9.59042 16.2115C9.6382 16.2737 9.69965 16.3241 9.77002 16.3588C9.84039 16.3935 9.91779 16.4115 9.99625 16.4115C10.0747 16.4115 10.1521 16.3935 10.2225 16.3588C10.2929 16.3241 10.3543 16.2737 10.4021 16.2115C11.5088 14.7748 14.5421 10.5165 14.7688 6.68313C14.9321 3.90146 12.7921 1.45646 10.0004 1.45312Z" fill="currentColor"/>
</svg>
