<svg width="20" height="20" viewBox="0 0 20 20" fill="none" xmlns="http://www.w3.org/2000/svg">
<path fill-rule="evenodd" clip-rule="evenodd" d="M7.9588 3.93462C8.08661 4.11247 8.21546 4.29176 8.34367 4.46617C8.74065 5.00624 8.98723 5.49855 9.07825 5.9723C9.17282 6.46453 9.09102 6.89276 8.90956 7.27496C8.73817 7.63597 8.47889 7.95149 8.23904 8.23003C8.18901 8.28813 8.13939 8.3451 8.09022 8.40156C7.89016 8.63128 7.69742 8.85258 7.51356 9.10771C7.22331 9.51046 7.30436 10.041 7.62392 10.6345C7.77388 10.913 7.95416 11.1596 8.09994 11.3389C8.17209 11.4276 8.23402 11.4977 8.27689 11.5445C8.29828 11.5679 8.3148 11.5854 8.32532 11.5963C8.33058 11.6018 8.33433 11.6056 8.33643 11.6078L8.33761 11.609L8.33784 11.6092L8.33803 11.6094L8.33829 11.6097L8.34668 11.6181L8.35468 11.6268L8.35495 11.6271L8.35535 11.6275L8.35652 11.6288C8.3578 11.6301 8.35971 11.6322 8.36224 11.6348C8.36377 11.6364 8.36552 11.6383 8.3675 11.6404C8.378 11.6513 8.39473 11.6686 8.41717 11.691C8.46212 11.7358 8.52945 11.8008 8.61499 11.8767C8.78779 12.0301 9.02642 12.2211 9.29819 12.3832C9.87773 12.7291 10.4042 12.8336 10.8179 12.5633C11.0819 12.3908 11.3123 12.2074 11.5518 12.0168C11.6084 11.9717 11.6656 11.9262 11.7238 11.8803C12.0118 11.6535 12.3376 11.4085 12.7049 11.2526C13.0937 11.0876 13.5244 11.0232 14.0121 11.1368C14.4816 11.2463 14.9635 11.5115 15.4872 11.9288C15.6456 12.055 15.8075 12.1816 15.9683 12.3074C16.2818 12.5525 16.5911 12.7944 16.8619 13.0237C17.2719 13.3709 17.6624 13.7443 17.9146 14.1508C18.1794 14.5777 18.316 15.0846 18.1293 15.6351C17.9557 16.1472 17.535 16.5925 16.947 17.008C15.7786 17.8337 14.1661 18.5653 12.1818 18.3645C10.1999 18.164 7.95485 17.0442 5.49592 14.3905C2.94599 11.822 1.91677 9.52393 1.79392 7.52706C1.67091 5.52784 2.46297 3.93673 3.33771 2.79797C3.77672 2.22646 4.23808 1.82295 4.75611 1.67007C5.31434 1.50532 5.81454 1.66468 6.2284 1.94804C6.62225 2.21769 6.97762 2.6242 7.3065 3.04825C7.51479 3.31682 7.73522 3.62353 7.9588 3.93462ZM7.50398 12.4252L7.50348 12.4247C7.49853 12.4196 7.49186 12.4128 7.4836 12.4042C7.46709 12.387 7.44423 12.3628 7.4162 12.3321C7.36022 12.271 7.28317 12.1836 7.19475 12.0749C7.01938 11.8592 6.79216 11.5506 6.59671 11.1876C6.22544 10.4981 5.86399 9.40119 6.56707 8.4256C6.78559 8.12239 7.02172 7.85156 7.22419 7.61935C7.26968 7.56718 7.31347 7.51696 7.35497 7.46875C7.59496 7.19005 7.7585 6.97921 7.85565 6.7746C7.94273 6.59117 7.9752 6.41451 7.93254 6.19242C7.88632 5.95184 7.74415 5.6204 7.40363 5.15714C7.25736 4.95815 7.12112 4.76844 6.99094 4.58717C6.77842 4.29126 6.58205 4.01783 6.3846 3.76324C6.0677 3.35463 5.80442 3.07167 5.56931 2.91069C5.35421 2.76342 5.21515 2.75101 5.08634 2.78902C4.91734 2.8389 4.64391 3.01269 4.26292 3.50867C3.49765 4.50492 2.85805 5.82464 2.95838 7.45542C3.05874 9.08665 3.90601 11.1353 6.33076 13.5755L6.33804 13.5828L6.34505 13.5904C8.68172 16.1145 10.6843 17.0404 12.2993 17.2038C13.9137 17.3672 15.2487 16.7796 16.2737 16.0553C16.7823 15.6958 16.9673 15.429 17.0244 15.2605C17.0685 15.1304 17.0611 14.9881 16.9232 14.7658C16.7727 14.5232 16.5017 14.2474 16.108 13.914C15.8535 13.6985 15.5763 13.4819 15.2759 13.2471C15.111 13.1182 14.9391 12.9839 14.7601 12.8412C14.3113 12.4835 13.9859 12.3287 13.7472 12.273C13.5266 12.2216 13.3482 12.247 13.1607 12.3265C12.9518 12.4152 12.7343 12.5696 12.4457 12.7969C12.3971 12.8351 12.3465 12.8754 12.2941 12.9172C12.0525 13.1098 11.7705 13.3346 11.456 13.54C10.4514 14.1964 9.37207 13.7859 8.70035 13.3851C8.3465 13.1739 8.04815 12.9336 7.84037 12.7491C7.73563 12.6561 7.65177 12.5754 7.59312 12.5169C7.56374 12.4875 7.54056 12.4637 7.5241 12.4465C7.51854 12.4406 7.51374 12.4356 7.50972 12.4313C7.50779 12.4293 7.50605 12.4274 7.50448 12.4257L7.50398 12.4252Z" fill="currentColor"/>
</svg>
